<svg width="21" height="17" viewBox="0 0 21 17" xmlns="http://www.w3.org/2000/svg">
<path d="M17.2111 2.29156C17.2057 2.28117 17.1968 2.27303 17.186 2.26859C15.9351 1.69466 14.615 1.2854 13.2588 1.05105C13.2465 1.04876 13.2338 1.05041 13.2224 1.05578C13.2111 1.06114 13.2017 1.06993 13.1957 1.08091C13.016 1.40716 12.8528 1.74228 12.7068 2.08497C11.2449 1.86306 9.75786 1.86306 8.29595 2.08497C8.149 1.74141 7.98321 1.40621 7.79933 1.08091C7.79302 1.07017 7.78363 1.06158 7.77237 1.05625C7.76111 1.05093 7.7485 1.04911 7.7362 1.05105C6.37985 1.28491 5.05969 1.6942 3.80894 2.26863C3.79823 2.27317 3.7892 2.28092 3.78308 2.29081C1.28182 6.02612 0.596626 9.66958 0.932757 13.2679C0.933703 13.2768 0.936412 13.2853 0.940724 13.293C0.945037 13.3008 0.950864 13.3076 0.957859 13.3131C2.41432 14.3915 4.04339 15.2146 5.77555 15.7474C5.78775 15.751 5.80078 15.7509 5.81288 15.7469C5.82498 15.7429 5.83558 15.7354 5.84325 15.7252C6.21528 15.219 6.54492 14.683 6.82884 14.1226C6.83274 14.1149 6.83496 14.1064 6.83537 14.0978C6.83578 14.0892 6.83435 14.0806 6.83119 14.0726C6.82804 14.0646 6.82321 14.0573 6.81704 14.0513C6.81087 14.0453 6.8035 14.0406 6.7954 14.0376C6.27557 13.8388 5.77231 13.599 5.29036 13.3206C5.2816 13.3155 5.27425 13.3082 5.26895 13.2996C5.26364 13.2909 5.26056 13.2811 5.25996 13.2709C5.25936 13.2608 5.26126 13.2507 5.26551 13.2414C5.26975 13.2322 5.2762 13.2242 5.28429 13.218C5.38541 13.1423 5.48661 13.0634 5.58317 12.9838C5.59175 12.9768 5.60214 12.9722 5.61315 12.9708C5.62416 12.9693 5.63538 12.9709 5.64552 12.9754C8.80303 14.4165 12.2215 14.4165 15.3416 12.9754C15.3518 12.9706 15.3631 12.9688 15.3743 12.9701C15.3855 12.9715 15.396 12.976 15.4047 12.9831C15.5013 13.0627 15.6025 13.1423 15.7044 13.218C15.7125 13.2241 15.719 13.2321 15.7233 13.2413C15.7276 13.2505 15.7296 13.2606 15.7291 13.2707C15.7286 13.2809 15.7256 13.2907 15.7203 13.2994C15.7151 13.3081 15.7078 13.3154 15.6991 13.3206C15.2182 13.6013 14.7145 13.8409 14.1933 14.0369C14.1852 14.04 14.1779 14.0447 14.1717 14.0508C14.1656 14.057 14.1608 14.0643 14.1577 14.0724C14.1546 14.0805 14.1533 14.0891 14.1538 14.0978C14.1542 14.1064 14.1565 14.1149 14.1605 14.1226C14.4492 14.6798 14.7783 15.2152 15.1453 15.7243C15.1528 15.7348 15.1633 15.7426 15.1755 15.7467C15.1876 15.7508 15.2008 15.751 15.213 15.7473C16.9483 15.2163 18.5802 14.3931 20.0385 13.3131C20.0456 13.3079 20.0515 13.3012 20.0558 13.2936C20.0602 13.2859 20.0628 13.2774 20.0636 13.2687C20.466 9.10862 19.3899 5.49501 17.2111 2.29156ZM7.30038 11.0769C6.34974 11.0769 5.56644 10.2045 5.56644 9.13313C5.56644 8.06174 6.33455 7.18929 7.30038 7.18929C8.27377 7.18929 9.04949 8.06932 9.0343 9.13307C9.0343 10.2045 8.26615 11.0769 7.30038 11.0769ZM13.7113 11.0769C12.7607 11.0769 11.9774 10.2045 11.9774 9.13313C11.9774 8.06174 12.7455 7.18929 13.7113 7.18929C14.6847 7.18929 15.4604 8.06932 15.4452 9.13307C15.4452 10.2045 14.6847 11.0769 13.7113 11.0769Z"/>
</svg>
