<svg width="103" height="92" viewBox="0 0 103 92" fill="none" xmlns="http://www.w3.org/2000/svg">
<path d="M102.388 46.3918C102.132 40.2478 97.0123 35.3838 90.7403 35.5118C87.9243 35.6398 85.3643 36.7918 83.4443 38.5838C74.7403 32.5678 64.3723 29.3678 53.7483 29.1118L58.7404 5.17578L75.2524 8.50378C75.7644 12.7278 79.4763 15.7998 83.7003 15.2878C87.9243 14.7758 90.9963 11.0638 90.4843 6.83978C89.9723 2.61578 86.2603 -0.456223 82.0363 0.0557773C79.6043 0.311777 77.4283 1.71978 76.2763 3.76778L57.4604 0.0557773C56.1804 -0.200223 54.9003 0.567778 54.6443 1.84778L49.0123 28.5998C38.2603 28.7278 27.8923 32.0558 18.9323 38.0718C14.4523 33.8478 7.28435 33.9758 3.06035 38.5838C-1.16365 43.0638 -1.03565 50.2318 3.57235 54.4558C4.46835 55.2238 5.49235 55.9918 6.64435 56.5038C6.51635 57.6558 6.51635 58.8078 6.64435 59.8318C6.64435 77.1118 26.7403 91.1918 51.5723 91.1918C76.4043 91.1918 96.5003 77.2398 96.5003 59.8318C96.6283 58.6798 96.6283 57.5278 96.5003 56.5038C100.084 54.7118 102.516 50.7438 102.388 46.3918ZM25.2044 54.1998C25.2044 49.9758 28.6604 46.5198 32.8843 46.5198C37.1083 46.5198 40.5643 49.9758 40.5643 54.1998C40.5643 58.4238 37.1083 61.8798 32.8843 61.8798C28.6604 61.8798 25.2044 58.4238 25.2044 54.1998ZM70.0043 75.4478C64.5003 79.5438 57.8444 81.7198 51.0604 81.3358C44.2764 81.5918 37.4923 79.5438 32.1163 75.4478C31.3483 74.5518 31.4763 73.2718 32.3723 72.5038C33.1403 71.8638 34.1644 71.8638 35.0604 72.5038C39.6684 75.8318 45.3004 77.6238 51.0604 77.3678C56.8204 77.6238 62.4523 76.0878 67.1883 72.6318C68.0843 71.8638 69.3644 71.8638 70.2603 72.6318C71.0284 73.5278 71.0284 74.8078 70.2603 75.7038V75.4478H70.0043ZM68.7243 62.2638C64.5003 62.2638 61.0443 58.8078 61.0443 54.5838C61.0443 50.3598 64.5003 46.9038 68.7243 46.9038C72.9483 46.9038 76.4043 50.3598 76.4043 54.5838C76.5323 58.8078 73.3324 62.3918 68.9804 62.5198H68.5963L68.7243 62.2638Z" />
</svg>
