<svg width="21" height="19" viewBox="0 0 21 19" xmlns="http://www.w3.org/2000/svg">
<g clip-path="url(#clip0_183_245)">
<path d="M18.7088 5.34087V5.88192C18.7088 7.87692 18.2777 9.80275 17.4154 11.6606C16.5532 13.5173 15.2216 15.0898 13.4205 16.3782C11.6182 17.6679 9.53426 18.3114 7.16496 18.3114C4.87473 18.3114 2.80438 17.6604 0.950195 16.3572C1.15649 16.3856 1.47767 16.3992 1.91496 16.3992C3.84573 16.3992 5.53067 15.7754 6.97226 14.529C6.09767 14.529 5.31202 14.2449 4.61779 13.6766C3.9235 13.1096 3.41283 12.3497 3.15026 11.4926C3.33061 11.5482 3.58879 11.5754 3.92232 11.5754C4.30896 11.5754 4.66843 11.5334 5.0032 11.4519C4.07673 11.2295 3.30467 10.7169 2.68702 9.91269C2.06938 9.10975 1.76055 8.1944 1.76055 7.1691V7.08634C2.35349 7.44581 2.95755 7.62616 3.5752 7.62616C2.36461 6.79481 1.76055 5.58916 1.76055 4.00922C1.76055 3.28904 1.95449 2.55404 2.34114 1.80545C4.47573 4.68863 7.25514 6.21298 10.6794 6.37851C10.6024 6.05178 10.563 5.71731 10.562 5.38163C10.562 4.18957 10.9548 3.16428 11.7393 2.30575C12.5262 1.44598 13.4847 1.01733 14.6175 1.01733C15.8009 1.01733 16.7916 1.4744 17.5896 2.38851C18.5927 2.1674 19.4549 1.82028 20.1751 1.35087C19.8663 2.37616 19.2746 3.1791 18.4 3.76092C19.3017 3.62257 20.0726 3.38663 20.7162 3.05434C20.1867 3.92859 19.5072 4.70263 18.7088 5.34087Z"/>
</g>
<defs>
<clipPath id="clip0_183_245">
<rect width="21" height="18.5294"/>
</clipPath>
</defs>
</svg>
