<svg width="21" height="21" viewBox="0 0 21 21" xmlns="http://www.w3.org/2000/svg">
<path d="M20.5613 5.44534C20.3198 4.54177 19.6083 3.83027 18.7047 3.58877C17.0668 3.1499 10.5 3.1499 10.5 3.1499C10.5 3.1499 3.93311 3.1499 2.29528 3.58877C1.39187 3.83027 0.680203 4.54177 0.438744 5.44534C0 7.08301 0 10.5 0 10.5C0 10.5 0 13.917 0.438744 15.5545C0.680203 16.458 1.39187 17.1697 2.29528 17.4112C3.93311 17.8499 10.5 17.8499 10.5 17.8499C10.5 17.8499 17.0668 17.8499 18.7047 17.4112C19.6083 17.1697 20.3198 16.458 20.5613 15.5545C21 13.917 21 10.5 21 10.5C21 10.5 21 7.08301 20.5613 5.44534ZM8.39988 13.6501V7.34994L13.8557 10.5L8.39988 13.6501Z" />
</svg>
