<svg width="128" height="128" viewBox="0 0 128 128" fill="none" xmlns="http://www.w3.org/2000/svg">
<path d="M6 120H42V128H6V120ZM52 120H80V128H52V120ZM92 120H120V128H92V120ZM62 82C62 82.5304 61.7893 83.0391 61.4142 83.4142C61.0391 83.7893 60.5304 84 60 84C59.4696 84 58.9609 83.7893 58.5858 83.4142C58.2107 83.0391 58 82.5304 58 82V62H52V104H80V62H62V82ZM76.364 40H55.636L52.364 58H79.636L76.364 40ZM76 116L79.2 108H52.8L56 116H76ZM66 0C57.612 8.388 56.26 29.428 56.042 36H75.958C75.74 29.428 74.388 8.388 66 0ZM106 46C94.282 46 92.374 65.6 92.062 72H119.938C119.626 65.6 117.718 46 106 46ZM92 76V106H110V90C110 89.4696 110.211 88.9609 110.586 88.5858C110.961 88.2107 111.47 88 112 88C112.53 88 113.039 88.2107 113.414 88.5858C113.789 88.9609 114 89.4696 114 90V106H120V76H92ZM116 116L119 110H93L96 116H116ZM10 98H38V116H10V98ZM38 48C37.9968 46.9401 37.5744 45.9245 36.8249 45.1751C36.0755 44.4256 35.0599 44.0032 34 44H14C12.9401 44.0032 11.9245 44.4256 11.1751 45.1751C10.4256 45.9245 10.0032 46.9401 10 48V94H38V48Z" />
</svg>
