<svg width="16" height="16" viewBox="0 0 16 16" fill="none" xmlns="http://www.w3.org/2000/svg">
<path d="M1.48779 6.47515L1.4878 8.08258H7.87629C8.28845 8.08258 8.57696 8.41231 8.57696 8.78325V9.9373H13.6878C13.8938 9.9373 14.0587 9.77244 14.0587 9.56636V6.43393C14.0587 6.22785 13.8938 6.06299 13.6878 6.06299H1.85874C1.65266 6.1042 1.48779 6.26907 1.48779 6.47515Z" />
<path d="M7.87628 8.37109H1.48779V9.44271C1.48779 9.69001 1.81751 9.93866 2.02359 9.93731H8.28843L8.28844 8.82447C8.32965 8.57717 8.12357 8.37109 7.87628 8.37109ZM3.01278 9.44271C2.84791 9.44271 2.68305 9.31906 2.68305 9.11298C2.68305 8.94812 2.8067 8.78325 3.01278 8.78325C3.17764 8.78325 3.34251 8.9069 3.34251 9.11298C3.34251 9.27785 3.17764 9.44271 3.01278 9.44271ZM4.04318 9.44271C3.87832 9.44271 3.71345 9.31906 3.71345 9.11298C3.71345 8.94812 3.8371 8.78325 4.04318 8.78325C4.20805 8.78325 4.37291 8.9069 4.37291 9.11298C4.33169 9.27785 4.20805 9.44271 4.04318 9.44271ZM5.07358 9.44271C4.90872 9.44271 4.74385 9.31906 4.74385 9.11298C4.74385 8.94812 4.8675 8.78325 5.07358 8.78325C5.23845 8.78325 5.40331 8.9069 5.40331 9.11298C5.3621 9.27785 5.23845 9.44271 5.07358 9.44271ZM6.06277 9.44271C5.89791 9.44271 5.73304 9.31906 5.73304 9.11298C5.73304 8.94812 5.85669 8.78325 6.06277 8.78325C6.22763 8.78325 6.3925 8.9069 6.3925 9.11298C6.3925 9.27785 6.22763 9.44271 6.06277 9.44271ZM7.09317 9.44271C6.92831 9.44271 6.76344 9.31906 6.76344 9.11298C6.76344 8.94812 6.88709 8.78325 7.09317 8.78325C7.25804 8.78325 7.4229 8.9069 7.4229 9.11298C7.4229 9.27785 7.25804 9.44271 7.09317 9.44271Z" />
<path d="M15.2954 8.41254L14.3887 8.61862V6.5166L15.3366 6.80511C15.5015 6.84633 15.6252 7.01119 15.6252 7.21728V8.00038C15.6252 8.20646 15.5015 8.37133 15.2954 8.41254Z" />
<path d="M0.375 7.95916C0.375 8.16524 0.498648 8.33011 0.663513 8.41254L1.19932 8.61862V6.5166L0.622297 6.80511C0.457432 6.88755 0.375 7.05241 0.375 7.21728V7.95916Z" />
</svg>
