<svg width="16" height="16" viewBox="0 0 16 16" fill="none" xmlns="http://www.w3.org/2000/svg">
<g clip-path="url(#clip0_585_221)">
<path d="M4.11398 4.84922L4.36604 4.59715V3.54688L3.69387 2.58062C3.69387 2.58062 3.56783 2.45459 3.4418 2.45459C3.31577 2.45459 2.18147 2.8747 1.63533 3.29481C1.08919 3.71492 0.375 4.89123 0.375 5.01726C0.375 5.14329 0.963154 5.73145 1.34125 5.73145C1.71935 5.73145 4.11398 4.84922 4.11398 4.84922Z" />
<path d="M11.8858 4.84922L11.6758 4.59715V3.54688L12.3059 2.58062C12.3059 2.58062 12.432 2.45459 12.558 2.45459C12.684 2.45459 13.7763 2.8747 14.3645 3.29481C14.9526 3.71492 15.6248 4.89123 15.6248 5.01726C15.6248 5.14329 15.0787 5.73145 14.6586 5.73145C14.2805 5.73145 11.8858 4.84922 11.8858 4.84922Z" />
<path d="M12.3481 7.87418C12.3481 7.49608 12.1801 6.65586 11.928 6.36178C11.676 6.0677 11.5919 5.47955 11.5919 5.26949C11.5919 5.05944 11.5919 5.01743 11.5919 5.01743L11.2559 4.68134V3.379L11.634 2.79085C11.634 2.79085 10.3736 2.11867 10.0796 2.11867C9.78548 2.11867 9.82749 2.37074 9.74347 2.45476C9.65944 2.53878 9.53341 3.58906 8.7352 3.58906C7.93699 3.58906 7.93699 3.58906 7.93699 3.58906C7.93699 3.58906 7.93699 3.58906 7.13879 3.58906C6.34058 3.58906 6.21454 2.49677 6.13052 2.41275C6.0465 2.32873 6.08851 2.07666 5.79443 2.07666C5.50036 2.07666 4.32405 2.79085 4.32405 2.79085L4.70215 3.379V4.68134L4.36606 5.01743C4.36606 5.01743 4.36606 5.05944 4.36606 5.26949C4.36606 5.47955 4.28204 6.10971 4.02997 6.36178C3.77791 6.61385 3.60986 7.45407 3.60986 7.87418C3.60986 8.29428 4.70215 12.2013 4.70215 12.6634C4.70215 13.1255 4.57612 13.5877 4.57612 13.5877V14.3019H7.979H11.3819V13.5877C11.3819 13.5877 11.2559 13.1676 11.2559 12.6634C11.2559 12.2013 12.3481 8.25227 12.3481 7.87418ZM8.39911 5.73162L8.81922 4.26123H9.74347V6.94993L7.979 8.21026L7.60091 7.91619L9.28134 5.47955L8.39911 5.73162ZM6.21454 4.21922H7.26482L7.05476 6.69787L7.68493 6.48781L7.47487 7.74814L6.25655 6.90792C6.21454 6.94993 6.21454 4.21922 6.21454 4.21922ZM7.979 13.6717H4.87019C4.99623 13.5457 4.99623 12.6214 4.99623 12.6214C4.99623 11.5291 4.40807 10.1428 4.40807 9.38657C4.40807 9.05048 5.33231 7.79015 5.33231 7.79015C5.50036 7.9582 6.08851 8.37831 6.50862 8.37831C6.92873 8.37831 7.979 8.37831 7.979 8.37831C7.979 8.37831 9.02928 8.37831 9.44939 8.37831C9.8695 8.37831 10.4577 7.9582 10.6257 7.79015C10.6257 7.79015 11.5499 9.09249 11.5499 9.38657C11.5499 10.1428 10.9618 11.5291 10.9618 12.6214C10.9618 12.6214 10.9618 13.5457 11.0878 13.6717H7.979Z" />
<path d="M10.6677 0.942383C10.4576 0.942383 9.99551 0.942383 9.99551 0.942383L8.94524 2.62282H7.97899H7.01273L5.96246 0.942383C5.96246 0.942383 5.50034 0.942383 5.29028 0.942383C5.08023 0.942383 3.65186 1.74059 3.65186 1.7826C3.65186 1.82461 3.73588 2.11869 3.86191 2.11869C3.98794 2.11869 5.66838 1.23646 5.7524 1.23646C5.83643 1.23646 6.92871 2.95891 6.92871 2.95891H7.97899H9.02926C9.02926 2.95891 10.1215 1.19445 10.2056 1.19445C10.2896 1.19445 11.97 2.07668 12.0961 2.07668C12.2641 2.07668 12.3061 1.7826 12.3061 1.74059C12.3481 1.74059 10.8777 0.942383 10.6677 0.942383Z" />
<path d="M7.30664 11.6553L7.97882 12.0754L8.65099 11.6553V11.5713V11.4032V11.1932V11.0671V10.9411L7.97882 10.521L7.30664 10.9411V11.0671V11.1932V11.4032V11.5713V11.6553Z" />
<path d="M5.62646 11.6553L6.29864 12.0754L6.92881 11.6553V11.5713V11.4032V11.1932V11.0671V10.9411L6.29864 10.521L5.62646 10.9411V11.0671V11.1932V11.4032V11.5713V11.6553Z" />
<path d="M9.0293 11.6553L9.65946 12.0754L10.3316 11.6553V11.5713V11.4032V11.1932V11.0671V10.9411L9.65946 10.521L9.0293 10.9411V11.0671V11.1932V11.4032V11.5713V11.6553Z" />
<path d="M8.14697 10.1426L8.81915 10.5627L9.49132 10.1426V10.0586V9.89053V9.68048V9.55444V9.42841L8.81915 9.0083L8.14697 9.42841V9.55444V9.68048V9.89053V10.0586V10.1426Z" />
<path d="M6.4668 10.1426L7.13897 10.5627L7.81115 10.1426V10.0586V9.89053V9.68048V9.55444V9.42841L7.13897 9.0083L6.4668 9.42841V9.55444V9.68048V9.89053V10.0586V10.1426Z" />
<path d="M10.7095 10.941V11.109V11.2351V11.4031V11.5711V11.6552C10.7515 11.3611 10.8355 11.067 10.9195 10.8149L10.7095 10.941Z" />
<path d="M5.24814 11.6552V11.5712V11.3611V11.1931V11.067V10.899L5.03809 10.7729C5.12211 11.067 5.20613 11.3611 5.24814 11.6552Z" />
<path d="M9.0293 8.71451L9.70147 9.13462L10.3736 8.71451V8.63048V8.42043V8.37842C10.1216 8.54646 9.78549 8.6725 9.44941 8.6725C9.32337 8.71451 9.15533 8.71451 9.0293 8.71451Z" />
<path d="M6.08874 13.0835V12.4113L5.41656 11.9912L5.29053 12.0752C5.33254 12.2853 5.33254 12.4533 5.33254 12.6214C5.33254 12.9155 5.29053 13.1675 5.29053 13.3356H5.75265L6.08874 13.1255V13.0835Z" />
<path d="M10.5418 11.9912L9.86963 12.4113V13.1675L10.2057 13.3776H10.6678C10.6678 13.2095 10.6258 12.9575 10.6258 12.6634C10.6258 12.4953 10.6258 12.2853 10.6678 12.0752L10.5418 11.9912Z" />
<path d="M7.97882 9.13447L8.65099 8.71436C8.3149 8.71436 7.97882 8.71436 7.97882 8.71436C7.97882 8.71436 7.64273 8.71436 7.30664 8.71436L7.97882 9.13447Z" />
<path d="M10.5418 9.0083L9.86963 9.42841V10.1846L10.5418 10.6047L11.0879 10.2686C11.172 9.97455 11.214 9.68048 11.214 9.47042V9.42841L10.5418 9.0083Z" />
<path d="M6.08849 10.1426V9.42841L5.41632 9.0083L4.74414 9.42841V9.47042C4.74414 9.68048 4.78615 9.93254 4.87017 10.2266L5.41632 10.5627L6.08849 10.1426Z" />
<path d="M6.92882 8.71449C6.76078 8.71449 6.59274 8.71449 6.50871 8.71449C6.21464 8.71449 5.87855 8.58845 5.58447 8.42041V8.46242V8.63047V8.71449L6.25665 9.1346L6.92882 8.71449Z" />
<path d="M6.4668 12.4113V12.5794V12.7054V12.8734V13.0835V13.1675L6.80288 13.3776H7.47506L7.81115 13.1675V13.0835V12.8734V12.7054V12.5794V12.4113L7.13897 11.9912L6.4668 12.4113Z" />
<path d="M8.14697 12.4113V12.5794V12.7054V12.8734V13.0835V13.1675L8.48306 13.3776H9.15524L9.49132 13.1675V13.0835V12.8734V12.7054V12.5794V12.4113L8.81915 11.9912L8.14697 12.4113Z" />
<path d="M13.5245 6.15152C13.2724 5.89945 12.6422 5.81543 12.6422 5.81543C12.6422 6.15152 13.0623 6.15152 13.0623 7.45386C13.0623 8.7562 11.844 11.907 11.844 12.8313C11.844 13.7555 12.2641 14.7638 12.2641 14.7638H7.97902H3.65189C3.65189 14.7638 4.072 13.7555 4.072 12.8313C4.072 11.907 2.85368 8.7562 2.85368 7.45386C2.85368 6.15152 3.3158 6.19353 3.3158 5.81543C3.3158 5.81543 2.68563 5.85744 2.43357 6.15152C2.1815 6.44559 2.60161 8.12603 2.60161 8.12603C2.60161 8.12603 3.60988 11.823 3.60988 12.8733C3.60988 13.9235 2.9377 15.0578 2.9377 15.0578H7.97902H13.0203C13.0203 15.0578 12.3482 13.8815 12.3482 12.8733C12.3482 11.865 13.3564 8.12603 13.3564 8.12603C13.3564 8.12603 13.7765 6.40358 13.5245 6.15152Z" fill="url(#paint0_linear_585_221)"/>
</g>
<defs>
<linearGradient id="paint0_linear_585_221" x1="7.98082" y1="5.83644" x2="7.98082" y2="15.0662" gradientUnits="userSpaceOnUse">
<stop/>
<stop offset="1" stop-opacity="0.0509804"/>
</linearGradient>
<clipPath id="clip0_585_221">
<rect width="16" height="16" />
</clipPath>
</defs>
</svg>
