<svg width="16" height="16" viewBox="0 0 16 16" fill="none" xmlns="http://www.w3.org/2000/svg">
<g clip-path="url(#clip0_585_135)">
<path fill-rule="evenodd" clip-rule="evenodd" d="M12.6479 14.0205V7.55284H9.33526V14.0205H12.6479ZM12.5722 7.27712C12.4032 6.95121 12.2855 6.60094 12.2017 6.23479C11.8672 5.94062 11.4368 5.77867 10.9914 5.77933C10.546 5.77867 10.1156 5.94062 9.78113 6.23479C9.69771 6.60094 9.5796 6.95121 9.41055 7.27712H12.5722ZM12.1234 5.83285C11.7957 3.81868 12.2759 1.43874 10.9914 0C9.70694 1.43874 10.1871 3.81868 9.85975 5.83285C10.1978 5.61734 10.5905 5.50309 10.9914 5.50361C11.3924 5.50323 11.7852 5.61746 12.1234 5.83285ZM12.8417 14.9529V14.2966H9.14111V14.9529H12.8417Z" />
<path d="M12.7163 15.229H9.26705C9.05403 15.229 8.88135 15.4017 8.88135 15.6147C8.88135 15.8277 9.05403 16.0004 9.26705 16.0004H12.7163C12.9293 16.0004 13.102 15.8277 13.102 15.6147C13.102 15.4017 12.9293 15.229 12.7163 15.229Z" />
<path fill-rule="evenodd" clip-rule="evenodd" d="M6.66451 14.0205V7.55284H3.35112V14.0205H6.66451ZM6.58884 7.27712C6.4198 6.95121 6.30205 6.60094 6.21827 6.23479C5.88379 5.94062 5.45343 5.77867 5.008 5.77933C4.56257 5.77867 4.13221 5.94062 3.79773 6.23479C3.71394 6.60094 3.5962 6.95121 3.42716 7.27712H6.58884ZM6.13965 5.83285C5.81226 3.81868 6.29283 1.43874 5.00837 0C3.72391 1.43874 4.20411 3.81868 3.87635 5.83285C4.21457 5.61738 4.60735 5.50315 5.00837 5.50361C5.40926 5.50326 5.80152 5.61749 6.13965 5.83285ZM6.85828 14.9529V14.2966H3.15771V14.9529H6.85828Z" />
<path d="M6.73287 15.229H3.28366C3.07064 15.229 2.89795 15.4017 2.89795 15.6147C2.89795 15.8277 3.07064 16.0004 3.28366 16.0004H6.73287C6.94589 16.0004 7.11858 15.8277 7.11858 15.6147C7.11858 15.4017 6.94589 15.229 6.73287 15.229Z" />
</g>
<defs>
<clipPath id="clip0_585_135">
<rect width="16" height="16" />
</clipPath>
</defs>
</svg>
