<svg width="16" height="16" viewBox="0 0 16 16" fill="none" xmlns="http://www.w3.org/2000/svg">
<g clip-path="url(#clip0_585_253)">
<path d="M4.93547 12.2462L4.60434 11.9151L4.08547 11.3962L3.75434 11.0651L3.42291 10.7336L1.52356 12.633C1.13744 12.6711 0.771 12.8423 0.494875 13.1187C-0.163344 13.7766 -0.163344 14.8475 0.494875 15.5057C0.8135 15.8243 1.23744 15.9999 1.68822 15.9999C2.139 15.9999 2.56291 15.8243 2.88188 15.5057C3.15803 15.2292 3.32922 14.8631 3.36766 14.477L5.267 12.5777L4.93547 12.2462ZM15.9972 0.00323828L13.1669 0.000800781L8.65259 4.51514L8.98434 4.8463L9.31578 5.17743L9.73812 5.59946L11.4338 3.9038L12.0964 4.56671L10.4013 6.26205L10.824 6.68408L11.1554 7.01521L11.4872 7.34664L16 2.83355L15.9972 0.00323828ZM5.17975 9.31346L4.84828 8.98233L4.51684 8.65089L3.59125 9.5768L4.08544 10.071L4.41687 10.4025L4.68303 10.6686L4.92391 10.4259L5.25409 10.0935L5.60584 9.73893L5.17975 9.31346ZM7.01941 11.1513L6.68797 10.8201L6.26872 10.4012L5.91666 10.7558V10.7561L5.58647 11.0885L5.34562 11.3312L5.59803 11.5836L6.424 12.4096L7.35116 11.4824L7.01941 11.1513ZM12.0992 9.28255L10.8246 8.00924L10.4929 7.67811L10.1614 7.34664L9.73875 6.92461L9.07556 6.26205L8.65322 5.83999L8.32175 5.50886L7.99 5.17774L2.80775 0.000488281L0.0028125 0.00298828L0 2.81449L5.17944 7.9883L5.51088 8.31943L5.84263 8.65089L6.26625 9.07386L6.92912 9.73611L7.35053 10.1576L7.68231 10.4887L8.01375 10.8198L9.64444 12.4486L10.1243 11.9688L10.4557 11.6376L10.7147 11.3784L10.4188 11.0828L10.0874 10.7517V10.7514L3.92081 4.59011L4.58337 3.92693L10.7503 10.0888L11.0817 10.42L11.3776 10.7155L11.6368 10.4562L11.9683 10.1247L12.455 9.63836L12.0992 9.28255ZM15.5049 13.1187C15.2287 12.8422 14.8626 12.671 14.4762 12.6329L12.6309 10.7876L12.2998 11.1188L11.9683 11.4502L11.4498 11.9688L11.1183 12.3002L10.7869 12.6316L12.6322 14.4769C12.6706 14.8631 12.8418 15.2292 13.118 15.5056C13.4369 15.8242 13.8608 15.9998 14.3116 15.9998C14.7624 15.9998 15.1863 15.8242 15.505 15.5056C16.1631 14.8475 16.1631 13.7766 15.5049 13.1187Z" />
</g>
<defs>
<clipPath id="clip0_585_253">
<rect width="16" height="16" />
</clipPath>
</defs>
</svg>
