<svg width="16" height="16" viewBox="0 0 16 16" fill="none" xmlns="http://www.w3.org/2000/svg">
<path d="M9.40474 1.50537H11.6593C11.7586 2.3297 12.0717 2.62381 12.7796 1.91753H15.6251L11.5601 8.51214L10.3406 6.86349H8.30808L6.27559 10.1608H7.49508L8.71458 12.2216H9.12108L8.30808 13.4581L6.68209 10.9851H3.604L9.40474 1.50537Z" />
<path d="M8.53593 7.26371L6.95264 9.77737H7.61733L9.14435 12.0178L11.2462 8.86661L10.2043 7.26367L8.53593 7.26371Z"  fill-opacity="0.5"/>
<path d="M9.121 1.50537L7.86867 1.50784L2.08398 10.1418L2.21053 10.9851H3.43003L9.121 1.50537Z" />
<path d="M1.39758 11.1719L0.387683 13.0459L0.375 14.4949H8.09847V13.6706L6.47248 11.1976L1.39758 11.1719ZM2.21057 12.2216H6.12057L6.68205 13.4581H1.80407L2.21057 12.2216Z" />
</svg>
