<svg width="16" height="16" viewBox="0 0 16 16" fill="none" xmlns="http://www.w3.org/2000/svg">
<path d="M13.0874 5.27359H11.4878C11.4385 4.26719 11.7611 2.52172 12.2876 2C12.814 2.52172 13.1367 4.26711 13.0874 5.27359ZM11.4134 5.5382H13.1617V5.99836H11.4134V5.5382ZM7.12603 5.5382H8.87439V5.99836H7.12603V5.5382ZM8.80002 5.27359H7.20033C7.15103 4.26711 7.47369 2.52172 8.00018 2C8.52666 2.52172 8.84939 4.26711 8.80002 5.27359ZM4.51268 5.27359H2.91299C2.86369 4.26711 3.18635 2.52172 3.71283 2C4.23932 2.52172 4.56205 4.26711 4.51268 5.27359ZM2.83869 5.5382H4.58697V5.99836H2.83869V5.5382ZM5.0033 7.64078V12.3141H2.42236V7.64078L2.80588 6.26305H4.61979L5.0033 7.64078ZM9.29064 7.64078V12.3141H6.70971V7.64078L7.09322 6.26305H8.90713L9.29064 7.64078ZM13.578 7.64078V12.3141H10.9971V7.64078L11.3806 6.26305H13.1945L13.578 7.64078ZM11.381 12.5788H13.1941V13.0727H11.381V12.5788ZM10.9971 13.3373H13.5781V14H10.9971V13.3373ZM2.80635 12.5788H4.61939V13.0727H2.80635V12.5788ZM2.42236 13.3373H5.00338V14H2.42236V13.3373ZM7.09369 12.5788H8.90674V13.0727H7.09369V12.5788ZM6.70971 13.3373H9.29072V14H6.70971V13.3373Z" />
</svg>
