<svg width="16" height="16" viewBox="0 0 16 16" fill="none" xmlns="http://www.w3.org/2000/svg">
<g clip-path="url(#clip0_585_211)">
<path d="M12.2106 8.04209C12.0849 7.91641 11.9173 7.87451 11.7497 7.87451H4.2923C4.12472 7.87451 3.95713 7.91641 3.83145 8.04209C3.83145 8.04209 3.83145 8.04209 3.78955 8.08399V9.42465V10.5558C3.78955 10.891 3.87334 11.2262 3.99903 11.5613C4.2923 12.1479 4.71125 13.1953 4.71125 13.4885C4.71125 13.9075 6.47087 15.6252 7.30878 15.6252H7.89532H8.10479H8.69133C9.57114 15.6252 11.2889 13.9075 11.2889 13.4885C11.2889 13.1953 11.7497 12.1898 12.0011 11.5613C12.1268 11.2681 12.2106 10.9329 12.2106 10.5558V9.42465V8.16778C12.2525 8.08399 12.2525 8.08399 12.2106 8.04209ZM7.26688 9.80171C7.26688 10.3045 6.26139 10.7234 5.75864 10.7234H5.63296C5.13021 10.7234 4.71125 10.2626 4.71125 9.75981V9.71792C4.71125 9.29896 5.214 9.04759 5.63296 9.04759H6.09381C6.42897 9.08948 7.26688 9.38275 7.26688 9.80171ZM11.3308 9.80171C11.3308 10.3045 10.8699 10.7653 10.409 10.7653H10.2834C9.78062 10.7653 8.77512 10.3464 8.77512 9.84361V9.80171C8.77512 9.42465 9.61303 9.08948 10.032 9.08948H10.4928C10.828 9.08948 11.3308 9.34086 11.3308 9.80171Z" />
<path d="M13.132 9.67591C12.9645 9.21506 12.755 8.7961 12.5874 8.46094V10.4719C12.5874 10.5138 12.5874 10.5976 12.5874 10.6395C12.8388 10.849 13.2158 11.0166 13.7605 11.0585C13.5091 10.6814 13.2996 10.2206 13.132 9.67591Z"  fill-opacity="0.49"/>
<path d="M3.53782 8.41895C3.32834 8.71221 3.11887 9.17307 2.95128 9.67581C2.74181 10.2205 2.57422 10.6813 2.36475 11.0584C2.90939 11.0584 3.32834 10.8489 3.57972 10.6394C3.57972 10.5975 3.57972 10.5556 3.57972 10.4718V8.41895H3.53782Z"  fill-opacity="0.49"/>
<path d="M1.90412 9.29862C2.1136 8.71209 2.53256 7.70659 3.1191 7.20384C3.45426 6.91057 3.87322 6.78489 4.29217 6.78489H11.7077C12.1266 6.78489 12.5456 6.95247 12.8808 7.20384C13.4673 7.70659 13.8863 8.75398 14.0957 9.29862C14.4309 10.2203 14.6404 10.6393 14.808 10.8069H15.0593L13.97 7.5809C13.9282 7.5809 13.9281 7.5809 13.9281 7.5809H13.7187L13.6768 7.41332C13.6768 7.37143 13.2159 5.98887 13.0902 5.36044C13.0483 5.27665 13.0483 5.19285 13.0483 5.10906C13.0483 4.98338 13.0483 4.85769 13.0064 4.732L12.7551 3.93599C12.5456 3.13997 11.7077 2.46964 10.4508 2.09258V2.42775C10.4508 2.42775 9.19395 2.00879 8.02088 2.00879C6.8478 2.00879 5.59093 2.42775 5.59093 2.42775V2.09258C4.33407 2.46964 3.49616 3.13997 3.28668 3.93599L3.0353 4.732C2.99341 4.85769 2.99341 4.98338 2.99341 5.10906C2.99341 5.19285 2.99341 5.27665 2.95151 5.36044C2.82583 5.94698 2.36498 7.32953 2.36498 7.41332L2.32308 7.6228H2.1136H2.07171L0.982422 10.8488H1.2338C1.31759 10.6393 1.56896 10.2622 1.90412 9.29862Z" />
<path d="M14.9755 11.7289C14.2214 11.7289 13.8025 10.8072 13.3835 9.59225C13.0902 8.75434 12.7132 8.08401 12.378 7.83264C12.2104 7.66506 11.9591 7.58126 11.7496 7.58126H4.29218C4.0408 7.58126 3.83133 7.66506 3.66374 7.83264C3.32858 8.12591 2.95152 8.75434 2.65825 9.59225C2.1974 10.8072 1.82034 11.7289 1.06622 11.7289C0.898636 11.7289 0.772949 11.6032 0.772949 11.4357C0.772949 11.2681 0.898636 11.1424 1.06622 11.1424C1.44328 11.1424 1.77844 10.4302 2.1555 9.38278C2.36498 8.83813 2.78394 7.87453 3.28668 7.41368C3.57995 7.16231 3.91512 7.03662 4.29218 7.03662H11.7077C12.0848 7.03662 12.4199 7.16231 12.7132 7.41368C13.2578 7.87453 13.6768 8.88003 13.8444 9.42467C14.2633 10.514 14.5566 11.1843 14.9336 11.1843C15.1012 11.1843 15.2269 11.31 15.2269 11.4776C15.2269 11.6451 15.1431 11.7289 14.9755 11.7289Z" />
<path d="M9.06844 0.542582C9.02654 0.416896 8.94275 0.375 8.81706 0.375H7.97915H7.14124C7.01555 0.375 6.93176 0.458791 6.88987 0.542582C6.80608 0.835852 6.5547 1.50618 5.92627 1.96703C5.92627 1.96703 6.72229 1.71566 7.97915 1.71566C9.23602 1.71566 10.032 1.96703 10.032 1.96703C9.4455 1.50618 9.19412 0.835852 9.06844 0.542582Z" />
<path d="M2.28124 4.98333C2.28124 4.98333 2.82588 4.64816 2.6583 5.2766C2.53261 5.90503 2.11366 7.32948 2.11366 7.32948C2.11366 7.32948 1.48522 7.32948 1.7366 6.28209C1.98797 5.2347 2.28124 4.98333 2.28124 4.98333Z" />
<path d="M13.7607 4.98333C13.7607 4.98333 13.216 4.64816 13.3836 5.2766C13.5093 5.90503 13.9701 7.32948 13.9701 7.32948C13.9701 7.32948 14.5986 7.32948 14.3472 6.28209C14.012 5.2347 13.7607 4.98333 13.7607 4.98333Z" />
</g>
<defs>
<clipPath id="clip0_585_211">
<rect width="16" height="16" />
</clipPath>
</defs>
</svg>
