<svg width="16" height="16" viewBox="0 0 16 16" fill="none" xmlns="http://www.w3.org/2000/svg">
<path d="M2.20694 7.50033L0.760866 7.5L0.375 8.01665V13.2336L0.995065 14.017L2.20694 14.0173V7.50033Z" />
<path d="M10.0474 7.17876C9.57993 7.1813 9.1059 7.27521 8.6225 7.50027L3.04834 7.49998V14.0169L7.61619 14.017L12.4817 9.11572H15.6249L15.6244 7.50003L11.7166 7.50027C11.1664 7.30626 10.6117 7.17582 10.0474 7.17876ZM6.84663 9.19512H8.18635C8.58831 9.19512 8.91201 9.5188 8.91201 9.92077C8.91201 10.3227 8.58831 10.6462 8.18635 10.6462H6.84663C6.44467 10.6462 6.12097 10.3227 6.12097 9.92077C6.12097 9.5188 6.44467 9.19512 6.84663 9.19512ZM5.83261 11.1111H7.18284C7.63753 11.1111 8.00353 11.4771 8.00353 11.9318C8.00353 12.3864 7.63753 12.7524 7.18284 12.7524H5.83261C5.37792 12.7524 5.01193 12.3864 5.01193 11.9318C5.01193 11.4771 5.37792 11.1111 5.83261 11.1111Z" />
<path d="M8.60449 14.0173H10.1515L14.3892 9.66895H12.9975L8.60449 14.0173Z" />
<path d="M6.39432 1.98291L5.34736 3.94433H5.15066L3.84668 6.59666H8.66881C9.74265 6.03283 10.8408 6.08425 11.9577 6.59666H15.5888V3.67338L14.9369 1.98291H13.2587V2.67611C13.2639 3.22062 12.4733 3.20138 12.4592 2.67611V1.98291H11.2176V2.67611C11.2204 3.21284 10.1591 3.18082 10.1644 2.67611V1.98291H9.01425V2.67611C9.00279 3.17397 8.16286 3.16976 8.165 2.67607V1.98291H6.39432ZM6.27806 4.88819C6.59319 4.88837 6.84861 5.14378 6.84878 5.45891C6.84897 5.77429 6.59345 6.03011 6.27806 6.03029C5.96242 6.03048 5.7065 5.77454 5.70669 5.45891C5.70687 5.14353 5.96268 4.888 6.27806 4.88819ZM13.9096 4.88819C14.2247 4.88837 14.4801 5.14378 14.4803 5.45891C14.4805 5.77429 14.225 6.03011 13.9096 6.03029C13.5939 6.03048 13.338 5.77454 13.3382 5.45891C13.3384 5.14353 13.5942 4.888 13.9096 4.88819Z"  fill-opacity="0.5"/>
<path d="M7.01699 11.5859H5.95238C5.78452 11.5859 5.64844 11.722 5.64844 11.8899C5.64844 12.0577 5.78452 12.1938 5.95238 12.1938H7.01699C7.18485 12.1938 7.32093 12.0577 7.32093 11.8899C7.32093 11.722 7.18485 11.5859 7.01699 11.5859Z" />
</svg>
