<svg width="16" height="16" viewBox="0 0 16 16" fill="none" xmlns="http://www.w3.org/2000/svg">
<g clip-path="url(#clip0_585_245)">
<path d="M2.28579 2.28578H5.51095C5.64613 2.28465 5.7766 2.23595 5.87947 2.14823C5.98234 2.06051 6.05103 1.93937 6.07351 1.80606C6.19251 1.19125 6.45583 0.61349 6.84179 0.120346C6.08784 0.0383146 5.32991 -0.00184082 4.57151 6.47509e-05H1.71436V1.71435C1.71436 2.02994 1.9702 2.28578 2.28579 2.28578ZM2.85723 0.571502H5.14295C5.21873 0.571502 5.2914 0.601605 5.34498 0.655187C5.39857 0.70877 5.42867 0.781444 5.42867 0.857221C5.42867 0.932998 5.39857 1.00567 5.34498 1.05925C5.2914 1.11284 5.21873 1.14294 5.14295 1.14294H2.85723C2.78145 1.14294 2.70878 1.11284 2.6552 1.05925C2.60161 1.00567 2.57151 0.932998 2.57151 0.857221C2.57151 0.781444 2.60161 0.70877 2.6552 0.655187C2.70878 0.601605 2.78145 0.571502 2.85723 0.571502Z" />
<path d="M10.0001 3.14287C10.3157 3.14287 10.5716 2.88703 10.5716 2.57144C10.5716 2.25584 10.3157 2 10.0001 2C9.68455 2 9.42871 2.25584 9.42871 2.57144C9.42871 2.88703 9.68455 3.14287 10.0001 3.14287Z" />
<path d="M8.59997 0.417436C8.29881 0.345717 7.93913 0.274593 7.52113 0.209437C7.06745 0.680607 6.75984 1.27301 6.63541 1.91515C6.53385 2.45755 6.06263 2.85224 5.51085 2.85715H2.28571C1.65452 2.85715 1.14287 2.34546 1.14287 1.71431V0H0.571435C0.255843 0 0 0.255843 0 0.571435V4.2857C0 4.60129 0.255843 4.85714 0.571435 4.85714H3.71427C5.17371 4.89468 6.62809 4.67057 8.00853 4.19542C7.77998 3.91609 7.61295 3.59168 7.51834 3.24339C7.42374 2.89509 7.40369 2.53076 7.45951 2.17419C7.51533 1.81762 7.64576 1.47684 7.84228 1.17412C8.0388 0.871399 8.29699 0.613555 8.59997 0.417436ZM2.28571 3.99998C2.20993 3.99998 2.13726 3.96988 2.08368 3.9163C2.03009 3.86272 1.99999 3.79004 1.99999 3.71427C1.99999 3.63849 2.03009 3.56582 2.08368 3.51223C2.13726 3.45865 2.20993 3.42855 2.28571 3.42855C2.36149 3.42855 2.43416 3.45865 2.48774 3.51223C2.54133 3.56582 2.57143 3.63849 2.57143 3.71427C2.57143 3.79004 2.54133 3.86272 2.48774 3.9163C2.43416 3.96988 2.36149 3.99998 2.28571 3.99998ZM3.71427 3.99998C3.63849 3.99998 3.56582 3.96988 3.51223 3.9163C3.45865 3.86272 3.42855 3.79004 3.42855 3.71427C3.42855 3.63849 3.45865 3.56582 3.51223 3.51223C3.56582 3.45865 3.63849 3.42855 3.71427 3.42855C3.79004 3.42855 3.86272 3.45865 3.9163 3.51223C3.96988 3.56582 3.99998 3.63849 3.99998 3.71427C3.99998 3.79004 3.96988 3.86272 3.9163 3.9163C3.86272 3.96988 3.79004 3.99998 3.71427 3.99998ZM5.14282 3.99998C5.06705 3.99998 4.99437 3.96988 4.94079 3.9163C4.88721 3.86272 4.85711 3.79004 4.85711 3.71427C4.85711 3.63849 4.88721 3.56582 4.94079 3.51223C4.99437 3.45865 5.06705 3.42855 5.14282 3.42855C5.2186 3.42855 5.29127 3.45865 5.34486 3.51223C5.39844 3.56582 5.42854 3.63849 5.42854 3.71427C5.42854 3.79004 5.39844 3.86272 5.34486 3.9163C5.29127 3.96988 5.2186 3.99998 5.14282 3.99998Z" />
<path d="M8 2.57129C8 3.67585 8.89544 4.57129 10 4.57129C11.1046 4.57129 12 3.67585 12 2.57129C12 1.46673 11.1046 0.571289 10 0.571289C8.89597 0.572539 8.00125 1.46723 8 2.57129ZM10 1.42841C10.6312 1.42841 11.1428 1.9401 11.1428 2.57126C11.1428 3.20241 10.6312 3.7141 10 3.7141C9.36881 3.7141 8.85716 3.20241 8.85716 2.57126C8.85716 1.9401 9.36881 1.42841 10 1.42841Z" />
<path d="M8.88035 8.82055C9.01978 9.87544 9.10589 10.9367 9.13835 12.0003H11.4258C11.4258 11.6634 11.4358 11.0574 11.4912 10.286H11.1315C10.513 10.282 10.0083 9.78989 9.98866 9.1717C9.96238 8.1297 9.89038 7.3357 9.83466 6.85286C9.77598 6.28083 10.1559 5.7558 10.7175 5.63258C11.207 5.51568 11.6613 5.28308 12.0424 4.9543C12.0444 4.66114 12.0375 4.3943 12.0238 4.1543C11.2295 5.17742 9.7956 5.44498 8.68579 4.77714C8.45351 6.0223 8.60407 7.00742 8.76663 8.0417C8.80579 8.30083 8.84663 8.55911 8.88035 8.82055Z" />
<path d="M10.4017 6.78666C10.4837 7.49581 10.5386 8.31521 10.5597 9.15808C10.5691 9.46746 10.8216 9.71393 11.1312 9.7158H11.5383C11.5886 9.1758 11.66 8.58096 11.7637 7.95496C11.891 7.20262 11.9768 6.44387 12.0209 5.68213C11.6627 5.91778 11.2663 6.08956 10.8495 6.18985C10.5684 6.24325 10.3744 6.50194 10.4017 6.78666ZM15.3689 14.9361C14.308 14.6401 12.4349 13.9449 11.5534 12.5715H9.02288C8.71708 13.1934 8.56231 13.8786 8.57116 14.5715C8.57116 14.8081 8.57916 15.0267 8.59544 15.2212C8.63591 15.6625 9.00603 16.0002 9.44916 16.0001H15.7634C15.8262 15.9997 15.8862 15.9745 15.9305 15.93C15.9747 15.8855 15.9996 15.8254 15.9997 15.7626C15.9987 15.575 15.9366 15.3928 15.8228 15.2436C15.7089 15.0945 15.5496 14.9865 15.3689 14.9361Z" />
</g>
<defs>
<clipPath id="clip0_585_245">
<rect width="16" height="16" />
</clipPath>
</defs>
</svg>
