<svg width="16" height="16" viewBox="0 0 16 16" fill="none" xmlns="http://www.w3.org/2000/svg">
<g clip-path="url(#clip0_585_172)">
<path d="M8.00012 8.89574C8.48694 8.89574 8.88159 8.5011 8.88159 8.01428C8.88159 7.52746 8.48694 7.13281 8.00012 7.13281C7.5133 7.13281 7.11865 7.52746 7.11865 8.01428C7.11865 8.5011 7.5133 8.89574 8.00012 8.89574Z" />
<path d="M8.2937 0.375H7.70605V4.65641H8.2937V0.375Z" />
<path d="M7.70581 15.625H8.29346V11.3436H7.70581L7.70581 15.625Z" />
<path d="M2.62714 9.73535H1.91357C2.50122 11.8341 4.13823 13.4711 6.23696 14.0587V13.3871C4.55797 12.8415 3.17281 11.4563 2.62714 9.73535Z" />
<path d="M1.91357 6.29358H2.58517C3.17281 4.57262 4.55797 3.18746 6.27893 2.64179V1.92822C4.1802 2.55784 2.54319 4.19485 1.91357 6.29358Z" />
<path d="M0.375 7.73511L0.375 8.32275H4.65641V7.73511H0.375Z" />
<path d="M13.3725 6.2936H14.0861C13.4984 4.19487 11.8614 2.55786 9.7627 1.97021V2.64181C11.4417 3.18748 12.8268 4.57264 13.3725 6.2936Z" />
<path d="M13.3725 9.73535C12.8268 11.4563 11.4417 12.7995 9.7207 13.3871V14.1007C11.8194 13.5131 13.4564 11.8761 14.0441 9.77733H13.3725V9.73535Z" />
<path d="M15.625 8.281V7.69336H11.3436V8.281H15.625Z" />
</g>
<defs>
<clipPath id="clip0_585_172">
<rect width="16" height="16" />
</clipPath>
</defs>
</svg>
