<svg width="16" height="16" viewBox="0 0 16 16" fill="none" xmlns="http://www.w3.org/2000/svg">
<g clip-path="url(#clip0_585_132)">
<path d="M9.06653 6.0704V4.80001H6.93321V6.0704L6.50173 6.93336H9.49801L9.06653 6.0704ZM6.3999 7.46663H9.5999V13.3333H6.3999V7.46663ZM8.59581 1.32427L8.25529 0.190149C8.23882 0.135194 8.20507 0.0870143 8.15905 0.0527604C8.11303 0.0185065 8.05719 4.35289e-06 7.99982 0C7.94246 4.29258e-05 7.88665 0.018556 7.84064 0.0527978C7.79462 0.0870396 7.76086 0.135189 7.74435 0.190117L7.40408 1.32424C7.11716 2.28077 6.96676 3.26957 6.94303 4.26664H9.0569C9.03314 3.2696 8.88273 2.2808 8.59581 1.32427ZM9.36292 14.5563C9.37118 14.5344 9.37998 14.5128 9.38557 14.4899L9.54131 13.8667H6.45836L6.61382 14.4899C6.61969 14.5128 6.62821 14.5344 6.63675 14.5563C6.49328 14.6768 6.39997 14.8555 6.39997 15.0571V15.3429C6.39997 15.7054 6.69464 16 7.05702 16H8.94287C9.305 16 9.59993 15.7053 9.59993 15.3429V15.0571C9.59999 14.8555 9.50668 14.6768 9.36292 14.5563Z" />
</g>
<defs>
<clipPath id="clip0_585_132">
<rect width="16" height="16" />
</clipPath>
</defs>
</svg>
