<svg width="16" height="16" viewBox="0 0 16 16" fill="none" xmlns="http://www.w3.org/2000/svg">
<path d="M15.4989 13.0832C15.5409 13.0832 15.6249 13.0412 15.6249 12.9571V11.9069C15.6249 11.7808 15.5829 11.6548 15.4989 11.5708C15.3728 11.4027 15.3308 11.1927 15.3308 10.9826V6.23537C15.3308 6.10934 15.3728 6.02532 15.4569 5.9413C15.5409 5.85728 15.6249 5.73124 15.6249 5.5632V3.04254C15.6249 3.00053 15.5829 2.9165 15.4989 2.9165H13.7764C13.7344 2.9165 13.6504 2.95851 13.6504 3.04254V12.9571C13.6504 12.9991 13.6924 13.0832 13.7764 13.0832H15.4989Z"  fill-opacity="0.5"/>
<path d="M0.753099 7.412H0.459022C0.417011 7.412 0.375 7.36999 0.375 7.32798V3.37894C0.375 3.33693 0.417011 3.29492 0.459022 3.29492H0.753099C0.79511 3.29492 0.837121 3.33693 0.837121 3.37894V7.32798C0.837121 7.36999 0.79511 7.412 0.753099 7.412Z"  fill-opacity="0.5"/>
<path d="M6.67687 7.83216C6.55084 7.83216 6.29877 7.45406 6.13073 7.28602C6.08872 6.8239 5.66861 6.4458 5.20649 6.4458C4.66035 6.4458 4.24023 6.86591 4.24023 7.41205C4.24023 7.9582 4.66035 8.37831 5.20649 8.37831C5.37453 8.37831 5.54258 8.3363 5.66861 8.25227C6.04671 8.25227 6.29877 8.42032 6.3828 8.50434C6.42481 8.54635 6.42481 8.54635 6.42481 8.54635C6.46682 8.58836 6.55084 8.63037 6.63486 8.63037C6.84492 8.63037 7.01296 8.46233 7.01296 8.25227C7.01296 8.04222 6.88693 7.83216 6.67687 7.83216Z"  fill-opacity="0.5"/>
<path d="M13.0624 3.4209H1.38338C1.29935 3.4209 1.21533 3.50492 1.21533 3.58894V7.07586C1.21533 7.15988 1.29935 7.2439 1.38338 7.2439H3.94605C3.98806 6.61374 4.5342 6.1096 5.20638 6.1096C5.83654 6.1096 6.34068 6.57173 6.46671 7.15988C6.59274 7.36993 6.71878 7.45396 6.76079 7.49597C7.01285 7.53798 7.26492 7.70602 7.34894 7.95809C8.10514 8.50423 8.7353 9.30244 8.7353 9.97462C8.7353 10.6468 9.32346 11.2349 9.82759 11.571C10.2057 11.8651 10.6678 11.9911 11.1719 11.9911H12.0962C12.3062 11.9911 12.6003 12.1172 12.8104 12.2432C12.9784 12.3692 13.2305 12.2012 13.2305 11.9911V3.63095C13.2305 3.50492 13.1465 3.4209 13.0624 3.4209ZM4.82828 3.96704H7.68503L7.81106 4.1771L7.68503 4.38715H4.82828L4.70225 4.1771L4.82828 3.96704ZM5.12236 5.47944H2.26561L2.13957 5.26938L2.26561 5.05933H5.12236L5.24839 5.26938L5.12236 5.47944ZM8.81933 5.47944H5.96258L5.83654 5.26938L5.96258 5.05933H8.81933L8.94536 5.26938L8.81933 5.47944ZM8.65128 4.38715L8.52525 4.1771L8.65128 3.96704H11.508L11.6341 4.1771L11.508 4.38715H8.65128ZM10.4998 11.0249C10.3317 11.0249 10.1637 10.8568 10.1637 10.6888C10.1637 10.5208 10.3317 10.3527 10.4998 10.3527C10.6678 10.3527 10.8359 10.5208 10.8359 10.6888C10.8359 10.8989 10.7098 11.0249 10.4998 11.0249ZM12.2222 11.0249C12.0542 11.0249 11.8861 10.8568 11.8861 10.6888C11.8861 10.5208 12.0542 10.3527 12.2222 10.3527C12.3903 10.3527 12.5583 10.5208 12.5583 10.6888C12.5583 10.8989 12.4323 11.0249 12.2222 11.0249ZM12.5163 5.47944H9.65955L9.53351 5.26938L9.65955 5.05933H12.5163L12.6423 5.26938L12.5163 5.47944Z" />
</svg>
