<svg width="128" height="128" viewBox="0 0 128 128" fill="none" xmlns="http://www.w3.org/2000/svg">
<path d="M13.9731 50.3255C14.0371 50.3468 18.4958 51.8615 20.5651 56.2348C22.1651 59.6695 21.9518 64.0428 19.8825 69.2268C17.1518 76.1175 14.2505 83.7975 11.3065 92.0748C10.1118 95.4668 10.6025 99.0935 12.6718 102.038C14.7625 104.982 18.0051 106.667 21.6105 106.667H36.5011C41.0665 106.667 45.0771 103.424 46.0158 98.9655L50.9438 75.9042L64.4051 75.7122C67.412 75.6847 70.3181 74.6248 72.6367 72.7102C74.9553 70.7955 76.5455 68.1422 77.1411 65.1948L79.1678 55.4455H108.949C110.122 55.4455 111.082 54.4855 111.082 53.3122V52.2882H115.2C116.394 52.2882 117.333 51.3282 117.333 50.1548V48.5762H12.5225C12.6291 49.3655 13.1838 50.0695 13.9731 50.3255ZM57.8985 55.5308C57.7705 58.4962 58.3038 63.1682 62.2718 65.4295C62.6131 65.6215 62.9545 65.7068 63.3171 65.7068C64.0638 65.7068 64.7891 65.3228 65.1731 64.6188C65.4495 64.1264 65.5194 63.5445 65.3674 63.0006C65.2155 62.4568 64.8541 61.9953 64.3625 61.7175C62.2505 60.5228 62.0585 57.4295 62.1651 55.4668H74.7945L72.9598 64.3415C72.5586 66.3376 71.4831 68.1351 69.9139 69.4324C68.3447 70.7297 66.3771 71.448 64.3411 71.4668L51.8398 71.6588L54.6771 58.4322C55.0398 56.8322 56.3625 55.7015 57.8985 55.5308ZM115.2 25.0455H105.408V23.4668C105.408 22.2935 104.448 21.3335 103.274 21.3335C102.101 21.3335 101.141 22.2935 101.141 23.4668V25.0455H24.8531C23.2318 25.0455 21.6958 25.4935 20.3731 26.2828C19.1358 25.0028 17.1518 23.9148 14.2078 24.1282C13.9283 24.147 13.6553 24.2213 13.4047 24.3467C13.1542 24.472 12.9311 24.646 12.7484 24.8584C12.5657 25.0709 12.4272 25.3175 12.3408 25.5841C12.2544 25.8506 12.2219 26.1316 12.2451 26.4108C12.3305 27.5842 13.3758 28.4588 14.5278 28.3735C16.0425 28.2455 16.8958 28.7575 17.3651 29.2482C16.8958 30.0162 16.5331 30.8695 16.3198 31.7868L14.7625 38.4642V38.5068L13.3971 44.2882H117.333V27.1575C117.333 25.9842 116.394 25.0455 115.2 25.0455Z" />
</svg>
