<svg width="100" height="100" viewBox="0 0 100 100" fill="none" xmlns="http://www.w3.org/2000/svg">
<path d="M6.97605 85.1905C12.1873 81.7479 12.1037 81.7974 11.5456 82.4848C10.9066 83.2719 3.91099 87.8908 3.35793 87.8908C3.09963 87.8908 4.72778 86.6757 6.97605 85.1905ZM92.9036 85.458C90.9136 84.12 88.5952 82.4433 87.7517 81.732C85.3484 79.7056 85.4246 79.7507 95.4166 86.2748C97.1429 87.4019 97.6731 87.8813 97.1981 87.8852C96.8261 87.8889 94.8935 86.7961 92.9036 85.458ZM76.3575 86.9936C75.827 86.6701 74.5951 85.3938 73.62 84.1573C72.6448 82.9208 71.2809 81.288 70.589 80.5288C68.1386 77.84 66.5118 75.4908 66.711 74.9289C66.8571 74.5164 68.0497 75.7694 71.8052 80.2811C77.8633 87.5591 77.8832 87.5843 77.5745 87.5829C77.4357 87.5823 76.8881 87.3171 76.3575 86.9936ZM23.5151 87.0682C23.7057 86.5386 33.7297 74.4299 33.9935 74.4106C34.4 74.3809 34.2385 75.5816 33.8019 75.8356C33.57 75.9705 32.5371 77.1162 31.5065 78.3815C26.5096 84.517 24.8079 86.4895 24.1286 86.9337C23.7167 87.2031 23.4451 87.2626 23.5151 87.0682ZM12.6031 85.121C12.8069 84.7914 18.1405 81.175 20.2664 79.925C21.9465 78.9372 21.4258 79.4082 17.6225 82.3168C14.3073 84.8522 11.9582 86.1646 12.6031 85.121ZM84.8641 83.5976C83.4998 82.586 82.3835 81.6806 82.3835 81.5856C82.3835 81.3702 82.627 81.5139 85.3532 83.3389C86.5647 84.1499 87.6427 84.9537 87.7486 85.1251C88.2001 85.8557 87.1834 85.3172 84.8641 83.5976ZM45.9679 81.8631C45.257 81.6113 44.3159 80.9665 43.8766 80.4302C42.1735 78.351 40.0936 74.884 39.7639 73.5747C39.5739 72.8202 39.1011 71.6951 38.7131 71.0744C37.1752 68.6139 35.4015 64.1497 33.7552 58.596C30.9133 49.009 28.94 43.1004 28.3145 42.3052C27.9902 41.8929 26.9222 41.0105 25.9413 40.3443C23.6279 38.7734 22.8737 37.7942 22.8737 36.3617C22.8737 35.0515 24.8794 29.316 25.5154 28.8074C26.0955 28.3434 26.0725 28.2502 25.021 26.7986C24.2296 25.7061 24.1007 25.2568 24.1007 23.5897C24.1007 22.2784 24.283 21.3256 24.6642 20.6449C24.974 20.0914 25.403 19.3094 25.6174 18.907C25.9248 18.33 26.0641 18.2652 26.2763 18.6002C26.4421 18.8621 26.5472 18.8886 26.5501 18.6692C26.5525 18.4734 27.0947 17.6301 27.7547 16.7952C29.0751 15.1248 30.4179 14.5772 33.1937 14.5772C34.2859 14.5772 34.565 14.4892 34.3034 14.2275C34.0989 14.0231 32.8011 13.8639 31.1772 13.8441C28.0308 13.8058 27.7616 13.4748 30.2083 12.6531L31.8273 12.1094L35.2013 13.0459C40.4524 14.5033 41.9792 15.4638 43.8531 18.4883C44.8528 20.1018 45.7273 20.2685 45.4623 18.795C45.3637 18.2467 45.1944 17.2222 45.0861 16.5184L44.8891 15.2387L46.0423 15.6351C47.0102 15.9678 47.3999 16.3951 48.4683 18.2952C49.1685 19.5402 49.9363 20.5588 50.1746 20.5588C50.413 20.5588 51.1808 19.5402 51.8809 18.2952C52.9494 16.3951 53.3391 15.9678 54.307 15.6351L55.4601 15.2387L55.2632 16.5184C55.1548 17.2222 54.9855 18.2467 54.8869 18.795C54.6219 20.2685 55.4965 20.1018 56.4962 18.4883C58.37 15.4638 59.8969 14.5033 65.1479 13.0459L68.5219 12.1094L70.1409 12.6531C72.5877 13.4748 72.3184 13.8058 69.172 13.8441C67.5481 13.8638 66.2504 14.0231 66.0459 14.2275C65.7842 14.4892 66.0634 14.5772 67.1555 14.5772C69.9313 14.5772 71.2741 15.1248 72.5945 16.7952C73.2545 17.6301 73.7966 18.4734 73.7992 18.6692C73.8021 18.8885 73.9071 18.8621 74.073 18.6002C74.2851 18.2652 74.4245 18.33 74.7319 18.907C74.9462 19.3094 75.3752 20.0914 75.6851 20.6449C76.7019 22.4609 76.3774 26.2756 75.0732 27.8385C74.7665 28.206 74.7251 28.4894 74.9387 28.7587C75.58 29.5673 77.4755 35.2713 77.4755 36.3924C77.4755 37.7822 76.3152 39.2723 74.3185 40.4468C73.6085 40.8645 72.6989 41.5581 72.2971 41.9883C71.491 42.8513 69.8571 47.5552 67.1678 56.7555C66.2251 59.9807 64.8703 63.8169 64.1344 65.3446C63.403 66.863 62.7073 68.4505 62.5883 68.8722C62.4694 69.294 62.1912 69.8462 61.9702 70.0992C61.7491 70.3523 61.2205 71.6248 60.7954 72.9269C60.0764 75.1297 58.346 78.1324 56.4741 80.4257C56.0133 80.9902 55.0845 81.5998 54.254 81.8828C52.4256 82.5057 47.7512 82.4946 45.9679 81.8631ZM46.9008 76.9518C47.0123 76.8404 46.7937 76.5947 46.4151 76.406C45.2479 75.824 45.5837 75.1953 47.2505 74.8417L48.7742 74.5184L45.6385 73.1795C43.9139 72.443 42.4177 71.9256 42.3137 72.0296C42.1076 72.2357 43.3744 74.567 44.5568 76.1576C45.2514 77.092 46.3786 77.474 46.9008 76.9518ZM55.7925 76.1576C56.9748 74.567 58.2416 72.2357 58.0356 72.0296C57.9316 71.9256 56.4354 72.443 54.7107 73.1795L51.575 74.5184L53.0988 74.8417C54.7656 75.1953 55.1014 75.824 53.9341 76.406C53.1399 76.8019 53.3364 77.1545 54.3513 77.1545C54.7847 77.1545 55.3338 76.7747 55.7925 76.1576ZM51.226 72.255C51.6575 72.0909 53.7371 70.8346 55.8472 69.4631C58.999 67.4147 59.6839 66.8382 59.6839 66.2338C59.6839 65.7834 59.505 65.498 59.2227 65.498C58.8349 65.498 58.7658 64.8751 58.7885 61.5869C58.8034 59.4358 58.7413 57.4687 58.6505 57.2157C58.5596 56.9626 58.3343 55.1681 58.1498 53.2279C57.8071 49.625 57.1299 47.5204 55.7897 45.8927C54.9977 44.9309 52.6056 44.3032 51.2054 44.6898C50.5717 44.8648 49.7776 44.8648 49.1438 44.6898C47.7436 44.3032 45.3515 44.9309 44.5595 45.8927C43.2193 47.5204 42.5421 49.625 42.1994 53.2279C42.0149 55.1681 41.7896 56.9626 41.6988 57.2157C41.608 57.4687 41.5458 59.4358 41.5607 61.5869C41.5835 64.8751 41.5143 65.498 41.1266 65.498C40.8443 65.498 40.6653 65.7834 40.6653 66.2338C40.6653 66.8383 41.3513 67.4154 44.5101 69.4684C49.4492 72.6785 49.7662 72.81 51.226 72.255ZM46.6951 69.2294C44.6966 68.6899 44.0548 68.2539 44.0443 67.4291C44.0413 67.2258 44.4936 66.9743 45.0485 66.8703C46.344 66.6272 55.8873 66.8119 56.1596 67.0853C56.2729 67.1991 56.2756 67.5759 56.1655 67.9225C55.7009 69.3862 50.1258 70.1556 46.6951 69.2294ZM45.2666 49.3833C45.2666 49.2934 45.6042 48.5535 46.0169 47.7391L46.7672 46.2585H50.1746H53.5821L54.3324 47.7391C54.745 48.5535 55.0826 49.2934 55.0826 49.3833C55.0826 49.4733 52.874 49.5469 50.1746 49.5469C47.4752 49.5469 45.2666 49.4733 45.2666 49.3833ZM40.2815 44.5622C41.5745 43.2244 41.8492 42.3683 41.4897 40.7972C41.0342 38.8069 41.3699 38.0607 43.2379 36.9114C44.7805 35.9624 44.9434 35.7432 45.7472 33.536C46.6042 31.1824 47.0947 30.7448 47.121 32.3102C47.1337 33.064 47.2009 33.0158 47.8955 31.7553L48.6562 30.3749L48.4239 32.3688C48.0777 35.3415 48.2291 36.9841 48.9377 37.9426C49.8739 39.2088 49.7666 40.0376 48.6663 40.0376C47.9952 40.0376 47.514 39.7277 46.7418 38.798L45.7122 37.5585L44.8078 38.5024C43.7227 39.635 43.9689 40.3242 45.6299 40.8039C46.2151 40.9729 47.1425 41.4908 47.6909 41.9548C48.4793 42.6219 48.999 42.7984 50.1746 42.7984C51.3503 42.7984 51.8699 42.6219 52.6583 41.9548C53.2067 41.4908 54.1341 40.9729 54.7193 40.8039C56.3803 40.3242 56.6265 39.635 55.5414 38.5024L54.637 37.5585L53.6074 38.798C51.7823 40.9952 49.7422 40.2005 51.4115 37.9426C52.1201 36.9841 52.2715 35.3415 51.9253 32.3688L51.6931 30.3749L52.4537 31.7553C53.1483 33.0158 53.2156 33.064 53.2283 32.3102C53.2545 30.7448 53.745 31.1824 54.6021 33.536C55.4058 35.7432 55.5688 35.9624 57.1113 36.9114C58.9839 38.0636 59.3152 38.806 58.8547 40.8185C58.488 42.4211 58.8672 43.468 60.2941 44.7922C61.2524 45.6816 61.2974 45.6922 61.6351 45.1063C62.3209 43.9168 63.8955 42.5246 64.7732 42.3316C65.264 42.2237 66.9079 41.5373 68.4263 40.8063C69.9448 40.0752 71.7392 39.385 72.4141 39.2724C73.8452 39.0336 74.9156 38.1502 75.1684 36.9994C75.2667 36.5518 75.0067 34.6114 74.5905 32.6873C74.033 30.1091 73.8489 28.4004 73.8909 26.1908C73.9451 23.3414 73.9174 23.1988 73.3344 23.3161C72.9969 23.384 72.07 23.5238 71.2745 23.6268C69.8874 23.8065 69.821 23.8606 69.6545 24.9473C69.047 28.9125 68.3855 29.834 65.1055 31.2846C63.5421 31.976 63.3294 31.997 61.5693 31.6343C59.1628 31.1384 58.5504 30.5575 58.0915 28.336C57.8875 27.3485 57.5626 26.5405 57.3694 26.5405C57.1763 26.5405 56.7684 26.2644 56.463 25.927C56.1576 25.5896 55.6613 25.3135 55.36 25.3135C55.0586 25.3135 54.7268 25.1755 54.6225 25.0068C54.2118 24.3422 53.8556 24.7592 53.8556 25.9048C53.8556 26.8367 53.6751 27.2515 53.0583 27.7367C52.3259 28.3128 52.1761 28.3283 51.2178 27.9279C50.3163 27.5513 50.0329 27.5513 49.1314 27.9279C48.1732 28.3283 48.0233 28.3128 47.2909 27.7367C46.6741 27.2515 46.4936 26.8367 46.4936 25.9048C46.4936 24.7592 46.1375 24.3422 45.7267 25.0068C45.6225 25.1755 45.2906 25.3135 44.9893 25.3135C44.688 25.3135 44.1916 25.5896 43.8862 25.927C43.5808 26.2644 43.173 26.5405 42.9798 26.5405C42.7866 26.5405 42.4617 27.3485 42.2577 28.336C41.7989 30.5575 41.1864 31.1384 38.7799 31.6343C37.0198 31.997 36.8072 31.976 35.2438 31.2846C31.9637 29.834 31.3023 28.9125 30.6948 24.9473C30.5283 23.8606 30.4619 23.8065 29.0748 23.6268C28.2793 23.5238 27.3523 23.3841 27.0149 23.3164C26.4295 23.1989 26.4012 23.3578 26.3974 26.7841C26.3944 29.483 26.2179 31.092 25.6865 33.2621C25.2802 34.9212 25.0632 36.487 25.1763 36.9431C25.4935 38.2218 26.5131 39.0735 27.9923 39.2953C28.7371 39.407 30.5311 40.1028 31.9789 40.8416C33.4267 41.5804 34.8347 42.1854 35.1076 42.186C35.9722 42.1875 37.5987 43.3783 38.2536 44.4883C38.6011 45.0772 38.9827 45.5591 39.1017 45.5591C39.2206 45.5591 39.7516 45.1105 40.2815 44.5622ZM43.1193 23.1564C43.1193 22.9822 42.4869 21.8797 41.7138 20.7063C40.0873 18.2374 38.0148 16.2962 36.4563 15.7818C35.0134 15.3056 31.2734 15.5648 29.9921 16.2298C28.4503 17.03 27.1303 19.4852 28.2419 19.4852C28.495 19.4852 28.702 19.6764 28.702 19.91C28.702 20.2426 29.1184 20.3024 30.6192 20.1853C32.9459 20.0039 36.3307 20.7915 39.8985 22.3444C42.5571 23.5017 43.1193 23.6434 43.1193 23.1564ZM60.5962 22.2642C64.4599 20.6798 67.5847 19.9789 69.8634 20.1856C71.2678 20.3129 71.6472 20.2556 71.6472 19.9163C71.6472 19.6792 71.8543 19.4852 72.1074 19.4852C73.2189 19.4852 71.8989 17.03 70.3571 16.2298C69.0758 15.5648 65.3359 15.3056 63.8929 15.7818C62.3344 16.2962 60.2619 18.2374 58.6354 20.7063C57.2944 22.7418 56.9783 23.473 57.4391 23.473C57.5542 23.473 58.9749 22.929 60.5962 22.2642ZM43.4261 19.4852C43.23 19.1189 43.0006 18.8882 42.9163 18.9726C42.8319 19.0569 42.9229 19.4257 43.1193 19.792C43.3154 20.1583 43.5448 20.389 43.6292 20.3047C43.7135 20.2203 43.6225 19.8516 43.4261 19.4852ZM57.5367 19.0612C57.5367 18.8925 57.334 19.0225 57.0863 19.3499C56.8386 19.6774 56.6359 20.0834 56.6359 20.2521C56.6359 20.4208 56.8386 20.2909 57.0863 19.9634C57.334 19.6359 57.5367 19.2299 57.5367 19.0612ZM15.2111 80.0272C15.2188 79.691 31.4358 69.0498 31.6358 69.2498C32.0243 69.6383 31.2228 70.3789 28.9174 71.7616C26.4642 73.233 17.3689 78.8747 15.9271 79.8194C15.5299 80.0797 15.2077 80.1732 15.2111 80.0272ZM82.2301 78.4442C80.7117 77.4703 77.1573 75.2514 74.3313 73.5132C70.4899 71.1504 69.1932 70.2001 69.1932 69.7478C69.1932 69.3441 69.3208 69.2203 69.5767 69.3756C71.0082 70.2449 85.3554 79.7075 85.5891 79.9365C85.7717 80.1154 85.7144 80.2207 85.4357 80.2184C85.1911 80.2169 83.7486 79.418 82.2301 78.4442ZM6.30916 75.1595C6.30916 74.9334 19.328 68.4657 22.6089 67.0618C24.1886 66.3859 26.2403 65.4291 27.1683 64.9357C28.0962 64.4422 29.246 63.9474 29.7234 63.836C30.5193 63.6503 30.5736 63.6919 30.3765 64.3357C30.2583 64.7218 30.0547 65.2363 29.9241 65.4789C29.7936 65.7215 25.0134 67.8004 19.3016 70.0985C5.80051 75.5307 6.30916 75.3326 6.30916 75.1595ZM81.8745 70.3438C73.0084 66.7872 71.0298 65.8868 70.7548 65.2831C70.0114 63.6516 70.7098 63.543 73.181 64.9056C74.1089 65.4172 76.1612 66.3884 77.7417 67.0639C81.0066 68.4593 93.4341 74.667 92.9664 74.669C92.7977 74.6696 87.8064 72.7234 81.8745 70.3438ZM24.3275 63.0013C24.7681 62.5606 27.5323 61.8339 27.9125 62.0587C28.0688 62.1511 27.3096 62.4748 26.2254 62.778C23.8514 63.4417 23.8917 63.437 24.3275 63.0013ZM74.3053 62.8335C73.4897 62.5841 72.8966 62.3059 72.9873 62.2151C73.2556 61.9468 75.173 62.4014 75.8118 62.8847C76.5338 63.431 76.2258 63.4205 74.3053 62.8335ZM4.37967 57.9617C5.79558 57.3419 26.6501 57.0515 27.1424 57.6446C27.6417 58.2463 24.0119 58.4429 12.9043 58.4158C4.46222 58.3952 3.50553 58.3442 4.37967 57.9617ZM73.4877 58.1735C73.4877 57.355 74.6155 57.2758 84.5994 57.3928C92.695 57.4877 95.1627 57.6096 95.9492 57.9533C96.8451 58.3449 95.6801 58.3953 85.221 58.4177C78.6757 58.4317 73.4877 58.3237 73.4877 58.1735ZM25.8994 52.1635C25.5654 51.8295 15.7882 47.8574 6.30916 44.2046C3.36144 43.0687 2.06313 42.3409 2.39417 42.0098C2.49393 41.9101 6.97009 43.4401 12.3412 45.41C17.7123 47.3799 22.91 49.2705 23.8917 49.6113C25.2182 50.0718 25.7525 50.4307 25.9723 51.009C26.2737 51.8016 26.2299 52.494 25.8994 52.1635ZM74.7147 51.446C74.7147 50.6565 76.3953 49.8934 84.9909 46.7798C90.221 44.8853 95.1738 43.0714 95.9972 42.7488C96.8205 42.4263 97.558 42.2263 97.6361 42.3044C97.8566 42.5249 96.2825 43.2615 92.6325 44.6459C87.5182 46.5856 79.5133 49.7908 77.2752 50.795C75.1724 51.7384 74.7147 51.8548 74.7147 51.446Z" fill="white"/>
</svg>
