<svg width="100" height="100" viewBox="0 0 100 100" fill="none" xmlns="http://www.w3.org/2000/svg">
<path d="M59.1219 97.2101C58.6107 96.8363 58.425 95.988 58.1662 92.8441C57.9224 89.882 57.695 88.781 57.2223 88.2736C56.8797 87.9059 56.3254 86.9972 55.9903 86.2541C55.6415 85.4807 54.8088 84.5245 54.0423 84.0172C52.9578 83.2995 52.7036 82.9239 52.7036 82.0388C52.7036 81.1958 52.3481 80.6057 51.1465 79.4544C50.1966 78.5442 49.5894 77.6562 49.5894 77.177C49.5894 76.4216 47.2912 73.0648 44.7312 70.081C44.0574 69.2957 43.1387 67.9034 42.6896 66.9871C41.4194 64.3955 39.1785 60.5739 38.3214 59.5379C37.8943 59.0216 37.488 58.4287 37.4186 58.2205C37.2141 57.607 36.2791 58.1676 35.6057 59.3076C35.1544 60.0716 34.8755 60.2611 34.6032 59.9888C33.3477 58.7333 33.1843 61.3152 34.2313 65.8645C34.6968 67.8868 35.3743 72.6178 35.4277 74.2178C35.4386 74.5436 35.2162 75.3222 34.9335 75.948C34.6508 76.5737 34.3113 77.475 34.1792 77.9508C33.8149 79.262 32.6272 80.3729 31.5896 80.3729C29.96 80.3729 28.7395 78.3688 28.7659 75.7363C28.7835 73.9684 27.0846 68.2965 26.2161 67.2241C25.9849 66.9386 25.6869 66.3158 25.5539 65.84C25.4209 65.3642 25.035 64.3521 24.6964 63.5909C24.3578 62.8296 23.6569 60.9222 23.1388 59.3521L22.1968 56.4974H20.9015C18.931 56.4974 17.9951 55.3097 17.8252 52.5935C17.6954 50.5184 17.917 49.6421 19.6603 45.3382C19.8721 44.8153 19.6948 44.7327 18.3618 44.7327C17.1256 44.7327 16.5839 44.5214 15.6431 43.6723C13.4717 41.7126 8.68781 38.8262 7.98239 39.0501C7.08407 39.3352 6.06624 38.3551 5.0799 36.2551C3.99746 33.9506 4.03063 32.8055 5.21207 31.692C6.31392 30.6535 8.77436 29.0815 11.6123 27.6026C12.7059 27.0328 13.6012 26.3822 13.6019 26.157C13.6025 25.9317 14.0313 25.6981 14.5547 25.6379C15.078 25.5777 15.4805 25.3727 15.4491 25.1824C15.3385 24.5118 16.1223 23.9713 17.2053 23.9713C17.9183 23.9713 18.7186 23.614 19.4985 22.9473C20.1575 22.3841 20.9017 21.917 21.1524 21.9093C21.4331 21.9004 21.5318 21.6542 21.4092 21.268C21.2494 20.7645 21.5973 20.4802 23.1725 19.8274C26.1187 18.6062 26.3668 18.2481 26.1486 15.5307C25.8988 12.4186 26.7139 9.84631 28.4245 8.34832C29.4039 7.49063 29.772 6.83735 30.0391 5.48317C30.3814 3.74804 30.4003 3.72793 31.7802 3.62634C33.5274 3.4977 34.7393 4.60473 34.7838 6.36991C34.8024 7.10789 35.2863 8.23499 36.1033 9.44317C37.2943 11.2046 37.3917 11.535 37.3709 13.7467C37.3585 15.0644 37.4944 16.1933 37.673 16.2555C37.8516 16.3177 39.1116 16.9862 40.473 17.7411C42.458 18.8418 43.1346 19.4407 43.8885 20.764C45.1858 23.0413 46.0719 26.3168 46.1965 29.296C46.2413 30.364 46.4106 31.2378 46.5728 31.2378C46.7351 31.2378 46.7654 31.5607 46.6401 31.9553C46.4856 32.442 46.6173 32.8279 47.0493 33.1553C47.4862 33.4863 47.538 33.6414 47.2144 33.649C46.7221 33.6604 46.7485 33.986 47.496 37.1202C48.7236 42.2671 48.717 44.6808 47.471 46.2648C47.0772 46.7655 46.8484 47.4188 46.9627 47.7167C47.094 48.0588 46.7645 48.6374 46.0676 49.2884L44.9646 50.3187L45.6171 52.2835C45.976 53.3641 46.3791 54.4818 46.513 54.7673C46.6469 55.0528 46.9329 55.9481 47.1487 56.7569C47.3645 57.5658 47.6759 58.2275 47.8407 58.2275C48.0056 58.2275 48.0591 58.5387 47.9597 58.919C47.8602 59.2992 48.0091 59.9618 48.2906 60.3914C48.5951 60.8562 48.7356 61.627 48.6375 62.2954C48.405 63.8796 49.6778 66.2859 52.0862 68.815C55.2993 72.1891 56.8477 74.2745 57.041 75.4878C57.2882 77.0403 58.1231 78.9888 58.541 78.9888C58.7128 78.9888 58.9489 79.456 59.0657 80.0269C59.1824 80.5978 59.3721 81.5227 59.4872 82.0822C59.6023 82.6417 59.9915 83.3665 60.3522 83.6929C60.7129 84.0194 61.0081 84.5768 61.0081 84.9317C61.0081 85.2866 61.4282 86.2357 61.9416 87.0407C64.0216 90.302 65.1603 93.2316 65.1603 95.3212C65.1603 96.5347 65.0389 96.722 63.9604 97.1727C62.4554 97.8015 59.957 97.8208 59.1219 97.2101ZM43.2117 41.7963C43.0872 41.1328 42.4692 39.4589 41.8383 38.0765C41.2073 36.6941 40.4955 35.0959 40.2563 34.525C39.8599 33.5787 39.7988 33.5481 39.5644 34.179C39.423 34.5596 39.2272 35.6032 39.1294 36.498C38.9573 38.0717 38.9943 38.1534 40.2603 38.9911C41.1665 39.5909 41.6441 40.2079 41.813 40.9974C42.2697 43.1326 43.6055 43.8955 43.2117 41.7963ZM23.9838 34.9057C23.9838 31.8005 22.9859 30.5458 20.5165 30.5458C19.7308 30.5458 17.099 31.5103 16.0562 32.1803C15.9781 32.2306 16.1727 32.5573 16.4887 32.9065C16.8048 33.2557 17.0633 33.7826 17.0633 34.0774C17.0633 34.9968 17.912 35.4449 18.9244 35.06C19.7399 34.75 19.8315 34.7954 19.8315 35.5094C19.8315 35.9462 20.3955 36.9625 21.0849 37.7679L22.3384 39.2323L23.1611 38.0216C23.7811 37.1091 23.9838 36.3416 23.9838 34.9057Z" fill="white"/>
<path d="M40.8778 95.9377C41.389 95.5639 41.5747 94.7156 41.8335 91.5717C42.0773 88.6095 42.3047 87.5086 42.7774 87.0011C43.12 86.6335 43.6743 85.7247 44.0094 84.9817C44.3582 84.2082 45.1909 83.252 45.9574 82.7448C47.0419 82.0271 47.2961 81.6514 47.2961 80.7664C47.2961 79.9233 47.6516 79.3333 48.8532 78.1819C49.8031 77.2718 50.4103 76.3837 50.4103 75.9046C50.4103 75.1491 52.7085 71.7923 55.2685 68.8085C55.9423 68.0232 56.861 66.631 57.3101 65.7146C58.5802 63.123 60.8212 59.3015 61.6783 58.2654C62.1054 57.7491 62.5117 57.1563 62.5811 56.948C62.7856 56.3345 63.7206 56.8952 64.394 58.0352C64.8453 58.7992 65.1241 58.9887 65.3964 58.7164C66.652 57.4608 66.8154 60.0427 65.7684 64.5921C65.3029 66.6143 64.6253 71.3453 64.572 72.9454C64.5611 73.2712 64.7835 74.0497 65.0662 74.6755C65.3489 75.3013 65.6884 76.2025 65.8205 76.6783C66.1848 77.9895 67.3725 79.1005 68.4101 79.1005C70.0397 79.1005 71.2601 77.0964 71.2338 74.4638C71.2162 72.6959 72.9151 67.024 73.7836 65.9516C74.0148 65.6662 74.3128 65.0433 74.4458 64.5676C74.5788 64.0918 74.9647 63.0797 75.3033 62.3184C75.6419 61.5571 76.3428 59.6497 76.8609 58.0796L77.8029 55.2249H79.0982C81.0687 55.2249 82.0046 54.0373 82.1745 51.321C82.3043 49.2459 82.0827 48.3696 80.3394 44.0657C80.1276 43.5429 80.3049 43.4602 81.6379 43.4602C82.8741 43.4602 83.4157 43.249 84.3566 42.3998C86.528 40.4402 91.3119 37.5537 92.0173 37.7776C92.9156 38.0627 93.9335 37.0826 94.9198 34.9827C96.0022 32.6781 95.9691 31.533 94.7876 30.4196C93.6858 29.3811 91.2253 27.809 88.3874 26.3302C87.2938 25.7603 86.3985 25.1098 86.3978 24.8845C86.3972 24.6592 85.9684 24.4257 85.445 24.3655C84.9217 24.3052 84.5192 24.1003 84.5506 23.91C84.6612 23.2394 83.8774 22.6989 82.7944 22.6989C82.0814 22.6989 81.2811 22.3415 80.5011 21.6749C79.8422 21.1117 79.098 20.6445 78.8473 20.6368C78.5666 20.628 78.4679 20.3818 78.5905 19.9955C78.7503 19.492 78.4024 19.2078 76.8272 18.5549C73.881 17.3338 73.6329 16.9757 73.851 14.2582C74.1008 11.1462 73.2858 8.57384 71.5752 7.07585C70.5958 6.21816 70.2277 5.56489 69.9605 4.21072C69.6183 2.47559 69.5994 2.45547 68.2195 2.35388C66.4723 2.22524 65.2604 3.33227 65.2159 5.09745C65.1973 5.83543 64.7134 6.96254 63.8964 8.17072C62.7054 9.93213 62.608 10.2625 62.6288 12.4743C62.6412 13.7919 62.5053 14.9208 62.3267 14.983C62.1481 15.0452 60.8881 15.7138 59.5267 16.4687C57.5417 17.5693 56.8651 18.1682 56.1112 19.4915C54.8139 21.7689 53.9278 25.0444 53.8032 28.0235C53.7584 29.0915 53.5891 29.9653 53.4269 29.9653C53.2646 29.9653 53.2343 30.2882 53.3596 30.6828C53.5141 31.1695 53.3824 31.5554 52.9504 31.8829C52.5135 32.2139 52.4616 32.3689 52.7853 32.3765C53.2776 32.388 53.2512 32.7135 52.5037 35.8477C51.2761 40.9947 51.2827 43.4083 52.5287 44.9924C52.9225 45.4931 53.1513 46.1464 53.037 46.4442C52.9057 46.7864 53.2352 47.3649 53.9321 48.016L55.035 49.0463L54.3826 51.011C54.0237 52.0917 53.6206 53.2094 53.4867 53.4948C53.3528 53.7803 53.0668 54.6757 52.851 55.4845C52.6352 56.2933 52.3238 56.9551 52.159 56.9551C51.9941 56.9551 51.9406 57.2662 52.04 57.6465C52.1395 58.0268 51.9906 58.6894 51.7091 59.1189C51.4046 59.5837 51.2641 60.3546 51.3622 61.0229C51.5947 62.6071 50.3218 65.0135 47.9135 67.5426C44.7004 70.9167 43.152 73.0021 42.9587 74.2154C42.7115 75.7678 41.8766 77.7164 41.4587 77.7164C41.2869 77.7164 41.0508 78.1835 40.934 78.7545C40.8173 79.3254 40.6276 80.2503 40.5125 80.8097C40.3974 81.3692 40.0082 82.094 39.6474 82.4205C39.2867 82.7469 38.9916 83.3044 38.9916 83.6593C38.9916 84.0142 38.5715 84.9632 38.0581 85.7683C35.9781 89.0296 34.8394 91.9591 34.8394 94.0487C34.8394 95.2622 34.9607 95.4495 36.0393 95.9002C37.5443 96.529 40.0427 96.5484 40.8778 95.9377ZM56.788 40.5238C56.9124 39.8604 57.5305 38.1865 58.1614 36.8041C58.7924 35.4217 59.5042 33.8235 59.7434 33.2526C60.1398 32.3062 60.2009 32.2756 60.4353 32.9065C60.5767 33.2872 60.7724 34.3307 60.8703 35.2256C61.0424 36.7992 61.0053 36.8809 59.7394 37.7187C58.8332 38.3184 58.3556 38.9355 58.1867 39.7249C57.73 41.8601 56.3942 42.6231 56.788 40.5238ZM76.0159 33.6332C76.0159 30.5281 77.0138 29.2733 79.4832 29.2733C80.2689 29.2733 82.9007 30.2378 83.9435 30.9079C84.0216 30.9581 83.827 31.2849 83.511 31.6341C83.1949 31.9833 82.9364 32.5102 82.9364 32.8049C82.9364 33.7244 82.0877 34.1725 81.0753 33.7876C80.2598 33.4775 80.1682 33.5229 80.1682 34.2369C80.1682 34.6737 79.6041 35.6901 78.9147 36.4955L77.6613 37.9598L76.8386 36.7491C76.2186 35.8366 76.0159 35.0691 76.0159 33.6332Z" fill="white" fill-opacity="0.3"/>
</svg>
