<svg width="100" height="100" viewBox="0 0 100 100" fill="none" xmlns="http://www.w3.org/2000/svg">
<path d="M35.3129 7.04491L33.9932 3.18262L50.923 10.7655L66.5143 3.18262L64.7609 7.04491L50.923 14.042L35.3129 7.04491Z" fill="white" fill-opacity="0.5"/>
<path d="M39.9082 13.7371L39.0933 10.9375L50.9226 16.2044L62.4372 10.9375L60.5992 13.9426L50.9226 18.5923L39.9082 13.7371Z" fill="white" fill-opacity="0.5"/>
<path d="M45.0382 41.3922C44.7798 40.974 47.498 38.4482 48.813 37.8845C50.1264 37.3215 52.2551 37.1859 52.5402 37.6471C52.6368 37.8035 53.007 38.0422 53.3627 38.1774C54.0265 38.4298 54.765 39.6362 54.449 39.9521C54.3519 40.0493 53.5931 39.7961 52.7629 39.3896L51.2533 38.6505L49.8791 39.3458C49.1233 39.7282 48.3725 40.0411 48.2107 40.0411C48.049 40.0411 47.4617 40.4026 46.9056 40.8445C45.8617 41.6741 45.3121 41.8353 45.0382 41.3922Z" fill="white"/>
<path d="M55.0813 57.8524C55.0675 55.6279 54.6974 54.5671 53.4463 53.1654L52.3705 51.9602L51.5027 52.9767C50.606 54.027 50.2534 54.0401 50.2534 53.023C50.2534 52.1079 51.2508 51.0213 52.0807 51.0323C53.0331 51.0449 53.7072 51.4677 54.8927 52.7961C55.8625 53.8828 55.8778 53.9349 55.8778 56.1598C55.8778 57.7321 55.7582 58.5777 55.4846 58.9395C55.1245 59.4155 55.0905 59.3238 55.0813 57.8524Z" fill="white"/>
<path d="M40.8792 62.9148C40.8792 62.6798 40.6429 62.1555 40.354 61.7498C40.0651 61.3441 39.7169 60.5144 39.5802 59.9061C39.4435 59.2978 39.0773 58.3689 38.7663 57.8419C38.1286 56.761 38.0739 55.9194 38.4899 53.5826C38.9686 50.8931 39.5135 49.2497 40.8961 46.3255C41.8785 44.2478 42.4064 43.4395 42.972 43.147C43.3891 42.9313 43.8871 42.5661 44.0785 42.3354C44.2699 42.1047 44.6503 41.916 44.9237 41.916C45.3461 41.916 45.3784 42.0091 45.1384 42.5359C44.983 42.8768 44.546 43.3438 44.1672 43.5737C43.7756 43.8113 43.2558 44.5549 42.9624 45.2973C41.6437 48.6344 40.3766 52.413 39.9334 54.33C39.4727 56.3231 39.4713 56.4772 39.9072 57.2864C40.3084 58.0315 40.9035 60.2411 41.3398 62.6056C41.4217 63.0495 41.3572 63.3422 41.1775 63.3422C41.0135 63.3422 40.8792 63.1499 40.8792 62.9148Z" fill="white"/>
<path d="M27.8093 67.0381C27.0503 66.279 27.999 54.4584 29.1132 50.793C29.8586 48.3404 29.82 47.9918 28.8271 48.2099C28.3851 48.3069 28.0236 48.2994 28.0236 48.1931C28.0236 48.0868 28.2662 47.185 28.5628 46.189C29.279 43.7845 31.8961 38.6673 33.6743 36.1949C34.8735 34.5276 35.3515 34.0931 36.6361 33.5035C38.797 32.5116 38.9087 31.9475 37.2323 30.4925L35.9245 29.3574L36.9958 28.8902C38.5087 28.2304 43.2095 28.1004 46.6569 28.623C49.3249 29.0274 52.6914 30.0777 52.8482 30.5546C52.8937 30.6929 51.8353 30.8011 50.4384 30.8011C48.1001 30.8011 47.8231 30.8626 45.9179 31.8046C41.8159 33.8326 38.5171 38.0417 36.4441 43.8927C36.0328 45.0535 35.4253 46.2743 35.094 46.6055C33.1044 48.5952 30.5096 56.1821 29.5074 62.9404C29.0763 65.8473 28.6674 67.3595 28.3125 67.3595C28.2125 67.3595 27.9861 67.2149 27.8093 67.0381Z" fill="white"/>
<path d="M54.6722 71.727C58.3355 68.394 59.3977 67.2439 60.2963 65.6369C61.2694 63.897 61.2778 63.856 60.9382 62.5307C60.6374 61.357 60.6571 60.9344 61.0944 59.1782C61.5249 57.4493 61.5532 56.8999 61.297 55.2445C61.0311 53.5269 60.8881 53.2179 59.9639 52.3645C59.3946 51.8388 58.649 50.8308 58.3071 50.1246C57.5785 48.6196 56.0768 47.0604 54.94 46.6289C54.3001 46.386 51.4287 46.2874 49.5393 46.4434C49.3677 46.4576 48.7949 47.0583 48.2663 47.7783C47.5319 48.7788 47.1855 49.6472 46.7974 51.461C46.5181 52.7663 46.1134 54.5231 45.8982 55.3649C45.529 56.8087 45.5375 56.9454 46.0475 57.7754C46.3449 58.2593 47.0995 59.6797 47.7244 60.9318C48.5547 62.5953 49.1655 63.4397 49.993 64.0678C51.0491 64.8694 51.1741 64.9021 51.847 64.5542C52.801 64.0608 53.0975 63.6618 53.3354 62.5512C53.5757 61.4292 54.5465 59.8683 55.007 59.8638C55.4635 59.8592 55.43 60.1097 54.8122 61.3215C54.496 61.9417 54.3459 62.612 54.4395 62.9851C54.6738 63.9186 54.3517 64.8522 53.5335 65.6108C52.9191 66.1805 52.5449 66.2883 51.182 66.2883C49.6275 66.2883 49.5156 66.2416 48.4522 65.1501C47.7473 64.4265 47.1054 63.3775 46.6906 62.2709C46.3316 61.3134 45.6606 59.892 45.1994 59.1122C44.7382 58.3323 44.3608 57.4506 44.3608 57.1528C44.3608 56.6334 45.3101 52.6623 46.1228 49.7825C46.5501 48.268 47.7378 46.601 48.9272 45.8465C49.5755 45.4352 49.9432 45.3944 51.2475 45.5892C52.0999 45.7165 53.3397 45.7222 54.0026 45.6019C54.6655 45.4816 55.6004 45.4523 56.0801 45.5368C57.2102 45.736 58.7914 47.2644 59.8862 49.2157C60.3619 50.0635 60.9075 50.8469 61.0987 50.9566C62.5111 51.7667 63.1224 55.3448 62.415 58.6616C62.1644 59.8365 61.9995 61.0991 62.0486 61.4674C62.3267 63.554 62.1298 64.5613 61.1194 66.2209C59.8225 68.3511 55.0445 72.7258 54.0335 72.7088C53.7482 72.7043 53.9657 72.3697 54.6722 71.727Z" fill="white"/>
<path d="M47.1186 73.6725C45.6198 72.8155 43.9278 71.4391 43.4194 70.6631C43.1928 70.3173 42.888 69.4047 42.7421 68.6351C42.5801 67.781 42.1655 66.8486 41.678 66.242C41.2387 65.6953 40.8831 64.9699 40.8877 64.6298C40.8962 64.0127 40.8974 64.0129 41.4903 64.7285C42.4944 65.9404 43.5575 67.8032 43.5575 68.3507C43.5575 69.3795 45.9826 71.8448 48.1197 72.9885C48.7097 73.3043 50.0384 73.2508 52.0611 72.83C53.3393 72.564 53.1714 73.1688 51.7932 73.7944C50.2146 74.511 48.507 74.4665 47.1186 73.6725Z" fill="white"/>
<path d="M46.1194 87.9919C44.1505 86.9562 41.0487 84.4088 39.3031 82.3937C38.3387 81.2806 37.7222 80.2337 37.2829 78.9637C36.9351 77.9584 36.5648 76.9249 36.4599 76.6672C36.0673 75.7024 35.5757 76.2187 35.1212 78.0733C34.8685 79.1044 34.6084 79.948 34.543 79.948C33.8805 79.948 33.01 74.8518 32.5836 68.4771C32.2134 62.9416 32.2373 60.5995 32.7041 56.6455C33.1615 52.7719 33.6767 50.6267 34.6011 48.7462L35.2595 47.4071L35.1232 48.4784C34.5293 53.1474 34.4141 54.9967 34.5607 57.5109C35.1739 68.0272 39.5532 76.608 45.9026 79.7338C47.6201 80.5793 47.8321 80.6176 50.7974 80.6176C53.8369 80.6176 53.936 80.5982 55.9207 79.6174C61.4341 76.8925 65.772 69.2669 66.8504 60.4037C67.8629 52.0822 66.1387 43.7754 62.1436 37.7272C60.3556 35.0204 58.3147 33.1287 55.8543 31.8979C54.8135 31.3772 53.3852 30.5278 52.6804 30.0104C50.4897 28.4023 47.6247 27.2155 44.238 26.5132C40.2577 25.6878 39.6329 25.2311 40.9104 24.0807C41.421 23.6208 41.8693 23.5765 45.4511 23.6314C48.9165 23.6844 49.6736 23.779 51.3642 24.3697C52.4306 24.7422 53.4048 24.9454 53.5291 24.8211C53.6534 24.6968 53.6256 24.2545 53.4674 23.8383C52.9931 22.5907 53.511 22.4822 55.3251 23.4491C57.4142 24.5626 60.4167 27.1406 62.3057 29.4429C63.4253 30.8074 63.943 31.7464 64.4633 33.3562C64.8399 34.5211 65.2235 35.5498 65.316 35.6422C65.7449 36.0712 66.2329 35.1474 66.7059 33.0114C67.4 29.8763 68.5893 36.5475 68.8904 45.2644C69.0469 49.7951 68.8744 53.4515 68.3246 57.2573C68.2561 57.7319 68.4967 57.0354 68.8593 55.7097C69.7284 52.5324 70.0526 50.1724 70.3309 44.9966C70.4577 42.6397 70.6451 40.5005 70.7474 40.2427C71.0372 39.5127 71.5787 39.6889 71.9819 40.6444C72.4143 41.6692 72.5091 53.8765 72.1099 57.1158C71.9782 58.1837 71.9497 59.0575 72.0465 59.0575C72.1433 59.0575 72.4565 58.9114 72.7424 58.7329C73.0283 58.5543 73.341 58.487 73.4373 58.5833C73.7375 58.8835 72.5418 63.7205 71.3857 66.8835C69.7388 71.3889 68.3475 73.9268 67.0236 74.8401C65.5391 75.8641 64.8867 76.6299 65.0767 77.1251C65.1634 77.3512 65.7807 77.8015 66.4483 78.1259C67.116 78.4503 67.6622 78.8649 67.6622 79.0472C67.6622 79.5751 64.5251 80.9616 61.9796 81.5588C57.3325 82.6491 52.8523 82.7076 50.0526 81.7146C49.4266 81.4926 48.9143 81.3555 48.9143 81.4099C48.9143 81.4644 49.6676 81.9284 50.5882 82.4411C52.7249 83.6311 55.2743 84.4112 58.2908 84.798C60.7614 85.1149 61.6774 85.6076 61.3555 86.4465C61.0137 87.3372 59.6407 87.5829 55.2945 87.531C52.0873 87.4927 50.9043 87.382 50.286 87.0623C49.8408 86.8321 49.1587 86.6437 48.7702 86.6437C48.0944 86.6437 48.0716 86.6902 48.2448 87.715C48.4705 89.0509 48.1996 89.0862 46.1194 87.9919Z" fill="white"/>
<path d="M17.0427 79.1761C12.142 75.4213 7.24293 71.6643 2.34375 67.9075L6.40556 67.3594L19.638 77.3667L20.5968 91.9945L17.2436 96.8164L17.0427 79.1761Z" fill="white" fill-opacity="0.5"/>
<path d="M21.9238 76.1513C18.3736 73.4311 14.8245 70.7094 11.2754 67.9879L14.2179 67.5908L23.8039 74.8405L24.4985 85.4373L22.0693 88.9305L21.9238 76.1513Z" fill="white" fill-opacity="0.5"/>
<path d="M82.9573 79.1761C87.858 75.4213 92.7571 71.6643 97.6562 67.9075L93.5944 67.3594L80.362 77.3667L79.4032 91.9945L82.7564 96.8164L82.9573 79.1761Z" fill="white" fill-opacity="0.5"/>
<path d="M78.0762 76.1513C81.6264 73.4311 85.1755 70.7094 88.7246 67.9879L85.7821 67.5908L76.1961 74.8405L75.5015 85.4373L77.9307 88.9305L78.0762 76.1513Z" fill="white" fill-opacity="0.5"/>
</svg>
