<svg width="100" height="100" viewBox="0 0 100 100" fill="none" xmlns="http://www.w3.org/2000/svg">
<path d="M37.4196 85.059L2.34375 34.7461H97.6562L63.4964 85.5703L55.929 86.8998L49.282 87.2065L43.4531 86.8998L37.4196 85.059Z" fill="url(#paint0_linear_551_679)"/>
<path d="M45.8673 94.0662C41.882 93.5624 40.0139 92.66 36.5435 89.5623C35.5601 88.6846 35.384 88.3856 35.5287 87.8398C35.9006 86.438 36.0733 86.38 37.6357 87.1323C40.3751 88.4515 42.9843 88.7948 50.2864 88.7971C58.4517 88.8002 62.3592 88.2004 63.9923 86.695C64.5356 86.1943 64.6511 86.1758 65.0078 86.5326C65.2292 86.754 65.5212 87.3217 65.6567 87.7942C65.8968 88.6312 65.8515 88.6948 63.892 90.2711C61.1305 92.4926 59.8359 93.2011 57.6734 93.6744C55.4497 94.1611 48.454 94.3932 45.8673 94.0662ZM39.0831 75.7063C38.863 75.35 39.1858 74.8445 39.5067 75.0429C39.8346 75.2455 39.8325 75.9762 39.504 75.9762C39.3643 75.9762 39.1749 75.8547 39.0831 75.7063ZM36.9685 74.1765C36.8695 74.0775 36.7885 73.3977 36.7885 72.6659C36.7885 71.7896 36.6127 71.0884 36.2737 70.6123C35.8466 70.0125 35.7986 69.6833 35.9919 68.6809C36.1202 68.0163 36.235 66.8651 36.2472 66.1227C36.2672 64.9079 36.3561 64.718 37.1363 64.2235L38.0033 63.6741L37.9892 60.941C37.9809 59.3512 37.8493 58.0564 37.6744 57.8457C37.3879 57.5004 37.1027 54.4418 37.3468 54.3314C37.4109 54.3024 37.7915 54.4937 38.1925 54.7564C39.0205 55.299 39.849 55.2448 39.9653 54.6405C40.0515 54.1931 37.4203 52.038 37.1356 52.3227C36.9138 52.5446 35.4387 51.148 35.4387 50.7161C35.4387 49.8395 33.0332 50.2702 32.1786 51.2999C31.4943 52.1244 30.0395 51.3357 30.0395 50.1402C30.0395 49.7507 29.8158 49.5431 29.2807 49.4361C28.4388 49.2677 27.8799 48.3392 27.8799 47.1089C27.8799 46.6874 27.7007 45.9971 27.4816 45.575C27.092 44.8239 27.1628 42.9099 27.5982 42.4262C27.7022 42.3106 28.112 42.4714 28.5087 42.7834C29.1795 43.3111 30.2167 43.4272 30.1415 42.9663C30.1233 42.8548 30.0223 42.0061 29.9171 41.0803L29.7258 39.3969L29.0857 40.1393C28.4314 40.8983 27.8799 41.1071 27.8799 40.596C27.8799 39.6868 28.5187 36.3751 28.7485 36.0929C29.1535 35.5956 29.5245 35.9643 29.3438 36.6844C29.1333 37.523 29.6413 37.7883 30.4469 37.2605C30.8063 37.025 31.272 36.8323 31.4818 36.8323C31.6915 36.8323 32.0248 36.6375 32.2225 36.3994C32.5237 36.0364 32.5122 35.8452 32.1518 35.2171C31.9152 34.8049 31.7799 34.1637 31.8509 33.792C32.0421 32.7921 31.4542 32.6198 30.6102 33.4284C29.6692 34.33 29.3951 34.3194 29.624 33.3904C29.8658 32.4091 31.6195 29.2736 31.9265 29.2736C32.381 29.2736 32.4757 29.7737 32.1548 30.4781C31.8904 31.0584 31.9081 31.2578 32.2551 31.6048C32.6373 31.987 32.7392 31.9855 33.3448 31.5888C33.7122 31.348 34.1977 31.222 34.4236 31.3087C34.6969 31.4135 35.0298 31.15 35.4187 30.5208C35.9148 29.7181 35.9512 29.4924 35.6601 29.0262C35.3896 28.593 35.387 28.4074 35.6479 28.1465C36.1516 27.6428 36.0459 27.3839 35.3366 27.3839C34.9769 27.3839 34.5233 27.642 34.3048 27.9711C34.0498 28.3551 33.7587 28.4984 33.4636 28.3851C33.0778 28.2371 33.0595 28.103 33.3374 27.4605C33.9145 26.1264 35.7179 23.6045 36.0948 23.6045C36.6334 23.6045 36.8172 24.326 36.4716 25.0844C36.0351 26.0425 36.5736 26.6603 37.4839 26.2456C37.9442 26.0359 38.3214 26.0309 38.7557 26.2288C39.2453 26.4518 39.503 26.4049 40.0004 26.0021C40.3454 25.7228 40.8007 25.4942 41.0122 25.4942C41.545 25.4942 42.7254 26.3002 42.7378 26.6725C42.7577 27.2671 44.9847 28.5685 45.9671 28.5596C46.8996 28.5512 49.5272 28.1007 51.3662 27.6339C52.118 27.4431 51.9801 27.4216 50.6913 27.5289C49.8005 27.6031 48.4642 27.7388 47.7218 27.8304C46.9794 27.922 46.4599 27.9027 46.5674 27.7874C46.6749 27.6722 46.2497 27.2515 45.6226 26.8526C44.9954 26.4536 44.0282 25.5713 43.4731 24.8918C42.4882 23.686 42.4755 23.6423 42.9424 23.0656C43.2055 22.7407 43.7507 22.4557 44.1538 22.4323C44.8171 22.3937 44.8869 22.2906 44.887 21.3485C44.8872 20.5339 44.9754 20.3411 45.2922 20.4626C45.8058 20.6597 45.802 20.6155 45.1843 19.2249C44.9022 18.5899 44.5396 17.7346 44.3784 17.3241C44.1074 16.6338 44.0043 16.5909 43.0016 16.7512C42.4054 16.8466 41.9177 16.8546 41.9177 16.769C41.9177 16.6834 42.2214 16.2857 42.5926 15.8852C43.4334 14.9779 43.4369 14.7469 42.6144 14.4342C41.5939 14.0463 41.3848 13.4216 41.8341 12.1032C42.0502 11.4689 42.4004 10.8061 42.6123 10.6302C42.8242 10.4543 42.9975 9.91096 42.9975 9.42267C42.9975 8.24327 44.184 7.23515 45.8694 6.9824C46.5567 6.87933 47.3458 6.56827 47.6229 6.29115C48.46 5.45402 49.444 5.65211 50.484 6.86713C50.9924 7.46103 51.5599 7.94696 51.7451 7.94696C52.2771 7.94696 53.3207 9.20541 53.7058 10.3112C54.1628 11.6232 54.1541 11.7433 53.6171 11.5372C53.2073 11.38 53.1866 11.6437 53.3785 14.5827C53.4941 16.3525 53.5789 18.1413 53.5669 18.5579C53.549 19.1831 53.6347 19.287 54.0576 19.1528C54.4229 19.0369 54.8197 19.2647 55.4406 19.9471L56.3114 20.904L57.444 18.4068C59.2846 14.3484 61.2835 11.057 62.7279 9.70593C63.461 9.02016 64.1808 8.53324 64.3275 8.62389C64.8285 8.93349 64.5943 9.27394 63.3981 9.97494C62.6921 10.3887 61.8763 11.1953 61.4071 11.9435C58.6896 16.2771 56.9176 20.4887 57.1737 22.0047C57.3656 23.1403 56.8925 24.2532 55.1046 26.8724C54.0421 28.4289 54.0344 28.4339 51.9605 28.8841C50.817 29.1323 48.991 29.5745 47.9027 29.8667C45.9905 30.3801 45.9057 30.3816 45.383 29.9086C44.8493 29.4255 44.8466 29.4291 45.1871 30.1764C45.578 31.0341 45.5353 31.0353 49.7465 30.0557C53.2343 29.2443 54.4486 28.7519 54.9217 27.957C55.1534 27.5676 55.7792 26.5361 56.3123 25.6648C56.8454 24.7935 57.3173 23.9788 57.3609 23.8545C57.452 23.5949 61.3391 24.5608 61.7146 24.9363C61.8594 25.0811 62.2189 25.0876 62.576 24.9518C62.9131 24.8237 63.254 24.784 63.3336 24.8636C63.4133 24.9432 63.6179 24.9221 63.7885 24.8168C63.9977 24.6875 63.8548 24.3707 63.3493 23.8431C62.7877 23.2569 62.6772 22.9839 62.9083 22.7528C63.2752 22.3859 64.0079 22.8107 66.1592 24.6373C67.1228 25.4555 67.4823 25.9176 67.2615 26.0541C67.0813 26.1654 66.6425 26.1458 66.2864 26.0104C65.9302 25.875 65.5987 25.7642 65.5497 25.7642C65.5006 25.7642 65.2305 26.229 64.9494 26.7972C64.467 27.7722 64.4632 27.8866 64.8827 28.8374C65.5597 30.3716 65.7458 30.4708 66.9283 29.927C67.5005 29.6639 68.0129 29.4157 68.0669 29.3754C68.121 29.335 67.9084 28.9756 67.5945 28.5765C66.8687 27.6539 66.8749 27.3839 67.6218 27.3839C68.3314 27.3839 71.3431 30.4934 71.3431 31.226C71.3431 31.7759 70.5379 31.8699 70.0454 31.3774C69.7909 31.1228 69.6193 31.1517 69.2617 31.5093C68.8312 31.9398 68.8453 32.044 69.4967 33.2525C69.9353 34.0662 70.4001 34.5693 70.7633 34.6237C71.274 34.7001 71.3182 34.6156 71.1659 33.8539C71.0182 33.1154 71.0648 33.0113 71.5064 33.0932C72.7264 33.3193 73.9907 37.899 72.8954 38.1246C72.6218 38.1809 72.423 38.0607 72.423 37.8389C72.423 37.3055 71.4409 36.4702 71.0777 36.6947C70.7396 36.9036 70.8643 38.0974 71.3114 38.9328C71.4748 39.2381 71.5318 39.8712 71.438 40.3397C71.2717 41.1715 71.289 41.1895 72.1721 41.1042C72.8803 41.0358 73.1109 40.8703 73.2344 40.3419C73.6239 38.6756 75.2103 40.2397 75.435 42.5115C75.5213 43.3836 75.4776 43.443 74.7851 43.3956C73.8603 43.3323 73.831 43.6468 74.7176 44.1213C75.1705 44.3637 75.3922 44.7117 75.3915 45.1793C75.3907 45.9253 74.4783 47.6308 74.0804 47.6308C73.9483 47.6308 73.7636 48.014 73.6699 48.4824C73.5762 48.9508 73.3613 49.5007 73.1922 49.7044C72.9394 50.0091 72.8307 49.9657 72.5796 49.4602C72.2102 48.7162 71.2895 48.5296 70.814 49.1025C70.6232 49.3324 70.0581 49.5205 69.5581 49.5205C68.7557 49.5205 68.5334 49.6947 67.6632 51.0052C66.694 52.465 65.9132 52.8681 65.2556 52.2483C65.1085 52.1097 64.7399 52.1059 64.3917 52.2395C63.6842 52.511 63.5807 53.429 64.2174 53.7853C64.6115 54.0059 64.6069 54.1104 64.1666 54.9461C63.8838 55.4829 63.6798 56.4534 63.6756 57.2819C63.6703 58.401 63.5672 58.7315 63.1871 58.8521C62.9223 58.9362 62.6361 59.2821 62.5511 59.6209C62.3881 60.2702 60.9231 61.1286 59.978 61.1286C59.1173 61.1286 58.4625 61.5934 58.276 62.3366C58.1327 62.9075 57.9653 63.0079 57.2515 62.9512C56.5392 62.8945 56.3708 62.9949 56.2322 63.5582C55.998 64.51 55.255 64.452 55.3674 63.4907C55.4811 62.5182 54.8382 62.5026 54.0854 63.4597C53.3383 64.4094 53.3776 64.7353 54.3368 65.5424C54.7828 65.9177 55.0384 66.2922 54.9048 66.3748C54.5421 66.5989 53.3326 65.8926 53.4543 65.5278C53.622 65.0246 52.4753 64.0561 51.822 64.1491C51.4116 64.2074 51.206 64.4509 51.1486 64.9463C51.0812 65.5286 50.9574 65.6335 50.4737 65.5179C50.148 65.44 49.6844 65.1305 49.4436 64.8301C48.9252 64.1835 48.1267 64.3718 48.1267 65.1407C48.1267 65.6786 48.8004 66.1039 49.2309 65.8378C49.366 65.7544 49.4765 65.9362 49.4765 66.2419C49.4765 66.6512 49.3028 66.7977 48.8175 66.7977C47.8632 66.7977 47.6764 67.3313 48.4253 67.918C49.0587 68.4142 49.0611 68.4322 48.5475 68.8258C48.2593 69.0467 47.8187 69.2274 47.5683 69.2274C47.3179 69.2274 46.9618 69.4096 46.7769 69.6323C46.2565 70.2594 45.967 70.1147 45.967 69.2274C45.967 68.5906 45.8486 68.4175 45.4131 68.4175C45.0403 68.4175 44.7668 68.6823 44.5768 69.2274C44.4215 69.6728 44.1849 70.0372 44.0509 70.0372C43.6109 70.0372 43.7962 70.6166 44.3903 71.0976C45.1236 71.6914 44.8816 72.107 43.7238 72.2421C42.9123 72.3369 42.8367 72.2875 42.9429 71.732C43.06 71.1192 42.9822 71.0707 41.7827 71.0096C41.4294 70.9916 41.2696 70.8215 41.3203 70.5173C41.3716 70.2102 41.1628 69.9936 40.7047 69.8786C40.1616 69.7423 40.0486 69.5875 40.183 69.1641C40.3046 68.781 40.2481 68.6586 39.9888 68.7438C39.7876 68.8099 39.5817 69.2187 39.5312 69.6522C39.4325 70.4992 39.0188 70.9168 38.4757 70.7178C38.0082 70.5464 38.0541 70.8465 38.585 71.4333C39.0013 71.8932 38.9994 71.9627 38.5586 72.4498C38.2983 72.7374 38.1685 73.1072 38.27 73.2715C38.6372 73.8657 37.4695 74.6776 36.9685 74.1765ZM37.1946 69.1752C37.1458 68.5127 36.6674 68.228 36.3813 68.691C36.2436 68.9138 36.7703 69.5877 37.2158 69.7586C37.2281 69.7632 37.2186 69.5008 37.1946 69.1752ZM43.5374 67.8615C43.5374 67.7218 43.416 67.6075 43.2675 67.6075C43.119 67.6075 42.9975 67.7969 42.9975 68.0284C42.9975 68.2599 43.119 68.3742 43.2675 68.2824C43.416 68.1906 43.5374 68.0013 43.5374 67.8615ZM46.7769 67.8615C46.7769 67.7218 46.5947 67.6075 46.372 67.6075C45.9545 67.6075 45.8357 67.9261 46.1397 68.2301C46.3554 68.4458 46.7769 68.2019 46.7769 67.8615ZM60.949 60.3211C61.0428 60.0255 61.0438 59.661 60.9513 59.5112C60.5132 58.8024 59.3177 59.6207 59.6242 60.4194C59.8599 61.0337 60.7436 60.9681 60.949 60.3211ZM61.9507 47.7108C62.8177 46.8642 62.9744 46.5359 62.9744 45.5659C62.9744 44.584 63.0798 44.3701 63.7135 44.0664C64.12 43.8715 64.4909 43.513 64.5378 43.2696C64.6439 42.7188 62.721 39.6605 62.4672 39.9765C62.3655 40.1031 61.8147 41.1917 61.2432 42.3955C60.2292 44.5316 60.2089 44.6339 60.3975 46.6474C60.5039 47.7821 60.6665 48.7105 60.7589 48.7105C60.8513 48.7105 61.3876 48.2606 61.9507 47.7108ZM40.5113 46.5475C41.1286 45.7655 41.1289 45.7602 40.7052 43.3904C39.9819 39.3451 39.4601 37.1023 39.2422 37.1023C38.737 37.1023 38.1526 39.0334 38.0167 41.1517C37.9357 42.4137 37.7944 44.07 37.7026 44.8322C37.56 46.0161 37.619 46.3015 38.1069 46.7894C38.8894 47.5719 39.7729 47.483 40.5113 46.5475ZM54.4555 24.8867C55.3202 24.0636 56.1592 21.93 55.4445 22.3718C55.2801 22.4733 55.1456 22.8458 55.1456 23.1995C55.1456 23.5531 55.0241 23.9176 54.8757 24.0093C54.722 24.1043 54.6057 23.8719 54.6057 23.4694C54.6057 22.5596 54.2059 22.8114 53.522 24.1519C52.5782 26.002 52.9645 26.306 54.4555 24.8867ZM39.77 73.5241C40.0068 73.0817 39.9801 72.8613 39.6446 72.4905C38.9892 71.7663 39.1032 70.8861 39.8777 70.6918C40.8057 70.4588 41.1786 70.7824 41.0434 71.7032C40.9576 72.2883 41.0643 72.5689 41.4514 72.7761C41.8222 72.9746 41.8915 73.1408 41.6882 73.3442C41.4848 73.5475 41.2953 73.5442 41.0407 73.3329C40.767 73.1058 40.6018 73.1604 40.352 73.5603C39.8974 74.2882 39.3784 74.256 39.77 73.5241ZM42.937 26.0328C42.0625 25.4836 41.711 25.1034 41.8186 24.8231C42.0676 24.174 42.5168 24.3791 43.64 25.6545C44.8646 27.0451 44.6947 27.1366 42.937 26.0328Z" fill="white"/>
<path d="M50.5898 83.0146C49.3873 83.0146 48.2341 83.1102 47.3838 83.2802C46.5335 83.4503 46.0557 83.6809 46.0557 83.9214C46.0554 84.0405 46.1726 84.1585 46.4003 84.2685C46.6281 84.3786 46.9621 84.4786 47.3831 84.5628C47.8042 84.6471 48.3041 84.7139 48.8543 84.7595C49.4045 84.8051 49.9942 84.8285 50.5898 84.8285C51.1854 84.8285 51.7751 84.8051 52.3253 84.7595C52.8755 84.7139 53.3755 84.6471 53.7965 84.5628C54.2176 84.4786 54.5515 84.3786 54.7793 84.2685C55.0071 84.1585 55.1242 84.0405 55.124 83.9214C55.1239 83.6809 54.6461 83.4503 53.7958 83.2802C52.9455 83.1102 51.7923 83.0146 50.5898 83.0146ZM50.4925 83.448C50.8149 83.448 51.134 83.4607 51.4318 83.4854C51.7296 83.5101 52.0001 83.5462 52.228 83.5918C52.4559 83.6374 52.6366 83.6915 52.7599 83.7511C52.8832 83.8106 52.9466 83.8745 52.9465 83.9389C52.9466 84.0034 52.8832 84.0672 52.7599 84.1268C52.6366 84.1864 52.4559 84.2405 52.228 84.2861C52.0001 84.3317 51.7296 84.3678 51.4318 84.3925C51.134 84.4172 50.8149 84.4299 50.4925 84.4299C50.1702 84.4299 49.851 84.4172 49.5532 84.3925C49.2554 84.3679 48.9848 84.3317 48.7568 84.2861C48.5289 84.2405 48.3481 84.1864 48.2248 84.1268C48.1015 84.0673 48.0381 84.0034 48.0382 83.9389C48.0381 83.8745 48.1015 83.8106 48.2248 83.7511C48.3481 83.6915 48.5289 83.6374 48.7568 83.5918C48.9848 83.5462 49.2554 83.51 49.5532 83.4854C49.851 83.4607 50.1702 83.448 50.4925 83.448Z" fill="white"/>
<path d="M50.556 81.9502C49.2708 81.9502 47.9983 82.0008 46.811 82.0992C45.6237 82.1976 44.5449 82.3418 43.6363 82.5235C42.7276 82.7053 42.0068 82.921 41.5151 83.1585C41.0234 83.396 40.7704 83.6505 40.7705 83.9075C40.7708 84.4265 41.8018 84.9243 43.6369 85.2913C45.472 85.6583 47.9609 85.8644 50.556 85.8645C53.1512 85.8645 55.6401 85.6583 57.4752 85.2913C59.3104 84.9243 60.3416 84.4266 60.3418 83.9075C60.3419 83.6505 60.0889 83.396 59.5972 83.1585C59.1054 82.921 58.3846 82.7052 57.4759 82.5235C56.5672 82.3417 55.4884 82.1975 54.3011 82.0992C53.1137 82.0008 51.8411 81.9502 50.556 81.9502ZM50.3504 82.4144C52.3517 82.4144 54.271 82.5734 55.6862 82.8564C57.1015 83.1394 57.8967 83.5233 57.897 83.9235C57.8971 84.1218 57.702 84.318 57.3228 84.5012C56.9436 84.6843 56.3877 84.8507 55.6869 84.9909C54.9861 85.1311 54.1542 85.2423 53.2385 85.3181C52.3229 85.394 51.3415 85.433 50.3504 85.433C49.3593 85.433 48.3779 85.394 47.4622 85.3181C46.5465 85.2423 45.7146 85.1311 45.0138 84.9909C44.313 84.8507 43.7571 84.6843 43.3779 84.5012C42.9987 84.318 42.8036 84.1218 42.8037 83.9235C42.804 83.5233 43.5992 83.1394 45.0145 82.8564C46.4297 82.5734 48.3491 82.4144 50.3504 82.4144Z" fill="white"/>
<path d="M60.8401 83.458C61.3079 83.7076 61.5485 83.9719 61.5504 84.2385C61.5504 84.5318 61.2616 84.8222 60.7004 85.0931C60.1393 85.364 59.3168 85.6102 58.2799 85.8176C57.2431 86.0249 56.0121 86.1894 54.6574 86.3016C53.3027 86.4139 51.8507 86.4716 50.3844 86.4716C47.4231 86.4716 44.5831 86.2363 42.4892 85.8175C40.3952 85.3988 39.2188 84.8308 39.2188 84.2385C39.223 83.9904 39.4339 83.7441 39.8429 83.5099C38.0734 83.9731 37.1119 84.5395 37.1055 85.1224C37.1053 85.4724 37.45 85.8191 38.1197 86.1425C38.7894 86.4659 39.7711 86.7598 41.0087 87.0073C42.2464 87.2548 43.7157 87.4512 45.3327 87.5852C46.9498 87.7191 48.683 87.7881 50.4333 87.7881C52.1835 87.7881 53.9167 87.7191 55.5337 87.5851C57.1507 87.4512 58.6199 87.2548 59.8575 87.0073C61.0951 86.7597 62.0768 86.4659 62.7465 86.1425C63.4162 85.819 63.7608 85.4724 63.7607 85.1224C63.7598 84.5174 62.7298 83.9304 60.8401 83.458Z" fill="white"/>
<defs>
<linearGradient id="paint0_linear_551_679" x1="49.282" y1="87.2065" x2="50.1216" y2="61.8441" gradientUnits="userSpaceOnUse">
<stop stop-color="white" stop-opacity="0.501961"/>
<stop offset="1" stop-color="white" stop-opacity="0"/>
</linearGradient>
</defs>
</svg>
