<svg width="100" height="100" viewBox="0 0 100 100" fill="none" xmlns="http://www.w3.org/2000/svg">
<path d="M34.1562 92.2679C33.5327 92.1034 33.0445 91.1038 31.9377 87.7249C31.1644 85.3642 31.0646 84.8062 31.3278 84.3145C31.7259 83.5705 31.4774 82.8945 30.8058 82.8945C30.2134 82.8945 29.2729 80.8149 29.5448 80.1063C29.7293 79.6254 31.7016 78.662 32.5193 78.6533C32.8214 78.6503 33.7173 78.1619 34.5101 77.5683C35.3029 76.9748 36.2766 76.423 36.674 76.3422C37.4832 76.1776 38.3122 74.9831 38.5974 73.5707C38.6969 73.0782 38.8349 72.4732 38.9041 72.2263C39.0233 71.8011 40.1705 71.0931 43.9883 69.0886C45.4456 68.3235 45.7321 68.2552 46.2722 68.5442C46.8124 68.8333 47.0743 68.7704 48.3667 68.0411C50.1248 67.0488 50.1852 66.9809 50.9676 65.1103C51.3034 64.3074 51.8546 63.3128 52.1925 62.9001C52.5303 62.4874 52.8067 61.9334 52.8067 61.669C52.8067 60.8446 54.117 56.6191 55.3524 53.4594C56.0028 51.796 56.4803 50.3804 56.4136 50.3137C56.3468 50.2469 55.8849 50.503 55.3871 50.8827C54.8892 51.2624 54.3967 51.5731 54.2926 51.5731C53.8498 51.5731 50.2984 48.3299 49.9472 47.6048C49.5709 46.8279 49.5915 46.7754 50.9395 45.0814C51.6966 44.13 52.6114 43.1192 52.9723 42.8353C53.5855 42.3529 53.714 42.3445 54.9314 42.706C55.6479 42.9188 56.8665 43.3861 57.6393 43.7445C58.6448 44.2108 59.0729 44.3032 59.1447 44.0694C59.1998 43.8898 59.5316 43.1047 59.8821 42.3249C60.2326 41.5451 60.6459 40.3507 60.8005 39.6706C60.9551 38.9905 61.3052 37.7473 61.5785 36.9078C62.0421 35.4838 62.045 35.3801 61.6216 35.3595C60.9041 35.3245 60.1713 35.2162 59.2872 35.0145C58.3266 34.7954 56.9798 35.6052 53.9085 38.2485C52.8763 39.137 51.7932 39.9915 51.5018 40.1475C51.2103 40.3035 50.8576 40.8447 50.718 41.3503C50.339 42.723 48.5951 44.743 47.9375 44.571C47.6381 44.4927 47.0803 44.6676 46.6482 44.9753C46.0371 45.4104 45.8098 45.4538 45.4978 45.1949C45.284 45.0174 45.109 44.6507 45.109 44.3799C45.109 44.1092 44.8048 43.0793 44.4329 42.0914C44.0611 41.1035 43.8181 40.0556 43.893 39.7628C43.9678 39.47 44.7499 38.5255 45.6308 37.6639C47.0955 36.2314 47.2325 36.0004 47.2325 34.9625C47.2325 33.5334 48.0013 32.8538 49.9161 32.5905L51.2625 32.4053L51.0934 31.5039C50.8852 30.3941 51.5061 28.9632 52.4046 28.4824C52.8248 28.2575 53.4839 28.2011 54.3497 28.3159C55.5364 28.4733 55.6985 28.4298 56.0772 27.8517C56.603 27.0494 58.6814 26.0196 59.2977 26.2561C59.8161 26.4551 62.8581 25.9772 64.9296 25.3714C66.1715 25.0082 66.3841 25.0108 67.1602 25.3979C68.2343 25.9337 68.1705 25.9432 68.4503 25.2071C68.7891 24.3161 73.0953 22.3991 73.7311 22.8563C75.0038 23.7714 75.2126 23.621 75.2496 21.7628C75.2897 19.7477 75.5288 19.2232 77.1881 17.5109C79.1868 15.4483 79.5936 15.2699 82.1862 15.3189C84.5643 15.3639 85.131 15.6499 85.9109 17.1986C86.1316 17.6369 86.5816 18.2942 86.9109 18.6591C88.2001 20.0878 87.7276 22.7278 85.9571 23.9885C85.3287 24.4359 85.1898 24.7282 85.1898 25.6023C85.1898 26.3954 85.0071 26.8634 84.4792 27.4228C84.0883 27.8369 83.7307 28.4533 83.6845 28.7925C83.5102 30.0712 83.3115 30.4851 82.6388 30.9698C81.9468 31.4684 81.9462 31.4682 81.3505 30.7212L80.7545 29.9738L80.3108 30.6511C79.9721 31.168 79.9285 31.4903 80.1269 32.0121C80.3158 32.509 80.284 32.902 80.0106 33.4502C79.8036 33.8651 79.4665 34.8576 79.2614 35.6557C78.8974 37.0724 78.9042 37.1256 79.549 37.8946C79.9122 38.3278 80.4043 38.6956 80.6425 38.7118C80.8807 38.7281 81.3778 38.7618 81.7473 38.7868C82.2293 38.8193 82.504 39.0571 82.7196 39.6285C83.0863 40.5998 83.8512 40.6725 85.1805 39.8621C85.9633 39.3849 86.3487 39.3269 87.7685 39.4723C89.0277 39.6014 89.4443 39.5601 89.4674 39.3041C89.4842 39.1175 89.5258 38.8454 89.5597 38.6995C89.5936 38.5535 89.6395 38.2277 89.6618 37.9756C89.684 37.7235 90.0125 37.3139 90.3918 37.0654C90.9633 36.691 91.1728 36.6706 91.6144 36.9464C92.0669 37.2289 92.2357 37.1962 92.7323 36.7297C93.1274 36.3586 93.835 36.1261 94.9128 36.0135L96.5084 35.8467L97.0868 37.433C97.905 39.6769 97.8501 40.8077 96.869 41.9252C96.0224 42.8894 95.9115 43.2136 96.3381 43.4773C96.4841 43.5675 96.6035 43.9232 96.6035 44.2678C96.6035 44.7858 96.4083 44.9405 95.4754 45.1619C93.0921 45.7276 90.0356 46.5597 88.5077 47.0589C85.66 47.9893 83.2702 48.4524 83.0613 48.1144C82.9207 47.8867 82.3678 47.8951 80.865 48.1476C78.6725 48.516 77.284 48.2633 76.0147 47.2648C75.4085 46.788 75.3899 46.7904 75.0685 47.384C74.8882 47.7171 74.5444 48.7155 74.3045 49.6027L73.8684 51.2158L74.5522 52.0129C74.9283 52.4513 75.7735 53.1778 76.4304 53.6272C77.0874 54.0767 78.7523 55.411 80.1302 56.5922C81.5082 57.7734 82.7325 58.7398 82.8509 58.7398C82.9694 58.7398 83.3072 58.4989 83.6017 58.2044C84.1017 57.7044 84.1894 57.6962 84.93 58.0791C87.1215 59.2124 87.9107 62.8513 86.4452 65.0657C86.0426 65.6741 85.5455 66.172 85.3405 66.172C85.1115 66.172 84.7052 66.9643 84.2857 68.2291C83.6479 70.1524 83.6276 70.3656 83.9738 71.5072C84.3065 72.604 84.2962 72.8334 83.8726 73.7634C83.6132 74.3328 83.057 75.2425 82.6365 75.7849C82.2159 76.3274 81.6572 77.0739 81.3949 77.4439C81.1326 77.8138 80.7525 78.1166 80.5502 78.1166C80.057 78.1166 79.9465 78.646 79.8971 81.2447C79.8588 83.2635 79.9255 83.5714 80.7112 85.0007C81.4761 86.392 81.6755 86.5749 82.5859 86.7205C83.8126 86.9167 84.6589 87.6916 84.6589 88.6187C84.6589 88.9933 84.79 89.5447 84.9503 89.8441C85.1794 90.2722 85.149 90.4812 84.8081 90.8221C84.4638 91.1664 83.8438 91.2521 81.796 91.2386C78.9608 91.22 77.498 90.7544 76.0692 89.4161C75.3762 88.767 75.2702 88.7409 74.8546 89.117C74.4422 89.4902 74.219 89.4818 72.4912 89.0282C71.4418 88.7526 70.4058 88.38 70.1889 88.2C69.5938 87.7061 69.7106 86.4055 70.5722 83.9323C71.7593 80.525 72.1676 79.646 72.9655 78.7802C73.9838 77.6751 74.1223 77.1356 73.5378 76.5511C73.2674 76.2807 72.8967 76.0096 72.7142 75.9488C72.2494 75.7939 72.8943 67.6351 73.4047 67.2115C73.5975 67.0515 74.2306 66.8568 74.8116 66.7789C75.9406 66.6274 76.2559 66.2285 76.0126 65.2591C75.8922 64.7794 75.328 64.4522 73.2911 63.6808C71.135 62.8643 70.2031 62.6323 68.4319 62.4712C68.3395 62.4627 68.2081 62.1644 68.14 61.8082C68.0483 61.3287 68.3137 60.7979 69.1617 59.7641C69.7917 58.996 70.2599 58.3204 70.2022 58.2627C70.0156 58.0761 67.7512 59.7613 67.1044 60.568C66.7591 60.9987 66.178 61.8661 65.813 62.4956C65.448 63.1251 63.7567 65.0416 62.0545 66.7545C59.0343 69.7936 58.9627 69.893 59.0873 70.8738C59.3966 73.3086 56.1998 75.9427 53.2765 75.6618C51.6403 75.5046 50.4177 75.8627 50.4177 76.4992C50.4177 77.3295 49.77 77.8456 48.2261 78.2457C47.3856 78.4635 45.9855 79.0013 45.1148 79.4409C44.244 79.8804 43.2441 80.24 42.8928 80.24C42.2161 80.24 40.3057 82.2255 38.3523 84.9588C37.3639 86.3417 37.3535 86.3823 37.5404 88.1274C37.6446 89.0996 37.9011 90.1567 38.1106 90.4764C38.4033 90.9232 38.4245 91.2034 38.202 91.6875C37.9461 92.2445 37.7224 92.3216 36.2685 92.3543C35.3642 92.3747 34.4137 92.3358 34.1562 92.2679ZM66.0395 23.9978L71.3872 8.45582C71.3872 7.618 71.7657 7.39641 72.2948 7.92554C72.5256 8.1563 72.7143 8.39488 72.7143 8.45582L67.3667 23.9978H66.0395Z" fill="white"/>
<path d="M26.6634 91.5617C25.7994 90.2431 24.3981 85.4757 24.469 84.0963C24.5312 82.8861 24.4863 82.7667 23.9874 82.8165C23.5446 82.8607 23.355 82.6144 23.0164 81.5558C22.6009 80.2564 22.6035 80.234 23.2214 79.7479C24.3766 78.8594 25.9776 78.9778 27.0593 78.1312C27.0593 78.0083 27.2301 77.8423 27.439 77.7621C27.6758 77.6713 27.576 77.9741 27.1735 78.5671C26.3541 79.7746 26.3619 80.5751 27.2154 82.8159L30.2445 91.9762C29.1562 92.0646 27.2141 92.3424 26.6634 91.5617ZM65.5459 88.8869C63.2384 88.2495 63.0826 88.0821 63.2192 86.3859C63.3752 84.447 65.311 79.5845 66.3578 78.502C67.3496 77.4764 67.343 76.9867 66.327 76.1915L65.5139 75.5552L66.3737 67.4505C66.4829 67.2739 67.1479 67.0633 67.8515 66.9825C69.0126 66.8491 69.1387 66.7669 69.216 66.0936C69.2878 65.4673 69.3912 65.3794 69.8795 65.5294C70.649 65.7656 70.6266 65.7147 70.348 66.5934C69.8933 68.0272 69.4411 75.506 69.7432 76.5967C69.9857 77.4724 69.9272 77.8068 69.279 79.2511C68.1803 81.6992 66.8746 85.7466 66.8746 86.7043C66.8746 87.1656 66.9857 87.9304 67.1215 88.4039C67.2467 89.6253 65.9391 88.9951 65.5459 88.8869ZM27.2489 76.5238L41.5988 43.3183C44.3704 46.3508 43.0382 48.7695 46.2894 48.2348C46.7875 48.1098 46.9549 48.2051 47.1013 48.6971C48.58 50.7441 50.0993 52.0155 51.9901 53.8292C50.9909 57.831 49.4253 61.5787 47.5994 65.2429L46.0223 65.3971C44.4897 65.5469 43.0215 66.1961 38.3403 68.794C36.9259 69.5789 36.2917 70.5035 35.8051 72.4897C35.6462 73.1384 35.3453 73.7671 35.0748 73.791C34.6707 73.8266 33.9263 74.3157 33.3442 74.8524C32.5692 75.7118 28.6227 76.8125 27.2489 76.5238ZM25.5544 23.7023H26.2491L5.29775 76.5238H4.60303L25.5544 23.7023ZM29.7614 23.7023H30.8438L8.13994 76.5238H7.05752L29.7614 23.7023ZM33.822 23.7023H35.8186L13.1147 76.5238H11.1181L33.822 23.7023ZM38.9595 23.7023H41.0886L18.3847 76.5238H16.2556L38.9595 23.7023ZM44.1179 23.7023H46.9272L24.2233 76.5238H21.414L44.1179 23.7023ZM56.6 40.2127C56.3786 40.072 56.5636 39.7821 57.1973 39.2765C57.7021 38.8736 58.1152 38.591 58.1152 38.6484C58.1152 38.7058 57.9841 39.129 57.8238 39.5888C57.5321 40.4257 57.2008 40.5945 56.6 40.2127ZM49.9528 23.7023H56.892L55.6363 24.4986C54.9457 24.9365 54.0564 25.2955 53.66 25.2964C51.3936 25.3009 48.8115 27.1865 48.4528 29.0987C48.3523 29.6344 48.1658 30.0727 48.0383 30.0727C47.9109 30.0727 47.7413 30.1081 47.5106 30.1966L49.9528 23.7023ZM62.3974 19.7557L66.4877 8.29199H67.358L63.2677 19.7557H62.3974Z" fill="white" fill-opacity="0.501961"/>
</svg>
