<svg width="100" height="100" viewBox="0 0 100 100" fill="none" xmlns="http://www.w3.org/2000/svg">
<path d="M54.9205 89.8215C54.9205 89.5729 55.0561 89.3696 55.2218 89.3696C55.3876 89.3696 55.5232 89.5729 55.5232 89.8215C55.5232 90.0701 55.3876 90.2735 55.2218 90.2735C55.0561 90.2735 54.9205 90.0701 54.9205 89.8215ZM55.2218 87.7342C55.2218 87.6228 55.4322 87.1248 55.6894 86.6275C55.9465 86.1303 56.0779 85.4746 55.9814 85.1705C55.7917 84.5727 56.3638 83.0416 56.7769 83.0416C57.1775 83.0416 57.0707 86.1923 56.6532 86.6901C56.127 87.3174 55.2218 87.9776 55.2218 87.7342ZM77.8553 84.3976L75.7713 77.3194L80.9192 71.8188L88.3714 73.5283L90.583 80.9652L84.9093 86.3281L77.8553 84.3976ZM59.7418 82.746C59.7418 82.3598 60.0091 82.082 60.499 81.959C60.9155 81.8545 61.3859 81.5468 61.5445 81.2753C61.7736 80.883 61.8347 80.9704 61.842 81.7007C61.8529 82.7942 61.3827 83.3429 60.4349 83.3429C59.9449 83.3429 59.7418 83.168 59.7418 82.746ZM64.5712 79.4965C64.5772 78.7109 64.8381 78.0588 65.436 77.3379L66.2926 76.3048L66.4185 77.3825C66.5227 78.2756 66.3746 78.6454 65.5537 79.5412L64.5631 80.6221L64.5712 79.4965ZM69.0831 73.9826C69.0831 72.7514 69.2351 72.2213 69.7433 71.6804C70.4712 70.9055 70.4535 71.2076 70.3095 62.0399C70.2673 59.3556 70.3211 57.0165 70.4291 56.8419C71.06 55.8211 71.1924 57.1211 71.1924 64.334C71.1924 71.2832 71.1306 72.288 70.6309 73.4536C70.3221 74.174 69.8475 74.9477 69.5763 75.1728C69.1301 75.543 69.0831 75.4295 69.0831 73.9826ZM85.0017 69.3834L84.0789 65.8317L86.4097 63.178L90.0974 64.1119L90.8869 67.697L88.381 70.3557L85.0017 69.3834ZM54.9205 67.7194C54.9205 66.7739 55.0464 66.5057 55.5522 66.3734C56.9162 66.0167 57.5632 67.0368 56.5025 67.8715C55.0805 68.9905 54.9205 68.9751 54.9205 67.7194ZM60.5878 61.6249L59.7765 61.0193L59.7563 55.4572L59.7362 49.895H60.643H61.5498V56.0723C61.5498 59.4699 61.5159 62.2454 61.4744 62.2401C61.433 62.235 61.0341 61.958 60.5878 61.6249ZM64.2714 55.8389L64.2618 49.5788L65.0404 49.2828C65.4687 49.1199 65.9464 49.0654 66.102 49.1616C66.2636 49.2615 66.373 51.7211 66.3569 54.8938C66.3415 57.9598 66.2114 60.3785 66.0667 60.2891C65.8026 60.1258 65.5064 60.39 64.7131 61.4963C64.3323 62.0275 64.2798 61.3564 64.2714 55.8389ZM56.5061 59.4623C56.5629 58.9248 56.4061 58.7646 55.7492 58.689L54.9205 58.5936V49.31C54.9205 44.204 54.8358 39.6026 54.7322 39.0847C54.5712 38.2799 54.6319 38.1431 55.1495 38.1431C56.297 38.1431 56.7285 39.3704 56.7285 42.6347C56.7285 44.288 56.6083 45.7151 56.4613 45.8059C55.935 46.1312 55.7588 48.1214 56.2235 48.492C56.77 48.9278 57.2758 60.1403 56.749 60.1403C56.5759 60.1403 56.4666 59.8352 56.5061 59.4623ZM68.8361 48.3884C68.8559 45.1566 68.93 42.9002 69.0008 43.3741C69.1164 44.1476 69.2196 44.2177 70.0103 44.0596L70.8911 43.8834V46.5154C70.8911 48.7506 70.807 49.1999 70.3332 49.4958C69.9429 49.7395 69.7236 50.3453 69.6032 51.5121C69.5085 52.4294 69.2891 53.4239 69.1156 53.7221C68.8889 54.1117 68.8102 52.6106 68.8361 48.3884ZM73.6235 52.962C73.6123 52.5772 73.9535 51.6644 74.3818 50.9336C75.0747 49.7513 75.2062 48.6581 74.8198 47.2935C74.8138 47.2714 74.5372 47.1824 74.2058 47.0957C73.8565 47.0044 73.6031 46.6847 73.6031 46.3355C73.6031 45.5595 74.6325 45.7754 75.2696 46.685C75.901 47.5864 75.8184 48.851 75.0126 50.6193C74.6277 51.4639 74.1623 52.494 73.9783 52.9084L73.6439 53.6617L73.6235 52.962ZM65.1658 46.731C64.8524 46.3534 64.8959 46.279 65.4302 46.279C65.7979 46.279 66.0698 46.4712 66.0698 46.731C66.0698 46.9796 65.9508 47.183 65.8054 47.183C65.6599 47.183 65.3721 46.9796 65.1658 46.731ZM59.7418 43.2335C59.7418 42.5036 59.8469 42.3376 60.2185 42.4802C60.4806 42.5808 60.8874 42.6631 61.1225 42.6631C61.3774 42.6631 61.5498 42.967 61.5498 43.4164C61.5498 44.0525 61.4092 44.1697 60.6458 44.1697C59.8354 44.1697 59.7418 44.0728 59.7418 43.2335ZM64.2618 43.4164C64.2618 43.1151 64.5631 42.9644 65.1658 42.9644C65.7685 42.9644 66.0698 43.1151 66.0698 43.4164C66.0698 43.7177 65.7685 43.8684 65.1658 43.8684C64.5631 43.8684 64.2618 43.7177 64.2618 43.4164ZM75.4587 42.6631C75.4587 42.2487 75.5271 42.0792 75.6107 42.2864C75.6943 42.4936 75.6943 42.8326 75.6107 43.0397C75.527 43.2469 75.4587 43.0774 75.4587 42.6631ZM78.5945 40.7667C78.7076 40.4696 78.8761 40.3023 78.9689 40.3951C79.0617 40.4879 78.9691 40.731 78.7631 40.9354C78.4655 41.2308 78.4309 41.1962 78.5945 40.7667ZM64.2618 34.3764C64.2618 30.9789 64.3344 28.1991 64.4231 28.1991C64.5118 28.1991 64.9186 28.4181 65.3271 28.6858L66.0698 29.1724V34.8631V40.5537H65.1658H64.2618V34.3764ZM60.0744 39.6754C59.7463 39.4677 59.6209 38.1071 59.5053 33.5027L59.357 27.5964H60.3027H61.2485V31.4683C61.2485 33.5978 61.3362 36.3776 61.4434 37.6456C61.6236 39.7778 61.5953 39.9507 61.0667 39.9465C60.7523 39.9439 60.3058 39.8219 60.0744 39.6754ZM68.7818 35.5711C68.7818 31.323 68.7995 31.2007 69.369 31.5055C70.6213 32.1757 70.8911 33.0085 70.8911 36.2031C70.8911 39.1775 70.8724 39.2602 70.1236 39.6014C69.7015 39.7937 69.2269 39.9511 69.0689 39.9511C68.9001 39.9511 68.7818 38.146 68.7818 35.5711ZM78.7257 38.4403C78.7257 38.1066 78.8857 37.5775 79.0811 37.2645C79.3654 36.8093 79.3357 36.5418 78.9326 35.9265C78.5249 35.3044 78.4927 34.9967 78.7638 34.315C79.0016 33.7171 79.1448 33.6037 79.2569 33.9244C79.3438 34.173 79.5477 34.7154 79.71 35.1297C80.1646 36.2907 80.1543 37.6213 79.6848 38.3691C79.1565 39.2104 78.7257 39.2424 78.7257 38.4403ZM56.4947 37.4756C56.4575 37.1913 56.0204 36.4954 55.5232 35.9291L54.6192 34.8995V30.9466V26.9938H55.5326C56.035 26.9938 56.513 27.1683 56.5949 27.3815C56.6767 27.5948 56.7028 30.0694 56.653 32.8808C56.6031 35.6922 56.5319 37.7598 56.4947 37.4756ZM78.4244 30.0071C78.4244 28.7331 78.7056 28.5034 79.3358 29.2627C79.6283 29.6151 79.6385 29.8988 79.3792 30.468C78.8714 31.5824 78.4244 31.3666 78.4244 30.0071ZM78.1231 24.2818C78.1231 23.6189 78.2495 23.0765 78.4041 23.0765C78.811 23.0765 79.0996 24.1813 78.8764 24.8844C78.5541 25.8998 78.1231 25.555 78.1231 24.2818ZM75.4349 21.9967C75.4493 21.6457 75.5207 21.5742 75.6169 21.8146C75.704 22.0321 75.6933 22.2921 75.5932 22.3922C75.4931 22.4923 75.4218 22.3143 75.4349 21.9967ZM75.2137 18.3928C75.1156 18.1371 75.1026 17.8605 75.185 17.7782C75.2672 17.6959 75.4069 17.9052 75.4953 18.2432C75.6831 18.9612 75.4744 19.0721 75.2137 18.3928ZM81.5553 17.9269L77.8869 17.0595L76.9282 13.5388L79.0776 11.3877L82.5123 12.1476L83.5569 15.8523L81.5553 17.9269ZM73.5438 16.5795C73.411 15.4424 73.655 15.0816 74.3709 15.3563C74.9001 15.5594 74.9484 16.7893 74.4468 17.2909C73.8668 17.8709 73.6771 17.7214 73.5438 16.5795ZM69.5351 10.1736L68.6311 9.67319L69.4873 9.57218C70.4702 9.45622 70.6842 9.58827 70.5411 10.2224C70.4522 10.6163 70.3235 10.61 69.5351 10.1736ZM54.2219 8.41615C53.8907 8.08488 54.0024 7.30044 54.4687 6.68447C54.8083 6.23572 54.9929 6.18813 55.3249 6.46367C55.5577 6.65685 55.9872 6.72317 56.2794 6.61103C57.172 6.26851 56.6367 7.20146 55.6497 7.70851C55.1658 7.95711 54.6928 8.26425 54.5986 8.39104C54.5044 8.51783 54.3349 8.52913 54.2219 8.41615ZM60.1327 7.16209C59.0643 7.01009 58.8261 5.29785 59.8734 5.29785C60.4461 5.29785 61.0097 6.07848 60.8949 6.7126C60.8284 7.0803 60.5814 7.22592 60.1327 7.16209ZM63.9612 6.70917C63.9606 6.29006 64.154 6.18416 64.7866 6.25717C65.9941 6.39655 66.078 7.33216 64.8791 7.2893C64.2059 7.26524 63.9617 7.11085 63.9612 6.70917Z" fill="white" fill-opacity="0.501961"/>
<path d="M51.6807 96.0937C51.3078 95.2343 51.0027 94.1565 51.0027 93.6986C51.0027 93.2407 50.6502 91.7103 50.2194 90.2978C49.6137 88.312 49.1721 87.4577 48.2723 86.5306C47.6323 85.8712 46.9527 84.9553 46.7622 84.4953C46.5029 83.8695 46.1398 83.61 45.3193 83.4643C43.1909 83.0863 40.2719 81.2929 38.9626 79.5587C38.2923 78.6708 37.2629 77.5658 36.675 77.103C35.4051 76.1033 34.3797 74.5541 34.2499 73.4392C34.1984 72.9969 33.8707 71.9897 33.5218 71.2008C33.1044 70.2573 32.9041 69.2281 32.9363 68.1928C32.9633 67.3272 32.9859 64.6528 32.9867 62.2497C32.9879 58.002 32.9699 57.8776 32.3365 57.782C31.585 57.6684 31.2573 56.9396 30.6416 54.0128C30.4017 52.8723 29.9234 51.5431 29.5788 51.0591C28.7043 49.831 28.3306 48.3164 28.6771 47.4048C29.0498 46.4248 30.9132 45.2705 31.7129 45.5243C32.2588 45.6975 32.3202 45.5832 32.3202 44.3933C32.3202 43.3569 32.1504 42.9109 31.5382 42.3389C29.7737 40.6906 29.1113 37.9782 29.6316 34.5322C29.896 32.7807 29.8868 31.9217 29.59 30.6848C29.23 29.184 29.2618 28.9237 30.1437 26.1598C30.6583 24.5468 31.2456 22.565 31.4488 21.7556C31.6891 20.7986 32.1432 19.9931 32.7472 19.4519C33.2581 18.9943 34.4092 17.9615 35.3052 17.1568C36.4258 16.1505 37.2044 15.1023 37.7996 13.7985C38.4797 12.3091 38.9554 11.719 40.0212 11.0431C40.7672 10.5701 41.8788 10.089 42.4916 9.97401C43.3043 9.82155 44.1991 9.20135 45.7985 7.6821C48.469 5.14541 49.2296 5.00188 50.848 6.72922C51.555 7.4837 51.8818 8.10184 51.8314 8.58931C51.7142 9.72472 51.0793 9.67587 49.9516 8.4447L48.9184 7.31667L47.8722 8.11458C47.2969 8.55343 46.5551 9.29304 46.224 9.75814C45.5913 10.6466 44.1712 11.4809 42.8147 11.7608C41.6207 12.0072 40.1587 13.3747 39.5359 14.8276C38.9988 16.0808 37.3555 17.9209 34.8262 20.1016C33.8207 20.9685 33.4702 21.547 33.0939 22.9611C32.5914 24.8499 32.0291 26.5482 31.3931 28.0986C31.0708 28.8843 31.0726 29.2675 31.4032 30.2692C31.6884 31.1333 31.7325 31.9919 31.5555 33.2324C30.948 37.49 31.351 39.5942 33.1406 41.5084C33.7335 42.1426 33.9259 42.7324 34.0519 44.3012C34.2473 46.7355 33.7667 47.4844 32.009 47.4844C30.2201 47.4844 29.9913 48.0792 31.0567 49.9599C31.5529 50.8358 32.1227 52.366 32.3228 53.3604C32.7662 55.5631 32.9226 55.8667 33.8512 56.3284C34.5466 56.6743 34.592 56.8774 34.8391 60.751C35.015 63.5083 34.9914 65.3456 34.7657 66.4771C34.4178 68.221 34.5716 69.2238 35.4465 70.9156C35.7158 71.4363 35.9361 72.2775 35.9361 72.7849C35.9361 73.5357 36.4744 74.2815 38.8283 76.7918C41.7755 79.935 43.3904 81.0541 46.1775 81.8851C47.1657 82.1798 47.6927 82.5609 48.1361 83.3016C48.4698 83.859 49.5119 85.1663 50.452 86.2069C52.4556 88.4245 52.5896 88.96 52.4507 94.1909L52.3587 97.6562L51.6807 96.0937ZM46.3899 66.7697L48.4703 66.7739C51.668 66.555 53.1396 69.1891 50.7767 69.1671C48.8521 68.8291 48.0158 67.9597 46.3899 66.7697ZM50.5997 60.8702C51.9589 61.0692 52.0599 61.9433 51.9067 63.2144C51.0941 62.8377 48.9326 60.4663 50.5997 60.8702ZM40.322 61.421C39.9567 60.5562 38.9976 60.6223 38.3026 60.2682C35.999 59.2388 33.4708 50.2014 34.9934 47.6978C35.9468 46.0436 35.6348 44.7349 35.6348 42.7894C41.5667 42.9084 43.2281 42.3586 45.043 41.8212C46.9643 41.2592 50.3325 37.4129 51.9067 37.2391V58.9351C49.0927 58.8185 46.2656 60.3855 44.0159 61.9605C42.3697 63.0884 40.9826 63.6555 40.322 61.421ZM46.7721 49.0048C47.1472 48.7676 47.1249 48.6289 46.6214 48.0654C46.0342 47.4081 46.0342 47.4053 46.6334 47.5807C46.9649 47.6777 47.6295 47.8512 48.1103 47.9662L48.9845 48.1753L48.7745 46.8618C48.659 46.1394 48.5038 45.4877 48.4296 45.4135C48.0074 44.9913 42.2706 44.1866 39.6274 44.1789C36.3887 44.1693 36.0481 44.3334 37.0375 45.4267C37.4003 45.8276 37.9684 45.9777 39.1222 45.9777C41.5517 45.9777 41.859 46.2247 40.3936 46.9997C39.7049 47.3639 39.0955 47.7994 39.0395 47.9676C38.9834 48.1358 39.3809 48.494 39.9228 48.7636C41.0247 49.3119 46.0092 49.4874 46.7721 49.0048ZM36.6895 40.3713C36.358 40.2874 35.7198 40.0766 35.2712 39.903C33.5664 39.2434 32.7722 34.7049 33.9458 32.3295C34.4233 31.363 34.9346 30.9802 37.2573 29.8503C41.0687 27.9964 46.5665 26.6925 50.5725 26.6925H51.9067V34.7074L50.8424 35.0923C50.2569 35.304 49.0473 36.2255 48.1543 37.1402C46.0727 39.2722 43.5982 40.2475 39.8535 40.4117C38.4447 40.4735 37.0209 40.4554 36.6895 40.3713ZM54.365 7.70855C54.365 7.29422 54.4334 7.12472 54.517 7.33189C54.6006 7.53905 54.6006 7.87805 54.517 8.08521C54.4333 8.29238 54.365 8.12288 54.365 7.70855Z" fill="white"/>
<path d="M31.0297 25.6297L25.779 27.2278L16.4189 17.9248L20.0146 5.8823L32.5136 2.34375L40.9034 10.9048C37.6501 16.3653 32.9472 19.7239 31.0297 25.6297Z" fill="white" fill-opacity="0.501961"/>
<path d="M16.9894 25.8584L10.5401 27.4565L9.11328 33.3921L13.4509 37.958L19.6719 36.1887L21.2128 30.3101L16.9894 25.8584Z" fill="white" fill-opacity="0.501961"/>
</svg>
