<svg width="100" height="100" viewBox="0 0 100 100" fill="none" xmlns="http://www.w3.org/2000/svg">
<path d="M47.3847 48.8872V5.65039H45.986V48.8872L2.34375 48.8872V50.2855H45.986M45.986 54.0828V94.3505H47.3847V54.0828M62.7338 50.2855H91.0438V48.8872H63.4321" fill="white" fill-opacity="0.987988"/>
<path d="M63.4766 21.082L66.2484 16.1174C67.3792 14.1753 70.5026 15.746 69.4699 17.759L66.6147 22.8786L63.4766 21.082Z" fill="white"/>
<path d="M46.856 14.8105C37.5461 14.8105 28.6175 18.5089 22.0344 25.092C15.4513 31.6751 11.7529 40.6037 11.7529 49.9136C11.7529 59.2235 15.4513 68.1521 22.0344 74.7352C28.6175 81.3183 37.5461 85.0167 46.856 85.0167C56.1659 85.0167 65.0945 81.3183 71.6776 74.7352C78.2607 68.1521 81.9591 59.2235 81.9591 49.9136C81.95 45.0019 80.9102 40.1467 78.907 35.662L75.7728 37.9943C77.2936 41.7357 78.0788 45.7352 78.0852 49.7739C78.0852 58.1058 74.7753 66.0965 68.8836 71.9881C62.992 77.8797 55.0013 81.1895 46.6693 81.1894C38.3374 81.1894 30.3467 77.8795 24.4552 71.988C18.5636 66.0964 15.2537 58.1058 15.2537 49.7739C15.2536 41.4419 18.5635 33.4511 24.455 27.5595C30.3466 21.6679 38.3373 18.3579 46.6693 18.3579C50.469 18.3704 54.2349 19.0722 57.784 20.429C58.1886 18.7181 58.2965 18.2625 58.6237 16.8798C54.8482 15.5226 50.868 14.8227 46.856 14.8105Z" fill="white" fill-opacity="0.951952"/>
<path d="M97.6563 6.9209L62.3325 36.9977L65.7076 39.9536L91.7812 21.5353L97.6563 6.9209ZM65.7076 39.9536L46.2102 53.4793L57.2784 34.2687C53.4942 32.1479 49.4007 29.6616 47.1812 27.7471C46.8362 27.4509 46.3257 27.4509 45.9807 27.7471C41.6611 31.473 30.1926 37.4124 27.8442 38.4846C27.5838 38.6026 27.4198 38.8642 27.4249 39.1502C27.7571 55.8747 45.4857 73.3739 46.581 73.3739C47.6587 73.3739 64.8423 56.4296 65.7076 39.9536ZM57.2784 34.2687L58.889 35.1622L64.1077 23.288L57.2784 34.2687ZM58.889 35.1622L54.9988 43.5556L62.3325 36.9977C61.3213 36.4742 60.1374 35.8444 58.889 35.1622Z" fill="white"/>
</svg>
