<svg width="100" height="100" viewBox="0 0 100 100" fill="none" xmlns="http://www.w3.org/2000/svg">
<path d="M50.8655 26.9824C50.6431 26.9824 50.4208 27.0596 50.2414 27.2132C45.7505 31.0767 33.8268 37.2353 31.3854 38.3472C31.1147 38.4695 30.944 38.7411 30.9493 39.0376C31.2947 56.3802 49.7268 74.5261 50.8655 74.5261C52.0042 74.5261 70.4386 56.3775 70.7813 39.035C70.7879 38.7397 70.6173 38.471 70.3479 38.3487C67.9118 37.2395 55.9819 31.078 51.4896 27.2132C51.3102 27.0596 51.0878 26.9824 50.8655 26.9824ZM49.3808 36.7717L55.2963 37.313L51.9374 46.7887L56.4689 47.8896L47.9373 65.8618L50.3543 51.3831L45.1949 50.2849L49.3808 36.7717Z" fill="white"/>
<path d="M49.9817 15.2314C23.7559 15.2317 2.4957 39.6973 2.49561 69.8773C2.57761 71.058 2.73483 72.207 3.09055 73.2727C11.7099 84.3614 38.4279 84.5576 50.0691 84.7677C62.174 84.7139 98.8241 82.8736 97.4682 69.8773C97.4682 39.6972 76.2078 15.2314 49.9817 15.2314ZM49.7495 18.4953C73.677 18.5019 93.4826 39.9019 94.994 67.382C87.169 62.4791 76.215 60.2477 67.8177 59.2939L67.4912 61.6103C81.396 63.42 89.6947 67.3004 89.7147 71.5685C89.7146 77.6499 71.9808 82.5798 50.1049 82.5799C28.2291 82.5798 10.4953 77.6499 10.4952 71.5685C10.5097 67.5174 18.5246 63.7957 31.3625 61.8788L31.6127 59.44C23.4205 60.4077 12.413 62.0745 4.52631 67.8557C5.82809 40.1983 25.6804 18.5298 49.7495 18.4953Z" fill="white" stroke="white" stroke-width="1.55343"/>
</svg>
