<svg width="100" height="100" viewBox="0 0 100 100" fill="none" xmlns="http://www.w3.org/2000/svg">
<path d="M40.7093 60.8709L46.508 68.4524L49.4425 8.94922L52.0865 68.4524L58.0796 60.8709L49.4425 81.9827L40.7093 60.8709ZM14.4795 50.794L18.8528 56.1471L21.0427 16.7596L23.2753 56.1471L27.8955 50.9839L21.0427 66.7533L14.4795 50.794ZM72.052 50.794L76.4242 56.1471L78.5995 16.7596L80.8722 56.1471L85.4749 50.794L78.5995 66.7494L72.052 50.794Z" fill="white"/>
<path d="M27.9085 62.0346C27.6511 62.0115 27.6094 63.0049 27.9085 63.0475C33.3212 63.7896 36.774 65.3639 36.7829 67.0938C36.7829 69.5718 29.8248 71.5806 21.2415 71.5806C12.6582 71.5806 5.70003 69.5718 5.7001 67.0938C5.70643 65.4438 8.84917 63.928 13.8833 63.1468C14.23 63.1207 14.2399 62.0657 13.8833 62.097C6.89333 62.9439 2.34504 64.9186 2.34375 67.1071C2.34346 70.1086 10.7713 72.5418 21.1677 72.5418C31.5641 72.5418 39.9919 70.1086 39.9916 67.1071C39.9894 64.8572 35.1851 62.8403 27.9085 62.0346Z" fill="white"/>
<path d="M60.0179 73.7272C59.5935 73.6891 59.5247 75.327 60.0179 75.3972C68.942 76.6208 74.6348 79.2165 74.6494 82.0686C74.6495 86.1542 63.1773 89.4662 49.0256 89.4662C34.874 89.4662 23.4018 86.1542 23.4019 82.0686C23.4124 79.3482 28.5939 76.8489 36.8939 75.5609C37.4656 75.518 37.4818 73.7786 36.8939 73.8301C25.3692 75.2264 17.8703 78.4823 17.8682 82.0906C17.8677 87.0392 31.763 91.0509 48.904 91.0509C66.045 91.0509 79.9403 87.0392 79.9398 82.0906C79.9361 78.381 72.015 75.0556 60.0179 73.7272Z" fill="white"/>
<path d="M85.5736 62.0346C85.3162 62.0115 85.2744 63.0049 85.5736 63.0475C90.9863 63.7896 94.4391 65.3639 94.4479 67.0938C94.448 69.5718 87.4898 71.5807 78.9065 71.5806C70.3232 71.5807 63.3651 69.5718 63.3651 67.0938C63.3718 65.4438 66.5142 63.928 71.5483 63.1468C71.8951 63.1207 71.9049 62.0657 71.5483 62.097C64.5584 62.9439 60.0101 64.9186 60.0088 67.1071C60.0085 70.1086 68.4363 72.5418 78.8327 72.5418C89.2292 72.5418 97.657 70.1086 97.6567 67.1071C97.6545 64.8572 92.8501 62.8403 85.5736 62.0346Z" fill="white"/>
</svg>
