<svg width="128" height="128" viewBox="0 0 128 128" fill="none" xmlns="http://www.w3.org/2000/svg">
<g clip-path="url(#clip0_533_2)">
<path d="M128 90.9452C127.7 74.2452 125.728 57.3577 122.493 40.3127C119.858 28.4702 110.378 17.9227 95.2301 17.1502C84.0476 16.6902 81.8851 23.0602 69.2151 22.9377C65.7451 22.9152 62.2776 22.9152 58.8076 22.9377C46.1351 23.0602 43.9676 16.6902 32.7901 17.1502C17.6401 17.9227 7.86511 28.4427 5.51761 40.3127C2.28011 57.3577 0.307607 74.2427 0.0101073 90.9427C-0.0623927 102.57 11.4176 110.305 18.9926 110.835C33.6251 111.94 45.2501 86.1377 54.1076 86.1352C60.7101 86.1727 67.3101 86.1752 73.9126 86.1352C82.7726 86.1352 94.3876 111.943 109.03 110.838C116.603 110.308 128.38 102.52 128.003 90.9452H128ZM47.7351 58.3602H40.9101V65.1852C40.9101 68.0652 38.5751 70.4002 35.6951 70.4002C32.8151 70.4002 30.4801 68.0652 30.4801 65.1852V58.3602H23.6551C20.7751 58.3602 18.4401 56.0252 18.4401 53.1452C18.4401 50.2652 20.7751 47.9302 23.6551 47.9302H30.4801V41.1052C30.4801 38.2252 32.8151 35.8902 35.6951 35.8902C38.5751 35.8902 40.9101 38.2252 40.9101 41.1052V47.9302H47.7351C50.6151 47.9302 52.9501 50.2652 52.9501 53.1452C52.9501 56.0252 50.6151 58.3602 47.7351 58.3602ZM89.8776 70.3977C85.7951 70.5077 82.4001 67.2827 82.2901 63.2027C82.1826 59.1077 85.4101 55.7077 89.4901 55.6027C93.5751 55.5002 96.9751 58.7227 97.0801 62.8077C97.1826 66.8927 93.9601 70.2927 89.8776 70.3977ZM102.19 50.6852C98.1076 50.8002 94.7051 47.5727 94.5926 43.4902C94.4901 39.4002 97.7126 36.0052 101.798 35.8927C105.888 35.7852 109.283 39.0127 109.393 43.0977C109.5 47.1802 106.27 50.5827 102.19 50.6852Z" />
</g>
<defs>
<clipPath id="clip0_533_2">
<rect width="128" height="128" />
</clipPath>
</defs>
</svg>
