<svg width="128" height="128" viewBox="0 0 128 128" fill="none" xmlns="http://www.w3.org/2000/svg">
<path d="M109.568 15.36C109.518 13.1963 108.636 11.1352 107.106 9.60479C105.575 8.07442 103.514 7.19255 101.351 7.14243L67.9682 6.40003C65.677 6.34883 63.4626 7.24483 61.837 8.85763L20.1474 50.56C18.5735 52.1359 17.6895 54.272 17.6895 56.4992C17.6895 58.7264 18.5735 60.8626 20.1474 62.4384L54.2722 96.5632C57.549 99.8528 62.8738 99.8528 66.1634 96.5632L107.853 54.8736C109.479 53.248 110.362 51.0336 110.311 48.7424L109.568 15.36ZM93.0306 31.5136C91.9554 32.6016 90.5346 33.1392 89.1138 33.1392C87.693 33.1392 86.2722 32.6016 85.197 31.5136C84.1584 30.4747 83.5749 29.0659 83.5749 27.5968C83.5749 26.1278 84.1584 24.7189 85.197 23.68C86.2387 22.6467 87.6465 22.0669 89.1138 22.0669C90.5811 22.0669 91.9889 22.6467 93.0306 23.68C94.0692 24.7189 94.6527 26.1278 94.6527 27.5968C94.6527 29.0659 94.0692 30.4747 93.0306 31.5136Z" />
<path d="M60.214 124.8C58.6891 124.804 57.1786 124.506 55.7698 123.922C54.3611 123.339 53.082 122.482 52.0066 121.4L17.887 87.2795C17.5876 86.9828 17.3498 86.63 17.1872 86.2412C17.0247 85.8525 16.9404 85.4354 16.9395 85.014C16.9385 84.5926 17.0207 84.1751 17.1815 83.7856C17.3423 83.3961 17.5785 83.0421 17.8764 82.7441C18.1743 82.4461 18.5282 82.2098 18.9177 82.0489C19.3072 81.888 19.7246 81.8057 20.146 81.8065C20.5674 81.8074 20.9845 81.8915 21.3733 82.054C21.7621 82.2165 22.115 82.4541 22.4118 82.7534L56.5327 116.877C57.517 117.86 58.8239 118.401 60.214 118.401C61.6041 118.401 62.9122 117.86 63.8953 116.877L105.589 75.1835C105.884 74.8778 106.237 74.6341 106.627 74.4663C107.018 74.2986 107.438 74.2104 107.863 74.2067C108.288 74.203 108.709 74.2839 109.102 74.4448C109.495 74.6057 109.853 74.8433 110.153 75.1438C110.454 75.4443 110.691 75.8015 110.852 76.1948C111.013 76.5881 111.094 77.0095 111.09 77.4343C111.087 77.8592 110.998 78.2791 110.831 78.6696C110.663 79.06 110.419 79.4131 110.114 79.7083L68.4214 121.4C67.3462 122.482 66.0672 123.339 64.6584 123.923C63.2495 124.506 61.7389 124.805 60.214 124.8Z" />
</svg>
