<svg width="100" height="100" viewBox="0 0 100 100" fill="none" xmlns="http://www.w3.org/2000/svg">
<path d="M33.8314 44.1968C32.9791 43.7857 32.837 42.3124 33.5896 41.6879C33.861 41.4626 34.0733 40.7596 34.0733 40.0859C34.0733 39.3188 34.2931 38.6864 34.682 38.3345C35.0167 38.0315 35.7546 36.5544 36.3216 35.0519C37.0239 33.1913 37.8326 31.7635 38.8574 30.5751L40.3622 28.8301L41.7292 30.1625C43.0778 31.477 43.0881 31.504 42.4926 32.157C42.1605 32.5211 41.655 33.2819 41.3691 33.8478C41.0833 34.4136 40.1322 35.8241 39.2556 36.9822C37.807 38.896 37.6416 39.2935 37.4393 41.3466C37.2612 43.1544 37.0961 43.6436 36.6125 43.7971C36.2802 43.9025 36.0083 44.1242 36.0083 44.2896C36.0083 44.689 34.7398 44.6349 33.8314 44.1968Z" fill="white"/>
<path d="M39.5735 84.5006C39.3917 84.2789 38.5923 83.1542 37.797 82.0012C34.3528 77.0084 34.2244 76.5156 36.1981 75.8642C36.8033 75.6645 37.2984 75.4321 37.2984 75.3477C37.2984 75.2634 36.9451 74.6745 36.5133 74.039C35.8127 73.008 35.7769 72.8103 36.1807 72.2017C36.8167 71.2432 38.7459 69.77 39.8852 69.3728C40.4136 69.1886 40.8459 68.8259 40.8459 68.5667C40.8459 68.3075 40.7108 68.1789 40.5457 68.281C39.1435 69.1476 41.0997 63.8456 43.502 60.268C47.5683 54.2125 47.6515 54.0545 47.972 51.7767C48.1412 50.5737 48.5834 48.4602 48.9547 47.08C49.5718 44.7856 49.5923 44.4025 49.1941 42.6075C48.8792 41.1878 48.5785 40.5731 48.1079 40.3869C47.6595 40.2095 47.357 40.2823 47.1348 40.6212C45.8619 42.5621 45.6892 42.6751 44.7426 42.1856C43.3675 41.4746 41.7263 39.4616 42.0074 38.831C42.1372 38.54 42.2257 37.9104 42.204 37.4321C42.1754 36.7991 42.3582 36.501 42.8759 36.3368C43.2671 36.2127 44.6493 35.3259 45.9474 34.366C48.9064 32.178 49.044 32.1296 49.7162 33.0395L50.2682 33.7867L50.061 32.8192C49.7507 31.3702 49.189 30.078 48.8694 30.078C48.7136 30.078 48.586 30.217 48.586 30.3869C48.586 30.5568 47.9407 31.074 47.152 31.5362C45.3683 32.5815 45.1502 32.4817 42.3945 29.3603C38.1104 24.5076 37.1465 23.0345 36.7879 20.7922C36.3114 17.8122 38.0571 15.8099 41.4379 15.459C43.0716 15.2894 45.1889 14.643 45.9569 14.0795C46.2048 13.8976 44.2013 11.6952 43.7879 11.6952C43.1334 11.6952 43.5681 9.44832 44.6068 7.4618C45.0713 6.57342 45.5455 5.38468 45.6604 4.82018C45.8497 3.89099 46.0057 3.77605 47.3084 3.6062C48.0998 3.50308 49.1247 3.23561 49.586 3.01199C50.3184 2.65697 50.6252 2.70702 52.0048 3.40662C52.8738 3.84729 53.8205 4.47752 54.1084 4.8071C54.6866 5.46893 55.2151 9.21236 54.8196 9.84491C54.6824 10.0644 54.5572 10.9846 54.5413 11.8898L54.5124 13.5358L56.4419 12.7517C58.1339 12.0642 58.47 12.0204 59.1718 12.3958C60.9518 13.348 66.7395 12.6032 67.1304 11.3717C67.3511 10.6765 65.6024 7.82513 64.9553 7.82513C64.3513 7.82513 62.7763 6.1405 62.7763 5.4944C62.7763 5.16577 63.0695 4.32216 63.4278 3.61971C63.8932 2.70747 64.2849 2.34289 64.7985 2.34375C65.9464 2.34619 67.5741 3.51714 67.8076 4.50945C67.9236 5.00274 68.8495 6.56735 69.8649 7.98638C72.2616 11.3357 72.4514 11.7247 72.4514 13.2865C72.4514 14.2335 72.3178 14.5977 71.9706 14.5977C71.7061 14.5977 69.4204 15.4165 66.8911 16.4172C64.3619 17.4179 61.6394 18.4128 60.8412 18.6281C59.0982 19.0982 58.797 19.983 59.8809 21.449C60.9661 22.9168 61.0707 24.6634 60.1865 26.5511L59.4412 28.1424L60.2873 32.2546C60.8355 34.919 61.0673 36.8466 60.9459 37.7297C60.7777 38.9526 60.8372 39.122 61.5255 39.3791C62.8143 39.8606 68.2455 40.7669 68.585 40.5571C68.7604 40.4488 68.9039 40.0235 68.9039 39.6123C68.9039 38.5827 69.6102 38.0294 70.261 38.5491C70.9842 39.1266 71.8064 41.875 71.8064 43.7147C71.8064 45.8424 71.0086 48.7998 69.8479 50.975C68.9513 52.6552 68.9094 52.9001 69.1088 55.2919C69.2705 57.2306 69.2055 58.0726 68.8327 58.8686C67.8319 61.0053 67.2094 63.181 67.1703 64.6783C67.0816 68.0818 64.7133 67.4412 61.875 63.246C59.2004 59.2927 59.3061 59.5671 60.1229 58.6976C60.7677 58.0113 60.7922 57.8718 60.367 57.3096C59.6566 56.3704 59.7582 55.9717 61.1281 54.3237C61.818 53.4936 62.4843 52.477 62.6089 52.0644C62.7334 51.6519 63.335 50.2177 63.9458 48.8775C64.5565 47.5372 65.0123 46.3967 64.9586 46.343C64.9048 46.2892 63.4921 46.2152 61.8191 46.1784L58.7773 46.1116L58.1629 47.5281C57.3383 49.4294 55.6837 53.4396 55.6823 53.5402C55.6816 53.5846 55.8989 53.6209 56.1649 53.6209C56.431 53.6209 56.6487 53.7134 56.6487 53.8267C56.6487 53.9398 55.817 55.1875 54.8004 56.5994C53.5821 58.2914 52.5321 59.3807 51.7197 59.7951C50.7626 60.2834 50.5309 60.5613 50.6825 61.039C50.7899 61.3773 50.6504 62.001 50.3727 62.4249C50.0949 62.8489 49.4254 64.4074 48.8849 65.8885C47.9345 68.4928 47.9095 68.6999 48.1246 72.1925C48.3399 75.689 48.3251 75.8107 47.6602 76.0217C47.09 76.2027 46.9723 76.4957 46.9665 77.7499C46.9579 79.5809 46.1308 81.5044 44.7647 82.8706C44.2058 83.4295 43.7485 84.1156 43.7485 84.3953C43.7485 84.8015 43.3616 84.9039 41.8262 84.9039C40.6796 84.9039 39.7705 84.7411 39.5735 84.5006Z" fill="white"/>
<path d="M41.3299 89.2324C32.3843 88.5899 29.523 88.312 26.3334 87.7759C17.9209 86.3621 14.9151 84.7596 16.1601 82.352C16.7499 81.2115 18.1363 80.5497 21.9765 79.5755C24.8996 78.834 31.6626 77.8707 31.9472 78.1552C32.0235 78.2317 32.1757 78.6567 32.2853 79.0998C32.4814 79.893 32.4313 79.9157 29.0058 80.583C25.2085 81.3228 22.1408 82.4755 22.1408 83.1627C22.1408 84.378 26.1751 85.6765 32.6876 86.5573C38.9781 87.408 55.1097 87.7564 61.9264 87.1886C67.2813 86.7427 72.7244 85.7866 75.2387 84.8504C78.588 83.6032 78.7672 83.0047 76.0909 82.0033C71.4733 80.2757 66.8186 79.5985 56.3966 79.1381C52.9764 78.9871 50.0869 78.7722 49.9754 78.6607C49.8639 78.5492 50.0362 78.1669 50.3582 77.8111C50.8808 77.2336 51.3495 77.1641 54.717 77.1641C62.002 77.1641 72.8921 78.3046 78.0954 79.6126C83.2335 80.9041 85.0668 82.3631 83.8622 84.2017C82.6512 86.0498 76.3194 87.7065 66.969 88.6216C62.0331 89.1046 45.1505 89.5069 41.3299 89.2324Z" fill="white"/>
<path d="M36.331 97.4628C23.7011 96.4627 18.1891 95.6451 13.3414 94.0527C7.65302 92.1843 7.3523 89.5245 12.6135 87.6148C15.235 86.6632 15.6339 86.6573 17.6825 87.5385L19.3102 88.2387L18.0648 88.8669C16.5781 89.6169 15.6899 90.3553 15.6929 90.839C15.6941 91.0332 16.1928 91.531 16.801 91.9451C24.3144 97.0613 65.8657 97.9043 80.0849 93.229C83.4464 92.1238 84.7812 91.0927 84.0284 90.1828C83.7807 89.8833 82.888 89.3182 82.0447 88.927L80.5115 88.2157L82.4003 87.527C83.4392 87.1482 84.5645 86.8425 84.9011 86.8477C85.7636 86.861 89.7211 88.5053 90.5041 89.1757C91.3783 89.9242 91.3435 91.3887 90.4312 92.243C88.1 94.426 79.196 96.2942 66.969 97.1659C60.2858 97.6424 40.9631 97.8296 36.331 97.4628Z" fill="white" fill-opacity="0.501961"/>
</svg>
