<svg width="100" height="100" viewBox="0 0 100 100" fill="none" xmlns="http://www.w3.org/2000/svg">
<path d="M11.2267 56.3574L22.2222 74.0559L11.1729 76.0379L22.0763 80.2277C17.2193 82.1267 14.5757 84.4768 14.573 86.8981C14.5732 92.8394 30.1469 97.6558 49.3581 97.6559C68.5695 97.6559 84.1434 92.8395 84.1436 86.8981C84.1202 84.5126 81.5338 82.1973 76.7912 80.3161L88.8271 76.0379L77.6977 74.1768L88.8271 56.3574L75.1979 68.6461L69.0211 80.7869C75.2715 82.3566 78.8473 84.5942 78.8596 86.9436C78.8597 91.5225 65.5867 95.2346 49.2137 95.2346C32.8406 95.2346 19.5677 91.5225 19.5677 86.9436C19.5717 84.3899 23.7833 81.9792 30.9841 80.4089L24.8555 68.6461L11.2267 56.3574Z" fill="white" fill-opacity="0.501961"/>
<path d="M50.068 2.34375L30.5703 41.4222L42.3749 29.5144L45.2913 61.335H54.96L57.8829 29.5145L69.3587 41.4222L50.068 2.34375ZM45.8497 67.1042L46.6572 81.3866C38.9517 81.8819 33.4371 83.9431 33.428 86.3313C33.4284 89.126 40.9008 91.3915 50.1184 91.3915C59.3362 91.3916 66.8089 89.126 66.8093 86.3313C66.8083 83.9183 61.1882 81.8412 53.3833 81.3692L54.2734 67.1042H45.8497Z" fill="white"/>
<path d="M57.3673 50.46L57.0894 51.4845C60.2948 51.9336 63.0387 52.7014 64.9711 53.6899C66.9035 54.6784 67.9367 55.8428 67.9386 57.0345C67.9387 57.8218 67.4884 58.6015 66.6134 59.3289C65.7384 60.0563 64.456 60.7172 62.8392 61.274C61.2225 61.8307 59.3031 62.2723 57.1908 62.5736C55.0784 62.8749 52.8143 63.03 50.5279 63.03C48.2415 63.03 45.9775 62.8749 43.8651 62.5736C41.7528 62.2723 39.8335 61.8307 38.2168 61.2739C36.6001 60.7172 35.3177 60.0562 34.4427 59.3288C33.5678 58.6014 33.1175 57.8218 33.1175 57.0345C33.1206 55.906 34.0484 54.8007 35.7943 53.8458C37.5403 52.8908 40.0334 52.1249 42.9871 51.6361L42.7422 50.5451C39.3133 51.1332 36.3922 52.1077 34.3395 53.3485C32.2867 54.5893 31.1922 56.0419 31.1909 57.5273C31.1911 59.5446 33.2059 61.4792 36.7921 62.9056C40.3783 64.3321 45.2421 65.1334 50.3137 65.1334C55.3853 65.1334 60.2491 64.3321 63.8353 62.9056C67.4215 61.4792 69.4363 59.5446 69.4365 57.5273C69.4351 56.004 68.2839 54.516 66.1321 53.2559C63.9802 51.9959 60.9268 51.0218 57.3673 50.46Z" fill="white"/>
</svg>
