<svg width="100" height="100" viewBox="0 0 100 100" fill="none" xmlns="http://www.w3.org/2000/svg">
<path d="M31.082 9.47461L25.2287 11.7405L25.0711 19.1178L74.4143 19.1617V11.7405L68.6838 9.50017L31.082 9.47461ZM43.6649 20.1169V35.5022C43.6411 36.7311 43.6503 36.7151 44.6415 36.7581H55.328C56.2839 36.7666 56.3117 36.7685 56.3322 35.5022V20.1169H43.6649ZM43.5793 37.5805V41.6493L44.9291 43.1206L45.6633 45.5319H53.7951L54.7118 43.1206L56.3322 41.6493V37.5805H43.5793ZM38.5065 51.3989C36.8653 51.3988 35.5348 52.7652 35.5349 54.4506C35.535 55.3817 35.9489 56.2618 36.6591 56.8406L34.8222 61.6104L33.6656 61.8365L30.7543 69.3348L34.8341 70.9355L37.3197 63.3031L36.6152 62.2688L38.2235 57.4852C38.3175 57.4955 38.412 57.5011 38.5065 57.502C40.1474 57.5019 41.4777 56.1358 41.4778 54.4506C41.4779 52.7653 40.1476 51.399 38.5065 51.3989ZM38.4905 52.9141C39.2197 52.9141 39.8108 53.5052 39.8108 54.2344C39.8108 54.9635 39.2197 55.5547 38.4905 55.5546C37.7613 55.5547 37.1702 54.9635 37.1702 54.2344C37.1702 53.5052 37.7613 52.914 38.4905 52.9141ZM47.2353 53.9528L46.4445 56.4087H53.0619L52.5694 53.9528H47.2353ZM53.0619 57.4921L46.4445 57.5005C45.6422 57.5081 45.6402 57.5107 45.6259 58.8898V70.052H54.085V58.8891C54.0711 57.494 54.0715 57.493 53.0619 57.4921ZM55.1115 63.7764L55.0402 66.6417L62.7646 67.5969L61.6099 64.6626L55.1115 63.7764ZM44.6203 64.0278L38.2403 64.7995L37.2 67.5969L44.6711 66.6417L44.6203 64.0278ZM30.8714 65.5903L23.9893 66.494L29.6984 68.7733L30.8714 65.5903ZM69.0493 65.6537L70.4085 68.6905L75.9146 66.4368L69.0493 65.6537ZM78.6024 67.3748C78.4945 67.3721 78.3748 67.3852 78.2343 67.4069C77.1342 67.5764 67.0017 71.294 66.1894 71.8262C65.4785 72.292 65.3645 72.8658 65.8869 73.3468C66.0745 73.5194 68.7452 74.6794 71.8218 75.9247C74.8984 77.17 77.7225 78.2007 78.0977 78.2151C78.8422 78.2436 84.2897 76.1781 84.8688 75.6478C85.1585 75.3825 84.8336 74.8605 83.1717 72.9206C82.0413 71.6012 80.6523 69.7924 80.0848 68.9011C79.3172 67.6955 79.0701 67.3865 78.6024 67.3748ZM21.5342 67.4866C20.6356 67.4641 20.2242 67.996 19.3453 69.1376L14.5186 75.2842L21.2591 78.2143C21.899 78.2404 33.2217 73.8342 33.6722 73.3838C33.8188 73.2371 33.8975 72.8315 33.8472 72.4823C33.7495 71.8029 33.3339 71.615 25.7063 68.8038C23.499 67.9584 22.327 67.5065 21.5342 67.4866ZM35.2911 71.1441C35.1393 76.0369 32.7452 76.0799 30.0722 77.0085L69.3659 77.0138C66.579 76.0621 63.9325 75.7471 64.4022 71.1442L35.2911 71.1441ZM71.8103 78.2387C71.3895 78.2387 71.1902 79.5802 71.5471 80.0103C71.7297 80.2302 73.4139 81.6449 75.2901 83.154C79.0545 86.1819 78.9605 86.1555 81.0236 84.7424C82.2965 83.8706 83.8282 81.8424 83.8282 81.0288C83.8282 80.7414 83.5749 80.2773 83.2655 79.9973C82.7147 79.4988 82.6591 79.5035 80.6051 80.2304C79.4513 80.6387 78.3229 80.9717 78.0977 80.9697C77.8726 80.9679 76.4223 80.3526 74.8747 79.6025C73.3271 78.8524 71.9483 78.2387 71.8103 78.2387ZM27.5805 78.3261C27.2126 78.3309 26.5168 78.6673 24.7675 79.535C23.179 80.3229 21.6329 80.9674 21.3316 80.9674C21.0303 80.9674 20.0283 80.6605 19.105 80.2853C17.0823 79.4634 16.8525 79.452 16.1661 80.1384C15.7174 80.5872 15.6771 80.8053 15.9155 81.4892C16.3356 82.6943 18.1672 84.6458 19.4952 85.3032C20.1349 85.6198 20.7369 85.8787 20.8334 85.8788C21.2141 85.8792 28.4349 79.8227 28.4349 79.5029C28.4349 79.3152 28.2598 78.9233 28.0455 78.632C27.9039 78.4395 27.8012 78.3231 27.5805 78.3261ZM29.0609 78.5988L29.3291 79.715C29.655 81.0707 30.0185 81.3913 31.497 81.6277C33.0097 81.8696 33.3468 82.1982 33.3468 83.4313V84.6512H38.7495L42.0382 87.7896H57.6731L60.9617 84.6512H66.3645V83.4313C66.3645 82.1982 66.7015 81.87 68.2142 81.6281C69.728 81.386 70.1007 81.0462 70.3127 79.7162L70.4905 78.6007L29.0609 78.5988ZM17.573 80.9674C18.2532 80.9674 21.0676 83.71 21.0676 84.3728C21.0676 85.2409 19.872 84.7668 18.4336 83.3283C16.8718 81.7665 16.5806 80.9674 17.573 80.9674ZM82.2916 80.9674C83.1199 80.9674 82.7433 81.815 81.2536 83.3046C79.8687 84.6895 78.6436 85.2325 78.6436 84.4613C78.6436 83.4078 81.1917 80.9674 82.2916 80.9674ZM28.454 82.5455L25.6475 84.8484C21.7109 88.0785 21.5788 88.1538 20.413 87.8319C19.4906 87.5671 18.6102 86.992 17.8171 86.4052C17.3188 87.3689 16.5408 89.0989 17.3124 89.3307L22.3669 90.411C23.2742 90.6001 23.4656 90.5682 24.1228 90.2165C24.4328 90.0506 26.3278 88.6919 28.3342 87.1972C32.8175 83.8572 33.0156 83.2296 29.7407 82.7385L28.454 82.5455ZM70.8593 82.6046C70.6531 82.6046 69.8643 82.7378 69.1065 82.9003C67.9188 83.155 67.7286 83.2854 67.7286 83.8467C67.7286 84.3591 68.4201 85.02 70.9734 86.9481C72.7579 88.2956 74.6303 89.6527 75.1345 89.964C75.6387 90.2752 76.2969 90.4741 76.597 90.4061C76.8972 90.338 78.1866 90.1355 79.4622 89.9559C80.7379 89.7764 81.9965 89.518 82.2592 89.3818C82.844 89.0787 82.8702 88.2931 82.3301 87.2487L81.9231 86.4617L80.3419 87.2773C78.3362 88.3117 78.2206 88.27 74.2838 85.0777C72.6065 83.7176 71.0656 82.6046 70.8593 82.6046Z" fill="white"/>
<path d="M75.915 34.6178L68.7827 48.1587L75.9839 61.2863L85.2524 62.5267L77.6033 48.1243L85.5625 33.4463L75.915 34.6178Z" fill="white" fill-opacity="0.5"/>
<path d="M87.6987 33.0673L95.1411 32.1025L86.5273 48.1588L94.831 63.5603L87.4575 62.8023L79.7051 48.1243L87.6987 33.0673Z" fill="white" fill-opacity="0.5"/>
<path d="M97.6565 31.5518L88.5259 48.0557L97.5187 64.2498L97.6565 57.0142L92.695 48.2625L97.6565 38.9247V31.5518Z" fill="white" fill-opacity="0.5"/>
<path d="M24.085 34.5172L31.2173 48.0582L24.0161 61.1857L14.7476 62.4261L22.3967 48.0237L14.4375 33.3457L24.085 34.5172Z" fill="white" fill-opacity="0.5"/>
<path d="M12.3013 32.9667L4.85889 32.002L13.4727 48.0582L5.16898 63.4598L12.5425 62.7017L20.2949 48.0237L12.3013 32.9667Z" fill="white" fill-opacity="0.5"/>
<path d="M2.34347 31.4512L11.4741 47.9552L2.48126 64.1492L2.34347 56.9136L7.30502 48.1619L2.34347 38.8242V31.4512Z" fill="white" fill-opacity="0.5"/>
<path d="M60.9757 51.3984C62.6169 51.3983 63.9474 52.7647 63.9473 54.4502C63.9472 55.3812 63.5332 56.2613 62.8231 56.8401L64.66 61.6099L65.8166 61.836L68.7279 69.3344L64.6481 70.935L62.1625 63.3026L62.867 62.2683L61.2587 57.4848C61.1647 57.4951 61.0702 57.5006 60.9757 57.5016C59.3347 57.5015 58.0045 56.1354 58.0044 54.4502C58.0043 52.7649 59.3346 51.3985 60.9757 51.3984ZM60.9917 52.9136C60.2625 52.9136 59.6714 53.5047 59.6714 54.2339C59.6714 54.9631 60.2625 55.5542 60.9917 55.5542C61.7209 55.5542 62.312 54.9631 62.3119 54.2339C62.312 53.5047 61.7209 52.9136 60.9917 52.9136Z" fill="white"/>
<path d="M57.0681 47.5264H42.7549C41.6697 47.5264 40.79 48.4061 40.79 49.4912C40.79 50.5764 41.6697 51.456 42.7549 51.456H57.0681C58.1532 51.456 59.0329 50.5764 59.0329 49.4912C59.0329 48.4061 58.1532 47.5264 57.0681 47.5264Z" fill="white"/>
<path d="M60.9757 46.5033C62.6169 46.5034 63.9474 45.137 63.9473 43.4515C63.9472 42.5205 63.5332 41.6404 62.8231 41.0616L64.66 36.2918L65.8166 36.0657L71.6086 21.8223H67.065L62.1625 34.5991L62.867 35.6334L61.2587 40.4169C61.1647 40.4066 61.0702 40.4011 60.9757 40.4001C59.3347 40.4002 58.0045 41.7663 58.0044 43.4515C58.0043 45.1368 59.3346 46.5032 60.9757 46.5033ZM61.0262 44.7464C60.297 44.7464 59.7059 44.1553 59.7059 43.4261C59.7059 42.6969 60.297 42.1058 61.0262 42.1058C61.7554 42.1058 62.3465 42.6969 62.3465 43.4261C62.3465 44.1553 61.7554 44.7464 61.0262 44.7464Z" fill="white"/>
<path d="M38.9098 46.5033C37.2686 46.5034 35.9381 45.137 35.9382 43.4515C35.9383 42.5205 36.3523 41.6404 37.0624 41.0616L35.2255 36.2918L34.0689 36.0657L28.2769 21.8223H32.8205L37.723 34.5991L37.0185 35.6334L38.6268 40.4169C38.7208 40.4066 38.8153 40.4011 38.9098 40.4001C40.5508 40.4002 41.881 41.7663 41.8811 43.4515C41.8812 45.1368 40.5509 46.5032 38.9098 46.5033ZM38.8593 44.7464C39.5885 44.7464 40.1796 44.1553 40.1796 43.4261C40.1796 42.6969 39.5885 42.1058 38.8593 42.1058C38.1301 42.1058 37.539 42.6969 37.539 43.4261C37.539 44.1553 38.1301 44.7464 38.8593 44.7464Z" fill="white"/>
<path d="M33.8931 19.7871H25.9102C25.5326 19.7871 25.2266 20.0932 25.2266 20.4707C25.2266 20.8482 25.5326 21.1543 25.9102 21.1543H33.8931C34.2707 21.1543 34.5767 20.8482 34.5767 20.4707C34.5767 20.0932 34.2707 19.7871 33.8931 19.7871Z" fill="white"/>
<path d="M73.7178 19.7871H65.7349C65.3573 19.7871 65.0513 20.0932 65.0513 20.4707C65.0513 20.8482 65.3573 21.1543 65.7349 21.1543H73.7178C74.0954 21.1543 74.4014 20.8482 74.4014 20.4707C74.4014 20.0932 74.0954 19.7871 73.7178 19.7871Z" fill="white"/>
</svg>
