<svg width="100" height="100" viewBox="0 0 100 100" fill="none" xmlns="http://www.w3.org/2000/svg">
<path d="M49.2014 10.2964C49.1298 10.0063 49.1006 8.17853 49.1364 6.23465L49.2017 2.70034L49.9481 2.62849L50.6944 2.55664L50.6321 6.61884L50.5698 10.681L49.9507 10.7524C49.463 10.8087 49.304 10.7118 49.2014 10.2964Z" fill="white"/>
<path d="M51.4251 18.3867C50.9303 18.2914 50.9121 18.1993 50.9121 15.7861V13.2842L52.6793 13.4359C53.6512 13.5193 54.5181 13.6518 54.6057 13.7304C54.6934 13.809 54.5961 14.925 54.3896 16.2105L54.0141 18.5477L52.9761 18.5166C52.4053 18.4995 51.7073 18.4411 51.4251 18.3867Z" fill="white"/>
<path d="M46.1014 18.4909C45.8863 17.9376 45.3466 13.7029 45.4806 13.6201C45.583 13.5568 46.3853 13.4448 47.2634 13.3711L48.8599 13.2373V15.752C48.8599 18.1671 48.8395 18.2721 48.3468 18.4042C47.8457 18.5385 46.1455 18.6041 46.1014 18.4909Z" fill="white"/>
<path d="M40.1723 17.178C39.7691 15.9228 39.5038 14.8312 39.5828 14.7522C39.8247 14.5103 43.0358 13.8033 43.1932 13.9573C43.4266 14.1857 44.0679 18.6453 43.8898 18.8016C43.6978 18.9701 41.7314 19.4602 41.2474 19.4602C41.015 19.4602 40.6704 18.7289 40.1723 17.178Z" fill="white"/>
<path d="M57.1825 19.2946C56.5555 19.1061 56.0273 18.9378 56.0089 18.9206C55.9403 18.8565 56.7747 14.2047 56.8723 14.107C56.9577 14.0217 59.0725 14.4835 59.9567 14.7806C60.2488 14.8788 58.8537 19.5306 58.5116 19.5993C58.4077 19.6202 57.8096 19.4831 57.1825 19.2946Z" fill="white"/>
<path d="M36.3579 20.9809C36.0474 20.595 34.2666 16.9994 34.2666 16.7584C34.2666 16.5443 36.8397 15.3554 37.3029 15.3555C37.5355 15.3555 39.1979 20.1152 39.0099 20.2428C38.972 20.2686 38.4082 20.5052 37.7569 20.7688C36.87 21.1276 36.5188 21.1809 36.3579 20.9809Z" fill="white"/>
<path d="M30.5499 21.951C29.8225 20.9449 29.1716 19.9762 29.1034 19.7984C29.0211 19.5841 29.4666 19.1661 30.4259 18.5575C31.2215 18.0528 31.9997 17.6389 32.1552 17.6377C32.3973 17.6359 34.5886 21.5553 34.6034 22.0168C34.6074 22.1403 32.049 23.8158 31.9018 23.7862C31.8856 23.7829 31.2773 22.9571 30.5499 21.951Z" fill="white"/>
<path d="M26.3018 24.8346L24.4243 22.9473L25.7542 21.8895C26.4857 21.3078 27.1541 20.831 27.2396 20.8301C27.4355 20.8279 30.1624 24.5905 30.1624 24.863C30.1624 24.9736 29.7162 25.4372 29.1708 25.893L28.1793 26.7219L26.3018 24.8346Z" fill="white"/>
<path d="M88.7637 50.0141V49.3301H93.2101H97.6565V50.0141V50.6982H93.2101H88.7637V50.0141Z" fill="white"/>
<path d="M2.34375 50.1334V49.3301H6.46257H10.5814L10.5099 50.0711L10.4385 50.8122L6.39111 50.8744L2.34375 50.9367L2.34375 50.1334Z" fill="white"/>
<path d="M44.7027 60.0347L44.6415 54.778L39.3298 54.7332L34.018 54.6885L34.0178 50.1281L34.0176 45.5677L39.3865 45.5066L44.7555 45.4455V39.9771V34.5088H49.5439H54.3324V39.9813V45.4538H59.9236H65.5148L65.4531 50.0712L65.3914 54.6886L59.9189 54.7335L54.4464 54.7784L54.3852 60.0349L54.324 65.2915H49.544H44.764L44.7027 60.0347Z" fill="white"/>
<path d="M29.0271 65.484C21.2546 55.0643 22.2851 40.9952 31.4898 31.863C35.1957 28.1864 40.0817 25.656 45.1404 24.7937C48.0615 24.2958 53.2131 24.455 55.7233 25.1207C58.194 25.776 60.9508 26.9079 62.7232 27.9949C64.1833 28.8904 64.2544 28.975 64.3214 29.8965C64.3599 30.427 64.3197 30.8609 64.231 30.8609C64.1427 30.8609 63.5151 30.4923 62.8364 30.0418C60.939 28.7824 58.0848 27.5278 55.5785 26.8515C53.5426 26.3022 52.915 26.2385 49.544 26.2399C45.4357 26.2415 44.1461 26.4747 40.5282 27.8699C35.7923 29.6963 31.2309 33.6544 28.6726 38.1576C24.0553 46.2851 24.6404 56.8292 30.1177 64.1994C30.881 65.2264 30.9983 65.5333 30.9055 66.2611C30.8455 66.7314 30.6723 67.1162 30.5205 67.1162C30.3688 67.1162 29.6967 66.3817 29.0271 65.484Z" fill="white" fill-opacity="0.501961"/>
<path d="M74.7928 73.7812C73.9488 72.9306 73.2583 72.101 73.2583 71.9375C73.2583 71.7739 73.7602 71.0583 74.3737 70.347C81.2233 62.4059 83.4137 50.3485 79.8969 39.9443C78.6051 36.1226 75.9398 31.6299 73.2033 28.661L72.2651 27.6432L69.9189 29.9814C68.6285 31.2674 67.5119 32.2588 67.4375 32.1844C67.3631 32.11 66.9604 29.2934 66.5425 25.9254C65.4465 17.0916 65.4553 17.1791 65.6602 17.1819C66.4436 17.1926 80.4071 19.0077 80.5119 19.1125C80.5857 19.1863 79.5462 20.3499 78.202 21.6984L75.7579 24.1501L76.5827 24.9401C79.323 27.5648 82.9485 33.5717 84.5078 38.071C86.0296 42.462 86.3711 44.7093 86.3572 50.2423C86.346 54.691 86.2894 55.3874 85.7459 57.7669C84.3993 63.6625 81.8026 69.0097 78.1609 73.3863C77.326 74.3896 76.572 75.2368 76.4852 75.269C76.3984 75.3012 75.6368 74.6317 74.7928 73.7812Z" fill="white"/>
<path d="M46.3551 75.5237C43.1887 75.1571 38.951 73.6843 36.3758 72.0553C35.5382 71.5255 35.4067 71.3345 35.4067 70.6471C35.4067 70.2097 35.5177 69.8519 35.6534 69.8519C35.7891 69.8519 36.4817 70.1891 37.1925 70.6012C39.0894 71.701 41.4188 72.6763 43.6155 73.2906C45.3137 73.7655 46.0476 73.8332 49.544 73.8374C53.2481 73.8417 53.6979 73.7958 55.8146 73.1949C62.5499 71.2826 68.1226 66.794 71.1471 60.8451C72.5242 58.1365 73.7142 53.1902 73.7142 50.1744C73.7142 45.5607 71.9448 39.9724 69.3064 36.2528C68.4582 35.057 68.3272 34.725 68.4158 33.9957C68.4729 33.5254 68.6366 33.1411 68.7797 33.1416C69.1929 33.1433 71.4511 36.3532 72.5816 38.5462C74.427 42.1259 75.3103 45.8902 75.3103 50.1745C75.3103 63.0788 65.3743 74.0935 52.432 75.5367C49.971 75.8111 48.8166 75.8086 46.3551 75.5237Z" fill="white" fill-opacity="0.501961"/>
<path d="M70.9039 77.1657C70.1922 76.1717 69.6099 75.3009 69.6099 75.2306C69.6099 75.0096 71.3082 73.5133 71.5664 73.5069C71.9038 73.4982 74.7403 76.3975 74.7403 76.7509C74.7403 77.073 72.7542 78.9732 72.4175 78.9732C72.2968 78.9732 71.6156 78.1598 70.9039 77.1657Z" fill="white"/>
<path d="M67.0767 81.8867C66.9251 81.601 66.4582 80.7304 66.0392 79.9519C65.6202 79.1735 65.2773 78.4022 65.2773 78.238C65.2773 77.9917 67.4931 76.4648 67.8506 76.4648C67.9507 76.4648 70.2404 79.4459 70.593 80.0353C70.7269 80.2593 69.6985 81.0253 67.626 82.2451C67.4636 82.3407 67.2404 82.195 67.0767 81.8867Z" fill="white"/>
<path d="M26.5138 81.8086C23.1904 81.3868 20.1346 81.038 19.7231 81.0335C18.3655 81.0187 18.5951 80.4835 20.9072 78.2732C22.1097 77.1236 23.0935 76.0826 23.0935 75.9599C23.0935 75.8372 22.467 75.0541 21.7014 74.2197C17.7309 69.8929 14.5229 63.3731 13.239 57.0211C12.4837 53.2839 12.488 46.6598 13.2483 43.06C14.6278 36.5281 17.6193 30.5076 21.8772 25.6939L23.0551 24.3623L24.7844 26.0667C25.7356 27.0042 26.5138 27.9126 26.5138 28.0854C26.5138 28.2583 26.0384 28.9278 25.4573 29.5733C21.605 33.8525 18.9034 39.9698 18.0625 46.3175C17.7292 48.834 17.9039 53.8767 18.4114 56.3848C19.5067 61.7977 22.5829 67.9121 26.0207 71.509L26.8413 72.3677L29.2922 69.9243C30.6402 68.5805 31.7828 67.5272 31.8313 67.5836C31.9149 67.6808 32.8517 74.8859 33.3567 79.3152C33.4854 80.4439 33.6483 81.6496 33.7187 81.9944C33.8794 82.7818 34.2582 82.7916 26.5138 81.8086Z" fill="white"/>
<path d="M62.1148 84.2688C62 84.0523 61.6455 83.0243 61.3271 81.9843L60.748 80.0934L62.027 79.5278C63.0278 79.0852 63.3492 79.0253 63.5051 79.2525C63.658 79.4753 64.9401 82.0105 65.4602 83.1187C65.5494 83.3088 65.0233 83.5984 63.4918 84.202C62.3952 84.6343 62.3107 84.6384 62.1148 84.2688Z" fill="white"/>
<path d="M56.3838 86.1027C56.3834 86.0062 56.2266 84.9639 56.0357 83.7863C55.8447 82.6087 55.727 81.6067 55.774 81.5596C55.8762 81.4574 58.3731 80.7969 58.6573 80.7969C58.888 80.7969 60.3646 85.1018 60.1928 85.2735C60.0888 85.3775 58.6928 85.7561 57.0118 86.1362C56.6669 86.2142 56.3843 86.1991 56.3838 86.1027Z" fill="white"/>
<path d="M40.993 85.8882C40.2405 85.7078 39.5517 85.4876 39.4624 85.3989C39.306 85.2436 40.5399 81.3108 40.8504 80.9748C40.9848 80.8294 43.3004 81.3182 43.5206 81.5384C43.6958 81.7136 42.8091 86.1205 42.5891 86.1675C42.4637 86.1943 41.7455 86.0686 40.993 85.8882Z" fill="white"/>
<path d="M50.9121 84.4704V81.9378H52.2649C53.8133 81.9378 53.7113 81.7944 54.1108 84.534C54.4156 86.6242 54.3555 86.7173 52.6979 86.7227C52.1125 86.7245 51.4712 86.7885 51.2728 86.8646C50.9572 86.9857 50.9121 86.6862 50.9121 84.4704Z" fill="white"/>
<path d="M46.4656 86.7878C45.7132 86.7399 45.0309 86.6293 44.9494 86.5422C44.8678 86.455 44.9739 85.3576 45.185 84.1035L45.5688 81.8232L47.0433 81.9021C47.8543 81.9455 48.5987 82.0571 48.6976 82.1502C48.7964 82.2433 48.8477 83.3366 48.8116 84.5796C48.7372 87.1393 48.9428 86.9457 46.4656 86.7878Z" fill="white"/>
<path d="M49.1395 93.3953L49.2017 89.348L49.9427 89.2765L50.6838 89.2051V93.3239V97.4427H49.8805H49.0771L49.1395 93.3953Z" fill="white"/>
</svg>
