<svg width="100" height="100" viewBox="0 0 100 100" fill="none" xmlns="http://www.w3.org/2000/svg">
<path d="M79.1255 88.6112L70.1791 79.5662L69.3379 79.8594C68.098 80.2917 66.6246 80.2136 65.8071 79.6723C65.411 79.41 64.4539 78.5309 63.6802 77.7188L62.2735 76.2421L61.5287 76.892C61.119 77.2495 60.2555 78.037 59.6096 78.6422L58.4354 79.7424L51.0053 72.2214C46.9187 68.0848 40.6181 61.685 37.0039 57.9997C33.3897 54.3144 27.3543 48.1799 23.592 44.3674L16.7514 37.4358L19.6818 34.6584L22.6122 31.8811L19.3399 28.485C17.5402 26.6172 16.0677 25.0122 16.0677 24.9182C16.0677 24.8242 16.6303 24.1987 17.3179 23.5281L18.5681 22.3088L21.9378 25.8642L25.3075 29.4196L28.2133 26.5951C29.8116 25.0416 31.2094 23.8109 31.3196 23.8601C31.4299 23.9095 34.2856 26.7804 37.6657 30.2401C41.0458 33.6998 47.0168 39.7919 50.9345 43.778C67.2607 60.3894 72.6808 65.9485 72.6808 66.082C72.6808 66.1597 71.8743 66.9777 70.8885 67.8998L69.0962 69.5764L70.4199 70.9673C71.148 71.7322 71.9677 72.6285 72.2416 72.9591C72.8544 73.6987 73.0272 75.7584 72.553 76.6722C72.2116 77.3304 72.4746 77.6277 81.8768 87.2137C87.1981 92.639 91.5519 97.208 91.5519 97.3671C91.5519 97.54 90.8524 97.6563 89.8119 97.6563H88.0719L79.1255 88.6112ZM63.7608 70.9657C66.5609 68.3196 68.8519 66.071 68.8519 65.9688C68.8519 65.8665 67.7463 64.6824 66.3951 63.3374L63.9382 60.8919L62.908 61.8355C62.3414 62.3545 61.3171 63.3063 60.6318 63.9506L59.3859 65.1221L58.7424 64.4371L58.0989 63.7521L60.3336 61.628L62.5684 59.5039L61.7172 58.5802L60.8661 57.6565L58.7677 59.7426C57.6136 60.8899 56.5373 61.8286 56.3759 61.8286C56.2145 61.8286 55.8555 61.5777 55.578 61.2711C55.0806 60.7215 55.1052 60.6818 57.3192 58.4562L59.5648 56.1988L58.7404 55.4089L57.9159 54.619L57.1619 55.2765C56.7472 55.6382 55.6946 56.6142 54.8228 57.4455L53.2376 58.9569L52.7093 58.2732C52.4187 57.8971 52.1783 57.5055 52.1749 57.4029C52.1719 57.3002 53.1541 56.3223 54.3584 55.2296L56.5479 53.2429L55.6696 52.3367L54.7913 51.4305L53.5484 52.5989C50.2729 55.6782 50.3671 55.6133 49.7396 55.2214C49.421 55.0225 49.1604 54.7199 49.1604 54.549C49.1604 54.378 50.1137 53.3063 51.2788 52.1673L53.3972 50.0964L52.4559 49.1251C51.9381 48.591 51.4143 48.1539 51.2917 48.1539C51.1692 48.1539 50.5472 48.3918 49.9095 48.6826C46.4732 50.2497 37.7761 53.8973 37.4758 53.8973C37.2838 53.8973 37.1267 53.9737 37.1267 54.067C37.1267 54.3163 58.2168 75.7768 58.4618 75.7768C58.5761 75.7768 60.9607 73.6118 63.7608 70.9657ZM84.7256 50.3327L75.5746 41.3277L70.7013 46.1766C68.0209 48.8436 65.7079 51.0668 65.5614 51.117C65.0442 51.2945 62.9398 49.4719 60.1685 46.4464C57.7593 43.8162 57.3652 43.2548 57.3652 42.4532C57.3652 41.5901 58.0416 40.855 66.4326 32.5984C71.4198 27.6912 75.5926 23.6762 75.7055 23.6762C75.8185 23.6762 80.0455 27.773 85.0989 32.7801L94.2868 41.884V50.6256C94.2868 55.4334 94.1945 59.3605 94.0817 59.3524C93.9689 59.3442 89.7586 55.2855 84.7256 50.3327ZM84.8655 28.8447C79.9095 23.9714 75.7294 19.9841 75.5765 19.9841C75.4236 19.9841 71.3533 23.9224 66.5314 28.7359C61.7096 33.5494 57.6746 37.4877 57.5648 37.4877C57.455 37.4877 57.3652 33.542 57.3652 28.7195V19.9514L66.2888 11.1476C71.4964 6.00983 75.4221 2.34375 75.7159 2.34375C76.0118 2.34375 79.8744 5.98837 85.0812 11.1804L93.9429 20.0171L94.1446 28.6406C94.2558 33.3949 94.2409 37.3631 94.1114 37.4847C93.9822 37.6061 89.8216 33.7181 84.8655 28.8447ZM6.79972 27.5366C6.15236 26.877 5.66521 26.1596 5.71718 25.9425C5.8333 25.4572 19.374 12.6033 19.7713 12.6012C19.928 12.6004 20.6049 13.1607 21.2755 13.8463L22.4948 15.0928L21.264 16.2195C20.5871 16.8391 17.3682 19.9088 14.1107 23.041C10.8533 26.1732 8.14059 28.7359 8.08245 28.7359C8.02431 28.7359 7.44708 28.1962 6.79972 27.5366Z" fill="white"/>
</svg>
