<svg width="100" height="100" viewBox="0 0 100 100" fill="none" xmlns="http://www.w3.org/2000/svg">
<path d="M11.6475 21.6671L49.3203 52.2609L78.5722 21.8278L72.2496 15H92.07V34.5758L85.4482 28.4583L50.3814 60.4568L11.6475 21.6671ZM19.4589 52.0193L27.4698 50.4887L14.9291 38.0025L28.5229 46.6696L34.2609 53.5552L28.924 54.6159L19.4589 52.0193ZM65.6543 53.5845L74.0014 46.4702L89.1259 38.3638L73.7177 50.4686L81.5501 51.8084L70.1927 54.5702L65.6543 53.5845Z" fill="white"/>
<path d="M89.6879 64.1016V65.9931C91.9483 67.4899 93.1211 69.0998 93.1365 70.7271C93.1366 72.3224 92.0242 73.9021 89.863 75.376C87.7018 76.8499 84.5341 78.1891 80.5406 79.3171C76.5472 80.4452 71.8063 81.34 66.5885 81.9505C61.3708 82.561 55.7785 82.8752 50.1309 82.8752C44.4833 82.8752 38.891 82.561 33.6734 81.9505C28.4557 81.34 23.7148 80.4451 19.7214 79.3171C15.728 78.189 12.5603 76.8498 10.3991 75.376C8.23793 73.9021 7.12562 72.3224 7.1257 70.7271C7.14359 69.2779 8.07939 67.8412 9.88885 66.4851L9.87593 64.2763C4.95843 66.4439 2.3444 68.9643 2.34375 71.5387C2.34376 73.3066 3.57644 75.0571 5.97141 76.6903C8.36638 78.3236 11.8767 79.8076 16.302 81.0576C20.7274 82.3076 25.981 83.2992 31.7629 83.9757C37.5448 84.6522 43.7419 85.0004 50.0002 85.0004C62.6394 85.0004 74.7609 83.5821 83.6981 81.0575C92.6353 78.533 97.6562 75.109 97.6563 71.5387C97.6458 68.8923 94.8742 66.3055 89.6879 64.1016Z" fill="white" fill-opacity="0.978979"/>
<path d="M19.115 59.4062C15.0016 61.1327 12.802 63.1661 12.7969 65.2472C12.797 68.025 16.7036 70.6891 23.6573 72.6534C30.6111 74.6176 40.0424 75.7211 49.8764 75.7211C59.7105 75.7211 69.1418 74.6176 76.0955 72.6534C83.0493 70.6891 86.9559 68.025 86.956 65.2472C86.9431 63.3369 85.0809 61.4639 81.571 59.8311C82.9687 60.8887 83.6881 62.0083 83.6954 63.1372C83.6954 65.6577 80.1509 68.0749 73.8415 69.8571C67.5321 71.6394 58.9748 72.6407 50.052 72.6407C45.6338 72.6407 41.2589 72.3949 37.177 71.9173C33.0952 71.4397 29.3863 70.7397 26.2622 69.8572C23.1381 68.9747 20.6599 67.927 18.9691 66.774C17.2783 65.621 16.4081 64.3852 16.4081 63.1372C16.41 61.8547 17.3308 60.5856 19.115 59.4062Z" fill="white" fill-opacity="0.978979"/>
<path d="M40.1969 53.4395C33.7804 54.0201 28.1822 55.1612 24.2094 56.6984C20.2365 58.2356 18.0942 60.0894 18.0913 61.9926C18.0915 64.3757 21.443 66.6611 27.4084 68.3461C33.3739 70.0312 41.4647 70.9778 49.901 70.9778C58.3374 70.9778 66.4282 70.0312 72.3936 68.3461C78.3591 66.6611 81.7105 64.3757 81.7107 61.9926C81.7038 60.1406 79.6711 58.3344 75.8907 56.8212C72.1103 55.3081 66.767 54.1618 60.5919 53.5394L55.6352 58.4961C58.3429 58.8228 60.6513 59.3669 62.2738 60.0609C63.8964 60.7549 64.7616 61.5683 64.7621 62.3999C64.7621 62.9575 64.3733 63.5096 63.618 64.0248C62.8626 64.5399 61.7554 65.0079 60.3597 65.4022C58.9639 65.7965 57.3069 66.1092 55.4833 66.3226C53.6596 66.5359 51.7051 66.6458 49.7312 66.6458C45.7448 66.6457 41.9217 66.1984 39.1029 65.4022C36.2842 64.6059 34.7006 63.526 34.7006 62.3999C34.7043 61.5198 35.6761 60.6618 37.4816 59.9445C39.2872 59.2272 41.8372 58.6862 44.779 58.3962L40.1969 53.4395Z" fill="white" fill-opacity="0.978979"/>
</svg>
