<svg width="100" height="100" viewBox="0 0 100 100" xmlns="http://www.w3.org/2000/svg">
<path d="M28.4353 96.4572C22.9524 93.3361 18.1577 89.116 13.2606 83.1012C9.10657 77.999 6.64014 72.6149 6.64014 68.649C6.64014 67.4302 7.76831 63.1784 9.53588 57.7357C11.1285 52.8316 12.7805 47.2867 13.2068 45.4137C15.4108 35.7311 18.8618 25.0961 20.3342 23.449C20.5857 23.1677 22.1538 20.9012 23.8188 18.4124C26.9647 13.7099 30.9129 9.90566 34.8439 7.78919C47.2893 1.08861 50.6715 0.807265 60.5122 5.65397C67.4613 9.07652 71.622 12.5153 75.2353 17.8224C76.8106 20.1362 78.2571 22.1385 78.4496 22.2718C79.7094 23.1443 83.4854 34.2158 85.6646 43.4268C86.1009 51.903 92.7151 60.8235 93.3596 68.7274C92.9595 71.5425 91.8561 73.7056 91.2761 74.8118C90.8278 77.3793 82.0828 88.8286 78.8752 91.0473C78.1532 91.5468 76.1634 92.9565 74.4534 94.18C71.6054 96.2179 68.393 97.9429 68.393 97.4344C68.393 97.3195 70.6949 94.9158 73.5082 92.093C79.3417 86.24 81.5838 83.6115 84.1837 79.5784C87.4995 74.4346 89.1018 66.7603 87.9172 61.697C86.7072 56.5251 81.0417 43.7315 78.9728 41.4991C76.8859 39.2473 73.4174 32.8393 72.2427 29.0652C70.1899 22.4702 66.5532 17.3201 62.4501 15.1972C55.5868 11.6465 41.0975 12.1449 35.4355 16.1265C32.0132 18.5332 28.2177 24.4884 27.041 29.2979C26.736 30.5447 26.1858 32.1777 25.8185 32.9269C24.5388 35.5367 20.5908 41.7812 20.2205 41.7812C19.5778 41.7812 13.9937 53.6076 12.5022 58.1275C10.1108 65.3744 10.8887 72.3777 14.822 79.0146C16.5913 82 20.0061 86.384 20.319 86.0717C20.4126 85.9784 21.562 87.2699 22.8732 88.9417C24.1844 90.6135 26.5818 93.0993 28.2007 94.4657C32.1426 97.7928 32.2404 98.6232 28.4353 96.4572ZM17.6123 42.4623C18.8847 40.4644 20.116 38.7079 20.3485 38.5589C21.4726 37.8387 24.4983 32.0552 25.5516 28.6133C27.0434 23.7384 28.7131 20.4178 31.2259 17.3283C34.8651 12.854 39.9179 11.1592 49.5493 11.1821C59.8381 11.2067 64.752 12.8249 68.2188 17.3302C70.4647 20.249 72.9175 25.2677 73.844 28.8403C74.4596 31.2139 77.0599 36.3071 78.278 37.5253C79.1301 38.3774 83.8252 45.3412 83.8457 45.7833C83.8535 45.9546 84.1789 46.5035 84.5684 47.0029C85.2365 47.8596 85.263 47.8082 85.0364 46.0948C84.2747 40.3385 79.7108 25.4211 78.4405 24.5358C78.2541 24.4059 77.5408 23.2837 76.8554 22.042C72.7421 14.5898 68.3869 10.6371 59.3117 6.11972C55.3675 4.15638 53.3446 3.64523 49.5069 3.64222C45.7467 3.64001 42.4085 4.66055 38.0162 7.15762C36.3679 8.09473 34.8149 8.94222 34.5652 9.04092C33.0688 9.63243 26.165 15.7184 26.165 16.446C26.165 16.6406 25.4364 17.7541 24.5461 18.9206C23.6557 20.0871 22.4029 22.0811 21.7621 23.3517C21.1213 24.6223 20.4317 25.7686 20.2295 25.899C19.4287 26.4158 15.1062 40.9705 14.3666 45.6408C13.9504 48.2685 13.8551 48.3618 17.6123 42.4623ZM45.64 95.1592C40.0039 91.9792 35.2463 87.6697 35.2463 85.7447C35.2463 85.2897 35.0734 84.9174 34.8622 84.9174C34.3317 84.9174 32.6747 79.0471 32.0425 74.928C31.755 73.0549 31.0859 70.603 30.5555 69.4792C28.5362 65.2001 29.6754 57.3223 32.8611 53.5364C34.0267 52.1511 34.0739 52.1393 37.8206 52.2948C42.1479 52.4743 42.544 52.0503 40.4139 49.5188C38.4549 47.1906 36.8846 46.6178 33.459 46.9819C31.8197 47.1561 30.0234 47.3051 29.467 47.313C28.5776 47.3258 28.5172 47.4448 28.9669 48.3003C29.2482 48.8354 29.9628 49.8556 30.555 50.5674C31.631 51.8608 31.6311 51.8624 30.7656 53.2918C30.2893 54.0784 29.4391 56.0033 28.8762 57.5693C28.0218 59.9462 27.8935 61.0111 28.0994 64.0157C28.338 67.4965 28.317 67.597 27.4605 67.0713C25.8605 66.0894 23.9646 61.3941 23.4009 57.0175C22.6658 51.3112 23.6936 44.1871 25.5458 42.1503C26.4575 41.1477 28.0542 36.9214 30.317 29.5214C31.7754 24.7522 34.9708 21.8723 36.6112 23.8489C36.9235 24.2253 38.1235 24.8077 39.2776 25.1432L41.3761 25.7531L41.6718 28.2049C41.8344 29.5533 41.9876 31.6903 42.0123 32.9538C42.0553 35.1508 42.165 35.3441 44.5243 37.381C46.88 39.4147 47.1161 39.5109 49.7557 39.5109C52.479 39.5109 52.557 39.4751 55.0078 37.1013L57.4955 34.6918V30.3256V25.9593L59.1982 25.4147C60.1347 25.1152 61.6578 24.454 62.5828 23.9455L64.2646 23.0208L66.3288 24.7123C67.4641 25.6426 68.393 26.6512 68.393 26.9536C68.393 28.5482 72.632 40.5304 73.6053 41.6871C74.3454 42.5667 75.0126 44.3623 75.5978 47.0495C77.1296 54.0838 75.7267 63.1068 72.587 66.4142C71.935 67.101 71.2649 67.6629 71.0978 67.6629C70.9307 67.6629 71.0006 66.6178 71.2532 65.3405C71.8523 62.3109 71.129 58.3663 69.2895 54.6296L67.9028 51.8127L69.2831 49.9073C70.9347 47.6273 70.9549 47.484 69.6417 47.3623C69.0798 47.3102 67.3781 47.135 65.86 46.9728C62.2777 46.5902 59.7617 47.7464 58.4097 50.3965C57.9069 51.3821 57.4955 52.2493 57.4955 52.3235C57.4955 52.3978 59.1052 52.3854 61.0727 52.2961C63.1951 52.1997 65.042 52.3435 65.614 52.6496C66.4329 53.0879 68.8471 57.036 68.8471 57.9371C68.8471 58.0986 68.183 58.1311 67.3714 58.0093C66.5598 57.8875 64.3632 58.1874 62.4902 58.6757C59.0538 59.5717 58.6298 59.5488 54.8373 58.2636C54.4263 58.1243 54.6992 58.5986 55.4437 59.3176C56.712 60.5424 57.0333 60.6249 60.534 60.6249C65.4461 60.6249 65.9305 61.0469 65.2492 64.7322C64.9804 66.1861 64.7667 67.9 64.7743 68.541C64.7962 70.3822 65.4633 68.802 66.1446 65.295C66.6042 62.9298 66.6173 61.9831 66.2028 61.0736C65.909 60.4287 65.6686 59.7064 65.6686 59.4684C65.6686 58.6779 67.3268 59.021 68.5152 60.0573C70.6172 61.8904 70.5534 64.3387 68.2221 71.2955C67.8455 72.4193 67.3102 74.6669 67.0325 76.2902C66.2765 80.7093 64.3618 86.7123 63.368 87.779C62.8852 88.2972 62.4902 88.8483 62.4902 89.0036C62.4902 89.1589 60.4176 90.7014 57.8845 92.4314C53.3607 95.5209 53.2214 95.5791 50.0519 95.7023C47.8482 95.788 46.4492 95.6157 45.64 95.1592ZM53.6145 83.4823C54.2506 83.1925 54.7877 82.8349 54.808 82.6877C55.1314 80.3407 55.0027 79.8764 54.1062 80.1565C50.4309 81.3047 48.1541 81.2939 45.0785 80.1137C44.7105 79.9725 44.5292 80.3962 44.5393 81.3737C44.5509 82.4802 44.837 82.9895 45.6898 83.4212C47.1165 84.1435 52.0794 84.1818 53.6145 83.4823ZM51.6788 77.7645C51.8584 75.5953 52.933 75.3754 56.6787 76.7411C59.3091 77.7002 60.6739 77.7061 60.6739 76.7584C60.6739 76.5009 60.3973 76.2901 60.0591 76.2901C59.721 76.2901 58.8778 75.7651 58.1854 75.1233C55.059 72.2259 53.9443 71.8161 49.5493 71.9487C47.3017 72.0163 45.2998 72.1015 45.1007 72.1377C44.9016 72.1739 43.8061 73.123 42.6661 74.2468C41.5262 75.3706 40.2077 76.2901 39.7361 76.2901C39.2646 76.2901 38.8788 76.5009 38.8788 76.7584C38.8788 77.6835 40.1664 77.6871 42.8903 76.77C46.8615 75.4322 47.5045 75.5077 47.513 77.3123C47.522 79.1048 47.9018 79.7552 49.0953 80.0183C50.6433 80.3595 51.5279 79.5875 51.6788 77.7645ZM51.6098 66.9612C51.9301 66.5752 52.4149 66.3428 52.687 66.4448C52.9592 66.5467 53.6927 66.7712 54.3171 66.9435L55.4522 67.2569L54.3803 66.3247C53.0287 65.1495 51.9601 65.1421 50.9116 66.3007C50.4595 66.8001 49.8466 67.2088 49.5494 67.2088C49.2522 67.2088 48.6392 66.8001 48.1872 66.3007C47.1524 65.1573 46.5208 65.1578 45.1725 66.3029L44.1006 67.2137L45.4131 66.7441C46.4246 66.3822 46.9452 66.4283 47.6834 66.9449C48.9472 67.8293 50.8826 67.8373 51.6098 66.9612ZM47.0313 51.0895C47.0624 47.8292 44.3117 44.5773 40.5819 43.4651C37.2332 42.4664 33.8841 42.0646 33.8841 42.6615C33.8841 42.9265 34.708 43.1434 35.7149 43.1434C38.2855 43.1434 40.4232 44.157 42.9404 46.5693C45.4744 48.9979 46.3563 51.263 45.6825 53.6123C45.0107 55.9548 45.1738 56.2669 46.1439 54.495C46.6224 53.621 47.0217 52.0885 47.0313 51.0895ZM53.7742 53.9115C53.3877 52.652 53.3939 51.7951 53.7993 50.4418C54.824 47.0216 59.6798 43.2288 63.1713 43.1214C63.9205 43.0984 64.9422 42.8904 65.4417 42.6591C66.8041 42.0283 61.8539 42.6112 58.928 43.4261C54.5425 44.6475 51.4463 49.0022 52.4573 52.527C52.9315 54.1805 53.8658 56.0057 54.1121 55.7595C54.2086 55.663 54.0566 54.8314 53.7742 53.9115ZM43.2224 51.1318C43.6967 49.2422 41.737 46.9689 38.8788 46.0932C38.2545 45.9019 37.5935 45.5175 37.4101 45.239C37.1746 44.8816 37.0744 44.8979 37.0695 45.2941C37.0658 45.6029 37.7434 46.14 38.5756 46.4877C40.5152 47.2982 42.0573 49.2629 42.0573 50.9237C42.0573 52.5045 42.8427 52.6448 43.2224 51.1318ZM59.2743 47.2567C59.9964 46.7425 60.845 46.3218 61.1603 46.3218C61.4755 46.3218 61.6126 46.201 61.465 46.0534C60.4569 45.0453 56.1333 48.5537 56.1333 50.3798C56.1333 52.4532 56.7409 52.3776 57.3682 50.2262C57.7456 48.932 58.4393 47.8512 59.2743 47.2567ZM33.3922 42.8539C33.8181 42.4834 30.4279 42.7353 29.8211 43.1192C29.3958 43.3883 29.8767 43.4439 31.1833 43.2768C32.2941 43.1347 33.2881 42.9444 33.3922 42.8539ZM68.7242 42.8691C68.5733 42.7182 68.1817 42.7021 67.8539 42.8333C67.4917 42.9782 67.5993 43.0858 68.1282 43.1076C68.6069 43.1273 68.8751 43.0199 68.7242 42.8691ZM66.3927 84.0093C66.5711 83.385 66.8669 82.2164 67.05 81.4125C67.2331 80.6087 68.2052 79.0168 69.2101 77.8751C70.662 76.2258 71.0996 75.3134 71.3407 73.4339C71.7685 70.0976 72.4179 67.7547 73.0176 67.3841C73.3744 67.1636 73.433 67.3999 73.2098 68.1595C73.0332 68.7605 72.5913 70.8868 72.2277 72.8847C71.5023 76.8716 69.6171 81.0906 67.4596 83.5553C66.2068 84.9864 66.1007 85.0316 66.3927 84.0093ZM31.1057 82.5336C29.0636 79.7622 28.029 77.2359 27.2936 73.2254C26.9387 71.2899 26.5118 69.1954 26.3449 68.5711C26.1196 67.7282 26.1759 67.5603 26.5636 67.9191C26.8509 68.1848 27.387 70.1147 27.7549 72.2078C28.3241 75.445 28.6542 76.2544 29.9652 77.6275C30.8129 78.5153 31.708 79.6503 31.9544 80.1498C32.5029 81.2617 33.11 84.4634 32.7724 84.4634C32.6378 84.4634 31.8877 83.595 31.1057 82.5336ZM68.2368 74.4024C68.4279 72.6532 68.8184 71.66 69.6369 70.8414L70.7721 69.7063L70.4655 71.0685C69.6934 74.5 69.2468 75.7701 68.6333 76.2793C68.0634 76.7523 68.0085 76.4927 68.2368 74.4024ZM30.4016 75.7959C30.1095 75.4407 29.7519 74.5892 29.607 73.9038C29.462 73.2185 29.2374 72.1469 29.1078 71.5225C28.7804 69.9458 29.6262 70.1011 30.4927 71.7769C31.344 73.4231 31.2664 76.8478 30.4016 75.7959ZM47.5815 38.2049C46.81 37.7159 47.8919 37.2406 49.7764 37.2406C50.4848 37.2406 51.4047 37.3712 51.8206 37.5308C52.9504 37.9643 51.7438 38.5889 49.7764 38.5889C48.9023 38.5889 47.9146 38.4161 47.5815 38.2049ZM44.208 35.7266C43.0415 34.7716 42.9327 34.389 42.6637 30.2941L42.3744 25.8889H43.7585C45.1014 25.8889 45.157 25.9732 45.6313 28.7268C45.9001 30.2877 46.2557 32.7397 46.4215 34.1756C46.7658 37.1572 46.3292 37.4632 44.208 35.7266ZM52.8177 36.446C52.7128 36.2587 52.9562 33.8578 53.3585 31.1107L54.09 26.116H55.4375H56.785L56.6501 30.2026C56.5285 33.8888 56.3993 34.4115 55.3312 35.5378C54.1671 36.7654 53.1936 37.1172 52.8177 36.446ZM47.7562 35.3108C47.6346 34.7489 47.3117 32.6545 47.0388 30.6566C46.7659 28.6587 46.4392 26.6665 46.3127 26.2295C46.108 25.5225 46.4614 25.4349 49.5188 25.4349C51.9696 25.4349 52.9523 25.5976 52.946 26.0025C52.9409 26.3146 52.6412 28.6133 52.2793 31.1107C51.9175 33.6081 51.615 35.8046 51.6071 35.9919C51.5993 36.1792 50.7792 36.3324 49.785 36.3324C48.2788 36.3324 47.9406 36.1621 47.7562 35.3108Z" />
</svg>
