<svg width="100" height="100" viewBox="0 0 100 100"  xmlns="http://www.w3.org/2000/svg">
<path d="M52.3863 2.34375C46.4761 2.76127 40.5491 1.78279 38.713 5.05433C35.8402 3.636 33.3279 5.34528 30.7364 6.36437C25.6115 8.49035 24.5808 8.69211 24.7915 16.0253C22.2665 18.7228 20.8422 21.3891 21.5307 31.139C23.24 31.1667 25.7358 30.9518 25.7977 32.8163V34.7911L21.5915 34.5493V34.9849C23.8508 35.1939 27.2374 34.2104 26.0718 38.0418H21.5124V39.676C22.7067 40.3944 23.7425 41.2119 25.4659 41.5996L24.3059 45.6848C23.1534 45.1132 22.0924 44.2138 21.539 43.1812C20.5384 41.3094 19.7897 41.603 19.6673 43.6821C18.6349 48.9274 18.3195 53.9829 21.5649 58.0974C23.9272 60.5498 24.4772 61.4565 24.8859 64.6602C26.5103 73.3988 26.9328 78.5921 30.4989 81.3683C31.9514 82.5469 33.0057 80.4451 32.634 85.1901C32.6435 86.7883 33.3647 90.3449 34.1624 89.2747C34.6428 88.5055 35.4264 87.8109 35.2692 89.6964C35.1374 92.0198 38.6062 96.564 39.3804 94.73C40.1025 92.9314 41.056 95.7209 41.9105 96.5485C43.9918 98.0692 55.9037 97.9811 57.4073 96.5485C59.3596 94.69 58.8916 92.6595 60.886 95.6526C62.8205 94.5286 64.0724 92.9285 64.4963 90.7506C64.5932 89.8275 64.2936 88.0635 65.4714 89.433C67.0814 91.832 66.8812 84.8079 67.1315 82.3174C74.1205 79.4559 73.3494 69.2726 75.2754 62.9203C75.9479 58.1111 83.3676 58.8249 80.3091 43.9455C80.0746 42.7544 80.0498 40.7293 78.5431 43.3921C77.839 44.3931 76.9722 45.2107 75.987 45.8956L74.5111 41.7319C75.8128 41.2756 77.1082 40.7915 78.3063 39.8868C77.7621 32.3459 80.2327 19.2732 76.1447 18.5928C76.7771 12.6247 74.9382 9.97763 71.1522 8.27147C69.4542 7.6405 69.0093 9.98161 69.3375 6.85001C69.9515 5.98907 60.1811 1.91357 56.027 2.49127C54.9104 2.68255 54.8877 4.01416 53.5646 2.75847C53.2077 2.5656 52.9849 2.35233 52.3863 2.34375ZM57.6524 3.52714C60.9497 3.51611 65.6405 5.80196 68.2124 7.49711L67.369 12.0831L69.9517 9.9747C70.605 8.84239 76.7339 11.3785 74.6954 19.0404C76.2305 19.7298 77.9551 19.7239 77.3838 28.1593C73.1985 18.2141 66.8736 19.6834 59.6209 21.2014C57.6907 21.7051 55.1211 22.7561 55.7206 21.0963C55.0261 21.7276 51.6351 24.7428 51.8196 22.2031C51.4719 22.8219 51.2265 23.4731 50.2386 23.8898C49.2086 23.4209 48.5325 22.7752 47.9193 22.098L47.7085 23.099C45.8301 22.5488 44.04 21.905 42.6488 20.8329L42.8065 21.8871C39.8879 21.2489 37.3517 20.0369 34.8475 18.777C34.7193 19.3944 34.6295 20.0192 34.1624 20.5689C27.0593 19.1367 24.7 24.1334 22.83 29.7928C22.0955 26.4913 21.9635 18.3806 26.3086 16.8268C24.9644 8.73648 27.4809 9.40891 30.5724 7.69083C33.9818 6.19487 36.4634 4.24254 39.7495 7.23369C39.1858 3.97534 42.5965 3.76524 46.7587 3.72783C52.0724 3.94926 54.178 2.50283 53.9813 6.6537C54.1975 4.36811 55.674 3.53406 57.6524 3.52714ZM37.6677 21.8605C36.8937 23.6374 34.4459 28.0579 30.6313 32.8764C31.9709 28.521 33.8442 24.6937 37.6677 21.8605ZM42.0163 22.2297C42.1241 23.5535 38.7662 27.6392 37.3251 30.768C47.0264 30.0097 57.6272 30.4191 66.5782 31.032C57.5508 31.4846 48.3253 31.4039 37.0617 31.348C36.1675 32.9684 35.0182 34.4195 33.925 35.9074C34.3297 34.3613 34.6015 32.8149 35.4009 31.2688C34.7333 31.307 34.0658 31.2096 33.3982 31.1105C34.0758 31.0035 34.7026 30.8866 35.7175 30.8471C37.7249 26.6947 36.4775 27.5066 42.0163 22.2297ZM50.1284 27.1817C55.5095 27.1878 60.9027 27.5685 62.2302 28.001C54.7105 28.4233 46.927 28.6527 39.5127 28.001C41.765 27.3998 45.9431 27.1772 50.1284 27.1817ZM55.1146 32.9746C54.8016 35.3741 53.7204 35.3999 52.4496 38.8257C51.1722 35.9186 53.1465 33.6465 55.1146 32.9746ZM44.34 33.0955C46.6809 33.3947 48.9347 36.0024 47.5267 38.9282C46.5169 35.316 45.2493 35.6999 44.34 33.0955ZM63.784 39.5969C69.0909 39.5967 73.393 43.6746 73.3929 48.705C73.393 53.7352 69.0909 57.8133 63.784 57.8131C58.4775 57.8129 54.1755 53.735 54.1756 48.705C54.1765 47.9959 54.2647 47.2892 54.4384 46.5997L54.4286 46.6071C51.134 44.6991 48.1052 44.898 45.2673 46.6071C45.4391 47.2944 45.526 47.9984 45.5262 48.7047C45.5263 53.7347 41.2246 57.8127 35.9179 57.8129C30.6111 57.813 26.3088 53.735 26.3089 48.7047C26.3105 43.7032 30.5668 39.6385 35.8432 39.5998L63.784 39.5969ZM43.3605 41.4153L44.8757 44.0639C48.138 43.0412 51.4257 42.8416 54.7582 44.0639L56.1024 41.4153H43.3605ZM45.0485 57.6194C45.6417 58.3378 44.7937 58.4387 44.8244 59.0731C45.0925 60.5538 44.4232 61.2562 44.6123 61.5722C44.8721 62.0066 45.7378 61.8911 46.6137 62.6138C47.5828 63.4161 48.3542 64.6149 49.8619 64.7761C50.6013 64.8115 51.5844 64.2803 53.2107 62.6138C54.6164 61.2528 55.2943 62.5914 54.7012 59.4461C54.1959 57.9198 54.9975 57.0149 55.2229 58.4767C55.2358 59.2112 55.3705 59.0575 55.5585 58.5141C55.7509 57.7795 56.6511 58.857 56.9749 59.4461L59.2112 62.7632C59.9389 62.7422 60.0567 63.6889 60.4782 64.2911L67.4855 75.3234C68.0949 76.3918 68.5631 77.4792 67.4107 78.7894C65.8209 73.3654 62.7325 69.097 59.6582 64.2911C58.2949 64.1061 57.8592 62.2052 55.5958 59.8184C55.3165 61.206 56.8952 63.51 54.4029 63.8067C52.9539 63.9623 53.4249 66.1882 49.67 66.0057C46.7257 66.0713 46.9072 64.1656 45.7937 63.7693C44.2957 63.6339 43.1214 63.8558 43.5947 60.1166C39.4376 65.9925 34.8076 71.4325 32.3762 78.9014C30.8219 76.8727 34.1322 72.2232 35.8796 69.8073L41.2096 61.533C43.0825 58.9533 43.4313 58.5483 45.0485 57.6194ZM32.3389 60.266C33.229 60.878 30.7063 63.2366 30.1773 65.3345C31.0704 66.6409 33.1789 67.6604 33.0842 68.5029C31.7684 68.3191 30.7757 67.3097 29.767 66.3413C29.203 67.8343 28.5225 69.1845 27.6427 70.2916C27.8452 68.7187 28.323 67.1707 28.9103 65.6328C27.7549 64.178 26.5256 62.7748 25.7046 61.086C27.0898 62.0582 28.2059 63.4346 29.3947 64.7014C29.9024 62.8354 31.0678 61.5074 32.3389 60.266ZM49.292 66.5686C49.5083 66.571 49.7271 66.5759 49.9486 66.5838C65.8936 66.8842 66.1534 77.8135 65.9931 85.28C65.9833 86.8481 65.4684 87.7009 65.2346 87.5885C64.4615 87.1458 63.6883 86.724 62.9153 86.4286C63.3091 89.1294 64.1809 91.9311 61.2811 93.9398C60.5 93.0755 59.74 92.1933 58.6458 91.5939C58.1185 96.7471 54.2599 96.0824 50.2278 96.1718C45.9479 96.0774 41.6268 97.1414 40.6986 91.5939C38.0548 96.7154 35.7265 90.4704 36.8509 86.1651C35.9245 86.3964 35.245 86.9987 34.505 87.5094C32.2789 77.7189 35.6652 66.4316 49.292 66.5686Z" />
<path d="M39.3829 76.8889L48.1788 74.4663C49.4353 74.0155 50.6618 74.073 51.8686 74.4663L60.2918 76.9261C63.1497 79.0459 58.5095 84.315 56.9002 81.1005C54.7222 77.9982 44.406 78.57 42.5882 81.1005C41.4969 82.8451 40.4877 82.2071 39.4948 81.1005C38.4542 80.0425 39.0461 78.4217 39.3829 76.8889Z"/>
<path d="M52.9868 21.3738C57.1011 17.975 58.1405 13.4672 56.1921 7.88184C56.3021 13.0196 55.1623 17.4781 52.9868 21.3738Z" />
<path d="M57.0122 20.2743L59.323 17.4417L59.6584 17.5162C61.6251 14.7541 61.9873 11.4339 62.3792 8.12402C62.333 11.0945 62.9336 13.6995 59.8075 18.4107L59.2857 18.2617L57.0122 20.2743Z" />
<path d="M45.3629 10.8441L45.9427 10.6333C48.6135 14.0807 48.8035 17.4528 49.237 20.8324C49.7775 15.6323 49.5121 11.0196 45.9427 8.81483L45.4156 8.78849L42.4902 6.60107L45.3629 10.8441Z" />
<path d="M35.4277 8.20898C37.9756 10.4627 40.8539 12.4331 42.9651 15.0611L42.8597 15.8518C44.3166 17.3352 45.3756 18.9778 46.4966 20.5955C45.7502 18.834 45.0178 17.0656 43.8612 15.5091L43.9139 14.7976C41.5748 11.6221 38.34 10.2382 35.4277 8.20898Z" />
<path d="M30.8682 12.083C33.2411 13.011 35.7715 13.0468 37.9575 15.0347V15.5091C39.567 16.5647 40.643 17.9251 41.7789 19.2514C40.9568 17.9924 40.4364 16.6664 39.038 15.5354L39.1961 15.0611C36.6923 12.5989 33.6904 12.8262 30.8682 12.083Z" />
</svg>
