<svg width="100" height="100" viewBox="0 0 100 100"  xmlns="http://www.w3.org/2000/svg">
<path d="M80.0001 20.8108L81.0812 17.5675L76.4866 12.9729V11.0811L59.7298 1.08105H50.0001H40.2703L23.7839 11.0811V12.9729L18.919 17.5675L20.0001 21.0811L16.7568 23.7838C16.7568 23.7838 26.2163 49.7297 26.2163 55.9459C26.2163 55.9459 27.2974 48.1081 27.2974 44.054L25.4055 43.2432L23.7839 32.1621H21.6217V29.4594L25.6758 25.1351L23.7839 20.8108L31.6217 14.8648L35.946 19.7297L35.4055 12.1621L42.4325 8.64862L43.5136 10.8108L50.0001 8.37835L56.4866 10.8108L57.8379 8.37835L64.8649 11.8919L64.3244 19.4594L68.6487 14.5946L76.4866 20.5405L74.5947 25.1351L78.6487 29.4594V32.1621H76.4866L74.5947 43.2432L72.9731 43.7838C72.9731 47.8378 74.0541 55.6757 74.0541 55.6757C74.0541 49.4594 83.5136 23.5135 83.5136 23.5135L80.0001 20.8108Z" />
<path d="M78.6488 60.5404C76.7569 60.5404 72.4325 63.5134 72.4325 63.5134V58.6485C72.4325 57.8377 71.892 57.2972 71.3515 56.7566C70.8109 56.4864 70.5406 55.9458 71.0812 55.9458C71.892 55.9458 72.4325 54.3242 71.6217 54.3242C70.8109 54.3242 68.6488 52.162 70.2704 52.162C71.892 52.162 70.2704 47.5674 70.2704 47.5674C69.4596 46.7566 68.3785 46.2161 67.0271 45.9458C67.0271 48.108 67.0271 48.6485 65.6758 49.9999C64.0542 51.6215 61.3515 53.5134 61.3515 53.5134C61.3515 53.5134 57.0271 51.6215 57.0271 50.2701C57.0271 48.9188 57.2974 47.8377 58.1082 46.7566C58.919 45.9458 60.2704 45.135 60.8109 45.6755C61.3514 46.2161 59.1893 47.0269 59.1893 47.8377C59.1893 48.6485 60.2704 49.9999 61.0812 49.9999C61.892 49.9999 63.5136 48.9188 63.5136 47.2972C63.5136 46.7566 62.9731 45.6755 62.4325 44.8647C58.1082 44.3242 53.7839 44.8647 53.7839 44.8647L52.1623 46.2161H49.7298H47.2974L45.946 44.8647C45.946 44.8647 38.919 44.3242 33.7839 45.4053C32.9731 44.3242 31.892 42.7026 31.892 41.6215C31.892 40.2701 33.2433 38.9188 34.3244 38.9188C35.1352 38.9188 36.2163 40.2701 36.2163 41.0809C36.2163 41.8918 34.0542 42.7026 34.5947 43.2431C35.1352 43.7837 36.4866 42.9728 37.2974 42.162C38.1082 41.3512 38.3785 39.9999 38.3785 38.6485C38.3785 37.2972 34.0542 35.4053 34.0542 35.4053C34.0542 35.4053 31.3515 37.2972 29.7298 38.9188C28.1082 40.5404 28.3785 41.0809 28.3785 43.5134C28.3785 44.8647 29.1893 45.9458 30.0001 46.4864C29.7298 46.7566 29.4596 46.7566 29.1893 47.0269C29.1893 47.0269 27.5677 51.6215 29.1893 51.6215C30.8109 51.6215 28.919 53.7836 27.8379 53.7836C26.7569 53.7836 27.5677 55.4053 28.3785 55.4053C28.919 55.4053 28.6487 55.9458 28.1082 56.2161C27.5677 56.7566 27.0271 57.2972 27.0271 58.108V62.9728C27.0271 62.9728 22.7028 59.9999 20.8109 59.9999C18.919 59.9999 18.6487 61.8918 19.1893 62.7026C19.7298 63.2431 20.8109 65.9458 20.8109 66.7566C20.8109 67.8377 22.9731 71.3512 23.5136 71.8918C24.0542 72.4323 24.5947 74.3242 24.5947 74.8647C24.5947 75.135 26.7569 76.4864 28.1082 77.2972C28.919 77.5674 29.4596 78.3782 29.7298 79.1891L30.8109 82.4323C31.6217 85.135 33.2433 87.8377 35.4055 89.7296L41.892 95.4053C43.7839 97.0269 45.946 98.108 48.3785 98.3782L49.4596 98.6485C49.7298 98.6485 50.0001 98.6485 50.2704 98.6485L51.3515 98.3782C53.7839 98.108 55.946 97.0269 57.8379 95.4053L64.3244 89.7296C66.4866 87.8377 68.1082 85.4053 68.919 82.4323L70.0001 79.1891C70.2704 78.3782 70.8109 77.8377 71.6217 77.2972C72.9731 76.4864 75.1352 75.135 75.1352 74.8647C75.1352 74.3242 75.6758 72.4323 76.2163 71.8918C76.7569 71.3512 78.919 67.5674 78.919 66.7566C78.919 65.6755 80.0001 63.2431 80.5406 62.7026C81.0812 62.4323 80.5406 60.5404 78.6488 60.5404ZM27.0271 72.9728C26.2163 73.7836 23.7839 70.8107 23.7839 69.9999C23.7839 69.1891 24.5947 66.2161 22.1623 63.7836C22.1623 63.7836 25.946 67.5674 25.946 68.3782C25.946 69.4593 24.865 69.9999 25.4055 70.5404C26.2163 71.6215 27.8379 72.162 27.0271 72.9728ZM53.7839 63.5134C53.7839 63.5134 54.3244 62.162 55.946 62.162C57.5677 62.162 66.2163 59.7296 67.0271 60.5404C67.8379 61.3512 69.4596 62.7026 68.3785 62.7026C67.2974 62.7026 67.2974 62.162 65.946 62.162C64.3244 62.162 60.0001 62.7026 59.1893 63.5134C58.3785 64.3242 54.0542 67.0269 54.0542 69.1891V63.5134H53.7839ZM50.0001 78.6485C50.0001 78.6485 54.3244 78.3782 54.3244 77.8377C54.3244 77.2972 53.7839 74.5945 54.0542 74.3242C54.3244 74.0539 55.6758 75.6755 55.6758 75.9458C55.6758 76.2161 55.946 77.5674 54.865 78.6485C53.7839 79.7296 52.7028 79.7296 49.7298 79.7296C46.7569 79.7296 45.6758 79.7296 44.5947 78.6485C43.5136 77.5674 43.7839 76.2161 43.7839 75.9458C43.7839 75.6755 45.4055 74.0539 45.4055 74.3242C45.4055 74.5945 45.1352 77.2972 45.1352 77.8377C45.6758 78.6485 50.0001 78.6485 50.0001 78.6485ZM32.9731 60.5404C33.7839 59.7296 42.4325 62.162 44.0542 62.162C45.6758 62.162 46.2163 63.5134 46.2163 63.5134V69.1891C46.2163 67.0269 41.892 64.3242 41.0812 63.5134C40.2704 62.7026 35.6758 62.162 34.3244 62.162C32.7028 62.162 32.9731 62.7026 31.892 62.7026C30.8109 62.7026 32.1623 61.3512 32.9731 60.5404ZM32.7028 67.0269C32.7028 67.0269 32.4325 65.135 31.0812 65.135C31.0812 65.135 32.9731 64.8647 34.5947 64.8647H40.0001C40.0001 64.8647 44.0542 66.7566 44.0542 68.3782C44.0542 68.3782 43.2433 67.5674 42.7028 68.3782C41.892 69.1891 38.919 69.1891 37.8379 69.1891C36.7569 69.1891 34.0542 68.108 32.7028 67.0269ZM56.7569 87.5674C55.6758 88.6485 55.4055 90.5404 53.7839 90.5404C52.1623 90.5404 50.0001 90.5404 50.0001 90.5404C50.0001 90.5404 47.8379 90.5404 46.2163 90.5404C44.5947 90.5404 44.3244 88.6485 43.2433 87.5674C42.1623 86.4864 41.0812 86.4864 41.0812 86.4864C41.0812 86.4864 44.5947 83.7836 46.7569 83.7836C48.919 83.7836 49.7298 85.4053 49.7298 85.4053C49.7298 85.4053 50.5406 83.7836 52.7028 83.7836C54.865 83.7836 58.3785 86.4864 58.3785 86.4864C58.3785 86.4864 57.8379 86.4864 56.7569 87.5674ZM67.2974 67.0269C65.946 68.3782 63.2433 69.1891 62.1623 69.1891C61.0812 69.1891 58.1082 68.9188 57.2974 68.3782C56.4866 67.5674 55.946 68.3782 55.946 68.3782C55.946 66.7566 60.0001 64.8647 60.0001 64.8647H65.4055C67.0271 64.8647 68.919 65.135 68.919 65.135C67.5677 64.8647 67.2974 67.0269 67.2974 67.0269ZM76.2163 70.2701C76.2163 71.0809 73.7839 74.0539 72.9731 73.2431C72.1623 72.4323 73.7839 71.8918 74.3244 71.0809C74.865 70.5404 73.7839 69.7296 73.7839 68.9188C73.7839 67.8377 77.5677 64.3242 77.5677 64.3242C75.4055 66.2161 76.2163 69.4593 76.2163 70.2701Z" />
<path d="M39.189 65.6758H37.0269C36.7566 65.9461 36.4863 66.4866 36.4863 66.7569C36.4863 67.5677 37.2971 68.3785 38.108 68.3785C38.9188 68.3785 39.7296 67.5677 39.7296 66.7569C39.7296 66.2163 39.4593 65.9461 39.189 65.6758Z" />
<path d="M60.8111 65.6758H62.9732C63.2435 65.9461 63.5138 66.4866 63.5138 66.7569C63.5138 67.5677 62.7029 68.3785 61.8921 68.3785C61.0813 68.3785 60.2705 67.5677 60.2705 66.7569C60.2705 66.2163 60.5408 65.9461 60.8111 65.6758Z" />
</svg>
