<svg width="100" height="100" viewBox="0 0 100 100"  xmlns="http://www.w3.org/2000/svg">
<path d="M22.1621 77.838V74.8651C22.1621 74.8651 23.2432 71.8921 26.2162 71.8921C29.1891 71.8921 29.9999 74.5948 29.9999 75.9461C29.9999 77.2975 31.3513 77.838 31.3513 80.0002C31.3513 82.1624 29.4594 83.2434 27.5675 83.2434C25.9459 83.5137 22.1621 82.4326 22.1621 77.838Z" />
<path d="M77.8376 77.838V74.8651C77.8376 74.8651 76.7565 71.8921 73.7836 71.8921C70.8106 71.8921 69.9998 74.5948 69.9998 75.9461C69.9998 77.2975 68.6484 77.838 68.6484 80.0002C68.6484 82.1624 70.5403 83.2434 72.4322 83.2434C74.3241 83.2434 77.8376 82.4326 77.8376 77.838Z" />
<path d="M50.5406 76.7568H49.4595V83.5136H50.5406V76.7568Z" />
<path d="M48.3784 76.7568H47.2974V83.5136H48.3784V76.7568Z" />
<path d="M52.4326 76.7568H51.3516V83.5136H52.4326V76.7568Z" />
<path d="M50.5406 50H49.4595V57.2973H50.5406V50Z" />
<path d="M48.3784 50H47.2974V57.2973H48.3784V50Z" />
<path d="M52.4326 50H51.3516V57.2973H52.4326V50Z" />
<path d="M84.0539 58.6488C83.7837 55.9461 83.2431 51.3515 83.2431 49.4596C83.2431 46.4867 80.8107 46.4867 80.8107 46.4867C80.8107 46.4867 78.6485 44.865 79.9999 43.5137C81.3512 42.1623 81.081 41.0813 81.081 41.0813L79.1891 32.9731C69.9999 34.0542 62.4323 38.1083 58.108 40.2704L57.8377 40.5407C55.9458 41.6218 53.7837 42.1623 51.6215 42.1623H48.9188C46.7566 42.1623 44.5945 41.6218 42.7026 40.5407H41.8918C37.5674 38.3786 29.9999 34.3245 20.8107 33.2434L18.9188 41.3515C18.9188 41.3515 18.9188 42.4326 19.9999 43.784C21.3512 45.1353 19.1891 46.7569 19.1891 46.7569C19.1891 46.7569 16.7566 46.7569 16.7566 49.7299C16.7566 51.6218 16.2161 56.2164 15.9458 58.9191C15.6756 60.5407 16.2161 62.1623 17.2972 63.2434C19.9999 65.9461 24.8647 70.2704 27.2972 70.2704C31.081 70.2704 31.081 70.2704 31.081 72.7029C31.081 75.1353 32.7026 77.5677 33.5134 77.5677C34.3242 77.5677 36.2161 76.7569 37.2972 76.7569C38.3783 76.7569 39.9999 76.7569 39.9999 79.4596C39.9999 82.1623 37.8377 82.9731 37.8377 85.6758C37.8377 88.3786 41.3512 92.9731 49.9999 92.9731C58.6485 92.9731 62.162 88.3786 62.162 85.6758C62.162 82.9731 59.9999 82.1623 59.9999 79.4596C59.9999 76.7569 61.6215 76.7569 62.7026 76.7569C63.7837 76.7569 65.6756 77.5677 66.4864 77.5677C67.2972 77.5677 68.9188 74.865 68.9188 72.7029C68.9188 70.5407 68.9188 70.2704 72.7026 70.2704C75.4053 70.2704 80.2701 65.6758 82.7026 63.2434C83.7837 61.8921 84.3242 60.2704 84.0539 58.6488ZM55.4053 84.0542C55.4053 86.2164 53.7837 87.838 51.6215 87.838H48.3783C46.2161 87.838 44.5945 86.2164 44.5945 84.0542V77.0272C44.5945 74.865 46.2161 73.2434 48.3783 73.2434H51.6215C53.7837 73.2434 55.4053 74.865 55.4053 77.0272V84.0542ZM62.9729 64.5948C62.9729 64.5948 59.4593 64.5948 56.7566 61.8921C54.0539 59.1894 52.9729 59.1894 49.9999 59.1894C47.0269 59.1894 45.9458 59.1894 43.2431 61.8921C40.5404 64.5948 37.0269 64.5948 37.0269 64.5948C32.7026 64.5948 24.8647 60.811 24.8647 52.1623C24.8647 43.5137 30.8107 42.1623 30.8107 42.1623H32.4323C34.3242 44.0542 47.5675 48.3785 47.5675 48.3785H50.2702H52.9729C52.9729 48.3785 66.2161 44.0542 68.108 42.1623H69.7296C69.7296 42.1623 75.6756 43.5137 75.6756 52.1623C75.6756 60.811 67.5674 64.5948 62.9729 64.5948Z" />
<path d="M94.8649 25.9459C88.919 25.9459 60.2703 13.2432 60.2703 13.2432C60.2703 13.2432 62.973 10.2702 60.8109 8.10803C58.6487 5.94587 56.7568 17.5675 55.1352 17.5675C53.7839 17.5675 54.0541 15.4053 55.1352 14.054C56.2163 12.9729 58.3784 6.75668 57.8379 5.94587C57.2974 5.40533 54.8649 4.59452 54.8649 6.21614C54.8649 7.83776 52.4325 12.4324 52.1622 12.4324C51.892 12.4324 51.3514 7.29722 52.7028 5.6756C54.3244 4.05397 51.3514 3.24316 49.7298 3.24316C48.1082 3.24316 45.1352 4.32424 46.7568 5.6756C48.3784 7.29722 47.8379 12.4324 47.2974 12.4324C47.0271 12.4324 44.5947 7.83776 44.5947 6.21614C44.5947 4.59452 42.1622 5.40533 41.6217 5.94587C41.0812 6.48641 43.2433 12.7026 44.3244 14.054C45.4055 15.1351 45.6757 17.5675 44.3244 17.5675C42.973 17.5675 40.8109 6.21614 38.6487 8.10803C36.4866 9.99992 39.1893 13.2432 39.1893 13.2432C39.1893 13.2432 11.0811 25.9459 5.1352 25.9459C-0.810744 25.9459 1.35142 29.1891 1.89196 28.3783C2.4325 27.8378 12.4325 29.9999 15.1352 30.5405C15.6757 30.5405 15.946 30.5405 16.4866 30.8107C28.1082 31.081 37.8379 35.9459 43.2433 38.6486L43.5136 38.9188C45.1352 39.7297 47.0271 40.2702 48.919 40.2702H51.6217C53.5136 40.2702 55.4055 39.7297 57.0271 38.9188L57.2974 38.6486C62.7028 35.9459 72.4325 31.081 84.0541 30.8107C84.5947 30.8107 84.8649 30.8107 85.4055 30.5405C88.1082 29.9999 98.3784 28.108 98.6487 28.3783C98.919 28.9188 101.081 25.9459 94.8649 25.9459ZM74.8649 25.1351L58.919 31.081H55.1352C54.8649 30.8107 54.5947 28.6486 55.946 27.2972C57.2974 25.9459 55.946 25.1351 55.946 25.1351H50.0001H44.0541C44.0541 25.1351 42.7028 25.9459 44.0541 27.2972C45.4055 28.6486 45.1352 30.5405 44.8649 31.081H41.0812L25.1352 25.1351V23.7837C25.1352 23.7837 36.7568 17.0269 41.0812 17.0269C41.0812 17.0269 43.5136 19.7297 44.8649 19.7297C46.2163 19.7297 46.2163 18.6486 50.2703 18.6486C54.3244 18.6486 54.3244 19.7297 55.6757 19.7297C57.0271 19.7297 59.4595 17.0269 59.4595 17.0269C63.7839 17.0269 75.4055 23.7837 75.4055 23.7837V25.1351H74.8649Z" />
<path d="M44.3244 48.1082L42.7028 47.838V49.1893C43.2433 50.2704 43.5136 51.3515 43.5136 52.7028C43.5136 56.7569 40.2703 60.0001 36.2163 60.0001C32.1622 60.0001 28.919 56.7569 28.919 52.7028C28.919 49.7299 30.8109 47.2974 33.2433 46.2163L34.3244 45.1353L32.7028 44.5947C29.4595 46.2163 27.2974 49.4596 27.2974 53.2434C27.2974 58.6488 31.3514 62.7028 36.4866 62.7028C41.6217 62.7028 45.6757 58.3785 45.6757 53.2434C45.6757 51.0812 45.1352 49.4596 44.3244 48.1082Z" />
<path d="M55.6756 48.1082L57.2972 47.838V49.1893C56.7567 50.2704 56.4864 51.3515 56.4864 52.7028C56.4864 56.7569 59.7296 60.0001 63.7837 60.0001C67.8377 60.0001 71.081 56.7569 71.081 52.7028C71.081 49.7299 69.1891 47.2974 66.7567 46.2163L65.6756 45.1353L67.2972 44.5947C70.5404 46.2163 72.7026 49.4596 72.7026 53.2434C72.7026 58.6488 68.6485 62.7028 63.5134 62.7028C58.3783 62.7028 54.3242 58.3785 54.3242 53.2434C54.3242 51.0812 54.8648 49.4596 55.6756 48.1082Z" />
<path d="M2.97274 31.3516C2.97274 31.3516 0.540303 37.5678 2.16192 39.1894C3.78355 40.811 1.62138 40.5407 1.62138 41.6218C1.62138 42.7029 1.62138 47.2975 2.97274 47.2975C4.32409 47.2975 4.86463 43.784 4.86463 42.9732C4.86463 42.1624 3.78355 41.3516 3.78355 39.7299C3.78355 38.1083 4.86463 38.1083 4.86463 36.2164C4.86463 34.3245 4.59436 31.3516 2.97274 31.3516Z" />
<path d="M11.0811 32.7026C11.0811 32.7026 13.2433 35.9459 13.2433 38.6486C13.2433 41.3513 12.1622 39.7297 12.1622 43.2432C12.1622 46.7567 12.973 45.9459 12.973 47.8378C12.973 49.7297 11.6217 51.3513 10.8109 51.3513C10 51.3513 8.37842 50.2702 8.37842 47.5675C8.37842 44.8648 10 47.027 10 45.6756C10 44.3243 9.72977 41.081 8.91896 40.2702C8.10815 39.4594 9.18923 34.3243 11.0811 32.7026Z" />
<path d="M89.1893 32.4326C89.1893 32.4326 89.4596 34.8651 91.3515 36.7569C91.3515 36.7569 92.1623 39.1894 90.2704 41.0813C90.2704 41.0813 88.9191 44.5948 90.0002 45.4056C91.0812 46.4867 92.9731 46.7569 91.0812 48.6488C88.9191 50.811 90.0002 50.811 90.5407 51.3515C91.0812 51.8921 90.0002 53.784 90.811 54.5948C91.3515 55.1353 92.9731 55.1353 90.2704 57.838C90.2704 57.838 87.5677 58.3786 86.2164 57.0272C86.2164 57.0272 85.6758 55.9461 87.2974 54.3245C88.9191 52.7029 88.3785 50.5407 87.5677 50.0002C87.0272 49.4596 85.9461 47.0272 87.2974 45.6759C88.6488 44.3245 87.5677 40.5407 87.0272 40.0002C86.4866 39.4596 87.2975 34.5948 89.1893 32.4326Z" />
<path d="M88.6484 59.7295C88.6484 59.7295 89.4593 61.6214 90.2701 61.6214C91.0809 61.6214 90.8106 59.189 89.7295 59.189C88.6484 59.189 88.6484 59.189 88.6484 59.7295Z" />
<path d="M95.946 31.3516C95.946 31.3516 94.865 31.3516 94.865 36.757C94.865 42.1624 95.6758 42.1624 94.5947 43.2435C93.2433 44.5948 95.946 44.5948 95.946 45.6759C95.946 46.757 94.5947 48.3786 94.5947 49.1894C94.5947 50.0002 95.946 51.3516 96.7568 51.3516C97.2974 51.3516 97.8379 50.5408 97.8379 47.838C97.8379 47.838 96.4866 45.6759 97.8379 44.3245C99.1893 42.9732 98.3785 41.6218 97.0271 40.5408C95.946 39.4597 98.3785 38.1083 98.3785 37.0272C98.1082 35.6759 97.2974 31.3516 95.946 31.3516Z" />
<path d="M34.3245 84.0543C34.5948 83.784 34.5948 83.2434 34.865 82.9732C34.3245 82.4326 33.5137 81.8921 32.4326 81.8921C32.4326 81.8921 33.784 82.9732 34.3245 84.0543Z" />
<path d="M33.784 85.6758C33.784 85.1353 33.784 84.865 34.0543 84.3245C33.5137 84.0542 32.7029 83.5137 31.3516 83.5137C31.3516 83.7839 32.9732 84.865 33.784 85.6758Z" />
<path d="M34.054 86.7566C32.9729 86.2161 31.6216 85.6755 31.0811 86.2161C31.0811 86.2161 32.9729 87.0269 34.3243 87.8377C34.054 87.5674 34.054 87.0269 34.054 86.7566Z" />
<path d="M38.108 80.2703C37.8377 79.7298 37.0269 78.9189 35.9458 78.9189C35.9458 78.9189 36.4863 80 36.7566 81.3514C37.2972 80.5406 37.8377 80.2703 38.108 80.2703Z" />
<path d="M36.4866 81.3514C35.9461 80.8108 34.865 80 34.0542 80C34.0542 80 34.865 81.0811 35.4056 82.4324C35.6758 82.1622 35.9461 81.6216 36.4866 81.3514Z" />
<path d="M34.054 88.6487C33.2432 88.3784 31.6216 88.3784 30.5405 89.4595C30.5405 89.4595 32.973 89.4595 34.3243 90C34.3243 89.4595 34.3243 88.919 34.054 88.6487Z" />
<path d="M37.2974 94.0542C36.7568 95.1353 35.946 96.4866 36.2163 96.4866C36.7568 96.7569 39.1893 97.0272 39.1893 96.2164C39.1893 95.9461 39.1893 95.4055 39.1893 94.865C38.6487 94.865 37.8379 94.5947 37.2974 94.0542Z" />
<path d="M37.0271 93.784C36.4866 93.5137 36.2163 92.9732 35.946 92.4326C35.4055 93.5137 34.0541 94.865 34.3244 95.4056C34.5947 95.9461 35.4055 95.1353 37.0271 93.784Z" />
<path d="M35.1351 91.6219C34.8648 91.0813 34.5946 90.5408 34.5946 90.2705C33.5135 90.2705 31.6216 90.2705 31.6216 90.811C31.6216 91.8921 33.2432 90.811 32.9729 91.6219C32.7027 92.4327 32.4324 94.0543 33.2432 93.784C33.7837 93.5137 34.5946 92.1624 35.1351 91.6219Z" />
<path d="M63.5137 84.595C65.1353 83.7841 67.0272 82.4328 66.2164 81.622C65.4056 80.8112 63.784 81.622 62.4326 82.4328C62.7029 83.2436 62.9732 83.7841 63.5137 84.595Z" />
<path d="M62.1621 82.7029C63.2432 81.6218 64.5946 80.0002 63.7838 79.4596C62.9729 78.6488 61.6216 80.811 61.0811 81.6218C61.6216 81.8921 61.8919 82.1623 62.1621 82.7029Z" />
<path d="M63.7837 92.4326C63.5134 92.9732 63.2432 93.2434 62.7026 93.784C64.054 95.4056 65.4053 96.4867 66.2161 95.4056C67.5675 94.0542 65.4053 92.9732 63.7837 92.4326Z" />
<path d="M64.5945 88.649C66.4864 89.1896 68.108 89.4598 68.108 88.3788C68.108 87.0274 66.2161 86.7571 64.054 86.7571C66.2161 86.2166 68.6486 85.6761 67.5675 84.8652C66.7567 84.0544 64.8648 84.3247 63.2432 84.8652C63.7837 86.2166 64.054 87.8382 64.054 90.0004C64.054 90.5409 64.054 91.0815 63.7837 91.3517C65.1351 92.4328 66.4864 92.9733 67.2972 92.1625C68.6486 91.3517 66.7567 90.0004 64.5945 88.649Z" />
</svg>
