<svg width="100" height="100" viewBox="0 0 100 100"  xmlns="http://www.w3.org/2000/svg">
<path d="M50.2805 1.08789C40.9393 2.02494 36.1024 5.75071 32.1356 10.0147C22.5333 9.63883 15.1126 19.4483 13.9913 34.9512C13.1039 56.1107 18.9292 68.4001 25.1495 80.1673C24.3078 68.1382 17.7378 56.3422 22.8208 45.9155C22.2507 38.1168 22.2298 35.0153 24.3731 30.973C23.4883 36.4154 23.598 40.8733 24.2764 46.3282C22.2216 49.7268 21.7402 54.5817 22.5296 59.0145C26.0691 71.7455 30.8958 79.6507 36.5023 84.6301C40.4115 87.3755 44.4029 90.3967 47.5633 90.6464C53.4273 90.2358 56.6167 87.1503 59.692 83.951C62.2147 81.9486 64.7377 79.2907 67.2605 75.9945L68.5221 71.9196L67.3578 84.5334L71.53 77.4501L66.8726 98.6996C76.9216 89.0915 82.2243 70.3863 82.0091 58.6266L82.9795 70.658C85.4083 60.4803 87.4792 51.7727 85.7934 39.6086C85.0167 30.3956 75.8359 10.5759 67.1632 5.16339C60.4636 1.30379 55.4918 1.47459 50.2805 1.08789ZM51.4242 4.12226C57.4515 4.13488 63.9022 6.27824 69.8209 11.0694C81.3836 23.3887 83.1597 42.3949 83.4741 53.4021C82.4373 44.7896 79.4698 38.59 76.2699 32.6815C84.0907 63.4247 76.6692 73.9818 71.5359 87.5696C83.1139 51.838 75.2963 16.0758 46.8818 8.03741C46.8818 8.03741 42.4445 7.50612 40.6834 9.37508C54.7735 20.778 61.8784 35.744 64.2645 50.6224L64.2633 50.5888L66.3213 61.7724C70.2514 40.7951 65.6886 30.6108 61.0385 20.5375C75.9892 30.191 75.838 63.2326 70.095 75.8371C70.4686 70.7599 70.3744 65.3397 69.4778 60.2626C68.0716 64.068 66.9193 68.313 64.8039 70.6998C64.8098 67.2373 64.0408 59.3652 62.0531 50.6418C59.7478 50.4073 57.5873 49.7395 55.0352 50.2457C54.2329 50.1605 53.5183 50.8633 52.8055 51.5834C52.755 50.6644 52.6331 49.6167 52.9081 48.1876C55.9787 43.2061 57.7794 43.3365 59.8883 42.5445C59.6699 41.8421 59.4434 41.1411 59.2079 40.4434C57.6268 40.808 56.3194 40.8984 54.2098 41.7916C53.622 42.0218 53.0184 42.1248 52.3663 41.8406C52.0922 40.4419 53.0631 39.4281 52.6575 39.2207C54.209 38.4016 55.9636 37.7849 58.2187 37.6696C53.6079 25.4483 46.1653 14.9717 34.6582 16.0788L34.5291 15.7669C34.5631 15.9186 34.569 16.0325 34.5073 16.0546C22.6884 20.2895 18.5621 33.4389 20.0782 45.58C17.1085 54.4252 19.378 59.1698 20.3524 64.9282C15.651 50.524 10.6527 14.2479 33.3199 12.8534L38.5781 7.71611C42.3046 5.39147 46.7364 4.11245 51.4242 4.12226ZM31.1758 33.9165C31.4715 33.9166 31.755 34.034 31.9641 34.2431C32.1732 34.4522 32.2906 34.7357 32.2906 35.0314C32.2906 35.327 32.1732 35.6106 31.9641 35.8196C31.755 36.0287 31.4715 36.1462 31.1758 36.1462C30.8802 36.1462 30.5966 36.0287 30.3876 35.8196C30.1785 35.6106 30.061 35.327 30.061 35.0314C30.061 34.7357 30.1785 34.4522 30.3876 34.2431C30.5966 34.034 30.8802 33.9166 31.1758 33.9165ZM35.2926 33.9165C35.5883 33.9166 35.8718 34.034 36.0809 34.2431C36.2899 34.4522 36.4074 34.7357 36.4074 35.0314C36.4074 35.327 36.2899 35.6106 36.0809 35.8196C35.8718 36.0287 35.5883 36.1462 35.2926 36.1462C34.9969 36.1462 34.7134 36.0287 34.5043 35.8196C34.2953 35.6106 34.1778 35.327 34.1778 35.0314C34.1778 34.7357 34.2953 34.4522 34.5043 34.2431C34.7134 34.034 34.9969 33.9166 35.2926 33.9165ZM35.8474 37.4945C36.0063 37.4936 36.1669 37.4951 36.329 37.4992C38.5987 37.5553 41.1852 38.1138 44.0219 39.4388L44.0461 40.3608C44.3638 40.809 44.3253 41.1301 44.2643 41.4521C43.7541 42.0043 43.5195 41.7547 43.1972 41.7433C31.9384 37.7354 30.2726 40.1148 26.9447 41.2098C28.2635 39.5038 31.2275 37.6613 35.3757 37.5051C35.5313 37.4992 35.6885 37.4955 35.8474 37.4945ZM34.693 42.4555C34.7566 42.4558 34.8203 42.457 34.884 42.4585C38.7823 42.5531 43.1881 44.8149 43.9547 51.6182C43.0368 50.6674 41.8184 49.939 40.6504 50.0636C36.7587 50.5213 33.142 50.7068 31.5537 50.185C28.3217 48.6324 27.0034 46.2077 24.8099 44.1935L26.7991 44.6298L26.6293 43.5144L28.4244 44.1446L27.6963 42.9319L29.7715 43.7519C30.9028 42.9787 32.7239 42.4431 34.693 42.4555ZM60.6865 45.2464L60.989 46.3488C60.8903 45.9818 60.7896 45.6141 60.6865 45.2464ZM31.1245 52.1322L32.0507 52.167L31.776 53.0242C33.0504 53.5821 34.6078 53.6316 36.339 53.3673C31.0672 58.9469 33.3064 64.812 35.035 70.6574C33.7314 66.9755 33.1471 67.6067 31.0903 59.4054C30.9324 57.3575 31.6579 55.8398 32.3938 54.3283C31.7492 54.1538 31.242 54.0952 30.2667 53.642L31.1587 52.7501L31.1245 52.1322ZM53.7317 61.875C53.9757 62.7399 54.421 63.6248 54.2458 64.4477C53.9514 64.7308 53.8249 65.07 53.2854 65.2713V65.8544C53.0574 66.0069 52.8731 65.8217 52.3763 65.8886L52.4618 65.0998C51.4793 64.9217 50.8965 64.9586 50.5069 65.0998L50.5411 65.6144C49.7994 66.2918 48.8733 66.8723 48.0367 67.0553C48.0147 67.0756 46.6152 66.4377 45.7039 65.5461L45.6013 65.134C45.136 64.9118 44.7408 64.9357 44.3662 65.0314C43.9872 65.2944 43.8031 65.6261 44.1086 65.9234L43.1311 65.8715C43.4296 65.743 43.1835 65.4437 43.1311 65.2713C41.856 64.337 42.5517 63.216 42.6896 61.9121C42.9286 62.8829 42.5315 63.6346 43.3711 64.5167L44.2289 63.5564C45.7417 63.5908 46.7276 64.4347 47.7626 65.2029L47.6252 65.8202C48.0425 66.1707 48.3275 66.0804 48.5514 65.786L48.414 65.1682C49.7313 63.9607 50.775 63.5751 51.7762 63.3158C52.5328 63.4993 53.0313 63.8302 53.1481 64.3794C53.7798 63.6455 53.6542 62.7367 53.7317 61.875ZM50.5712 70.464C53.7284 71.0553 54.7164 72.0265 57.3149 72.89C55.1123 74.6896 53.4476 76.5557 48.631 77.1105C40.3666 76.0223 44.2095 75.1966 38.9277 72.7927C41.0208 72.6637 42.3997 71.2431 45.6715 70.5613C46.6323 71.0092 47.8751 71.6986 48.2425 71.4344C49.569 71.2469 49.8694 70.7765 50.5712 70.464ZM48.0179 80.2805C48.1139 80.2799 48.2103 80.282 48.3067 80.287C49.8505 80.3661 51.4473 81.152 53.0113 82.4583C48.5012 80.8838 47.2178 80.9914 43.92 82.3551C45.1873 80.9302 46.5771 80.2898 48.0179 80.2805Z" />
<path d="M36.6133 13.0934C36.8627 12.4119 37.1617 11.7553 37.9512 11.3438C42.0513 10.4455 45.5409 16.4574 46.9048 18.2735C43.8469 16.5832 41.7297 14.093 36.6133 13.0934Z" />
<path d="M60.5238 45.3745L61.1413 48.5992C59.5942 49.0422 57.8428 47.7947 58.1224 46.335C58.6591 45.6373 59.704 45.5403 60.5238 45.3745Z" />
<path d="M32.8742 46.095C34.2899 44.8747 36.926 45.1753 37.9857 46.3009L38.1572 47.0556C37.5772 48.0469 36.8047 48.557 35.8587 48.6336C35.0514 48.8683 32.4146 48.0242 32.8742 46.095Z" />
<path d="M46.0107 6.57023C48.0997 5.18127 51.9416 5.00561 57.2662 7.10388C63.2695 9.67917 64.7037 14.7146 66.0959 17.195C58.2045 9.32863 52.7585 7.93256 46.0107 6.57023Z" />
</svg>
