<svg width="100" height="100" viewBox="0 0 100 100"  xmlns="http://www.w3.org/2000/svg">
<path d="M48.9525 82.4692L43.9774 85.0877C43.4537 85.3496 43.1919 85.6114 43.1919 86.1351V93.205C43.1919 93.9905 43.4537 94.7761 44.2393 95.2998L47.1196 97.6564H48.9525V82.4692Z" />
<path d="M51.0474 82.4692L56.0225 85.0877C56.5462 85.3496 56.808 85.6114 56.808 86.1351V93.205C56.808 93.9905 56.5462 94.7761 55.7606 95.2998L52.8803 97.6564H51.0474V82.4692Z" />
<path d="M48.9526 80.3742C48.9526 80.3742 43.4538 81.4216 41.359 83.5163L37.1694 72.7806L40.8353 64.1396C41.0971 63.3541 41.8827 62.5685 42.6682 62.0448C43.9775 61.2593 46.3341 60.2119 48.9526 60.2119V80.3742Z" />
<path d="M39.7883 84.3022L35.3369 73.8283C35.3369 73.8283 32.1947 71.4717 31.4092 71.4717C30.6236 71.4717 26.4341 73.0428 26.4341 74.8757C26.4341 76.7086 32.9803 91.1102 32.9803 91.1102C32.9803 91.1102 33.7658 91.8958 34.5514 91.8958C35.3369 91.8958 38.7409 88.7536 38.7409 88.7536C38.7409 88.7536 39.7883 87.1825 39.7883 84.3022Z" />
<path d="M51.0474 80.3742C51.0474 80.3742 56.5462 81.4216 58.6409 83.5163L62.8305 72.7806L59.1646 64.1396C58.9028 63.3541 58.1172 62.5685 57.3317 62.0448C56.0225 61.2593 53.6658 60.2119 51.0474 60.2119V80.3742Z" />
<path d="M60.2124 84.3022L64.6638 73.8283C64.6638 73.8283 67.806 71.4717 68.5915 71.4717C69.3771 71.4717 73.5666 73.0428 73.5666 74.8757C73.5666 76.7086 67.0204 91.1102 67.0204 91.1102C67.0204 91.1102 66.2349 91.8958 65.4494 91.8958C64.6638 91.8958 61.2598 88.7536 61.2598 88.7536C61.2598 88.7536 60.2124 87.1825 60.2124 84.3022Z" />
<path d="M29.5762 37.6931C30.8854 39.0023 48.6911 40.0497 48.6911 40.0497V36.6457C48.6911 36.6457 30.3618 35.3364 28.7907 35.3364C27.4814 35.3364 22.2445 39.7878 20.9352 40.8352C20.6734 41.0971 20.6734 41.0971 20.6734 41.3589L18.5786 58.379C18.5786 58.9027 18.8405 59.4264 19.1023 59.6882L27.4814 64.9252C28.267 65.4489 28.7907 65.4489 29.5762 65.4489C31.9328 65.4489 36.9079 64.9252 38.479 63.616C40.312 61.783 43.4541 59.6882 48.9529 59.6882V57.3316C48.9529 57.3316 48.1674 57.3316 45.5489 57.3316C43.4541 57.3316 37.1698 60.4738 35.075 61.5212C34.5513 61.783 34.0276 61.783 33.7658 61.783L23.03 58.6409L23.8156 43.4537C23.8156 42.93 24.0774 42.4063 24.3393 42.1445C25.3866 40.3115 28.5288 36.6457 29.5762 37.6931Z" />
<path d="M44.7634 51.0475C44.7634 51.0475 37.1698 44.5014 34.0277 44.5014C30.8855 44.5014 28.7907 43.7158 28.7907 43.7158C28.7907 43.7158 26.9578 45.2869 28.7907 45.2869C30.6236 45.2869 34.2895 47.3817 34.2895 47.3817C34.2895 47.3817 34.5514 49.2146 33.504 48.1672C32.4566 47.1198 30.6236 47.6435 30.6236 47.6435C30.6236 47.6435 29.8381 47.9054 30.8855 48.9528C31.9329 50.0002 34.5514 52.6186 35.5987 52.6186C36.3843 52.6186 40.0502 51.3094 41.0975 51.3094C42.1449 51.3094 44.5016 52.8805 45.0253 52.8805C45.549 52.8805 47.3819 51.5712 47.3819 50.7857C47.3819 50.262 46.0726 49.7383 44.7634 51.0475Z" />
<path d="M14.9126 82.731L25.1247 71.2097V67.8057L15.96 75.3992L14.9126 82.731Z" />
<path d="M24.3391 67.2819L16.7455 71.9951L9.9375 69.1148L18.0548 62.0449L24.3391 67.2819Z" />
<path d="M70.4241 37.6931C69.1148 39.0023 51.3092 40.0497 51.3092 40.0497V36.6457C51.3092 36.6457 69.6385 35.3364 71.2096 35.3364C72.5189 35.3364 77.7558 39.7878 79.0651 40.8352C79.3269 41.0971 79.3269 41.0971 79.3269 41.3589L81.4217 58.379C81.4217 58.9027 81.1598 59.4264 80.898 59.6882L72.5189 64.9252C71.7333 65.4489 71.2096 65.4489 70.4241 65.4489C68.0675 65.4489 63.0923 64.9252 61.5213 63.616C59.6883 61.783 56.5462 59.6882 51.0474 59.6882V57.3316C51.0474 57.3316 51.8329 57.3316 54.4514 57.3316C56.5462 57.3316 62.8305 60.4738 64.9253 61.5212C65.449 61.783 65.9727 61.783 66.2345 61.783L76.9703 58.6409L76.1847 43.4537C76.1847 42.93 75.9229 42.4063 75.661 42.1445C74.6136 40.3115 71.4715 36.6457 70.4241 37.6931Z" />
<path d="M55.237 51.0475C55.237 51.0475 62.8306 44.5014 65.9728 44.5014C69.1149 44.5014 71.2097 43.7158 71.2097 43.7158C71.2097 43.7158 73.0426 45.2869 71.2097 45.2869C69.3768 45.2869 65.7109 47.3817 65.7109 47.3817C65.7109 47.3817 65.4491 49.2146 66.4964 48.1672C67.5438 47.1198 69.3768 47.6435 69.3768 47.6435C69.3768 47.6435 70.1623 47.9054 69.1149 48.9528C68.0675 50.0002 65.4491 52.6186 64.4017 52.6186C63.3543 52.6186 60.2121 51.3094 59.1647 51.3094C58.1173 51.3094 55.7607 52.8805 55.237 52.8805C54.7133 52.8805 52.8804 51.5712 52.8804 50.7857C52.6185 50.262 53.9278 49.7383 55.237 51.0475Z" />
<path d="M85.0875 82.731L74.8755 71.2097V67.8057L84.0402 75.3992L85.0875 82.731Z" />
<path d="M75.6611 67.2819L83.2547 71.9951L90.0627 69.1148L81.9455 62.0449L75.6611 67.2819Z" />
<path d="M48.953 24.6008H47.9056L45.549 21.7205L37.4317 20.9349L34.2896 7.84255C34.2896 7.84255 47.9056 3.65299 49.2149 2.34375V24.6008H48.953Z" />
<path d="M36.1222 21.9824L31.409 8.89003C31.409 8.89003 23.2917 9.15188 22.5061 8.10449V19.3639L20.9351 20.4113L26.9576 31.4089C27.2194 31.4089 30.8853 21.9824 36.1222 21.9824Z" />
<path d="M26.6958 33.2415L19.3641 20.6729C19.3641 20.6729 14.9127 23.2913 10.7231 27.219L15.6982 33.2415L11.2468 35.86L17.793 42.4062L18.0549 39.264L26.6958 33.2415Z" />
<path d="M17.5311 43.4537L14.6508 41.3589L13.8652 45.2866L17.0074 47.9051L17.5311 43.4537Z" />
<path d="M16.7455 49.7382L13.6033 46.8579C13.6033 46.8579 13.0796 51.5712 12.0322 52.6186C12.0322 52.6186 15.4362 51.833 16.4836 51.833L16.7455 49.7382Z" />
<path d="M51.0475 24.6008H52.0949L54.4515 21.7205L62.5688 20.9349L65.711 7.84255C65.711 7.84255 52.0949 3.65299 50.7856 2.34375V24.6008H51.0475Z" />
<path d="M63.8779 21.9824L68.5912 8.89003C68.5912 8.89003 76.7085 9.15188 77.494 8.10449V19.3639L78.8032 20.1495L72.7807 31.1471C72.7807 31.4089 69.1149 21.9824 63.8779 21.9824Z" />
<path d="M73.3047 33.2419L80.6364 20.9351C80.6364 20.9351 85.0878 23.5535 89.2774 27.4812L84.3023 33.5037L88.7537 36.1222L82.2075 42.6684L81.9457 39.5262L73.3047 33.2419Z" />
<path d="M82.4692 43.4537L85.3496 41.3589L86.1351 45.2866L82.9929 47.9051L82.4692 43.4537Z" />
<path d="M83.2549 49.7382L86.3971 46.8579C86.3971 46.8579 86.9207 51.5712 87.9681 52.6186C87.9681 52.6186 84.5641 51.833 83.5167 51.833L83.2549 49.7382Z" />
</svg>
