<svg width="100" height="100" viewBox="0 0 100 100"  xmlns="http://www.w3.org/2000/svg">
<path d="M42.1903 0.254366C41.0653 0.26696 39.9492 0.362816 38.8458 0.537388C38.0182 0.668318 37.1977 0.843554 36.386 1.0612C36.1154 1.13375 35.8458 1.21086 35.5772 1.29276C33.9656 1.78418 32.391 2.44291 30.866 3.25353C30.6119 3.38864 30.3591 3.52803 30.1078 3.67151C29.8564 3.815 29.6064 3.96253 29.358 4.11425C29.1095 4.26597 28.8628 4.42169 28.6174 4.58151C27.8813 5.06096 27.159 5.57665 26.4525 6.12648C26.217 6.30976 25.9832 6.49685 25.7512 6.68767C24.3592 7.83257 23.0317 9.11192 21.7812 10.5107C21.1559 11.21 20.5498 11.9393 19.9646 12.6964C19.3794 13.4536 18.8151 14.2387 18.2732 15.0499C18.0926 15.3203 17.9143 15.5935 17.7387 15.8696C17.3876 16.4218 17.0466 16.9855 16.7164 17.5598C16.5512 17.8469 16.3887 18.1368 16.229 18.4292C15.9095 19.0141 15.6007 19.6097 15.3034 20.215C15.0062 20.8203 14.7204 21.4354 14.4464 22.06C14.1723 22.6845 13.91 23.3186 13.6602 23.9613C13.5352 24.2826 13.4133 24.6063 13.2946 24.9319C13.0572 25.5833 12.8324 26.2431 12.6205 26.9109C12.0908 28.5805 11.6423 30.2998 11.2826 32.0602C11.0668 33.1163 10.883 34.1875 10.7326 35.2713C10.5321 36.7164 10.391 38.1845 10.3134 39.671C10.294 40.0426 10.2787 40.4154 10.2673 40.7892C10.2215 42.2846 10.24 43.7972 10.3265 45.3227C10.3481 45.7041 10.374 46.0862 10.4042 46.4691C10.1581 46.6387 9.92578 46.8213 9.71022 47.0199C9.2791 47.417 8.91543 47.878 8.64464 48.4274C8.55437 48.6106 8.47422 48.8037 8.40554 49.0073C8.37121 49.1092 8.33971 49.2136 8.31112 49.3209C8.28254 49.4282 8.25702 49.5383 8.23442 49.6513C8.18923 49.8773 8.15618 50.1148 8.13636 50.3649C8.11654 50.615 8.10998 50.8776 8.11743 51.1535C8.12487 51.4295 8.14637 51.7189 8.18297 52.0225C8.23786 52.478 8.32661 52.9658 8.4524 53.4886C8.49433 53.6629 8.54023 53.8409 8.59051 54.0231C8.64079 54.2053 8.69549 54.3917 8.75436 54.5821C8.81322 54.7725 8.87648 54.9669 8.94416 55.1656C9.01186 55.3644 9.08393 55.5675 9.16068 55.7749C9.23743 55.9822 9.31882 56.1939 9.40487 56.4101C9.57695 56.8425 9.76775 57.2928 9.97844 57.7619C10.2945 58.4654 10.655 59.2111 11.0632 60.0023C10.7609 60.9395 10.4797 61.8542 10.2183 62.7468C9.82612 64.0857 9.47878 65.3751 9.17306 66.6166C9.07115 67.0305 8.97386 67.4389 8.88106 67.8422C8.60267 69.052 8.3646 70.2147 8.16379 71.3319C8.02992 72.0767 7.91271 72.8013 7.81086 73.5063C7.75994 73.8588 7.71288 74.2063 7.6696 74.549C7.6263 74.8918 7.5868 75.2298 7.5509 75.5629C7.51501 75.896 7.48255 76.2243 7.45381 76.5479C7.42507 76.8715 7.39992 77.1903 7.37807 77.5045C7.35623 77.8188 7.33792 78.1284 7.32273 78.4334C7.30755 78.7384 7.29558 79.0388 7.28681 79.3347C7.27804 79.6306 7.27242 79.9221 7.26982 80.209C7.26723 80.4959 7.26747 80.7783 7.2708 81.0564C7.27414 81.3344 7.2805 81.6085 7.2895 81.8778C7.29849 82.1472 7.31027 82.4121 7.32469 82.673C7.35354 83.1946 7.39307 83.6992 7.44217 84.1874C7.46673 84.4314 7.49351 84.6714 7.52276 84.9073C7.58126 85.3791 7.6489 85.8349 7.72471 86.2748C7.91424 87.3746 8.1548 88.3763 8.43106 89.2883C8.4863 89.4707 8.54298 89.6497 8.60096 89.825C8.8329 90.5262 9.08586 91.171 9.35173 91.7637C9.88345 92.949 10.4674 93.9259 11.0406 94.7281C11.1839 94.9287 11.3264 95.1183 11.4674 95.2976C11.6084 95.4768 11.7479 95.6456 11.8846 95.8046C12.0213 95.9636 12.1554 96.1129 12.2858 96.2527C13.1993 97.2315 13.9359 97.7534 14.1592 98.0001C14.2637 97.6882 14.3726 97.3791 14.4862 97.0739C14.5998 96.7687 14.7181 96.4675 14.8415 96.1716C15.0884 95.5799 15.3554 95.0095 15.6452 94.4708C15.7901 94.2015 15.9409 93.9401 16.0974 93.688C16.4105 93.1838 16.7474 92.7166 17.1108 92.2969C17.2017 92.192 17.2943 92.0899 17.3885 91.9911C17.4827 91.8923 17.5785 91.7966 17.6761 91.7042C17.8748 92.0338 18.0909 92.4253 18.3199 92.83C18.4343 93.0323 18.552 93.2379 18.6723 93.4407C18.973 93.9476 19.2898 94.4367 19.6138 94.8126C19.6787 94.8878 19.7437 94.9584 19.809 95.0238C20.0049 95.2198 20.2026 95.3682 20.4003 95.4483C20.4662 95.4749 20.5321 95.4941 20.5979 95.5048C20.6957 95.1161 20.8498 94.6789 21.07 94.2126C21.1434 94.0571 21.224 93.8983 21.3125 93.7371C21.4009 93.5758 21.4973 93.412 21.6016 93.2465C21.7058 93.0809 21.8182 92.9135 21.939 92.745C22.0597 92.5766 22.1888 92.4072 22.3268 92.2372C22.6029 91.8974 22.9145 91.5559 23.264 91.2187C23.4388 91.0502 23.623 90.8828 23.8172 90.717C24.0114 90.5513 24.2157 90.3872 24.4301 90.2257C24.8589 89.9027 25.3288 89.5898 25.8428 89.2924C26.0998 89.1437 26.3678 88.9988 26.6472 88.8587C26.9266 88.7185 27.2175 88.5832 27.52 88.4531C27.8225 88.3229 28.1367 88.198 28.463 88.0793C29.0054 88.6244 29.5544 89.1655 30.1124 89.7014C30.3914 89.9694 30.6724 90.236 30.9561 90.5012C31.5235 91.0316 32.1011 91.5563 32.6907 92.0736C32.9854 92.3323 33.2833 92.5891 33.5844 92.844C33.8855 93.099 34.1897 93.3519 34.4978 93.6028C34.8058 93.8537 35.1176 94.1025 35.433 94.349C35.7485 94.5955 36.0678 94.8397 36.3913 95.0815C36.7148 95.3233 37.0424 95.5627 37.3744 95.7995C37.7064 96.0363 38.043 96.2705 38.3841 96.502C38.7252 96.7334 39.0708 96.9619 39.4216 97.1877C39.7723 97.4135 40.1282 97.6364 40.4891 97.8562C40.85 98.0759 41.216 98.2927 41.5877 98.5062C41.9593 98.7197 42.3364 98.9297 42.7193 99.1366C43.1022 99.3434 43.4909 99.5469 43.8856 99.7468H50.0643H56.1145C60.851 97.3482 64.7177 94.4375 68.1852 91.2923C68.4742 91.0302 68.7603 90.7664 69.044 90.5012C69.3277 90.2361 69.6088 89.9694 69.8877 89.7014C70.4457 89.1655 70.9948 88.6244 71.5371 88.0793C71.8635 88.198 72.1776 88.3229 72.4801 88.4531C73.3875 88.8435 74.1895 89.2821 74.8955 89.7495C77.7195 91.6191 79.0111 93.9498 79.4023 95.5048C79.7312 95.451 80.0623 95.1884 80.3863 94.8126C80.7103 94.4367 81.0274 93.9476 81.3281 93.4407C81.4483 93.2379 81.5658 93.0323 81.6803 92.83C81.9092 92.4253 82.1253 92.0337 82.324 91.7042C82.5192 91.889 82.7076 92.0868 82.8893 92.2967C82.8908 92.2989 82.8923 92.3004 82.8937 92.3026C84.1634 93.7712 85.1108 95.8196 85.841 98.0004C85.9686 97.8594 86.2638 97.6286 86.6638 97.2739C86.8638 97.0966 87.0901 96.8885 87.3347 96.645C87.457 96.5233 87.5839 96.3928 87.7143 96.253C87.8448 96.1132 87.9791 95.964 88.1158 95.8049C88.2526 95.6459 88.3918 95.4771 88.5328 95.2979C88.6738 95.1186 88.8165 94.929 88.9598 94.7284C89.533 93.9262 90.117 92.9493 90.6487 91.764C90.7816 91.4676 90.9112 91.1582 91.0366 90.8353C91.162 90.5124 91.2833 90.1759 91.3992 89.8253C91.4573 89.65 91.5139 89.471 91.5691 89.2886C91.8454 88.3766 92.086 87.3749 92.2755 86.2751C92.3513 85.8352 92.4189 85.3794 92.4774 84.9076C92.5067 84.6717 92.5338 84.4317 92.5583 84.1877C92.6073 83.6995 92.6469 83.1949 92.6757 82.6733C92.6902 82.4124 92.702 82.1475 92.711 81.8781C92.72 81.6087 92.7261 81.3348 92.7294 81.0567C92.7324 80.7786 92.7331 80.4963 92.7309 80.2093C92.7279 79.9224 92.7227 79.6309 92.7138 79.335C92.7051 79.0391 92.6932 78.7388 92.6779 78.4338C92.6628 78.1288 92.6442 77.8191 92.6223 77.5048C92.6005 77.1906 92.5753 76.8718 92.5466 76.5482C92.5179 76.2246 92.4857 75.8963 92.4497 75.5632C92.378 74.897 92.2916 74.2116 92.1898 73.5066C92.1388 73.1541 92.084 72.7968 92.0252 72.4344C91.9076 71.7097 91.7738 70.965 91.6232 70.1999C91.4726 69.4347 91.3052 68.6491 91.1196 67.8425C91.0268 67.4392 90.9295 67.0308 90.8276 66.6169C90.6237 65.7893 90.4013 64.9402 90.1596 64.0695C89.9178 63.1988 89.6567 62.3063 89.3751 61.3915C89.2343 60.9341 89.0883 60.4712 88.9372 60.0026C89.0732 59.7389 89.2041 59.4801 89.3297 59.2263C89.4553 58.9726 89.5758 58.7239 89.6911 58.4799C89.8064 58.2359 89.9166 57.9967 90.0219 57.7622C90.1273 57.5276 90.2278 57.2978 90.3234 57.0726C90.7057 56.1716 91.0108 55.3439 91.2463 54.5824C91.3051 54.392 91.3596 54.2056 91.4099 54.0234C91.5104 53.659 91.5939 53.3106 91.6616 52.9775C91.6954 52.8109 91.7252 52.6482 91.7511 52.4891C91.803 52.1709 91.8396 51.8675 91.8613 51.5779C91.894 51.1435 91.8937 50.7403 91.8643 50.3652C91.8444 50.1152 91.8117 49.8776 91.7665 49.6516C91.7438 49.5386 91.7181 49.4285 91.6895 49.3212C91.6324 49.1067 91.5634 48.9032 91.4837 48.7101C91.4438 48.6135 91.4014 48.5193 91.3563 48.4278C91.0855 47.8783 90.7218 47.4173 90.2907 47.0202C90.2188 46.954 90.145 46.8895 90.0696 46.8267C89.9186 46.7012 89.7605 46.5825 89.5965 46.4694C89.6267 46.0865 89.6528 45.7044 89.6744 45.323C89.7176 44.5603 89.7438 43.8008 89.7535 43.045C89.7579 42.6671 89.7594 42.29 89.7565 41.9141C89.7535 41.5382 89.7458 41.1634 89.7344 40.7895C89.723 40.4157 89.7074 40.0429 89.688 39.6713C89.6104 38.1849 89.4694 36.7169 89.2689 35.2718C89.2187 34.9105 89.165 34.5505 89.1074 34.1922C88.9924 33.4755 88.8627 32.7646 88.7188 32.0605C88.3591 30.3002 87.9109 28.5809 87.3811 26.9112C87.2752 26.5773 87.1659 26.2454 87.0535 25.9156C86.7163 24.9259 86.3504 23.9549 85.9573 23.0043C85.8263 22.6874 85.6924 22.3726 85.5553 22.0603C85.4183 21.748 85.2783 21.4382 85.1354 21.1306C84.9925 20.8231 84.8466 20.518 84.698 20.2153C84.4008 19.6101 84.0922 19.0146 83.7727 18.4298C83.613 18.1374 83.4505 17.8474 83.2853 17.5603C83.1202 17.2732 82.9523 16.9886 82.7819 16.7069C82.6115 16.4252 82.4383 16.1461 82.2627 15.87C82.0871 15.5938 81.9091 15.3207 81.7285 15.0503C81.3672 14.5095 80.9958 13.9803 80.6151 13.4633C80.4245 13.2048 80.2317 12.9489 80.0367 12.6965C79.8416 12.4441 79.6443 12.1947 79.4446 11.9486C79.245 11.7025 79.0431 11.4596 78.839 11.2199C78.635 10.9803 78.4287 10.7438 78.2203 10.5107C77.8035 10.0444 77.378 9.59154 76.9445 9.15238C76.7278 8.9328 76.5089 8.71665 76.2882 8.50405C75.6252 7.86623 74.9452 7.26013 74.2492 6.68768C73.5532 6.11523 72.8413 5.57638 72.1147 5.07304C71.8725 4.90526 71.6287 4.74133 71.3833 4.58152C71.1379 4.4217 70.8909 4.26598 70.6425 4.11426C69.8973 3.65909 69.1385 3.24057 68.3679 2.86081C67.3405 2.35449 66.2921 1.91696 65.2262 1.55249C64.9598 1.46137 64.6921 1.37468 64.4235 1.29277C64.1549 1.21087 63.8853 1.13376 63.6148 1.06121C63.0736 0.916107 62.5284 0.789876 61.98 0.683035C61.7057 0.629617 61.4308 0.581041 61.1549 0.537397C60.6032 0.450106 60.0481 0.382559 59.4905 0.335204C59.2118 0.311534 58.9324 0.292853 58.6524 0.279374C58.3724 0.265894 58.0915 0.257519 57.8104 0.254372C57.4889 0.250733 57.1666 0.253985 56.8438 0.26408C56.521 0.274172 56.1974 0.291058 55.8734 0.315053C55.5494 0.339047 55.2248 0.370155 54.8998 0.408261C53.2747 0.598767 51.6379 0.966968 50.0005 1.52579C48.3631 0.966926 46.7262 0.598775 45.101 0.408261C44.776 0.370156 44.4515 0.339048 44.1275 0.315053C43.8034 0.291058 43.4801 0.274172 43.1573 0.26408C42.8345 0.253988 42.5118 0.25077 42.1903 0.254366ZM85.841 98.0004C85.7351 98.1174 85.7442 98.1724 85.905 98.1851C85.8845 98.1228 85.8617 98.0625 85.841 98.0004ZM14.1592 98.0001C14.1385 98.0621 14.1156 98.1228 14.0951 98.1851C14.1353 98.1821 14.166 98.1761 14.1878 98.1674C14.2315 98.1498 14.2395 98.1202 14.2165 98.0766C14.205 98.0547 14.1857 98.0294 14.1592 98.0001ZM43.2909 2.98726C43.5751 2.99229 43.8602 3.00485 44.1455 3.02537C44.4308 3.04588 44.7163 3.07429 45.0016 3.11129C45.287 3.14829 45.5721 3.19396 45.8565 3.24843C46.1995 3.31413 46.5412 3.39456 46.8811 3.48728C47.035 3.52912 47.1883 3.57408 47.3413 3.62175C47.4747 3.6634 47.6076 3.70739 47.7401 3.75355C47.8858 3.80424 48.031 3.85791 48.1756 3.91424C48.3023 3.96362 48.4285 4.01531 48.5542 4.0691C48.7091 4.13538 48.8633 4.20489 49.0166 4.27809C49.1259 4.33021 49.2347 4.38408 49.3431 4.43975C49.5151 4.52826 49.6861 4.62084 49.8557 4.71865C49.9024 4.74548 49.9494 4.77096 49.9958 4.7985C49.9971 4.79894 49.9961 4.80169 49.9977 4.80165C49.9982 4.8012 49.9993 4.80201 50.0002 4.80188C50.0009 4.80201 50.0019 4.8017 50.0024 4.80212C50.0041 4.80213 50.0031 4.79893 50.0043 4.7985C50.0507 4.77096 50.0977 4.74548 50.1443 4.71865C50.314 4.62084 50.485 4.52826 50.657 4.43975C50.7654 4.38408 50.8742 4.33021 50.9835 4.27809C51.1368 4.20489 51.291 4.13538 51.4459 4.0691C51.5723 4.01503 51.6993 3.96314 51.8267 3.91351C51.9699 3.85777 52.1136 3.80449 52.2578 3.75428C52.3917 3.70762 52.526 3.66332 52.6607 3.62127C52.8118 3.57421 52.9632 3.52961 53.1151 3.48825C53.4564 3.39505 53.7992 3.31439 54.1436 3.24843C54.4279 3.19396 54.7131 3.14829 54.9984 3.11129C55.2838 3.07429 55.5695 3.04588 55.8548 3.02537C56.1401 3.00485 56.425 2.99229 56.7092 2.98726C56.9805 2.98245 57.2512 2.98449 57.5209 2.99259C57.7905 3.00073 58.0593 3.01493 58.3265 3.03507C59.1283 3.0955 59.9176 3.20805 60.6827 3.35984C61.1927 3.46104 61.6922 3.57978 62.1777 3.71229C62.9058 3.91107 63.6029 4.14089 64.2571 4.38926C64.9113 4.63763 65.5231 4.90451 66.081 5.1774C66.6389 5.45029 67.1433 5.72936 67.5825 6.00171C66.6693 5.91685 65.8063 5.86852 64.9904 5.85438C60.6389 5.77894 57.6299 6.67878 55.5162 8.22876C55.3841 8.32563 55.2555 8.42496 55.1303 8.52683C54.1285 9.34181 53.3435 10.3142 52.7192 11.4034C52.6412 11.5396 52.5656 11.6776 52.4925 11.8173C52.4212 11.9536 52.3524 12.0918 52.2855 12.2314C52.2819 12.2388 52.2783 12.2463 52.2748 12.2537C52.2084 12.3929 52.144 12.5338 52.0818 12.676C52.0179 12.8224 51.9561 12.9703 51.8964 13.1198C55.7609 9.47157 59.4104 7.92686 62.7338 7.63431C62.7335 7.63433 62.734 7.63429 62.7338 7.63431C63.6398 7.55462 64.5223 7.56797 65.3776 7.65713C65.9479 7.71659 66.5068 7.80991 67.0529 7.93166C67.3259 7.99253 67.5959 8.06055 67.8626 8.13507C68.3961 8.28413 68.9171 8.45923 69.4244 8.65523C71.7073 9.53738 73.7183 10.8431 75.396 12.1059C75.7687 12.3865 76.1252 12.6653 76.4645 12.9365C76.8037 13.2077 77.126 13.4718 77.4303 13.7234C75.9171 13.4022 74.4942 13.1557 73.1549 12.9787C72.4852 12.8903 71.8362 12.8193 71.2074 12.7649C70.8931 12.7377 70.5836 12.7146 70.2792 12.6957C67.5388 12.5254 65.1952 12.6865 63.1714 13.1183C62.9465 13.1663 62.7256 13.2176 62.5085 13.2722C62.2914 13.3268 62.0782 13.3845 61.8687 13.4455C61.6591 13.5065 61.4533 13.5707 61.2511 13.638C60.4425 13.9071 59.6919 14.2256 58.9925 14.5883C58.1183 15.0416 57.3242 15.5639 56.5968 16.1447C56.4513 16.2608 56.3084 16.3793 56.1682 16.5C56.0279 16.6208 55.8903 16.7438 55.755 16.869C55.4846 17.1193 55.2239 17.3784 54.9722 17.6455C59.5087 15.0126 65.687 13.849 70.8999 14.4405C71.1742 14.4716 71.4459 14.5076 71.7145 14.5485C71.983 14.5893 72.2488 14.6354 72.5109 14.6861C72.7729 14.7368 73.0318 14.7924 73.2867 14.8531C74.3061 15.0958 75.2649 15.4182 76.138 15.823C76.7928 16.1267 77.3997 16.477 77.9483 16.8745C78.4968 17.2721 78.9873 17.7171 79.409 18.2108C90.8642 31.6193 86.4426 52.3085 85.2146 60.4358C85.1722 60.7168 85.1331 60.9842 85.0991 61.2344C85.0639 61.4925 85.0335 61.7337 85.009 61.9572C84.9602 62.4043 84.9342 62.7804 84.9384 63.0781L84.6088 70.4595L83.9073 69.6126L82.7854 65.0993C82.8162 64.9405 82.8365 64.7714 82.8489 64.5937C82.8739 64.2384 82.8672 63.8493 82.8492 63.4417C82.8402 63.2379 82.8284 63.0295 82.8162 62.8184C82.8157 62.8109 82.8155 62.8031 82.8147 62.7956C82.7661 61.9579 82.713 61.0792 82.8125 60.2785C83.0467 59.3634 83.2601 58.3886 83.4492 57.3657C83.6382 56.3429 83.803 55.2721 83.94 54.1649C84.077 53.0576 84.1862 51.9139 84.2643 50.7458C84.3033 50.1617 84.3347 49.5714 84.3577 48.9765C84.4267 47.1917 84.4216 45.3648 84.3311 43.535C84.2555 42.0102 84.1205 40.4835 83.9194 38.9777C83.8389 38.3754 83.7481 37.7764 83.6461 37.1823C83.544 36.5881 83.4307 35.999 83.3062 35.4159C83.0572 34.2499 82.7626 33.1088 82.4186 32.0046C82.3326 31.7286 82.2435 31.455 82.1513 31.1837C82.0591 30.9124 81.9639 30.6437 81.8654 30.3776C81.7669 30.1115 81.665 29.8481 81.56 29.5875C81.4551 29.3269 81.347 29.0691 81.2355 28.8144C81.1241 28.5597 81.0094 28.308 80.8913 28.0595C80.7732 27.8111 80.6518 27.5659 80.527 27.3241C80.4022 27.0822 80.2739 26.8438 80.1423 26.609C80.0106 26.3741 79.8755 26.1428 79.7369 25.9152C79.5983 25.6877 79.4561 25.4639 79.3104 25.2441C79.1647 25.0243 79.0155 24.8085 78.8626 24.5967C78.7097 24.385 78.5533 24.1774 78.3932 23.9741C78.0729 23.5676 77.7378 23.1782 77.3878 22.8076C77.0378 22.437 76.6727 22.0851 76.2921 21.7534C75.9116 21.4217 75.5154 21.11 75.1033 20.8201C74.4852 20.3853 73.831 19.999 73.1397 19.6664C72.9093 19.5556 72.6745 19.4506 72.4357 19.3518C71.7198 19.0556 70.9654 18.8146 70.172 18.6339C69.9076 18.5736 69.6386 18.5201 69.3654 18.4734C67.7257 18.1932 65.9269 18.1603 63.9576 18.4144C64.4904 18.5297 65.0087 18.6534 65.5131 18.7853C67.5304 19.3131 69.3238 19.9729 70.9148 20.7514C71.7102 21.1407 72.4554 21.5597 73.1525 22.0068C73.501 22.2304 73.8377 22.461 74.1627 22.6984C74.3252 22.817 74.4849 22.9377 74.6416 23.0598C74.9551 23.304 75.2573 23.5548 75.5482 23.8122C82.0954 29.6051 83.0282 38.701 82.2582 48.7979C81.8819 47.8394 81.5766 46.8626 81.3109 45.8766C81.178 45.3836 81.0551 44.8884 80.938 44.3918C80.821 43.8953 80.7097 43.3976 80.6006 42.8998C80.2188 41.1575 79.8615 39.4142 79.3596 37.7185C79.1445 36.9917 78.9029 36.2737 78.6214 35.5681C78.5276 35.3329 78.4292 35.0991 78.326 34.8669C77.9132 33.9379 77.4218 33.0334 76.8201 32.1624C76.6696 31.9446 76.5124 31.7289 76.3477 31.5155C76.183 31.3021 76.0109 31.0908 75.831 30.882C75.651 30.6732 75.4631 30.4667 75.2669 30.2628C74.482 29.4471 73.5631 28.6718 72.4789 27.9457C71.9367 27.5826 71.353 27.2317 70.7242 26.8944C70.7863 26.8638 70.8375 26.8258 70.8904 26.7891C70.9433 26.7524 70.9981 26.7169 71.0672 26.691C71.1708 26.6522 71.3069 26.6349 71.5184 26.668C71.5889 26.679 71.668 26.6955 71.7568 26.7187L73.844 27.8391C73.7349 27.6793 73.6208 27.521 73.5005 27.3643C73.26 27.051 72.9953 26.7444 72.6988 26.4468C72.4023 26.1493 72.0741 25.8608 71.707 25.5832C71.5235 25.4444 71.3301 25.3082 71.1261 25.1752C70.7182 24.9091 70.2673 24.6551 69.7666 24.4152C69.5162 24.2952 69.2531 24.1788 68.9768 24.0661C68.4241 23.8409 67.8176 23.6306 67.15 23.4377C66.4825 23.2448 65.7538 23.0692 64.9567 22.9129C64.5582 22.8348 64.1422 22.7615 63.7086 22.6933C62.841 22.5568 61.9012 22.4406 60.882 22.3469L64.8836 22.2037C64.7258 22.133 64.5632 22.0663 64.396 22.0037C64.0615 21.8784 63.7088 21.7688 63.3416 21.6723C62.9743 21.5759 62.5918 21.4926 62.1981 21.4201C62.0011 21.3839 61.8011 21.3505 61.5988 21.3194C61.194 21.2572 60.7791 21.2046 60.3574 21.1592C59.9358 21.1139 59.5073 21.0757 59.0751 21.0425C58.6429 21.0092 58.2066 20.9808 57.7702 20.9548C56.8971 20.9028 56.0217 20.8606 55.1698 20.8089L50.0104 17.0326V17.0243H50.0073H49.9929H49.9898V17.0326L44.8304 20.8089C43.5525 20.8864 42.2222 20.9426 40.9253 21.0425C40.0607 21.109 39.2109 21.195 38.4014 21.3194C38.1991 21.3505 37.9993 21.3839 37.8024 21.4201C37.6054 21.4564 37.4113 21.4955 37.2206 21.5374C36.4577 21.7051 35.748 21.9207 35.1166 22.2037L39.1182 22.3469C38.6086 22.3937 38.1188 22.4461 37.648 22.5039C37.1772 22.5617 36.7256 22.625 36.2919 22.6933C35.8581 22.7615 35.4423 22.8348 35.0438 22.9129C33.4494 23.2256 32.1288 23.6156 31.0234 24.0661C30.7471 24.1788 30.4842 24.2952 30.2338 24.4152C29.4826 24.7751 28.8442 25.1668 28.2934 25.5832C28.1099 25.722 27.9358 25.8634 27.7708 26.0075C27.6059 26.1515 27.4499 26.2981 27.3017 26.4468C27.0052 26.7444 26.7402 27.051 26.4997 27.3643C26.3794 27.521 26.2653 27.6793 26.1562 27.8391L28.2434 26.7187C28.3323 26.6954 28.4113 26.679 28.4818 26.6679C28.6934 26.6349 28.8296 26.6521 28.9333 26.691C29.0017 26.7167 29.0559 26.7517 29.1083 26.7881C29.1088 26.7884 29.1092 26.7887 29.1097 26.7891C29.1625 26.8258 29.2139 26.8638 29.276 26.8944C27.7039 27.7377 26.4149 28.6651 25.3476 29.6588C25.1342 29.8576 24.9297 30.0588 24.7335 30.2628C24.5373 30.4667 24.3494 30.6731 24.1694 30.882C23.9894 31.0908 23.8174 31.3021 23.6526 31.5155C23.1585 32.1558 22.7307 32.8161 22.3562 33.4928C22.2314 33.7183 22.1124 33.9458 21.9989 34.1748C21.8854 34.4039 21.7773 34.6346 21.6742 34.8669C21.571 35.0991 21.4728 35.3329 21.379 35.5681C20.816 36.9792 20.4123 38.4402 20.0617 39.921C19.9448 40.4146 19.8338 40.9104 19.7248 41.4072C19.5067 42.4008 19.2962 43.3987 19.0621 44.3918C18.9451 44.8884 18.8222 45.3836 18.6893 45.8766C18.6228 46.1231 18.5539 46.369 18.482 46.6143C18.2664 47.3499 18.0242 48.079 17.7419 48.7978C17.7077 48.3491 17.6768 47.9023 17.6497 47.4577C17.6225 47.0131 17.5992 46.5708 17.5798 46.1307C17.5604 45.6907 17.5448 45.2529 17.5339 44.8178C17.4901 43.0775 17.5166 41.3787 17.6353 39.7341C17.665 39.3229 17.7006 38.9151 17.7421 38.511C17.7837 38.1068 17.8315 37.7062 17.8856 37.3095C17.9397 36.9127 18.0003 36.5195 18.0677 36.1305C18.2698 34.9635 18.5332 33.8325 18.867 32.743C19.0895 32.0166 19.3432 31.3087 19.6311 30.6208C20.6387 28.2131 22.0636 26.0508 24.0235 24.2033C24.1635 24.0713 24.3062 23.941 24.4517 23.8122C24.5972 23.6835 24.7455 23.5563 24.8966 23.4309C25.1988 23.18 25.5121 22.9358 25.8372 22.6983C26.1622 22.4609 26.4991 22.2304 26.8477 22.0068C27.022 21.895 27.1992 21.7849 27.3795 21.6767C27.5598 21.5685 27.7431 21.4619 27.9295 21.3573C28.1159 21.2526 28.3054 21.1498 28.498 21.0488C28.6906 20.9477 28.8865 20.8487 29.0854 20.7514C31.0742 19.7782 33.3789 18.9907 36.0425 18.4144C35.0579 18.2874 34.116 18.2321 33.2152 18.2435C32.9149 18.2474 32.6192 18.2585 32.328 18.277C31.4546 18.3325 30.6216 18.4531 29.8281 18.6338C29.5636 18.6941 29.3036 18.7611 29.0478 18.8346C28.7919 18.908 28.5404 18.9881 28.2931 19.0744C27.7986 19.247 27.3212 19.4447 26.8603 19.6664C26.6298 19.7773 26.4033 19.8941 26.1811 20.0167C25.9589 20.1393 25.7408 20.2677 25.5267 20.4016C25.0986 20.6695 24.6865 20.9599 24.2903 21.2711C23.2996 22.0491 22.4073 22.9577 21.6066 23.9741C21.4465 24.1774 21.2901 24.385 21.1372 24.5967C20.9843 24.8085 20.8351 25.0243 20.6894 25.2441C20.5437 25.4639 20.4015 25.6877 20.2629 25.9152C20.1243 26.1428 19.9892 26.3741 19.8575 26.609C19.7259 26.8438 19.5974 27.0822 19.4726 27.324C19.3477 27.5659 19.2263 27.8111 19.1082 28.0595C18.9901 28.308 18.8755 28.5597 18.764 28.8144C18.6526 29.0691 18.5444 29.3269 18.4395 29.5875C18.3346 29.8481 18.2329 30.1115 18.1344 30.3776C18.0359 30.6437 17.9404 30.9124 17.8482 31.1837C17.756 31.4549 17.667 31.7286 17.581 32.0046C17.409 32.5567 17.2494 33.1179 17.1016 33.687C16.9538 34.256 16.8178 34.8329 16.6933 35.4159C16.5688 35.999 16.4558 36.5881 16.3537 37.1823C16.2517 37.7764 16.1606 38.3754 16.0802 38.9777C15.8791 40.4835 15.744 42.0102 15.6685 43.535C15.5779 45.3647 15.573 47.1917 15.6421 48.9765C15.6881 50.1664 15.7669 51.3375 15.8753 52.4781C15.9295 53.0484 15.9911 53.6112 16.0595 54.1648C16.128 54.7184 16.2036 55.263 16.2855 55.797C16.3675 56.3309 16.4558 56.8543 16.5503 57.3657C16.7394 58.3886 16.9528 59.3634 17.187 60.2785C17.2122 60.4804 17.2276 60.6874 17.2358 60.8974C17.2441 61.1074 17.2452 61.3206 17.2416 61.5348C17.2344 61.9633 17.2086 62.3962 17.1841 62.8184C17.1596 63.2406 17.1364 63.6521 17.1348 64.0374C17.1332 64.4227 17.1532 64.7817 17.2147 65.0993L16.0928 69.6126L15.3913 70.4598L15.0617 63.0781C15.0658 62.7804 15.04 62.4042 14.9911 61.9572C14.9666 61.7337 14.9364 61.4925 14.9012 61.2343C14.8661 60.9762 14.8261 60.7012 14.782 60.4103C14.6058 59.2464 14.3648 57.827 14.1148 56.2101C13.8647 54.5932 13.6054 52.7785 13.3924 50.8239C13.1262 48.3806 12.9322 45.7185 12.9186 42.9502C12.9132 41.8429 12.9368 40.7189 12.996 39.5848C13.0257 39.0178 13.0642 38.4482 13.1125 37.8772C13.3061 35.5931 13.6568 33.2842 14.2199 31.0084C14.431 30.155 14.6721 29.3062 14.9459 28.4651C15.1284 27.9044 15.3256 27.3472 15.5381 26.7942C15.6444 26.5177 15.7546 26.2421 15.8687 25.9679C16.097 25.4194 16.3409 24.8758 16.6018 24.3377C17.1235 23.2616 17.7121 22.2083 18.3747 21.1847C18.5403 20.9288 18.7106 20.6748 18.8856 20.4228C19.0606 20.1707 19.2404 19.9207 19.425 19.6727C19.7941 19.1768 20.1824 18.6891 20.591 18.2108C20.7316 18.0462 20.8798 17.8871 21.0352 17.7333C21.1907 17.5795 21.3534 17.431 21.5229 17.2879C21.6924 17.1448 21.8689 17.0071 22.0518 16.8745C22.2347 16.742 22.4239 16.6147 22.6193 16.4927C22.8147 16.3707 23.0162 16.2538 23.2234 16.1422C23.6379 15.9191 24.0753 15.7168 24.5325 15.5349C25.2182 15.262 25.9487 15.0351 26.7134 14.8531C26.9683 14.7924 27.227 14.7368 27.4892 14.6861C28.0135 14.5846 28.5514 14.5027 29.1002 14.4404C29.6489 14.3782 30.2082 14.3355 30.7753 14.3118C31.3423 14.2881 31.9171 14.2835 32.4964 14.2977C33.0758 14.3119 33.6598 14.3449 34.2453 14.3963C34.5381 14.422 34.8313 14.4522 35.1245 14.487C35.4177 14.5219 35.7108 14.5615 36.0036 14.6055C36.2965 14.6495 36.5889 14.6979 36.8806 14.7509C37.464 14.8569 38.0444 14.9809 38.6188 15.1225C38.9059 15.1933 39.1919 15.2685 39.4757 15.348C40.0433 15.5071 40.6032 15.6837 41.1527 15.8774C41.7021 16.071 42.2411 16.2817 42.7663 16.5092C43.5542 16.8506 44.3116 17.2297 45.0278 17.6454C44.902 17.5119 44.774 17.3804 44.6436 17.251C44.3828 16.9921 44.1124 16.7415 43.8319 16.5C43.6917 16.3793 43.5487 16.2608 43.4033 16.1446C43.2578 16.0285 43.1097 15.9148 42.9588 15.8034C42.3551 15.3578 41.7069 14.9509 41.0075 14.5883C40.3081 14.2256 39.5575 13.9071 38.7489 13.638C38.5468 13.5707 38.3409 13.5065 38.1314 13.4455C37.9219 13.3845 37.7087 13.3268 37.4916 13.2722C37.2745 13.2176 37.0536 13.1663 36.8287 13.1183C36.3789 13.0223 35.9134 12.9398 35.4313 12.8712C34.9491 12.8026 34.4504 12.7481 33.9341 12.7083C33.676 12.6884 33.4135 12.672 33.1465 12.6595C32.8795 12.6471 32.6082 12.6384 32.3321 12.6336C31.228 12.6141 30.0505 12.6561 28.7929 12.7649C28.1641 12.8193 27.5152 12.8903 26.8455 12.9787C26.1757 13.0672 25.4851 13.1731 24.7728 13.2969C24.4166 13.3589 24.0549 13.4254 23.6878 13.4965C23.3207 13.5675 22.9481 13.6431 22.5698 13.7234C22.8742 13.4717 23.1963 13.2078 23.5356 12.9365C23.8749 12.6652 24.2313 12.3865 24.6041 12.1059C24.9769 11.8252 25.3661 11.5426 25.7711 11.2629C25.9737 11.123 26.1802 10.9838 26.3906 10.8461C26.8113 10.5706 27.2473 10.3007 27.6982 10.0415C28.3745 9.65262 29.0841 9.28797 29.8247 8.96447C30.0716 8.85663 30.3221 8.75325 30.5757 8.65523C31.0831 8.4592 31.6036 8.28414 32.1372 8.13506C32.9376 7.91144 33.7669 7.74632 34.6225 7.65713C36.9025 7.41945 39.3707 7.72083 41.9845 8.88728C41.9863 8.88809 41.988 8.88868 41.9898 8.88949C41.9917 8.89031 41.9937 8.89134 41.9957 8.89215C43.9559 9.76863 45.9978 11.1317 48.1037 13.1198C48.044 12.9703 47.9822 12.8224 47.9183 12.6761C47.8543 12.5297 47.7884 12.3847 47.72 12.2416C47.6515 12.0984 47.5807 11.957 47.5076 11.8173C47.3613 11.5379 47.2054 11.2653 47.0391 11.0005C46.9559 10.8681 46.8703 10.7378 46.7818 10.6092C46.6048 10.3522 46.4167 10.1029 46.217 9.86234C46.0172 9.62178 45.8057 9.38971 45.5815 9.16692C45.4694 9.05557 45.3541 8.9464 45.2356 8.83972C45.1171 8.73304 44.9951 8.62875 44.8698 8.52688C44.6194 8.32313 44.3555 8.12922 44.0771 7.94579C43.6595 7.67064 43.2093 7.41919 42.7239 7.19332C42.4002 7.04275 42.0609 6.90364 41.7049 6.77656C41.5269 6.71301 41.3447 6.65243 41.1583 6.59499C40.9718 6.53756 40.7812 6.48329 40.5861 6.43212C40.3911 6.38096 40.1917 6.33292 39.9878 6.28818C38.5606 5.97505 36.9137 5.82142 35.0099 5.85443C34.466 5.86385 33.901 5.8884 33.3142 5.92895C33.0208 5.94922 32.722 5.97347 32.4176 6.00176C33.2961 5.45699 34.4344 4.8861 35.743 4.38931C36.1792 4.22372 36.6342 4.06625 37.1049 3.92084C37.811 3.70273 38.5523 3.5117 39.3174 3.35989C40.0825 3.20809 40.8715 3.09555 41.6733 3.03512C41.9406 3.01498 42.2095 3.00078 42.4792 2.99265C42.7489 2.98452 43.0196 2.98245 43.2909 2.98726ZM27.7533 39.3838C28.7284 39.4301 29.6888 39.5108 30.634 39.627C31.1066 39.6852 31.5752 39.7523 32.0401 39.8283C32.5051 39.9042 32.9662 39.9889 33.4234 40.0829C35.2523 40.4587 37.019 40.9795 38.7208 41.6519L41.7345 45.5045C41.7173 45.6359 41.6709 45.7087 41.6093 45.7511C41.5476 45.7935 41.4708 45.8056 41.3927 45.8152C40.6086 45.5474 39.8254 45.2631 39.0421 44.9812C38.2588 44.6992 37.4754 44.4196 36.6906 44.1617C36.2982 44.0328 35.9054 43.9093 35.5121 43.7935C35.1189 43.6777 34.7251 43.5697 34.3308 43.4719C34.1336 43.423 33.9363 43.3766 33.7387 43.333C33.3437 43.246 32.9481 43.17 32.5516 43.108C31.9567 43.015 31.3597 42.953 30.7605 42.9299C29.9615 42.8991 29.1583 42.9375 28.3494 43.0643C28.1472 43.096 27.9445 43.1334 27.7416 43.1765C26.727 43.3917 25.7033 43.7524 24.6682 44.2959C24.4612 44.4047 24.2538 44.5206 24.0458 44.6443C23.8379 44.7679 23.6295 44.8993 23.4206 45.0385C23.2116 45.1776 23.0021 45.3245 22.7921 45.4797C22.5822 45.635 22.3718 45.7986 22.1608 45.9705C22.111 45.9763 22.0661 45.9785 22.0258 45.9776C21.9049 45.9748 21.8247 45.9436 21.7734 45.8921C21.7563 45.875 21.7425 45.8555 21.7314 45.8341C21.6981 45.77 21.6898 45.6885 21.6947 45.5977C21.8234 45.3627 21.9393 45.1318 22.0518 44.903C22.1643 44.6742 22.2733 44.4473 22.3882 44.2202C22.5032 43.9931 22.6239 43.7659 22.7598 43.5362C22.8278 43.4213 22.8996 43.3059 22.9764 43.1896C23.1298 42.9568 23.3033 42.7206 23.5058 42.4786C24.0119 41.8736 24.6999 41.2328 25.7156 40.5217C25.9187 40.3795 26.1349 40.2344 26.3653 40.0863C26.5958 39.9381 26.8407 39.7869 27.1008 39.6324L27.2251 39.9431L28.2193 40.6266L27.8154 39.6634L27.7533 39.3838ZM72.2468 39.3838L72.1847 39.6635L71.7808 40.6266L72.775 39.9431L72.8993 39.6324C73.6798 40.0961 74.3214 40.5296 74.8557 40.9402C77.1707 42.7195 77.4693 44.0703 78.3053 45.5977C78.3186 45.84 78.2374 46.0162 77.8393 45.9705C77.4174 45.6266 76.9976 45.3167 76.5798 45.0385C76.3709 44.8993 76.1624 44.7679 75.9545 44.6443C75.3307 44.2734 74.711 43.9709 74.0952 43.7289C73.89 43.6483 73.685 43.5743 73.4806 43.5068C73.2762 43.4393 73.072 43.3783 72.8684 43.3233C72.4612 43.2134 72.0553 43.1277 71.6509 43.0643C71.2465 43.0009 70.8432 42.9597 70.4414 42.9381C69.236 42.8733 68.0416 42.9858 66.8543 43.2112C66.6565 43.2488 66.4589 43.2895 66.2613 43.333C66.0638 43.3766 65.8665 43.423 65.6693 43.4719C63.3032 44.059 60.9599 45.0118 58.6074 45.8152C58.4909 45.8008 58.3772 45.7808 58.3127 45.6625C58.3124 45.662 58.312 45.6618 58.3117 45.6613C58.3114 45.6606 58.3111 45.6597 58.3108 45.659C58.2898 45.6194 58.2741 45.5692 58.2656 45.5044L61.2793 41.6518C64.6828 40.307 68.3463 39.5688 72.2468 39.3838ZM40.5539 42.3354L40.8024 42.4286L41.7966 42.6772L44.6861 46.4676C44.7044 46.5812 44.7384 46.6972 44.7431 46.8084C44.7454 46.864 44.7405 46.9187 44.7225 46.9708C44.7135 46.9969 44.7013 47.0226 44.6851 47.0475C44.6689 47.0724 44.6487 47.0966 44.624 47.1201L42.8219 46.2502L40.2742 42.7083L40.3053 42.5218L40.5539 42.3354ZM59.4462 42.3354L59.695 42.5218L59.7259 42.7083L57.1782 46.2502L55.3761 47.1201C55.3513 47.0966 55.3314 47.0724 55.3152 47.0475C55.299 47.0226 55.2866 46.9969 55.2776 46.9708C55.2596 46.9187 55.2546 46.8642 55.257 46.8087C55.2616 46.6974 55.2957 46.5812 55.314 46.4676L58.2034 42.6772L59.1977 42.4286L59.4462 42.3354ZM31.6265 47.0844L31.8683 47.6116C32.8875 47.6054 33.7789 47.6631 34.5635 47.7772C34.7597 47.8057 34.9491 47.8376 35.1323 47.8731C35.4986 47.9439 35.8397 48.0286 36.158 48.1257C36.7947 48.3201 37.3406 48.5653 37.8171 48.8537C38.0554 48.9979 38.2765 49.1529 38.4826 49.3178C38.5858 49.4002 38.6851 49.4851 38.7812 49.5724C39.0694 49.8343 39.3275 50.1175 39.5645 50.4186C39.6435 50.5189 39.7202 50.6214 39.7948 50.7256C39.9441 50.9341 40.0853 51.15 40.2211 51.3727C40.3569 51.5954 40.4874 51.8247 40.615 52.0597C40.9979 52.7646 41.3561 53.5209 41.7612 54.303C42.0313 54.8243 42.3221 55.3571 42.6552 55.8941C42.1567 55.7535 41.7636 55.6225 41.299 55.4851C41.0668 55.4163 40.8167 55.3462 40.5264 55.2722C40.2362 55.1982 39.906 55.1205 39.5135 55.0372C39.4481 55.0192 39.3726 55.0047 39.288 54.9935C39.2035 54.9823 39.1098 54.9743 39.0077 54.9688C38.395 54.9358 37.4805 54.9955 36.433 55.0263C36.0839 55.0366 35.72 55.0437 35.3476 55.043C34.9751 55.0424 34.5941 55.034 34.2109 55.0134C34.0192 55.0032 33.8271 54.9898 33.6351 54.9729C33.0592 54.9221 32.4851 54.8388 31.9341 54.7078C31.2459 54.5063 30.6828 54.2977 30.193 54.0753C29.8664 53.927 29.5724 53.7726 29.2953 53.6102C29.1568 53.529 29.0224 53.4459 28.8905 53.3605C28.6266 53.1895 28.3722 53.0094 28.1115 52.8184C28.0827 52.7793 28.0521 52.743 28.0198 52.7094C27.9551 52.6423 27.8836 52.586 27.8062 52.5391C27.7675 52.5156 27.7271 52.4946 27.6856 52.4757C27.5193 52.3999 27.3315 52.3589 27.1292 52.3422C27.0281 52.3338 26.9234 52.3316 26.8161 52.3339C26.7088 52.3363 26.5988 52.3433 26.4872 52.3536C26.2639 52.3743 26.0339 52.4083 25.8046 52.4449C25.8425 52.3464 25.8952 52.2558 25.958 52.1703C26.1466 51.9139 26.4257 51.7027 26.6615 51.4562H26.4462C26.47 51.4548 26.4833 51.4506 26.4872 51.4434C26.4912 51.4362 26.4858 51.4261 26.4722 51.4133C26.4177 51.3618 26.2319 51.265 25.9886 51.1254C25.7454 50.9858 25.4449 50.8032 25.1609 50.5795C25.0899 50.5236 25.0199 50.465 24.9522 50.404C24.8844 50.343 24.8188 50.2795 24.7565 50.2135C24.6943 50.1474 24.6357 50.0789 24.5813 50.0079C24.4726 49.8659 24.3818 49.714 24.3184 49.5525C24.2867 49.4718 24.2618 49.3887 24.2449 49.3032L26.2221 49.1056C26.0628 48.9136 25.8722 48.7273 25.7947 48.5612C25.7753 48.5197 25.7629 48.4793 25.76 48.4406C25.7541 48.3631 25.7856 48.2918 25.8724 48.2282C25.9158 48.1964 25.973 48.1665 26.0464 48.1388L26.7493 48.2927L26.9032 48.5563L28.2652 48.4245L28.6167 47.5456L29.2759 47.7653L29.5614 48.051L30.6818 47.9631L30.9893 47.2162L31.6265 47.0844ZM68.3736 47.0844L69.0107 47.2162L69.3183 47.9631L70.4387 48.051L70.7242 47.7653L71.3834 47.5456L71.7349 48.4245L73.0969 48.5563L73.2508 48.2927L73.9537 48.1388C74.5406 48.3599 74.0966 48.7216 73.778 49.1056L75.7552 49.3032C75.5015 50.5858 73.4537 51.3355 73.5129 51.4434C73.5168 51.4505 73.5301 51.4548 73.5539 51.4562H73.3386C73.653 51.7848 74.0442 52.0508 74.1954 52.4449C73.6224 52.3535 73.0444 52.278 72.5791 52.3868C72.4861 52.4086 72.3977 52.4378 72.3146 52.4757C72.2314 52.5136 72.1538 52.56 72.0825 52.6167C72.0112 52.6734 71.9462 52.7402 71.8886 52.8184C70.8461 53.5824 69.9011 54.1703 68.0661 54.7078C65.1273 55.4065 61.5339 54.7486 60.4866 55.0372C58.9168 55.3703 58.3419 55.613 57.3449 55.894C57.5115 55.6256 57.6675 55.3581 57.8156 55.0926C58.4081 54.0305 58.8748 52.9996 59.3853 52.0596C59.513 51.8247 59.6432 51.5954 59.779 51.3727C61.137 49.1459 63.0358 47.5808 68.1318 47.6116L68.3736 47.0844ZM32.9887 48.9078C33.2288 48.9318 33.4516 48.9523 33.6664 48.9716C33.4432 48.9456 33.2172 48.9243 32.9887 48.9078ZM33.6664 48.9716C35.7882 49.2197 37.6589 49.9255 39.0242 51.5531C37.1178 49.2072 36.2527 49.2042 33.6664 48.9716ZM67.0116 48.9078C66.7834 48.9243 66.5576 48.9454 66.3347 48.9714C66.5491 48.9521 66.7719 48.9317 67.0116 48.9078ZM66.3347 48.9714C63.7476 49.204 62.8826 49.2069 60.9759 51.5531C62.3414 49.9253 64.2125 49.2194 66.3347 48.9714ZM32.804 49.2993C31.5195 49.3216 30.0568 49.794 28.3312 50.929C28.115 51.3357 28.275 51.366 28.3312 51.5002C32.8721 55.0544 36.1542 53.1861 40.0628 53.8949C38.9681 52.7991 37.9063 51.6282 36.7333 50.7424C36.7851 50.9184 36.8113 51.0991 36.8115 51.2805C36.8115 51.5748 36.7427 51.8662 36.6091 52.1381C36.4755 52.4099 36.2797 52.657 36.0328 52.8651C35.786 53.0731 35.4929 53.2382 35.1704 53.3508C34.8479 53.4634 34.5022 53.5214 34.1531 53.5214C33.804 53.5214 33.4583 53.4634 33.1358 53.3508C32.8132 53.2382 32.5202 53.0731 32.2733 52.8651C32.0265 52.657 31.8307 52.4099 31.6971 52.1381C31.5635 51.8662 31.4947 51.5748 31.4947 51.2805C31.4949 50.8728 31.6271 50.4729 31.877 50.1238C32.1269 49.7748 32.485 49.4898 32.9127 49.2996C32.8765 49.2995 32.8405 49.2987 32.804 49.2993ZM67.1961 49.2993C67.1596 49.2987 67.1236 49.2995 67.0874 49.2996C67.5151 49.4898 67.8732 49.7748 68.1231 50.1238C68.373 50.4729 68.5051 50.8728 68.5054 51.2805C68.5054 51.5748 68.4366 51.8662 68.303 52.1381C68.1694 52.4099 67.9736 52.657 67.7268 52.8651C67.4799 53.0731 67.1869 53.2382 66.8643 53.3508C66.5418 53.4634 66.1961 53.5214 65.847 53.5214C65.4979 53.5214 65.1522 53.4634 64.8297 53.3508C64.5072 53.2382 64.2141 53.0731 63.9673 52.8651C63.7204 52.657 63.5246 52.4099 63.391 52.1381C63.2574 51.8662 63.1886 51.5748 63.1886 51.2805C63.1888 51.0991 63.215 50.9184 63.2668 50.7424C62.0938 51.6282 61.032 52.7991 59.9373 53.8949C63.8459 53.1861 67.128 55.0544 71.6689 51.5002C71.7251 51.366 71.8851 51.3357 71.6689 50.929C69.9433 49.794 68.4806 49.3216 67.1961 49.2993ZM60.9696 51.5611C60.9026 51.6412 60.8368 51.7231 60.7723 51.8077C60.8393 51.7227 60.905 51.6406 60.9696 51.5611ZM39.031 51.5616C39.0954 51.6409 39.1611 51.7229 39.2281 51.8077C39.1637 51.7233 39.0978 51.6415 39.031 51.5616ZM25.625 55.5554C26.1226 55.5554 26.526 55.9588 26.526 56.4564C26.526 56.9541 26.1226 57.3575 25.625 57.3575C25.4384 57.3575 25.2652 57.3007 25.1214 57.2036C25.0734 57.1712 25.0286 57.1344 24.9879 57.0936C24.8656 56.9713 24.7782 56.814 24.7422 56.638C24.7302 56.5794 24.724 56.5186 24.724 56.4564C24.724 56.2076 24.8248 55.9823 24.9879 55.8193C25.0694 55.7378 25.1665 55.6719 25.2743 55.6263C25.3282 55.6035 25.3848 55.5856 25.4435 55.5736C25.5021 55.5616 25.5628 55.5554 25.625 55.5554ZM74.3751 55.5554C74.4373 55.5554 74.4982 55.5616 74.5569 55.5736C74.6741 55.5976 74.7832 55.6446 74.879 55.7093C75.1186 55.8713 75.2761 56.1455 75.2761 56.4564C75.2761 56.7674 75.1183 57.0416 74.8787 57.2036C74.7829 57.2683 74.6739 57.3152 74.5566 57.3392C74.498 57.3512 74.4373 57.3575 74.3751 57.3575C74.2507 57.3575 74.1323 57.3321 74.0246 57.2866C73.9168 57.241 73.8196 57.1751 73.7382 57.0936C73.6974 57.0528 73.6603 57.008 73.628 56.9601C73.5956 56.9122 73.5677 56.8611 73.5449 56.8072C73.5222 56.7533 73.5045 56.6967 73.4925 56.638C73.4805 56.5793 73.4741 56.5187 73.4741 56.4564C73.4741 56.332 73.4994 56.2135 73.5449 56.1057C73.5677 56.0518 73.5956 56.0007 73.6279 55.9528C73.6603 55.9048 73.6974 55.86 73.7381 55.8193C73.8196 55.7378 73.9168 55.6719 74.0246 55.6263C74.1323 55.5808 74.2508 55.5554 74.3751 55.5554ZM29.0271 57.9012C29.5247 57.9012 29.9281 58.3046 29.9281 58.8022C29.9281 59.2376 29.6193 59.601 29.2087 59.685C29.15 59.697 29.0893 59.7032 29.0271 59.7032C28.9649 59.7032 28.9042 59.697 28.8456 59.685C28.7869 59.673 28.7303 59.6551 28.6764 59.6323C28.6225 59.6095 28.5714 59.5817 28.5235 59.5493C28.4755 59.5169 28.4307 59.4801 28.39 59.4394C28.3492 59.3986 28.3124 59.3538 28.28 59.3058C28.2476 59.2579 28.2198 59.2068 28.197 59.1529C28.1514 59.0451 28.1261 58.9266 28.1261 58.8022C28.1261 58.74 28.1323 58.6793 28.1443 58.6206C28.2163 58.2687 28.4936 57.9914 28.8456 57.9194C28.9042 57.9074 28.9649 57.9012 29.0271 57.9012ZM70.973 57.9012C71.0352 57.9012 71.0961 57.9074 71.1548 57.9194C71.272 57.9434 71.3811 57.9903 71.4769 58.0551C71.7165 58.217 71.874 58.4912 71.874 58.8022C71.874 59.1131 71.7162 59.3874 71.4766 59.5493C71.3808 59.614 71.2718 59.661 71.1545 59.685C71.0959 59.697 71.0352 59.7032 70.973 59.7032C70.8487 59.7032 70.7302 59.6779 70.6225 59.6323C70.5147 59.5867 70.4175 59.5208 70.3361 59.4393C70.2953 59.3986 70.2582 59.3538 70.2259 59.3058C70.1935 59.2579 70.1656 59.2068 70.1428 59.1529C70.12 59.099 70.1024 59.0424 70.0904 58.9837C70.0784 58.9251 70.072 58.8644 70.072 58.8022C70.072 58.74 70.0784 58.6793 70.0904 58.6206C70.1024 58.562 70.12 58.5053 70.1428 58.4514C70.1656 58.3975 70.1935 58.3464 70.2259 58.2985C70.2582 58.2506 70.2953 58.2058 70.3361 58.165C70.4175 58.0835 70.5147 58.0176 70.6225 57.972C70.7302 57.9265 70.8487 57.9012 70.973 57.9012ZM37.1052 58.4293C37.6028 58.4293 38.0062 58.8327 38.0062 59.3304C38.0062 59.7658 37.6973 60.1292 37.2867 60.2132C37.2281 60.2252 37.1674 60.2314 37.1052 60.2314C36.7942 60.2314 36.52 60.0737 36.358 59.834C36.3256 59.7861 36.2978 59.735 36.275 59.6811C36.2294 59.5733 36.2042 59.4548 36.2042 59.3304C36.2042 59.2682 36.2104 59.2075 36.2224 59.1488C36.2344 59.0901 36.2522 59.0335 36.275 58.9796C36.4118 58.6562 36.7319 58.4293 37.1052 58.4293ZM62.8949 58.4293C62.9571 58.4293 63.0181 58.4355 63.0767 58.4476C63.194 58.4716 63.303 58.5185 63.3988 58.5832C63.6384 58.7452 63.7959 59.0194 63.7959 59.3304C63.7959 59.6413 63.6382 59.9156 63.3986 60.0775C63.3028 60.1422 63.1937 60.1891 63.0765 60.2132C63.0178 60.2252 62.9571 60.2314 62.8949 60.2314C62.7706 60.2314 62.6522 60.206 62.5444 60.1605C62.4367 60.1149 62.3395 60.049 62.258 59.9675C62.2173 59.9268 62.1802 59.882 62.1478 59.834C62.1154 59.7861 62.0876 59.735 62.0648 59.6811C62.0192 59.5733 61.9939 59.4548 61.9939 59.3304C61.9939 59.206 62.0192 59.0874 62.0648 58.9796C62.0876 58.9257 62.1154 58.8746 62.1478 58.8267C62.1802 58.7788 62.2173 58.734 62.258 58.6932C62.3395 58.6117 62.4367 58.5458 62.5444 58.5002C62.6522 58.4547 62.7706 58.4293 62.8949 58.4293ZM33.8118 58.9369C34.4752 58.9369 35.013 59.4747 35.0131 60.1382C35.013 60.8016 34.4752 61.3394 33.8118 61.3394C33.646 61.3394 33.488 61.3058 33.3443 61.245C33.1287 61.1538 32.9452 61.0015 32.8156 60.8098C32.7725 60.7459 32.7354 60.6775 32.705 60.6057C32.6746 60.5338 32.6511 60.4584 32.6351 60.3802C32.619 60.302 32.6105 60.2211 32.6105 60.1382C32.6105 60.0552 32.619 59.9744 32.6351 59.8962C32.6671 59.7398 32.7293 59.5943 32.8156 59.4665C32.8588 59.4026 32.9081 59.3432 32.9625 59.2889C33.0168 59.2345 33.0763 59.1852 33.1402 59.142C33.2041 59.0988 33.2724 59.0617 33.3443 59.0313C33.488 58.9705 33.646 58.9369 33.8118 58.9369ZM66.1883 58.9369C66.2712 58.9369 66.3523 58.9454 66.4305 58.9614C66.5086 58.9774 66.5842 59.001 66.656 59.0313C67.0871 59.2137 67.3895 59.6407 67.3896 60.1382C67.3895 60.6357 67.0868 61.0626 66.6558 61.245C66.584 61.2754 66.5084 61.2989 66.4303 61.3149C66.3521 61.3309 66.2712 61.3394 66.1883 61.3394C65.8566 61.3394 65.5564 61.2049 65.339 60.9875C65.2846 60.9331 65.2355 60.8737 65.1924 60.8098C65.1492 60.7459 65.1118 60.6775 65.0814 60.6057C65.0206 60.4619 64.987 60.304 64.987 60.1382C64.987 59.9723 65.0206 59.8144 65.0814 59.6707C65.1422 59.527 65.2303 59.3975 65.339 59.2889C65.5564 59.0715 65.8566 58.9369 66.1883 58.9369ZM40.0568 61.003C40.7202 61.0031 41.258 61.5409 41.258 62.2043C41.258 62.8677 40.7202 63.4055 40.0568 63.4056C39.8909 63.4055 39.733 63.3719 39.5893 63.3111C39.3018 63.1895 39.0715 62.9592 38.9499 62.6718C38.9195 62.5999 38.896 62.5245 38.88 62.4463C38.864 62.3681 38.8555 62.2872 38.8555 62.2043C38.8555 62.1214 38.864 62.0405 38.88 61.9623C38.928 61.7277 39.0444 61.518 39.2074 61.355C39.2618 61.3006 39.3212 61.2513 39.3851 61.2081C39.5768 61.0786 39.808 61.003 40.0568 61.003ZM59.9433 61.003C60.0263 61.003 60.1074 61.0115 60.1856 61.0275C60.2637 61.0435 60.3393 61.0671 60.4111 61.0974C60.8421 61.2799 61.1446 61.7068 61.1446 62.2043C61.1446 62.7018 60.8419 63.1287 60.4108 63.3111C60.3391 63.3415 60.2635 63.365 60.1853 63.381C60.1071 63.397 60.0263 63.4055 59.9433 63.4056C59.6116 63.4055 59.3114 63.271 59.094 63.0536C59.0397 62.9992 58.9906 62.9398 58.9474 62.8759C58.9042 62.812 58.8669 62.7436 58.8365 62.6718C58.7757 62.5281 58.7421 62.3701 58.7421 62.2043C58.7421 62.0384 58.7757 61.8805 58.8365 61.7368C58.8669 61.6649 58.9042 61.5966 58.9474 61.5326C58.9906 61.4687 59.0397 61.4093 59.094 61.355C59.3114 61.1376 59.6116 61.003 59.9433 61.003ZM36.0333 62.2147C36.6967 62.2148 37.2345 62.7526 37.2345 63.416C37.2345 64.0794 36.6967 64.6172 36.0333 64.6172C35.8674 64.6172 35.7095 64.5836 35.5658 64.5228C35.4939 64.4924 35.4255 64.4553 35.3616 64.4121C35.2338 64.3258 35.1235 64.2154 35.0371 64.0876C34.9939 64.0237 34.9568 63.9553 34.9264 63.8835C34.896 63.8116 34.8725 63.7362 34.8565 63.658C34.8405 63.5798 34.832 63.4989 34.832 63.416C34.832 63.3331 34.8405 63.2522 34.8565 63.174C34.8725 63.0958 34.896 63.0203 34.9264 62.9485C34.9872 62.8048 35.0753 62.6754 35.184 62.5667C35.2383 62.5123 35.2977 62.463 35.3616 62.4198C35.4255 62.3766 35.4939 62.3395 35.5658 62.3091C35.6376 62.2787 35.7131 62.2552 35.7913 62.2392C35.8695 62.2232 35.9503 62.2147 36.0333 62.2147ZM63.9668 62.2147C64.0498 62.2147 64.1309 62.2232 64.2091 62.2392C64.2872 62.2552 64.3628 62.2788 64.4346 62.3091C64.8656 62.4916 65.1681 62.9185 65.1681 63.416C65.1681 63.9135 64.8654 64.3404 64.4343 64.5228C64.3625 64.5532 64.2869 64.5767 64.2088 64.5927C64.1306 64.6087 64.0498 64.6172 63.9668 64.6172C63.6351 64.6172 63.3349 64.4827 63.1175 64.2653C63.0632 64.211 63.0141 64.1515 62.9709 64.0876C62.9277 64.0237 62.8904 63.9553 62.86 63.8835C62.7992 63.7398 62.7656 63.5818 62.7656 63.416C62.7656 63.2501 62.7992 63.0922 62.86 62.9485C62.8904 62.8766 62.9277 62.8083 62.9709 62.7444C63.0141 62.6804 63.0632 62.621 63.1175 62.5667C63.3349 62.3493 63.6351 62.2147 63.9668 62.2147ZM31.0622 62.3596C31.5598 62.3596 31.9632 62.763 31.9632 63.2606C31.9632 63.6961 31.6543 64.0594 31.2437 64.1434C31.1851 64.1554 31.1244 64.1617 31.0622 64.1617C31 64.1617 30.9393 64.1554 30.8806 64.1434C30.822 64.1314 30.7653 64.1136 30.7114 64.0908C30.6036 64.0452 30.5065 63.9793 30.425 63.8978C30.3435 63.8163 30.2776 63.7192 30.232 63.6114C30.2092 63.5575 30.1914 63.5009 30.1794 63.4422C30.1674 63.3836 30.1612 63.3228 30.1612 63.2606C30.1612 63.1984 30.1674 63.1377 30.1794 63.0791C30.1914 63.0204 30.2092 62.9638 30.232 62.9099C30.2776 62.8021 30.3435 62.705 30.425 62.6235C30.5065 62.542 30.6036 62.4761 30.7114 62.4305C30.8192 62.3849 30.9378 62.3596 31.0622 62.3596ZM68.9379 62.3596C69.0001 62.3596 69.0611 62.3658 69.1197 62.3778C69.237 62.4019 69.346 62.4488 69.4418 62.5135C69.6814 62.6754 69.8389 62.9497 69.8389 63.2606C69.8389 63.5716 69.6812 63.8458 69.4416 64.0078C69.3458 64.0725 69.2367 64.1194 69.1195 64.1434C69.0608 64.1554 69.0001 64.1617 68.9379 64.1617C68.8136 64.1617 68.6952 64.1363 68.5874 64.0908C68.4797 64.0452 68.3825 63.9793 68.301 63.8978C68.2602 63.857 68.2232 63.8122 68.1908 63.7643C68.1584 63.7164 68.1306 63.6653 68.1078 63.6114C68.085 63.5575 68.0674 63.5009 68.0554 63.4422C68.0434 63.3836 68.0369 63.3228 68.0369 63.2606C68.0369 63.1362 68.0622 63.0177 68.1078 62.9099C68.1306 62.856 68.1584 62.8049 68.1908 62.757C68.2232 62.709 68.2602 62.6642 68.301 62.6235C68.3825 62.542 68.4797 62.4761 68.5874 62.4305C68.6952 62.385 68.8136 62.3596 68.9379 62.3596ZM13.2725 62.8288C13.3246 62.8275 13.3758 62.8326 13.4235 62.8431C13.5188 62.8643 13.6 62.9074 13.6468 62.9667C13.6702 62.9963 13.6849 63.0301 13.6886 63.0669L14.7981 74.4143C14.6816 74.8102 14.5767 75.1902 14.4828 75.5551C14.3888 75.9201 14.3058 76.2699 14.233 76.6059C13.9419 77.9498 13.8144 79.0694 13.806 80.0257C13.804 80.2648 13.8095 80.4938 13.8216 80.7134C13.8337 80.933 13.8525 81.1434 13.8774 81.3455C13.9521 81.9517 14.0814 82.4835 14.2463 82.9662C14.3563 83.288 14.4821 83.588 14.6182 83.874C14.6863 84.017 14.7569 84.1563 14.8294 84.2932C14.9744 84.5669 15.1269 84.8305 15.2813 85.0913C15.2207 84.9386 15.1645 84.7857 15.1126 84.6323C15.0608 84.4788 15.0133 84.3249 14.9699 84.1706C14.7093 83.2449 14.597 82.3049 14.5949 81.3542C14.5935 80.7204 14.6411 80.082 14.7265 79.4398C14.7692 79.1187 14.8214 78.7967 14.8816 78.474C15.0621 77.5056 15.315 76.5302 15.6022 75.5515C15.7937 74.8991 16.0004 74.245 16.2112 73.5907C16.6328 72.2821 17.0705 70.972 17.4344 69.6689L18.0934 69.4932L18.357 70.3719C18.3826 70.4573 18.4292 70.5293 18.4914 70.5896C18.5225 70.6198 18.5575 70.6469 18.5958 70.6714C18.6341 70.6959 18.6755 70.7178 18.7196 70.7372C18.8078 70.776 18.9064 70.8049 19.0102 70.8258C19.1139 70.8467 19.2229 70.8598 19.3315 70.8666C19.5489 70.88 19.7654 70.8689 19.9393 70.8474C20.0263 70.8367 20.1024 70.8235 20.1626 70.8095C20.2229 70.7956 20.2673 70.7808 20.2903 70.7673L20.51 70.2401L21.1911 70.1302C21.2971 70.7328 21.4206 71.4433 21.5959 72.1642C21.6398 72.3445 21.6869 72.5253 21.7377 72.7053C21.7885 72.8853 21.8431 73.0645 21.902 73.2412C22.0199 73.5947 22.155 73.9384 22.3115 74.2605L21.4328 75.3809C21.4006 75.6902 21.3761 75.9868 21.3583 76.2717C21.3051 77.1263 21.3141 77.8755 21.3695 78.5463C21.4064 78.9935 21.4639 79.4058 21.5372 79.7913C21.5739 79.984 21.6146 80.1702 21.6586 80.3505C21.8786 81.2523 22.1828 82.0113 22.4974 82.7531C22.7491 83.3465 23.0074 83.9288 23.2344 84.5641C23.1221 84.1866 23.0148 83.8117 22.9145 83.4402C22.7138 82.6973 22.541 81.9682 22.4113 81.2608C22.3464 80.9071 22.2924 80.5588 22.2511 80.2168C22.1891 79.7038 22.1555 79.2051 22.1571 78.724C22.1577 78.5636 22.1622 78.4053 22.1707 78.249C22.1793 78.0926 22.192 77.9382 22.2091 77.7861C22.2262 77.634 22.2476 77.4842 22.2737 77.3366C22.2997 77.1889 22.3304 77.0435 22.3659 76.9006C22.4014 76.7577 22.4418 76.6174 22.4873 76.4795L23.0805 76.3037C23.1183 76.509 23.1591 76.7132 23.2028 76.9164C23.2466 77.1196 23.2933 77.322 23.3426 77.5235C23.4413 77.9263 23.5508 78.3255 23.6696 78.7218C23.9071 79.5145 24.1817 80.2955 24.4815 81.0692C24.6314 81.4561 24.7876 81.8413 24.9485 82.2251C25.4314 83.3767 25.9574 84.5174 26.4857 85.6627V86.102C26.1516 86.1835 25.8348 86.2824 25.5328 86.396C25.3818 86.4527 25.2345 86.5132 25.0905 86.577C24.9466 86.6409 24.806 86.708 24.6684 86.7783C24.5309 86.8485 24.3963 86.9219 24.2645 86.9979C24.1327 87.0739 24.0038 87.1525 23.8771 87.2336C23.7504 87.3147 23.6261 87.3983 23.5038 87.4839C23.137 87.7405 22.7888 88.0155 22.4504 88.3004C22.2247 88.4903 22.0034 88.6848 21.7838 88.8808C21.3446 89.2728 20.9122 89.6716 20.466 90.0566C20.4865 89.6256 20.4996 89.2163 20.5059 88.8271C20.5121 88.438 20.5115 88.0689 20.5044 87.7188C20.4974 87.3687 20.4838 87.0375 20.4644 86.7236C20.445 86.4098 20.4197 86.1133 20.3889 85.8328C20.2966 84.9915 20.1553 84.2946 19.9775 83.7043C19.9182 83.5076 19.8548 83.3227 19.7879 83.1482C19.7211 82.9738 19.6507 82.8097 19.5772 82.6548C19.5037 82.4999 19.4271 82.3541 19.3478 82.2159C19.031 81.6633 18.6724 81.2336 18.3022 80.8377C18.1171 80.6397 17.929 80.4502 17.7419 80.258C17.8947 80.796 18.1776 81.3048 18.4391 81.847C18.6351 82.2536 18.8191 82.6792 18.9272 83.1497C18.9632 83.3065 18.9908 83.4683 19.0075 83.6361C19.0495 84.0557 19.0238 84.5129 18.8937 85.0226C18.8416 85.2265 18.7728 85.4388 18.685 85.6605C18.641 85.7713 18.5924 85.8844 18.5386 86.0001C18.431 86.2314 18.3031 86.4727 18.1526 86.7249C18.0774 86.8509 17.9965 86.9797 17.9097 87.1113C17.736 87.3745 17.5385 87.6492 17.3147 87.9361C17.2029 88.0795 17.0844 88.2259 16.9591 88.3757C16.7086 88.6751 16.4308 88.9875 16.1232 89.3136C16.0158 89.4273 15.9123 89.5484 15.811 89.6757C15.5072 90.0575 15.2242 90.496 14.9226 90.9661C14.7216 91.2795 14.5123 91.6069 14.2831 91.9411C14.1684 92.1082 14.0489 92.2769 13.9228 92.4465C13.7968 92.616 13.6642 92.7863 13.5238 92.9565C13.406 92.7509 13.2847 92.5549 13.1612 92.3652C12.7904 91.796 12.3994 91.283 12.0208 90.7355C11.8946 90.553 11.7697 90.3666 11.6475 90.1731C11.5253 89.9795 11.4059 89.7788 11.2902 89.5675C11.0587 89.1448 10.8424 88.6801 10.6513 88.146C10.6036 88.0125 10.5572 87.8747 10.5127 87.7322C10.4682 87.5896 10.4255 87.4422 10.3846 87.2897C10.3437 87.1372 10.3048 86.9796 10.2678 86.8164C10.2308 86.6532 10.1958 86.4843 10.163 86.3095C10.1301 86.1348 10.0995 85.954 10.0712 85.7668C9.98628 85.2052 9.92225 84.5858 9.88334 83.8973C9.83144 82.9792 9.824 81.9384 9.87096 80.7476C9.91791 79.5569 10.0193 78.2163 10.1846 76.6992L12.766 63.199C12.8034 63.07 12.8779 62.9788 12.9692 62.9191C13.0604 62.8595 13.1683 62.8315 13.2725 62.8288ZM86.7276 62.8288C86.9359 62.8341 87.1593 62.941 87.2341 63.199L89.8156 76.6991C91.1379 88.8364 88.3617 89.6676 86.4764 92.9564C86.336 92.7863 86.2036 92.616 86.0775 92.4464C85.9515 92.2769 85.832 92.1082 85.7173 91.9411C85.4881 91.6069 85.2786 91.2795 85.0775 90.966C84.7759 90.4959 84.4931 90.0575 84.1893 89.6757C84.0881 89.5484 83.9843 89.4273 83.877 89.3135C82.4926 87.8462 81.7106 86.6581 81.3152 85.6605C81.2273 85.4388 81.1585 85.2264 81.1064 85.0226C81.0805 84.9206 81.0586 84.8206 81.0407 84.7228C81.0047 84.5271 80.9843 84.3395 80.9771 84.1587C80.9482 83.4355 81.1303 82.8236 81.3716 82.2608C81.4319 82.1201 81.496 81.9825 81.5614 81.8469C81.8228 81.3047 82.1054 80.7959 82.2582 80.258C80.8553 81.6993 79.4008 82.99 79.4943 88.8271C79.5009 89.2163 79.5137 89.6256 79.5341 90.0565C79.0879 89.6716 78.6557 89.2727 78.2165 88.8807C77.997 88.6848 77.7756 88.4903 77.55 88.3004C77.3243 88.1104 77.0942 87.9249 76.8572 87.7462C76.7388 87.6569 76.6188 87.5694 76.4965 87.4838C76.3743 87.3983 76.2499 87.3147 76.1232 87.2336C75.9966 87.1525 75.8673 87.0739 75.7356 86.9979C75.2084 86.694 74.6377 86.4333 74.003 86.2369C73.8443 86.1879 73.6814 86.1427 73.5144 86.102V85.6626C74.0427 84.5174 74.5687 83.3767 75.0516 82.2251C75.3735 81.4574 75.6763 80.6848 75.948 79.9027C76.0838 79.5116 76.212 79.1182 76.3307 78.7218C76.4495 78.3254 76.5588 77.9263 76.6575 77.5234C76.7561 77.1206 76.844 76.7142 76.9196 76.3037L77.5128 76.4795C78.2404 78.686 77.6643 81.5443 76.7657 84.564C76.9927 83.9288 77.251 83.3465 77.5026 82.753C77.8173 82.0113 78.1217 81.2523 78.3418 80.3505C78.3858 80.1702 78.4265 79.984 78.4631 79.7913C78.5365 79.4057 78.5939 78.9935 78.6309 78.5463C78.6863 77.8755 78.6953 77.1263 78.6421 76.2717C78.6244 75.9868 78.5996 75.6902 78.5673 75.3809L77.6886 74.2604C78.0017 73.6164 78.2289 72.8851 78.4042 72.1642C78.4919 71.8038 78.5665 71.4458 78.6326 71.1027C78.6987 70.7597 78.7561 70.4314 78.8091 70.1301L79.4902 70.2401L79.7098 70.7673C79.825 70.835 80.4714 70.9305 80.99 70.8258C81.0937 70.8048 81.1923 70.776 81.2805 70.7372C81.3688 70.6984 81.4465 70.6499 81.5087 70.5896C81.5398 70.5595 81.5671 70.5263 81.5898 70.4901C81.6124 70.4539 81.6304 70.4146 81.6432 70.3719L81.9068 69.4932L82.5658 69.6689C84.0213 74.8811 86.6581 80.2076 84.7188 85.0913C84.8733 84.8305 85.026 84.5669 85.171 84.2932C85.2435 84.1563 85.3141 84.017 85.3822 83.874C85.5183 83.588 85.6441 83.288 85.754 82.9662C85.919 82.4835 86.048 81.9517 86.1227 81.3455C86.1476 81.1434 86.1667 80.933 86.1788 80.7134C86.1909 80.4937 86.1961 80.2648 86.194 80.0257C86.1816 78.5912 85.9009 76.7894 85.202 74.4143L86.3115 63.0669C86.3152 63.0306 86.3299 62.9975 86.3527 62.9681C86.3531 62.9677 86.3531 62.9671 86.3534 62.9667C86.3768 62.9372 86.4088 62.9116 86.4468 62.8908C86.4848 62.8699 86.5291 62.8537 86.5767 62.8432C86.6243 62.8327 86.6756 62.8275 86.7276 62.8288ZM44.422 66.9268C44.0022 67.4535 43.5155 67.9421 43.1091 68.4764C42.8652 68.797 42.6502 69.134 42.4957 69.5056C42.439 69.6674 42.3933 69.8189 42.3571 69.9602C42.3209 70.1015 42.2943 70.2327 42.2758 70.3542C42.2202 70.7185 42.2378 70.9949 42.2899 71.1923C42.3419 71.3897 42.4285 71.5081 42.5112 71.5562L43.1171 71.8979C43.211 71.7659 43.3038 71.6424 43.3955 71.527C43.4872 71.4117 43.578 71.3046 43.6676 71.2052C43.7572 71.1057 43.8457 71.014 43.9331 70.9297C44.0206 70.8453 44.1068 70.7682 44.1921 70.6981C44.2775 70.628 44.3618 70.5649 44.4451 70.5083C44.6115 70.3952 44.7738 70.3083 44.932 70.2445C45.1692 70.1487 45.3973 70.1047 45.6162 70.102C45.6892 70.1011 45.7613 70.1048 45.8323 70.1126C46.0452 70.1362 46.2491 70.1974 46.4444 70.2855C46.5746 70.3442 46.7011 70.4149 46.8236 70.4945C47.0686 70.6535 47.2983 70.8476 47.5134 71.0518C47.7285 71.2559 47.9289 71.4699 48.1151 71.6685C48.2082 71.7679 48.2977 71.8634 48.3838 71.9518C48.4699 72.0402 48.5527 72.1216 48.6319 72.1928C48.7507 72.2997 48.8619 72.3838 48.9657 72.4341C49.0002 72.4509 49.0339 72.4638 49.0669 72.4727C49.1324 72.5082 49.2014 72.5366 49.273 72.5601C49.2765 72.5614 49.2796 72.5634 49.2831 72.5647C49.3256 72.5783 49.3709 72.586 49.4152 72.596C49.4405 72.6019 49.4646 72.6095 49.4904 72.614C49.4997 72.6153 49.5081 72.6185 49.5174 72.6205C49.5746 72.6297 49.6347 72.6335 49.6943 72.638C49.7019 72.6384 49.7091 72.6399 49.7167 72.6405C49.7939 72.6457 49.873 72.6464 49.9536 72.6451L49.9526 73.9833C49.8442 73.9862 49.7345 73.9781 49.624 73.9612C49.6226 73.961 49.6214 73.9607 49.62 73.9606C49.511 73.9434 49.4009 73.9165 49.2897 73.88C49.2858 73.8785 49.2821 73.877 49.2783 73.8763C49.1744 73.8416 49.0695 73.7967 48.9637 73.7445C48.9137 73.7197 48.8627 73.6878 48.8122 73.659C48.7446 73.6206 48.6773 73.5843 48.6088 73.5387C48.5549 73.5026 48.5 73.4582 48.4455 73.4175C48.3791 73.3681 48.3131 73.3219 48.2459 73.2656C48.1816 73.2115 48.1161 73.1474 48.051 73.0869C47.9933 73.0333 47.9361 72.9845 47.8777 72.9258C47.7969 72.8443 47.7147 72.7509 47.6328 72.6595C47.5875 72.609 47.543 72.5645 47.4974 72.5109C47.3694 72.3606 47.2402 72.1988 47.1095 72.0238C47.0918 71.9895 47.0604 71.9508 47.0172 71.9107C46.974 71.8706 46.9192 71.8291 46.8546 71.7893C46.7255 71.7098 46.5578 71.6372 46.3684 71.5963C46.3211 71.5861 46.2723 71.5777 46.2225 71.5718C46.0732 71.5542 45.914 71.5581 45.7519 71.5937C45.698 71.6055 45.6433 71.621 45.589 71.6402C45.5347 71.6595 45.4803 71.6829 45.4262 71.7104C45.3177 71.7655 45.2101 71.8378 45.1055 71.9305C45.0432 72.0047 44.9846 72.0814 44.9273 72.1592C44.8129 72.3148 44.7042 72.4743 44.5827 72.6248C44.4612 72.7752 44.3269 72.9165 44.1618 73.0355C43.9141 73.2139 43.5967 73.342 43.1481 73.3753C42.7528 73.3128 42.4262 73.1665 42.1636 72.958C42.098 72.9059 42.0364 72.8498 41.9787 72.7903C41.6323 72.4331 41.4274 71.9484 41.3476 71.4099C41.3343 71.3201 41.3244 71.229 41.318 71.1366C41.3051 70.9518 41.3058 70.7624 41.3196 70.571C41.3334 70.3797 41.3603 70.1865 41.3995 69.994C41.4388 69.8016 41.4906 69.61 41.5541 69.4219C41.5859 69.3279 41.6204 69.2347 41.658 69.1428C41.6956 69.0509 41.7361 68.9603 41.7794 68.8712C41.8227 68.7821 41.8687 68.6944 41.9175 68.6088C42.0151 68.4375 42.1238 68.274 42.2427 68.1207C42.3617 67.9674 42.4909 67.8243 42.6299 67.6944C42.7689 67.5646 42.9177 67.4478 43.0756 67.3468C43.1545 67.2963 43.2358 67.2498 43.3193 67.2075C43.4861 67.123 43.6617 67.0557 43.8457 67.0082C43.9377 66.9845 44.032 66.9659 44.128 66.9524C44.2241 66.939 44.322 66.9308 44.422 66.9284L44.422 66.9268ZM55.5781 66.9268C55.6781 66.9292 55.776 66.9374 55.872 66.9509C56.1601 66.9912 56.4305 67.0793 56.6808 67.206C56.8476 67.2905 57.0058 67.3924 57.1544 67.5084C59.086 69.0179 59.4216 72.9675 56.8519 73.3737C56.553 73.3515 56.3122 73.2871 56.1116 73.1939C55.7103 73.0073 55.4692 72.705 55.2424 72.3924C55.1857 72.3142 55.1299 72.2355 55.0727 72.1577C55.0155 72.0799 54.9569 72.0031 54.8946 71.929C54.8423 71.8827 54.7893 71.8413 54.7358 71.8047C54.5753 71.6951 54.4104 71.6277 54.2484 71.5921C54.1945 71.5803 54.1406 71.5718 54.0875 71.5666C54.0344 71.5614 53.9817 71.5596 53.93 71.5603C53.8782 71.5612 53.8273 71.5645 53.7775 71.5703C53.7277 71.5761 53.679 71.5846 53.6316 71.5948C53.4424 71.6357 53.2745 71.7083 53.1455 71.7878C53.081 71.8275 53.026 71.8691 52.9828 71.9091C52.9396 71.9493 52.9082 71.988 52.8906 72.0223C52.7599 72.1973 52.6307 72.3591 52.5027 72.5094C52.4535 72.5672 52.4054 72.6154 52.3566 72.6696C52.2788 72.7561 52.2008 72.8453 52.1241 72.9228C52.062 72.9853 52.0012 73.0375 51.9398 73.0942C51.8779 73.1514 51.8156 73.2127 51.7544 73.2641C51.6872 73.3205 51.621 73.3665 51.5546 73.416C51.5001 73.4567 51.4452 73.5011 51.3913 73.5371C51.3219 73.5834 51.2537 73.6202 51.1852 73.659C51.1358 73.687 51.0861 73.7185 51.0371 73.7427C50.9311 73.7951 50.8259 73.84 50.7218 73.8748C50.718 73.8763 50.7142 73.8777 50.7104 73.8785C50.5991 73.9151 50.4889 73.942 50.3798 73.9591C50.3787 73.9592 50.3775 73.9594 50.3764 73.9595C50.2657 73.9767 50.1562 73.9841 50.0477 73.9818L50.0467 73.0228L50.0464 72.6436C50.1091 72.645 50.1722 72.6476 50.2329 72.6443C50.2502 72.6436 50.2664 72.6397 50.2836 72.6391C50.2908 72.6387 50.2977 72.6378 50.305 72.6372C50.3649 72.6326 50.4251 72.6288 50.4826 72.6195C50.4919 72.6182 50.5004 72.6149 50.5096 72.613C50.5354 72.6085 50.5596 72.6007 50.5848 72.5951C50.6291 72.5851 50.6744 72.5775 50.7169 72.5637C50.7204 72.5631 50.7235 72.5605 50.727 72.5598C50.7986 72.5363 50.8676 72.5079 50.9331 72.4724C51.1308 72.419 51.3579 72.2169 51.6162 71.9515C51.7023 71.8631 51.792 71.7676 51.8851 71.6683C51.8875 71.6655 51.8904 71.6627 51.8929 71.66C52.6368 70.8665 53.6053 69.8336 54.8338 70.1653C55.373 70.3109 55.9625 70.7195 56.6045 71.5267C56.6962 71.6421 56.789 71.7656 56.8829 71.8976L57.4888 71.5559C57.5164 71.5399 57.5443 71.516 57.5713 71.484C57.6253 71.4201 57.6757 71.3236 57.7104 71.192C57.7624 70.9946 57.7798 70.7183 57.7242 70.3539C57.6872 70.111 57.6176 69.8289 57.5043 69.5053C57.3498 69.1336 57.1348 68.7966 56.891 68.476C56.6471 68.1554 56.3743 67.8512 56.1045 67.5454C55.9246 67.3416 55.746 67.1375 55.5781 66.9268ZM49.9701 72.6438C49.9802 72.6436 49.99 72.6442 50.0002 72.6438C50.0103 72.6442 50.02 72.6436 50.03 72.6438L50.0456 73.9796C50.0307 73.9802 50.0156 73.98 50.0007 73.9811C49.9853 73.9804 49.9698 73.981 49.9545 73.9796L49.9701 72.6438ZM47.8552 79.1526C48.0495 79.1644 48.2185 79.1831 48.3676 79.2065C48.3925 79.2102 48.4097 79.216 48.4336 79.2201C48.5544 79.2413 48.6689 79.2642 48.7642 79.2905C48.7648 79.2907 48.7651 79.2909 48.7656 79.291C49.1041 79.3847 49.2984 79.5027 49.4715 79.5879C49.5292 79.6163 49.5845 79.6412 49.6421 79.6602C49.7436 79.6936 49.8573 79.7039 49.9977 79.6895C49.9986 79.6894 49.9992 79.6896 50.0001 79.6895C50.1417 79.7043 50.2558 79.6939 50.3579 79.6602C50.4155 79.6412 50.471 79.6163 50.5288 79.5879C50.7021 79.5026 50.8966 79.3843 51.2361 79.2905C51.3313 79.2642 51.4454 79.2416 51.5662 79.2204C51.5902 79.216 51.6074 79.2105 51.6325 79.2065C51.7816 79.1831 51.9505 79.1644 52.1449 79.1526C53.3703 79.1808 54.2479 79.4538 55.071 79.8318C55.7294 80.1342 56.3531 80.5039 57.0917 80.8694C57.2763 80.9608 57.4685 81.0521 57.6699 81.1418C57.8713 81.2316 58.0823 81.32 58.3051 81.4059C58.528 81.4918 58.7627 81.5751 59.0117 81.6549C59.2607 81.7347 59.5237 81.8109 59.8035 81.8824C60.0832 81.9538 60.3798 82.0207 60.695 82.0816C61.0103 82.1425 61.3447 82.1976 61.7002 82.2457C61.8779 82.2699 62.061 82.2923 62.2497 82.3127C62.4384 82.3331 62.6326 82.3517 62.8328 82.3683C62.1204 83.1535 61.383 83.9098 60.5972 84.6101C60.5319 84.6684 60.4684 84.7289 60.4023 84.7863C60.1975 84.9644 59.9886 85.1377 59.7763 85.307C59.7674 85.3144 59.7588 85.3218 59.7498 85.3288C59.527 85.5059 59.2998 85.678 59.0675 85.8441C59.0667 85.8446 59.0659 85.8448 59.0651 85.8464C58.8712 85.9851 58.6716 86.1175 58.4704 86.2478C58.43 86.274 58.3914 86.3023 58.3507 86.3282C58.1346 86.4653 57.9126 86.5956 57.6874 86.7221C57.6599 86.7376 57.6339 86.7547 57.6063 86.7699C57.3836 86.893 57.1544 87.0087 56.922 87.1206C56.8884 87.1368 56.8566 87.1552 56.8228 87.1711C54.9539 88.0528 52.7614 88.5603 50.0569 88.476L50.0557 86.5696L50.0455 88.4739C50.0301 88.4743 50.0154 88.4743 50.0001 88.4745C49.9847 88.474 49.9699 88.4741 49.9544 88.4739L49.9442 86.5696L49.943 88.476C47.2393 88.5603 45.0474 88.0531 43.1788 87.1719C43.1328 87.1502 43.0895 87.1253 43.0439 87.1031C42.8242 86.9965 42.6064 86.8875 42.3953 86.7708C42.3538 86.7479 42.3147 86.722 42.2735 86.6987C42.062 86.579 41.8525 86.4571 41.6492 86.3281C41.6041 86.2994 41.5616 86.268 41.5169 86.239C41.3209 86.1117 41.1261 85.9829 40.937 85.8477C40.8882 85.8128 40.8419 85.7751 40.7935 85.7397C40.3812 85.4379 39.982 85.1208 39.5976 84.7868C39.5135 84.7136 39.4325 84.6369 39.3495 84.5625C38.7969 84.0666 38.2665 83.5448 37.7538 83.0027C37.753 83.002 37.7521 83.0005 37.7512 82.9997C37.5545 82.7917 37.36 82.5812 37.1672 82.3686C37.3674 82.352 37.5618 82.3335 37.7505 82.313C37.9391 82.2926 38.1221 82.2702 38.2998 82.246C38.6553 82.1979 38.9896 82.1429 39.3049 82.0819C39.9354 81.9601 40.4903 81.8148 40.9882 81.6552C41.7352 81.4158 42.3542 81.1439 42.9082 80.8698C43.4622 80.5956 43.9514 80.3189 44.4391 80.0702C44.6017 79.9873 44.7643 79.9077 44.9289 79.8321C45.2582 79.6809 45.596 79.5465 45.9615 79.4379C46.1442 79.3836 46.3338 79.3357 46.5327 79.2954C46.9303 79.2147 47.365 79.1639 47.8552 79.1526ZM49.9999 90.1133C50.0152 90.1135 50.0322 90.1148 50.048 90.1155L50.0587 91.2272L50.0579 90.1158C50.0587 90.1158 50.0595 90.116 50.0603 90.116C50.374 90.1265 50.7818 90.1987 51.23 90.3119C51.3055 90.331 51.3857 90.3558 51.4633 90.3772C51.6214 90.4208 51.7794 90.4642 51.9434 90.5163C52.0378 90.5464 52.1335 90.5814 52.2288 90.6139C52.3821 90.666 52.5354 90.717 52.6883 90.7746C52.7954 90.8149 52.8986 90.8595 53.0041 90.902C53.1424 90.9577 53.2826 91.0119 53.416 91.0705C53.5464 91.1278 53.6657 91.1877 53.7891 91.2469C53.8913 91.2959 53.9995 91.3435 54.0954 91.3933C54.1081 91.3999 54.1195 91.4064 54.1321 91.413C54.3283 91.5159 54.511 91.62 54.6712 91.723C54.7207 91.7549 54.7642 91.7863 54.8095 91.8179C54.8417 91.8403 54.8772 91.8628 54.9071 91.8851C54.9798 91.9392 55.0458 91.9926 55.104 92.0451C54.7923 91.9537 54.4972 91.8714 54.2165 91.7977C54.0633 91.7575 53.9246 91.7258 53.7799 91.6905C53.66 91.6612 53.533 91.6279 53.4187 91.6019C53.2612 91.566 53.117 91.538 52.9694 91.5079C52.8802 91.4898 52.7846 91.468 52.6988 91.4519C52.5382 91.4216 52.3897 91.3987 52.2402 91.3752C52.1791 91.3656 52.1128 91.353 52.0533 91.3443C52.0432 91.3429 52.0316 91.3407 52.0216 91.3392C51.8654 91.317 51.7206 91.3018 51.5757 91.2865C51.5413 91.2828 51.5036 91.2773 51.4698 91.2741C51.4573 91.2726 51.4432 91.2711 51.4308 91.2696C51.282 91.2558 51.1426 91.2481 51.0043 91.241C50.9829 91.2403 50.9596 91.238 50.9385 91.2366C50.7705 91.229 50.6096 91.2259 50.4545 91.2269C50.4539 91.2269 50.4534 91.2269 50.4528 91.2269C50.4356 91.227 50.4167 91.2262 50.3996 91.2262C50.2618 91.2285 50.1298 91.234 49.9999 91.2413C49.8699 91.2339 49.7382 91.2279 49.6003 91.2262C49.5827 91.226 49.563 91.2269 49.5452 91.2269C49.5398 91.2269 49.5339 91.2272 49.5285 91.2271C49.3785 91.2267 49.2239 91.2301 49.062 91.2367C49.0393 91.2373 49.0142 91.2396 48.9913 91.2411C48.8544 91.2485 48.7166 91.2559 48.5695 91.2695C48.5573 91.2702 48.5434 91.2725 48.5311 91.2739C48.4961 91.2769 48.4571 91.283 48.4214 91.2868C48.2774 91.3019 48.1335 91.317 47.9784 91.339C47.9668 91.3412 47.9534 91.3434 47.9418 91.3449C47.9078 91.35 47.8695 91.3574 47.835 91.3626C47.6632 91.3887 47.4888 91.4163 47.3019 91.4514C47.2094 91.4688 47.1067 91.4924 47.0102 91.5121C46.8689 91.5411 46.7316 91.5675 46.5813 91.6017C46.4669 91.6277 46.34 91.661 46.2201 91.6903C46.0754 91.7256 45.9366 91.7573 45.7834 91.7976C45.5028 91.8712 45.2076 91.9535 44.896 92.0449C44.9541 91.9924 45.0204 91.939 45.0931 91.8849C45.1224 91.8632 45.1572 91.8409 45.1887 91.819C45.2346 91.787 45.2786 91.7551 45.3288 91.7228C45.4889 91.6198 45.6717 91.5158 45.8679 91.4129C45.8804 91.4062 45.8919 91.3997 45.9045 91.3932C45.9967 91.3454 46.101 91.2995 46.199 91.2524C46.3267 91.1909 46.4508 91.1288 46.5861 91.0693C46.7192 91.011 46.8587 90.9571 46.9966 90.9016C47.1013 90.8594 47.2037 90.8152 47.3099 90.7752C47.4674 90.7159 47.6252 90.6632 47.783 90.6096C47.874 90.5788 47.9652 90.5451 48.0554 90.5164C48.2147 90.4659 48.368 90.424 48.5219 90.3814C48.6058 90.3582 48.6924 90.3314 48.7738 90.3108C49.2216 90.1979 49.6292 90.1258 49.9423 90.1157L49.9415 91.2271L49.952 90.1154C49.9676 90.115 49.9847 90.1133 49.9999 90.1133Z" />
</svg>
