<svg width="100" height="100" viewBox="0 0 100 100"  xmlns="http://www.w3.org/2000/svg">
<path d="M37.1854 2.34485C36.6824 2.41465 36.8313 3.09696 37.0602 3.37837C37.9886 4.91825 39.2997 6.17005 40.555 7.43462C40.7703 7.68201 40.2923 7.8269 40.1592 7.95586C38.3314 9.01241 36.3863 9.8922 34.7448 11.2439C33.3977 12.1197 31.9307 12.8111 30.4609 13.4438C28.9741 14.0509 27.484 14.6727 25.9371 15.1085C23.7905 15.8458 21.5236 16.0311 19.2946 16.3631C18.7721 16.5055 18.0989 16.4423 17.694 16.8477C17.4364 17.2644 17.8035 17.7949 18.2482 17.8612C20.4448 18.7985 22.6083 19.9971 25.0185 20.266C25.4282 20.385 25.0825 20.8902 24.9268 21.1002C23.4501 22.8998 21.7162 24.4975 20.3662 26.4101C19.5687 27.5582 18.7143 28.6756 17.5301 29.443C15.5751 30.8666 13.6083 32.2831 11.5604 33.5624C11.1985 33.7634 11.3222 34.2315 11.6542 34.3849C12.4593 34.6932 13.368 34.5556 14.2121 34.6599C14.7745 34.7049 15.3704 34.6935 15.9137 34.7887C16.0656 35.9886 15.2884 37.0432 15.1381 38.2048C14.7592 39.4486 14.3858 40.7121 14.402 42.0273C14.4582 42.4914 14.2525 43.1104 14.6235 43.474C15.1999 43.7221 15.5357 43.0357 15.798 42.6517C16.1236 42.2859 16.3835 41.6995 16.9018 41.6034C17.3707 41.6413 17.2598 42.2892 17.3365 42.6131C17.4751 45.5804 17.9665 48.5422 18.8042 51.3996C19.1105 52.3256 19.2507 53.2979 19.5714 54.2146C19.9041 54.776 20.7394 54.9426 20.8417 55.6647C21.1759 57.4867 21.417 59.347 22.0192 61.1052C22.7646 63.0425 23.8126 64.8475 24.5561 66.7789C24.8365 67.2435 25.1365 67.8864 25.7248 67.9795C26.2367 67.8797 26.1396 67.18 26.2144 66.7964C26.2945 66.345 26.1874 65.7451 26.5352 65.4008C26.9262 65.6783 26.9868 66.2667 27.1987 66.683C27.572 67.6993 27.8102 68.7682 28.271 69.7564C28.5978 71.0848 29.251 72.295 29.7174 73.5748C29.9977 74.4027 30.3142 75.2113 30.71 75.9924C31.4131 77.6959 31.95 79.4677 32.795 81.112C33.489 82.4911 33.1537 84.0777 33.2409 85.5579C33.1619 86.0684 33.3102 86.5232 33.6211 86.9281C34.7707 88.8762 35.8901 90.8447 36.9698 92.8262C37.5997 93.6576 38.5716 94.1428 39.3692 94.794C40.5927 95.6547 41.7985 96.5527 42.9908 97.4481C44.2859 97.7795 45.6511 97.6061 46.975 97.6439C48.4258 97.6001 49.8922 97.6644 51.3334 97.5082C52.0034 97.1458 52.6091 96.6591 53.3024 96.3249C55.4266 95.0969 57.5182 93.8136 59.6749 92.642C61.714 91.3754 64.0236 90.4602 65.7475 88.7435C67.0759 87.3892 67.7056 85.5599 68.757 84.0125C69.9572 82.0721 70.9965 80.039 72.151 78.0732C72.7808 77.2397 73.1703 76.2645 73.3644 75.2424C73.6315 74.3913 73.8477 73.5278 74.0124 72.6526C74.2339 72.0211 74.8755 71.4139 74.5471 70.6977C74.1561 69.7935 73.8807 68.789 74.0892 67.8074C74.2027 67.6268 74.4417 67.9398 74.5839 67.9747C75.3171 68.4898 76.2971 68.1083 76.993 67.7056C78.0173 67.0771 78.6834 66.044 79.4507 65.1491C80.2715 63.9684 80.9897 62.6944 81.4033 61.3132C81.7823 60.5974 82.2548 59.9174 82.493 59.1246C82.9576 58.0234 83.6504 56.9609 83.6091 55.7168C83.656 53.2112 83.7469 50.6971 83.5798 48.1946C83.56 47.8299 83.4614 47.3864 83.027 47.3263C82.4472 47.1639 81.6918 46.8003 81.1935 47.3339C80.7959 47.7149 80.3212 47.9873 79.8777 48.2941C79.6223 48.4508 79.4223 48.9724 79.0781 48.8406C78.8185 48.2041 79.4112 47.607 79.4433 46.9735C79.7078 45.8276 79.6844 44.6091 80.1099 43.5057C80.2658 43.1091 80.7995 43.5492 80.9591 43.1365C81.3609 42.3035 81.1993 41.3243 81.2814 40.4285C81.362 37.7614 81.2913 35.0815 81.4645 32.4225C81.9273 32.4669 82.2042 32.975 82.5745 33.221C82.7949 33.4518 83.3457 33.7351 83.4817 33.274C83.7113 31.8496 83.0601 30.4612 83.0613 29.0457C83.1436 28.8598 83.36 28.6562 83.5377 28.8829C84.7373 29.6132 85.9661 30.3287 87.2669 30.8571C87.7757 30.8152 87.6237 30.1199 87.5006 29.7971C86.9089 27.9725 86.3653 26.1163 85.4638 24.4148C84.9034 23.1362 84.0537 21.9976 83.5508 20.696C83.436 20.4681 83.6012 20.3553 83.8159 20.3543C85.3055 20.0821 86.8533 20.1786 88.3275 19.8072C88.7329 19.7349 88.7744 19.1745 88.4118 19.0145C87.4021 18.4209 86.2793 18.0841 85.2474 17.5264C82.5735 16.2207 79.8534 14.9766 77.2499 13.5532C75.3566 12.298 73.5603 10.8744 71.5441 9.80405C69.7648 8.84999 67.7809 8.35705 65.8344 7.87069C64.4934 7.6984 63.1245 7.76633 61.7809 7.88873C60.2276 6.47675 58.6042 5.05885 56.5977 4.33556C53.7479 3.18403 50.6052 3.17897 47.5826 3.31539C45.4296 3.63353 43.2237 3.67562 41.0658 3.4362C39.7924 3.23392 38.5723 2.81898 37.3725 2.35998C37.311 2.3478 37.2481 2.34096 37.1854 2.34485ZM49.0359 5.16029C51.5665 5.13776 54.1933 5.20743 56.5213 6.29462C58.3627 7.07035 59.6974 8.60238 61.2578 9.79297C62.0026 10.0669 62.8239 9.77022 63.5938 9.81578C65.0766 9.78404 66.6239 9.71128 68.0107 10.325C70.615 11.2836 73.054 12.6578 75.2325 14.3754C76.6257 15.4123 78.2302 16.1003 79.7073 16.9966C80.4463 17.2764 81.216 17.6139 81.7594 18.2051C80.9995 18.3679 80.1841 18.1664 79.4346 18.3378C79.1857 18.6959 79.6357 19.107 79.7797 19.4256C81.0804 21.3166 82.4507 23.1666 83.5453 25.1897C83.7293 25.6137 84.1752 25.9081 84.2851 26.3572C84.2816 26.8552 83.667 26.7191 83.4329 26.4683C82.616 25.9046 81.8325 25.2403 80.9104 24.8612C80.4141 24.8102 80.3367 25.5053 80.3419 25.8667C80.3122 26.2992 80.4715 26.8248 80.3263 27.2105C79.8705 27.3736 79.0758 27.2244 78.9862 27.8715C78.9496 29.1534 79.3574 30.4041 79.3638 31.6834C79.4245 33.3263 79.554 34.9974 79.2686 36.6244C78.9903 37.3422 78.4545 37.9653 78.4111 38.7667C77.9945 40.336 77.8465 41.9537 77.6259 43.5569C77.6105 43.9774 77.3024 44.2659 76.9278 44.3991C76.1365 44.9769 75.8823 46.0145 75.3776 46.8082C75.2299 46.9973 75.1396 47.3908 74.8733 47.4209C74.5658 47.1869 74.3636 46.5159 73.8724 46.7784C73.4983 46.8555 73.0667 47.3254 72.7174 46.9603C72.1429 46.5499 71.6076 45.9638 71.5991 45.2247C71.429 43.6232 71.2642 41.9974 70.7145 40.468C70.2588 38.5571 69.4618 36.7245 68.4211 35.0609C68.1599 34.752 67.8119 34.0782 67.3191 34.3772C67.0059 34.7804 67.4038 35.3187 67.514 35.7324C67.7674 36.3613 67.8031 36.6804 68.6934 40.1026C69.6792 43.8032 67.5791 37.4932 67.4832 37.4207C66.2151 34.8646 64.3612 32.6516 62.329 30.6699C61.7886 30.1215 61.0512 29.8029 60.2769 29.8294C57.8487 29.7174 55.3931 29.5773 52.9776 29.916C52.3318 30.0209 52.1828 30.7657 51.7489 31.1527C48.6166 34.7835 45.8001 38.6868 43.2712 42.7593C42.7521 43.7056 42.1379 44.5975 41.6775 45.5669C41.5408 45.8111 41.524 46.2906 41.2022 46.3535C40.844 45.999 41.1392 45.4186 41.2258 45.0087C41.6259 44.0798 41.7735 43.0502 42.3201 42.1861C42.6552 41.3355 42.9636 40.4716 43.4275 39.6724C44.5166 37.441 45.9235 35.3908 47.3765 33.3852C47.6272 32.9829 47.8025 32.5438 48.0689 32.1517C48.1576 31.763 47.5806 31.8388 47.3766 31.961C45.8921 32.7147 44.766 34.002 43.6217 35.1791C42.0643 36.899 40.7935 38.8588 39.6015 40.8418C38.6493 42.82 37.709 44.8129 36.9495 46.8745C36.6698 47.9169 36.3329 48.9401 35.9444 49.9479C35.2627 51.9431 35.1013 54.0669 34.4388 56.0664C34.1537 57.0622 34.2335 58.1622 33.8857 59.1218C33.3251 58.5888 33.2582 57.7435 33.0954 57.0198C32.7628 54.4738 32.8856 51.8579 33.1444 49.3051C33.227 48.3378 33.6088 47.3703 33.4474 46.4017C33.0822 46.2966 32.7059 46.5028 32.6552 46.8928C32.0866 48.4188 31.7131 50.0219 31.7208 51.6574C31.6847 54.0262 31.5446 56.4461 32.1101 58.7675C32.6116 59.9299 32.5362 61.215 32.9576 62.4041C33.0855 63.0575 33.4621 63.7913 33.1298 64.4277C32.7598 64.5052 32.5277 64.0297 32.3043 63.7956C31.4243 62.5478 30.4861 61.2886 30.0223 59.8169C29.5382 58.7451 29.4031 57.5612 29.033 56.4566C28.4825 54.3578 28.5522 52.11 27.7862 50.0629C27.5013 49.7588 27.006 50.1002 26.9937 50.4682C26.7248 51.9692 26.5452 53.4837 26.2601 54.9833C25.836 57.4502 25.8642 60.0106 25.1727 62.4136C25.1441 62.646 24.8909 62.8017 24.7528 62.5525C24.0201 61.4844 23.6446 60.2156 23.2533 58.9924C22.8847 57.9165 22.9469 56.7625 22.5945 55.6826C22.1703 54.2075 22.2322 52.6387 21.8462 51.1603C21.5619 50.7355 21.1267 51.2095 20.8496 51.3761C20.4424 51.4419 20.5262 50.8446 20.4061 50.6036C19.8176 47.9632 19.2217 45.2858 19.0592 42.5857C18.9889 41.0837 19.1317 39.5916 19.5045 38.1331C19.533 37.715 19.7698 37.0627 19.3274 36.7889C18.7808 36.6751 18.4817 37.4315 17.9689 37.3866C17.666 36.5282 18.19 35.6269 18.786 35.0209C19.2611 34.4347 19.968 34.0146 20.3094 33.3334C20.4377 32.7892 19.8186 32.5306 19.3709 32.5968C18.3541 32.5806 17.3535 32.9457 16.3432 32.879C16.4262 32.1746 17.2294 31.8622 17.7527 31.4992C19.4768 30.3688 20.8257 28.7822 22.0473 27.1444C24.3605 24.3633 26.8097 21.6779 29.559 19.3187C30.1345 18.7666 31.1796 18.4655 31.2114 17.536C31.2382 17.1738 30.8872 16.9393 30.5577 17.0885C28.4433 17.5047 26.2993 17.9268 24.1677 18.1131C23.9565 17.6635 24.3649 17.2135 24.8187 17.1869C25.7801 17.1463 26.7179 16.8902 27.5945 16.4978C29.4197 15.79 31.3558 15.3269 33.0319 14.2791C34.3918 13.5116 35.8549 12.8899 37.0484 11.8641C38.4943 10.9159 40.0368 10.1169 41.657 9.51776C42.3024 9.14111 43.0172 8.92081 43.6987 8.63303C44.1283 8.36179 44.0707 7.71337 43.9077 7.3112C43.1332 6.74261 42.1439 6.48737 41.4374 5.81837C42.982 5.5336 44.5749 5.61537 46.1346 5.41418C46.9851 5.29834 47.8189 5.11015 48.6833 5.16285C48.8008 5.16199 48.9184 5.16116 49.0359 5.16029ZM58.6091 46.919C58.9662 46.9604 59.4401 47.5106 59.0027 47.7713C57.6046 48.4974 56.1279 49.0738 54.6772 49.6887C54.3116 49.7737 53.7056 50.1987 53.4731 49.681C53.2289 49.152 53.8627 48.8211 54.2562 48.6535C55.6334 48.0819 57.0073 47.4955 58.3996 46.9633C58.4681 46.9453 58.5373 46.9172 58.6091 46.919ZM62.595 48.5335C63.6279 48.8645 64.4595 49.6218 65.4093 50.1353C65.8913 50.502 66.5731 50.6812 66.9139 51.1956C66.9274 51.6125 66.3402 51.5769 66.0516 51.6415C64.9686 51.8317 63.9266 52.1813 62.823 52.2577C61.3023 52.5198 59.8067 52.8996 58.2927 53.1914C57.8333 53.2814 57.1099 53.5782 57.3026 54.1755C57.5221 54.7293 58.2752 54.5389 58.7346 54.6575C61.2388 54.9267 65.1693 54.8086 67.6626 55.1526C67.781 55.2604 66.7928 55.501 66.0064 55.5578C65.325 56.0606 65.502 57.0953 65.0839 57.7505C64.4307 59.1321 63.2311 60.2394 61.7861 60.7713C61.254 61.0277 60.7254 61.3028 60.1147 61.2097C58.7375 61.2052 57.2443 61.454 56.0909 60.5732C55.8868 60.4098 54.5178 59.432 54.464 59.1738C55.2679 58.9442 57.0424 60.1422 57.7986 60.3891C58.7609 60.5096 59.7508 60.4191 60.6418 60.0179C62.0665 59.7259 64.0773 57.1709 64.7125 55.9035C63.615 56.0027 63.7423 55.869 63.3882 56.267C62.763 56.9697 60.9094 58.416 60.301 58.2901C60.0554 58.245 59.3034 58.248 58.944 57.9723C58.0883 57.1553 58.4907 56.4378 58.4907 56.4378C57.0989 56.6024 56.8588 56.4013 56.3592 56.4963C55.3833 57.3097 52.7139 61.3897 55.0104 57.0266C55.0104 57.0266 56.6487 55.9637 54.3317 56.2937C53.3497 56.3482 51.9883 56.2968 51.6316 57.3523C51.2612 58.6569 51.6714 60.1387 50.9067 61.3361C50.736 61.6149 50.5728 62.0533 50.3002 62.1737C49.7704 61.1427 49.645 59.9522 49.4856 58.8191C49.4115 57.9135 49.3097 56.9468 49.8023 56.1276C50.2399 55.0604 50.4351 53.8643 51.1285 52.9209C51.7384 52.3866 52.6256 52.3859 53.3061 51.9533C54.1702 51.6041 55.0812 51.367 55.9246 50.9423C56.6394 50.712 57.3752 50.5411 58.0611 50.216C59.572 49.6589 61.047 48.9653 62.595 48.5335ZM81.2458 50.6911C81.6583 50.8275 81.9833 51.1863 81.874 51.6475C81.6881 53.4089 81.456 55.2007 81.0701 56.9359C80.6568 58.3476 79.7768 59.585 79.1887 60.9368C78.7249 61.8128 78.6057 62.8789 77.8362 63.5759C77.2595 64.1228 76.6472 64.7827 75.8437 64.9488C75.6148 64.5875 76.0415 64.1723 76.2435 63.8785C77.165 62.9297 77.7319 61.6906 77.9015 60.3828C78.0932 59.2149 78.1456 58.0306 78.2164 56.8509C78.7707 56.1479 79.3949 55.4829 79.907 54.7569C79.907 53.8478 79.6231 52.9023 79.872 52.0097C80.1568 51.4641 80.5952 51.0154 81.0052 50.5631C81.0854 50.6057 81.1656 50.6484 81.2458 50.6911ZM37.8846 51.8094C38.938 51.8119 39.8898 52.3407 40.9355 52.4864C41.3675 52.6213 41.8917 52.6142 42.2687 52.8596C42.537 53.4235 42.7652 54.0886 42.6804 54.7137C42.2679 55.3046 41.4504 54.8779 40.8857 54.8328C39.7527 54.5999 38.5661 54.5516 37.4694 54.1725C36.9168 53.9521 36.8706 53.2632 37.0369 52.7807C37.1517 52.3515 37.2975 51.7186 37.8846 51.8094ZM36.7283 55.845C39.3615 56.8631 39.2123 56.7245 40.3377 57.3625C40.7898 57.6998 41.417 57.9838 41.5941 58.5536C41.516 58.8716 41.0255 58.6709 40.7983 58.752C39.6727 58.7496 38.5226 58.8812 37.4182 58.6797C36.8473 58.4994 36.531 57.791 36.2464 57.3731C35.5396 56.5597 35.3333 56.048 35.4624 55.5573C35.6026 55.438 36.7283 55.845 36.7283 55.845ZM69.4987 60.4088C69.8732 60.5674 69.5392 61.0748 69.4728 61.3427C68.797 62.8962 68.0417 64.4261 67.15 65.8669C66.4815 66.5831 65.5932 66.2681 64.7085 66.5727C64.0488 66.6989 63.2182 67.3777 62.5575 67.4454C62.1228 67.3969 62.3501 66.8168 62.3905 66.545C62.5985 65.6429 63.3977 65.0387 64.2618 64.8208C65.9651 64.3254 67.4445 63.225 68.48 61.7927C68.8911 61.4026 68.9751 60.7585 69.43 60.4227C69.4516 60.4134 69.4751 60.4075 69.4987 60.4088ZM36.4748 60.4569C37.7964 60.3538 39.9831 60.0457 41.5615 59.4978C42.6386 59.4307 39.5611 61.2031 38.4885 61.0465C37.5899 61.1391 36.2623 61.1708 35.3705 60.9807C35.0591 60.8721 34.2417 59.5715 34.4939 59.6349C34.4939 59.6349 35.6622 60.2507 36.4748 60.4569ZM54.6 61.5361C55.2285 61.4638 55.4313 62.2939 55.157 62.7377C54.9024 63.1998 54.7515 63.7137 54.6329 64.2157C54.1545 64.3372 54.1494 63.6973 54.1259 63.3843C54.1392 62.8103 53.9528 62.1694 54.2037 61.6321C54.3102 61.5392 54.4684 61.5472 54.6 61.5361ZM41.3728 68.8934C41.6113 69.3836 41.1704 69.9122 40.9596 70.335C40.5653 70.9153 38.9297 74.2804 38.5006 74.8378C38.2067 75.0291 39.5203 71.4775 39.5203 71.4775C39.8884 70.6104 40.6024 69.9467 41.0755 69.1376C41.1586 69.0468 41.2431 68.9175 41.3728 68.8934ZM53.5499 68.907C54.1116 69.1068 54.4497 69.6887 54.8972 70.0574C55.7063 70.952 56.6968 71.778 57.153 72.9232C57.1664 73.2148 56.7103 73.0517 56.5748 72.9421C55.7922 72.5103 55.2673 71.7218 54.4884 71.3005C53.7893 71.2221 53.2292 71.9523 53.1352 72.5865C53.0068 73.0788 52.65 73.5192 52.2681 73.8474C51.4641 74.1116 50.5843 73.8652 49.7538 73.898C48.7 74.0314 47.5141 73.6208 46.6 74.6002C45.8289 73.9019 44.4429 73.5556 43.6389 73.4285C42.5254 73.6706 40.8733 72.4865 40.2934 71.794C40.0364 71.5385 41.7659 72.5333 42.2225 72.4811C42.7655 73.0312 43.2359 73.0029 43.7622 73.0662C44.4151 73.1446 45.3198 72.9683 45.9576 73.1965C47.3558 73.5335 48.5215 72.4042 49.8617 72.2595C50.6265 72.1269 51.4464 72.2409 52.1816 71.9844C52.8079 71.278 53.0924 70.3198 53.2889 69.4112C53.3253 69.2528 53.3155 68.9121 53.5499 68.907ZM71.8927 73.0701C72.1415 73.3121 71.9884 73.7696 71.9022 74.0691C71.5224 74.7853 71.2034 75.5292 70.9172 76.2886C69.4304 79.5473 67.4261 82.5239 65.7341 85.6749C65.2426 86.5397 64.7725 87.4832 63.8698 87.9929C61.7077 89.531 59.2942 90.6816 57.0302 92.0634C55.0096 93.2329 52.992 94.4148 50.9816 95.5962C50.2799 95.8748 49.4885 95.7054 48.7476 95.7663C47.0117 95.7181 45.2424 95.8481 43.5529 95.4168C42.0957 94.9239 41.0697 93.6935 39.8336 92.8369C38.9925 92.2221 38.0954 91.5915 37.6753 90.5952C36.9078 89.0227 36.0268 87.4987 35.4063 85.8703C35.2522 85.5066 35.8152 85.6704 35.9208 85.8284C36.3583 86.1276 36.6801 86.7052 37.2325 86.7787C37.8764 86.5091 38.2478 85.8052 38.8534 85.4986C39.2326 85.8766 39.0416 86.5638 39.3812 86.9664C40.0984 87.1667 40.8645 86.8705 41.5412 86.626C41.9628 86.331 42.3637 86.3747 42.7492 86.6991C44.2954 87.5685 46.1438 87.3942 47.8489 87.5319C48.8583 87.6258 49.8826 87.4274 50.7493 86.8901C51.297 86.6421 51.8852 86.0883 52.5113 86.4163C53.197 86.5473 53.8737 87.0603 54.5882 86.8539C55.1153 86.6294 54.8863 85.8713 55.2743 85.5584C55.7551 85.3415 56.3132 85.4665 56.639 85.8773C57.0606 86.221 57.3969 86.7602 57.9337 86.919C58.7988 86.7604 59.4565 86.0756 60.1669 85.6029C61.1851 84.7882 62.3389 84.1423 63.2053 83.1476C64.2491 82.1144 64.9002 80.7656 65.5669 79.4762C65.8285 78.6861 66.2862 77.8518 67.0985 77.527C67.6813 77.3727 68.3665 77.3378 68.7864 76.8236C69.8606 75.6421 70.7538 74.3002 71.7969 73.0996C71.8259 73.0827 71.8585 73.0684 71.8927 73.0701ZM44.1135 78.269C44.8821 78.2327 45.5395 78.753 46.3169 78.6741C47.6731 78.7773 49.0648 78.6273 50.3927 78.9593C51.5835 79.304 52.6433 79.9879 53.8179 80.3792C54.2744 80.5287 54.9144 80.4743 55.216 80.9038C55.3295 81.3963 54.6964 81.6069 54.3208 81.5458C53.6847 81.6916 53.2881 81.0777 52.7035 80.9861C51.8672 80.7739 51.1501 80.1211 50.2476 80.2707C48.441 80.2438 46.6241 80.2822 44.824 80.215C43.8826 79.9251 42.7227 79.4267 41.8249 80.0957C41.1379 80.4852 40.4149 81.0773 39.5778 80.9711C39.0979 80.8052 39.3421 80.2263 39.6812 80.0512C40.8182 79.227 42.1341 78.608 43.5122 78.3216C43.711 78.2895 43.912 78.2699 44.1135 78.269ZM50.6277 82.1449C51.4733 82.1086 52.0672 82.819 52.6034 83.3647C52.9928 83.7585 52.4003 84.083 52.0925 84.2424C51.2407 84.7175 50.3055 85.1124 49.3075 85.0312C47.0987 85.0302 44.8822 85.0729 42.6781 84.9635C41.9739 84.612 41.2789 84.1732 40.7765 83.564C40.4957 83.0536 41.173 82.6827 41.4822 82.4018C41.8447 82.0515 42.3912 82.1197 42.769 82.3878C43.275 82.7103 43.817 82.9971 44.4381 82.9638C46.0817 83.038 47.772 83.1986 49.3876 82.8105C49.7861 82.717 49.9752 82.2891 50.33 82.1563C50.4287 82.1434 50.5285 82.1462 50.6277 82.1449Z" />
</svg>
