<svg width="100" height="100" viewBox="0 0 100 100"  xmlns="http://www.w3.org/2000/svg">
<path d="M45.1708 2.34375C42.8634 4.63715 42.8554 7.21774 43.1382 9.83491C43.3044 10.7663 41.989 12.3438 41.1641 10.0089L40.0018 6.11919L38.3757 16.7455C37.3166 14.315 37.2053 11.6814 37.2147 9.0219C35.9835 12.3066 34.4186 15.3193 32.3366 17.9079C29.1312 21.5099 25.1617 22.8883 23.7415 27.4316C24.4544 30.6166 20.6407 30.5136 20.7219 31.6707C25.599 31.2779 21.691 44.6071 22.0583 51.2986C20.2785 50.5003 19.5866 51.5157 19.4452 53.448C19.0741 62.67 20.4522 62.3364 21.4193 64.2497C21.6583 66.7618 21.3452 68.4714 21.5387 69.0935C21.6575 69.4751 22.7738 70.3852 22.9869 69.8404C23.2545 69.1562 22.619 66.724 22.6973 64.2497L20.5618 60.4742C20.4063 57.4809 19.5838 51.297 21.7674 52.3441C23.1508 52.6484 23.1054 54.0525 23.1038 55.4221C21.4574 60.941 23.5586 61.7404 24.6714 63.7847L27.1104 82.8321C30.4783 86.7731 34.2173 90.2898 38.6667 92.9948C35.8888 88.3337 37.5346 87.1835 39.8862 92.2974C45.0507 100.541 56.3158 98.2529 59.7466 92.2974C63.1444 86.0129 62.1912 90.2199 60.9661 92.9948C65.1037 90.0953 69.1334 87.0204 72.4067 82.7165C73.9159 76.2899 74.5366 69.8633 74.9614 63.4367L76.6458 61.0548L76.8783 53.3312C76.9371 51.889 78.4419 52.4343 78.7368 53.3312C79.2987 55.7895 79.0952 58.2483 78.9108 60.7067L76.8783 63.7263L76.7627 67.6173C76.3291 70.661 77.8102 70.7324 77.6913 67.6173L77.8654 64.0172C78.7827 63.0569 79.7024 62.0993 80.2459 60.7651C80.8302 58.2617 80.6558 55.488 80.1888 53.274C79.6763 51.4527 78.5914 50.5761 76.8199 50.8349V28.3018L74.2068 30.6252C72.0244 17.0313 57.8329 13.0658 55.74 7.86081L55.275 10.9973C52.3193 9.64855 51.5927 7.25065 50.3969 5.0737L50.1645 8.84786C47.3316 6.9453 45.595 4.79371 45.1708 2.34375ZM45.0361 5.89433L49.9231 11.2323C50.8812 15.9843 51.8397 16.3388 52.7979 17.9257L51.2366 9.63166C55.3665 12.9403 58.2031 17.0717 60.6409 21.4572L56.7803 11.9716C62.207 17.0726 71.8091 19.1117 68.7304 30.4499C69.9294 29.1076 70.8145 27.6265 71.3168 25.9745C73.3654 28.0549 72.4489 30.8139 71.8922 33.4898C72.8093 33.7248 73.7254 32.8533 74.6425 32.2982C75.0699 33.5108 74.7225 34.7914 73.3696 36.1588C73.7146 36.3527 74.0192 36.5976 74.889 36.1168L75.5876 49.3398C75.8859 54.1298 73.8092 51.9644 73.2883 49.1759L71.44 36.6923C71.0399 34.8121 69.8784 33.9154 67.6214 34.4337L65.2395 34.844L61.7906 31.1486L59.6132 33.9814L57.8894 34.0233L52.9211 29.3422L52.7153 31.2718H51.0727L45.858 28.6435L45.7755 32.3808C45.8381 33.5483 45.7806 33.9085 44.7084 33.4898L41.9975 31.3544L42.0381 32.9143C42.0971 33.6637 41.2571 34.2941 39.8621 32.8737L35.6331 28.726L34.1138 30.5324L29.6371 30.615C27.7344 35.7761 29.2052 45.0877 25.4082 52.1319C25.0047 52.7314 24.1031 53.2715 24.0121 51.9681L25.4908 32.6679C25.4797 31.7728 24.909 31.1977 24.1353 30.7382C28.1007 25.7495 21.8417 29.5117 34.0312 18.0082C33.9909 22.8918 36.0136 27.1748 40.2317 30.8195L38.8356 23.9216L43.64 30.1221C42.9275 21.492 43.1219 13.2883 45.0361 5.89433ZM59.9016 40.5109L62.3647 44.0425L66.9646 44.1657L70.1265 48.683C71.074 50.0755 70.5469 50.6091 69.5104 49.9559L66.0195 47.1637L63.0634 47.2043L63.8434 51.7217C70.6572 51.8835 72.1143 57.4409 66.3892 59.4008L67.6214 61.535L67.7027 63.0962L65.2395 59.7286L64.377 59.7692L65.1569 63.6298L62.9808 59.9344C61.0901 59.6515 58.5294 61.0053 57.3139 59.0718L54.0288 53.1178C56.7017 51.0286 59.3111 52.5383 61.5848 51.4333V49.1759C61.5848 51.4344 58.2408 49.075 53.5778 52.0494C53.0718 49.9497 52.5206 47.8378 60.928 48.2308V47.0405L54.3172 47.5334V44.1657H60.2712L59.9016 40.5109ZM33.4151 44.0425L45.5697 44.0831V47.5334C41.5736 46.878 38.0108 47.0889 34.3183 47.0405L30.3358 50.3256L29.5139 49.8733L33.4151 44.0425ZM36.286 48.5992H42.8194C44.1419 50.0166 44.2784 51.8283 44.735 53.5344L41.7155 50.544L36.286 50.4856V48.5992ZM37.7152 51.855C40.049 51.7738 41.7112 52.7834 43.0506 54.3182C37.6662 55.6979 34.7062 54.9289 32.7139 53.3019C34.673 52.345 36.3149 51.9038 37.7152 51.855ZM26.9224 62.3747C27.2995 62.3717 27.7944 62.5897 28.3033 63.0429C31.431 62.8789 31.2059 65.0534 31.0955 67.1486C31.6469 69.3151 30.6173 69.1973 29.7807 68.3402L26.4956 64.1506C25.9914 62.9941 26.2939 62.379 26.9224 62.3747ZM72.9441 62.4687C73.5726 62.4731 73.8738 63.0894 73.3696 64.2459L70.0846 68.4342C69.2479 69.2913 68.2196 69.4103 68.771 67.2439C68.6606 65.1487 68.4355 62.9729 71.5632 63.1369C72.0721 62.6837 72.567 62.4661 72.9441 62.4687ZM55.1429 63.0568C55.9535 63.1106 57.8226 64.4678 59.1622 65.4362C62.3292 67.8185 66.1104 73.4988 58.1765 66.6277C57.5826 68.4543 56.376 68.5967 55.1785 68.7632L56.8185 70.0729C64.0262 69.3005 64.3338 76.7322 69.5104 80.219C64.9619 81.7205 62.6729 79.8678 60.6409 77.6326L60.2712 79.8494C53.1537 76.1823 46.3089 76.2355 39.7388 80.0145L39.2878 77.7965C37.0143 79.8739 34.5485 81.5235 30.8693 80.4655C33.1933 78.3315 35.2244 75.9461 36.7828 73.156C39.0164 69.6882 42.0663 69.9784 44.7897 68.7632H42.9426L41.7917 67.1206C38.9892 69.9546 33.0824 72.0776 40.9304 65.1897C47.4434 60.4782 43.6701 64.9981 44.2155 66.2162L47.5819 68.7632C49.4487 70.4878 50.9819 70.0444 52.3863 68.7632L55.9178 66.0942C54.522 63.7624 54.5124 63.015 55.1429 63.0568ZM55.5481 81.6571C51.4766 89.8762 47.9176 89.6844 44.8316 81.6977C48.5257 83.6295 52.0724 83.2199 55.5481 81.6571Z" />
</svg>
