<svg width="100" height="100" viewBox="0 0 100 100" xmlns="http://www.w3.org/2000/svg">
<path d="M13.2433 42.9731C13.2433 42.9731 9.45947 44.3245 9.45947 48.3786V55.4056C9.45947 55.4056 11.0811 72.7029 15.1351 72.7029C15.1351 72.7029 16.2162 72.7029 15.1351 71.6218C14.0541 70.5407 12.4324 63.784 12.4324 63.784C12.4324 63.784 14.3243 68.3785 15.4054 68.3785C16.4865 68.3785 17.027 64.865 17.027 64.0542C17.027 63.2434 17.5676 55.4056 15.1351 55.4056C12.7027 55.4056 15.946 58.9191 15.946 60.5407C15.946 62.1623 15.4054 63.5137 14.8649 63.5137C14.3243 63.5137 12.1622 55.9461 12.1622 54.0542C12.1622 52.1623 12.7027 48.3786 13.2433 48.3786C13.7838 48.3786 14.5946 50.5407 14.8649 50.0002C15.1351 49.7299 14.5946 47.2975 13.5135 46.4867C13.5135 45.9461 14.3243 42.9731 13.2433 42.9731Z" />
<path d="M57.0272 2.43239C54.865 1.89185 52.4326 1.62158 50.2704 1.62158C50.2704 1.62158 50.2704 1.62158 50.0002 1.62158C50.0002 1.62158 50.0002 1.62158 49.7299 1.62158C47.5677 1.62158 45.1353 1.89185 42.9731 2.43239C33.784 4.86483 12.9731 13.2432 12.9731 42.4324C12.9731 43.5135 13.784 44.3243 14.865 44.3243C15.9461 44.3243 16.7569 43.5135 16.7569 42.4324C16.7569 15.6756 35.1353 8.10807 43.5137 5.94591C45.6758 5.40537 47.838 5.40537 50.0002 5.40537C52.1623 5.40537 54.3245 5.67564 56.2164 6.21618C64.5948 8.37834 82.9732 15.9459 82.9732 42.7027C82.9732 43.7837 83.784 44.5946 84.865 44.5946C85.9461 44.5946 86.7569 43.7837 86.7569 42.7027C86.7569 13.2432 65.9461 4.59455 57.0272 2.43239Z" />
<path d="M86.7568 42.9731C86.7568 42.9731 90.5406 44.3245 90.5406 48.3786V55.4056C90.5406 55.4056 88.919 72.7029 84.8649 72.7029C84.8649 72.7029 83.7839 72.7029 84.8649 71.6218C85.946 70.5407 87.5676 63.784 87.5676 63.784C87.5676 63.784 85.6757 68.3785 84.5947 68.3785C83.5136 68.3785 82.9731 64.865 82.9731 64.0542C82.9731 63.2434 82.4325 55.4056 84.8649 55.4056C87.5676 55.4056 84.0541 58.9191 84.0541 60.5407C84.0541 62.1623 84.5947 63.5137 85.1352 63.5137C85.6758 63.5137 87.8379 55.9461 87.8379 54.0542C87.8379 52.1623 87.2974 48.3786 86.7568 48.3786C86.2163 48.3786 85.4055 50.5407 85.1352 50.0002C84.8649 49.7299 85.4055 47.2975 86.4866 46.4867C86.4866 45.9461 85.6757 42.9731 86.7568 42.9731Z" />
<path d="M64.5944 55.1354C66.216 56.757 72.162 61.6219 73.5133 61.6219C75.1349 61.6219 76.216 61.3516 78.3782 59.1894C80.5403 57.0273 81.8917 43.784 81.8917 43.784C80.2701 43.784 76.7566 47.5678 75.6755 47.5678C74.5944 47.5678 72.7025 45.1354 71.0809 45.1354C69.4593 45.1354 64.8647 46.4867 63.5133 45.1354C62.162 43.784 54.5944 44.0543 54.5944 44.0543C54.5944 41.6219 58.3782 38.9192 58.9187 38.3786C59.4593 37.8381 65.9458 37.0273 69.189 37.0273C72.7025 37.0273 74.5944 42.7029 76.216 42.7029C77.8376 42.7029 79.189 41.0813 79.189 37.8381C79.189 34.5948 76.7566 35.4056 76.7566 29.4597C76.7566 23.5138 71.0809 14.0543 69.189 14.0543C67.5674 14.0543 58.9187 22.7029 58.9187 26.4867C58.9187 30.2705 60.2701 31.6219 60.2701 31.6219C61.3512 30.5408 68.3782 27.5678 68.3782 28.9192C68.3782 30.2705 63.7836 35.1354 60.8106 35.1354C57.8376 35.1354 53.7836 30.2705 53.7836 27.0273C53.7836 23.784 62.9728 10.811 62.9728 10.811H60.5403C56.216 10.811 51.8917 20.811 51.8917 20.811C51.8917 17.8381 54.8647 10.2705 54.8647 10.2705H49.7295H44.5944C44.5944 10.2705 47.5674 17.8381 47.5674 20.811C47.5674 20.811 42.9728 10.811 38.9187 10.811H36.4863C36.4863 10.811 45.6755 23.784 45.6755 27.0273C45.6755 30.2705 41.6214 35.1354 38.6485 35.1354C35.6755 35.1354 31.0809 30.2705 31.0809 28.9192C31.0809 27.5678 38.3782 30.811 39.189 31.6219C39.189 31.6219 40.5403 30.0002 40.5403 26.4867C40.5403 22.9732 31.8917 14.0543 30.2701 14.0543C28.6485 14.0543 22.7025 23.784 22.7025 29.4597C22.7025 35.1354 20.8106 34.8651 20.8106 37.8381C20.8106 40.811 22.162 42.7029 23.7836 42.7029C25.4052 42.7029 27.5674 37.0273 30.8106 37.0273C34.3241 37.0273 40.5403 37.8381 41.0809 38.3786C41.6214 38.9192 45.4052 41.6219 45.4052 44.0543C45.4052 44.0543 37.8376 43.784 36.4863 45.1354C35.1349 46.4867 30.5403 45.1354 28.9187 45.1354C27.2971 45.1354 25.4052 47.5678 24.3241 47.5678C23.243 47.5678 19.4593 43.784 18.1079 43.784C18.1079 43.784 19.7295 57.0273 21.6214 59.1894C23.7836 61.3516 24.8647 61.6219 26.4863 61.6219C28.1079 61.6219 33.7836 57.0273 35.4052 55.1354C35.4052 55.1354 32.162 68.6489 21.0809 68.6489H18.3782C18.3782 68.6489 19.4593 77.5678 21.8917 77.5678C24.3241 77.5678 35.1349 64.8651 35.4052 65.1354C35.6755 65.4056 35.9457 67.8381 34.5944 69.1894C32.9728 70.8111 24.3241 81.0813 24.3241 83.5138C24.3241 85.6759 25.1349 85.4056 25.6755 85.4056C26.216 85.4056 31.0809 77.2975 31.6214 77.8381C32.162 78.3786 31.8917 86.4867 31.8917 86.4867C31.8917 86.4867 32.9728 92.7029 36.216 92.7029C39.4593 92.7029 40.2701 88.6489 40.2701 85.1354C40.2701 85.1354 40.8106 84.5948 41.8917 85.6759C42.9728 86.757 44.8647 90.8111 44.8647 91.3516C44.8647 92.1624 39.9998 96.4867 40.8106 97.2975C41.6214 98.1084 42.7025 98.6489 44.0539 97.2975C45.4052 95.9462 48.9187 93.784 48.9187 88.9192C48.9187 84.0543 45.1349 80.0002 45.1349 78.9192C45.1349 78.1084 45.4052 77.8381 45.4052 77.8381H50.8106H56.216C56.216 77.8381 56.4863 78.1084 56.4863 78.9192C56.4863 79.73 52.7025 84.0543 52.7025 88.9192C52.7025 93.784 56.216 95.9462 57.5674 97.2975C58.9187 98.6489 59.9998 98.1084 60.8106 97.2975C61.6214 96.4867 56.7566 92.1624 56.7566 91.3516C56.7566 90.5408 58.6485 86.757 59.7295 85.6759C60.8106 84.5948 61.3512 85.1354 61.3512 85.1354C61.3512 88.9192 62.162 92.7029 65.4052 92.7029C68.6485 92.7029 69.7295 86.4867 69.7295 86.4867C69.7295 86.4867 69.4593 78.3786 69.9998 77.8381C70.5403 77.2975 75.4052 85.4056 75.9458 85.4056C76.4863 85.4056 77.2971 85.6759 77.2971 83.5138C77.2971 81.3516 68.6484 70.8111 67.0268 69.1894C65.4052 67.5678 65.9457 65.4056 66.216 65.1354C66.4863 64.8651 77.2971 77.5678 79.7295 77.5678C82.162 77.5678 83.243 68.6489 83.243 68.6489H80.5403C67.8376 68.6489 64.5944 55.1354 64.5944 55.1354ZM41.3512 46.2165C45.1349 46.2165 45.6755 53.784 45.6755 57.2975C45.6755 60.8111 49.9998 60.8111 49.9998 60.8111C49.9998 60.8111 54.3241 60.8111 54.3241 57.2975C54.3241 53.784 54.8647 46.2165 58.6485 46.2165C62.4322 46.2165 59.4593 48.1083 59.189 48.3786C58.9187 48.6489 56.4863 51.6219 56.4863 55.6759C56.4863 59.73 57.5674 59.1894 57.5674 60.2705C57.5674 61.3516 53.5133 65.9462 49.9998 65.9462C46.4863 65.9462 42.4322 61.0813 42.4322 60.2705C42.4322 59.1894 43.5133 59.73 43.5133 55.6759C43.5133 51.6219 41.0809 48.6489 40.8106 48.3786C40.5403 48.1083 37.8376 46.2165 41.3512 46.2165ZM65.4052 75.6759C65.4052 76.2165 64.0539 77.8381 61.8917 75.6759C59.7295 73.5138 49.9998 73.5138 49.9998 73.5138C49.9998 73.5138 40.2701 73.2435 38.1079 75.6759C35.9457 77.8381 34.5944 76.2165 34.5944 75.6759C34.5944 75.1354 36.216 72.9732 37.8376 72.9732C39.4593 72.9732 45.9457 70.0002 49.9998 70.0002C54.0539 70.0002 60.5403 72.9732 62.162 72.9732C63.7836 72.9732 65.4052 75.1354 65.4052 75.6759Z" />
</svg>
