<svg width="100" height="100" viewBox="0 0 100 100"  xmlns="http://www.w3.org/2000/svg">
<path d="M49.2092 40.5342L47.1197 40.5386C44.2817 44.2399 41.7908 48.0153 31.0625 50.0429C29.1566 52.2449 26.9074 53.5884 24.5112 54.5646V64.8997C25.5613 68.7841 27.1554 72.4869 29.6795 75.8799C29.3363 76.6377 28.6384 76.5676 27.5571 75.603C25.8975 78.8195 36.8058 95.6378 47.9489 97.6562C56.125 97.2746 69.3027 82.3974 67.8812 75.5103C67.353 76.309 66.8057 76.9934 66.0357 76.3409C68.3565 72.896 69.9265 69.4522 71.0184 66.0073L70.8342 54.195C68.2497 52.0244 65.9708 50.6183 63.7291 49.305C58.082 49.4576 53.3838 46.0264 49.2092 40.5342ZM35.3416 50.0914C38.8879 49.9958 41.6235 51.8159 44.4121 53.5112C45.3054 54.9144 44.3385 56.7371 41.5403 55.5979C35.5339 52.6327 32.9913 52.4389 31.2966 52.9231L26.9905 56.6427C27.9101 55.0457 28.7161 53.5102 31.4922 50.9007C32.8863 50.3675 34.1595 50.1232 35.3416 50.0914ZM60.9416 50.1499C62.1237 50.1818 63.3969 50.4261 64.7911 50.9592C67.5671 53.5687 68.3731 55.1042 69.2928 56.7012L64.9866 52.9817C63.2919 52.4974 60.7493 52.6913 54.7429 55.6564C51.9447 56.7956 50.9778 54.9715 51.8711 53.5683C54.6597 51.873 57.3954 50.0543 60.9416 50.1499ZM35.3287 56.9481C37.8815 56.9185 40.3411 58.1349 42.5851 61.3399C42.8923 61.877 42.9048 62.2811 42.2583 62.3847C37.3132 63.773 32.3727 64.8726 27.5128 60.0354C30.1301 58.2536 32.776 56.9777 35.3287 56.9481ZM60.9017 57.0509C63.4544 57.0805 66.1003 58.3578 68.7176 60.1396C63.8577 64.9768 58.9158 63.8758 53.9707 62.4875C53.3242 62.3839 53.3381 61.9812 53.6453 61.4441C55.8893 58.2391 58.3489 57.0213 60.9017 57.0509ZM42.8749 75.1876L45.4583 75.1891C47.3891 76.1627 49.2336 75.9312 51.0419 75.1891H53.4868C53.2388 76.2949 52.2295 76.9658 51.1332 77.5869C49.8388 78.2262 48.1527 80.1477 45.4126 77.4956C44.2183 76.8137 43.1015 76.1113 42.8749 75.1876ZM50.6437 81.6804C50.9445 81.6525 51.2584 81.6833 51.5814 81.796C52.7117 82.0489 54.6199 83.2719 56.4842 82.9849C57.9846 82.7981 58.3526 84.0465 57.2235 84.1382L51.687 84.6006C51.1949 84.4446 50.7019 84.4288 50.2098 84.8775C49.3796 85.3022 47.6821 85.9046 46.7043 84.5079C46.2335 84.2922 45.7549 84.0886 44.8588 84.5535L38.8142 84.1853C38.0917 84.0391 38.4528 82.8811 39.4137 82.9849C42.268 83.4708 42.6924 82.0806 45.2742 81.7403C46.5637 81.6066 47.4264 82.3241 48.3643 82.8936C48.9525 82.3774 49.7413 81.7639 50.6437 81.6804ZM44.512 86.8715C44.708 86.8596 44.9271 86.9109 45.1357 87.047C47.3053 87.9174 49.6005 87.9521 51.5471 87.047C52.4611 86.543 53.2998 87.4027 52.4706 88.0604C49.6905 90.2165 46.931 90.7516 44.2122 88.0604C43.5366 87.5064 43.924 86.907 44.512 86.8715Z" />
<path d="M28.3872 24.5757C33.0812 19.1844 36.2207 21.1508 39.0911 24.3912C35.3129 21.0893 31.7979 21.9981 28.3872 24.5757Z" />
<path d="M33.8571 17.97C28.4921 18.0275 23.0858 21.5153 23.6819 28.8203C26.2315 32.1406 29.8205 33.4783 32.2628 33.4333C31.115 35.2422 27.5868 35.1718 23.9574 30.3889C23.7341 42.0318 41.6557 37.2299 42.9661 29.0044L42.8748 22.5459C41.1793 19.4972 37.5279 17.9306 33.8571 17.97ZM33.7344 19.1047C37.7418 18.9837 41.7848 20.9136 41.8671 25.0622C40.4317 34.7626 26.7292 33.6492 25.8157 25.4533C25.7548 21.3972 29.727 19.2257 33.7344 19.1047Z" />
<path d="M68.1812 24.4585C63.4872 19.0673 60.3476 21.0336 57.4773 24.274C61.2555 20.9721 64.7705 21.8809 68.1812 24.4585Z" />
<path d="M62.7113 17.8528C68.0762 17.9104 73.4826 21.3981 72.8865 28.7031C70.3368 32.0234 66.7479 33.3612 64.3055 33.3161C65.4533 35.125 68.9815 35.0546 72.611 30.2717C72.8342 41.9146 54.9126 37.1127 53.6022 28.8872L53.6936 22.4287C55.3891 19.38 59.0405 17.8134 62.7113 17.8528ZM62.834 18.9875C58.8266 18.8665 54.7835 20.7964 54.7012 24.945C56.1367 34.6454 69.8392 33.532 70.7527 25.3361C70.8135 21.28 66.8414 19.1085 62.834 18.9875Z" />
<path d="M21.0974 26.8827C18.9981 34.6812 20.8623 41.8191 22.8506 48.9363C23.9071 50.8833 25.232 49.9664 26.5416 49.2131L32.1704 44.8762C38.2866 44.4137 42.4023 41.0413 45.827 36.6638C46.8289 35.5155 49.0117 35.214 50.0716 36.4793C53.6166 40.4278 57.7864 43.8854 64.7433 45.1531L70.5566 49.2131C72.3108 50.7538 73.1851 49.8745 73.9708 48.7518C77.2509 41.5851 76.7223 34.4185 75.6317 27.2518C75.1508 37.1973 71.2292 42.5272 60.6832 38.9706C50.4335 34.8309 50.2068 28.5587 51.3635 21.9921L45.1811 21.8999C46.3155 30.0974 43.5184 36.1221 35.3077 39.1552C25.0428 41.3699 20.2268 37.3695 21.0974 26.8827Z" />
<path d="M73.602 61.1626L73.5097 67.2065C73.1895 70.1462 72.0709 72.7788 70.9721 75.419C70.4063 76.6221 71.4701 77.6528 72.4024 76.2033L75.6781 68.4522C76.0032 66.0474 75.7704 63.5309 75.8165 61.0703C75.6781 58.7885 73.4405 60.0544 73.602 61.1626Z" />
<path d="M76.5461 76.0864C72.3285 79.8763 73.4312 84.1569 76.8724 83.6879C73.228 81.3859 74.8147 79.1174 76.5461 76.0864Z" />
<path d="M80.6144 73.8501C77.3045 66.5743 82.3453 64.9437 88.4116 55.9027C91.856 51.3862 90.0934 44.4107 89.3343 37.9092L88.227 40.0776C89.5195 45.5661 90.5601 51.2712 86.6584 56.4102C79.4029 64.6255 75.8329 67.9686 80.6144 73.8501Z" />
<path d="M77.7211 51.814C77.2936 51.2714 76.6294 51.5845 77.036 52.2382C79.3773 56.2625 80.6332 55.4517 82.0601 55.4027C79.6196 55.1422 78.7308 53.4212 77.7211 51.814Z" />
<path d="M84.474 54.4895C77.9439 49.6448 84.7107 43.7772 86.3009 38.3079C87.6158 31.1815 85.9645 25.4033 81.5378 20.8867C84.3347 26.161 85.5624 31.6864 84.0172 37.6555C82.7899 43.8186 74.0015 53.0063 84.474 54.4895Z" />
<path d="M63.5293 15.4058C67.1219 15.4223 70.6794 15.3947 74.9477 16.254C82.5828 24.7003 81.2347 30.4548 81.0158 36.2851C80.6626 27.1978 78.3706 20.4924 71.9463 18.8639C69.6764 16.6398 66.4318 16.3647 63.5293 15.4058Z" />
<path d="M43.0414 15.9278C41.886 17.3347 43.5219 18.1106 45.0641 17.4938C57.1228 6.78567 65.3777 7.68262 72.0767 12.5349C68.8832 6.78118 55.6101 4.93795 43.0414 15.9278Z" />
<path d="M38.1682 14.5637C37.4994 15.623 37.6844 16.135 41.767 14.1485C43.5952 11.2259 47.1706 10.2092 50.2562 8.6582C46.1837 9.15884 42.1199 9.95354 38.1682 14.5637Z" />
<path d="M28.9409 15.5327C34.429 15.8861 34.4608 10.2119 39.4602 7.32028C45.6743 3.39109 51.6812 4.64035 57.7306 4.82885C52.4268 2.73659 41.9022 0.701858 37.7993 4.36749C34.1365 7.2609 31.5975 11.4654 28.9409 15.5327Z" />
<path d="M12.4697 30.6656C13.1051 26.1645 16.9923 23.1415 21.6511 20.4692C18.03 23.6093 14.5197 26.8004 12.4697 30.6656Z" />
<path d="M17.3142 29.6509C13.5224 33.6509 8.43135 36.5193 9.74771 44.9684C10.3531 49.567 20.9379 56.119 11.4087 59.1787C23.4213 61.0568 13.7956 48.5542 12.2167 44.5835C10.6732 39.5446 14.5553 37.2088 17.3142 29.6509Z" />
<path d="M12.2446 53.1191C14.3473 54.4136 12.9044 55.3857 11.0049 56.3163C11.7369 55.2904 12.4728 54.265 12.2446 53.1191Z" />
<path d="M17.314 44.6914C16.1293 48.2664 18.9363 49.6136 20.1284 53.7805C21.2993 50.7702 18.027 49.4378 17.314 44.6914Z" />
<path d="M20.0743 59.2524L19.748 67.7347L23.5324 76.6737C24.074 77.6904 25.4993 77.3519 24.9026 75.8907L22.2275 66.6255L22.358 61.0794L20.0743 59.2524Z" />
</svg>
