<svg width="100" height="100" viewBox="0 0 100 100"  xmlns="http://www.w3.org/2000/svg">
<path d="M96.7567 8.91887C96.7567 7.29724 94.8648 5.67562 92.9729 3.78373C91.3513 2.16211 80.5405 2.16211 75.9459 2.16211C71.3513 2.16211 67.5675 10.2702 66.2162 8.91887C64.8648 7.56751 61.081 7.02697 58.1081 7.02697C55.1351 7.02697 54.054 9.45941 52.7027 9.45941C51.6216 9.45941 50 9.45941 50 9.45941C50 9.45941 48.3783 9.45941 47.2973 9.45941C46.2162 9.45941 44.8648 7.02697 41.8918 7.02697C38.9189 7.02697 35.1351 7.56751 33.7837 8.91887C32.4324 10.2702 28.6486 2.16211 24.054 2.16211C19.4594 2.16211 8.91888 2.16211 7.02699 3.78373C5.1351 5.40535 3.2432 7.29724 3.2432 8.91887C3.2432 10.5405 1.62158 19.7297 1.62158 24.054C1.62158 24.054 1.62158 25.9459 3.51347 27.8378C5.40537 29.7297 9.99996 34.054 13.5135 34.054C17.027 34.054 15.6756 31.3513 18.6486 31.3513C21.6216 31.3513 15.9459 29.4594 13.7837 29.4594C11.6216 29.4594 12.7027 25.4053 10.8108 25.4053C8.91888 25.4053 5.67564 23.5135 5.67564 19.9999C5.67564 16.4864 8.10807 7.29724 9.45942 7.29724C10.8108 7.29724 21.6216 4.86481 22.7027 5.94589C23.7837 7.02697 31.8918 13.5135 33.7837 13.5135C35.6756 13.5135 37.5675 10.5405 40.8108 10.5405C44.054 10.5405 46.2162 12.9729 47.2973 12.9729C48.3783 12.9729 50 12.9729 50 12.9729C50 12.9729 51.8918 12.9729 52.7027 12.9729C53.5135 12.9729 55.6756 10.8108 59.1891 10.8108C62.7027 10.8108 64.5946 13.7837 66.2162 13.7837C67.8378 13.7837 75.9459 7.29724 77.2973 6.21616C78.6486 5.13508 89.1891 7.56751 90.5405 7.56751C91.8919 7.56751 94.3243 16.7567 94.3243 20.2702C94.3243 23.7837 91.3513 25.4053 89.1891 25.4053C87.2973 25.4053 88.1081 29.1891 85.9459 29.1891C83.7837 29.1891 78.1081 31.081 81.081 31.081C84.054 31.081 82.9729 33.7837 86.2162 33.7837C89.4594 33.7837 94.3243 29.4594 96.2162 27.5675C98.1081 25.6756 98.1081 23.7837 98.1081 23.7837C98.3783 19.4594 96.7567 10.5405 96.7567 8.91887Z" />
<path d="M49.4593 28.9191C48.9188 28.9191 48.3782 28.3786 48.3782 27.8381C48.3782 27.8381 47.5674 27.0273 47.2972 26.4867C46.2161 25.1354 45.9458 24.5948 45.9458 24.0543C45.9458 23.5137 45.9458 22.9732 49.7296 20.2705L48.6485 16.4867C48.3782 15.9462 48.9188 15.4056 49.4593 15.1354C49.9999 14.8651 50.5404 15.4056 50.8107 15.9462L52.162 21.0813L51.6215 21.6219C50.2701 22.7029 48.9188 23.784 48.3782 24.3246C48.3782 24.3246 48.6485 24.8651 48.9188 25.1354C49.9999 26.4867 50.2701 27.2975 50.2701 27.8381C50.5404 28.3786 49.9999 28.9191 49.4593 28.9191Z" />
<path d="M50.0001 45.6757H21.0812C21.0812 45.6757 19.1893 45.4054 19.1893 42.973C19.1893 40.5405 19.1893 40.5405 17.5677 40.5405C15.9461 40.5405 16.2163 37.2973 16.7569 36.7568C17.2974 36.2162 19.7299 34.0541 20.5407 34.5946C21.0812 35.1351 22.4326 35.9459 23.7839 34.8649C25.1353 33.7838 38.6488 30 50.0001 30C61.3515 30 83.5136 34.5946 83.5136 37.8378C83.5136 37.8378 84.0542 38.6486 82.1623 38.6486C80.2704 38.6486 81.0812 44.0541 81.0812 44.5946C81.0812 45.1351 80.2704 45.6757 79.4596 45.6757C78.6488 45.6757 50.0001 45.6757 50.0001 45.6757Z" />
<path d="M72.7025 48.3782C72.7025 48.3782 73.7836 49.9998 73.7836 51.0809C73.7836 51.0809 71.0809 49.7295 68.3782 49.7295C65.6754 49.7295 59.7295 51.0809 58.1079 52.4322C56.7565 54.0539 55.9457 51.8917 56.7565 51.3512C57.5673 50.5403 60.8106 48.3782 60.8106 48.3782H49.9998H39.189C39.189 48.3782 42.7025 50.5403 43.243 51.3512C44.0538 52.162 42.9727 54.0539 41.3511 52.4322C39.7295 50.8106 34.0538 49.7295 31.3511 49.7295C28.6484 49.7295 25.9457 51.0809 25.9457 51.0809C25.9457 49.9998 27.0268 48.3782 27.0268 48.3782H23.243V48.9187C23.243 51.0809 23.243 54.0539 23.5133 57.0268C23.5133 57.0268 19.4592 51.3512 16.216 51.3512C12.9727 51.3512 14.5944 54.8647 14.5944 55.6755C14.5944 56.4863 20.27 66.4863 20.27 68.3782C20.27 70.2701 23.5133 71.0809 23.7836 70.8106C24.0538 70.5403 23.243 66.7566 22.4322 66.7566C21.6214 66.7566 19.189 64.0539 19.189 62.162C19.189 60.2701 18.3782 56.216 17.0268 56.216C17.0268 56.216 18.1079 55.9458 19.4592 57.0268C20.8106 58.3782 21.8917 60.2701 21.8917 61.3512C21.8917 62.4322 20.8106 63.243 20.8106 63.7836C20.8106 64.3241 22.4322 65.6755 23.243 65.6755C23.7836 65.6755 25.1349 68.9187 25.9457 70.8106C26.216 71.3512 26.216 71.8917 26.4863 72.4322C28.1079 77.2971 29.9998 81.8917 32.9727 84.8647C41.0809 92.9728 49.9998 93.243 49.9998 93.243C49.9998 93.243 58.9187 92.7025 67.0268 84.8647C75.1349 77.0268 76.7565 58.1079 76.7565 48.6485V48.1079H72.7025V48.3782ZM45.6755 72.7025C46.4863 72.7025 48.1079 73.7836 49.9998 73.7836C51.8917 73.7836 53.5133 72.7025 54.3241 72.7025C55.1349 72.7025 56.216 72.7025 56.216 72.7025C52.7025 76.216 49.9998 75.9457 49.9998 75.9457C49.9998 75.9457 47.2971 76.216 43.7836 72.7025C43.7836 72.7025 44.8646 72.7025 45.6755 72.7025ZM35.9457 60.2701C34.0538 60.2701 28.6484 59.7295 28.6484 55.1349H37.5673C37.5673 55.1349 42.9727 57.0268 42.9727 59.4593C42.9727 59.4593 39.9998 59.4593 38.6484 59.4593C37.5673 59.4593 37.8376 60.2701 35.9457 60.2701ZM49.9998 85.4052C49.9998 85.4052 46.216 85.9457 39.7295 79.4593C39.7295 79.4593 47.8376 77.5674 49.9998 79.7295C52.1619 77.5674 60.27 79.4593 60.27 79.4593C53.7836 85.9457 49.9998 85.4052 49.9998 85.4052ZM64.0538 60.2701C62.1619 60.2701 62.4322 59.4593 61.0809 59.4593C59.7295 59.4593 56.7565 59.4593 56.7565 59.4593C56.7565 57.0268 62.1619 55.1349 62.1619 55.1349H71.0809C71.3511 59.7295 65.9457 60.2701 64.0538 60.2701Z" />
<path d="M79.7295 50.5405L83.5133 52.1621C83.5133 52.1621 80.27 67.5676 80.27 70.2703C80.27 72.973 79.4592 83.2432 79.4592 83.2432L69.189 92.973V91.0811L77.5673 82.4324L78.3782 71.6216C78.3782 71.6216 77.5673 70.5405 76.7565 70.5405C77.0268 70.2703 77.5673 57.2973 79.7295 50.5405Z" />
<path d="M84.5948 54.3242L86.7569 55.6756C86.7569 55.6756 84.5948 64.0539 84.5948 65.6756L82.4326 66.2161C82.4326 66.4864 83.784 57.5675 84.5948 54.3242Z" />
<path d="M67.2973 91.3516V95.1354L64.5946 97.5678C64.5946 97.5678 62.7027 95.1354 63.5135 94.3245C64.3243 94.0543 66.7568 91.6218 67.2973 91.3516Z" />
</svg>
