<svg width="100" height="100" viewBox="0 0 100 100"  xmlns="http://www.w3.org/2000/svg">
<path d="M76.9242 55.9254L76.5005 50.8213L75.5264 53.289L75.7861 57.7698L76.9242 55.9254Z" />
<path d="M30.0933 12.3027C30.3193 14.625 30.8827 16.8246 33.7668 18.1803" stroke="current-color" stroke-width="4.70208" stroke-linecap="round" stroke-linejoin="round"/>
<path d="M37.7156 23.7823C35.8332 21.9124 35.1945 20.0194 36.6136 18.0884C36.601 19.9864 37.1249 21.8843 37.7156 23.7823Z" />
<path d="M17.2817 19.5576C17.6256 21.2027 18.518 22.5946 20.4501 23.5066" stroke="current-color" stroke-width="4.70208" stroke-linecap="round" stroke-linejoin="round"/>
<path d="M22.0168 12.0527C20.1127 15.5573 18.9403 19.044 24.03 22.378" stroke="current-color" stroke-width="4.70208" stroke-linecap="round" stroke-linejoin="round"/>
<path d="M22.9297 24.6089C18.4303 28.7153 18.8647 36.3164 20.1745 44.5376L22.9297 24.6089Z"  fill-opacity="0.0216049"/>
<path d="M22.9297 24.6089C18.4303 28.7153 18.8647 36.3164 20.1745 44.5376" stroke="current-color" stroke-width="4.70208" stroke-linecap="round" stroke-linejoin="round"/>
<path d="M23.7699 13.3516C23.4174 20.0246 26.9967 22.9113 33.251 23.2223" stroke="current-color" stroke-width="4.70208" stroke-linecap="round" stroke-linejoin="round"/>
<path d="M25.2256 10.7414C27.5268 8.78 29.9347 8.63283 32.4807 10.8332" stroke="current-color" stroke-width="4.70208" stroke-linecap="round" stroke-linejoin="round"/>
<path d="M39.1606 17.5079C43.208 17.5341 47.1997 18.042 50.525 24.3264C53.3708 18.3173 57.8171 17.5366 62.4737 17.4429C58.7552 17.7271 55.3621 15.1754 50.8497 22.3783L50.7847 5.68896L50.0704 22.3133C46.8959 16.4756 43.0575 16.7242 39.1606 17.5079Z" />
<path d="M33.3159 12.7023C40.429 9.067 45.5539 10.7332 49.0311 16.7935C44.628 10.94 39.0902 11.1856 33.3159 12.7023Z" />
<path d="M53.0576 16.0792C56.2923 9.85417 61.6557 10.6236 67.2792 12.2478C62.1446 11.7232 57.0092 11.1954 53.0576 16.0792Z" />
<path d="M83.4443 19.7944C83.1004 21.4395 82.208 22.8314 80.2759 23.7434L83.4443 19.7944Z" fill-opacity="0.0462963"/>
<path d="M83.4443 19.7944C83.1004 21.4395 82.208 22.8314 80.2759 23.7434" stroke="current-color" stroke-width="4.70208" stroke-linecap="round" stroke-linejoin="round"/>
<path d="M78.7094 12.2896C80.6135 15.7941 81.7859 19.2808 76.6963 22.6148" stroke="current-color" stroke-width="4.70208" stroke-linecap="round" stroke-linejoin="round"/>
<path d="M77.7959 24.8452C82.2952 28.9516 81.8608 36.5528 80.551 44.774" stroke="current-color" stroke-width="4.70208" stroke-linecap="round" stroke-linejoin="round"/>
<path d="M76.9557 13.5879C77.3082 20.2609 73.7289 23.1477 67.4746 23.4586" stroke="current-color" stroke-width="4.70208" stroke-linecap="round" stroke-linejoin="round"/>
<path d="M75.5003 10.9782C73.1991 9.01682 70.7911 8.86965 68.2451 11.07" stroke="current-color" stroke-width="4.70208" stroke-linecap="round" stroke-linejoin="round"/>
<path d="M70.633 12.5391C70.407 14.8614 69.8435 17.0609 66.9595 18.4167" stroke="current-color" stroke-width="4.70208" stroke-linecap="round" stroke-linejoin="round"/>
<path d="M57.2783 59.7829C58.9723 57.4324 65.7196 60.8316 68.3179 58.2893L74.1624 51.3408L75.1365 51.9253L68.9024 58.8737C67.6648 60.7465 61.9297 59.9422 57.2783 59.7829Z" />
<path d="M43.0633 60.2679C41.3693 57.9174 34.4383 60.7656 31.84 58.2233C29.3072 53.3873 26.6834 52.0103 24.0669 50.3564L25.1675 52.2651C28.264 53.9105 29.3698 55.6921 31.2555 58.8077C32.4931 60.6805 38.4119 60.4272 43.0633 60.2679Z" />
<path d="M40.157 94.1391C34.3271 89.5308 28.5068 81.9841 26.5877 76.5447C23.8718 68.8471 21.5522 58.3641 21.5522 53.7878C21.5522 49.7933 21.1873 48.8939 18.7266 46.8234C17.1726 45.5157 15.3424 44.4458 14.6596 44.4458C13.9767 44.4458 12.7643 43.792 11.9652 42.9929C10.7548 41.7826 10.5887 39.8419 10.9703 31.3687C11.2795 24.5006 11.8792 20.5092 12.8168 19.0783C13.5804 17.9128 14.2052 15.5539 14.2052 13.8364C14.2052 9.50221 16.926 6.47407 23.0556 3.98625C28.2213 1.88966 28.333 1.88411 32.4943 3.51721C34.8104 4.42618 37.532 5.11269 38.5422 5.0428C50.2468 4.23305 58.2326 4.24564 60.3208 5.07714C62.354 5.88675 63.5501 5.71311 66.8097 4.13513C71.8558 1.69238 72.7444 1.71283 78.8481 4.41216C84.4021 6.86841 86.7382 9.67079 87.073 14.2786C87.1959 15.9699 87.7912 18.2494 88.3958 19.344C89.1336 20.6796 89.3688 24.6011 89.111 31.2664C88.7688 40.1135 88.5078 41.3759 86.7218 42.8222C85.6189 43.7152 83.8651 44.4458 82.8243 44.4458C81.7836 44.4458 80.1159 45.169 79.1184 46.053C77.6918 47.3172 77.3969 47.3662 77.7364 46.2826C77.9737 45.5249 79.3772 44.3669 80.8552 43.7093C85.6975 41.5548 86.2942 41.0676 86.5978 39.0208C86.7628 37.9081 86.4023 36.4006 85.7965 35.6707C85.4215 35.2189 83.2445 34.0291 83.2261 33.8115C83.2072 33.5888 85.3553 34.3437 85.7085 34.3437C87.2169 34.3437 88.0451 29.9265 86.8148 28.4441C86.5872 27.6883 82.9075 28.4683 82.817 28.338C82.7196 28.2119 86.2956 27.2702 86.7123 26.5651C88.1294 25.6893 87.8841 22.1934 86.2411 19.8475C85.4522 18.7214 84.8799 17.0797 84.9693 16.1993C85.4286 11.671 82.5999 7.10694 78.9507 6.48857C77.8477 5.85972 79.1516 11.0693 78.4546 10.8337C77.5238 9.21002 76.2865 5.48314 74.6059 4.96787C72.364 3.88678 71.6114 4.0108 67.5144 6.13636C63.1802 8.38502 62.7767 8.43733 60.0927 7.09836C58.3015 6.20479 56.1743 5.89282 54.3269 6.25276C50.7074 6.95794 50.2538 6.9585 46.6994 6.26218C44.9128 5.91216 42.8156 6.22905 41.1217 7.105C38.5739 8.42251 38.1158 8.36457 33.6646 6.16172L28.9222 3.81469L25.6383 5.1475C24.1028 6.7638 23.4704 8.72747 23.0501 10.7727C22.9321 9.20519 22.2392 7.74214 23.9083 5.84966C18.2941 8.12828 16.056 10.7945 16.0128 15.2551C16.3239 17.529 16.5947 17.7678 14.6352 20.0548C13.0344 22.1713 12.8659 25.7098 14.3232 26.6104C14.6932 26.8391 16.7623 28.2285 18.4328 28.3378C15.8669 29.3364 15.3637 28.4014 13.864 28.0878C12.0013 29.1302 11.9261 31.9149 13.7204 33.4041C14.3719 34.6566 17.902 33.7321 17.8925 33.8702C17.9001 34.3145 14.3231 35.8098 13.7204 35.8781C12.9769 36.6216 12.3685 37.8476 12.3685 38.6024C12.3685 40.6572 14.1178 43.5247 15.3855 43.5479C15.9991 43.5591 17.5343 44.3764 18.7971 45.3642C20.0599 46.3519 21.3518 47.1693 21.6681 47.1805C21.9844 47.1918 22.4274 45.0313 22.6525 42.3795C23.5288 32.0575 29.1574 25.7477 37.4585 25.7816C40.075 25.7923 46.555 25.8192 51.8586 25.8415C57.1622 25.8637 63.0019 25.8842 64.8357 25.887C71.964 25.898 77.0784 33.0257 76.5098 42.1568C76.337 44.9325 76.4795 47.2029 76.8266 47.2022C77.9524 47.2 76.466 54.0477 75.0327 55.4663C74.2672 56.224 73.9184 56.3463 74.2575 55.7382C74.5967 55.13 74.6132 53.5925 74.2942 52.3214C73.7838 50.2878 73.552 50.1725 72.3637 51.3608C70.9066 52.8179 70.1619 52.9909 66.3964 52.747C63.5156 52.5604 59.4574 54.4878 56.9897 57.2147C54.9083 59.5146 55.5404 60.6099 58.1448 59.216C59.5838 58.4459 60.3258 58.5545 61.4743 59.7029C62.2871 60.5157 65.053 61.9791 67.6208 62.9548C71.7629 64.5286 72.2245 64.5593 71.7132 63.2268C71.3172 62.1947 71.7369 61.5681 73.0551 61.2234C74.2234 60.9178 74.5754 60.4759 73.9556 60.0928C73.2869 59.6795 73.6214 58.8571 74.931 57.6946L76.9242 55.9255L76.4048 60.9766C75.4828 69.9419 71.5143 80.5585 67.0249 86.0696C60.3862 94.2194 56.1436 97.091 50.095 97.5285C45.1793 97.884 44.6788 97.7133 40.157 94.1391ZM57.6666 85.7205L59.6648 83.0049L57.0517 80.8405C53.7284 78.088 47.9844 77.9133 43.8228 80.4381C42.1812 81.4341 40.8381 82.5208 40.8381 82.853C40.8381 83.1852 41.9746 84.5743 43.3636 85.9399C45.4611 88.002 46.7324 88.4317 50.8637 88.4753C54.7984 88.1816 55.3463 87.8276 57.6666 85.7205ZM50.9402 75.2114C50.9402 74.9588 50.7336 74.7522 50.4811 74.7522C50.2285 74.7522 50.0219 74.9588 50.0219 75.2114C50.0219 75.4639 50.2285 75.6706 50.4811 75.6706C50.7336 75.6706 50.9402 75.4639 50.9402 75.2114ZM48.4898 73.8198C49.1481 73.8111 49.0625 73.4891 48.2684 72.9864C47.5565 72.5357 46.4201 72.3796 45.7429 72.6395C44.3175 73.1864 44.038 70.5614 45.43 69.7011C45.9351 69.389 46.3346 68.6414 46.3178 68.0398C46.301 67.4382 45.4886 67.9042 44.5125 69.0752C43.0433 70.838 42.9297 71.5116 43.8524 72.9892C44.4655 73.9708 45.5183 74.5624 46.192 74.3039C46.8657 74.0453 47.8997 73.8275 48.4898 73.8198ZM57.0604 72.3945C57.3642 71.6029 57.0982 70.4664 56.4692 69.869C55.5684 69.0133 55.4535 69.2067 55.928 70.78C56.4076 72.37 56.1009 72.8594 54.4241 73.1805L52.3178 73.5837L54.413 73.7088C55.5653 73.7775 56.7567 73.1861 57.0604 72.3945ZM36.2217 62.2568C38.3221 61.4164 39.6514 60.367 39.3118 59.8175C38.9156 59.1764 39.8412 59.0358 42.0729 59.3979C43.9193 59.6976 45.43 59.7809 45.43 59.583C45.43 58.8961 40.7877 54.5856 39.0414 53.651C38.0756 53.1341 36.0019 52.7112 34.4333 52.7112C32.8646 52.7112 29.961 51.8847 27.9809 50.8744C23.4206 48.548 22.6696 48.5573 24.8023 50.914C26.4584 52.7439 26.4562 52.7737 24.7151 52.1196C23.1334 51.5254 23.0736 51.6256 24.1902 52.9984C25.2742 54.3311 25.2461 54.5479 23.9894 54.5479C21.7644 54.5479 23.2241 57.2806 26.0398 58.3864L28.44 59.329L26.3737 60.1232C23.3678 61.2785 23.8447 62.1713 27.2043 61.6782C29.8206 61.2942 29.937 61.3731 28.4063 62.4924C26.8528 63.6283 26.9543 63.7317 29.6235 63.7317C31.2251 63.7317 34.1943 63.068 36.2217 62.2568ZM45.43 50.9969C45.43 47.2453 30.6026 43.5828 28.0187 46.6961C27.0812 47.8257 27.378 47.9588 29.9726 47.5724C32.1808 47.2434 34.5649 47.8753 38.5422 49.8435C45.1815 53.1291 45.43 53.1707 45.43 50.9969ZM61.9607 49.9561C64.9626 48.4408 68.488 47.2009 69.7949 47.2009C71.1453 47.2009 71.9262 46.8044 71.6037 46.2826C69.9409 43.5922 56.1825 47.4301 55.6978 50.7195C55.3235 53.2599 55.4453 53.2451 61.9607 49.9561ZM19.9623 67.8788C19.3544 66.7926 17.9553 66.0889 16.3574 66.0656C13.5556 66.0249 13.2568 64.7125 14.716 58.855C15.2505 56.7091 15.0296 56.1881 13.4045 55.7632C12.3296 55.4821 11.4501 54.8428 11.4501 54.3426C11.4501 53.8423 12.07 53.6709 12.8277 53.9617C14.3417 54.5427 14.7829 51.8874 13.4246 50.3693C12.978 49.8702 13.3349 48.8453 14.2588 47.9739C15.6918 46.6224 16.0899 46.6024 17.7946 47.7964C19.262 48.8242 19.6906 50.0509 19.6099 52.9929L19.5043 56.8439L18.8285 53.3533C18.4568 51.4335 17.617 49.3671 16.9622 48.7614C16.0157 47.8859 15.8825 47.9762 16.3122 49.2021C16.6094 50.0501 17.1295 52.2198 17.4679 54.0235C17.8063 55.8273 18.4208 57.3031 18.8335 57.3031C19.7789 57.3031 21.9329 66.7224 21.3722 68.4046C21.0661 69.3228 20.6923 69.1834 19.9623 67.8788ZM17.5768 64.1335C17.7264 63.6599 17.4423 62.6526 16.9454 61.8949C16.1753 60.7206 15.919 60.7083 15.2086 61.8117C14.7502 62.5235 14.5945 63.6775 14.8625 64.376C15.381 65.7272 17.1224 65.5716 17.5768 64.1335ZM76.6547 67.1895C76.6547 66.8688 77.0296 65.6203 77.4878 64.4152C77.9461 63.21 78.5551 58.9786 78.8412 55.0122C79.1273 51.0457 79.8306 47.3556 80.4039 46.8119C81.1777 46.0782 81.3471 47.2921 81.0613 51.5222C80.7114 56.7001 80.8491 57.2552 82.5686 57.5961C84.0617 57.8922 83.9536 57.9977 82.0563 58.0964C79.9615 58.2053 79.5863 58.7091 79.1441 62.0061C78.8649 64.0877 78.1906 66.2367 77.6456 66.7817C77.1006 67.3267 76.6547 67.5102 76.6547 67.1895ZM82.4711 53.9357C82.8079 53.599 83.3589 53.599 83.6956 53.9357C84.0324 54.2724 83.7568 54.5479 83.0834 54.5479C82.4099 54.5479 82.1344 54.2724 82.4711 53.9357ZM77.5731 52.7112C77.5731 52.0377 77.8486 51.7622 78.1854 52.0989C78.5221 52.4357 78.5221 52.9867 78.1854 53.3234C77.8486 53.6602 77.5731 53.3847 77.5731 52.7112Z" />
<path d="M40.9665 81.8511C46.4333 83.1896 53.0262 82.6512 59.097 82.057L59.5515 82.6841C54.9639 84.0156 42.9414 83.4542 40.6543 83.0311L40.9665 81.8511Z" />
</svg>
