<svg width="100" height="100" viewBox="0 0 100 100"  xmlns="http://www.w3.org/2000/svg">
<path d="M41.7106 10.6782C43.5981 7.39809 45.1985 4.17052 48.0656 2.90643C49.6008 2.22853 51.6636 3.65449 53.0911 4.31245L60.6467 8.63385C65.3162 11.5089 67.602 13.7843 69.3406 14.8969C71.5059 16.2885 71.7483 15.7252 73.3553 18.1855C74.2844 19.6051 74.5117 21.0977 75.1457 22.2342C75.9153 23.6179 77.0506 23.9917 77.8999 26.0254C79.1812 28.0685 79.0176 28.7905 79.0869 31.8712C80.6688 36.1952 84.889 40.4331 88.103 43.8739C87.9606 44.1577 88.1034 44.6255 87.9619 44.8082C86.8626 46.2267 86.589 45.2978 83.5622 42.9302C85.9508 46.6666 86.9433 53.7591 86.4982 57.141C85.9498 57.3872 85.2566 57.6008 84.7082 57.4611C83.5589 53.7851 83.7566 53.1621 82.8177 52.4839C82.1031 49.1124 81.5379 47.7249 78.5618 44.7591C78.4023 47.0188 79.1516 49.4609 78.1125 51.8305L76.4458 57.8599C75.6044 62.9123 74.1449 69.1808 71.1502 73.4117C77.3191 65.4621 72.3815 80.0634 70.895 83.3131C67.9601 89.3543 61.217 95.6748 54.4021 96.8751C53.4211 96.9747 51.842 96.9508 50.8132 96.8751C45.5655 96.8751 42.0244 94.1435 38.4714 90.6184C36.9442 89.1071 35.389 87.6157 34.2525 85.7734C33.0243 83.7876 31.7562 80.4818 31.1661 78.1969C30.6676 76.2669 29.5046 71.3968 29.4928 69.4615C30.7926 70.9649 30.9456 71.9657 33.2676 73.4117C31.2259 70.1698 29.7225 67.2508 28.8891 63.4426L27.6556 52.9473C31.0571 52.9353 31.3509 53.1345 32.6349 49.8846C31.2073 49.8846 28.9729 49.6533 27.8523 50.5785C26.7039 51.5195 26.5284 53.2901 26.4925 54.6698L28.8134 72.6142C29.1098 76.1273 27.4122 75.9651 25.9011 75.0692C24.6637 74.1202 23.6297 68.2484 23.9288 67.1439L26.8873 71.8167L26.8791 68.7915L26.3529 70.6894C24.6695 69.1276 24.3083 63.7002 23.6972 59.8537L24.7017 70.8026L23.4498 68.205L22.3029 62.4615C22.1713 60.1406 21.8221 59.4349 23.1615 58.0751L22.2113 54.1564C22.4904 50.4239 23.2629 46.3341 25.691 42.3081C23.5221 43.1958 22.1011 43.1588 20.8211 42.9833C19.9717 42.8677 19.5435 41.9533 20.2374 41.0122C20.7837 40.2626 22.6845 40.3754 23.6575 39.9767C25.6633 39.1512 26.9923 37.9151 28.0836 36.7254C30.3319 37.5383 23.8886 40.6401 21.3046 41.7526C24.9095 41.7168 24.7844 41.1293 27.7831 39.9529C26.5589 44.2516 23.5961 48.885 23.6041 54.0769C23.7479 56.5251 24.9593 60.2018 25.9658 62.6924C25.3939 60.0838 25.4953 57.414 25.505 54.7525C24.8968 51.3281 27.2733 48.3063 28.42 45.1821C29.058 43.3996 30.1652 40.1867 31.4293 38.8508C33.3035 36.8689 33.5045 36.8983 35.7456 36.4198C36.8103 36.1925 38.7958 35.4562 39.9004 35.4761L41.8505 36.5326C43.2701 36.3492 44.6735 34.414 45.7582 34.5536C46.8348 34.6932 47.3744 35.5107 47.4874 36.7733C52.7352 36.7733 52.117 36.1287 54.9283 35.9532C58.0107 35.7658 59.7015 37.0977 62.4171 34.3223C66.5204 34.9045 65.7669 36.3226 67.1626 36.7772C68.7457 37.2916 70.4364 34.5324 71.5595 33.8943C72.68 34.5044 73.1559 35.0772 73.9455 36.1379C76.3939 39.4277 76.7143 47.5746 76.8311 51.4587C78.3718 48.6488 76.6108 45.2925 77.9 43.0074C83.9257 46.1844 84.2689 52.4 85.4473 55.914C85.2878 48.6765 83.5119 47.492 81.1193 41.5106C82.9445 40.1754 85.0481 43.1644 87.0423 44.2329C84.4105 41.6011 81.4583 39.6922 79.7316 36.3266C79.301 35.4812 77.8176 32.5995 77.6422 31.794C77.3431 30.4263 77.8229 29.4666 77.1969 27.5725C76.4751 25.3953 74.9559 24.1166 73.8273 22.3301C72.8942 20.8547 73.3235 20.2524 72.179 18.7889C70.4125 16.5239 68.4334 16.5559 67.0377 15.6387C63.4727 13.2979 63.5099 11.6112 57.991 8.71215C56.1407 7.73916 51.0405 4.32574 49.2181 4.36162C45.9602 4.42941 44.7917 9.22045 41.9842 11.885C41.0364 12.1153 40.6595 11.644 40.6592 11.6401C40.4837 9.5643 39.7839 9.19998 38.4515 9.2106C38.4892 10.1557 38.9082 11.869 38.1842 12.5708C35.8559 13.4043 34.8188 13.3657 33.6105 15.232C32.5179 16.9187 33.8762 18.345 32.652 19.2302C31.8904 19.882 29.8609 19.5493 28.5171 20.1116C27.568 20.7057 27.1665 21.9312 26.4287 22.7686C24.389 25.0771 23.2168 26.8988 24.1809 30.9906C25.2747 32.9616 28.0836 36.7254 28.418 37.2539C27.3713 37.3039 26.0627 35.7447 25.1722 34.6598C22.0357 30.8384 21.5188 26.1513 25.2911 22.1172C27.3429 19.8355 27.0004 19.665 27.8856 19.1785C29.5159 18.1295 28.4697 18.7218 32.0315 18.1963C29.4316 13.7424 35.8475 12.302 37.0744 11.974C37.9995 10.9372 36.2055 9.09097 38.3306 8.01186C39.9735 7.43764 41.6428 9.35831 41.7106 10.6782ZM47.2746 5.6779C47.5669 5.5656 48.0183 5.35002 48.1598 5.7656C47.7072 6.81541 46.2834 9.57414 45.3632 10.963C44.8888 11.6791 44.5207 11.6617 44.5207 11.6617C43.858 11.8864 42.5799 11.1663 47.2746 5.6779ZM47.2723 10.1251C47.8011 6.22414 51.2354 5.28993 53.8969 7.85764C52.098 9.17674 49.6145 10.2788 47.2723 10.1251ZM51.8341 7.75121C50.1274 7.36441 49.9824 7.07872 49.0533 8.62593L51.8341 7.75121ZM51.212 35.1303C48.9337 34.8405 47.7666 33.9739 46.028 32.642C41.5757 29.9625 39.8976 21.9609 42.2105 17.048C44.7268 11.1968 54.5106 8.8873 59.5111 13.6368C53.249 12.9059 53.2736 13.0148 50.8132 14.1353C48.2372 15.3117 45.1133 17.8948 45.3087 20.9055C45.3925 22.1815 45.8726 26.4027 46.5624 27.4953C46.8216 24.3929 46.6611 21.9937 51.8656 19.4593C51.007 21.7269 49.811 23.0159 50.3852 25.2092C51.3662 22.6531 52.9929 20.7353 55.5609 19.6347L53.2708 25.3882L53.2058 33.934L51.0471 31.5122L51.212 35.1303ZM37.6165 15.5886C37.7548 17.6075 35.5206 21.9113 35.696 24.7624C36.0111 29.8586 38.9033 31.1467 42.1093 34.3328C39.6051 33.942 35.5286 32.5104 33.758 30.6602C32.271 29.5844 32.3244 27.5034 31.614 27.8169C31.5339 26.3605 31.2947 24.2731 33.4325 23.779C33.6735 24.3981 33.396 25.3053 34.2592 25.5787C33.9895 20.8667 34.951 19.1 37.6165 15.5886ZM28.6975 22.067C28.5567 24.167 27.225 24.3097 27.5293 27.5538C27.7287 31.027 29.902 33.8941 31.6725 36.7254C27.7008 34.8472 25.5394 30.624 26.2986 25.3553C27.2421 23.3086 27.5705 23.0519 28.6975 22.067ZM59.7532 22.0273C58.0834 26.2121 58.0673 26.2359 57.5855 28.5548C58.091 31.2608 58.0632 31.2927 58.5779 32.9236C53.9888 30.9141 55.6293 24.6852 59.7532 22.0273ZM62.2856 30.9673C59.9235 27.2423 63.1462 23.3738 68.6658 25.7634C72.8857 28.2965 73.778 30.7318 74.2924 33.8861L67.6291 29.109C66.4183 28.2902 66.2718 27.5153 65.0569 27.7134C63.9643 28.16 63.0751 29.597 62.2856 30.9673ZM74.8852 41.1745C74.7856 40.0021 74.5397 40.1707 74.1968 39.118C74.0133 38.5557 73.6744 37.6425 73.3793 37.1481C72.1391 35.0904 69.9778 35.9358 69.2401 37.9576C68.953 38.7471 69.7677 39.0425 70.0309 39.8161C70.2382 40.4182 69.9061 41.7777 70.5241 41.9931C71.4373 42.5274 73.8445 41.2264 74.8852 41.1745ZM34.6872 37.7755C31.4293 38.8508 31.6125 39.8744 30.5639 42.2871C33.9415 42.7307 34.1344 42.6724 34.6872 37.7755ZM75.5366 43.9031L71.0063 44.0973C70.8087 48.0931 71.7166 47.2063 75.5846 47.1705L75.5366 43.9031ZM33.5494 44.3311C29.1351 44.3351 29.9338 43.9763 28.3467 47.968C32.3384 47.968 33.3301 49.0406 33.5494 44.3311ZM75.9354 49.4858C74.7804 49.4858 72.4661 49.3263 71.8042 49.8926C71.4366 50.4913 71.9389 51.9203 72.4581 52.3689C73.8696 52.1219 73.8316 51.9622 75.7307 51.6738L75.9354 49.4858ZM47.312 56.1959C48.2531 52.5591 45.5123 52.9484 42.6333 52.2306C38.3705 51.1739 34.3402 50.8855 32.8688 55.8661C34.0865 54.6633 35.4608 53.7954 37.1675 53.6678C41.4365 53.9999 44.4529 55.2428 47.312 56.1959ZM70.1668 55.3983C68.7392 50.5573 63.5338 51.364 59.586 52.4447C58.4894 52.7477 54.6054 53.6689 56.025 55.6268C56.7323 56.6554 57.1264 55.2091 59.9409 54.9318C62.1873 54.3124 62.9164 53.3726 66.344 53.4486C67.7755 53.4172 68.9615 54.4493 70.1668 55.3983ZM46.504 61.0103C45.4388 57.9894 40.7526 56.1222 37.2552 56.1452C33.6986 56.8589 35.1257 58.6892 34.1966 59.5705C33.6423 60.0889 32.7464 59.7368 32.0525 60.0479C35.8093 61.153 40.2613 61.4141 45.1428 61.05L43.2007 61.0513C43.0469 60.3453 43.2347 59.6821 43.7044 59.054C44.7906 59.7379 45.5686 59.9496 46.504 61.0103ZM72.0542 59.9999C68.1982 60.2176 70.2848 57.6448 67.9162 56.4403C64.3831 55.3318 59.3184 58.1585 57.8366 61.0688C58.8076 60.397 58.8663 59.7071 60.6069 59.1124C60.9539 59.6867 61.0055 60.32 60.9653 60.9717L59.8199 61.1857C63.8805 61.4436 68.3619 61.7613 72.0542 59.9999ZM78.2097 57.2114C80.6422 57.04 81.8795 58.6776 81.8237 60.8349C81.7599 63.1756 79.2586 70.807 78.8969 71.6728C77.7495 73.5558 79.4825 74.8231 77.4427 75.4692C74.9286 75.4112 75.1617 73.3308 75.3213 72.2154C75.3403 70.6204 75.7438 69.0838 76.2757 66.6117L77.1144 62.0522C77.1783 60.7442 76.9895 58.1485 78.2097 57.2114ZM79.2796 58.8328L79.6608 60.8089L79.6889 62.382C78.478 68.118 78.7367 66.9787 78.0859 69.0043C78.0147 69.4801 78.0538 70.0293 77.5393 70.2095C77.3625 69.6539 77.91 69.3156 76.996 68.5389L76.7329 71.8167C78.5074 71.1946 78.7892 69.5797 79.3515 67.877C80.3364 64.8863 81.2974 60.5372 79.2796 58.8328ZM39.318 58.6469L39.6478 60.6512C38.832 60.3922 38.6733 60.845 36.8459 59.8537C37.5271 59.3879 37.981 58.8212 39.318 58.6469ZM64.8284 58.7346C65.7819 59.0359 66.6184 59.4152 67.338 59.8724C66.5325 60.4184 65.6046 60.7192 64.5653 60.7974C64.4747 60.1395 64.4566 59.4696 64.8284 58.7346ZM47.8151 69.0667C43.6049 73.2038 42.6359 73.6209 42.1997 77.3641C43.2143 75.3758 44.0597 73.1718 45.5879 72.1594C46.4539 74.491 47.4787 74.3908 48.27 74.397C48.4555 74.3987 48.1253 73.7769 49.0174 73.5299C49.8816 73.2208 51.0005 74.992 52.1189 75.5869L54.7537 73.5579C55.056 73.2728 55.8886 73.467 55.8573 74.338C55.7028 74.5311 57.296 74.6538 58.3897 73.4117L58.9185 72.7916C60.1103 73.9032 60.8619 75.7484 61.5652 77.6741C60.8833 73.7106 59.1061 71.2303 55.6811 69.1287C56.9944 69.9546 60.069 72.7585 56.9781 73.8665C55.5971 73.7463 56.1163 72.4872 54.9829 72.6906C52.949 73.3041 52.9705 74.5281 52.0922 74.6246C50.8851 74.6925 51.5154 73.1331 48.662 72.6898C48.1055 72.6034 48.373 74.5211 46.8729 73.6531C45.332 71.3359 46.3109 71.4846 47.8151 69.0667ZM26.8873 93.7487C25.5275 89.1071 26.0433 86.6094 26.2387 82.1074C26.3095 79.9607 25.4975 75.7497 28.0836 77.0006C28.0836 81.387 29.3995 90.0442 27.6849 93.7487H26.8873ZM75.9354 93.35C75.4449 91.5037 74.6992 86.7943 74.779 84.9759L75.1259 81.7858C75.2335 79.788 75.1006 76.4175 77.0147 76.5621C78.4036 76.5661 78.2043 89.3224 76.7329 93.35H75.9354ZM60.7823 82.5833C59.2998 81.6287 56.6068 80.371 54.6017 79.3908C53.6566 79.4027 53.597 80.5597 51.9695 80.5521C50.5326 80.5813 50.6172 79.3446 49.3935 79.3692C46.9064 80.5801 45.2986 81.4305 43.8407 82.7649C50.7538 86.45 52.7453 85.9588 58.6064 84.3712C59.5037 83.8847 60.1642 83.3569 60.7823 82.5833ZM49.2181 89.3623L48.5668 89.5377C46.6487 95.6358 46.9532 92.5923 46.8255 95.3438C49.0706 93.6371 49.6687 92.1457 49.2181 89.3623Z" />
<path d="M44.2397 83.0545C45.5134 82.8031 47.3671 82.6202 48.7563 82.4845C49.6439 82.5446 50.4921 82.5629 52.0013 83.0253C53.2747 82.7294 54.2892 82.5421 55.407 82.5575L60.5375 83.0399C59.5664 82.2917 58.0441 81.8149 55.0562 81.6513L52.0013 82.0606L49.4433 81.6221C46.8457 81.8278 44.5027 82.3055 44.2397 83.0545Z" />
</svg>
