<svg width="100" height="100" viewBox="0 0 100 100"  xmlns="http://www.w3.org/2000/svg">
<path d="M40.0182 68.6943C35.0576 69.3167 34.6387 72.3054 35.3361 75.8747C37.8496 81.1143 34.5489 82.5029 39.1712 86.577H44.2092C46.6633 84.697 48.8879 81.5799 52.5925 85.9521C54.1467 87.0778 57.3415 87.0308 58.7466 85.5506L60.6641 82.742L61.0655 77.7026C63.7426 72.6829 62.9716 69.365 56.7407 68.7399L40.0182 68.6943ZM55.2729 70.2877C58.4092 70.3229 61.1092 70.8369 60.2626 73.4661C60.03 74.2817 60.3312 75.9579 58.6583 74.4469C52.9215 77.995 42.7417 77.124 38.6801 74.3586C37.9265 74.5743 37.1524 74.8914 36.6288 73.9572C35.3023 70.0636 40.1357 70.254 47.4207 70.3884C48.1046 71.6206 48.9076 71.6534 49.8294 70.3884C51.3523 70.4174 53.3912 70.2665 55.2729 70.2877ZM42.7097 78.3358C46.103 80.3554 49.9284 81.417 54.8798 78.3358C52.2547 83.1474 46.2997 84.6787 42.7097 78.3358Z" />
<path d="M39.9278 72.7534H57.0969C57.005 74.2908 54.2708 74.2187 48.4488 74.2262C42.0058 74.2344 39.9139 74.5872 39.9278 72.7534Z" />
<path d="M48.047 36.4879C45.4554 36.4476 42.8639 37.5005 42.6476 40.4982C43.5927 43.2302 50.0325 47.2076 43.7194 50.3355C39.4882 53.0987 31.4155 51.8221 39.305 50.2721L38.8001 48.7587C37.3302 49.4671 35.729 51.1868 33.3137 48.8857L32.8723 50.9025L32.2419 49.8306C26.5365 50.8802 30.5512 46.8083 31.8004 46.426C34.5154 45.6822 37.2091 44.909 40.5024 44.9747C40.1957 42.4021 35.0983 40.876 30.0967 44.8492C28.6037 46.1945 27.0411 47.7742 26.8176 44.8492V42.5151L24.2324 45.6052C25.5649 53.7399 21.3061 53.3948 20.3849 47.6869L20.4484 44.3443L17.7997 44.2808C17.0383 48.7929 16.8845 53.7878 20.7009 61.9386L21.9617 61.8131C23.0021 68.714 24.8377 75.4237 28.8359 81.6147C33.2915 89.0093 37.7477 94.0862 42.2034 96.5203C46.7166 98.2322 51.3468 97.8237 56.0275 96.5203C64.1318 90.6086 67.7578 82.6487 69.762 79.8434C73.116 74.2552 72.2714 71.7645 74.0426 63.0767L75.647 62.8974C80.1571 54.9581 77.9889 49.2857 79.0351 46.8674L76.512 45.4796V49.7685C73.0735 51.6113 71.7749 54.129 72.8549 57.3986L71.6561 59.29C70.1987 60.7379 68.9089 59.1844 69.5123 56.3902L71.2146 50.21C72.6424 48.8856 72.1757 47.5613 70.3952 46.237V42.8944L71.0891 42.0736L71.1511 39.6774L65.5393 41.0017C68.0862 42.5259 71.7756 48.3947 65.5393 43.7138C60.9452 41.5948 56.1772 42.1149 56.7104 44.9747C61.4831 44.7394 65.737 45.347 67.683 49.7051L63.899 50.0196C63.5784 48.3884 63.069 48.94 62.5126 50.0196C60.5566 50.2942 59.0955 49.9315 57.9712 49.1367L56.6469 50.6514C64.851 51.0005 58.2097 53.3043 54.5666 50.777C48.8998 45.8381 48.9118 43.4756 52.9898 40.2457C54.7105 38.3978 51.379 36.5397 48.047 36.4879ZM42.5496 59.0665C43.6687 59.1789 42.9486 60.9457 43.3622 61.6931C44.8371 62.0877 46.2792 62.5491 47.2869 63.8782H50.1852C51.4873 62.9804 52.6601 61.9548 54.6438 61.7386L54.5556 59.999C54.7047 57.4883 62.0084 62.336 58.3906 62.6298L56.6069 62.496L55.2688 64.1459C53.6077 64.1145 53.1976 64.8791 52.816 65.6619C58.3587 64.676 62.9917 65.3188 64.0535 72.3512L65.5255 72.2615C67.3334 68.3362 69.9007 69.4849 72.0354 62.8091C73.0564 78.9085 58.3406 91.8074 56.6069 93.2647C54.4322 95.7469 44.8094 96.5156 41.177 93.2647C30.471 83.8336 24.7306 70.754 24.6338 62.5415C26.1957 68.47 29.7664 70.2749 33.5524 71.638L33.82 68.6058C36.7837 64.4903 40.4452 64.023 44.4768 65.484C42.7195 64.0491 41.8461 62.1462 38.2345 61.6931L41.4446 59.2858C41.9353 59.1026 42.2914 59.0405 42.5496 59.0665Z" />
<path d="M19.4393 31.6055L19.5654 42.2632C17.8297 38.3477 16.5398 34.5277 19.4393 31.6055Z" />
<path d="M48.1963 13.8846H54.0612C57.327 14.2305 54.2805 19.1147 58.791 18.5513C57.3187 17.7203 56.9589 16.7181 57.0252 15.6504C56.9109 11.0478 50.7887 13.5684 48.1963 13.8846Z" />
<path d="M56.3317 21.7046C53.3633 19.3717 53.2222 25.3686 43.4036 21.6416C41.0463 20.3462 38.1092 20.6247 34.5747 22.5245C30.3267 24.2587 26.1395 26.066 23.5386 29.7768C21.3486 33.1211 22.732 34.6786 23.4125 36.5877C27.736 41.3935 38.5388 39.6681 41.3225 35.894C44.7881 30.6462 49.7154 26.0486 54.7551 33.8129C61.3809 43.7733 74.3127 38.8958 63.7101 30.4074L56.3317 21.7046Z" />
<path d="M24.0091 21.4709L22.3146 24.1242C21.6898 25.2835 22.7845 26.0848 23.7639 24.9268L25.3469 22.4742C26.1572 20.5751 24.5089 20.504 24.0091 21.4709Z" />
<path d="M18.3012 21.3819C17.1125 24.3231 15.9792 24.4336 16.5621 20.5347C20.2522 13.8534 21.4341 16.1599 23.8307 14.1133C26.0322 11.2912 33.4093 0.919203 44.8785 3.32188C46.2229 4.51037 47.2478 3.5695 48.3567 3.18811C53.3097 2.35934 58.2687 1.46797 62.894 4.07996C71.2392 12.9306 70.9545 7.80659 73.8192 11.8391C74.4352 13.1001 74.0956 14.0744 73.9084 15.0944C72.7458 12.6241 71.3338 10.7593 69.0032 11.1256L61.9129 4.83804C60.4596 4.23783 60.2527 5.37198 60.6197 5.77449C63.5842 8.22099 66.4432 10.6976 68.8248 13.3106C70.4318 13.3508 71.3619 14.1807 71.4558 15.9862C74.1889 17.4124 79.2974 16.0012 78.9919 21.2927C78.8003 25.4287 81.1922 26.2311 83.5404 27.0898C80.968 27.0216 77.6322 29.0528 77.9217 21.1144C77.7117 19.3548 76.6828 19.4985 77.0299 21.0698C77.7307 25.008 75.8935 26.6376 76.175 28.3884C78.0408 33.7024 78.8639 32.1237 78.4122 29.4978C80.655 28.8 82.8229 33.0583 80.4635 36.1422C82.841 39.3745 85.1909 43.1993 82.158 45.2837C82.2227 41.6294 81.0816 39.186 78.9919 38.3272C78.0269 36.0849 78.5587 32.1998 75.2908 30.9694L75.3799 21.4712C75.3425 19.7143 70.3399 17.0733 67.9776 16.3876C70.0719 18.8021 72.0486 21.3166 72.9719 24.7264C73.4336 26.8178 72.191 30.1512 72.0752 30.11C71.9446 30.0635 72.5251 27.7064 71.3666 25.4399L66.5506 17.547C63.8164 13.1979 62.3288 10.5053 64.0088 16.0309L65.1682 21.6049C68.9214 23.8792 69.1483 26.1534 69.3599 28.4276C66.0533 22.5383 64.5226 24.2265 63.9642 22.8981C61.4775 19.4516 60.1694 16.2033 59.4157 14.1134C57.4728 9.51199 54.5949 8.81759 50.9877 11.1702C47.5511 13.2353 44.4279 10.7602 42.3813 10.4568C38.3645 10.0014 34.3084 9.93803 29.9399 12.9985C30.5616 10.9207 32.6301 8.58446 35.6032 6.08668C31.7046 6.83827 28.2131 10.2657 24.901 14.8714C19.1842 17.287 19.1088 19.3089 18.3012 21.3819Z" />
</svg>
