<svg width="100" height="100" viewBox="0 0 100 100" xmlns="http://www.w3.org/2000/svg">
<g clip-path="url(#clip0_194_375)" >
<path d="M13.3496 37.853L9.29297 41.2791V65.5772L13.3496 68.1918V37.853Z" />
<path d="M39.0012 6.38574C30.2116 9.06612 25.3291 13.5127 21.7795 18.5595C19.4571 19.6404 17.6729 21.4378 16.3705 23.8786V37.1319L14.4043 38.2666V69.5898L16.4605 70.0396C17.7445 73.2232 19.5359 75.9459 22.1406 77.9289C19.8468 73.0717 19.5798 68.0122 19.6617 62.9175C16.7202 61.6122 14.9061 59.2385 16.5054 53.6314C18.0923 49.404 29.0176 43.8514 34.3119 42.992C43.8701 37.3983 54.4974 35.6527 65.3729 42.992C71.6455 44.1471 77.834 46.3612 83.6021 53.9077V23.8786C77.4285 17.4457 72.9527 9.66857 60.9997 6.38574V8.19003H39.0012V6.38574ZM49.71 9.02663C49.8652 9.02598 50.02 9.02623 50.1752 9.02663C60.1072 9.05295 70.0477 11.5355 75.5149 16.3954C58.8636 8.73668 42.0224 7.60134 24.8908 16.3954C30.2356 11.5078 39.9346 9.07628 49.71 9.02663ZM49.9079 11.5249C50.0802 11.5249 50.2524 11.5262 50.4245 11.5275C61.4397 11.6125 72.3776 14.6115 77.7652 20.2688C59.625 10.5953 41.2686 9.55257 22.6187 20.2688C28.1384 14.4587 38.7208 11.6218 49.3913 11.5275C49.5634 11.5262 49.7357 11.5249 49.9079 11.5249ZM48.5573 13.3292H50.3603V16.9365L55.4994 16.9352L61.5407 23.6074C66.1031 24.267 70.9369 25.7361 74.6591 28.5564V29.8299L78.8511 32.8036V38.124C61.1996 28.9901 42.341 27.0993 21.3297 38.124V32.4438L24.8458 29.8299V28.5564C29.2636 25.1447 33.9511 24.3078 38.3689 23.6074L44.4102 16.9352H48.5573V13.3292ZM49.3348 31.3618C49.9552 31.3543 50.6334 32.8685 50.2446 35.0577C57.7242 34.873 61.2171 37.6691 64.2458 40.2868C56.1239 36.3957 46.4429 35.4386 36.1162 40.1969C39.6621 36.479 43.9991 35.4012 48.5573 35.0577C48.3463 32.5367 48.7802 31.4524 49.2744 31.3669C49.2942 31.3636 49.3148 31.3624 49.3348 31.3618ZM66.1555 41.7017C72.5011 41.925 78.1962 43.49 81.8389 49.2877C77.3046 45.0749 71.8723 43.0428 66.1555 41.7017ZM33.776 41.8174C28.0592 43.1585 22.6269 45.1905 18.0926 49.4034C21.7353 43.6056 27.4304 42.0406 33.776 41.8174Z" />
<path d="M41.0435 6.94309L42.446 2.67285H57.6191L59.1492 6.94309" stroke-width="3.36882"/>
<path d="M43.02 6.94312H57.0456L56.4641 4.71045H43.7213L43.02 6.94312Z" />
<path d="M30.4807 55.2085L28.1365 56.9215V58.1838C18.4111 65.1568 25.5878 95.4774 51.0822 96.9976C68.2627 96.387 80.5536 77.609 77.2285 61.6549L72.889 58.1287V56.8665L70.1404 55.4239" fill="transparent" stroke="#f0f0f0" stroke-width="6.73766"/>
<path d="M50.4952 45.8936C50.3848 45.8935 50.2729 45.8949 50.1598 45.8975C46.5077 46.0554 42.9521 46.5009 40.4701 50.1692C36.7532 51.3328 33.3045 52.2505 30.0749 54.7133C31.9396 57.6688 29.4746 59.3762 29.4824 61.6439C29.4999 67.737 35.8131 71.6117 39.4497 76.4984C42.8647 69.6057 58.9651 68.9835 62.3375 75.5423C62.8947 68.0619 71.6392 69.9656 71.5812 61.4524L70.8731 55.0732C68.1944 53.6402 67.9019 52.0888 62.2089 50.8066C62.943 54.3824 60.8128 55.7255 60.0705 54.8534C58.6023 53.1284 61.3658 53.4459 61.1256 50.6781C58.9523 50.5148 57.448 45.8952 50.4952 45.8936ZM43.8358 49.249C43.8766 49.2485 43.9173 49.2491 43.9579 49.2503C46.3917 49.321 48.5019 52.2818 50.4785 52.7188C52.3273 52.4406 54.8527 49.3687 56.4761 49.5985C62.2093 50.8066 56.2023 56.902 56.025 51.1252C54.057 53.7386 53.1059 53.9386 50.5428 54.1208C46.8567 54.4013 46.6083 51.3083 43.4027 51.3167C44.9012 54.2924 41.4188 55.1673 41.1075 51.3797C41.202 50.4017 41.6829 49.5787 43.4657 49.276C43.5896 49.2591 43.7133 49.2502 43.8358 49.249ZM39.131 51.7626L42.7653 55.3969C39.8442 54.9055 38.8244 53.6131 39.131 51.7626ZM47.7117 57.4646C48.458 57.4693 49.2522 57.5216 50.0968 57.6279C51.0794 57.5785 51.9914 57.57 52.838 57.5983C54.2487 57.6454 55.4769 57.7938 56.5468 58.0185C63.0609 59.3867 63.6849 63.6068 63.6123 65.3411C60.8572 62.6789 57.6699 60.3261 54.3043 60.0503C51.8629 61.0639 50.0108 62.0829 46.3353 60.0503C42.5977 60.2452 40.3959 63.6304 37.6647 65.9155C37.0352 63.3564 39.3004 57.5647 47.3942 57.466C47.4989 57.4646 47.605 57.464 47.7117 57.4646ZM50.8319 61.8533C55.3837 61.836 59.9271 62.7227 60.8712 64.6407C57.0239 63.5816 53.3705 63.3653 50.0326 64.5135C46.7856 62.9899 43.6759 63.6613 40.5973 64.8322C41.1149 62.9727 45.6958 61.9351 50.3911 61.8571C50.5378 61.8545 50.6851 61.8539 50.8319 61.8533ZM39.6412 66.2985C46.1917 66.9432 53.1727 67.0131 60.7426 66.2985C59.996 68.9473 40.4325 70.0719 39.6412 66.2985ZM50.1598 69.3904C52.6698 69.3907 55.2223 69.5815 57.81 69.9315C52.7218 70.0987 47.6842 70.1671 42.7653 69.9958C45.1831 69.5812 47.6498 69.3902 50.1598 69.3904Z" />
<path d="M18.3477 56.6713C18.956 53.5652 28.1326 47.4753 35.4334 46.0884C44.2838 40.8994 53.3993 37.8057 63.9308 45.8971C70.3734 47.0484 76.5591 49.2597 81.654 55.9701C82.86 62.2959 79.4119 61.778 77.6376 57.3726C74.4322 52.5352 69.343 49.6544 62.4007 48.8935C50.9018 39.6059 43.5111 43.2303 36.7084 48.7023C31.2653 50.1919 26.1213 52.0602 23.1929 56.7351C22.1461 63.2438 18.3392 61.129 18.3477 56.6713Z" />
<path d="M83.3753 59.604C83.0664 62.0077 81.886 62.9589 80.5702 63.6842C81.8161 69.3265 80.0143 73.3553 78.4663 77.5185C83.0614 73.125 83.8501 66.7014 83.3753 59.604Z" />
<path d="M85.0273 36.8384L90.7068 40.4274V65.8807L85.0273 68.6197V36.8384Z" />
</g>
<defs>
<clipPath id="clip0_194_375">
<rect width="100" height="100" />
</clipPath>
</defs>
</svg>
