<svg width="100" height="100" viewBox="0 0 100 100"  xmlns="http://www.w3.org/2000/svg">
<path d="M18.649 18.3784L17.0273 20L17.8382 38.3784L19.73 38.1081L18.649 18.3784Z" />
<path d="M81.892 38.9189L80.5407 54.054H78.9191L80.2704 38.9189C78.9191 38.6486 78.3785 38.3784 78.3785 37.2973C78.3785 35.9459 79.7299 28.9189 79.4596 27.5675C79.1893 26.2162 78.3785 20 77.0272 17.2973C75.6758 14.5946 73.7839 11.0811 71.3515 9.18916C68.9191 7.29727 65.6758 4.59457 62.9731 3.78376C60.2704 2.97295 55.1353 1.08105 50.0001 1.08105C44.865 1.08105 39.7299 2.70268 37.0272 3.78376C34.3245 4.86484 31.0812 7.29727 28.6488 9.18916C26.2163 11.0811 24.3245 14.5946 22.9731 17.2973C21.6218 20 20.8109 26.2162 20.5407 27.5675C20.5407 28.9189 21.6218 35.9459 21.6218 37.2973C21.6218 38.3784 21.0812 38.6486 19.7299 38.9189H18.9191V40.5405H19.7299L20.8109 54.054H19.1893L17.838 38.9189C15.4055 38.9189 14.5947 41.3513 14.5947 41.3513C14.5947 41.3513 15.6758 55.6757 15.6758 58.1081C15.6758 60.5405 18.1082 61.3513 18.1082 61.3513H21.6218L21.0812 54.3243H22.7028L23.2434 61.3513H23.5136H24.5947C24.865 63.7838 25.6758 69.7297 26.4866 71.8919C27.5677 74.5946 28.9191 78.3784 30.5407 80.8108C32.1623 83.2432 40.8109 92.1621 43.2434 93.5135C45.6758 94.8648 51.0812 98.3783 51.6218 99.1892C51.6218 99.1892 53.5136 96.4865 55.6758 94.8648C57.838 93.2432 64.5947 86.7567 65.9461 85.1351C67.2974 83.5135 70.5407 81.0811 72.9731 74.5946C74.5947 70 75.6758 64.3243 76.2164 61.3513H77.2974H77.5677L78.1082 54.3243H79.7299L78.3785 61.3513L81.6218 61.6216C81.6218 61.6216 84.0542 60.5405 84.0542 58.3784C84.0542 55.9459 85.1353 41.6216 85.1353 41.6216C85.1353 41.6216 84.3245 39.1892 81.892 38.9189ZM27.2974 14.054C30.8109 9.7297 38.9191 4.05403 50.0001 4.05403C61.0812 4.05403 69.1893 9.7297 72.7028 14.054C76.2164 18.3784 76.7569 24.054 77.0272 28.6486C77.2974 32.9729 75.6758 34.5946 75.6758 34.5946C75.4055 33.2432 74.865 32.4324 72.7028 32.1621C70.5407 31.8919 70.0001 31.0811 70.0001 31.0811C65.6758 22.4324 50.2704 22.4324 50.2704 22.4324C50.2704 22.4324 34.5947 22.1621 30.5407 31.0811C30.5407 31.0811 30.0001 31.6216 27.838 32.1621C25.6758 32.7027 25.1353 33.2432 24.865 34.5946C24.865 34.5946 23.5136 32.9729 23.5136 28.6486C23.2434 24.054 24.0542 18.3784 27.2974 14.054ZM73.2434 63.7838C72.7028 65.6757 70.0001 75.9459 69.7299 77.027C69.4596 78.1081 68.9191 78.6486 66.7569 81.0811C64.865 83.5135 58.6488 88.6486 57.5677 89.7297C56.4866 90.8108 51.0812 95.6756 50.5407 95.4054C50.0001 95.4054 47.838 94.054 45.4055 92.1621C42.9731 90.5405 33.5136 82.1621 32.1623 80.2702C31.0812 78.3784 28.3785 71.3513 27.2974 67.2973C26.2163 63.2432 25.4055 55.4054 25.4055 55.4054C35.6758 61.3513 44.5947 63.7838 46.2164 63.7838C47.838 63.7838 49.1893 65.1351 49.1893 65.1351H51.3515C55.9461 65.1351 74.0542 57.8378 74.0542 57.8378C74.0542 57.8378 73.7839 61.8919 73.2434 63.7838ZM42.9731 48.3784C42.9731 52.1621 40.0001 55.1351 36.2163 55.1351C32.4326 55.1351 29.4596 52.1621 29.4596 48.3784C29.4596 44.5946 32.4326 41.6216 36.2163 41.6216C39.7299 41.3513 42.9731 44.5946 42.9731 48.3784ZM39.1893 37.8378C39.1893 36.7567 40.0001 36.2162 40.8109 36.2162C41.892 36.2162 42.4326 37.027 42.4326 37.8378C42.4326 38.6486 41.6218 39.4594 40.8109 39.4594C40.0001 39.4594 39.1893 38.6486 39.1893 37.8378ZM44.865 51.6216C44.865 50.5405 45.6758 49.7297 46.7569 49.7297C47.838 49.7297 48.6488 50.5405 48.6488 51.6216C48.6488 52.7027 47.838 53.5135 46.7569 53.5135C45.6758 53.2432 44.865 52.4324 44.865 51.6216ZM51.6218 51.6216C51.6218 50.5405 52.4326 49.7297 53.5136 49.7297C54.5947 49.7297 55.4055 50.5405 55.4055 51.6216C55.4055 52.7027 54.5947 53.5135 53.5136 53.5135C52.4326 53.2432 51.6218 52.4324 51.6218 51.6216ZM64.0542 41.3513C67.838 41.3513 70.8109 44.3243 70.8109 48.1081C70.8109 51.8919 67.838 54.8648 64.0542 54.8648C60.2704 54.8648 57.2974 51.8919 57.2974 48.1081C57.0272 44.5946 60.2704 41.3513 64.0542 41.3513ZM57.2974 37.8378C57.2974 36.7567 58.1082 36.2162 58.9191 36.2162C60.0001 36.2162 60.5407 37.027 60.5407 37.8378C60.5407 38.6486 59.7299 39.4594 58.9191 39.4594C58.1082 39.4594 57.2974 38.6486 57.2974 37.8378ZM77.5677 40.5405L77.2974 46.4865H75.4055C75.4055 46.4865 75.4055 41.3513 75.4055 40.2702C75.4055 39.1892 72.7028 38.9189 71.892 38.9189C71.0812 38.9189 70.8109 37.8378 70.8109 37.8378V35.1351L50.0001 34.5946L29.1893 35.1351V37.2973C29.1893 37.2973 28.9191 38.3784 28.1082 38.3784C27.2974 38.3784 24.5947 38.6486 24.5947 39.7297C24.5947 40.8108 24.5947 45.9459 24.5947 45.9459H22.7028L22.4326 40.5405C22.4326 40.5405 22.1623 40 21.892 40C21.892 40 21.892 37.2973 24.865 35.9459C27.838 34.5946 27.838 35.6757 28.6488 34.5946C29.4596 33.7838 31.0812 29.7297 35.1353 27.8378C38.9191 25.9459 42.4326 25.1351 50.0001 25.1351C57.5677 25.1351 61.0812 25.9459 64.865 27.8378C68.6488 29.7297 70.5407 33.5135 71.3515 34.5946C72.1623 35.4054 72.4326 34.5946 75.1353 35.9459C78.1082 37.2973 78.1082 40 78.1082 40C77.838 40 77.5677 40.5405 77.5677 40.5405Z" />
<path d="M29.1896 58.9189L32.7031 60.5406C32.7031 60.5406 31.3517 62.4325 31.0815 63.5135C31.0815 64.5946 30.5409 67.5676 30.5409 67.5676C30.5409 67.5676 28.9193 62.4325 29.1896 58.9189Z" />
<path d="M34.8651 61.0811L38.9191 62.4324C38.9191 62.4324 37.5678 65.9459 37.5678 67.2973C37.5678 68.6486 37.5678 72.4324 37.5678 72.4324C37.5678 72.4324 35.9462 68.6486 35.6759 66.7567C35.4056 64.8648 34.3245 63.5135 34.8651 61.0811Z" />
<path d="M41.0811 62.9731L44.5946 64.3245C44.5946 64.3245 42.1621 68.3786 41.6216 74.3245C41.8919 74.3245 40.5405 66.2164 41.0811 62.9731Z" />
<path d="M46.4867 64.8647L51.0813 65.9458C51.0813 65.9458 51.3516 66.4864 50.2705 68.3783C49.1894 70.2701 47.2976 75.6756 47.0273 77.5675C46.757 77.8377 46.2165 66.4864 46.4867 64.8647Z" />
<path d="M52.7026 65.9461L56.4864 65.1353C56.4864 65.1353 55.4053 75.1353 55.1351 76.7569C55.1351 76.7569 54.5945 73.5136 54.054 71.892C53.5134 70.5407 52.9729 67.0271 52.7026 65.9461Z" />
<path d="M62.1624 63.7837L58.6489 65.135C58.6489 65.135 59.73 66.7567 59.73 69.1891C59.73 71.3513 60.0003 72.7026 60.0003 72.7026C60.0003 72.7026 60.5408 69.1891 61.6219 66.4864C62.703 63.7837 62.1624 63.7837 62.1624 63.7837Z" />
<path d="M66.4866 62.4326L63.5137 63.5137C63.5137 63.5137 64.5948 64.3245 64.5948 66.4867C64.5948 68.3786 64.865 69.4596 64.865 69.4596C64.865 69.4596 65.9461 68.3786 65.9461 66.4867C65.9461 64.5948 66.4866 62.9732 66.4866 62.4326Z" />
<path d="M70.8111 60.5405L68.1084 61.8919C68.1084 61.8919 69.1895 62.7027 69.1895 64.3243C69.1895 65.9459 69.73 66.4865 69.4597 67.027C69.4597 67.027 70.0003 66.4865 70.2706 64.3243C70.2706 61.8919 71.3516 62.973 70.8111 60.5405Z" />
<path d="M35.1353 81.6218L32.4326 78.3785C32.4326 78.3785 33.784 76.7569 34.3245 74.0542C34.3245 74.0542 35.1353 79.1893 35.1353 81.6218Z" />
<path d="M36.4868 82.9728L39.1895 85.4052C39.1895 85.4052 38.1084 81.6214 39.4598 77.5674C39.4598 77.5674 37.5679 79.7295 36.4868 82.9728Z" />
<path d="M44.3243 89.1893L41.0811 86.7569C41.0811 86.7569 42.4324 81.3515 44.054 77.5677C44.054 77.2974 43.7838 86.7569 44.3243 89.1893Z" />
<path d="M49.1893 93.5135L45.6758 90C45.6758 90 47.0271 88.9189 47.2974 87.5676C47.5677 86.2162 49.1893 81.6216 49.4596 77.5676C49.4596 77.2973 51.3515 83.5135 49.1893 93.5135Z" />
<path d="M55.4054 88.6487L52.1621 92.4324C52.1621 92.4324 54.054 81.8919 53.5135 79.4595C53.5135 79.4595 55.4054 85.1351 55.4054 88.6487Z" />
<path d="M61.0814 84.3242L57.0273 87.8377C57.0273 87.8377 57.8382 86.216 57.8382 85.135C57.8382 84.0539 59.1895 78.9187 58.9192 77.0269C59.1895 77.0269 60.8111 81.3512 61.0814 84.3242Z" />
<path d="M65.4053 80.5406L62.7026 82.7028C62.7026 82.7028 63.5134 81.0812 63.7837 79.4596C64.054 77.8379 64.3243 76.7569 63.7837 75.6758C63.5134 75.6758 65.4053 77.2974 65.4053 80.5406Z" />
<path d="M69.1893 75.6756L66.7568 79.4594C66.7568 79.4594 67.2974 78.3783 67.2974 76.2162C67.2974 74.054 67.8379 73.7837 67.5676 72.1621C67.5676 72.1621 69.4595 73.7837 69.1893 75.6756Z" />
</svg>
