<svg width="100" height="100" viewBox="0 0 100 100"  xmlns="http://www.w3.org/2000/svg">
<path d="M50 2.16211C23.5135 2.16211 2.16211 23.5135 2.16211 50C2.16211 76.4864 23.5135 98.1081 50 98.1081C76.4864 98.1081 98.1081 76.7567 98.1081 50C98.1081 23.5135 76.4864 2.16211 50 2.16211ZM63.7837 86.7567H64.054C63.2432 87.027 62.4324 87.2972 61.3513 87.5675C57.8378 88.9189 53.7837 89.4594 50 89.4594C45.9459 89.4594 42.1621 88.6486 38.3783 87.5675C37.5675 87.2972 36.7567 87.027 35.6756 86.7567H35.9459C23.2432 81.081 14.3243 68.1081 14.3243 52.9729C14.3243 52.7027 14.3243 52.4324 14.3243 51.8918H20.5405C20.5405 52.1621 20.5405 52.4324 20.5405 52.9729C20.5405 69.7297 33.7837 83.5135 49.7297 83.5135C65.6756 83.5135 78.9189 69.7297 78.9189 52.9729C78.9189 52.7027 78.9189 52.4324 78.9189 51.8918H85.1351C85.1351 52.1621 85.1351 52.4324 85.1351 52.9729C85.4054 68.1081 76.4864 81.081 63.7837 86.7567ZM34.054 52.9729V30.2702H41.3513V52.9729H34.054ZM58.6486 52.9729V30.2702H65.9459V52.9729H58.6486ZM86.7567 51.8918C86.7567 51.3513 86.7567 50.5405 86.7567 50C86.7567 30 70.2702 13.7837 50 13.7837C29.7297 13.7837 13.2432 30 13.2432 50C13.2432 50.5405 13.2432 51.3513 13.2432 51.8918H10.2702C10.2702 51.3513 10.2702 50.5405 10.2702 50C10.2702 28.3783 28.1081 10.8108 50 10.8108C71.8918 10.8108 89.7297 28.3783 89.7297 50C89.7297 50.5405 89.7297 51.3513 89.7297 51.8918H86.7567Z" />
</svg>
