<svg width="100" height="100" viewBox="0 0 100 100"  xmlns="http://www.w3.org/2000/svg">
<path d="M95.1636 2.00731C93.2635 1.95216 90.2822 2.20944 85.9586 2.77104C79.1661 3.65331 73.1523 6.03683 68.221 9.80092C66.3067 11.2621 64.741 12.1658 64.741 11.8091C64.741 11.4525 66.0146 9.04648 67.571 6.46181C70.0275 2.3824 70.1604 1.91446 68.581 2.92023C67.5803 3.55747 65.8282 5.9726 64.6866 8.28649C63.5449 10.6004 62.3623 12.245 62.0591 11.9417C61.0285 10.9111 61.5088 8.03034 63.1638 5.31563C64.0714 3.827 64.3757 2.75585 63.8399 2.93444C62.0959 3.5158 59.7936 8.70472 60.238 11.0537C60.7286 13.6474 60.5178 13.7254 57.8047 11.9477C56.018 10.777 55.3698 10.748 52.3769 11.712C50.5076 12.3141 46.7961 12.7045 44.1286 12.5788C40.0244 12.3853 38.3381 12.7809 33.1652 15.1494C27.4976 17.7443 24.3248 20.5804 24.3248 23.052C24.3248 23.5694 23.1004 25.3469 21.605 27.0021C18.8975 29.9989 18.8846 30.0562 18.3038 40.5586C17.6665 52.081 17.5809 51.7288 22.7074 58.8195C24.7073 61.5857 25.6168 62.337 25.8097 61.3854C25.9598 60.6449 25.5551 59.4306 24.911 58.6857C21.8591 55.1562 19.4749 49.7608 19.4749 46.3878C19.4749 42.624 20.2997 42.7831 21.727 46.8224C22.1983 48.1561 23.3266 51.2484 24.2337 53.6936L25.8831 58.1386L25.9115 54.3721C25.9748 46.2028 31.2837 35.1326 36.7316 31.8106C39.7054 29.9974 40.4157 29.9309 43.4691 31.1878C45.72 32.1143 45.7016 32.1318 41.7036 32.7543C38.3699 33.2734 37.1345 33.9739 34.65 36.7506C29.3443 42.6803 27.4548 47.6718 26.8552 57.3488C26.5643 62.0457 25.9673 66.146 25.5279 66.4603C24.4254 67.2491 21.8413 72.2858 22.5428 72.2789C22.8556 72.2759 23.9896 70.9853 25.0625 69.4099C26.6457 67.0854 27.1319 65.0244 27.6391 58.4761C28.1445 51.951 28.7573 49.3352 30.8456 44.8047C33.3368 39.3999 36.4498 35.3203 36.4498 37.4598C36.4498 38.071 37.2685 37.808 38.5812 36.7755C40.2083 35.4955 41.8811 35.098 45.6537 35.0952C48.3715 35.0934 51.674 35.0461 52.9926 34.9899C54.8397 34.911 56.0124 35.6065 58.1007 38.0223C60.6393 40.959 60.754 41.0099 59.9207 38.818C59.1231 36.7204 59.1645 36.5882 60.3161 37.5439C61.8454 38.813 65.1466 44.4219 65.9559 47.1255C66.805 49.9621 65.1972 48.6074 63.5203 45.0735C62.1635 42.2144 62.0504 42.1539 60.9034 43.6467C60.2443 44.5045 59.5632 44.842 59.3902 44.3974C57.2714 38.9536 53.4358 36.558 49.3243 38.1099C48.0627 38.5861 46.6599 38.6432 46.0314 38.2449C44.0039 36.9601 40.8937 37.5129 38.6996 39.5474C37.5009 40.6588 36.1712 41.5686 35.7453 41.5686C35.3195 41.5686 33.8521 43.387 32.4844 45.6099L29.9978 49.6511H32.0474C34.7019 49.6511 44.5366 52.1187 44.5205 52.7807C44.5137 53.06 44.2139 53.7522 43.8551 54.3176C43.3462 55.1194 41.8395 54.8641 37.0075 53.1607C33.6002 51.9596 30.5836 51.2073 30.3033 51.4876C30.0229 51.768 29.6064 53.6514 29.3785 55.6734L28.9641 59.3499L32.6182 58.8491C35.3836 58.47 36.8841 58.7084 38.786 59.8319C40.1683 60.6484 41.2998 61.5553 41.2998 61.8472C41.2998 62.6831 35.0195 63.4704 32.7981 62.9128C31.6945 62.6358 30.7911 62.0849 30.7911 61.6885C30.7911 61.2921 30.427 60.9686 29.9824 60.9686C29.5378 60.9686 29.1749 62.1923 29.1749 63.6884C29.1749 65.1846 28.4466 67.3333 27.5574 68.4638C26.6682 69.5942 25.9411 70.786 25.9411 71.1114C25.9411 71.4369 25.3042 72.1918 24.5262 72.7892C23.1935 73.8126 23.2056 73.9041 24.7286 74.37C25.6781 74.6605 27.3064 76.875 28.674 79.7374C31.3281 85.2927 39.6602 94.2869 43.829 96.0967C45.3277 96.7473 47.2259 97.2941 48.0479 97.3116C52.8798 97.4138 61.5504 89.2692 66.3573 80.1128C69.2696 72.6702 68.8958 72.4635 69.0783 70.4661C69.0185 69.4658 68.7266 67.7387 68.4295 66.6273C68.0431 65.1818 68.3462 65.4279 69.4939 67.4929C70.3764 69.0806 71.724 70.8989 72.4897 71.5341C73.7719 72.5978 73.7673 72.4655 72.4316 69.8598C71.634 68.3038 70.6052 66.7887 70.1452 66.4923C69.6852 66.1959 69.0478 61.9861 68.7278 57.1369C68.2537 49.9511 67.7503 47.5409 66.0104 44.1073C62.7201 37.6143 58.6947 33.6146 54.3472 32.5199C50.6926 31.5996 50.6708 31.5737 52.8801 30.8373C59.723 28.5563 68.5357 39.9559 69.4134 52.223C69.6319 55.2769 70.1247 57.9699 70.5087 58.2073C70.8927 58.4447 71.2073 58.135 71.2073 57.5193C71.2073 56.9037 72.1449 55.5201 73.2901 54.4443C74.9265 52.9069 75.2711 51.9828 74.9005 50.1295C74.5778 48.5165 74.8651 47.2886 75.811 46.2434C77.6548 44.206 77.192 33.9303 75.1408 31.3666C74.742 30.8682 74.7091 29.6676 75.0674 28.6988C75.7096 26.9629 75.7712 26.9776 79.3467 29.7077C83.0085 32.5037 85.7801 36.0478 88.9365 41.9724C89.8368 43.6622 90.6436 47.0046 90.6354 46.615C90.6221 45.9892 90.1278 41.8611 87.6234 37.2515C86.5417 35.0996 84.1709 31.7282 82.3554 29.7586C80.5399 27.789 79.2006 26.0316 79.3786 25.8535C79.9335 25.2986 90.7862 31.0657 94.047 33.6483C95.7528 34.9993 97.3234 35.9311 97.5365 35.7181C98.4992 34.7553 86.8952 26.6121 81.716 24.6161C77.1745 22.8659 76.8007 21.8912 80.9073 22.5061C82.9079 22.8057 87.4346 24.2977 90.966 25.8215C94.4975 27.3453 97.5429 28.4354 97.7342 28.2442C98.8399 27.1385 96.5059 25.3669 91.2857 23.3504C86.6655 21.5655 83.8784 21.0331 78.6836 20.9419C71.7797 20.8208 70.0668 19.8498 74.6388 18.6484C78.5092 17.6313 87.0964 18.4888 92.5717 20.4399C97.6768 22.259 98.1761 22.2578 97.4726 20.4245C96.3364 17.4638 79.4906 15.4644 73.3398 17.5602C71.294 18.2573 69.4259 18.5127 69.1885 18.1286C68.6224 17.2126 69.1655 16.9254 74.3854 15.3827C79.9037 13.7517 89.3426 13.7103 93.841 15.2974C98.022 16.7725 97.8823 16.7704 97.8823 15.3708C97.8823 12.9187 83.0876 11.8485 74.441 13.6752C72.9777 13.9844 73.2012 13.7269 75.2498 12.7422C78.3141 11.2692 91.437 10.7369 95.7391 11.9109C97.4638 12.3816 97.9542 12.2764 97.6952 11.493C97.5049 10.9177 95.1987 10.1204 92.5693 9.7204C86.0475 8.72819 75.7525 10.1845 69.9806 12.915C67.4868 14.0948 65.2755 14.8882 65.0667 14.6793C64.4022 14.0149 70.3711 9.25459 73.8845 7.64707C79.395 5.12581 84.1378 4.19196 91.2135 4.23456C96.4798 4.26626 97.8823 4.0319 97.8823 3.11797C97.8823 2.43088 97.0637 2.06245 95.1636 2.00731ZM55.2554 12.696C56.152 12.7245 56.8613 13.1691 58.1753 14.1406C59.5632 15.1667 60.6998 16.2462 60.6998 16.5395C60.6998 17.3746 55.9329 17.2988 55.4117 16.4555C55.1554 16.0408 55.5131 15.7012 56.2062 15.7012C56.8993 15.7012 57.466 15.3382 57.466 14.8936C57.466 13.18 55.7633 14.2182 53.5396 17.2879C52.2636 19.0494 50.4089 22.7774 49.419 25.5729C46.2903 34.4092 46.5122 33.9807 45.9011 32.3884C45.6066 31.6208 44.3202 30.5531 43.0416 30.0155L40.7161 29.0375L42.3157 24.8293C44.4476 19.2187 48.4829 14.6404 52.4515 13.3307C53.7481 12.9027 54.5579 12.6738 55.2554 12.696ZM71.9722 13.9724C72.053 13.9621 72.1166 13.9626 72.1581 13.9761C72.2689 14.012 72.2258 14.1372 71.9485 14.3798C71.7633 14.5419 70.7025 15.108 69.591 15.6373C67.6856 16.5448 67.6592 16.5278 69.1387 15.3425C69.9837 14.6655 71.4069 14.045 71.9722 13.9724ZM44.517 14.0885C45.9469 14.1185 46.9573 14.3737 46.9573 14.8936C46.9573 15.3382 46.6845 15.7028 46.3511 15.7036C45.4344 15.706 41.6864 22.0853 40.1169 26.3153C38.8404 29.7558 35.4331 32.7381 34.1941 31.4992C33.958 31.263 34.2081 29.0909 34.7495 26.6717C35.5191 23.2326 36.4297 21.6448 38.9234 19.392C40.6775 17.8072 42.7175 16.5099 43.4572 16.5099C44.1969 16.5099 44.5868 16.2944 44.3239 16.0316C43.4911 15.1987 40.4804 16.5691 37.6173 19.0829C34.8098 21.548 32.4074 27.4393 32.4074 31.8603C32.4074 33.0284 31.9009 34.6777 31.2813 35.5251C30.2278 36.9658 30.0969 36.8574 29.2648 33.8602C28.0507 29.4871 28.1408 26.6971 29.6094 23.1822C31.2138 19.3424 32.9148 17.5066 36.6191 15.6159C38.5865 14.6118 42.1337 14.0383 44.517 14.0885ZM31.6922 16.9137L29.6343 20.5512C27.404 24.4944 26.9128 30.033 28.3483 35.0384C28.783 36.5538 28.925 38.6432 28.6645 39.6812C28.404 40.7192 27.9023 41.5686 27.5503 41.5686C26.2878 41.5686 24.9319 33.2301 25.3491 28.0334C25.7288 23.3032 26.0721 22.4723 28.732 19.8419L31.6922 16.9137ZM56.0203 17.9794C56.5584 17.9638 57.202 17.9836 57.9811 18.0314C60.127 18.1634 62.7723 18.7374 63.8589 19.3067L65.8339 20.3416L64.0187 21.3137C63.0204 21.848 60.2251 24.0771 57.8059 26.2679C55.3867 28.4587 53.0349 30.2512 52.5794 30.2512C51.1016 30.2512 53.2152 27.3269 57.2541 23.7837C59.3712 21.9265 60.2059 20.8583 59.1095 21.4096C58.0132 21.961 55.1949 24.3343 52.8458 26.6835C50.4966 29.0327 48.5748 30.8658 48.5748 30.7568C48.5748 30.2568 52.4949 20.6238 53.2413 19.2901C53.7436 18.3924 54.4058 18.0258 56.0203 17.9794ZM65.5652 21.3599C65.9221 21.3599 67.1319 22.4512 68.2542 23.7849C69.3765 25.1187 70.8423 26.2099 71.5116 26.2099C75.0212 26.2099 73.74 30.6893 69.2571 34.0911C67.3531 35.536 65.6492 36.6982 65.4704 36.6736C64.9803 36.6062 61.5073 32.0904 61.5073 31.5205C61.5073 31.2476 63.2158 29.9411 65.3035 28.6171C67.3911 27.2932 68.7355 26.2099 68.2909 26.2099C67.8463 26.2099 65.8033 27.2743 63.7511 28.5757C60.3045 30.7615 56.6573 31.1974 56.6573 29.4235C56.6573 28.6236 64.6816 21.3599 65.5652 21.3599ZM23.4617 27.4224L23.4889 31.0859C23.5037 33.1008 24.1024 36.7387 24.8198 39.1697C25.5372 41.6006 26.1103 44.7551 26.0927 46.1806C26.0751 47.6061 25.7167 49.388 25.2958 50.1402C24.1373 52.2102 20.9166 43.2324 20.4766 36.7056C20.1759 32.2463 20.378 31.1304 21.7921 29.4306L23.4617 27.4224ZM73.7554 32.3825C73.7875 32.3843 73.8139 32.3924 73.8348 32.405C74.1682 32.6069 74.441 33.9522 74.441 35.3948C74.441 37.3005 73.7124 38.7241 71.7756 40.6012C70.3096 42.0222 68.9343 43.1849 68.7195 43.1849C68.5047 43.1849 67.8859 42.0123 67.3448 40.5787C66.3914 38.0529 66.4673 37.8804 69.7947 35.0052C71.5652 33.4754 73.274 32.3507 73.7554 32.3825ZM75.2616 39.783C75.3568 39.7936 75.4357 39.8267 75.496 39.886C75.8541 40.2379 75.9252 41.3968 75.6535 42.4614C75.3818 43.526 74.112 45.6701 72.833 47.2261C70.3974 50.1894 70.5324 50.2356 69.2086 46.0054C68.784 44.6487 73.8335 39.6242 75.2616 39.783ZM66.2756 49.6061C66.4442 49.5887 66.6409 49.6648 66.8463 49.8702C67.1149 50.1388 67.1815 50.8183 66.9943 51.3799C66.7205 52.2013 66.5291 52.2005 66.0198 51.3763C65.5142 50.5581 65.7699 49.6586 66.2756 49.6061ZM72.228 49.7435C73.0764 49.8184 73.362 50.9769 72.6637 52.5095C72.1645 53.6051 71.4514 54.5011 71.0782 54.5011C70.1192 54.5011 70.2306 50.6597 71.2073 50.0561C71.5994 49.8137 71.9452 49.7185 72.228 49.7435ZM62.9993 49.7529C63.7001 49.7222 64.741 50.541 64.741 51.3159C64.741 51.7343 64.398 52.0761 63.9797 52.0761C63.026 52.0761 62.0058 50.5001 62.5848 49.9211C62.6934 49.8125 62.8375 49.76 62.9993 49.7529ZM59.4127 50.0999C59.7164 50.0903 59.9524 50.121 60.0935 50.2029C61.6003 51.0782 60.4386 52.7142 57.6685 53.6178C56.0013 54.1616 54.25 54.7721 53.7776 54.9747C52.724 55.4268 51.8073 54.5912 51.8073 53.1785C51.8073 52.2502 57.2867 50.1672 59.4127 50.0999ZM48.0952 51.6203C48.3229 51.6082 48.5443 51.6532 48.7382 51.773C49.0929 51.9922 49.3823 52.6965 49.3823 53.3372C49.3823 54.7088 47.2999 54.9001 46.4979 53.6024C46.0028 52.8013 47.1086 51.6726 48.0952 51.6203ZM34.0935 56.1138C35.6828 56.1075 37.7762 56.6986 38.9873 57.7076C41.2819 59.6192 40.8911 59.723 37.7677 58.0309C36.4925 57.34 34.5942 56.9382 33.5488 57.1381C32.5034 57.3379 31.8408 57.1904 32.0758 56.8101C32.3681 56.3371 33.1399 56.1176 34.0935 56.1138ZM61.4327 56.1837C62.7005 56.1082 63.8517 56.3497 64.741 56.9166C65.5802 57.4516 65.059 57.5451 63.0478 57.2221C61.1399 56.9157 59.2657 57.2089 57.5916 58.0747C56.189 58.8 55.0411 59.2111 55.0411 58.9888C55.0411 58.7665 56.1141 58.0295 57.4258 57.3512C58.7805 56.6506 60.1649 56.2592 61.4327 56.1837ZM72.0864 57.5364C72.0864 56.7886 70.9647 58.5141 70.6466 60.8353C70.381 62.7733 70.3062 65.1744 70.6264 66.1269C70.8286 66.7283 71.3404 67.806 71.3404 67.806C72.323 67.0733 71.5772 64.9925 73.5973 63.6854C74.7415 62.5418 75.2086 58.8734 72.4298 57.5578C72.3075 57.5346 72.0864 57.6433 72.0864 57.5364ZM21.9372 58.3458C21.9372 58.2702 21.7895 58.3359 21.7194 58.3519C21.5591 58.3881 21.4117 58.4994 21.286 58.6976C20.2626 60.3113 20.4535 62.2581 21.9787 65.7784C23.5197 69.3354 24.5988 68.7617 24.6192 64.3753C24.6317 61.6907 21.9372 59.4808 21.9372 58.3458ZM61.4173 58.5897C61.6431 58.5867 61.8653 58.5916 62.0828 58.6039C63.1268 58.6638 64.0616 58.9049 64.741 59.3345C65.8188 60.016 65.8188 60.233 64.741 61.2894C63.054 62.9431 59.963 63.4206 56.8598 62.5055C55.4149 62.0794 54.2323 61.5681 54.2323 61.3699C54.2323 61.1718 55.3054 60.4545 56.6171 59.7762C58.0875 59.0158 59.8372 58.6119 61.4173 58.5897ZM52.8458 70.8544C53.0797 70.8526 53.5731 71.0363 54.4076 71.4654C56.224 72.461 56.3432 76.0795 51.6475 75.9046C50.2732 77.1565 49.1241 77.8819 48.1829 78.1235C46.6099 78.1949 45.0617 76.3189 43.501 75.4167C42.3488 75.1094 42.8545 74.8693 43.4738 74.6328C46.0244 74.4148 46.3691 77.8417 50.9974 75.0118C54.0805 74.9514 54.751 73.4834 53.4603 72.1427C52.7869 71.3771 52.456 70.8573 52.8458 70.8544ZM40.5065 77.0839C41.0458 77.0834 41.4833 77.5119 41.4833 78.0406C41.4833 78.5694 41.0458 78.9978 40.5065 78.9974C39.9676 78.9972 39.5309 78.5689 39.5308 78.0406C39.5309 77.5123 39.9676 77.0841 40.5065 77.0839ZM47.6986 81.6793C50.556 81.6398 53.4365 81.8989 55.0411 82.4738C56.906 83.1421 57.3193 83.5116 56.2535 83.5573C54.9331 83.6139 54.8557 83.7643 55.8296 84.3802C56.7583 84.9674 56.2219 85.4977 53.4047 86.7756C51.4151 87.6781 49.059 88.4049 48.1698 88.3919C45.5383 88.3529 40.4911 85.944 40.4911 84.7271C40.4911 84.1078 40.0368 83.5784 39.4811 83.5502C38.9253 83.522 39.3796 83.1284 40.4911 82.6751C42.0066 82.0571 44.8411 81.7188 47.6986 81.6793Z" />
<path d="M70.7251 72.5673C70.856 73.6679 70.6276 74.4091 69.5386 74.2897C69.5851 73.2793 69.4976 72.1015 70.7251 72.5673Z" />
</svg>
