<svg width="100" height="100" viewBox="0 0 100 100"  xmlns="http://www.w3.org/2000/svg">
<path d="M30.8886 69.0288L30.8008 69.7985C33.8074 78.048 35.0783 80.8005 37.4486 84.507C42.9271 93.074 43.9241 94.8028 45.1229 97.7847C45.703 98.9091 47.6054 99.1713 50.0149 99.0762L49.9861 87.6825H45.2665L44.6634 88.2281L44.5781 89.6911L43.9463 89.577C42.5993 86.8354 41.5845 83.7197 39.8618 80.713C38.0332 77.5217 37.1109 74.2885 35.7961 70.7215C33.8689 69.1375 32.365 69.0354 30.8886 69.0288ZM69.1124 69.0288C67.6359 69.0355 66.132 69.1375 64.2049 70.7215C62.8901 74.2885 61.9678 77.5217 60.1392 80.713C58.4164 83.7197 57.4017 86.8354 56.0547 89.577L55.4229 89.6911L55.3367 88.2281L54.7345 87.6825H49.9861L50.0149 99.0762C52.4243 99.1713 54.2979 98.9091 54.8781 97.7847C56.0769 94.8028 57.0739 93.074 62.5524 84.507C64.9227 80.8005 66.1936 78.048 69.2002 69.7985L69.1124 69.0288Z" />
<path d="M31.4035 6.46631C26.2269 8.86853 19.4248 15.7059 18.9031 20.1032C16.5653 31.2914 15.3445 41.952 14.0327 53.1402C12.5183 58.6616 10.9502 64.3037 9.85237 68.8876C9.76396 71.2165 9.20146 72.7868 9.60886 75.909C9.87092 78.1212 10.5953 78.4841 11.1511 79.5211C25.0836 92.121 31.9542 91.7703 40.3731 92.8739L38.6279 89.8706C36.3085 89.8634 22.476 86.7106 17.3202 79.2776C16.8549 77.5305 15.9961 76.4266 16.9143 72.9056C19.1034 68.5798 20.4404 66.4596 21.8252 60.9733C23.4643 51.3515 24.4031 41.4295 27.4261 32.4008C28.8877 28.7336 30.6196 25.179 35.9086 23.1066V22.3354C32.2068 17.3895 31.7069 11.9433 31.4035 6.46631Z" />
<path d="M44.4318 36.1753L42.707 37.9L48.5713 54.0732L50.0146 54.1143L51.4291 54.0732L57.2934 37.9L55.5686 36.1753H49.9858H44.4318ZM45.9333 38.8945H50.0146H54.0671L50.0039 51.2638L45.9333 38.8945Z" />
<path d="M36.0184 3.11579C35.1955 3.11055 34.3577 3.43543 33.4124 4.14225C31.9682 6.37811 32.9232 11.4521 33.108 12.9029C35.7887 21.4882 35.9404 19.7644 44.1661 34.9576H50.0148H55.8347C64.0605 19.7644 64.2122 21.4882 66.8928 12.9029C67.0777 11.4521 68.0327 6.37811 66.5884 4.14225C65.6431 3.43543 64.8053 3.11057 63.9825 3.11579C63.4195 3.11928 62.8634 3.27752 62.284 3.57446L62.8936 4.37282C63.3749 7.17522 62.8763 9.37485 62.3874 11.5802L54.311 29.6817H49.9861H45.6898L37.6135 11.5802C37.1246 9.37485 36.626 7.17522 37.1072 4.37282L37.7169 3.57446C37.1374 3.27752 36.5814 3.11935 36.0184 3.11579Z" />
<path d="M49.9918 0.90625C46.1291 1.04726 42.3397 1.29699 38.9985 3.00268C38.5175 5.03197 38.475 6.91229 38.3438 8.94158C39.2801 14.4289 41.6194 16.9912 43.3218 20.7373C45.7168 20.1999 47.2959 20.4543 50 20.5019C52.7042 20.4543 54.284 20.1999 56.679 20.7373C58.3815 16.9912 60.7208 14.4289 61.6571 8.94158C61.5258 6.91229 61.4834 5.03197 61.0023 3.00268C57.6611 1.29699 53.8546 1.04726 49.9918 0.90625Z" />
<path d="M36.842 24.73L32.0936 27.4894L31.9312 28.5454L34.5593 36.4191L34.5445 58.66L44.8781 63.611C48.4972 64.9349 49.051 64.7473 49.9858 64.7474L49.9915 55.1228H47.9197L41.4639 37.5555L43.0516 35.688L36.842 24.73ZM63.1584 24.73L56.9487 35.688L58.5364 37.5555L52.0806 55.1228H50.0088C44.8608 55.7561 49.9839 61.5392 49.9858 64.7474C50.9207 64.7473 51.5032 64.9349 55.1223 63.611L65.4559 58.66L65.4411 36.4191L68.0692 28.5454L67.9068 27.4894L63.1584 24.73Z" />
<path d="M29.9019 30.4121C25.8267 37.5905 25.5935 47.834 23.6971 56.3741C23.5357 57.496 23.7714 58.3421 24.2961 59.2353C24.6115 60.6512 24.4061 62.0603 24.3823 63.4084L27.7915 67.6292C30.1678 67.5816 31.9223 67.7583 32.946 68.1978C35.9531 69.1786 37.6619 71.0192 38.761 75.0942C39.7349 78.7052 41.4336 81.3129 44.878 82.565L49.9857 82.5453L55.1221 82.565C58.5664 81.3129 60.2652 78.7052 61.2391 75.0942C62.3382 71.0192 64.047 69.1786 67.0541 68.1978C68.0778 67.7583 69.8323 67.5816 72.2086 67.6292L75.6178 63.4084C75.594 62.0603 75.3886 60.6512 75.704 59.2353C76.2287 58.3421 76.4644 57.496 76.303 56.3741C74.4066 47.834 74.1734 37.5905 70.0982 30.4121L65.8775 36.6218L65.8373 58.5378L71.215 55.6767C69.4301 62.0436 66.8642 68.1914 57.724 63.9007C53.9105 66.3473 52.6084 68.4931 51.5307 70.9777C52.173 68.8111 52.5444 66.71 55.772 63.9155C53.9242 64.5108 52.4176 65.6078 49.9857 65.4129C47.5538 65.6078 46.076 64.5108 44.2281 63.9155C47.4557 66.71 47.8271 68.8111 48.4694 70.9777C47.3917 68.4931 46.0896 66.3473 42.2761 63.9007C33.1359 68.1914 30.57 62.0436 28.7852 55.6767L34.1628 58.5378L34.1226 36.6218L29.9019 30.4121ZM27.9031 58.2375C27.9482 58.4261 27.987 58.6114 28.0221 58.7946C28.8692 63.854 35.3937 67.1501 36.0966 67.6277C36.1644 67.6737 43.411 70.9209 42.7504 77.6091C42.4851 75.4055 43.0105 73.938 39.4218 70.3068C38.137 68.9749 36.8897 68.2869 35.7197 67.7201C33.8264 66.4923 30.1388 63.8938 29.3684 62.498C28.5802 61.0733 28.2659 60.6372 27.9664 59.0731C27.9206 58.8901 27.9355 58.4258 27.9031 58.2375ZM72.097 58.2375C72.0646 58.4258 72.0609 58.6395 72.0152 58.8225C71.7715 61.3146 71.5476 61.242 70.7246 62.6372C69.4629 64.0011 68.4697 65.2263 64.0391 67.8686C62.8641 68.4327 61.9208 69.4658 60.3369 70.8824C56.4065 74.2708 57.6309 80.5871 57.3611 77.7391C57.1849 75.8787 57.572 74.359 58.2565 73.1029C59.9145 70.0607 63.1868 68.4374 64.3769 67.4142C64.7362 66.9715 71.9861 63.7042 71.8852 59.0917C71.9203 58.9085 72.0519 58.4261 72.097 58.2375ZM50.0144 72.0706C51.6981 72.0359 53.0075 73.0786 53.3564 74.0505L53.3851 78.8432C53.3068 79.8204 54.0223 80.1915 54.3574 80.8526C53.2048 80.4325 52.2161 79.9558 52.0805 79.1878C52.06 76.9453 51.1591 76.9467 50.0144 76.9207C48.8698 76.9467 47.9401 76.9453 47.9196 79.1878C47.784 79.9558 46.7953 80.4325 45.6427 80.8526C45.9778 80.1915 46.6933 79.8204 46.615 78.8432L46.6437 74.0505C46.9926 73.0786 48.3308 72.0359 50.0144 72.0706Z" />
<path d="M39.6985 61.9975L30.6011 57.7788C32.1352 62.7713 36.3104 63.8921 39.4773 62.4526C39.5991 62.3973 39.5882 62.0772 39.6985 61.9975Z" />
<path d="M49.6052 21.7857C47.9096 21.7863 43.6929 21.7905 43.3726 21.7907L46.342 28.3909H50.0204H53.6586L56.628 21.7907C56.3061 21.7904 52.0395 21.7862 50.3626 21.7857C50.2703 21.7857 50.082 21.7858 50.0073 21.7857H49.9933C49.7761 21.7857 49.6663 21.7855 49.638 21.7857C49.637 21.7857 49.6045 21.7858 49.6052 21.7857Z" />
<path d="M68.597 6.46631C73.7736 8.86853 80.5757 15.7059 81.0974 20.1032C83.4352 31.2914 84.656 41.952 85.9678 53.1402C87.4822 58.6616 89.0503 64.3037 90.1481 68.8876C90.2365 71.2165 90.799 72.7868 90.3916 75.909C90.1296 78.1212 89.4052 78.4841 88.8494 79.5211C74.9169 92.121 68.0463 91.7703 59.6274 92.8739L61.3726 89.8706C63.692 89.8634 77.5245 86.7106 82.6803 79.2776C83.1456 77.5305 84.0044 76.4266 83.0862 72.9056C80.8971 68.5798 79.5601 66.4596 78.1752 60.9733C76.5362 51.3515 75.5974 41.4295 72.5744 32.4008C71.1128 28.7336 69.3809 25.179 64.0919 23.1066V22.3354C67.7937 17.3895 68.2936 11.9433 68.597 6.46631Z" />
<path d="M60.3018 61.9975L69.3992 57.7788C67.8651 62.7713 63.6899 63.8921 60.523 62.4526C60.4012 62.3973 60.4121 62.0772 60.3018 61.9975Z" />
</svg>
