<svg width="100" height="100" viewBox="0 0 100 100"  xmlns="http://www.w3.org/2000/svg">
<path d="M44.0184 5.27985C35.6819 6.39856 36.1965 6.34664 35.6532 7.19216C34.5154 9.24705 32.6465 10.5998 32.1093 13.1984C31.678 15.4019 30.2543 15.5945 30.2008 17.7943C30.0194 20.4216 28.5609 21.8997 28.9164 24.2343C29.4783 27.9188 28.1067 27.8437 27.8994 36.3323C27.8737 39.6388 26.5666 43.8009 28.0024 46.2394C28.8366 46.2394 29.3771 41.0784 29.0118 36.6C28.9248 33.7701 30.1214 31.1627 29.9361 28.7402C29.59 26.0235 31.5989 23.5207 31.692 21.1402C31.917 18.2384 34.2467 17.6981 33.7367 15.015C33.0763 12.8625 34.9806 12.3331 35.0325 10.6948C35.2788 9.09458 36.2073 8.09758 37.1806 6.87783C36.2311 9.49932 35.4057 11.6306 36.333 15.8908C36.8683 18.2451 35.3922 18.8408 34.4863 20.6462C37.4572 20.8897 43.7254 20.1188 45.7263 21.8684C48.1962 22.8776 48.9819 28.5023 48.757 32.1632C46.8291 28.6025 39.8928 25.8631 35.7325 25.6442C33.9795 25.5466 32.2675 25.4885 32.3477 27.1598C32.3521 28.1813 32.6816 28.3103 35.5296 28.4061C37.973 28.5331 42.9458 29.8297 43.9334 32.0827C41.2224 30.1563 36.9712 28.8413 33.7157 29.5001C31.8088 29.7766 32.4727 30.6715 33.792 30.3249C34.4964 30.0545 34.5821 30.1922 34.2238 31.0176C33.0709 33.6739 34.4711 35.9598 37.0636 35.9598C38.7196 35.9598 39.8755 34.5943 39.8755 32.7256C39.8755 31.863 40.0312 31.2446 40.2644 31.2446C40.8095 31.2446 45.4735 35.9834 45.1625 36.2212C44.5268 36.7072 33.4693 38.1208 32.4298 37.849C31.3052 37.5549 31.2725 37.6221 31.8862 38.969C32.8495 41.2796 31.309 42.7257 31.272 45.0969C31.272 46.9079 28.8303 49.0928 27.2498 48.6961C23.5251 46.9722 23.1659 57.3473 25.8414 58.7119C26.7692 59.6101 30.1689 65.2929 29.5775 66.5473C27.3022 63.1661 26.6789 61.4188 23.7578 58.8764C23.4303 73.6919 31.7331 92.3299 45.975 94.9382C48.4232 95.5287 60.4571 95.9258 62.966 94.881C78.4768 88.4706 86.2493 70.567 88.1633 56.1469C86.4816 56.8996 79.0105 66.1086 79.4871 66.3223C81.8797 56.6331 89.5073 54.4376 90.8038 43.2945C92.0317 31.7099 87.4618 19.3618 84.0705 11.2605C73.4142 3.7694 55.8058 3.7275 44.0184 5.27985ZM29.2567 7.50306C25.9068 9.08779 22.4501 12.1931 23.0162 13.1091C23.2173 13.4345 22.5063 14.5027 21.4358 15.4834C19.1734 17.3154 19.7333 19.2022 18.6629 21.3039C17.5172 23.5738 19.0027 25.4582 17.1149 26.7188C14.7156 28.8904 15.6618 31.6092 17.3214 33.3207C15.453 32.7116 14.4485 31.8144 14.873 33.9988C15.0582 34.9246 15.0009 35.949 14.746 36.275C13.6792 38.4081 14.2108 40.876 12.9607 42.992C12.13 44.6184 14.2671 45.9072 14.799 47.7705C16.1614 48.3816 16.9069 46.7005 16.8124 44.39C16.294 42.5078 18.5945 38.7229 18.1792 37.2234C17.8118 35.3548 19.9539 34.4467 20.0255 32.7369C19.7578 31.8212 22.7026 29.6364 22.9632 24.3682C22.5428 21.1741 25.2619 17.0064 25.3928 14.17C25.7084 13.021 26.3656 11.7698 27.2839 11.1688C26.7704 12.7035 26.2412 14.5286 25.915 15.9816C25.4822 18.1889 24.0233 20.3587 24.5272 22.5345C25.292 26.3891 26.0824 30.37 24.0119 31.935C21.3576 34.5668 23.3684 36.4116 21.8974 39.2825C20.7316 40.9286 21.3929 42.5585 20.6305 43.8564C19.8699 44.5678 19.3883 48.4029 19.9851 49.4529C24.0333 45.9392 22.9335 39.4632 24.9438 37.3996C29.3485 32.3481 26.078 24.4162 28.3278 20.3693C29.5991 18.37 28.6606 16.7153 29.8697 14.8608C31.5516 12.8225 30.4638 10.755 33.1485 8.98164C37.9312 5.0194 32.0502 6.07739 29.2567 7.50306ZM21.9718 10.3587C17.3049 10.993 18.0612 14.7364 15.132 17.6605C13.4328 18.9115 13.0412 21.0181 11.8586 22.3144C10.3692 23.8368 11.182 29.3164 10.0295 28.493C8.18294 28.97 9.43763 35.8728 8.37771 34.8827C7.16651 34.8023 8.10925 38.6954 6.6508 40.0684C5.30999 41.4644 4.76479 43.417 3.6185 44.8077C2.39913 46.2663 1.96175 48.3474 2.71594 49.1016C3.72828 50.1139 6.63707 47.9765 6.63707 46.2203C6.9049 44.6337 8.73593 43.8151 8.7794 42.2218C8.88888 40.3343 10.8731 39.1988 10.9214 37.3752C11.2239 34.7491 14.6694 31.8379 14.2802 29.446C14.0491 26.9346 17.0826 25.9711 16.8891 23.656C16.5512 21.6702 18.5146 19.9213 18.0876 18.0434C18.0015 15.8564 22.0329 14.1658 22.1652 12.474C22.2904 11.1022 23.8708 10.3685 21.9718 10.3587ZM83.0924 24.6955C83.8656 25.86 83.853 25.868 82.1509 25.2746C78.5293 24.079 62.2842 24.1505 60.4856 31.4755C60.3168 28.8931 61.358 23.8179 63.2823 21.9829C67.9174 19.3744 80.3205 20.6635 83.0924 24.6955ZM81.0529 31.1852C75.3612 28.3971 69.0191 28.8525 65.2308 32.0945C68.3527 27.0058 79.0248 27.8634 81.0529 31.1852ZM21.5106 32.5832C22.8765 31.3549 24.5354 29.608 24.2285 28.9096C23.4737 27.9324 21.8876 31.9527 21.5106 32.5832ZM72.1369 30.2978C73.5749 30.1649 74.7412 31.345 74.7611 32.5198C74.8608 33.8442 73.8717 35.0002 72.5478 35.1066C71.2241 35.2129 70.0631 34.2298 69.95 32.9067C69.837 31.5834 70.8143 30.4175 72.1369 30.2978ZM75.1479 30.3588C77.2835 30.6392 80.1484 31.4402 81.573 33.0714C80.4145 40.727 66.6406 37.3734 63.9731 36.2312C63.6657 35.9829 68.3195 31.2446 68.8708 31.2446C69.104 31.2446 69.3299 32.0723 69.3299 32.9349C69.3299 34.7941 70.9046 35.7361 72.5282 35.7247C74.8018 35.7088 76.168 33.6152 75.2047 31.8153C74.6273 30.7362 74.5065 30.3608 75.1479 30.3588ZM39.4465 32.7693C39.553 34.0807 38.4979 35.2254 37.0856 35.3309C35.6732 35.4363 34.4345 34.4627 34.3138 33.1523C34.1933 31.842 35.2361 30.6875 36.6473 30.569C38.0096 30.4932 39.3765 31.6057 39.4465 32.7693ZM96.4053 32.9765C95.0404 32.6919 93.5976 45.5102 92.8584 50.629C97.3064 48.071 97.6124 42.5117 97.6557 39.1788C97.6763 35.943 97.0469 32.9801 96.4053 32.9765ZM19.4899 37.6342C19.4899 38.72 19.1362 40.0761 18.7037 40.6478C16.6164 45.3658 19.6173 45.3025 20.0087 41.2669C20.0181 40.4466 20.398 39.2068 20.8533 38.512C22.5969 35.1313 20.0904 31.9449 19.4899 37.6342ZM13.0191 35.4305C11.9223 35.5116 12.0202 38.7164 11.2063 40.1126C10.0557 42.1478 10.6146 44.5321 9.58583 46.5801C8.65746 48.3601 8.55223 49.7851 9.3146 50.2563C10.1512 50.2802 9.78423 48.8245 9.95981 47.9696C10.567 48.6175 10.8418 50.1636 10.4022 51.0288C9.76515 52.1417 10.4686 53.2395 10.6475 54.2373C13.5443 63.5071 14.1194 57.3947 15.7935 52.9338C15.3899 56.1823 14.4686 62.1189 15.9754 64.5892C17.7137 67.7784 15.4411 68.2924 16.8254 71.8314C18.1074 73.535 17.5086 79.2551 18.526 80.4069C20.0123 81.8932 20.3669 81.0354 20.4188 75.8281C20.4688 70.8188 19.7977 68.4557 18.7335 65.5189C18.2338 63.6275 18.0499 56.2534 18.6227 53.123L19.7787 65.4506C22.9702 65.1819 20.592 57.9669 21.8928 55.3573C22.8003 54.0643 21.5425 51.2024 21.8676 50.5759C20.5147 50.4012 17.0261 50.3953 18.4481 47.8172C19.5809 45.8078 18.3878 45.9133 17.8832 47.0542C16.7057 49.1989 14.0479 49.5247 13.0885 47.1088C12.216 45.3253 10.8814 44.329 11.9456 42.1962C12.5297 41.0345 13.8161 35.374 13.0191 35.4305ZM22.2796 48.8818C22.9582 48.4307 24.0813 47.2969 23.6521 47.0096C23.15 46.8122 22.4654 48.254 22.2796 48.8818ZM97.5119 47.8797C97.1158 49.4304 95.6305 50.7478 94.4598 51.5949C92.0156 53.3373 91.7725 53.7217 91.0056 57.056C89.4771 61.9563 89.5985 62.347 93.2814 59.4764C95.5476 57.5313 97.8164 51.3443 97.5119 47.8797ZM44.9526 50.7709C45.1185 50.7653 45.1835 51.227 45.1876 52.2456C45.5619 56.7954 49.4227 54.4126 51.8584 56.1643C53.4673 57.1043 55.7499 57.2651 57.2768 56.1644C59.7138 53.9856 63.6342 56.7841 63.9479 52.2456C63.9541 50.764 64.0885 50.461 64.4751 51.0593C65.3283 52.3795 65.308 55.652 64.0311 56.0642C61.2891 56.7884 57.0095 57.01 56.8318 60.1757C56.8462 61.3902 53.423 61.1175 53.3751 60.1757C51.703 56.1217 46.5918 57.6362 45.011 55.9711C44.0114 55.4948 43.7231 51.6896 44.9526 50.7709ZM50.1643 64.0685C52.773 64.3309 55.5898 64.6309 57.8776 64.1696C60.243 63.6584 64.3617 65.1283 67.0775 67.4529C69.7869 69.7721 69.9338 70.8487 67.5544 70.9445L41.5808 70.9811C39.2367 70.7456 39.3711 69.7528 42.0581 67.4529C44.392 65.4552 47.7614 64.0889 50.1643 64.0685ZM45.9994 72.2129H63.1366V74.4605C62.8469 79.8059 45.4039 79.6974 45.9994 74.4613V72.2129ZM41.8139 72.4586C43.3604 72.4508 44.2537 72.8183 44.1176 74.3221C44.0865 75.1597 43.9265 75.2874 43.1765 74.7089L40.6436 72.5147C41.0654 72.4822 41.457 72.4604 41.8139 72.4586ZM66.6827 72.4807C68.1345 72.4807 68.2637 72.5907 67.6638 73.3135C67.2838 73.7714 66.5315 74.3823 65.9919 74.6711C65.1605 75.116 65.0107 74.9887 65.0107 73.8384C65.0107 72.675 65.2499 72.4807 66.6827 72.4807Z" />
</svg>
