<svg width="100" height="100" viewBox="0 0 100 100"  xmlns="http://www.w3.org/2000/svg">
<g filter="url(#filter0_f_194_432)">
<path d="M41.4415 94.4737C37.87 92.7246 34.4852 91.2935 33.9199 91.2935C32.6183 91.2935 29.9875 88.6192 29.9875 87.2961C29.9875 86.7172 29.7051 86.2954 29.3176 86.2954C28.5652 86.2954 27.4164 84.3263 27.077 82.455C26.9537 81.7749 26.6561 80.9806 26.4158 80.6899C26.1754 80.3992 25.7211 78.9119 25.4063 77.3849C25.0186 75.5049 24.6254 74.6247 24.1884 74.6587C23.8103 74.688 22.5717 72.8585 21.1991 70.2434C19.1421 66.3241 18.8601 65.4626 18.8942 63.2006C18.9321 60.6902 19.0801 59.6395 19.7486 57.1347C19.9282 56.4618 19.8581 55.548 19.5917 55.09C19.2034 54.4223 19.1075 54.6826 19.0964 56.4345C19.0867 57.9559 18.8742 58.687 18.3874 58.8738C17.9262 59.0508 17.791 59.4512 17.9855 60.0642C18.2294 60.8327 18.1363 60.9283 17.4311 60.6335C16.9649 60.4386 16.1369 60.1819 15.5912 60.0632C13.9865 59.7139 11.6919 56.8092 11.0423 54.3047C10.2527 51.261 10.2987 50.5349 11.4328 48.1279C12.2539 46.3855 12.3839 45.3442 12.3124 41.0851C12.257 37.7891 12.4654 35.1962 12.9243 33.4712C13.6343 30.8023 15.7913 26.1456 17.3226 23.9759C18.3688 22.4935 18.3924 22.1732 17.4279 22.5433C16.7848 22.7901 16.7256 22.5846 16.998 21.0523C17.6372 17.457 21.2974 11.7779 22.9754 11.7779C23.2722 11.7779 23.7956 11.438 24.1386 11.0225C24.4816 10.607 25.5928 9.89881 26.608 9.44868C27.6231 8.99854 28.8365 8.2073 29.3043 7.69035C30.3664 6.5168 32.7812 5.00634 34.1647 4.65025C34.7412 4.50188 36.8486 4.24244 38.8479 4.0737C40.8471 3.90497 43.0963 3.51033 43.846 3.19672C44.5957 2.8831 45.3113 2.64575 45.4363 2.66927C45.5612 2.69271 46.5437 2.58001 47.6196 2.41868C48.8657 2.23181 50.7272 2.40515 52.7479 2.89633C55.2403 3.5021 56.3798 3.56874 58.0651 3.20731C60.196 2.75032 63.8774 2.96548 64.7472 3.59786C64.9971 3.77955 65.7466 4.05821 66.4127 4.21709C67.0789 4.37596 69.1982 6.0399 71.1223 7.91473C73.0465 9.78957 74.8744 11.3235 75.1844 11.3235C75.4944 11.3235 77.0555 12.5223 78.6535 13.9875C82.0805 17.1297 84.1951 20.9268 85.1408 25.6368C85.4921 27.3864 86.5407 30.7601 87.471 33.134C89.3727 37.9866 89.9855 43.1628 89.0847 46.7648C88.8035 47.8894 88.469 49.3206 88.3415 49.9454C88.0511 51.3683 85.8293 55.0382 85.1155 55.2741C84.8224 55.371 84.4924 54.9784 84.3823 54.4017C84.2474 53.6961 84.1617 53.8918 84.12 55.0003C83.9514 59.489 82.695 60.9376 82.695 56.6433C82.695 54.8543 82.5701 54.4324 82.1612 54.8412C81.7523 55.2501 81.8057 56.3085 82.3889 59.3622C82.99 62.5091 83.0449 63.7274 82.6495 65.1429C82.1379 66.9744 78.356 74.3015 77.7191 74.6951C77.5256 74.8148 77.2444 73.7421 77.0944 72.3116C76.7212 68.7549 78.0359 65.1983 78.8957 67.4388C79.7184 69.5828 81.5604 65.8193 81.08 62.976C80.7917 61.2694 80.7196 61.1933 80.1411 61.9846C79.0037 63.54 79.3036 57.0289 80.4814 54.596C81.579 52.3287 82.3579 51.8457 83.496 52.7266C84.1267 53.2147 84.1114 53.1337 83.4197 52.323C82.9437 51.765 82.2958 51.3085 81.9801 51.3085C81.1735 51.3085 79.5134 54.143 79.2043 56.0479L78.9453 57.6438L76.3886 57.3766C74.5572 57.1852 73.3333 57.3178 72.0739 57.8439C71.107 58.248 69.9457 58.5785 69.4932 58.5785C68.4487 58.5785 67.9538 60.0799 68.6002 61.2876C69.3668 62.7201 70.8515 62.4757 71.1739 60.8638C71.3224 60.1215 71.7773 59.4211 72.1849 59.3074C74.6577 58.6177 76.0126 58.5613 77.2248 59.0979C78.8264 59.8068 78.8156 60.3048 77.0799 65.7584C76.4196 67.833 75.8794 69.937 75.8794 70.4338C75.8794 70.9307 75.4697 72.1402 74.969 73.1216C74.4684 74.103 73.84 75.9261 73.5726 77.1729C73.2452 78.6992 72.8127 79.5266 72.2485 79.7056C70.485 80.2654 68.9369 81.9882 67.4475 85.0487C66.5975 86.7952 65.6423 88.539 65.3246 88.9239C64.4952 89.9291 61.2767 91.2652 59.3533 91.4028C58.4474 91.4676 57.7058 91.6844 57.7053 91.8846C57.704 92.3651 60.7651 92.0154 62.4211 91.3458C64.9089 90.3398 66.2087 89.044 67.7468 86.0364C68.7145 84.1443 69.9694 82.4963 71.1084 81.622C72.1081 80.8546 73.0955 80.0834 73.3027 79.9082C73.5099 79.733 73.8707 78.6959 74.1044 77.6036C74.6279 75.1571 75.8838 72.2098 76.4028 72.2098C77.1082 72.2098 76.5448 77.1392 75.5718 79.4798C75.416 79.8546 75.2169 80.528 75.1294 80.9762C74.4695 84.3564 69.1601 91.2935 67.2329 91.2935C66.3516 91.2935 62.6855 92.923 60.885 94.115C60.2602 94.5286 59.1952 95.0031 58.5182 95.1695C57.8412 95.3359 57.0494 95.7587 56.7586 96.109C56.4679 96.4594 55.7438 96.746 55.1497 96.746C54.5555 96.746 54.0694 96.9505 54.0694 97.2004C54.0694 97.4585 52.7444 97.6546 51.0023 97.6544C48.1269 97.654 47.5297 97.4553 41.4415 94.4737ZM43.8078 91.4564C44.0402 90.8508 43.9714 90.8124 43.4417 91.2519C42.9323 91.6747 42.4219 91.6397 41.1112 91.092C40.1881 90.7063 39.2885 90.48 39.112 90.5891C38.1766 91.1672 35.9586 88.7372 34.0673 85.062C32.392 81.8065 31.7113 80.9278 30.3775 80.299C28.9261 79.6148 28.6058 79.1289 27.5318 75.9825C24.4749 67.027 22.688 61.0559 22.8108 60.2073C22.9124 59.505 23.416 59.2018 24.8998 58.9498C27.583 58.494 30.0916 59.3531 30.4427 60.848C30.7403 62.115 32.1686 62.6329 32.766 61.6903C33.5783 60.4085 33.1211 59.5387 31.0171 58.3627C29.2291 57.3633 28.3775 57.1782 25.9708 57.2654L23.0755 57.3704L21.647 54.6802C20.401 52.3339 20.0298 51.9719 18.7418 51.8477C17.4359 51.7217 17.265 51.8348 17.265 52.8275C17.265 53.7157 17.4495 53.9015 18.1495 53.7184C18.6359 53.5912 19.1045 53.1503 19.1908 52.7386C19.3004 52.2155 19.7183 52.5689 20.5782 53.9122C21.6606 55.6028 21.8033 56.2593 21.7635 59.3647C21.7355 61.5494 21.5976 62.4621 21.4018 61.7592C21.1237 60.7606 21.0467 60.7239 20.7655 61.4555C20.1314 63.1056 20.4243 66.176 21.3207 67.2749C22.2201 68.3776 22.2727 68.344 22.8299 66.3122C23.129 65.2217 24.5861 67.8206 24.6525 69.563C24.6842 70.394 24.5443 71.6872 24.3415 72.437C23.9971 73.7101 24.0176 73.7419 24.6519 72.9184C25.3081 72.0664 25.3558 72.0847 26.0689 73.4637C26.4747 74.2485 27.0218 75.8933 27.2846 77.1187C27.6848 78.9847 28.1591 79.6893 30.2033 81.4541C31.727 82.7696 33.0694 84.4592 33.7759 85.9507C34.3983 87.2649 35.3852 88.7786 35.969 89.3146C38.7306 91.8501 43.1892 93.0684 43.8078 91.4564ZM56.841 89.2971C55.4767 87.8448 52.3292 87.0146 49.4712 87.3531C47.0343 87.6417 44.5118 88.8416 44.167 89.8762C44.0488 90.2307 44.5815 90.0362 45.4136 89.421C46.6765 88.4872 47.3226 88.3579 50.3544 88.4319C55.146 88.5488 55.286 88.5799 56.4108 89.7771C56.9576 90.3593 57.5073 90.7333 57.6323 90.6084C57.7572 90.4834 57.4011 89.8933 56.841 89.2971ZM53.6525 82.8682C54.3979 82.4827 54.8977 81.989 54.763 81.7711C54.6283 81.5532 54.7746 81.2713 55.0889 81.1448C55.4029 81.0182 53.5567 80.8985 50.9864 80.8788C46.4828 80.8442 46.3304 80.8749 46.789 81.7322C47.0508 82.2213 47.6202 82.8285 48.0545 83.0815C49.2376 83.7707 52.1195 83.6609 53.6525 82.8682ZM46.8524 77.3612C50.2363 76.597 51.0669 76.6441 57.4772 77.9628C58.6795 78.2102 58.5227 77.9945 56.1483 76.1353C53.629 74.1626 53.2818 74.0273 50.7387 74.0273C48.4742 74.0273 47.7488 74.2353 46.3879 75.2753C45.4897 75.9617 44.5939 76.524 44.3974 76.5248C44.2008 76.5257 43.8941 76.7513 43.7158 77.0262C43.5375 77.3011 43.0849 77.6427 42.71 77.7854C41.2407 78.3447 43.5398 78.1093 46.8524 77.3612ZM49.7927 68.802C48.8151 67.7471 45.946 67.1072 46.5459 68.0777C46.6858 68.3042 47.2219 68.3792 47.7371 68.2445C48.368 68.0795 48.8955 68.316 49.3527 68.9687C49.7261 69.5017 50.2147 69.9379 50.4385 69.9379C50.6623 69.9379 50.3716 69.4267 49.7927 68.802ZM52.8117 69.0291C53.1239 68.5293 53.8924 68.0925 54.5195 68.0585C55.6264 67.9985 55.629 67.9908 54.6086 67.796C53.89 67.6587 53.2143 67.9657 52.472 68.7666C51.875 69.4108 51.5795 69.9379 51.8153 69.9379C52.0512 69.9379 52.4996 69.529 52.8117 69.0291ZM54.3725 61.4258C54.0682 60.4344 53.7907 60.0468 53.7047 60.4933C53.5708 61.1886 54.3208 63.1223 54.7244 63.1223C54.8172 63.1223 54.6587 62.3589 54.3725 61.4258ZM47.7321 61.469C47.9828 60.8095 48.1037 60.1857 48.0006 60.0827C47.8976 59.9796 47.5958 60.5191 47.33 61.2816C46.7391 62.9766 47.0958 63.1427 47.7321 61.469ZM17.5754 57.1302C17.4304 56.7677 17.3227 56.8754 17.3009 57.4047C17.2812 57.8837 17.3886 58.1521 17.5396 58.0011C17.6906 57.8501 17.7067 57.4582 17.5754 57.1302ZM15.7799 56.023C15.2006 52.9923 17.7109 49.4225 19.6803 50.4765C20.2055 50.7576 20.9947 51.4176 21.4341 51.9432C22.2209 52.8845 22.2332 52.8696 22.2481 50.9527C22.2575 49.7486 21.8271 48.1459 21.1196 46.7497C19.8295 44.2038 20.2209 43.9287 22.5766 45.7254L24.1925 46.958L23.8612 44.4759C23.6611 42.9772 23.0989 41.4208 22.4421 40.5475C21.8439 39.7519 21.3544 38.9 21.3544 38.6542C21.3544 38.4085 21.1426 38.1368 20.8837 38.0505C19.9843 37.7507 19.1223 34.2497 19.1025 30.8159C19.0823 27.3138 19.6428 24.7765 20.6843 23.6561C21.1233 23.1839 21.1064 23.6639 20.6124 25.7008C19.8892 28.6822 20.1319 32.4181 21.2133 34.951C21.5867 35.8257 21.9333 36.7744 21.9834 37.0593C22.2194 38.3997 26.2421 40.8579 28.1996 40.8579C29.4766 40.8579 29.3608 38.1534 27.8886 33.589C26.6924 29.8807 26.6196 27.6596 27.4489 20.1839C27.532 19.4341 27.3175 18.3096 26.9721 17.6848C26.6268 17.06 26.1872 15.7483 25.9953 14.7699L25.6463 12.991L23.8768 14.5427C22.0717 16.1256 19.5369 19.3276 19.5369 20.0248C19.5369 20.2373 19.9459 20.411 20.4457 20.411C20.9455 20.411 21.3544 20.5429 21.3544 20.7041C21.3544 20.8652 20.2485 23.0633 18.8967 25.5886C15.6248 31.7013 14.8895 34.4035 14.8768 40.3616C14.8665 45.167 15.023 46.7243 15.6708 48.2611C16.2229 49.5711 15.712 49.753 13.7765 48.9355C12.72 48.4892 13.4424 54.5824 14.6242 56.0848C15.761 57.53 16.0649 57.5138 15.7799 56.023ZM42.8581 52.8152C41.1684 49.4307 35.8414 48.3706 31.9586 50.6461C29.8028 51.9095 29.4348 52.6717 30.9806 52.6717C31.5268 52.6717 32.4388 53.1087 33.0074 53.6428C33.8689 54.4521 34.7653 54.6518 38.3874 54.8413C40.8376 54.9694 42.8726 55.2891 43.052 55.574C43.796 56.7555 43.6274 54.3559 42.8581 52.8152ZM63.2171 54.6071C66.6749 54.4216 67.7292 54.1892 68.8366 53.3687C69.5863 52.8132 70.5038 52.2596 70.8754 52.1385C71.8536 51.8197 68.2247 49.519 66.2341 49.1959C65.321 49.0477 63.5475 49.2549 62.0819 49.681C59.8569 50.3278 59.4348 50.6374 58.8413 52.058C58.097 53.8393 57.8786 56.5438 58.5667 55.4575C58.8353 55.0335 60.3152 54.7628 63.2171 54.6071ZM85.0395 50.0453C84.1508 49.7491 84.4214 48.1279 85.3595 48.1279C86.0227 48.1279 86.2692 47.6704 86.4955 46.0198C86.9389 42.7846 86.8385 37.31 86.33 36.9957C86.0801 36.8413 85.8757 36.1962 85.8757 35.5623C85.8757 34.9284 85.4656 33.8338 84.9643 33.1299C84.4631 32.426 83.5326 29.8472 82.8966 27.3992C82.2605 24.9512 81.207 21.9687 80.5554 20.7715C79.4057 18.6592 74.2418 13.2641 73.7962 13.7096C73.6746 13.8312 73.8257 15.8128 74.132 18.1131C74.6076 21.6853 74.5934 22.3556 74.0346 22.7077C73.5618 23.0055 73.1283 22.7759 72.4716 21.8797C71.9718 21.1976 70.9902 20.0259 70.2903 19.2758L69.0177 17.912L70.1178 20.1839C71.549 23.1393 71.9578 24.5004 71.4142 24.5004C71.1738 24.5004 70.1385 22.8136 69.1136 20.7518C65.2493 12.9785 59.7566 7.88314 52.9996 5.80352C50.0365 4.89155 47.7085 4.83665 44.3004 5.59841C43.8006 5.71007 43.2148 5.81717 42.9986 5.83629C42.7824 5.85535 42.9358 6.37503 43.3394 6.991C43.743 7.60698 44.0732 8.20074 44.0732 8.31048C44.0732 8.42022 43.0487 8.12071 41.7964 7.6449C38.1251 6.2499 34.9877 6.61895 31.8126 8.8193C29.1315 10.6773 27.9625 12.5819 27.905 15.1857C27.8611 17.1745 28.0366 17.6368 29.3134 18.8958C30.6673 20.2309 33.2426 21.3113 35.085 21.3173C35.9343 21.3198 35.7718 20.2874 34.7279 19.0479C33.8523 18.0083 33.3453 14.7904 34.0966 15.0408C34.4249 15.1503 34.9127 15.6015 35.1804 16.0436C35.8683 17.1791 39.2529 20.5122 40.5148 21.2968C43.4384 23.1142 46.2873 24.4607 47.7961 24.7379L49.4744 25.0463L48.6126 23.356C48.1386 22.4263 47.4578 21.3322 47.0997 20.9248C46.22 19.9237 43.9804 15.4129 44.3631 15.4129C44.531 15.4129 44.2983 15.004 43.846 14.5042C43.3937 14.0044 42.7736 13.5954 42.4681 13.5954C42.1626 13.5954 41.658 13.2887 41.3469 12.9139C40.5142 11.9105 41.8226 12.0012 42.9851 13.0275C43.77 13.7204 49.2831 16.5371 53.3879 18.3423C54.1376 18.672 56.08 19.287 57.7044 19.7089C61.5397 20.7051 67.7953 23.645 69.3165 25.1662C70.0176 25.8673 70.9057 26.305 71.4664 26.2258C72.248 26.1153 72.4896 26.4131 72.7946 27.8632C72.9997 28.8381 73.0985 29.7047 73.0142 29.789C72.93 29.8732 71.7811 28.9013 70.4612 27.6291C68.335 25.5798 66.9003 24.747 61.5666 22.4665C60.8169 22.146 58.7722 21.4247 57.0229 20.8637C55.2735 20.3027 53.1266 19.4897 52.2519 19.057C50.7504 18.3142 46.6082 16.3358 45.7009 15.9282C45.4716 15.8251 45.7387 16.4765 46.2944 17.3756C46.8501 18.2748 47.6355 19.6834 48.0397 20.5059C48.7464 21.944 49.4404 22.8476 51.7115 25.2868C52.2889 25.9069 52.6415 26.5342 52.4951 26.6807C52.3486 26.8272 51.2116 26.7386 49.9684 26.484C48.7253 26.2293 47.7082 26.0631 47.7082 26.1146C47.7082 26.1661 48.2333 27.3552 48.8751 28.7571C49.9873 31.1865 51.8391 33.0783 55.0758 35.0923C56.4351 35.9381 58.8546 36.1176 59.2947 35.4054C59.4492 35.1555 59.3839 34.9511 59.1495 34.9511C58.5116 34.9511 57.6056 32.463 57.8003 31.2456C57.9546 30.2814 58.0553 30.3487 58.8599 31.9532C59.7733 33.7745 62.2205 35.3481 61.5848 33.7054C60.8416 31.7846 60.3235 28.6169 60.6259 27.8425C60.9172 27.0967 61.0373 27.1549 61.6679 28.3477C62.0599 29.0892 62.6623 29.9776 63.0065 30.3218C63.3508 30.6661 63.9144 31.4929 64.2589 32.1592C64.9492 33.494 69.8195 38.1317 70.531 38.1317C70.7772 38.1317 70.8396 37.7739 70.6699 37.3365C70.2618 36.2853 69.7703 30.4073 70.0905 30.4073C70.2278 30.4073 70.9653 31.515 71.7294 32.8689C72.4935 34.2227 73.2798 35.43 73.4767 35.5516C73.6736 35.6732 73.8452 34.0033 73.8579 31.8405C73.8708 29.6778 74.12 27.4993 74.4121 26.9995C74.8493 26.2512 74.9458 26.7325 74.9587 29.7257C74.9763 33.8224 76.036 41.048 76.943 43.2565L77.5441 44.7201L78.1094 42.9026C78.4203 41.903 78.7965 40.7784 78.9454 40.4036C79.0942 40.0287 79.2545 39.3131 79.3016 38.8132C80.1509 29.7998 79.9424 26.2066 78.2999 21.5514C77.3021 18.7234 78.4896 20.3635 79.6318 23.391C80.5605 25.8524 80.6465 26.8327 80.6068 34.4967C80.5663 42.2975 80.4796 43.1358 79.404 46.1421C78.3179 49.1775 78.2992 49.3673 79.1069 49.1561C79.7664 48.9836 79.9688 49.1731 79.9688 49.9629C79.9688 50.934 80.0179 50.9506 80.7997 50.243C81.9185 49.2306 82.3486 49.2909 83.614 50.6379C84.5941 51.6811 84.7309 51.7141 85.129 51.0029C85.4285 50.4676 85.4002 50.1656 85.0395 50.0453ZM72.1354 45.396C71.8849 44.9949 70.454 44.0878 68.9557 43.3803C66.4012 42.174 65.9689 42.1095 62.0192 42.3452C58.8768 42.5326 57.5632 42.8052 56.847 43.4185C55.4399 44.6232 55.5908 45.5715 57.1364 45.2381C62.0958 44.1682 65.1739 43.9386 67.5193 44.4635C69.1014 44.8175 69.9725 45.2455 69.9725 45.6687C69.9725 46.1119 70.3974 46.2925 71.2817 46.2251C72.3601 46.1429 72.5106 45.9968 72.1354 45.396ZM31.4629 45.1932C34.198 44.0505 38.4954 43.8492 41.9021 44.7044C44.8295 45.4393 45.8907 45.3787 45.8907 44.4767C45.8907 44.2474 45.0344 43.646 43.9878 43.1404C41.0944 41.7425 35.9014 41.8536 32.8404 43.379C31.5623 44.0159 30.2703 44.8338 29.9693 45.1965C29.285 46.021 29.4828 46.0212 31.4629 45.1932ZM40.8925 37.3021C40.8925 37.0958 40.3904 36.4552 39.7767 35.8787C39.163 35.3021 38.6834 34.7042 38.7109 34.55C38.7385 34.3957 38.3948 33.4516 37.9472 32.452C37.0757 30.5056 36.9843 29.9153 36.8743 25.5228L36.8032 22.6829L35.0993 22.6803C32.9637 22.6778 29.9875 21.8726 29.9875 21.2984C29.9875 21.0602 29.6138 20.8654 29.157 20.8654C28.428 20.8654 28.3154 21.3178 28.2354 24.5671C28.0654 31.4788 30.3432 35.8227 34.7585 37.0067C37.3286 37.6959 40.8925 37.8675 40.8925 37.3021ZM53.615 37.4872C53.615 37.3826 52.6914 36.215 51.5625 34.8925C50.4335 33.5699 48.7675 30.9855 47.8603 29.1493C46.3892 26.1721 45.9597 25.6844 43.8924 24.643C42.6173 24.0007 41.0348 23.0949 40.3757 22.6301C38.5951 21.3746 37.9523 22.3633 38.3423 25.7573C38.9495 31.04 41.5946 34.454 46.4338 36.2006C49.0846 37.1573 53.615 37.969 53.615 37.4872ZM38.6207 21.632C38.6207 21.5538 37.9561 20.8893 37.1439 20.1553L35.6672 18.8207L37.0018 20.2974C38.2458 21.6739 38.6207 21.983 38.6207 21.632ZM72.4263 17.1941C71.2391 13.1546 68.6421 8.63092 66.8244 7.43619C64.8227 6.12048 61.1634 5.26546 59.1475 5.6424L57.6372 5.92483L61.4194 8.78261C65.4835 11.8534 69.5293 15.6598 71.5628 18.3259C72.2573 19.2364 72.8985 19.9084 72.9878 19.8191C73.077 19.7298 72.8244 18.5486 72.4263 17.1941Z" />
</g>
<defs>
<filter id="filter0_f_194_432" x="10.4997" y="2.33808" width="79.0006" height="95.3234" filterUnits="userSpaceOnUse" color-interpolation-filters="sRGB">
<feFlood flood-opacity="0" result="BackgroundImageFix"/>
<feBlend mode="normal" in="SourceGraphic" in2="BackgroundImageFix" result="shape"/>
<feGaussianBlur stdDeviation="0.00356957" result="effect1_foregroundBlur_194_432"/>
</filter>
</defs>
</svg>
