<svg width="100" height="100" viewBox="0 0 100 100"  xmlns="http://www.w3.org/2000/svg">
<path fill-rule="evenodd" clip-rule="evenodd" d="M88.367 49.1481L85.7752 46.4419H83.9456V47.0474L84.1888 47.4686L84.746 69.2728C84.7194 69.9484 84.4802 70.3329 83.9204 70.7801L86.0091 70.6907L88.9387 66.8715L88.367 49.1481Z" />
<path fill-rule="evenodd" clip-rule="evenodd" d="M76.5669 51.2068C80.325 50.1716 79.7533 47.7382 79.3968 43.1753C81.062 44.038 82.3742 45.1529 83.0353 46.7329L83.8438 65.8953C83.9942 71.1981 81.575 74.3234 75.7314 74.5467C77.1248 66.9356 78.4536 59.3148 76.5669 51.2068Z" />
<path fill-rule="evenodd" clip-rule="evenodd" d="M73.0988 27.5527L74.2847 28.2265L74.2577 28.6038C77.534 34.0948 80.1984 39.9937 77.9501 49.1677L76.5756 49.9763L73.0449 44.7207C77.3984 42.0329 74.0318 33.9411 73.0988 27.5527Z" />
<path fill-rule="evenodd" clip-rule="evenodd" d="M26.0785 83.0981L25.7274 82.825L25.6494 80.8747C24.7092 81.7216 23.8487 82.7096 22.4509 82.747L22.4899 79.5485C22.4694 79.1134 22.0141 78.5765 21.1637 78.8464L14.3377 80.5237L15.5079 78.0663L11.3733 77.4032L10.3592 74.6338L12.3875 74.5558L15.4689 72.2935H13.0896C11.0808 74.2581 8.95723 73.237 6.84863 72.6055C7.79974 73.7803 9.19091 75.7065 9.22798 76.272L9.42301 78.6514L13.1286 79.3145L11.8414 83.3321C13.4187 82.6673 15.0273 82.1906 16.6781 81.9669L16.5611 81.1478L21.0077 80.2116V83.2541L20.6177 83.5271V84.0342H23.5041L26.0785 83.0981Z" />
<path fill-rule="evenodd" clip-rule="evenodd" d="M74.1699 83.3951L75.5802 82.2898C76.2053 81.785 76.6486 81.742 76.7236 82.9377L77.1048 85.8726C79.733 85.2046 80.2814 83.3093 80.7638 81.375C83.3961 81.4906 86.3941 83.7673 88.6536 81.6799C87.3875 80.5991 87.3267 79.2689 87.0528 77.9828C91.0031 78.0142 92.1487 77.6105 93.1512 74.0188C89.3005 74.7816 85.9685 71.7058 89.7589 71.5413L90.7118 69.8262C89.8606 70.0747 89.0093 70.3288 88.1581 70.0167C86.5063 72.1376 85.5728 74.1251 90.788 74.9717C91.2646 77.7595 87.8411 76.8616 85.2233 76.725C84.6487 77.8405 85.0743 79.2244 85.4901 79.6217C86.4117 80.2719 85.5865 80.8767 84.7659 80.6889C82.4678 80.266 80.4027 79.7403 79.3154 78.7832C79.434 81.1133 79.8259 83.7584 77.9052 83.7381L77.3716 78.8594C76.7045 79.9615 74.7478 80.2083 74.7416 81.6418C74.8241 82.2774 74.4808 82.8332 74.1699 83.3951Z" />
<path fill-rule="evenodd" clip-rule="evenodd" d="M59.9155 40.6304C60.2808 43.1728 62.1952 44.9861 64.2603 46.7287C60.7906 47.3619 59.3476 46.0701 57.8573 44.8229C57.9463 45.7503 58.1072 46.6676 57.8573 47.6435C62.0267 46.9612 66.131 46.4394 69.7492 47.1102C71.7854 48.7725 72.431 50.8626 72.493 53.1323C69.0873 50.4439 62.7105 50.6877 55.4176 51.836C55.7869 50.0376 55.6064 48.3239 54.6552 46.7287C54.6434 50.0481 53.2171 52.4545 50.7674 54.1995C50.8328 50.9066 51.5107 47.4832 49.3193 44.6705C50.2549 47.1835 48.0447 51.5384 45.7363 50.9212C45.298 48.682 45.8966 46.9615 42.9157 43.451C42.0083 45.9858 36.3713 47.2484 34.5307 44.9759C33.9068 44.4485 38.6034 43.4926 38.9523 40.9351C38.3035 41.473 37.3029 41.5591 36.2841 41.6214C36.7529 41.7328 37.2207 41.8448 36.9703 42.0791C30.1299 43.3238 23.5609 45.1557 23.7608 61.6075C26.9508 63.0889 30.4967 63.8265 34.2448 64.1411C36.6293 64.2721 39.878 64.2258 39.6355 64.8956C38.9662 65.1198 36.3999 65.2305 34.6495 65.1656C39.7873 66.4891 36.7676 66.2921 32.5767 66.0871C39.451 66.4862 39.7176 67.8552 34.7574 67.6181C36.3072 68.3197 38.0927 69.0456 37.3177 69.5044C36.1386 69.7147 34.1393 68.8057 32.439 68.9388C37.7816 70.3852 36.6567 71.8924 32.116 70.1516C36.4705 72.2569 32.0965 71.7159 30.8355 71.014C32.3542 72.1563 31.9385 72.3185 30.7008 72.0647L25.176 70.9598C26.2908 81.9741 28.6034 86.5204 34.9884 91.8571C45.7242 100.783 55.6638 98.2978 65.3275 91.8571C71.3202 86.9193 73.8248 79.4893 74.8565 71.0079C72.5373 71.7272 70.2298 72.4851 67.6142 72.2659C65.4625 71.8203 67.6833 71.3108 68.7582 70.8178L64.108 71.3895L64.0318 70.4363L67.7672 69.3691L63.3455 69.7884L63.2694 68.7974L65.2129 68.6066C63.4049 68.1754 64.6814 68.0016 66.1661 67.8448C65.0396 67.5836 61.8581 67.8085 65.5945 66.3961L62.8884 66.8538V65.9006L64.222 65.7099C64.697 65.6813 64.981 65.2528 64.2603 65.2528C62.9513 65.4454 61.6074 65.6644 61.7829 64.7189C66.6775 64.2764 71.6517 64.0633 75.9237 61.8221C76.5077 58.2195 75.9256 54.6822 75.2374 51.1503C72.1928 43.1947 65.2776 43.5874 59.9155 40.6304ZM32.5767 66.0871C32.1829 66.0642 31.7715 66.044 31.334 66.028C31.7814 66.0476 32.1481 66.0661 32.5767 66.0871ZM34.0778 46.5952C36.8637 46.588 39.7697 47.2873 42.6109 47.6057C43.4987 48.9022 44.0512 50.324 44.3644 51.836C39.3191 51.8581 34.2086 49.0719 27.5937 52.9605C27.061 53.2789 26.87 52.8925 26.9836 52.4272C27.33 50.596 28.4734 49.2076 29.2326 47.6057C30.778 46.8583 32.4063 46.5995 34.0778 46.5952ZM64.8515 53.3828C67.7498 53.4203 70.541 55.0889 71.911 58.1641C71.3372 59.6446 69.4495 59.0473 68.8728 59.8767C67.6736 60.9544 66.3187 59.5286 68.1585 58.971C68.6951 58.8071 69.1912 58.4883 69.4853 57.9751C68.0796 56.4047 66.5998 55.9795 65.1197 55.5495C68.7967 60.7293 59.2817 61.3197 62.1546 55.9267C61.0002 56.7488 59.8312 57.5558 58.9208 58.6218C59.6358 59.3372 60.4441 59.6798 61.2654 59.9699C63.4593 60.4886 61.9443 61.6297 60.6992 60.9396C59.8374 60.4154 58.9679 59.9316 58.031 59.8078C56.5269 59.6513 56.6448 59.5276 56.8182 59.0801C58.5067 55.2702 61.5731 53.4542 64.5706 53.384C64.6642 53.3819 64.758 53.3816 64.8515 53.3828ZM34.9981 53.4035C35.0916 53.4023 35.1854 53.4026 35.2791 53.4048C38.2766 53.475 41.3423 55.2916 43.0309 59.1014C43.2042 59.5489 43.3228 59.6726 41.8186 59.8291C40.8817 59.953 40.0123 60.4368 39.1504 60.9609C37.9053 61.651 36.3903 60.5094 38.5842 59.9907C39.4056 59.7005 40.2138 59.3586 40.9288 58.6431C40.0184 57.5771 38.8494 56.7701 37.695 55.9481C40.5679 61.341 31.053 60.7506 34.7299 55.5708C33.2499 56.0008 31.7694 56.4261 30.3637 57.9965C30.6579 58.5097 31.1546 58.8285 31.6912 58.9924C33.531 59.55 32.1755 60.9752 30.9763 59.8974C30.3995 59.068 28.5124 59.6653 27.9387 58.1848C29.3087 55.1097 32.0998 53.441 34.9981 53.4035ZM54.515 69.065C54.9506 69.0732 55.4136 69.216 55.8369 69.5598C56.2162 69.8379 56.8596 70.2931 57.4758 69.5598C57.6272 69.2034 58.7234 68.4517 58.2955 70.2839C57.8765 71.5921 56.7049 71.5026 55.5511 71.4461C53.8601 71.5071 52.3992 71.9864 51.1032 72.7656C50.3851 73.0615 49.6376 73.1671 48.8122 72.7656C47.6746 72.0587 45.7139 71.3616 44.8909 71.4583C41.5625 71.768 42.1481 70.7919 41.3871 70.2863C40.1916 69.3562 41.7978 68.6614 42.1282 69.7067C42.7084 70.0437 43.163 69.903 43.5641 69.5598C44.5853 68.7973 45.9964 69.0667 46.6895 69.5598C50.4136 73.44 50.7511 71.5167 53.112 69.5598C53.4042 69.2987 53.843 69.1022 54.3303 69.0692C54.3913 69.0651 54.4528 69.0638 54.515 69.065ZM54.6863 75.83C55.2372 75.8216 55.7744 75.8894 56.294 76.0586C58.0106 76.6699 59.0187 78.0179 62.3954 76.9027C64.3129 76.3308 64.6528 78.163 62.6922 78.1691C62.0106 78.2046 60.3508 81.9585 59.0403 82.8992C57.2756 84.4967 55.4055 84.3553 53.5423 84.3278H45.1335C42.3952 84.3325 40.3551 83.7289 40.1207 81.5517C40.0875 80.6989 37.6961 77.9923 37.3129 78.1734C36.3428 78.4027 35.0448 76.9189 37.3129 76.935C41.7649 77.7008 40.6029 76.6319 43.9639 76.0586C44.9867 75.7797 46.3602 75.8083 47.0326 76.0586C48.7462 76.9011 51.5399 76.505 52.9974 76.0586C53.5708 75.923 54.1353 75.8384 54.6863 75.83ZM49.7709 86.8735C52.7923 86.8713 55.818 88.0222 57.0693 90.3322C57.703 91.6254 56.757 91.2697 56.3897 90.8088C53.4155 87.4706 46.303 87.3 43.1064 90.8088C42.349 91.659 42.0733 91.202 42.497 90.3322C43.7326 88.0307 46.7495 86.8756 49.7709 86.8735Z" />
<path fill-rule="evenodd" clip-rule="evenodd" d="M11.2421 49.1681L13.834 46.4619H15.6635V47.0674L15.4203 47.4886L14.8631 69.2928C14.8897 69.9684 15.1289 70.3529 15.6887 70.8001L13.6 70.7107L10.6704 66.8915L11.2421 49.1681Z" />
<path fill-rule="evenodd" clip-rule="evenodd" d="M11.4331 47.5479L12.9005 45.7947L15.0159 17.4562L13.5294 16.0078L11.4331 47.5479Z" />
<path fill-rule="evenodd" clip-rule="evenodd" d="M13.8964 45.4368H15.756L17.0356 25.9941L16.1333 25.1155L17.531 4.8784L15.3013 2.34375H14.5962L13.7886 14.1463L16.0255 16.7875L13.8964 45.4368Z" />
<path fill-rule="evenodd" clip-rule="evenodd" d="M23.1951 51.1506C19.437 50.1154 20.0087 47.6821 20.3652 43.1191C18.7 43.9819 17.3878 45.0967 16.7267 46.6767L15.9182 65.8391C15.7678 71.142 18.187 74.2673 24.0306 74.4905C22.6372 66.8795 21.3084 59.2586 23.1951 51.1506Z" />
<path fill-rule="evenodd" clip-rule="evenodd" d="M26.968 27.6489L25.7821 28.3227L25.8091 28.7C22.5328 34.191 19.8684 40.0899 22.1167 49.2639L23.4912 50.0724L27.0219 44.8169C22.6684 42.1291 26.035 34.0372 26.968 27.6489Z" />
<path fill-rule="evenodd" clip-rule="evenodd" d="M62.5439 22.9863L58.6086 25.5741C52.2191 23.4218 46.637 23.9838 41.3602 25.5741L37.4791 23.0406C34.0792 23.83 30.9882 25.392 27.9922 27.191C27.7845 32.7331 24.3487 37.579 27.507 43.8471L38.6109 39.0494C38.6507 33.3103 45.2422 34.9414 48.0442 35.8156C50.627 30.7986 59.2998 34.9568 59.3095 39.1573C65.2948 39.4306 67.9846 40.6219 71.8688 43.9007C75.1972 40.4547 73.4078 32.0928 71.5994 27.4068C68.9866 25.5953 65.7484 24.3047 62.5439 22.9863ZM29.0027 30.0714C29.5289 30.0274 29.9968 30.3568 29.8516 31.2872C29.4484 32.9263 29.2143 34.59 29.3129 36.3007C29.3789 37.1592 27.273 38.2973 27.0219 36.408C26.8327 34.4883 27.3739 32.8125 27.8032 31.0989C27.8916 30.5332 28.4764 30.1154 29.0027 30.0714ZM70.5864 30.1591C70.6187 30.1589 70.6517 30.1601 70.6846 30.1628C71.2108 30.2068 71.7956 30.6252 71.884 31.1909C72.3133 32.9045 72.8551 34.5803 72.6659 36.5C72.4149 38.3893 70.3089 37.2506 70.375 36.3921C70.4735 34.6814 70.2389 33.0183 69.8356 31.3793C69.6995 30.507 70.1019 30.1625 70.5864 30.1591Z" />
<path fill-rule="evenodd" clip-rule="evenodd" d="M38.5327 22.4493C46.2192 20.2311 53.9058 19.9945 61.5923 22.4493L58.5431 24.1645C52.9005 22.4132 47.161 22.3585 41.3151 24.1645L38.5327 22.4493Z" />
<path fill-rule="evenodd" clip-rule="evenodd" d="M18.5983 42.7266L20.123 42.1168L20.9996 37.0475L18.7127 37.2381C19.1452 35.4298 20.4533 35.237 21.9525 32.3212C20.6154 31.7032 19.1977 31.3669 17.7599 31.1016V32.8167H18.8271C19.3566 33.7962 18.3074 34.8388 17.6455 35.8659V39.0676C19.3117 37.2552 19.8664 38.5676 18.5983 40.3254V42.7266Z" />
<path fill-rule="evenodd" clip-rule="evenodd" d="M18.1011 28.2148L18.128 30.1014C19.772 29.4454 21.3372 28.6793 21.9821 26.6246C22.5942 24.7635 23.8316 23.7465 25.4588 23.2557L24.246 19.9676C23.9798 19.2315 23.4102 18.2908 25.2432 18.9705C27.2895 19.905 29.3493 20.4756 31.4959 18.7009C30.3154 18.1221 30.1211 17.6583 31.981 17.4342C33.8409 14.7768 35.5085 13.76 39.4735 14.6852C38.0018 12.6012 37.279 10.7133 37.9373 9.18711C39.8452 9.87471 41.8804 13.1066 43.651 11.0468C45.1839 9.63978 47.1523 11.8036 47.8823 12.8255C50.0773 10.4959 51.6731 12.0374 53.2187 13.9036C55.4072 9.17462 57.5483 11.3866 59.687 13.9306C61.2294 11.947 62.747 12.5759 63.0829 16.5987C63.8987 13.3984 64.9586 10.7825 68.1767 13.3376C69.7248 14.8218 72.0339 16.3079 73.567 18.2428C75.3914 16.9286 77.1504 16.8802 78.8225 18.5123C77.7828 19.9951 76.6654 21.4182 76.2621 23.3905C75.9878 24.8349 76.0274 26.0976 77.6636 26.436L80.9516 26.975C82.6394 27.2573 82.6237 27.2334 81.4098 28.4843L79.3076 30.856C80.9084 31.4892 82.4248 32.3546 84.2127 32.4731C86.3593 32.7474 85.2523 33.5599 84.3745 33.9824L79.5771 36.1385C80.1815 37.6487 80.7799 39.1623 82.3261 40.1273C83.4609 40.7991 82.7505 41.2255 82.2992 41.0706C81.4752 40.951 80.4807 40.9733 79.7119 40.3159V42.3373C81.6468 43.2208 83.9021 42.7061 86.3958 41.1514C84.3332 40.6698 83.0812 39.1247 81.5985 37.6208C81.1163 37.1452 81.0713 36.8505 82.1375 36.2193C84.0168 34.8547 86.8901 34.8045 87.366 31.5837L82.3531 31.0986C80.6578 31.0453 81.6705 30.2775 82.0297 29.6432C82.8853 28.5866 83.6254 27.5043 84.9135 26.5438L79.0381 25.6544C76.4405 25.2076 77.9411 22.9702 78.4721 21.9621L81.302 17.8655C78.9124 16.63 76.5518 15.0818 73.9173 16.4909C71.0971 14.3675 67.1353 8.49829 63.1368 12.8256C62.1701 12.2162 61.1977 11.4311 60.2799 12.3404C58.1085 10.3643 55.2146 8.94591 53.0031 12.017C51.5694 10.8717 50.074 9.94498 47.9901 11.1007C46.4971 10.433 44.945 8.55327 43.5431 9.7531C40.6627 11.9356 39.1891 7.5526 37.0209 6.41113C36.238 8.95921 36.3217 11.3339 37.3174 13.5263C34.939 13.6338 32.2966 13.497 31.8732 15.4129C31.3513 17.0731 29.0622 16.769 27.3184 16.0328C29.0027 17.4571 31.2385 19.2258 27.5879 18.6201C25.1684 17.9313 23.2895 16.9968 21.4161 16.0597L23.2488 21.6117C23.671 22.7459 23.4393 23.2113 22.4402 23.5522C21.245 23.779 21.0817 25.5139 20.4728 26.5977C19.9295 27.5076 18.9154 27.7114 18.1011 28.2148Z" />
</svg>
