<svg width="100" height="100" viewBox="0 0 100 100"  xmlns="http://www.w3.org/2000/svg">
<path d="M38.3781 21.622L36.4862 4.32471C36.4862 4.32471 28.6484 7.56795 24.3241 12.1625C19.9997 16.7571 10.8105 34.3247 10.8105 34.3247L14.0538 67.5679L24.3241 80.8112L16.7565 67.8382C16.216 67.0274 15.9457 66.2166 15.9457 65.4058C15.6754 64.0544 15.4051 61.3517 15.1349 57.5679C15.1349 55.4058 15.6754 53.5139 16.7565 51.622C18.3781 49.1896 20.8105 45.6761 20.8105 42.7031C20.8105 38.3788 25.1349 30.8112 28.9187 27.0274C32.7024 23.2436 38.3781 21.622 38.3781 21.622Z" />
<path d="M12.1621 64.0542L6.48643 35.6758C6.48643 35.6758 2.16211 39.1893 2.16211 45.9461C2.16211 52.7028 4.32427 56.7569 7.02697 59.4596C9.72968 62.1623 12.1621 64.0542 12.1621 64.0542Z" />
<path d="M58.6486 3.24344C58.6486 3.24344 58.6486 1.89209 50 1.89209C41.3513 1.89209 41.3513 3.24344 41.3513 3.24344L41.0811 21.0813C41.0811 21.0813 45.1351 19.7299 50 19.7299C54.8648 19.7299 58.9189 21.0813 58.9189 21.0813L58.6486 3.24344Z" />
<path d="M61.6216 21.622L63.5135 4.32471C63.5135 4.32471 71.3513 7.56795 75.6756 12.1625C80 16.7571 88.9189 34.3247 88.9189 34.3247L85.9459 67.5679L75.6756 80.8112L83.2432 67.8382C83.7837 67.0274 84.054 66.2166 84.054 65.4058C84.3243 64.0544 84.5946 61.3517 84.8648 57.5679C84.8648 55.4058 84.3243 53.5139 83.2432 51.622C81.6216 49.1896 79.1891 45.6761 79.1891 42.7031C79.1891 38.3788 74.8648 30.8112 71.081 27.0274C67.027 23.2436 61.6216 21.622 61.6216 21.622Z" />
<path d="M87.8379 64.0542L93.5136 35.6758C93.5136 35.6758 97.8379 39.1893 97.8379 45.9461C97.8379 52.7028 95.6757 56.7569 92.973 59.4596C90.0001 62.1623 87.8379 64.0542 87.8379 64.0542Z" />
<path d="M31.6217 53.2435C31.6217 52.1624 32.1622 51.0813 33.2433 50.2705C33.2433 50.2705 29.1893 50.2705 27.2974 52.1624C27.2974 52.1624 28.6487 55.1354 30.8109 55.1354C31.892 55.1354 32.4325 55.1354 32.4325 55.1354C31.892 54.5948 31.6217 54.0543 31.6217 53.2435Z" />
<path d="M67.5674 50.2705C68.3782 51.0813 69.189 51.8921 69.189 53.2435C69.189 54.0543 68.9187 54.5948 68.3782 55.4056C68.3782 55.4056 68.9187 55.4056 69.9998 55.4056C72.162 55.4056 73.5133 52.4327 73.5133 52.4327C71.6214 50.2705 67.5674 50.2705 67.5674 50.2705Z" />
<path d="M38.1083 48.9193C36.4867 46.4869 35.1353 42.9734 35.1353 41.3517C35.1353 38.3788 37.0272 34.3247 37.0272 34.3247C32.9731 38.3788 32.9731 41.622 32.9731 43.7842C32.9731 44.8653 34.3245 46.4869 35.4056 48.1085C36.4867 48.3788 37.2975 48.649 38.1083 48.9193Z" />
<path d="M78.9189 51.622C77.2973 48.6491 75.4054 44.8653 75.4054 42.4328C75.4054 42.4328 74.8648 39.7301 72.7027 36.7572C71.8919 38.3788 70.2703 40.8112 69.7297 40.8112C68.6486 40.8112 67.027 39.1896 64.054 36.2166C61.0811 33.2437 57.2973 33.2437 57.2973 33.2437C58.6486 33.2437 60.8108 37.0274 63.5135 39.7301C66.2162 42.4328 68.1081 42.4328 68.1081 42.4328C65.1351 45.4058 64.3243 45.6761 64.3243 45.6761C65.1351 45.6761 66.2162 45.4058 66.2162 45.4058C66.2162 45.4058 66.2162 45.4058 66.2162 45.6761C68.1081 45.1355 70.5405 44.8653 72.7027 47.0274C72.7027 47.0274 68.3784 45.9464 67.027 47.8382C66.4865 48.3788 65.6757 49.1896 64.8649 49.7301H65.1351C65.1351 49.7301 67.5676 48.9193 70 48.9193C72.4324 48.9193 77.5676 52.1626 77.5676 52.1626C77.5676 52.1626 74.5946 57.0274 71.0811 57.0274C67.5676 57.0274 65.6757 57.0274 65.6757 57.0274C65.6757 57.0274 61.8919 56.7572 60.8108 55.9464C60.8108 55.9464 62.973 56.4869 63.2432 56.2166C63.5135 55.6761 62.1621 55.4058 62.1621 53.7842C62.1621 53.2437 62.4324 52.7031 62.7027 52.1626V51.8923C62.973 51.3518 63.2432 51.0815 63.5135 50.8112C61.3513 51.8923 59.1892 52.9734 58.3784 52.9734C58.3784 52.9734 60 51.622 61.8919 50.0004C61.6216 50.0004 61.6216 50.0004 61.3513 50.0004C58.6486 50.0004 58.1081 48.3788 57.2973 49.1896C56.4865 50.0004 58.1081 51.8923 58.1081 51.8923C58.1081 51.8923 57.027 52.9734 54.3243 50.2707C51.6216 47.568 44.3243 41.622 42.973 40.2707C41.0811 38.6491 40.5405 35.1355 40.5405 35.1355C40.5405 35.1355 40.5405 37.8382 40.5405 41.8923C40.5405 45.9464 46.7567 47.2977 48.1081 48.9193C49.4594 50.2707 49.4594 52.4328 49.4594 52.4328C49.4594 52.4328 45.1351 50.8112 44.3243 50.0004C43.5135 49.1896 39.7297 47.8382 39.7297 49.4599C39.7297 51.0815 42.973 52.4328 42.973 52.4328C42.973 52.4328 43.5135 52.7031 41.3513 52.7031C40.5405 52.7031 38.1081 51.3518 38.1081 51.3518C38.1081 51.3518 37.8378 51.3518 37.5676 51.0815C37.8378 51.3518 37.8378 51.622 38.1081 51.8923V52.1626C38.3784 52.7031 38.6486 53.2437 38.6486 53.7842C38.6486 55.4058 37.2973 55.9464 37.5676 56.2166C37.8378 56.4869 40 55.9464 40 55.9464C38.9189 57.0274 35.1351 57.0274 35.1351 57.0274C35.1351 57.0274 33.2432 57.0274 29.7297 57.0274C26.2162 57.0274 23.2432 52.1626 23.2432 52.1626C23.2432 52.1626 28.3784 48.9193 30.8108 48.9193C32.1621 48.9193 33.5135 49.1896 34.5946 49.4599C34.3243 49.1896 34.054 48.9193 33.7838 48.6491C33.5135 48.3788 32.973 47.8382 32.4324 47.568C30.5405 47.0274 27.2973 47.568 27.2973 47.568C28.1081 46.7572 29.4594 46.4869 30.8108 46.4869C29.7297 45.6761 28.3784 44.8653 27.2973 43.7842C25.9459 42.4328 26.2162 39.7301 26.4865 38.1085C24.8649 40.541 24.3243 42.7031 24.3243 42.7031C24.3243 45.1355 22.4324 48.9193 20.8108 51.8923C19.1892 54.595 18.6486 57.8382 18.9189 60.8112C19.1892 63.5139 19.4594 66.4869 19.4594 68.1085C19.4594 71.3518 29.7297 84.3247 34.5946 89.4599C39.4594 94.3247 49.7297 98.1085 49.7297 98.1085C49.7297 98.1085 60 94.3247 64.8649 89.4599C69.7297 84.595 80 71.3518 80 68.1085C80 66.4869 80.2703 63.5139 80.5405 60.8112C81.0811 57.568 80.2703 54.3247 78.9189 51.622ZM44.8649 71.8923C47.027 71.8923 47.5676 73.7842 48.9189 73.7842C49.4594 73.7842 49.7297 73.7842 50 73.7842C50 73.7842 50.2703 73.7842 51.0811 73.7842C52.4324 73.7842 52.973 71.8923 55.1351 71.8923C57.2973 71.8923 57.027 71.8923 57.027 72.4328C57.027 72.9734 55.9459 72.9734 54.8648 72.9734C53.7838 72.9734 52.973 75.6761 50 75.6761C47.2973 75.6761 46.4865 72.9734 45.1351 72.9734C44.054 72.9734 42.973 72.7031 42.973 72.4328C42.973 72.1626 42.973 71.8923 44.8649 71.8923ZM45.4054 82.1626C46.2162 82.1626 46.4865 81.3518 47.8378 81.3518C49.1892 81.3518 50.2703 82.1626 50.2703 82.1626C50.2703 82.1626 51.3513 81.3518 52.7027 81.3518C54.054 81.3518 54.3243 82.1626 55.1351 82.1626C55.9459 82.1626 57.2973 82.1626 57.5676 82.1626C57.8378 82.4328 52.7027 83.5139 50.8108 84.595C50.5405 84.8653 50 84.8653 49.7297 84.595C47.8378 83.5139 42.973 82.1626 43.2432 82.1626C42.973 82.1626 44.5946 82.1626 45.4054 82.1626ZM56.4865 86.2166C56.4865 87.568 51.6216 89.4599 51.6216 89.4599H50H48.3784C48.3784 89.4599 43.5135 87.568 43.5135 86.2166C43.5135 84.8653 41.6216 85.4058 38.9189 82.7031C38.9189 82.7031 42.1621 82.4328 43.5135 83.7842C44.5946 84.8653 47.5676 85.1355 49.4594 85.9464C50 86.2166 50.2703 86.2166 50.8108 85.9464C52.7027 84.8653 55.4054 84.8653 56.7567 83.7842C58.1081 82.4328 61.3513 82.7031 61.3513 82.7031C58.3784 85.4058 56.4865 84.595 56.4865 86.2166Z" />
</svg>
