<svg width="100" height="100" viewBox="0 0 100 100"  xmlns="http://www.w3.org/2000/svg">
<path d="M80.5407 18.9189C79.7299 17.2973 78.6488 16.7567 77.838 16.2162C77.0271 15.6756 76.7569 15.4054 76.7569 15.1351C76.4866 12.9729 73.2434 9.45943 70.2704 9.45943C68.6488 9.45943 67.838 9.99997 67.0271 10.5405C66.7569 10.8108 66.4866 10.8108 66.2163 10.8108C65.4055 10.8108 64.0542 9.7297 63.7839 9.18916C63.7839 9.18916 64.0542 9.18916 64.3244 9.18916C64.865 9.18916 65.6758 8.91889 66.2163 8.10808C67.0272 7.29727 67.0272 7.29727 69.4596 7.29727H70.5407C71.3515 7.29727 72.4326 7.29727 72.7028 6.48646C73.2434 5.67565 72.7028 5.13511 72.1623 4.3243C71.892 4.05403 71.6217 3.51349 71.6217 3.24322C71.6217 2.70268 71.3515 2.43241 70.8109 2.43241C70.2704 2.43241 70.0001 2.70268 70.0001 3.24322C70.0001 4.05403 70.2704 4.59457 70.8109 5.13511C70.8109 5.40538 71.0812 5.40538 71.0812 5.67565C70.8109 5.67565 70.8109 5.67565 70.2704 5.67565H69.1893C66.7569 5.67565 66.2163 5.67565 64.865 6.75673C64.5947 7.027 64.0542 7.29727 63.7839 7.29727C63.2434 7.56754 62.1623 7.56754 62.1623 8.91889C62.1623 10.5405 64.3244 12.1621 65.9461 12.1621C66.7569 12.1621 67.2974 11.8919 67.838 11.3513C68.6488 11.3513 69.1893 10.8108 70.2704 10.8108C72.1623 10.8108 75.1353 13.7838 75.1353 15.1351C75.4055 16.2162 76.2163 17.027 77.0272 17.2973C77.838 17.8378 78.6488 18.3784 79.1893 19.4594C80.5407 22.1621 84.5947 40.2702 84.0542 42.4324C82.7028 42.9729 81.3515 44.5946 80.2704 45.6757C79.7299 46.2162 79.4596 46.4865 78.919 47.027C77.838 48.1081 77.5677 51.3513 77.0272 58.3784C76.7569 60.5405 76.7569 62.7027 76.4866 64.8648C76.2163 66.4865 76.2163 67.8378 75.9461 68.9189C75.9461 67.5675 75.9461 66.2162 75.9461 64.5946C75.9461 63.7838 75.9461 62.9729 75.9461 61.8919C75.9461 57.2973 75.1353 55.9459 73.7839 55.6757C73.7839 55.6757 73.7839 55.4054 73.7839 55.1351C73.7839 54.3243 73.5136 53.2432 72.9731 52.1621C71.892 50.8108 70.2704 50.8108 69.1893 51.0811C69.1893 50.5405 68.919 49.7297 68.919 48.3784C68.919 45.4054 67.838 44.5946 67.2974 44.3243L65.9461 43.7838L66.2163 45.1351C66.2163 45.4054 66.2163 45.9459 66.2163 46.2162C64.5947 44.054 60.8109 41.6216 57.5677 39.4594C55.9461 38.3784 54.3244 37.2973 53.7839 36.7567C53.2434 36.2162 53.2434 35.9459 52.9731 35.9459C52.4326 35.4054 52.1623 35.1351 51.3515 35.6757C51.0812 35.6757 50.8109 35.9459 50.2704 36.2162C48.6488 36.7567 45.1353 39.4594 42.9731 41.6216C42.4326 43.7838 37.2974 50.5405 35.1353 53.2432C32.9731 55.9459 31.0812 62.4324 30.2704 63.5135C29.7299 64.8648 29.4596 72.973 29.4596 78.6486C29.4596 79.4594 29.4596 80.2702 29.4596 81.3513C29.4596 82.973 29.4596 84.054 29.4596 84.3243C29.4596 84.8648 29.7299 85.1351 30.0001 85.4054C29.7299 85.4054 29.4596 85.1351 29.1893 84.5946C29.1893 85.6757 28.919 85.1351 28.3785 84.5946C27.5677 84.054 28.1082 78.1081 28.1082 76.4865C28.1082 74.8648 27.0272 73.5135 26.7569 69.4594C26.4866 65.4054 28.6488 62.7027 29.4596 60C30.2704 57.2973 35.1353 48.3784 36.7569 47.027C37.838 46.2162 38.1082 45.4054 38.3785 45.1351C38.3785 44.8648 38.3785 44.8648 38.3785 44.5946C37.838 44.054 37.5677 43.2432 37.5677 42.9729C37.838 42.4324 38.3785 41.6216 37.838 40.8108C37.2974 40 36.2163 40.5405 35.9461 40.5405C30.2704 41.6216 26.4866 47.5675 25.6758 49.7297C25.4055 50.8108 25.1353 54.3243 24.865 59.7297C24.865 60.8108 24.865 62.1621 24.5947 63.5135C24.3244 63.2432 24.3244 63.2432 24.0542 63.2432C23.2434 63.2432 22.9731 64.054 22.9731 64.5946C22.1623 67.8378 23.2434 70.5405 24.0542 72.4324C24.0542 72.7027 24.3244 72.973 24.3244 73.5135C24.5947 75.4054 24.3244 78.9189 24.3244 80.5405C24.3244 80.8108 24.3244 81.3513 24.3244 81.3513C24.3244 81.8919 24.5947 84.054 24.865 86.7567C25.1353 88.3783 25.4055 90.2702 25.4055 90.5405C25.4055 91.0811 25.6758 91.3513 25.9461 91.8919C26.2163 92.1621 26.7569 92.9729 26.7569 93.2432C26.7569 93.2432 26.4866 93.2432 26.2163 93.2432C24.5947 93.2432 23.5136 86.2162 23.5136 80.2702C23.5136 77.5675 22.7028 74.3243 22.7028 74.3243L22.4326 74.054C21.6217 73.2432 21.3515 71.6216 21.0812 70.5405C20.8109 69.7297 20.8109 69.1892 20.5407 68.6486C20.0001 67.5675 19.4596 56.2162 19.4596 54.8648C19.4596 53.2432 18.1082 53.2432 17.2974 53.2432C17.0272 53.2432 17.0272 53.2432 16.7569 53.2432C16.2163 53.2432 16.2163 53.2432 15.9461 52.4324C15.9461 51.8919 15.9461 51.6216 16.2163 51.3513C17.0272 50.8108 17.838 49.4594 17.838 48.1081C17.838 48.1081 17.2974 35.9459 18.6488 30.8108C19.7299 27.027 22.1623 23.2432 23.7839 21.0811C24.3244 20.5405 24.5947 20 24.865 19.4594C25.6758 17.8378 28.6488 15.4054 29.4596 14.8648C30.0001 14.5946 31.0812 14.3243 31.892 14.054H32.4326C34.0542 13.5135 34.0542 12.4324 34.0542 11.3513C34.0542 11.0811 34.0542 11.0811 34.0542 11.0811C34.0542 11.0811 34.5947 11.0811 35.1353 11.0811V10.8108C36.7569 10.8108 37.2974 8.91889 37.2974 8.37835V4.59457H36.4866C34.0542 4.59457 33.2434 1.6216 33.2434 1.6216L32.9731 1.08105H31.6217C31.0812 1.08105 30.8109 1.35132 30.8109 1.89187C30.8109 2.43241 31.3515 2.70268 31.892 2.70268C32.4326 4.05403 33.5136 5.94592 35.6758 6.21619V8.37835C35.6758 8.91889 35.4055 9.45943 35.1353 9.45943H34.865C34.0542 9.45943 33.2434 9.45943 32.7028 9.99997C32.4326 10.2702 32.1623 10.8108 32.1623 11.3513C32.1623 12.4324 32.1623 12.4324 31.892 12.7027L31.3515 12.9729C30.5407 13.2432 29.4596 13.5135 28.6488 13.7838C27.5677 14.054 24.3244 17.027 23.2434 18.6486C23.2434 19.1892 22.7028 19.4594 22.4326 20.2702C20.8109 22.7027 18.3785 26.4865 17.2974 30.5405C15.9461 35.9459 16.4866 48.3784 16.4866 48.3784C16.4866 48.9189 15.9461 50 15.6758 50.2702C14.865 50.8108 14.3244 51.8919 14.5947 52.9729C14.865 53.7838 15.1353 54.5946 16.7569 54.8648C17.0272 54.8648 17.2974 54.8648 17.5677 54.8648C17.838 54.8648 18.1082 54.8648 18.1082 54.8648C18.1082 55.4054 18.6488 67.8378 19.1893 69.1892C19.4596 69.4594 19.4596 70.2702 19.7299 70.8108C20.0001 72.1621 20.5407 73.7838 21.3515 74.8648C21.6217 75.6757 22.1623 78.3784 22.1623 80.2702C22.1623 81.8919 22.1623 94.8648 26.4866 94.8648C26.7569 94.8648 28.1082 94.8648 28.3785 94.054C28.919 93.2432 28.1082 91.8919 27.5677 91.0811C27.2974 90.8108 27.2974 90.5405 27.0272 90.5405C27.0272 90.2702 26.7569 88.9189 26.4866 86.7567C26.2163 84.5946 25.9461 82.1621 25.9461 81.3513C25.9461 81.0811 25.9461 80.8108 25.9461 80.5405C25.9461 79.7297 25.9461 78.9189 25.9461 77.8378C26.2163 78.3783 26.4866 78.9189 26.7569 79.7297C26.7569 83.5135 27.2974 86.4865 30.0001 86.7567C30.5407 86.7567 30.8109 86.7567 31.0812 86.7567C33.2434 89.7297 36.2163 92.1621 38.1082 94.054C40.5407 96.4865 49.7299 98.6486 49.7299 98.6486C49.7299 98.6486 58.919 96.4865 61.3515 94.054C63.7839 91.6216 67.838 87.8378 70.2704 84.054C71.6217 81.8919 73.5136 78.6486 74.5947 75.4054C75.1353 75.1351 77.0271 73.7838 77.838 65.1351V64.8648C80.8109 57.5675 82.9731 50.5405 81.892 49.4594C80.8109 48.6486 80.5407 47.2973 80.5407 47.2973C80.8109 47.027 80.8109 47.027 81.0812 46.7567C82.1623 45.6756 83.5136 44.3243 84.5947 43.7838C84.865 43.7838 85.1353 43.5135 85.1353 42.9729C86.7569 40.2702 81.6217 20.8108 80.5407 18.9189ZM27.5677 51.6216C28.6488 50 32.4326 50.2702 32.4326 50.2702C32.4326 50.2702 32.7028 50.5405 33.2434 50.8108C31.892 52.9729 30.5407 55.9459 29.4596 58.6486C28.919 58.3784 28.6488 58.1081 28.3785 57.8378C28.1082 57.5675 28.1082 57.2973 28.1082 57.2973L28.3785 57.027C29.1893 55.9459 30.2704 53.7838 30.8109 52.4324C31.3515 51.0811 30.8109 52.1621 28.919 52.1621C27.0272 51.8919 27.5677 51.6216 27.5677 51.6216ZM46.2163 75.9459C47.2974 75.9459 48.1082 76.7567 48.6488 76.7567C49.1893 76.7567 49.7299 76.7567 49.7299 76.7567C49.7299 76.7567 50.2704 76.7567 50.8109 76.7567C51.3515 76.7567 52.1623 75.9459 53.2434 75.9459C53.2434 75.9459 53.5136 76.7567 53.2434 77.027C52.9731 77.2973 52.9731 78.3784 49.7299 78.3784C46.4866 78.3784 46.4866 77.2973 46.2163 77.027C46.2163 76.7567 46.2163 75.9459 46.2163 75.9459ZM32.9731 61.0811C33.5136 59.1892 34.3244 57.2973 35.6758 55.4054C36.2163 54.5946 36.7569 54.054 37.0272 53.2432C39.1893 54.3243 42.1623 55.4054 45.9461 55.4054C45.9461 55.4054 42.1623 62.7027 39.7299 63.7838C39.7299 63.7838 38.919 61.3513 37.2974 61.3513C35.4055 61.0811 32.9731 61.0811 32.9731 61.0811ZM42.9731 76.2162C41.0812 76.2162 41.6217 74.5946 42.4326 74.5946C43.2434 74.5946 44.5947 74.5946 44.5947 74.5946C44.5947 74.5946 44.865 76.2162 42.9731 76.2162ZM49.7299 90.5405C48.3785 90.5405 46.2163 90.8108 46.2163 90C46.2163 89.1892 46.2163 87.8378 47.0271 87.8378C47.838 87.8378 49.7299 87.8378 49.7299 87.8378H53.2434C53.2434 87.8378 53.5136 87.8378 53.5136 88.9189C53.5136 89.7297 51.0812 90.5405 49.7299 90.5405ZM60.8109 84.5946C59.4596 84.5946 59.4596 83.7838 58.919 83.7838C58.3785 83.7838 57.838 84.5946 55.9461 84.5946C54.0542 84.5946 51.0812 84.5946 49.7299 84.8648C48.3785 84.5946 45.6758 84.5946 43.5136 84.5946C41.3515 84.5946 41.3515 83.7838 40.8109 83.7838C40.2704 83.7838 40.2704 84.5946 38.919 84.5946C37.838 84.5946 37.5677 83.7838 37.5677 83.5135C37.5677 83.2432 38.3785 81.8919 40.2704 81.8919C42.1623 81.8919 41.6217 82.973 42.9731 82.973C44.5947 82.973 45.4055 81.6216 47.0271 81.6216C48.6488 81.6216 48.3785 82.4324 48.919 82.4324C49.4596 82.4324 49.7299 82.4324 49.7299 82.4324C49.7299 82.4324 49.7299 82.4324 50.5407 82.4324C51.3515 82.4324 50.8109 81.6216 52.4326 81.6216C54.0542 81.6216 55.1353 82.973 56.4866 82.973C57.838 82.973 57.5677 81.8919 59.1893 81.8919C60.8109 81.8919 61.892 82.9729 61.892 83.5135C62.1623 84.054 61.892 84.5946 60.8109 84.5946ZM54.865 74.5946C54.865 74.5946 56.2163 74.5946 57.0272 74.5946C57.838 74.5946 58.3785 76.2162 56.4866 76.2162C54.865 76.2162 54.865 74.5946 54.865 74.5946ZM71.3515 57.8378C70.2704 58.9189 66.7569 61.0811 66.7569 61.0811C66.7569 61.0811 64.3245 61.0811 62.7028 61.0811C61.0812 61.0811 60.2704 63.5135 60.2704 63.5135C57.5677 62.4324 54.0542 55.1351 54.0542 55.1351C62.7028 55.1351 67.5677 50 67.5677 50C67.5677 50 67.5677 51.6216 67.5677 52.4324C67.5677 53.2432 64.865 54.5946 64.865 54.5946C65.4055 54.8648 68.1082 56.4865 69.4596 56.4865C70.5407 56.4865 72.4326 56.7567 71.3515 57.8378ZM81.0812 54.3243C80.2704 56.7567 79.4596 58.6486 79.1893 61.0811C79.1893 61.0811 77.5677 61.0811 78.6488 56.2162C79.7299 51.0811 78.919 52.4324 79.7299 50.5405C79.7299 50.5405 79.4596 53.7838 80.0001 53.5135C80.5407 53.2432 81.892 52.1621 81.0812 54.3243Z" />
</svg>
