<svg width="100" height="100" viewBox="0 0 100 100" fill="none" xmlns="http://www.w3.org/2000/svg">
<path d="M80.3034 51.2663L81.0876 48.6491L78.9267 46.3703C71.5331 38.5736 71.0803 38.2732 69.4786 38.2732H67.9858L77.2037 28.8379L97.6562 49.1366V68.4707L80.3034 51.2663Z" fill="white" fill-opacity="0.501961"/>
<path d="M77.2037 23.9373L62.269 38.2731H57.0845V23.6446L77.2037 3.52344L97.6562 23.9592V43.5749L77.2037 23.9373Z" fill="white" fill-opacity="0.501961"/>
<path d="M10.3277 45.0811C9.98553 45.0811 9.75769 45.1952 9.41551 45.4233L3.94031 49.4155C3.59812 49.7577 3.25586 50.2141 3.25586 50.6703V56.8296H6.33587L8.04661 60.9359L6.44995 65.0418H3.25586V67.3233C3.25586 67.7796 3.59813 68.2356 4.05438 68.5777L9.64366 72.6841C9.87178 72.9122 10.2137 73.0263 10.5559 73.0263H17.5137V70.0607H16.7155L17.0574 69.3763H17.5137V60.9359L19.9092 56.8296H24.5855L28.3067 49.4385L28.546 48.9592H5.87958L6.79179 48.0466H29.0015L30.4818 45.0811H10.3277ZM9.98588 50.4422H14.3199L16.4874 54.5481L14.3199 58.5403H9.98588L7.81846 54.434L9.98588 50.4422ZM5.19513 51.0122C5.99356 51.0122 6.56364 51.5826 6.56364 52.3811C6.44958 53.0654 5.8795 53.75 5.19513 53.75C4.51076 53.75 3.82623 53.1795 3.82623 52.3811C3.82623 51.6967 4.39669 51.0122 5.19513 51.0122ZM22.3044 51.0122C23.1028 51.0122 23.6733 51.5826 23.6733 52.3811C23.6733 53.0654 23.1028 53.75 22.3044 53.75C21.506 53.75 20.9355 53.0654 20.9355 52.3811C20.9355 51.6967 21.506 51.0122 22.3044 51.0122ZM12.1529 59.567C12.8373 59.567 13.5214 60.1375 13.5214 60.9359C13.5214 61.7343 12.9513 62.3044 12.1529 62.3044C11.4685 62.3044 10.784 61.7343 10.784 60.9359C10.784 60.2515 11.3545 59.567 12.1529 59.567ZM9.98588 63.4452H14.3199L16.4874 67.5515L14.3199 71.6578H9.98588L7.81846 67.5515L9.98588 63.4452Z" fill="white"/>
<path d="M5.08124 60.9359C5.08124 61.2056 5.04584 61.4725 4.97705 61.7216C4.90826 61.9707 4.80744 62.1971 4.68034 62.3877C4.55324 62.5784 4.40235 62.7296 4.23629 62.8328C4.07023 62.9359 3.89224 62.9891 3.71249 62.9891C3.34948 62.9891 3.00134 62.7727 2.74465 62.3877C2.48796 62.0027 2.34375 61.4805 2.34375 60.9359C2.34375 60.6663 2.37915 60.3993 2.44794 60.1502C2.51673 59.9011 2.61755 59.6748 2.74465 59.4842C2.87175 59.2935 3.02264 59.1423 3.1887 59.0391C3.35476 58.9359 3.53275 58.8828 3.71249 58.8828C3.89224 58.8828 4.07023 58.9359 4.23629 59.0391C4.40235 59.1423 4.55324 59.2935 4.68034 59.4842C4.80744 59.6748 4.90826 59.9011 4.97705 60.1502C5.04584 60.3993 5.08124 60.6663 5.08124 60.9359Z" fill="white" fill-opacity="0.501961"/>
<path d="M13.6359 54.5482C13.6359 54.8179 13.5858 55.0848 13.4883 55.3339C13.3909 55.583 13.248 55.8094 13.068 56C12.8879 56.1907 12.6742 56.3419 12.4389 56.4451C12.2037 56.5483 11.9515 56.6014 11.6969 56.6014C11.1826 56.6014 10.6894 56.385 10.3257 56C9.9621 55.615 9.75781 55.0928 9.75781 54.5482C9.75781 54.0037 9.9621 53.4815 10.3257 53.0965C10.6894 52.7114 11.1826 52.4951 11.6969 52.4951C11.9515 52.4951 12.2037 52.5482 12.4389 52.6514C12.6742 52.7546 12.8879 52.9058 13.068 53.0965C13.248 53.2871 13.3909 53.5134 13.4883 53.7625C13.5858 54.0116 13.6359 54.2786 13.6359 54.5482Z" fill="white" fill-opacity="0.501961"/>
<path d="M13.6359 67.5512C13.6359 67.8208 13.5858 68.0878 13.4883 68.3369C13.3909 68.586 13.248 68.8123 13.068 69.0029C12.8879 69.1936 12.6742 69.3448 12.4389 69.448C12.2037 69.5512 11.9515 69.6043 11.6969 69.6043C11.1826 69.6043 10.6894 69.388 10.3257 69.0029C9.9621 68.6179 9.75781 68.0957 9.75781 67.5512C9.75781 67.0066 9.9621 66.4844 10.3257 66.0994C10.6894 65.7144 11.1826 65.498 11.6969 65.498C11.9515 65.498 12.2037 65.5512 12.4389 65.6543C12.6742 65.7575 12.8879 65.9087 13.068 66.0994C13.248 66.29 13.3909 66.5164 13.4883 66.7655C13.5858 67.0146 13.6359 67.2815 13.6359 67.5512Z" fill="white" fill-opacity="0.501961"/>
<path d="M28.1216 38.9219H32.2278L33.9387 40.5187H29.7185L28.1216 38.9219Z" fill="white"/>
<path d="M17.8561 40.7471L20.4795 37.8955H12.4952C11.5827 37.8955 10.7843 38.6939 10.7843 39.6064V41.8877L9.98584 43.3705L17.7421 43.3705V40.7471H17.8561Z" fill="white"/>
<path d="M18.6548 41.3174L18.6548 43.3705L34.2813 43.3705L33.711 42.458V41.3174L18.6548 41.3174Z" fill="white"/>
<path d="M25.8405 37.8955H21.5061L19.1108 40.5189H28.578L25.8405 37.8955ZM25.2702 40.0627C24.6999 40.0627 24.3577 39.6064 24.3577 39.1502C24.3577 38.6939 24.8139 38.2377 25.2702 38.2377C25.8405 38.2377 26.1827 38.6939 26.1827 39.1502C26.1827 39.6064 25.7264 40.0627 25.2702 40.0627Z" fill="white"/>
<path d="M35.764 33.6748C34.9655 33.6748 34.3952 33.7889 33.939 33.9029L39.7561 41.5451C40.2124 41.431 40.6686 41.317 40.6686 41.317V38.8076C40.6686 38.8076 42.2655 38.9217 42.2655 37.8951C42.1514 36.4123 37.4749 33.6748 35.764 33.6748Z" fill="white"/>
<path d="M26.5251 33.9029C26.0688 33.7889 25.7266 33.6748 25.7266 33.6748C21.7345 33.6748 21.5063 36.9826 21.5063 36.9826H26.411C26.411 36.6404 26.5251 36.4123 26.9813 36.1842C26.6391 35.3857 26.5251 34.5873 26.5251 33.9029Z" fill="white"/>
<path d="M33.1406 34.0166H27.5516H27.4375C27.4375 34.701 27.5516 35.2713 27.7797 35.9557C28.35 35.8416 29.1484 35.8416 30.2891 35.8416C33.0265 35.8416 34.8515 38.1228 34.8515 38.1228C34.8515 38.1228 37.2468 42.7994 37.8171 42.3431C38.1593 42.115 38.5015 41.8869 38.9578 41.6588L33.1406 34.0166Z" fill="white"/>
<path d="M73.6751 67.4694C73.6751 68.431 72.8738 69.3925 71.752 69.3925C70.7904 69.3925 69.8289 68.5912 69.8289 67.4694C69.8289 66.5079 70.6302 65.5463 71.752 65.5463C72.7135 65.5463 73.6751 66.5079 73.6751 67.4694ZM26.0784 61.3796H69.3481L70.7904 62.6617H24.7963L26.0784 61.3796ZM51.0787 73.7195L54.4441 79.4888L51.0787 85.2581H44.5081L41.1427 79.4888L44.5081 73.7195H51.0787ZM45.9504 67.4694C45.9504 66.5079 46.7517 65.5463 47.8735 65.5463C48.9953 65.5463 49.7966 66.3476 49.7966 67.4694C49.7966 68.431 48.9953 69.3925 47.8735 69.3925C46.7517 69.3925 45.9504 68.431 45.9504 67.4694ZM23.8348 69.3925C22.8732 69.3925 21.9117 68.5912 21.9117 67.4694C21.9117 66.5079 22.713 65.5463 23.8348 65.5463C24.9566 65.5463 25.7579 66.3476 25.7579 67.4694C25.5976 68.431 24.7963 69.3925 23.8348 69.3925ZM36.6554 94.5531L30.5656 94.5531L27.5207 88.7838L30.5656 83.0144H36.6554L39.7003 88.7838L36.6554 94.5531ZM31.6874 79.4888C31.6874 78.5273 32.4887 77.5657 33.6105 77.5657C34.5721 77.5657 35.5336 78.367 35.5336 79.4888C35.5336 80.6106 34.7323 81.4119 33.6105 81.4119C32.649 81.4119 31.6874 80.6106 31.6874 79.4888ZM36.6554 76.1234H30.5656L27.5207 70.3541L30.5656 64.745H36.6554L39.7003 70.5143L36.6554 76.1234ZM40.0209 92.3095L40.5016 91.3479H55.0851L55.5659 92.3095H40.0209ZM64.8609 94.5531H58.7711L55.8864 88.7838L58.9313 83.0144L65.0211 83.0145L67.9058 88.7838L64.8609 94.5531ZM60.0531 79.4888C60.0531 78.5273 60.8544 77.5657 61.9762 77.5657C63.098 77.5657 63.8993 78.367 63.8993 79.4888C63.8993 80.6106 63.098 81.4119 61.9762 81.4119C60.8544 81.4119 60.0531 80.6106 60.0531 79.4888ZM64.8609 76.1234H58.7711L55.7262 70.3541L58.7711 64.5848H64.8609L67.9058 70.3541L64.8609 76.1234ZM74.6367 85.2581H70.6302L68.3866 79.4888L70.6302 73.7195H74.6367V65.7066C74.6472 64.8208 74.0371 63.8382 73.5148 63.3027L65.8224 57.6937C65.5019 57.3731 65.0211 57.2129 64.5404 57.2129H31.0464C30.5656 57.2129 30.2451 57.3731 29.7643 57.6937L22.0719 63.3027C21.5912 63.7835 21.1104 64.4245 21.1104 65.0656L21.1104 73.7195L25.4374 73.7195L27.8412 79.4888L25.5976 85.2581H21.1104V88.4633C21.1104 89.1043 21.5912 89.7453 22.2322 90.2261L30.0848 95.9954C30.4054 96.3159 30.8861 96.4762 31.3669 96.4762H64.5404C65.0211 96.4762 65.3417 96.3159 65.8224 95.9954L73.6751 90.2261C74.3161 89.7453 74.6367 89.1043 74.6367 88.4633V85.2581Z" fill="white"/>
<path d="M50.5979 79.4891C50.5979 80.2542 50.294 80.9879 49.753 81.5289C49.212 82.0699 48.4783 82.3738 47.7133 82.3738C46.9482 82.3738 46.2145 82.0699 45.6735 81.5289C45.1325 80.9879 44.8286 80.2542 44.8286 79.4891C44.8286 79.1103 44.9032 78.7352 45.0482 78.3852C45.1932 78.0353 45.4056 77.7172 45.6735 77.4494C45.9414 77.1815 46.2594 76.969 46.6094 76.8241C46.9593 76.6791 47.3344 76.6045 47.7133 76.6045C48.0921 76.6045 48.4672 76.6791 48.8172 76.8241C49.1672 76.969 49.4852 77.1815 49.753 77.4494C50.0209 77.7172 50.2334 78.0353 50.3783 78.3852C50.5233 78.7352 50.5979 79.1103 50.5979 79.4891Z" fill="white" fill-opacity="0.501961"/>
<path d="M23.6743 79.4891C23.6743 79.868 23.6246 80.2431 23.5279 80.5931C23.4313 80.943 23.2896 81.261 23.1111 81.5289C22.9325 81.7968 22.7205 82.0092 22.4872 82.1542C22.2538 82.2992 22.0038 82.3738 21.7512 82.3738C21.2412 82.3738 20.752 82.0699 20.3914 81.5289C20.0307 80.9879 19.8281 80.2542 19.8281 79.4891C19.8281 79.1103 19.8779 78.7352 19.9745 78.3852C20.0712 78.0353 20.2128 77.7172 20.3914 77.4494C20.57 77.1815 20.782 76.969 21.0153 76.8241C21.2486 76.6791 21.4987 76.6045 21.7512 76.6045C22.0038 76.6045 22.2538 76.6791 22.4872 76.8241C22.7205 76.969 22.9325 77.1815 23.1111 77.4494C23.2896 77.7172 23.4313 78.0353 23.5279 78.3852C23.6246 78.7352 23.6743 79.1103 23.6743 79.4891Z" fill="white" fill-opacity="0.501961"/>
<path d="M75.9185 79.4891C75.9185 80.2542 75.7158 80.9879 75.3552 81.5289C74.9945 82.0699 74.5054 82.3738 73.9954 82.3738C73.4853 82.3738 72.9962 82.0699 72.6355 81.5289C72.2749 80.9879 72.0723 80.2542 72.0723 79.4891C72.0723 79.1103 72.122 78.7352 72.2187 78.3852C72.3153 78.0353 72.457 77.7172 72.6355 77.4494C72.8141 77.1815 73.0261 76.969 73.2594 76.8241C73.4927 76.6791 73.7428 76.6045 73.9954 76.6045C74.2479 76.6045 74.498 76.6791 74.7313 76.8241C74.9646 76.969 75.1766 77.1815 75.3552 77.4494C75.5338 77.7172 75.6754 78.0353 75.7721 78.3852C75.8687 78.7352 75.9185 79.1103 75.9185 79.4891Z" fill="white" fill-opacity="0.501961"/>
<path d="M35.6939 70.5145C35.6939 70.8934 35.6234 71.2685 35.4865 71.6184C35.3496 71.9684 35.1489 72.2864 34.8959 72.5543C34.643 72.8222 34.3426 73.0346 34.0121 73.1796C33.6815 73.3246 33.3273 73.3992 32.9695 73.3992C32.247 73.3992 31.554 73.0953 31.0431 72.5543C30.5321 72.0133 30.2451 71.2796 30.2451 70.5145C30.2451 69.7495 30.5321 69.0158 31.0431 68.4748C31.554 67.9338 32.247 67.6299 32.9695 67.6299C33.3273 67.6299 33.6815 67.7045 34.0121 67.8495C34.3426 67.9944 34.643 68.2069 34.8959 68.4748C35.1489 68.7426 35.3496 69.0606 35.4865 69.4106C35.6234 69.7606 35.6939 70.1357 35.6939 70.5145Z" fill="white" fill-opacity="0.501961"/>
<path d="M35.6939 88.7841C35.6939 89.1629 35.6234 89.538 35.4865 89.888C35.3496 90.238 35.1489 90.556 34.8959 90.8238C34.643 91.0917 34.3426 91.3042 34.0121 91.4491C33.6815 91.5941 33.3273 91.6687 32.9695 91.6687C32.247 91.6687 31.554 91.3648 31.0431 90.8238C30.5321 90.2828 30.2451 89.5491 30.2451 88.7841C30.2451 88.019 30.5321 87.2853 31.0431 86.7443C31.554 86.2033 32.247 85.8994 32.9695 85.8994C33.3273 85.8994 33.6815 85.974 34.0121 86.119C34.3426 86.264 34.643 86.4764 34.8959 86.7443C35.1489 87.0122 35.3496 87.3302 35.4865 87.6802C35.6234 88.0301 35.6939 88.4052 35.6939 88.7841Z" fill="white" fill-opacity="0.501961"/>
<path d="M65.3414 70.5145C65.3414 71.2796 65.0543 72.0133 64.5434 72.5543C64.0325 73.0953 63.3395 73.3992 62.617 73.3992C61.8944 73.3992 61.2015 73.0953 60.6905 72.5543C60.1796 72.0133 59.8926 71.2796 59.8926 70.5145C59.8926 69.7495 60.1796 69.0158 60.6905 68.4748C61.2015 67.9338 61.8944 67.6299 62.617 67.6299C63.3395 67.6299 64.0325 67.9338 64.5434 68.4748C65.0543 69.0158 65.3414 69.7495 65.3414 70.5145Z" fill="white" fill-opacity="0.501961"/>
<path d="M65.3414 88.7841C65.3414 89.5491 65.0543 90.2828 64.5434 90.8238C64.0325 91.3648 63.3395 91.6687 62.617 91.6687C61.8944 91.6687 61.2015 91.3648 60.6905 90.8238C60.1796 90.2828 59.8926 89.5491 59.8926 88.7841C59.8926 88.019 60.1796 87.2853 60.6905 86.7443C61.2015 86.2033 61.8944 85.8994 62.617 85.8994C63.3395 85.8994 64.0325 86.2033 64.5434 86.7443C65.0543 87.2853 65.3414 88.019 65.3414 88.7841Z" fill="white" fill-opacity="0.501961"/>
<path d="M56.0464 48.5596H61.8157L64.2196 50.8032H58.29L56.0464 48.5596Z" fill="white"/>
<path d="M41.6232 51.1236L45.3092 47.1172H34.0911C32.809 47.1172 31.6872 48.239 31.6872 49.5211V52.7262L30.5654 54.8096L41.463 54.8096V51.1236H41.6232Z" fill="white"/>
<path d="M42.7451 51.9248L42.7451 54.8095L64.7005 54.8095L63.8992 53.5274V51.9248L42.7451 51.9248Z" fill="white"/>
<path d="M52.8415 47.1172H46.7517L43.3862 50.8031H56.6877L52.8415 47.1172ZM52.0402 50.1621C51.2389 50.1621 50.7581 49.5211 50.7581 48.88C50.7581 48.239 51.3991 47.598 52.0402 47.598C52.8415 47.598 53.3222 48.239 53.3222 48.88C53.3222 49.5211 52.6812 50.1621 52.0402 50.1621Z" fill="white"/>
<path d="M66.7839 41.1875C65.662 41.1875 64.8608 41.3478 64.2197 41.508L72.3929 52.2453C73.0339 52.0851 73.675 51.9248 73.675 51.9248V48.3991C73.675 48.3991 75.9186 48.5594 75.9186 47.1171C75.7583 45.0337 69.1877 41.1875 66.7839 41.1875Z" fill="white"/>
<path d="M53.8028 41.508C53.1618 41.3478 52.681 41.1875 52.681 41.1875C47.072 41.1875 46.7515 45.835 46.7515 45.835H53.6426C53.6426 45.3542 53.8028 45.0337 54.4439 44.7132C53.9631 43.5914 53.8028 42.4696 53.8028 41.508Z" fill="white"/>
<path d="M63.0979 41.668H55.2452H55.085C55.085 42.6295 55.2452 43.4308 55.5657 44.3924C56.367 44.2321 57.4888 44.2321 59.0914 44.2321C62.9376 44.2321 65.5017 47.4373 65.5017 47.4373C65.5017 47.4373 68.8672 54.0079 69.6685 53.3668C70.1492 53.0463 70.63 52.7258 71.271 52.4053L63.0979 41.668Z" fill="white"/>
</svg>
