<svg width="100" height="100" viewBox="0 0 100 100" fill="none" xmlns="http://www.w3.org/2000/svg">
<path d="M61.2851 88.6677C61.8982 87.6578 69.4074 77.6078 69.4883 77.6888C67.9303 81.1658 66.5495 83.7253 64.6862 87.3741C64.0242 87.5888 60.7186 89.6225 61.2851 88.6677ZM83.7177 75.7543C85.4243 78.6312 86.9132 83.3421 89.0195 82.8499L83.7177 75.7543ZM72.1702 72.8745C70.4827 72.7248 63.3978 76.6773 59.3723 78.4978C62.8398 75.9684 71.0165 70.9041 69.7159 70.0519C69.211 69.1335 59.9113 69.4308 54.9324 69.3282C59.9703 68.4379 65.4554 68.5078 69.8848 64.9772C71.9443 63.2339 66.2477 54.2152 65.0162 52.1075C66.513 53.8326 70.6246 59.085 72.0579 58.0894C72.9627 57.1882 72.1471 52.0618 72.0343 48.3026C72.399 51.3986 75.5057 59.9451 77.9317 59.839C82.2383 59.4211 86.6332 54.4718 90.9065 51.3508C88.4964 54.5735 87.2172 57.8228 85.8965 61.0711C89.4632 60.8988 92.2047 59.8488 95.5185 59.1642C93.3451 60.3609 87.3111 64.1825 87.2319 65.0997C87.3693 65.962 93.5068 66.173 97.3067 66.583C94.5588 66.7396 84.9232 67.0172 84.766 68.3326C84.4129 69.6454 90.4363 72.8673 93.9236 75.489C89.4797 73.4273 84.7817 71.4858 80.6134 71.2657C80.3433 74.0391 80.5427 76.8672 80.894 79.711C79.4702 77.7048 78.1179 75.3139 76.462 73.9782C75.501 75.9531 74.6844 78.0534 73.8989 80.0589C73.7244 78.1165 73.1866 73.0904 72.1702 72.8745ZM50.5615 75.8587C50.6964 75.7237 61.358 72.5633 61.6047 72.5851C62.0909 72.6282 53.9576 76.5198 53.4069 76.5077C52.456 76.3869 51.2707 76.3124 50.5615 75.8587ZM17.1246 61.0574L58.1528 60.1302L22.6142 29.3691L22.0762 26.632L24.52 26.495L49.3893 30.5161C55.6258 31.5793 55.4323 32.3651 49.2955 31.8643L27.901 30.2219C27.6941 30.2908 60.1623 55.8404 62.9921 57.8495C63.7068 58.357 65.7737 61.8099 65.7737 62.5911C65.7737 63.1379 63.124 63.8609 60.9667 63.9622L17.1246 61.0574ZM97.6253 62.0586C98.0122 62.7856 94.6599 63.1898 93.5931 63.2803C94.9312 62.9084 97.2862 61.7532 97.6253 62.0586ZM62.1603 54.8869C60.5429 53.4491 58.9717 51.5738 59.3517 50.3574C59.42 50.289 62.2803 53.685 64.3679 56.3126C65.2619 57.4378 64.4306 56.9009 62.1603 54.8869ZM78.6253 55.8601L80.2387 45.5152L81.33 48.3518L78.6253 55.8601ZM60.3103 35.8333C60.236 36.9597 60.3849 38.5651 59.773 39.4143C59.1397 38.3786 59.8609 36.928 60.3103 35.8333ZM60.0507 34.6395C58.4767 35.297 57.4745 36.1997 56.0725 37.2609C56.6299 36.2731 57.1874 35.2853 57.7449 34.2976C56.6534 34.4917 55.5642 34.7006 54.4817 34.9404C55.5724 34.1323 57.1666 33.2929 57.5178 32.2539C57.7001 31 55.8158 29.5127 53.5013 27.56C54.7773 27.9553 56.87 28.8671 57.3292 28.4182C57.766 28.0843 56.5552 26.2502 56.0595 25.1663L58.8446 27.5501L59.1979 24.7488C59.3082 25.5442 59.9341 28.3748 60.4824 28.3581C61.4272 28.38 61.7737 26.0689 62.3958 24.7535C62.2893 26.3967 62.1662 28.39 62.0597 30.0332L65.1186 29.2798L63.3158 31.5583L65.987 31.7874C65.2242 32.1515 63.6326 32.6309 63.499 33.3423C63.4772 34.0401 65.387 35.8676 66.4614 37.3622C65.272 36.4764 63.4576 34.4788 62.8936 34.6395C62.1797 34.9675 63.0693 37.7474 63.1572 39.3014C62.6268 38.1904 61.3755 34.0806 60.0507 34.6395ZM9.90496 33.5066C9.53591 36.257 11.5414 33.1481 12.4275 28.5386C10.9713 32.7619 10.7297 31.3422 9.90496 33.5066ZM15.7333 34.2523C15.797 31.8125 15.4277 27.5079 14.0737 26.0937C12.8118 25.1746 8.03926 27.8274 4.42341 29.846C6.10109 28.2829 9.54658 25.5188 9.09727 24.4197C8.92824 23.6472 5.82462 24.08 3.35388 24.3976C5.42288 23.535 9.00153 22.7113 8.82819 21.7981C8.75016 20.9938 5.60783 20.3874 3.67146 19.8079C5.94754 19.9171 10.4865 20.9456 10.9711 20.4183C11.6514 19.8872 7.94651 16.6472 6.12555 14.7037C7.75782 15.6612 12.7168 19.778 13.657 19.2668C13.9674 19.1476 14.4489 16.0699 14.5974 14.3655L16.6404 18.033C17.6155 17.0581 18.4739 16.0248 18.6584 14.6547L18.6917 19.5894L27.498 17.6127C25.6214 18.3395 21.2873 19.713 20.0186 21.2352C19.4592 22.0955 25.4167 22.7791 27.8863 23.6984C24.45 23.0462 19.4517 23.0348 18.6055 24.289C17.5515 25.662 19.3482 29.658 20.2443 32.2055C19.466 30.5427 17.9069 27.5988 17.0842 27.7512C16.0186 28.0225 16.1243 32.058 15.7333 34.2523ZM66.4942 25.926C67.02 26.3214 64.9979 27.326 63.8845 28.0828C64.5503 27.5935 65.9548 25.5281 66.4942 25.926ZM53.9374 25.8859C53.0443 25.2922 52.8815 25.0922 53.2909 25.0913C53.5919 25.0907 54.1812 25.4483 54.6005 25.8859C55.5559 26.8831 55.4375 26.8831 53.9374 25.8859ZM2.35844 21.9321C2.35844 21.9321 3.86686 21.9401 4.73248 22.1114C3.98549 22.1917 2.16211 22.3866 2.35844 21.9321ZM11.7618 15.2108C11.5756 14.2345 9.38555 10.4221 10.549 11.1762C11.5081 12.341 11.9607 13.6811 11.9056 15.2203C11.8265 15.2994 11.7618 15.2956 11.7618 15.2108Z" fill="white"/>
</svg>
