<svg width="100" height="100" viewBox="0 0 100 100" fill="none" xmlns="http://www.w3.org/2000/svg">
<path d="M41.6209 91.2103C28.0705 90.441 16.7683 88.0528 9.92109 84.5119C5.81502 82.3885 4.46497 80.6489 3.62205 76.3954C3.0459 73.488 2.13191 65.9165 2.38801 66.1726C2.4657 66.2503 3.06733 67.7069 3.72496 69.4094C4.38258 71.112 5.05583 72.505 5.22108 72.505C5.39716 72.505 5.44241 72.2366 5.33039 71.8566C4.82729 70.1498 4.80775 55.6082 5.30927 56.1293C5.35875 56.1807 5.67184 57.8327 6.00504 59.8004C7.28314 67.3481 8.7878 70.283 10.501 68.5698C11.6411 67.4297 11.8072 65.2187 10.9412 62.7099C10.6409 61.8399 10.4441 61.0792 10.5038 61.0195C10.5635 60.9598 11.3095 61.6082 12.1617 62.4604C13.5406 63.8393 14.2074 65.0293 14.8429 67.2457C15.0172 67.8539 16.0778 67.6454 16.561 66.9079C16.9501 66.3141 16.9733 65.8855 16.7164 64.0386C16.5503 62.8445 16.5153 61.5947 16.6386 61.2614C16.8153 60.7837 17.2795 61.7008 18.8313 65.5932C19.9251 68.3369 20.6878 70.6339 20.5477 70.7627C20.409 70.8902 19.7768 71.1575 19.1428 71.3568C16.0592 72.3261 13.2475 74.2443 12.3597 75.9845C11.7444 77.1906 11.6234 78.8518 12.0877 79.7193C12.4629 80.4203 14.6796 81.7267 15.4939 81.7267C16.0716 81.7267 16.1169 81.5837 16.1169 79.7617C16.1169 77.7797 16.7957 74.8104 17.2488 74.8104C17.3835 74.8104 17.5735 75.2356 17.6709 75.7552C18.2117 78.6379 24.7839 85.6806 26.3665 85.0733C27.4331 84.664 25.9798 81.2314 23.4551 78.1965C22.5651 77.1266 21.9008 76.2513 21.9789 76.2513C22.057 76.2513 22.6828 76.493 23.3696 76.7885C25.3106 77.6235 27.5098 79.5309 29.6045 82.196L31.5212 84.6346L32.0058 82.6763C32.2723 81.5993 32.8051 79.8805 33.1898 78.8568L33.8893 76.9956L34.0801 78.3878C34.449 81.0789 37.8799 86.6257 39.1756 86.6257C39.6555 86.6257 39.7487 86.4285 39.754 85.401C39.757 84.7274 40.0169 83.6109 40.3304 82.92C40.6439 82.2291 40.9004 81.6198 40.9004 81.566C40.9004 81.5123 40.1156 81.2481 39.1563 80.979C36.9663 80.3645 35.1368 79.089 35.1368 78.1766C35.1368 76.6057 37.9978 75.0939 42.2883 74.3976C46.6684 73.6868 48.1049 73.6014 48.1049 74.0519C48.1049 74.3407 47.3279 74.5483 45.2952 74.8027C41.5777 75.2679 39.0551 76.1078 38.152 77.1811C37.6164 77.8177 37.5113 78.1473 37.7198 78.5368C38.0607 79.1738 39.0019 79.7936 40.3241 80.2517C41.3049 80.5916 41.3583 80.5711 42.2627 79.5069L43.1928 78.4126L42.8866 79.5332C42.5057 80.9271 42.6828 81.0604 45.2139 81.2848C46.2492 81.3766 47.5775 81.5006 48.1657 81.5603C48.7628 81.6209 49.3427 81.5226 49.4788 81.3375C49.6128 81.1553 50.2208 79.723 50.8298 78.1545L51.9371 75.3027L52.456 76.2813C52.7415 76.8196 53.3231 78.2001 53.7485 79.3492C54.174 80.4983 54.6106 81.4385 54.7187 81.4385C55.0362 81.4385 58.2904 80.8431 58.8251 80.6872C59.1889 80.5811 59.3371 80.1591 59.4014 79.0462L59.488 77.5481L60.144 78.7763L60.8001 80.0045L61.6484 79.5658C63.0033 78.8652 63.2156 78.1736 62.3805 77.1811C61.4791 76.1099 58.8367 75.2232 55.2563 74.7906C52.3556 74.4401 52.2802 74.4175 52.5509 73.9796C52.8883 73.4336 59.8532 74.4536 62.2787 75.4042C64.1033 76.1193 65.3957 77.2635 65.3957 78.1637C65.3957 78.9013 64.1232 79.9812 62.4317 80.6793L61.3409 81.1294L62.0342 82.5087C62.4154 83.2674 62.824 84.2123 62.942 84.6085C63.2198 85.5416 64.2179 86.626 64.7975 86.6247C65.9109 86.6225 67.1289 85.4502 68.1565 83.393C69.2821 81.1398 70.4549 79.4213 70.8669 79.4213C71.0069 79.4213 70.8617 80.1904 70.5443 81.1304C70.2268 82.0705 70.0084 83.2701 70.0589 83.7961L70.1507 84.7526L71.9334 84.7511C73.2913 84.7496 73.9088 84.6052 74.5247 84.1454C75.5479 83.3815 75.9814 81.9879 75.5146 80.9634C75.3263 80.5501 75.2127 80.1715 75.2621 80.122C75.3116 80.0726 76.1503 80.4277 77.1258 80.9112C79.4743 82.0753 82.2166 82.3461 83.2413 81.5152C83.8056 81.0577 83.962 80.621 84.0529 79.2486C84.1195 78.2455 83.9921 76.9876 83.7424 76.1798C83.5097 75.427 83.4174 74.811 83.5374 74.811C83.7663 74.811 86.148 77.3748 87.1777 78.7296C88.0028 79.8153 88.7383 79.5126 88.7383 78.0874C88.7383 76.5304 87.571 74.7605 85.7448 73.5483C84.2568 72.5606 80.2434 70.7764 79.5097 70.7764C79.321 70.7764 79.2308 70.6143 79.3091 70.4162C81.97 63.6865 82.2638 63.0643 83.29 61.987C84.4836 60.7339 85.3994 58.9011 85.738 57.0879C85.9524 55.9398 85.9542 55.9385 86.1772 56.7615C86.3003 57.2159 86.7468 60.0041 87.1694 62.9573C87.9458 68.3827 88.2355 69.5022 88.7766 69.1678C89.8292 68.5172 91.9426 60.3401 92.6434 54.2061C92.8169 52.6877 92.8752 52.5648 93.1216 53.1975C93.9481 55.3194 94.863 62.5481 95.2463 69.9839C95.3505 72.0048 95.5327 73.6582 95.6512 73.6582C95.9733 73.6582 96.774 70.5842 97.2425 67.5493L97.6563 64.8687L97.509 68.6151C97.219 75.9916 96.1707 80.15 94.0927 82.1671C87.6165 88.453 64.1835 92.4913 41.6209 91.2103ZM45.7226 85.4086C46.922 84.8096 48.6813 83.1537 48.6813 82.6237C48.6813 82.4942 47.4539 82.3019 45.9539 82.1964C44.4538 82.091 43.0273 81.9283 42.7839 81.8349C42.416 81.6937 42.3413 81.9587 42.3413 83.4044C42.3413 86.0985 43.2558 86.6406 45.7226 85.4086ZM58.6384 84.751C58.8185 84.1179 59.0503 83.1658 59.1533 82.6352L59.3408 81.6705L57.5412 81.8634C54.7642 82.1612 54.7216 82.1842 55.0742 83.1957C55.4896 84.3874 57.1765 86.1206 57.8035 85.9998C58.1121 85.9403 58.4392 85.4511 58.6384 84.751ZM46.949 67.8437C45.1504 63.3542 43.501 59.2477 43.2835 58.7182C42.6881 57.2684 43.2126 57.7921 45.6834 61.1139C46.9181 62.7739 47.9714 64.0891 48.024 64.0365C48.1437 63.9169 50.1222 12.6462 50.1222 9.66557C50.1222 8.98769 50.1789 8.48982 50.2483 8.55919C50.3176 8.62856 50.6425 15.8799 50.9702 24.6732C52.1035 55.0843 52.4605 63.9885 52.5502 64.0782C52.5997 64.1277 53.7117 62.7326 55.0212 60.9778C56.3308 59.223 57.4409 57.8259 57.4881 57.8732C57.5787 57.9638 50.9077 74.776 50.4726 75.5535C50.2886 75.8822 49.3216 73.7662 46.949 67.8437ZM21.6125 66.457C20.1463 62.7852 18.9997 59.728 19.0645 59.6632C19.1293 59.5984 19.9427 60.579 20.8719 61.8423C21.8012 63.1056 22.5948 64.1059 22.6355 64.0652C22.6762 64.0246 23.0469 54.7219 23.4593 43.3926C23.8718 32.0634 24.2478 22.6643 24.2949 22.5058C24.4021 22.1451 24.6142 27.1887 25.3494 47.5774C25.6694 56.4534 25.9618 63.8181 25.9992 63.9435C26.0365 64.0689 26.8874 63.0639 27.8901 61.7101C28.8927 60.3563 29.7644 59.2487 29.8271 59.2487C29.8899 59.2487 29.6957 59.8647 29.3957 60.6176C25.9423 69.2829 24.6733 72.4222 24.4929 72.7469C24.3603 72.9854 23.2591 70.5807 21.6125 66.457ZM72.9668 66.1071C71.5042 62.4336 70.346 59.3896 70.393 59.3426C70.4399 59.2957 71.2401 60.2928 72.171 61.5584C73.102 62.824 73.9498 63.8596 74.0549 63.8596C74.16 63.8596 74.3378 61.1039 74.45 57.7358C74.97 42.1206 75.7566 23.4319 75.8999 23.2887C75.987 23.2015 76.06 24.0272 76.062 25.1234C76.0686 28.5666 77.471 63.6392 77.608 63.7762C77.6797 63.8479 78.4809 62.92 79.3884 61.7142C80.296 60.5085 81.0831 59.5665 81.1376 59.621C81.289 59.7724 76.0221 72.7936 75.811 72.7897C75.7093 72.7882 74.4294 69.7806 72.9668 66.1071ZM28.3314 69.1521C28.4404 68.8564 29.0026 67.4099 29.5808 65.9376C30.6251 63.2786 30.6378 63.262 31.486 63.4483C32.3325 63.6342 32.3378 63.6273 32.0967 62.667C31.4682 60.1635 32.2617 57.2031 34.7869 52.6308C36.1107 50.2339 36.1472 50.1968 36.215 51.1797C36.4906 55.1746 38.7328 59.8372 41.0743 61.2844C41.8008 61.7334 42.2187 62.4072 43.0341 64.4443C43.604 65.8684 44.0704 67.1623 44.0704 67.3197C44.0704 67.4771 43.3247 67.607 42.4134 67.6083C39.5028 67.6127 31.1972 68.7721 28.6812 69.5256C28.2412 69.6574 28.1723 69.5838 28.3314 69.1521ZM67.8452 68.7452C64.8048 68.133 60.2664 67.6059 58.0358 67.6059C57.1703 67.6059 56.4621 67.5013 56.4621 67.3734C56.4621 67.2455 56.8987 66.0586 57.4323 64.7358L58.4025 62.3308L59.9212 62.3027C61.8884 62.2663 62.3079 61.7224 63.225 58.0188C64.0104 54.8469 64.5516 53.7675 65.6953 53.0919C66.953 52.349 67.0544 52.4903 66.6497 54.4217C66.0855 57.114 66.1651 59.7314 66.8575 61.2579C67.5405 62.7636 67.9084 63.0586 68.6249 62.6751C69.0419 62.452 69.2008 62.5288 69.4114 63.0555C69.5565 63.4185 70.188 64.9798 70.8147 66.5252L71.954 69.335L71.1964 69.3012C70.7798 69.2827 69.2717 69.0325 67.8452 68.7452ZM45.805 58.6005C45.4906 57.9551 45.4836 57.446 45.7677 55.8564C46.2694 53.0489 46.659 52.6326 46.6382 54.926C46.6289 55.9562 46.5244 57.3827 46.4061 58.096L46.191 59.3928L45.805 58.6005ZM54.0726 57.037C53.9794 55.8041 53.947 54.7515 54.0006 54.6978C54.0543 54.6441 54.2548 55.5286 54.4462 56.6633C54.668 57.9783 54.6941 58.8265 54.5182 59.0025C54.3422 59.1784 54.1806 58.4657 54.0726 57.037Z" fill="white"/>
</svg>
