<svg width="100" height="100" viewBox="0 0 100 100" fill="none" xmlns="http://www.w3.org/2000/svg">
<path d="M55.0787 14.9084C51.3309 14.2659 47.8378 14.4731 44.4131 14.9084L49.868 0L55.0787 14.9084Z" fill="white"/>
<path d="M14.8994 44.8877C14.2573 48.6378 14.4644 52.133 14.8994 55.5598L0 50.1015L14.8994 44.8877Z" fill="white"/>
<path d="M44.5352 85.0918C48.283 85.7342 51.7761 85.527 55.2008 85.0918L49.7459 100L44.5352 85.0918Z" fill="white"/>
<path d="M85.1006 44.8525C85.7426 48.6026 85.5355 52.0978 85.1006 55.5246L99.9999 50.0664L85.1006 44.8525Z" fill="white"/>
<path d="M49.9935 19.583C41.9315 19.583 34.1997 22.7876 28.499 28.4917C22.7983 34.1958 19.5957 41.9323 19.5957 49.9992C19.5957 58.0661 22.7983 65.8025 28.499 71.5067C34.1997 77.2108 41.9315 80.4154 49.9935 80.4154C58.0555 80.4153 65.7873 77.2108 71.488 71.5067C77.1887 65.8025 80.3914 58.0661 80.3914 49.9992C80.3914 41.9323 77.1887 34.1958 71.488 28.4917C65.7873 22.7876 58.0555 19.583 49.9935 19.583ZM49.9836 23.0043C53.5479 23.0043 57.0774 23.7068 60.3704 25.0717C63.6634 26.4365 66.6555 28.437 69.1759 30.959C71.6962 33.4809 73.6955 36.4748 75.0595 39.7698C76.4234 43.0649 77.1255 46.5964 77.1254 50.1629C77.1254 57.3657 74.2658 64.2735 69.1757 69.3666C64.0857 74.4598 57.182 77.3211 49.9836 77.3211C42.7851 77.3211 35.8815 74.4598 30.7915 69.3666C25.7014 64.2735 22.8418 57.3657 22.8418 50.1629C22.8417 46.5964 23.5438 43.0649 24.9078 39.7698C26.2717 36.4748 28.271 33.4809 30.7913 30.959C33.3117 28.437 36.3038 26.4365 39.5968 25.0717C42.8898 23.7068 46.4192 23.0043 49.9836 23.0043Z" fill="white"/>
<path d="M50.0432 30.0215C47.4057 30.0214 44.794 30.5412 42.3573 31.5511C39.9206 32.561 37.7066 34.0412 35.8416 35.9073C33.9766 37.7734 32.4972 39.9888 31.4878 42.4269C30.4785 44.8651 29.959 47.4783 29.959 50.1174C29.959 52.7564 30.4785 55.3696 31.4878 57.8078C32.4972 60.246 33.9766 62.4613 35.8416 64.3274C37.7066 66.1935 39.9206 67.6737 42.3573 68.6836C44.794 69.6935 47.4057 70.2133 50.0432 70.2132C55.3697 70.2132 60.4781 68.096 64.2445 64.3273C68.0109 60.5586 70.1269 55.4471 70.1269 50.1174C70.1269 44.7876 68.0109 39.6762 64.2445 35.9075C60.4781 32.1388 55.3697 30.0215 50.0432 30.0215ZM49.5365 32.2298H50.5888V32.7563V36.5611C53.9521 36.7398 57.1263 38.1734 59.4851 40.579C61.8439 42.9846 63.2158 46.1875 63.3303 49.5556H67.2384H67.7646V50.6082H67.2384H63.3245C63.1764 53.951 61.7903 57.1189 59.4361 59.4953C57.0819 61.8717 53.9281 63.2864 50.5888 63.4639V67.1729V67.6994H49.5365V67.1729V63.4689C46.1326 63.3799 42.8889 62.0036 40.4586 59.6173C38.0282 57.2309 36.5919 54.0118 36.4387 50.6082H32.8442H32.318V49.5556H32.8442H36.4325C36.5514 46.1265 37.9735 42.872 40.4087 40.4563C42.8439 38.0405 46.1085 36.6456 49.5365 36.5561V32.7563V32.2298Z" fill="white"/>
<path d="M49.5361 38.3203C46.6783 38.4277 43.9678 39.6494 41.956 41.7366C39.9443 43.8239 38.7825 46.62 38.707 49.5559H43.6691C43.7484 48.0223 44.3913 46.5719 45.4742 45.4836C46.5571 44.3953 48.0037 43.7458 49.5361 43.6598V38.3203ZM50.5884 38.3219V43.6825C52.05 43.854 53.4035 44.5381 54.4088 45.6135C55.414 46.6888 56.006 48.0857 56.0796 49.5563H61.1776C61.1058 46.6611 59.9774 43.8992 58.0161 41.8183C56.0547 39.7374 53.4036 38.4897 50.5884 38.3219ZM38.7282 50.6089C38.9138 53.4589 40.1213 56.1372 42.1174 58.1263C44.1136 60.1154 46.7567 61.2741 49.5361 61.3785V56.0739C48.076 55.9946 46.6905 55.4035 45.6225 54.4042C44.5544 53.4049 43.8721 52.0612 43.6952 50.6089H38.7282ZM56.0531 50.6089C55.8862 51.9987 55.2562 53.2918 54.2647 54.2794C53.2732 55.267 51.9782 55.8916 50.5884 56.0524V61.3665C53.3221 61.2015 55.9032 60.0176 57.8474 58.0369C59.7915 56.0563 60.9651 53.415 61.1478 50.6089H56.0531Z" fill="white"/>
<path d="M49.5367 45.7197C48.5762 45.8328 47.6853 46.2779 47.0179 46.9781C46.3504 47.6784 45.9483 48.5899 45.8809 49.5552H49.5367V45.7197ZM50.589 45.7245V49.5554H54.1499C54.0854 48.6051 53.6963 47.7059 53.048 47.0085C52.3997 46.311 51.5316 45.8577 50.589 45.7245ZM45.9393 50.608C46.1054 51.4758 46.5438 52.268 47.1908 52.8694C47.8377 53.4708 48.6595 53.8501 49.5367 53.9522V50.608H45.9393ZM50.589 50.608V53.9439C51.4459 53.8215 52.2431 53.4341 52.8692 52.836C53.4952 52.2378 53.9186 51.4588 54.0803 50.608H50.589Z" fill="white"/>
</svg>
