<svg width="100" height="100" viewBox="0 0 100 100" fill="none" xmlns="http://www.w3.org/2000/svg">
<path d="M59.9979 61.2486C59.2592 60.3508 59.1092 60.1824 58.5963 61.2486L55.3943 67.3696C55.1113 67.8747 55.0602 68.2889 55.4586 68.6941L58.622 71.5102C58.9056 71.7902 58.777 72.0057 58.6349 72.2303L56.3717 75.6123C55.9305 76.4796 56.1498 77.8804 56.3202 79.0457C56.3911 79.3782 56.7087 80.1377 56.8793 80.4467C57.2127 81.163 57.819 80.869 57.3766 80.2157C57.2501 80.0184 57.2933 79.6273 57.1432 79.11C56.7799 77.4573 57.662 77.742 58.4548 78.3256C60.1836 79.5577 60.8536 81.0499 60.6281 82.762C60.5695 84.0405 61.409 83.7593 61.3867 82.7877C61.3786 82.0594 61.6981 81.5312 61.5025 80.7817C61.0825 79.3562 62.2221 79.9218 62.6341 80.6917C63.1752 81.6944 63.0663 82.2097 63.1613 82.8778C63.2379 83.8404 63.7908 83.4072 63.7528 82.9421C64.0191 80.2533 63.2265 79.3869 62.4798 78.4414L61.3996 77.1297C60.3402 76.107 60.8677 75.9668 61.6954 75.0465L64.2158 72.0118C64.6244 71.4845 64.9088 71.1511 64.4472 69.98C63.1674 66.6069 62.3242 64.0085 59.9979 61.2486Z" fill="white"/>
<path d="M93.5449 57.5741C93.8006 52.8681 94.158 45.3906 88.1619 46.4809C86.9714 33.8236 81.9215 25.9906 75.832 19.457C90.089 30.5659 97.9011 42.9069 93.5449 57.5741Z" fill="white" fill-opacity="0.5"/>
<path d="M87.2353 44.2234C86.1449 40.6931 81.8888 40.2223 80.7285 43.3747C79.438 40.3639 77.7855 37.5176 75.4305 34.9905C74.0657 33.2124 74.281 32.4438 74.1961 31.5957L74.1704 20.0224C74.109 18.5534 74.643 19.1852 75.1477 19.7138C82.7616 27.9397 85.7943 36.094 87.2353 44.2234Z" fill="white" fill-opacity="0.5"/>
<path d="M80.1419 43.6258C80.2624 43.8913 80.277 44.1075 79.8873 44.135C75.47 43.6298 71.767 48.0629 70.7945 54.7736C69.5975 51.0449 68.7566 47.3876 66.9391 43.5348C66.5283 42.691 66.5619 42.1603 67.0301 41.6072C69.3936 39.6506 71.0912 37.5165 72.7404 35.3695C73.5011 34.4304 74.5709 35.1045 74.7771 35.3513C77.0359 37.9624 78.6505 40.7748 80.1419 43.6258Z" fill="white" fill-opacity="0.5"/>
<path d="M70.0555 55.2053C70.2627 55.8157 70.1127 56.1455 69.3611 56.0026C65.1375 54.5339 62.8877 56.9991 60.8098 58.0344C60.0956 58.481 59.8204 58.1745 60.154 57.6357C62.7125 53.4057 63.5375 48.6881 65.1819 44.2107C65.2961 43.8728 65.5792 43.5252 65.9663 44.2107C67.7868 47.7612 69.3263 51.382 70.0555 55.2053Z" fill="white" fill-opacity="0.5"/>
<path d="M93.1613 65.1343C92.999 65.6676 93.2497 65.4725 93.4886 65.2979C97.3611 57.0813 98.3667 49.4161 97.1979 42.169C93.2558 25.4707 76.0803 14.7091 73.8299 14.7964C73.3603 14.7719 72.8458 14.4014 72.266 14.76L71.6476 15.1601C71.5063 15.3105 71.4023 15.5836 71.4294 16.2876C71.2686 21.5502 70.9494 26.797 69.8291 31.9636L68.7379 33.0548C68.0302 33.7659 68.0763 34.0522 68.0469 34.5824C67.8689 37.9618 67.1417 38.7173 66.5557 40.1472L71.9022 34.255C72.9343 33.2631 72.8669 32.184 72.8843 31.0543L72.9207 17.597C72.881 16.6211 73.1603 16.6785 73.8299 17.0514C84.3389 22.525 94.8313 35.3996 95.9366 45.7322C96.6414 51.7565 95.6741 58.2353 93.1613 65.1343Z" fill="white"/>
<path d="M6.83891 65.0298C7.00113 65.5631 6.75052 65.368 6.51157 65.1934C2.63912 56.9769 1.63347 49.3116 2.80232 42.0645C6.74437 25.3662 23.9198 14.6046 26.1703 14.6919C26.6399 14.6674 27.1544 14.2969 27.7342 14.6555L28.3525 15.0556C28.4939 15.206 28.5979 15.4791 28.5708 16.1831C28.7316 21.4457 29.0508 26.6925 30.1711 31.8591L31.2622 32.9503C31.97 33.6614 31.9239 33.9477 31.9533 34.4779C32.1313 37.8573 32.8585 38.6128 33.4445 40.0427L28.0979 34.1505C27.0659 33.1586 27.1333 32.0795 27.1159 30.9499L27.0795 17.4925C27.1192 16.5166 26.8399 16.574 26.1703 16.9469C15.6613 22.4205 5.16892 35.2951 4.06359 45.6277C3.35882 51.652 4.32607 58.1308 6.83891 65.0298Z" fill="white"/>
<path d="M6.52993 57.5741C6.2742 52.8681 5.91678 45.3906 11.9129 46.4809C13.1033 33.8236 18.1532 25.9906 24.2427 19.457C9.98575 30.5659 2.1737 42.9069 6.52993 57.5741Z" fill="white" fill-opacity="0.5"/>
<path d="M12.8389 44.2234C13.9293 40.6931 18.1853 40.2223 19.3456 43.3747C20.6362 40.3639 22.2887 37.5176 24.6436 34.9905C26.0084 33.2124 25.7931 32.4438 25.8781 31.5957L25.9038 20.0224C25.9651 18.5534 25.4312 19.1852 24.9265 19.7138C17.3126 27.9397 14.2799 36.094 12.8389 44.2234Z" fill="white" fill-opacity="0.5"/>
<path d="M19.9326 43.6258C19.8121 43.8913 19.7974 44.1075 20.1872 44.135C24.6045 43.6298 28.3074 48.0629 29.28 54.7736C30.477 51.0449 31.3178 47.3876 33.1353 43.5348C33.5462 42.691 33.5125 42.1603 33.0444 41.6072C30.6808 39.6506 28.9833 37.5165 27.3341 35.3695C26.5733 34.4304 25.5036 35.1045 25.2973 35.3513C23.0386 37.9624 21.4239 40.7748 19.9326 43.6258Z" fill="white" fill-opacity="0.5"/>
<path d="M30.019 55.2053C29.8118 55.8157 29.9618 56.1455 30.7134 56.0026C34.9371 54.5339 37.1868 56.9991 39.2647 58.0344C39.9789 58.481 40.2541 58.1745 39.9206 57.6357C37.362 53.4057 36.537 48.6881 34.8926 44.2107C34.7784 43.8728 34.4954 43.5252 34.1082 44.2107C32.2877 47.7612 30.7483 51.382 30.019 55.2053Z" fill="white" fill-opacity="0.5"/>
<path d="M63.2751 8.9971C63.0348 8.9996 62.7298 9.18769 62.4241 9.60638C59.8089 13.5163 56.2772 17.0027 54.7603 21.3083C51.7694 20.4081 48.6726 20.4253 45.4759 21.3083C43.681 16.9231 40.6921 13.413 37.9184 9.74556C37.0292 8.73672 36.1716 8.64925 36.5454 10.2186C37.2378 16.5301 35.7539 22.1113 38.973 24.8033C39.0214 26.1551 37.8794 32.059 36.9363 31.9141C36.4322 31.8327 36.4555 32.3929 36.8634 32.8232C38.2113 34.4307 39.9156 35.0713 41.5918 35.7875C43.8001 36.3755 45.6496 37.5405 47.0476 38.3701C49.0398 39.1499 51.0609 39.2353 53.1216 38.3701C54.8567 37.4064 56.6462 36.4152 58.5045 35.6057C60.1864 35.008 61.8837 34.4506 63.2325 32.9868C63.8971 32.0081 63.5722 31.6827 63.1056 31.8231C62.6431 32.0756 61.9597 28.5527 61.2322 24.84C64.7731 21.8698 63.2655 14.0898 63.736 9.91472C63.8128 9.33844 63.6045 8.9937 63.2751 8.9971ZM44.5713 29.5899C46.0778 29.5887 47.3253 30.9484 47.5477 31.9685C47.7497 32.4747 48.2104 33.6317 47.0021 33.578C45.7788 33.3618 44.41 35.0576 42.3736 32.6052C41.8795 32.0113 41.5642 31.3963 42.3736 30.65C43.0985 29.8995 43.8437 29.6006 44.5357 29.5902C44.5476 29.5901 44.5594 29.5899 44.5713 29.5899ZM55.8645 29.5902C55.8764 29.5903 55.8881 29.5904 55.9 29.5906C56.5921 29.601 57.3373 29.8998 58.0621 30.6504C58.8716 31.3966 58.5563 32.0117 58.0621 32.6056C56.0257 35.0579 54.6573 33.3622 53.434 33.5784C52.2258 33.6321 52.6865 32.475 52.8884 31.9689C53.1108 30.9488 54.358 29.5891 55.8645 29.5902ZM48.5057 34.3346C48.5122 34.3346 48.5188 34.3347 48.5253 34.335C48.6651 34.3398 48.8072 34.3997 48.9207 34.5326L49.5251 35.1375C50.2514 35.9033 49.2733 36.4976 48.7522 35.9104L48.1566 35.2966C47.7138 34.8099 48.0938 34.3355 48.5057 34.3346ZM51.8035 34.3894C52.2227 34.3749 52.622 34.8566 52.1721 35.3511L51.5766 35.9648C51.0555 36.552 50.0774 35.9577 50.8037 35.1919L51.4081 34.5874C51.5216 34.4544 51.6637 34.3942 51.8035 34.3894Z" fill="white"/>
<path d="M40.075 61.2486C40.8137 60.3508 40.9637 60.1824 41.4766 61.2486L44.6786 67.3696C44.9616 67.8747 45.0127 68.2889 44.6143 68.6941L41.4509 71.5102C41.1674 71.7902 41.2959 72.0057 41.438 72.2303L43.7012 75.6123C44.1424 76.4796 43.9231 77.8804 43.7527 79.0457C43.6818 79.3782 43.3642 80.1377 43.1936 80.4467C42.8602 81.163 42.2539 80.8691 42.6963 80.2157C42.8228 80.0184 42.7796 79.6274 42.9297 79.11C43.293 77.4573 42.4109 77.7421 41.6181 78.3256C39.8893 79.5578 39.2193 81.0499 39.4449 82.762C39.5034 84.0405 38.6639 83.7593 38.6862 82.7878C38.6943 82.0594 38.3748 81.5312 38.5704 80.7817C38.9904 79.3562 37.8508 79.9218 37.4388 80.6917C36.8977 81.6944 37.0066 82.2097 36.9116 82.8778C36.835 83.8404 36.2821 83.4072 36.3201 82.9421C36.0538 80.2533 36.8464 79.3869 37.5931 78.4414L38.6733 77.1297C39.7328 76.107 39.2052 75.9668 38.3775 75.0466L35.8571 72.0118C35.4485 71.4845 35.1641 71.1511 35.6257 69.98C36.9055 66.6069 37.7487 64.0085 40.075 61.2486Z" fill="white"/>
<path d="M47.3532 70.5334C49.6323 73.831 50.2261 74.0172 52.9598 70.8678C51.4072 80.5056 50.9066 86.2089 43.7012 89.923C36.8489 92.5205 31.7686 90.0069 28.702 86.92C26.7523 84.7068 26.1557 80.3038 26.3885 76.1964C26.4545 73.9487 26.6838 71.701 27.4986 69.4532C27.6639 68.9193 27.8807 68.7246 28.1672 68.9903C28.4699 69.3305 28.7512 69.1334 28.8359 68.8617C28.95 68.3481 29.2299 68.5637 29.4789 68.5274C29.9653 68.5931 30.2931 68.4099 30.4047 68.013C30.6875 67.2737 31.1677 66.7099 31.6649 66.1613C32.3773 65.4792 32.6305 65.9458 32.3079 66.6757C31.8433 67.2891 31.292 67.9176 31.5878 68.3988C31.7675 68.7945 31.5259 69.0732 31.2792 69.3504C30.9597 69.8352 30.1138 72.1671 30.6105 72.8223C29.6142 74.1676 28.2662 75.6133 27.8843 76.783C27.1548 82.3866 28.7782 86.6962 35.7799 88.0476C47.7594 89.1587 48.8888 78.0813 47.3532 70.5334Z" fill="white"/>
<path d="M39.6377 52.1699C41.992 54.9093 48.0846 58.8736 47.096 55.1533C50.3495 59.1768 50.576 57.7929 53.0627 55.1533C51.8433 58.8119 58.5614 54.0969 60.3667 52.4271C57.2234 57.9648 56.4379 63.2569 50.7209 69.5399C50.3206 69.9127 50.0733 70.0981 49.5572 69.5399C45.4769 65.7157 42.4362 58.226 39.6377 52.1699Z" fill="white"/>
<path d="M45.338 53.9731C44.7853 50.7285 46.5819 52.4409 47.9204 53.9731C49.8859 55.6695 50.0042 56.1799 52.1031 53.9731C53.4947 52.471 55.4574 50.4707 54.8309 53.9731C58.3245 52.117 61.205 49.6084 63.1963 46.1533C63.3912 45.6441 63.472 45.1349 63.2327 44.6257L64.7967 42.3706C64.8423 42.224 64.9792 42.1139 63.851 41.4977C63.3206 41.3122 63.2678 40.9796 63.9965 40.4066C64.8089 39.7503 65.6374 38.9012 66.688 35.3874C67.1731 33.799 66.0787 33.7902 64.5423 34.2233C60.5736 36.9713 57.8181 37.9683 53.2306 39.8974C50.891 41.1251 49.3929 40.9118 47.1202 39.8974C43.3883 38.3729 39.3884 37.1637 36.4271 34.7327C36.052 34.3528 33.2299 33.2632 33.3719 34.7327C33.9725 37.7073 34.8344 38.6536 35.8451 40.1884C36.8093 41.1977 37.0753 41.2716 36.0997 41.8251C34.8668 42.3343 35.7899 42.8435 36.027 43.3527C36.5915 43.9344 36.7648 44.6032 36.8999 45.2803C37.0084 45.865 36.9568 46.5136 37.5182 46.9171C38.9757 49.2737 41.3518 51.9427 45.338 53.9731Z" fill="white"/>
</svg>
