<svg width="100" height="100" viewBox="0 0 100 100" fill="none" xmlns="http://www.w3.org/2000/svg">
<path d="M50.2203 2.34375L47.1943 20.0141C33.1048 21.4884 21.994 32.8014 20.6296 47.0623L20.4923 47.033L2.34375 49.9156L20.4923 53.0956L20.6552 53.0658C22.1199 67.2196 33.1819 78.4032 47.1755 79.8776L50.2203 97.6562L52.9734 79.9216C67.1225 78.5939 78.3707 67.3352 79.8319 53.0382L97.6562 49.9152L79.86 47.0887C78.5004 32.684 67.2022 21.2949 52.9567 19.9688L50.2203 2.34375ZM52.2742 24.5389C64.5643 25.6125 74.3035 35.4836 75.3402 47.9171L64.1258 50.2971L75.3278 52.3349C75.0964 60.6295 69.5545 67.669 65.4273 70.3241C62.0404 67.8578 58.6017 65.4978 54.743 63.4292C53.8643 62.9187 53.9576 61.6835 54.5336 61.0009C59.6708 55.4702 59.9243 41.6734 49.7788 41.5702C42.882 41.8741 38.8915 50.4797 45.6889 61.0311C46.7119 62.5931 46.021 63.2234 45.2445 63.6989C41.451 65.7105 38.1664 68.1083 34.7979 70.4423C29.1066 66.0815 25.4985 59.494 24.8616 52.3008L35.8742 50.2975L24.8449 47.9568C25.8561 35.5631 35.5181 25.6924 47.7603 24.5466L49.8428 36.2597L52.2742 24.5389Z" fill="white"/>
<path d="M50.1723 31.1025C47.7267 31.1025 45.3051 31.5897 43.0457 32.5363C40.7863 33.4829 38.7334 34.8704 37.0041 36.6196C35.2749 38.3687 33.9031 40.4453 32.9673 42.7306C32.0314 45.016 31.5498 47.4655 31.5498 49.9391C31.5498 52.4128 32.0315 54.8622 32.9674 57.1475C33.9033 59.4328 35.275 61.5093 37.0043 63.2584C38.7335 65.0075 40.7864 66.395 43.0458 67.3415C45.3052 68.2881 47.7268 68.7753 50.1723 68.7753C55.1111 68.7752 59.8477 66.7907 63.34 63.2583C66.8323 59.7258 68.7943 54.9348 68.7943 49.9391C68.7943 47.4655 68.3127 45.0161 67.3769 42.7307C66.441 40.4454 65.0694 38.3689 63.3401 36.6197C61.6109 34.8706 59.558 33.4831 57.2987 32.5364C55.0393 31.5898 52.6178 31.1026 50.1723 31.1025ZM50.13 32.8487C54.6509 32.8487 58.9865 34.6653 62.1832 37.8988C65.38 41.1322 67.1759 45.5178 67.1759 50.0906C67.176 52.3548 66.7351 54.5969 65.8785 56.6889C65.0218 58.7808 63.7663 60.6816 62.1834 62.2827C60.6005 63.8838 58.7214 65.1538 56.6533 66.0203C54.5852 66.8869 52.3686 67.3329 50.13 67.3329C47.8915 67.3329 45.6749 66.8869 43.6068 66.0203C41.5387 65.1538 39.6595 63.8838 38.0767 62.2827C36.4938 60.6816 35.2382 58.7808 34.3816 56.6889C33.525 54.5969 33.0841 52.3548 33.0842 50.0906C33.0842 45.5178 34.8801 41.1322 38.0768 37.8988C41.2735 34.6653 45.6092 32.8487 50.13 32.8487Z" fill="white" fill-opacity="0.5"/>
</svg>
