<svg width="100" height="100" viewBox="0 0 100 100" fill="none" xmlns="http://www.w3.org/2000/svg">
<path d="M57.7908 22.6592L57.3544 22.9615C57.7837 24.9627 57.1809 26.0402 55.9106 26.5207L27.0319 37.2665L26.5955 36.0908C24.3759 35.8922 22.0495 35.8426 22.2634 38.2067C22.4719 39.2782 24.3319 39.1981 22.7671 39.7509L19.0066 41.0944L17.8982 43.3443L3.55951 48.6496C2.09258 49.221 2.21417 49.9742 2.58572 51.0341L5.1551 57.8849L7.69938 55.2425L6.02791 50.9503C5.71386 50.0684 6.16464 49.4093 7.11921 49.1031L12.5027 47.1322C13.2729 46.8351 14.1586 46.965 14.4058 47.6422L15.298 50.1214C15.562 50.9858 15.4287 51.8607 14.679 52.4928L14.7908 52.4489L20.7009 50.1653L20.7305 50.1322C20.2902 49.665 20.1712 49.1424 21.0209 48.6918L23.8236 47.1099C23.7 46.0245 24.6009 46.182 25.1334 46.0688C26.6565 41.1787 30.7518 41.0293 35.4759 42.039L59.116 33.0399C59.6379 31.0541 60.6253 29.3761 62.9444 28.5737L67.041 27.0962C67.7513 26.893 67.9286 26.9589 68.183 27.5327L68.4123 28.183L70.6857 27.3604L69.7792 25.4459L66.6559 26.722L64.977 26.6552L65.0443 24.8417L66.4882 24.0693L65.7158 23.2632L61.4846 25.0094C60.2056 25.6302 58.8071 25.7954 58.5633 24.9091L57.7908 22.6592Z" fill="white" fill-opacity="0.5"/>
<path d="M77.2456 35.1987L78.0536 30.5693L78.9271 34.3252L80.7177 32.5128L80.4338 35.3079L87.9675 32.884L80.9797 36.4216L83.4036 38.0375L81.1326 38.3651L83.2289 41.7716L78.8834 38.649C80.8655 37.8779 79.5803 34.1693 77.2456 35.1987Z" fill="white" fill-opacity="0.5"/>
<path d="M74.389 43.46L73.9526 43.7623C74.3818 45.7635 73.7791 46.8409 72.5087 47.3214L43.63 58.0673L43.1936 56.8916C40.974 56.693 38.6477 56.6434 38.8615 59.0074C39.0701 60.079 40.9301 59.9989 39.3652 60.5517L35.6047 61.8951L34.4963 64.145L20.1577 69.4504C18.6907 70.0218 18.8123 70.775 19.1839 71.8349L21.9039 79.0878C22.5598 80.5836 23.5307 80.6492 24.7248 79.8602L32.9184 73.2953C34.2821 72.4147 38.4345 72.8194 39.0965 74.924C37.5374 77.1475 44.477 79.392 43.2609 77.5436L44.2347 72.5064L45.9136 71.1966L49.2377 69.9204C50.433 69.5368 51.2033 69.7197 52.4614 69.6523C53.208 68.7527 54.5898 69.2542 53.5698 69.7864L53.8385 72.6741L55.2824 73.4128L61.9312 70.8612L62.0652 67.9392H61.5278C61.2934 68.2208 60.8756 68.1896 61.0914 67.5365C61.1577 67.3599 61.3123 67.2371 61.6625 67.2341L62.4685 62.8353C62.6725 62.2503 63.1073 61.7425 64.1138 61.4251L68.6803 59.7798C69.944 59.1702 69.6985 60.3578 72.0723 60.0485L74.0536 59.1752C76.1851 58.1207 76.7326 59.8434 77.109 61.19C77.9379 64.592 79.3312 66.5931 82.2466 65.2529L79.7286 58.4701C79.1875 57.1507 80.3218 56.8421 81.0714 56.5225L84.0938 55.4141L84.3961 52.6604L83.6237 50.9479L83.7577 49.4373L87.2838 48.1612L86.3773 46.2467L83.254 47.5228L81.5751 47.456L81.6425 45.6425L83.0863 44.8701L82.3139 44.064L78.0828 45.8102C76.8037 46.4309 75.4052 46.5963 75.1614 45.7099L74.389 43.46ZM50.3216 67.0675C50.2262 68.1051 49.722 68.9623 48.8492 69.4304L46.5463 70.3922C43.5519 70.865 43.602 67.2002 45.0385 66.6642L48.22 65.3698C49.7207 64.6458 50.5027 65.5559 50.3216 67.0675ZM31.0039 68.4429L31.8961 70.9222C32.1627 71.795 32.0252 72.679 31.2561 73.3124L26.7226 77.1403C25.6185 77.9998 25.2497 78.645 24.7248 77.1403L22.6261 71.7511C22.312 70.8691 22.7628 70.2101 23.7174 69.9039L29.1008 67.9329C29.871 67.6359 30.7568 67.7659 31.0039 68.4429ZM40.4565 69.9712L40.3059 70.9787C40.0428 72.2758 39.1163 72.3365 38.0389 71.5491L37.5437 71.1378C36.9441 70.6232 36.6428 70.0103 37.619 69.4926L38.7948 68.8126C39.7213 68.2622 40.5391 69.2639 40.4565 69.9712Z" fill="white"/>
<path d="M85.9976 45.567L86.8761 40.5332L87.8259 44.6173L89.7729 42.6465L89.4642 45.6858L97.6561 43.0501L90.0579 46.8967L92.6935 48.6538L90.2241 49.01L92.5035 52.7141L87.7784 49.3187C89.9337 48.4802 88.5362 44.4477 85.9976 45.567Z" fill="white"/>
<path d="M68.896 24.6735L69.7745 19.6396L70.7243 23.7237L72.6714 21.7529L72.3627 24.7922L80.5546 22.1566L72.9563 26.0032L75.5919 27.7603L73.1225 28.1164L75.402 31.8206L70.6768 28.4251C72.8321 27.5867 71.4347 23.5541 68.896 24.6735Z" fill="white" fill-opacity="0.5"/>
<path d="M65.9114 33.3145L65.475 33.6168C65.9043 35.618 65.3015 36.6954 64.0312 37.1759L35.1525 47.9218L34.7161 46.7461C32.4965 46.5475 30.1701 46.4979 30.384 48.8619C30.5925 49.9335 32.4525 49.8534 30.8877 50.4062L27.1272 51.7496L26.0188 53.9996L11.6801 59.3049C10.2132 59.8763 10.3348 60.6295 10.7063 61.6894L13.2757 68.5401L15.82 65.8977L14.1485 61.6056C13.8345 60.7236 14.2852 60.0646 15.2398 59.7584L20.6233 57.7874C21.3935 57.4904 22.2792 57.6202 22.5264 58.2974L23.4186 60.7767C23.6826 61.6411 23.5493 62.516 22.7996 63.1481L22.9114 63.1042L28.8215 60.8206L28.8511 60.7875C28.4108 60.3202 28.2918 59.7977 29.1415 59.3471L31.9442 57.7652C31.8206 56.6798 32.7215 56.8372 33.254 56.7241C34.7771 51.834 38.8724 51.6846 43.5965 52.6943L67.2366 43.6952C67.7585 41.7094 68.7459 40.0313 71.065 39.229L75.1615 37.7515C75.8719 37.5482 76.0492 37.6142 76.3036 38.1879L76.5329 38.8383L78.8063 38.0156L77.8998 36.1012L74.7765 37.3773L73.0976 37.3105L73.1649 35.497L74.6088 34.7246L73.8364 33.9185L69.6052 35.6647C68.3262 36.2854 66.9277 36.4507 66.6839 35.5644L65.9114 33.3145Z" fill="white" fill-opacity="0.5"/>
</svg>
