<svg width="100" height="100" viewBox="0 0 100 100" fill="none" xmlns="http://www.w3.org/2000/svg">
<path d="M49.0058 14.9775C29.7688 14.9775 14.1336 30.5112 14.1336 49.644C14.1336 53.821 14.8792 57.8257 16.2444 61.5352L19.0979 60.9942C17.7441 57.4694 17.001 53.6441 17.001 49.644C17.001 32.0702 31.3086 17.845 49.0058 17.845C52.6013 17.845 56.0575 18.4318 59.2817 19.515L61.9007 17.4314C57.9105 15.8489 53.5594 14.9775 49.0058 14.9775ZM81.1457 36.1872L79.0474 38.6431C80.3171 42.0705 81.0113 45.7762 81.0113 49.644C81.0113 67.2179 66.703 81.4424 49.0058 81.4424C46.0896 81.4424 43.2666 81.0541 40.5833 80.3302L40.6561 83.302C43.3323 83.9571 46.1281 84.3077 49.0058 84.3077C68.2428 84.3077 83.876 68.7768 83.876 49.644C83.876 44.8728 82.9035 40.3256 81.1457 36.1872Z" fill="white" fill-opacity="0.497024"/>
<path d="M49.157 5.21387C39.4811 5.21387 30.513 8.24502 23.179 13.3978L21.8051 11.6922C8.75752 21.0588 -0.996006 40.2457 3.42226 59.773L8.64501 58.9406C7.91581 55.8978 7.52798 52.7244 7.52798 49.4612C7.52798 26.7984 26.1354 8.43829 49.157 8.43829C51.6577 8.43829 54.106 8.65506 56.4842 9.07029L57.0861 5.90467C54.5118 5.45066 51.8623 5.21387 49.157 5.21387Z" fill="white"/>
<path d="M76.909 86.0202L78.4577 88.1336C92.7871 78.6505 101.667 56.1426 95.8501 37.6641L89.229 39.0791C97.59 72.9013 67.8052 95.0808 43.2849 90.0206L42.8066 94.1338C57.3536 96.4529 67.8236 92.3303 76.909 86.0202Z" fill="white"/>
<path d="M21.8647 59.625L24.1952 62.9169C22.1715 64.3166 19.5569 68.0531 21.7773 70.6659L28.7107 77.3953C32.2197 80.7408 35.2875 77.4665 38.3824 74.5987L41.2082 77.2788L37.1297 76.9292L36.9549 89.5141L31.5073 82.7265L26.2636 94.0587L25.2731 81.969L6.39577 92.4564L19.5633 74.5987L5.66748 74.5404L18.1941 69.0928L8.66804 64.7813L20.2916 63.82L21.8647 59.625Z" fill="white" fill-opacity="0.497024"/>
<path d="M25.8075 62.6836C29.8598 66.2524 33.6881 69.923 37.1371 73.766C35.022 75.2019 31.9769 77.6157 30.0921 76.1349L23.4592 69.7285C21.9355 67.9396 24.5768 65.03 25.8075 62.6836Z" fill="white"/>
<path d="M26.9047 29.416L23.4087 34.7177L36.9258 42.3501L39.4314 40.4275L41.354 42.0008C36.6089 47.1653 32.5892 52.5109 28.7692 57.9066L29.9632 58.6933L35.0032 56.6538L40.5379 61.1115L39.3439 66.122L42.7524 70.0547C48.2792 65.6035 53.8544 61.2209 59.0074 56.2465L60.4352 57.7317L59.736 60.6453L69.0292 71.8604L73.2825 66.3551L66.7567 51.0316L64.3385 51.3521C62.1317 42.4983 56.6016 36.93 47.5586 34.8346L46.7138 33.2318L26.9047 29.416ZM48.7239 38.3299C52.6618 39.4861 58.0997 45.1561 58.134 47.0989L46.5395 51.4102L44.092 49.0509L48.7239 38.3299Z" fill="white"/>
<path d="M62.0664 34.4844C67.9669 26.4024 76.0468 20.8756 84.1482 15.374L85.3426 17.5006L79.5163 33.7853C76.6727 37.9071 73.2753 41.5675 69.9902 45.3214C68.318 40.8243 65.5226 37.3527 62.0664 34.4844Z" fill="white"/>
<path d="M59.5612 32.4741L53.123 29.2987L61.8334 21.5788C66.5781 17.691 73.8315 15.183 79.9533 12.0527L81.8178 12.9558C72.628 18.238 65.4171 24.9435 59.5612 32.4741Z" fill="white"/>
<path d="M82.9292 10.711C84.6213 11.4604 85.6209 12.7869 86.3281 14.357C88.4044 10.5146 87.673 7.98311 82.9292 10.711Z" fill="white"/>
</svg>
