<svg width="72" height="96" viewBox="0 0 72 96" fill="none" xmlns="http://www.w3.org/2000/svg">
<path d="M62.105 30.9317L62.1592 33.6988C61.319 34.6009 60.8809 35.6859 60.5677 36.8276L59.356 35.8871L59.6453 29.0869L62.105 30.9317Z" fill="white" fill-opacity="0.501961"/>
<path d="M56.199 26.7132L51.3701 23.2227L51.3882 30.1314L53.6851 31.8495C54.128 29.6189 54.9845 27.9311 56.199 26.7132Z" fill="white" fill-opacity="0.501961"/>
<path d="M49.6547 46.7149L49.092 49.0425C46.411 48.1712 44.4289 68.4376 42.1862 78.1747L42.1606 45.2571C42.2223 44.7619 42.4832 44.3598 43.0135 44.3264L46.8953 23.5677C48.0807 17.6146 49.5159 17.5506 49.4018 24.156L48.3247 45.2571C49.011 45.5562 49.4109 46.0755 49.6547 46.7149Z" fill="white" fill-opacity="0.501961"/>
<path d="M55.2051 51.6L57.3024 33.7472C57.8568 26.919 56.6992 27.5569 55.0268 33.1374L50.4478 50.5769C48.9812 51.4862 48.7799 53.0985 48.5039 54.6692L43.7466 78.4558C46.36 78.0693 48.8895 78.085 51.1639 79.3255L55.7422 55.9736C55.9043 54.6424 56.4478 53.3618 55.2051 51.6Z" fill="white"/>
<path d="M55.205 83.0086L52.8008 80.2463L57.1167 58.057C57.3636 56.3161 58.2937 54.1572 57.4047 52.265L62.2131 38.4023C64.1483 32.9652 65.9067 32.4996 64.5662 39.4254L61.19 55.0273C62.3581 56.3344 61.9267 57.9414 61.5993 59.5289L55.205 83.0086Z" fill="white" fill-opacity="0.501961"/>
<path d="M55.6909 89.8631L55.8699 85.3359L63.0571 60.4239C63.4563 58.9055 64.0433 57.3703 63.364 55.8968L68.4539 44.0546C71.1759 38.2504 72.5792 37.1906 70.9348 44.8986L66.9704 58.966C68.1027 60.1971 67.7573 61.473 67.3285 62.7514L58.8625 87.6123C58.7263 87.9687 58.7092 88.2053 58.1975 88.0215C57.0314 87.9509 57.1757 88.9432 57.9673 89.019C58.6587 89.1631 58.5513 90.277 57.7626 90.2211L55.6909 89.8631Z" fill="white"/>
<path d="M27.7168 80.6689C26.5665 80.6689 25.4274 80.861 24.3646 81.2344C23.3019 81.6077 22.3362 82.1549 21.5228 82.8448C20.7094 83.5347 20.0641 84.3537 19.6239 85.2551C19.1836 86.1565 18.9571 87.1226 18.957 88.0982C18.9571 89.0739 19.1836 90.04 19.6239 90.9414C20.0641 91.8428 20.7094 92.6618 21.5228 93.3517C22.3362 94.0415 23.3019 94.5888 24.3646 94.9621C25.4274 95.3354 26.5665 95.5276 27.7168 95.5275C29.5521 95.5265 31.3406 95.0365 32.8299 94.1268C34.3192 93.2171 35.434 91.9337 36.0169 90.4576C36.5762 91.9646 37.6874 93.2811 39.189 94.216C40.6907 95.1508 42.5046 95.6553 44.3673 95.6561C45.5177 95.6562 46.6569 95.464 47.7197 95.0906C48.7825 94.7172 49.7482 94.1699 50.5617 93.48C51.3751 92.79 52.0203 91.9709 52.4605 91.0694C52.9007 90.1679 53.1272 89.2017 53.1271 88.226C53.127 87.2503 52.9005 86.2842 52.4602 85.3828C52.02 84.4815 51.3747 83.6625 50.5613 82.9726C49.7479 82.2827 48.7822 81.7355 47.7195 81.3621C46.6567 80.9888 45.5176 80.7967 44.3673 80.7967C42.5329 80.7977 40.7452 81.2872 39.2564 82.196C37.7675 83.1049 36.6526 84.3873 36.069 85.8622C35.5085 84.356 34.3966 83.0404 32.8947 82.1066C31.3928 81.1727 29.579 80.6691 27.7168 80.6689ZM27.437 83.5541C29.4775 83.5617 31.9559 84.4906 34.1363 87.8427C31.9747 92.3416 27.7864 92.901 25.287 92.4468C20.9016 90.9788 21.3222 85.2775 25.287 83.8783C25.9072 83.6891 26.6385 83.5511 27.437 83.5541ZM44.436 83.5541C45.2344 83.5511 45.9658 83.6891 46.5859 83.8783C50.5507 85.2775 50.9713 90.9788 46.5859 92.4468C44.0865 92.901 39.8982 92.3416 37.7366 87.8427C39.917 84.4906 42.3954 83.5617 44.436 83.5541Z" fill="white" fill-opacity="0.501961"/>
<path d="M35.8599 81.941C34.8767 80.4698 33.3708 79.3253 31.2304 78.5774L31.23 43.1295C31.2842 41.6448 31.5741 39.9239 33.1832 38.7522L35.2088 12.5643C35.7131 8.90652 36.8921 8.91784 37.3068 12.5643L39.1153 38.7522C40.5308 39.9349 40.5006 41.5514 40.5984 43.1295L40.7069 78.5774C38.5485 79.1106 36.8617 80.1548 35.8599 81.941Z" fill="white"/>
<path d="M9.99761 31.3916L9.94336 34.1587C10.7836 35.0609 11.2217 36.1458 11.5349 37.2876L12.7466 36.3471L12.4573 29.5469L9.99761 31.3916Z" fill="white" fill-opacity="0.501961"/>
<path d="M16.3638 26.8157L21.1926 23.3252L21.1746 30.2339L18.8777 31.9521C18.4348 29.7215 17.5783 28.0337 16.3638 26.8157Z" fill="white" fill-opacity="0.501961"/>
<path d="M26.6001 19.2385L32.6588 14.9521C31.9969 17.5314 31.8883 19.9804 32.0439 22.3673L28.4087 25.0801C27.8695 23.1046 27.5351 21.0381 26.6001 19.2385Z" fill="white" fill-opacity="0.501961"/>
<path d="M39.8208 14.8066C40.1173 17.2476 40.512 19.6804 40.2549 22.1675L44.4869 25.2602C44.8471 23.2251 45.231 21.1961 45.9699 19.2557L39.8208 14.8066Z" fill="white" fill-opacity="0.501961"/>
<path d="M22.499 46.8688L23.0617 49.1963C25.7427 48.3251 27.5714 68.0799 29.8141 77.817L29.8396 43.0578L25.9008 23.21C24.6344 18.3931 23.5129 18.7053 23.3942 23.7983L23.829 45.4109C23.1428 45.71 22.7428 46.2293 22.499 46.8688Z" fill="white" fill-opacity="0.501961"/>
<path d="M16.7952 51.2416L14.6978 33.3888C14.1434 26.5606 15.3011 27.1985 16.9735 32.779L21.5525 50.2185C23.0191 51.1278 23.2204 52.7401 23.4964 54.3108L28.2537 78.0975C25.6403 77.7109 23.1107 77.7266 20.8363 78.9671L16.2581 55.6152C16.096 54.284 15.5525 53.0034 16.7952 51.2416Z" fill="white"/>
<path d="M16.7952 82.6502L19.1995 79.8879L14.8836 57.6986C14.6367 55.9577 13.7066 53.7988 14.5956 51.9066L9.78713 38.0439C7.85195 32.6068 6.09361 32.1412 7.43405 39.067L10.8102 54.6689C9.64216 55.976 10.0735 57.583 10.401 59.1705L16.7952 82.6502Z" fill="white" fill-opacity="0.501961"/>
<path d="M16.3092 89.5056L16.1302 84.9785L8.94304 60.0665C8.54384 58.548 7.95682 57.0129 8.63612 55.5393L3.54629 43.6972C0.824255 37.8929 -0.579061 36.8332 1.06531 44.5412L5.02975 58.6086C3.89744 59.8397 4.24288 61.1156 4.67168 62.394L13.1377 87.2549C13.2738 87.6112 13.291 87.8479 13.8027 87.6641C14.9687 87.5935 14.8244 88.5857 14.0329 88.6616C13.3415 88.8057 13.4489 89.9196 14.2375 89.8637L16.3092 89.5056Z" fill="white"/>
<path d="M9.94043 19.3731V26.4323L36.2335 7.1984L62.4757 26.4835V19.2196L36.2335 0.34375L9.94043 19.3731Z" fill="white" fill-opacity="0.501961"/>
</svg>
