<svg width="100" height="100" viewBox="0 0 100 100" fill="none" xmlns="http://www.w3.org/2000/svg">
<path d="M26.8105 49.1836V52.4711L33.1979 52.4539V49.2008L26.8105 49.1836Z" fill="white"/>
<path d="M6.78711 49.1211L3.75481 50.7751H3.56445L3.65944 50.827L3.56445 50.8789H3.75481L6.78711 52.533H19.1895V49.1211H6.78711Z" fill="white"/>
<path d="M72.9371 49.1836V50.7446V50.9101V52.4711L66.5498 52.4539V50.9101V50.7446V49.2008L72.9371 49.1836Z" fill="white"/>
<path d="M92.9609 49.1211L95.9932 50.7751H96.1836L96.0886 50.827L96.1836 50.8789H95.9932L92.9609 52.533H80.5586V49.1211H92.9609Z" fill="white"/>
<path d="M23.2561 5.17871L16.6016 10.7155L20.2928 14.3807L23.2561 11.6773L34.7976 21.3992L48.3147 21.3212V27.7682L52.1618 27.767V21.3212L65.6789 21.3992L77.2204 11.6773L80.1837 14.3807L83.8749 10.7155L77.2204 5.17871H23.2561ZM28.325 9.28582H72.1515L62.4556 17.2401H38.0209L28.325 9.28582Z" fill="white" fill-opacity="0.501859"/>
<path d="M48.3147 69.1309V78.6781L34.7976 78.6001L23.2561 88.322L20.2928 85.6186L16.6016 89.2838L23.2561 94.8206H77.2204L83.8749 89.2838L80.1837 85.6186L77.2204 88.322L65.6789 78.6001L52.1618 78.6781V69.1317L48.3147 69.1309ZM38.0209 82.7592H62.4556L72.1515 90.7135H28.325L38.0209 82.7592Z" fill="white" fill-opacity="0.501859"/>
<path d="M2.34375 14.667L3.61747 18.5791L27.8832 42.6629H21.9045L13.0144 33.7728L9.16727 32.1612L10.519 36.0603L19.617 45.1584V56.6934L10.519 65.7914L9.16727 69.6905L13.0144 68.0789L21.9045 59.1888H27.8832L3.61747 83.2726L2.34375 87.1847L6.48985 85.5861L24.9978 66.9351V72.6539L18.0313 79.5944L16.5497 83.5195L20.6048 82.0119L28.637 74.2135V63.2699L32.4192 59.4877V55.6536H23.1522V46.1981H32.4192V42.364L28.637 38.5818V27.6382L20.6048 19.8399L16.5497 18.3322L18.0313 22.2573L24.9978 29.1978V34.9166L6.48985 16.2656L2.34375 14.667Z" fill="white"/>
<path d="M39.2557 38.4579L31.6523 30.874V36.0209L35.5645 39.6211L36.6628 38.4059L39.2557 38.4579Z" fill="white"/>
<path d="M45.4237 32.21C43.286 32.2244 42.2335 34.2337 42.2251 35.7391V42.0805L40.0014 42.0805L36.9316 45.1499V61.6559L40.1667 64.7439H60.2384L63.4735 61.6559V45.1499L60.4037 42.0805H58.18V35.7391C58.2236 34.3636 57.1712 32.2244 54.9815 32.21H45.4237ZM46.4163 34.967H53.9888C55.1293 34.9597 55.4544 35.6561 55.4595 36.1802L55.4226 42.0805H44.9826L44.9456 36.1802C44.9645 35.5274 45.3263 34.9734 46.4163 34.967ZM50.2026 48.0068C51.9846 48.0192 53.4231 49.4667 53.4242 51.2488C53.4234 52.7081 52.4482 53.9872 51.0413 54.3746L53.0778 59.4289H47.3274L49.3638 54.3746C47.9569 53.9872 46.9818 52.7081 46.9809 51.2488C46.9821 49.4667 48.4205 48.0192 50.2026 48.0068Z" fill="white"/>
<path d="M32.9247 64.7803L35.3693 67.2249L31.6748 71.14L31.6932 65.8831L32.9247 64.7803Z" fill="white"/>
<path d="M97.6565 14.667L96.3828 18.5791L72.1171 42.6629H78.0958L86.9858 33.7728L90.833 32.1612L89.4813 36.0603L80.3833 45.1584V56.6934L89.4813 65.7914L90.833 69.6906L86.9858 68.0789L78.0958 59.1888H72.1171L96.3828 83.2726L97.6565 87.1848L93.5104 85.5861L75.0024 66.9352V72.6539L81.9689 79.5944L83.4506 83.5196L79.3955 82.0119L71.3632 74.2136V63.2699L67.5811 59.4877V55.6536H76.848V46.1981H67.5811V42.364L71.3632 38.5818V27.6382L79.3955 19.8399L83.4506 18.3322L81.9689 22.2573L75.0024 29.1978V34.9166L93.5104 16.2656L97.6565 14.667Z" fill="white"/>
<path d="M60.7441 38.4579L68.3476 30.874V36.0209L64.4353 39.6211L63.3371 38.4059L60.7441 38.4579Z" fill="white"/>
<path d="M67.0755 64.7803L64.6309 67.2249L68.3254 71.14L68.307 65.8831L67.0755 64.7803Z" fill="white"/>
</svg>
