<svg width="100" height="100" viewBox="0 0 100 100" fill="none" xmlns="http://www.w3.org/2000/svg">
<path d="M50.002 18.3428L43.2835 91.9521L41.2594 91.5611L40.2688 45.3501L32.8522 89.6849L31.373 89.2944L29.376 58.7712L24.7582 86.0186L23.4347 85.5502L21.1142 68.2631L18.1446 80.796L16.8177 78.7951L16.8775 73.2345L14.763 67.507L12.6382 73.2031L12.5801 76.589L10.5689 78.4867L8.31376 76.2548L4.18588 74.6823L5.5313 78.6476L7.92364 81.2924L4.53514 84.5652L3.81641 88.0053L7.12017 87.3476L13.0817 81.3887C13.533 82.4557 14.1975 83.5492 14.9406 84.5192L10.0364 89.3873L7.49911 94.3401L12.5113 92.1973L17.4706 87.2466C18.27 88.0364 19.1062 88.8265 20.1111 89.6165L20.0518 94.4614L22.1413 97.6564L24.5113 94.7406L24.6236 91.9327C32.7105 96.0923 41.2916 96.9787 49.9999 97.0207C58.7082 96.9787 67.2889 96.0923 75.3758 91.9327L75.4885 94.7406L77.8584 97.6564L79.948 94.4614L79.8886 89.6165C80.8936 88.8265 81.7298 88.0364 82.5291 87.2466L87.4884 92.1973L92.5002 94.3401L89.9634 89.3873L85.0591 84.5192C85.8023 83.5492 86.4668 82.4557 86.9181 81.3887L92.8796 87.3476L96.1834 88.0053L95.4646 84.5652L92.0757 81.2924L94.4685 78.6476L95.8139 74.6823L91.686 76.2548L89.4309 78.4867L87.4196 76.589L87.3616 73.2031L85.2368 67.507L83.1223 73.2345L83.1821 78.7951L81.8551 80.796L78.8856 68.2631L76.5651 85.5502L75.2416 86.0186L70.6238 58.7712L68.6263 89.2944L67.1475 89.6849L59.731 45.3501L58.7404 91.5611L56.7162 91.9521L50.002 18.3428Z" fill="white"/>
<path d="M42.4365 2.34375L45.6949 15.5051L43.6368 53.4212L40.7803 26.0897L42.4365 2.34375Z" fill="white" fill-opacity="0.501859"/>
<path d="M34.4757 22.7363L37.1063 41.503L33.5021 66.8823L31.5693 51.4642L34.4757 22.7363Z" fill="white" fill-opacity="0.501859"/>
<path d="M24.6502 40.4014L27.1298 53.7956L24.7018 69.8326L22.2188 60.3315L24.6502 40.4014Z" fill="white" fill-opacity="0.501859"/>
<path d="M57.5631 2.34375L54.3047 15.5051L56.3628 53.4212L59.2193 26.0897L57.5631 2.34375Z" fill="white" fill-opacity="0.501859"/>
<path d="M65.5231 22.7363L62.8926 41.503L66.4967 66.8823L68.4295 51.4642L65.5231 22.7363Z" fill="white" fill-opacity="0.501859"/>
<path d="M75.3497 40.4014L72.8701 53.7956L75.2981 69.8326L77.7811 60.3315L75.3497 40.4014Z" fill="white" fill-opacity="0.501859"/>
</svg>
