<svg width="100" height="100" viewBox="0 0 100 100" fill="none" xmlns="http://www.w3.org/2000/svg">
<path d="M50.0851 8.10547V8.25577C47.0519 46.3505 44.5282 72.6359 16.6221 84.668H27.5439C36.559 77.4181 46.2482 69.6673 50.0912 35.3104C53.9342 69.6673 63.6239 77.4181 72.639 84.668H83.5608C55.6548 72.6359 53.1305 46.3505 50.0973 8.25577V8.10547C50.0953 8.13102 50.0932 8.15508 50.0912 8.18062C50.0892 8.15508 50.0871 8.13102 50.0851 8.10547Z" fill="white"/>
<path d="M34.1797 51.3184C35.2187 53.3539 36.3965 55.334 36.8164 57.6172C37.1186 60.4363 36.9044 62.9685 36.0352 65.1367C31.8884 70.984 28.3634 74.2202 24.8535 77.3926C22.6661 79.2679 20.3834 80.4767 18.0664 81.4453C20.5486 78.6867 23.3217 76.2188 24.9512 72.6074C25.8585 70.1168 25.0522 67.4548 24.7559 64.8437C25.8007 66.5203 27.2076 67.2918 27.5391 70.752C30.8695 68.0561 29.4371 63.0863 29.248 58.6914C31.2557 61.33 31.6444 62.626 32.0801 66.1133C33.1582 64.6888 34.2262 63.2441 34.668 60.5469C35.4145 56.5614 34.4938 54.2432 34.1797 51.3184Z" fill="white" fill-opacity="0.501859"/>
<path d="M50.0617 45.0195L50.0633 45.7737C49.3452 54.9894 47.7814 62.8817 44.4881 69.6094H47.99C49.1155 66.5653 49.8961 63.4875 50.0923 60.5469C50.2885 63.4875 51.0692 66.5653 52.1946 69.6094H55.6965C52.4064 62.8883 50.8404 55.0083 50.1213 45.8042L50.1228 45.0195C50.1132 45.1522 50.1014 45.2818 50.0915 45.414C50.0816 45.2824 50.0713 45.1516 50.0617 45.0195ZM43.6824 71.1681C43.0536 72.3216 42.3691 73.4396 41.624 74.5228H45.8843C46.4181 73.4193 46.9219 72.2981 47.3834 71.1681H43.6824ZM52.8011 71.1681C53.2626 72.2981 53.7664 73.4193 54.3003 74.5228H58.5605C57.8154 73.4396 57.1309 72.3216 56.5021 71.1681H52.8011ZM40.3324 76.2867C39.5814 77.2515 38.7767 78.1875 37.9142 79.0947H43.4627C43.9874 78.1803 44.5024 77.2423 44.9993 76.2867H40.3324ZM55.1853 76.2867C55.6821 77.2423 56.1972 78.1803 56.7218 79.0947H62.2703C61.4078 78.1875 60.6032 77.2515 59.8522 76.2867H55.1853ZM36.029 80.9471C35.3918 81.5327 34.7274 82.1055 34.0342 82.6658H41.2788C41.6419 82.0969 42.0059 81.5437 42.3683 80.9471H36.029ZM57.8163 80.9471C58.1786 81.5437 58.5426 82.0969 58.9057 82.6658H66.1506C65.4574 82.1055 64.7927 81.5327 64.1555 80.9471H57.8163Z" fill="white"/>
<path d="M50.0787 70.6172V70.6736C48.0932 74.9385 47.2801 78.1843 42.6689 84.7319H31.3789L28.7525 87.0673L12.0071 86.9834L10.1387 88.0622L12.1399 89.2176H29.8553L31.586 87.4869H44.9451L50.0916 77.7419L55.2387 87.4869H68.5978L70.3285 89.2176H88.0439L90.0451 88.0622L88.1767 86.9834L71.4313 87.0673L68.8049 84.7319H57.5149C52.9037 78.1843 52.0901 74.9385 50.1046 70.6736V70.6172C50.1002 70.6267 50.0961 70.6359 50.0916 70.6454C50.0872 70.6359 50.0831 70.6267 50.0787 70.6172Z" fill="white" fill-opacity="0.501859"/>
<path d="M50.0921 81.8076L46.2834 89.4702H33.5396L32.0244 90.776L33.5858 92.0955H66.5989L68.1603 90.776L66.6451 89.4702H53.9013L50.0921 81.8076Z" fill="white" fill-opacity="0.501859"/>
<path d="M66.0034 51.3184C64.9644 53.3539 63.7866 55.334 63.3667 57.6172C63.0644 60.4363 63.2787 62.9685 64.1479 65.1367C68.2947 70.984 71.8197 74.2202 75.3296 77.3926C77.517 79.2679 79.7997 80.4767 82.1167 81.4453C79.6344 78.6867 76.8614 76.2188 75.2319 72.6074C74.3246 70.1168 75.1309 67.4548 75.4272 64.8437C74.3824 66.5203 72.9755 67.2918 72.644 70.752C69.3136 68.0561 70.746 63.0863 70.935 58.6914C68.9274 61.33 68.5387 62.626 68.103 66.1133C67.0249 64.6888 65.9568 63.2441 65.5151 60.5469C64.7686 56.5614 65.6893 54.2432 66.0034 51.3184Z" fill="white" fill-opacity="0.501859"/>
</svg>
