<svg width="100" height="102" viewBox="0 0 100 102" fill="none" xmlns="http://www.w3.org/2000/svg">
<path d="M47.0258 13.8808C47.3091 14.1641 47.3091 14.1641 47.3467 14.6919C47.3295 20.0927 47.3295 20.0927 46.4593 20.9629C48.7964 20.9629 51.1335 20.9629 53.5414 20.9629C53.3544 20.589 53.1675 20.215 52.9748 19.8298C52.88 19.1855 52.88 19.1855 52.8476 18.4897C52.8354 18.239 52.8231 17.9883 52.8105 17.73C52.8005 17.4706 52.7904 17.2111 52.7801 16.9438C52.7668 16.6811 52.7534 16.4183 52.7397 16.1476C52.6759 14.7174 52.6759 14.7174 52.6916 14.1641C52.9748 13.8808 52.9748 13.8808 54.0018 13.7568C55.2655 13.7749 55.8632 14.2174 56.7549 15.0748C57.3669 15.7344 57.9501 16.4134 58.521 17.1087C59.0627 17.7203 59.7021 18.1898 60.3403 18.6966C60.3403 18.8836 60.3403 19.0706 60.3403 19.2632C60.5097 19.3392 60.6792 19.4151 60.8537 19.4934C61.5037 19.8462 61.8698 20.0967 62.3233 20.6796C62.4255 21.4056 62.4255 21.4056 62.4198 22.2844C62.4197 22.6133 62.4196 22.9422 62.4196 23.281C62.4152 23.636 62.4108 23.9911 62.4063 24.3568C62.4051 24.7203 62.4039 25.0838 62.4026 25.4583C62.3994 26.4238 62.391 27.3892 62.3816 28.3546C62.3729 29.3401 62.3691 30.3256 62.3648 31.3112C62.3557 33.2442 62.3407 35.1772 62.3233 37.1102C60.4536 37.1102 58.5839 37.1102 56.6576 37.1102C56.6576 39.2604 56.6576 41.4105 56.6576 43.6258C55.8162 43.6258 54.9748 43.6258 54.108 43.6258C53.8247 43.3425 53.8247 43.3425 53.797 42.4473C53.8003 42.0825 53.8036 41.7177 53.807 41.3418C53.8096 40.9763 53.8121 40.6107 53.8147 40.2341C53.818 39.9511 53.8213 39.6681 53.8247 39.3765C52.9833 39.3765 52.142 39.3765 51.2751 39.3765C51.2751 40.7788 51.2751 42.181 51.2751 43.6258C50.4338 43.6258 49.5924 43.6258 48.7256 43.6258C48.7256 42.2235 48.7256 40.8213 48.7256 39.3765C47.7907 39.3765 46.8559 39.3765 45.8927 39.3765C45.8927 40.7788 45.8927 42.181 45.8927 43.6258C45.0513 43.6258 44.21 43.6258 43.3431 43.6258C43.3431 41.4757 43.3431 39.3255 43.3431 37.1102C41.4734 37.1102 39.6037 37.1102 37.6774 37.1102C37.6131 35.0169 37.5613 32.9242 37.5306 30.8302C37.5159 29.8575 37.496 28.8855 37.4637 27.9132C37.4267 26.7924 37.4132 25.6719 37.4008 24.5505C37.3861 24.2057 37.3715 23.8609 37.3564 23.5057C37.3551 21.494 37.6495 20.4837 39.0757 19.0213C40.3834 17.8468 40.3834 17.8468 41.0768 17.8468C41.1528 17.6657 41.2287 17.4845 41.307 17.2979C41.6434 16.7136 41.6434 16.7136 42.4933 16.4303C42.6247 16.1587 42.6247 16.1587 42.7588 15.8815C43.1262 15.1684 43.4627 15.0227 44.193 14.7306C44.193 14.5437 44.193 14.3567 44.193 14.1641C45.1145 13.7033 46.0038 13.8483 47.0258 13.8808ZM41.608 24.9289C41.4327 25.1159 41.2574 25.3029 41.0768 25.4955C41.2028 25.6018 41.3288 25.708 41.4586 25.8175C42.762 26.9962 42.762 26.9962 42.8297 27.9211C42.396 28.8112 41.8092 29.3708 41.0768 30.0281C41.778 30.589 41.778 30.589 42.4933 31.1612C43.0715 30.7034 43.6379 30.2304 44.193 29.7448C44.193 29.5578 44.193 29.3708 44.193 29.1782C45.2143 29.7618 46.1203 30.4109 47.0258 31.1612C47.3998 30.6938 47.7737 30.2264 48.159 29.7448C48.033 29.6352 47.907 29.5257 47.7772 29.4128C47.6169 29.2653 47.4566 29.1178 47.2914 28.9658C47.0499 28.7488 47.0499 28.7488 46.8034 28.5275C46.4593 28.0451 46.4593 28.0451 46.5035 27.4785C46.8899 26.5628 47.5018 25.9536 48.159 25.2122C47.8111 24.746 47.8111 24.746 47.3091 24.3624C46.463 24.3896 46.1931 24.6285 45.5917 25.2299C45.4106 25.411 45.2295 25.5922 45.0428 25.7788C44.193 25.7788 44.193 25.7788 43.4671 25.0706C43.2392 24.8369 43.0113 24.6031 42.7765 24.3624C42.141 24.2976 42.141 24.2976 41.608 24.9289ZM52.6916 24.3624C52.2085 24.912 52.2085 24.912 51.8417 25.4955C52.0307 25.6598 52.0307 25.6598 52.2235 25.8275C52.4639 26.0488 52.4639 26.0488 52.7093 26.2745C52.9508 26.4914 52.9508 26.4914 53.1973 26.7127C53.5414 27.1952 53.5414 27.1952 53.4972 27.7618C53.1108 28.6775 52.4988 29.2867 51.8417 30.0281C52.5428 30.589 52.5428 30.589 53.2581 31.1612C53.3677 31.0352 53.4772 30.9092 53.5901 30.7794C53.7376 30.6191 53.8852 30.4588 54.0372 30.2937C54.2541 30.0521 54.2541 30.0521 54.4754 29.8056C54.9578 29.4615 54.9578 29.4615 55.5465 29.5135C56.091 29.7448 56.091 29.7448 56.6576 30.3468C56.8445 30.5221 57.0315 30.6973 57.2241 30.8779C57.8526 30.8393 57.8526 30.8393 58.3573 30.5946C58.4508 30.2207 58.5442 29.8468 58.6406 29.4615C58.4594 29.4031 58.2783 29.3446 58.0917 29.2844C57.5074 28.8949 57.5074 28.8949 57.2772 28.0628C57.2241 27.1952 57.2241 27.1952 57.5074 26.3454C57.8804 26.1472 58.2582 25.958 58.6406 25.7788C58.734 25.5918 58.8275 25.4048 58.9238 25.2122C58.5759 24.746 58.5759 24.746 58.074 24.3624C57.2189 24.3899 56.9637 24.6213 56.3743 25.2476C56.1873 25.4229 56.0003 25.5982 55.8077 25.7788C55.2234 25.7257 55.2234 25.7257 54.6746 25.4955C54.3941 25.402 54.1137 25.3085 53.8247 25.2122C53.7312 24.9318 53.6377 24.6513 53.5414 24.3624C53.261 24.3624 52.9805 24.3624 52.6916 24.3624Z" fill="white"/>
<path d="M0.849526 35.1279C2.25168 35.2516 2.92927 35.9208 3.96567 36.8276C4.43284 37.1191 4.90541 37.4019 5.3821 37.6775C6.84564 38.5242 8.25861 39.3905 9.61368 40.4041C11.2576 41.623 12.9792 42.7014 14.7132 43.7868C17.0327 45.2389 19.3114 46.7395 21.5471 48.3184C22.5164 49.0023 23.5001 49.6516 24.5039 50.2837C24.7613 50.4484 25.0188 50.6131 25.284 50.7828C25.8008 51.1099 26.3225 51.4295 26.8488 51.7411C28.1675 52.568 28.9457 53.0989 29.3906 54.6215C30.0806 56.7735 32.1751 57.7826 33.994 58.9239C34.4163 59.1956 34.4163 59.1956 34.8472 59.4728C35.357 59.7987 35.8686 60.1219 36.382 60.4422C37.1016 60.9015 37.7964 61.3848 38.4911 61.8807C39.8787 62.8664 41.3217 63.7466 42.7814 64.6195C43.5916 65.1346 44.336 65.6381 45.0421 66.2894C45.0421 66.5698 45.0421 66.8503 45.0421 67.1392C42.2376 67.2795 42.2376 67.2795 39.3764 67.4225C39.1894 67.8899 39.0025 68.3574 38.8098 68.839C38.4923 69.1658 38.1729 69.4912 37.8394 69.8017C36.8442 70.8141 36.0011 71.9714 35.1271 73.0882C33.6876 72.9882 32.9977 72.2149 32.0641 71.2115C31.7611 70.8967 31.4575 70.5824 31.1534 70.2687C31.0077 70.1177 30.8621 69.9667 30.712 69.8111C30.2349 69.3282 29.7337 68.8853 29.2135 68.4494C28.1021 67.5054 27.0869 66.4751 26.062 65.4395C24.4612 63.8238 22.837 62.2835 21.0514 60.8715C20.0468 60.0571 19.1798 59.1769 18.3778 58.1626C17.8564 57.4533 17.8564 57.4533 16.9968 56.9409C16.9968 56.754 16.9968 56.567 16.9968 56.3744C16.7923 56.3101 16.5878 56.2458 16.3771 56.1796C15.2388 55.6484 14.4163 54.9108 13.863 53.7717C13.5131 53.0953 13.1431 53.0214 12.4642 52.6917C11.9855 52.2262 11.5146 51.7526 11.0478 51.2752C10.6726 50.9419 10.2947 50.6116 9.91468 50.2837C8.44024 49.0022 7.14651 47.6289 5.88117 46.144C5.35903 45.5478 5.35903 45.5478 4.49683 44.9898C3.15039 43.9184 2.7985 42.076 2.26596 40.5104C2.13298 40.1525 1.9987 39.795 1.86316 39.4381C0.760434 36.4923 0.760434 36.4923 0.849526 35.1279Z" fill="white"/>
<path d="M99.1505 35.1279C98.8031 37.0941 98.3157 38.9605 97.6633 40.8468C97.5466 41.208 97.5466 41.208 97.4276 41.5766C96.8601 43.2243 96.1229 44.3724 94.9012 45.6095C94.6792 45.8432 94.4572 46.0769 94.2284 46.3177C93.4285 47.0795 92.6016 47.8019 91.7652 48.5231C91.289 48.9463 90.8443 49.3813 90.4041 49.8411C89.8021 50.4254 89.8021 50.4254 89.2355 50.4254C89.1713 50.5831 89.107 50.7409 89.0408 50.9034C88.2827 52.2391 87.0223 53.1836 85.8892 54.1966C84.3573 55.5667 82.9142 57.0099 81.4806 58.4813C80.5826 59.3579 79.6496 60.1901 78.7152 61.0276C76.3572 63.1475 74.0527 65.3043 71.8234 67.5597C70.8502 68.5402 69.8524 69.4696 68.7936 70.3583C67.9827 71.0796 67.2597 71.8848 66.5328 72.6899C66.0061 73.0882 66.0061 73.0882 65.4495 73.0894C64.6593 72.6996 64.2248 72.1798 63.6513 71.5125C63.4303 71.2583 63.2094 71.0041 62.9818 70.7423C62.7645 70.4881 62.5472 70.234 62.3234 69.9721C61.9461 69.5409 61.5684 69.11 61.1902 68.6796C61.0325 68.4981 60.8747 68.3166 60.7122 68.1296C60.1044 67.3963 60.1044 67.3963 58.9759 67.3329C58.5278 67.3083 58.0797 67.2851 57.6314 67.2632C57.2888 67.2448 57.2888 67.2448 56.9393 67.2261C56.3733 67.196 55.8073 67.1675 55.2412 67.1392C55.2412 66.7653 55.2412 66.3914 55.2412 66.0061C55.7314 65.5413 55.7314 65.5413 56.4275 65.0854C56.6889 64.9123 56.9504 64.7392 57.2198 64.5609C58.0607 64.0315 58.9069 63.5122 59.7561 62.9962C61.3843 62.0061 62.964 60.9561 64.5365 59.88C64.7598 59.7275 64.9831 59.575 65.2131 59.4179C66.4871 58.5414 67.7292 57.6374 68.9459 56.6827C69.4055 56.3744 69.4055 56.3744 69.9721 56.3744C70.048 56.1816 70.124 55.9888 70.2022 55.7901C70.3133 55.5155 70.4243 55.2409 70.5387 54.9579C70.6263 54.6424 70.7139 54.3269 70.8042 54.0019C71.3584 52.7261 72.4222 52.2301 73.5829 51.5486C74.8033 50.8116 75.9425 49.9795 77.0939 49.1403C78.0025 48.4817 78.9223 47.881 79.8871 47.3092C80.5644 46.8675 81.2347 46.4152 81.9055 45.9636C83.1883 45.1034 84.4755 44.2543 85.783 43.4317C86.7463 42.824 87.6869 42.1963 88.6158 41.5373C89.8988 40.6284 91.2142 39.7756 92.5394 38.9302C94.1922 37.8748 95.8227 36.7878 97.4508 35.6945C98.3007 35.1279 98.3007 35.1279 99.1505 35.1279Z" fill="white"/>
<path d="M83.2859 5.94922C82.8569 7.15884 82.2335 8.19311 81.533 9.26012C81.4199 9.43415 81.3068 9.60818 81.1903 9.78748C80.2218 11.2697 79.2173 12.7248 78.1867 14.1645C78.0425 14.3672 77.8982 14.5699 77.7496 14.7787C77.424 15.2356 77.0973 15.6917 76.7703 16.1475C77.2498 17.375 78.1577 18.2067 79.0543 19.1397C80.4405 20.6022 81.7399 22.0887 82.9749 23.6823C84.859 25.84 86.2686 26.0706 89.0932 26.3812C89.8291 26.4719 90.565 26.5627 91.3009 26.6534C91.6669 26.6964 92.033 26.7394 92.4101 26.7837C93.9808 26.9719 95.547 27.1897 97.1138 27.4081C97.6231 27.4777 98.1325 27.547 98.642 27.6162C98.9965 27.6644 99.3511 27.7126 99.7165 27.7622C99.8099 28.0427 99.9034 28.3231 99.9997 28.6121C98.1006 29.0138 96.2052 29.3334 94.2809 29.5859C94.0173 29.6219 93.7538 29.6579 93.4822 29.695C92.0235 29.8924 90.5643 30.0721 89.101 30.2321C88.8036 30.2663 88.5062 30.3005 88.1999 30.3357C87.6235 30.4014 87.0466 30.4629 86.4693 30.5198C86.0789 30.5653 86.0789 30.5653 85.6805 30.6117C85.4502 30.636 85.2199 30.6602 84.9825 30.6852C84.3693 30.8285 84.3693 30.8285 84.0823 31.4276C84.0065 31.6203 83.9306 31.813 83.8524 32.0115C83.5808 32.3747 83.2972 32.7291 83.0026 33.0738C82.8565 33.2477 82.7104 33.4215 82.56 33.6006C82.1527 33.9945 82.1527 33.9945 81.5862 33.9945C81.5109 34.1599 81.4357 34.3254 81.3582 34.4958C81.0092 35.147 80.6281 35.6245 80.1343 36.1723C79.8741 36.4631 79.8741 36.4631 79.6087 36.7599C79.3255 37.0737 79.3255 37.0737 79.0366 37.394C78.6173 37.8659 78.1983 38.338 77.7795 38.8104C77.4432 39.1882 77.1068 39.5659 76.7703 39.9435C77.3897 41.2964 78.2813 42.4714 79.1273 43.6893C79.6032 44.4761 79.6032 44.4761 79.6032 45.326C79.0196 45.9311 78.681 46.17 77.8326 46.1935C76.6751 45.7463 75.6931 45.0401 74.7873 44.1928C74.7873 44.0058 74.7873 43.8189 74.7873 43.6262C73.9906 43.2126 73.3991 42.9628 72.5157 43.2374C71.8509 43.5599 71.2132 43.9116 70.5734 44.2813C70.3377 44.4116 70.102 44.5419 69.8591 44.6761C69.138 45.0762 68.4215 45.4838 67.7051 45.8925C67.2886 46.1258 66.8718 46.3585 66.4547 46.5908C65.6982 47.0132 64.9431 47.438 64.1895 47.8656C62.0023 49.1066 59.8279 50.3007 57.5069 51.275C57.2236 50.9917 57.2236 50.9917 57.1914 50.4654C57.1929 50.2414 57.1944 50.0174 57.1959 49.7866C57.1968 49.5447 57.1977 49.3028 57.1987 49.0535C57.201 48.7992 57.2034 48.5448 57.2059 48.2828C57.2071 48.0273 57.2084 47.7719 57.2097 47.5087C57.2131 46.8755 57.2178 46.2424 57.2236 45.6092C57.4291 45.5245 57.6347 45.4397 57.8464 45.3523C60.2408 44.3602 62.6152 43.3274 64.9845 42.277C66.3913 41.6538 67.7982 41.0338 69.2178 40.4404C71.4668 39.4931 73.3815 38.6417 75.0706 36.8274C75.5828 36.3067 76.0962 35.7874 76.6109 35.2693C76.7432 35.1348 76.8754 35.0002 77.0116 34.8616C78.0074 33.8585 79.0594 32.9934 80.1896 32.1487C80.9097 31.5948 81.5286 30.9706 82.1527 30.3118C82.4157 30.0723 82.6786 29.8327 82.9495 29.5859C83.6953 28.9095 83.6953 28.9095 83.5692 27.7622C83.1062 27.1512 83.1062 27.1512 82.4891 26.5937C82.2886 26.4001 82.0882 26.2066 81.8816 26.0072C81.2824 25.4546 81.2824 25.4546 80.453 24.9294C80.453 24.7424 80.453 24.5554 80.453 24.3628C80.2909 24.2898 80.1287 24.2167 79.9617 24.1415C79.26 23.764 78.7153 23.3287 78.1159 22.8047C77.9158 22.6324 77.7157 22.46 77.5095 22.2824C77.0536 21.8132 77.0536 21.8132 77.0536 21.2467C76.7907 21.1415 76.7907 21.1415 76.5224 21.0342C75.8061 20.6128 75.7169 20.2731 75.3539 19.5469C74.9816 19.3475 74.6026 19.1607 74.2207 18.9804C73.9815 18.7646 73.7423 18.5487 73.4959 18.3264C72.4056 17.406 71.1959 16.9257 69.8829 16.3954C69.3568 16.1746 68.8308 15.9536 68.3049 15.7325C67.4082 15.3598 66.5106 14.9892 65.6118 14.6214C64.637 14.2208 63.6657 13.8124 62.6945 13.4032C62.3849 13.2788 62.0753 13.1544 61.7563 13.0262C59.6173 12.1177 59.6173 12.1177 59.0173 11.0849C58.9863 10.7924 58.9553 10.4999 58.9233 10.1985C58.8846 9.85744 58.8459 9.51636 58.806 9.16496C58.7863 8.81658 58.7665 8.46821 58.7462 8.10927C58.725 7.75652 58.7039 7.40376 58.682 7.04031C58.6682 6.77374 58.6543 6.50716 58.64 6.2325C59.8432 6.40572 60.7444 6.82706 61.8104 7.40327C61.9764 7.49249 62.1423 7.5817 62.3134 7.67362C62.6645 7.86279 63.0152 8.05284 63.3655 8.24372C63.8891 8.52907 64.414 8.81185 64.9392 9.09414C66.868 10.1346 68.7702 11.2094 70.6497 12.3374C72.1858 13.192 73.0339 13.3752 74.7873 13.0314C74.7873 12.8444 74.7873 12.6574 74.7873 12.4648C74.9743 12.4648 75.1612 12.4648 75.3539 12.4648C75.3539 12.2778 75.3539 12.0909 75.3539 11.8982C75.8861 11.4047 75.8861 11.4047 76.6464 10.8005C76.9268 10.5766 77.2073 10.3528 77.4962 10.1222C77.651 9.99959 77.8059 9.87703 77.9654 9.75076C78.5148 9.31293 79.0592 8.86924 79.6032 8.42465C79.9867 8.1129 80.3703 7.80121 80.754 7.48959C81.0323 7.26151 81.0323 7.26151 81.3162 7.02883C82.6549 5.94922 82.6549 5.94922 83.2859 5.94922Z" fill="white" fill-opacity="0.5"/>
<path d="M16.7139 5.94922C18.1219 6.38123 19.0362 7.22035 20.1133 8.1801C20.4554 8.48055 20.7977 8.78081 21.1402 9.08086C21.302 9.22391 21.4638 9.36697 21.6304 9.51436C22.0508 9.87604 22.4888 10.2169 22.9285 10.5548C23.1213 10.7177 23.3141 10.8806 23.5127 11.0484C23.5127 11.2353 23.5127 11.4223 23.5127 11.6149C23.6705 11.6851 23.8282 11.7552 23.9908 11.8274C24.6459 12.1815 24.6459 12.1815 25.3187 12.8012C26.0182 13.3979 26.0182 13.3979 26.8347 13.2637C27.8829 13.0011 28.7925 12.589 29.745 12.093C30.0781 11.9246 30.4111 11.7563 30.7542 11.5828C31.7245 11.0688 31.7245 11.0688 32.5834 10.4763C33.4693 9.88762 34.3659 9.42366 35.3222 8.95913C36.8737 8.20106 38.3865 7.39485 39.8847 6.5346C40.5099 6.2325 40.5099 6.2325 41.3597 6.2325C41.3406 11.0666 41.3406 11.0666 40.0982 12.311C39.2071 12.744 38.3465 13.0454 37.3937 13.3147C36.9372 13.4924 36.4826 13.675 36.0304 13.8635C35.6903 13.9944 35.6903 13.9944 35.3432 14.128C34.1679 14.6084 33.0254 15.1578 31.8801 15.7049C30.8752 16.1814 29.8743 16.5975 28.8243 16.962C25.8782 18.1307 23.6542 20.7657 21.4826 22.9893C20.3847 24.1112 19.2582 25.1725 18.0647 26.1925C17.3911 26.7795 16.7691 27.4043 16.1473 28.0455C17.1966 30.5242 19.8861 32.3456 21.9425 33.9646C22.9192 34.7733 23.7924 35.6488 24.626 36.6039C26.2362 38.3951 28.0232 39.3168 30.211 40.2299C30.9648 40.5465 31.7132 40.874 32.4617 41.2028C34.1028 41.923 35.7477 42.6341 37.3937 43.343C37.6103 43.4364 37.8269 43.5298 38.0501 43.6261C39.6195 44.303 41.1891 44.9744 42.7762 45.6092C42.7762 47.3854 42.7762 49.1617 42.7762 50.9917C42.5892 51.0852 42.4022 51.1786 42.2096 51.275C41.5806 51.0185 41.5806 51.0185 40.7943 50.6066C40.504 50.4554 40.2138 50.3042 39.9148 50.1485C39.6028 49.9827 39.2909 49.8169 38.9695 49.6461C38.6508 49.4788 38.3322 49.3116 38.0038 49.1393C35.818 47.9835 33.6772 46.7646 31.5507 45.5041C29.8715 44.5198 28.1797 43.7223 26.3456 43.0597C26.0962 43.2879 25.8468 43.5161 25.5898 43.7513C25.2576 44.0462 24.9253 44.3409 24.5928 44.6355C24.3471 44.862 24.3471 44.862 24.0965 45.093C22.8571 46.1783 22.8571 46.1783 21.8872 46.1659C21.2464 45.8925 21.2464 45.8925 20.3966 45.326C20.5454 44.0474 21.0341 43.3259 21.813 42.316C22.6707 41.21 22.6707 41.21 23.2294 39.9435C23.1037 39.8136 22.9779 39.6838 22.8484 39.5499C22.2768 38.9572 21.7085 38.3616 21.1402 37.7658C20.9423 37.5615 20.7444 37.3571 20.5404 37.1466C20.3506 36.9467 20.1607 36.7468 19.965 36.5408C19.79 36.3583 19.6149 36.1758 19.4345 35.9878C18.9355 35.3543 18.7048 34.7415 18.4136 33.9945C17.8677 33.6847 17.8677 33.6847 17.2804 33.428C16.8118 32.8684 16.3903 32.288 15.968 31.6928C14.9186 30.8616 13.7653 30.794 12.4646 30.5951C11.933 30.5012 11.4014 30.4067 10.87 30.3118C10.3098 30.2166 9.74952 30.1222 9.18909 30.0285C8.74694 29.9544 8.74694 29.9544 8.29586 29.8788C6.29967 29.5505 4.30398 29.2721 2.29167 29.0641C1.47937 28.9791 0.778893 28.8717 0 28.6121C0.0934844 28.3316 0.186969 28.0512 0.283286 27.7622C0.637458 27.7137 0.991631 27.6652 1.35654 27.6152C2.68184 27.4334 4.00698 27.2504 5.33208 27.0672C5.9035 26.9883 6.47496 26.9097 7.04646 26.8315C7.87218 26.7183 8.69774 26.6041 9.52328 26.4897C9.77511 26.4554 10.0269 26.4212 10.2864 26.3859C11.5313 26.2122 12.7723 26.0206 14.0093 25.7975C14.3484 25.7369 14.3484 25.7369 14.6944 25.6751C15.7177 25.3711 16.2643 24.7194 16.9086 23.9025C17.0389 23.7491 17.1693 23.5958 17.3035 23.4378C17.6788 22.9951 18.0464 22.546 18.4136 22.0965C18.7543 21.7056 19.0963 21.3158 19.4405 20.928C19.5902 20.753 19.7399 20.5781 19.8942 20.3979C20.2827 19.959 20.6855 19.5326 21.0937 19.1121C21.4498 18.7401 21.4498 18.7401 21.813 18.3607C22.035 18.1346 22.2571 17.9086 22.4858 17.6757C23.0189 17.034 23.0189 17.034 22.9196 16.2737C22.6627 15.5805 22.3829 15.0663 21.9547 14.4655C21.1738 13.3411 20.4243 12.2024 19.6884 11.0484C18.8138 9.67902 17.9222 8.32472 16.996 6.98941C16.7139 6.51579 16.7139 6.51579 16.7139 5.94922Z" fill="white" fill-opacity="0.5"/>
<path d="M38.8105 14.7313C38.5284 15.0243 38.5284 15.0243 38.2406 15.3233C36.7491 16.9106 35.5126 18.4249 34.5612 20.397C34.4571 20.5858 34.353 20.7746 34.2458 20.9691C32.3942 24.3828 32.2615 29.1122 33.1624 32.8439C33.3291 33.3278 33.5134 33.806 33.7113 34.278C33.8362 34.5873 33.9611 34.8966 34.0898 35.2153C35.1759 37.6339 36.5647 39.3427 38.4198 41.2052C39.0937 41.9267 39.0937 41.9267 39.0937 42.4933C36.5201 41.8725 34.1702 40.7519 31.776 39.6515C31.235 39.4099 30.6848 39.1888 30.1337 38.971C27.8847 38.059 26.4695 36.8375 24.8431 35.0936C24.2375 34.4466 23.6372 33.8596 22.9641 33.2865C22.7925 33.1383 22.6209 32.99 22.4441 32.8372C22.0817 32.5257 21.7189 32.2148 21.3549 31.9052C20.8366 31.4614 20.3245 31.0111 19.8126 30.5599C19.6434 30.4173 19.4741 30.2747 19.2998 30.1278C18.8288 29.7078 18.8288 29.7078 18.1306 28.8956C18.1101 28.025 18.2743 27.6628 18.7956 26.9768C18.956 26.827 19.1163 26.6773 19.2814 26.5231C19.4615 26.3529 19.6415 26.1827 19.827 26.0074C20.5531 25.356 21.2913 24.7196 22.0313 24.0841C23.0431 23.1698 23.9826 22.1844 24.9283 21.2026C26.8298 19.3466 28.7868 18.0867 31.2503 17.1038C31.6402 16.9434 31.6402 16.9434 32.0381 16.7797C32.5512 16.5688 33.0648 16.3591 33.5791 16.151C34.1844 15.9028 34.7831 15.645 35.38 15.3775C35.6766 15.2461 35.9731 15.1146 36.2786 14.9792C36.5273 14.8674 36.776 14.7557 37.0322 14.6405C37.7524 14.4256 38.1129 14.4768 38.8105 14.7313Z" fill="white" fill-opacity="0.5"/>
<path d="M61.1895 14.4473C63.2037 14.5715 64.877 15.4099 66.6959 16.2355C67.1607 16.4423 67.1607 16.4423 67.6348 16.6532C68.511 17.0452 69.3835 17.444 70.2547 17.8467C70.4799 17.9492 70.705 18.0516 70.937 18.1572C72.0853 18.6997 72.9348 19.2694 73.7958 20.2015C74.5719 21.0162 75.3468 21.7915 76.2037 22.5209C77.2816 23.4445 78.2704 24.441 79.2667 25.4512C80.0976 26.2702 80.9718 27.0169 81.8694 27.7617C81.7759 28.2291 81.6824 28.6965 81.5861 29.1781C81.3992 29.1781 81.2122 29.1781 81.0196 29.1781C80.9447 29.3483 80.8698 29.5185 80.7927 29.6938C80.435 30.3439 80.1208 30.6595 79.55 31.1257C78.3419 32.1477 77.1823 33.2147 76.0266 34.295C75.8473 34.462 75.6679 34.629 75.4831 34.8011C74.6517 35.5784 73.8418 36.3607 73.0621 37.1898C72.2179 37.9785 71.6404 38.2917 70.5557 38.6505C69.1185 39.1591 67.7502 39.7286 66.3772 40.3856C61.9442 42.4926 61.9442 42.4926 60.9062 42.4926C61.3407 41.4766 61.9555 40.7943 62.7122 39.9961C66.3571 36.0019 67.3803 31.4103 67.178 26.1573C66.947 22.2797 64.847 18.388 62.1279 15.6689C61.4728 15.0138 61.4728 15.0138 61.1895 14.4473Z" fill="white" fill-opacity="0.5"/>
<path d="M52.4508 74.6845C52.9657 74.9426 53.4151 75.2283 53.824 75.6373C53.8505 76.0807 53.8573 76.5254 53.8562 76.9697C53.8562 77.2532 53.8562 77.5368 53.8561 77.8289C53.8547 78.1373 53.8532 78.4457 53.8517 78.7634C53.8513 79.0774 53.8509 79.3913 53.8505 79.7149C53.8489 80.7223 53.8453 81.7297 53.8418 82.7371C53.8403 83.4182 53.839 84.0993 53.8379 84.7804C53.835 86.4541 53.8294 88.1278 53.824 89.8016C51.3 89.8016 48.7759 89.8016 46.1753 89.8016C46.1493 87.7997 46.1268 85.7985 46.1131 83.7966C46.1074 83.1154 46.0996 82.4342 46.0898 81.753C46.0761 80.7749 46.0697 79.7969 46.0647 78.8187C46.0588 78.5133 46.053 78.2078 46.0469 77.8931C46.0469 77.6096 46.0468 77.3261 46.0467 77.034C46.0442 76.7842 46.0417 76.5345 46.0391 76.2772C46.1753 75.6373 46.1753 75.6373 46.6968 75.1427C48.3231 74.198 50.6621 74.1553 52.4508 74.6845Z" fill="white"/>
<path d="M49.3147 46.7031C49.5408 46.7042 49.7668 46.7053 49.9997 46.7064C50.2257 46.7053 50.4518 46.7043 50.6847 46.7031C52.3718 46.706 52.3718 46.706 52.6909 47.0251C52.8004 48.1007 52.8139 49.1851 52.8503 50.2652C52.8621 50.606 52.8739 50.9469 52.8861 51.298C52.9884 54.6597 53.0053 58.0212 53.0096 61.3842C53.0103 61.6535 53.0111 61.9229 53.0118 62.2004C53.0135 62.9681 53.013 63.7359 53.0118 64.5037C53.0127 64.8541 53.0127 64.8541 53.0135 65.2117C53.0069 66.8225 53.0069 66.8225 52.6909 67.1384C52.2899 67.1629 51.8876 67.1688 51.4858 67.1661C51.2439 67.1652 51.002 67.1643 50.7527 67.1633C50.4984 67.161 50.244 67.1586 49.982 67.1561C49.7266 67.1549 49.4711 67.1536 49.2079 67.1523C48.5748 67.1489 47.9416 67.1443 47.3085 67.1384C47.3019 64.5209 47.2969 61.9033 47.2938 59.2858C47.2923 58.0705 47.2903 56.8551 47.2871 55.6398C47.284 54.468 47.2823 53.2961 47.2816 52.1242C47.2811 51.6761 47.2801 51.2281 47.2785 50.78C47.2765 50.1545 47.2762 49.5291 47.2763 48.9036C47.2757 48.547 47.2751 48.1903 47.2744 47.8228C47.3363 46.3735 48.0307 46.7053 49.3147 46.7031Z" fill="white"/>
<path d="M42.414 92.8896C43.29 92.8989 44.1661 92.9081 45.0421 92.9173C45.0421 94.0391 45.0421 95.1609 45.0421 96.3167C45.4161 96.5037 45.79 96.6907 46.1753 96.8833C46.4557 97.0703 46.7362 97.2573 47.0251 97.4499C48.0005 97.5793 48.9812 97.5548 49.9642 97.5561C50.2323 97.5631 50.5003 97.57 50.7765 97.5771C52.4016 97.589 52.4016 97.589 53.8351 96.8767C54.0184 96.6919 54.2017 96.5071 54.3906 96.3167C54.5775 96.3167 54.7645 96.3167 54.9572 96.3167C54.9572 95.1949 54.9572 94.0731 54.9572 92.9173C57.5853 92.8896 57.5853 92.8896 58.3566 92.9173C59.0541 93.6148 58.6924 95.4681 58.693 96.4053C58.6965 96.7053 58.6999 97.0053 58.7035 97.3143C58.704 97.6034 58.7046 97.8924 58.7052 98.1902C58.7063 98.4554 58.7075 98.7207 58.7087 98.9939C58.6319 99.7995 58.5795 100.213 58.0733 100.849C56.5009 101.494 54.9833 101.499 53.3017 101.491C52.9074 101.492 52.9074 101.492 52.5051 101.493C51.9518 101.493 51.3985 101.492 50.8452 101.49C50.0023 101.487 49.1595 101.49 48.3165 101.493C47.7769 101.493 47.2372 101.492 46.6976 101.491C46.4476 101.492 46.1976 101.493 45.94 101.495C44.5017 101.484 43.2657 101.398 41.926 100.849C41.2686 100.023 41.2896 99.2214 41.2941 98.1902C41.2947 97.9012 41.2952 97.6121 41.2958 97.3143C41.2993 97.0143 41.3027 96.7144 41.3063 96.4053C41.3065 96.102 41.3067 95.7987 41.3069 95.4863C41.3215 92.9288 41.3215 92.9288 42.414 92.8896Z" fill="white"/>
<path d="M58.64 73.0882C59.1062 73.0806 59.5724 73.0751 60.0387 73.0705C60.2983 73.0672 60.558 73.0639 60.8255 73.0605C61.4728 73.0882 61.4728 73.0882 61.7561 73.3715C61.8385 74.8091 61.8251 76.2518 61.8269 77.6916C61.8275 77.903 61.8281 78.1145 61.8286 78.3323C61.8312 82.223 61.5704 86.0122 60.623 89.8021C59.0337 89.8021 57.4445 89.8021 55.8071 89.8021C55.779 88.2143 55.7585 86.6266 55.7448 85.0386C55.7392 84.4986 55.7314 83.9587 55.7216 83.4188C55.7078 82.6417 55.7014 81.8649 55.6964 81.0877C55.6906 80.8472 55.6847 80.6066 55.6787 80.3588C55.6782 78.8756 55.8525 78.1497 56.9402 77.0542C57.2088 76.5843 57.4634 76.1061 57.7016 75.6201C57.8195 75.3831 57.9375 75.1461 58.059 74.9019C58.3243 74.2954 58.5042 73.7342 58.64 73.0882Z" fill="white"/>
<path d="M38.2437 73.0879C39.1785 73.0879 40.1134 73.0879 41.0765 73.0879C41.2065 73.3578 41.3365 73.6276 41.4705 73.9057C41.646 74.2646 41.8216 74.6235 41.9972 74.9824C42.0823 75.1597 42.1674 75.3369 42.2551 75.5196C42.3409 75.694 42.4267 75.8684 42.5151 76.048C42.5922 76.2067 42.6694 76.3655 42.7489 76.529C43.0606 77.103 43.0606 77.103 43.6532 77.6614C44.4172 78.807 44.3361 79.741 44.3033 81.0874C44.3017 81.3369 44.3001 81.5864 44.2985 81.8435C44.2922 82.6373 44.2779 83.4308 44.2635 84.2246C44.2578 84.764 44.2527 85.3035 44.248 85.8429C44.2355 87.1627 44.216 88.4822 44.1927 89.8018C42.6035 89.8018 41.0142 89.8018 39.3768 89.8018C39.2424 89.0597 39.1081 88.3177 38.9696 87.5532C38.9278 87.325 38.886 87.0968 38.843 86.8616C38.7314 86.2373 38.6273 85.6122 38.527 84.9859C38.4972 84.8013 38.4674 84.6167 38.4367 84.4265C38.1298 82.1673 38.2131 79.8775 38.226 77.6028C38.2274 77.164 38.2287 76.7252 38.2298 76.2865C38.2329 75.2203 38.2378 74.1541 38.2437 73.0879Z" fill="white"/>
<path d="M42.776 69.122C44.788 69.1148 46.8 69.1098 48.8121 69.1064C49.4971 69.105 50.1822 69.103 50.8673 69.1006C51.8496 69.0972 52.8319 69.0955 53.8142 69.0943C54.1225 69.0928 54.4309 69.0914 54.7486 69.0899C55.174 69.0898 55.174 69.0898 55.6079 69.0898C55.9844 69.0889 55.9844 69.0889 56.3685 69.0879C56.9403 69.122 56.9403 69.122 57.2236 69.4052C57.3368 71.5562 56.9597 73.3673 56.0904 75.3542C55.2406 75.071 55.2406 75.071 54.7448 74.3982C53.6638 73.1369 52.7365 72.8606 51.1307 72.7139C48.755 72.6431 46.9824 72.7436 45.1596 74.3284C44.8222 74.6556 44.5046 75.003 44.1924 75.3542C43.2745 73.6336 42.7645 72.319 42.7716 70.3514C42.7725 70.0063 42.7725 70.0063 42.7735 69.6542C42.7743 69.4785 42.7751 69.3029 42.776 69.122Z" fill="white"/>
<path d="M49.8579 0C50.0448 0 50.2318 0 50.4244 0C50.4345 0.156336 50.4445 0.312671 50.4548 0.473744C50.56 2.11464 50.6658 3.7555 50.772 5.39633C50.8114 6.00707 50.8507 6.61781 50.8898 7.22856C50.9464 8.11116 51.0035 8.99372 51.0607 9.87628C51.0779 10.1452 51.095 10.4142 51.1126 10.6913C51.2168 12.2885 51.3463 13.8811 51.5004 15.4742C51.6157 16.8322 51.5736 18.1852 51.5576 19.5467C50.5293 19.5467 49.5009 19.5467 48.4414 19.5467C48.4239 17.59 48.4844 15.658 48.6174 13.7062C48.6447 13.2904 48.6447 13.2904 48.6725 12.8663C48.7109 12.2839 48.7497 11.7017 48.789 11.1194C48.8484 10.2381 48.9065 9.35673 48.9643 8.47534C49.0698 6.87755 49.1791 5.28005 49.2913 3.68272C49.3053 3.48113 49.3193 3.27954 49.3337 3.07185C49.3685 2.57821 49.4056 2.08473 49.4429 1.59127C49.4619 1.33816 49.4809 1.08505 49.5005 0.824268C49.5746 0.283286 49.5746 0.283286 49.8579 0Z" fill="white"/>
<path d="M47.3086 91.501C49.0848 91.501 50.861 91.501 52.691 91.501C52.94 94.3504 52.94 94.3504 52.9743 95.1837C52.691 95.467 52.691 95.467 52.1648 95.4991C51.9408 95.4977 51.7168 95.4962 51.486 95.4946C51.244 95.4937 51.0021 95.4928 50.7528 95.4919C50.4985 95.4895 50.2442 95.4871 49.9821 95.4847C49.7267 95.4834 49.4712 95.4821 49.208 95.4808C48.5749 95.4775 47.9417 95.4724 47.3086 95.467C47.3086 94.1582 47.3086 92.8494 47.3086 91.501Z" fill="white"/>
</svg>
