<svg width="100" height="109" viewBox="0 0 100 109" fill="none" xmlns="http://www.w3.org/2000/svg">
<path d="M35.4671 2.1416C36.4302 2.56033 37.0109 3.02095 37.6844 3.82371C37.9233 4.10283 37.9233 4.10283 38.1671 4.3876C38.5255 4.89414 38.5255 4.89414 38.5255 5.50581C38.7005 5.57481 38.8756 5.6438 39.0559 5.71488C39.9453 6.23162 40.4157 6.85638 41.0486 7.66579C42.132 9.03614 43.2606 10.3206 44.4798 11.5712C45.1162 12.4723 45.2578 12.9559 45.2539 14.0693C44.8724 15.0802 44.3546 15.9991 43.8203 16.9365C43.5449 17.4357 43.2697 17.9351 42.9948 18.4346C42.8093 18.763 42.8093 18.763 42.62 19.0981C42.4799 19.3562 42.3399 19.6143 42.1955 19.8802C42.0933 20.059 41.9911 20.2378 41.8858 20.4221C41.0578 21.945 40.748 23.2543 40.6174 24.9731C40.5944 25.2205 40.5715 25.4679 40.5478 25.7228C40.4746 26.5211 40.4081 27.3198 40.3414 28.1187C40.2665 28.9508 40.1898 29.7827 40.113 30.6146C40.0623 31.1649 40.0122 31.7152 39.9626 32.2656C39.7676 34.4188 39.5243 36.5634 39.2518 38.7083C38.2468 46.8722 38.1138 54.8345 38.3964 63.0522C38.4966 66.0607 38.5481 69.0681 38.5816 72.078C38.5916 72.8737 38.6015 73.6693 38.6116 74.4649C38.6266 75.6605 38.6401 76.8559 38.6488 78.0516C38.6571 79.1766 38.6709 80.3014 38.6856 81.4264C38.6866 81.7668 38.6875 82.1072 38.6886 82.458C38.6962 82.9316 38.6962 82.9316 38.7039 83.4147C38.7064 83.6896 38.7089 83.9645 38.7114 84.2478C38.9303 85.6643 39.7443 86.6258 40.7619 87.5849C41.8113 88.6053 42.867 89.6438 43.7247 90.8345C43.7247 91.0363 43.7247 91.2382 43.7247 91.4461C43.9053 91.5238 44.0858 91.6015 44.2719 91.6815C45.2503 92.226 45.8219 92.9956 46.5322 93.8474C47.0731 94.5031 47.0731 94.5031 47.6457 95.066C48.5175 95.9622 48.9089 96.3785 48.9813 97.6585C48.6038 98.8307 48.1295 99.8568 47.5561 100.944C47.0045 102.007 46.5011 103.089 45.9994 104.177C45.2668 105.758 44.5167 107.327 43.7247 108.879C43.5229 108.879 43.321 108.879 43.113 108.879C43.2474 107.14 43.3968 105.403 43.5754 103.668C43.6169 103.264 43.6169 103.264 43.6592 102.853C43.7148 102.316 43.7712 101.779 43.8285 101.243C43.8676 100.865 43.8676 100.865 43.9075 100.48C43.943 100.145 43.943 100.145 43.9793 99.8036C43.9962 99.5688 44.0131 99.334 44.0306 99.0921C44.084 98.6502 44.084 98.6502 44.1386 98.1993C43.9908 96.9107 43.3289 96.3228 42.4249 95.4722C42.262 95.3119 42.0991 95.1515 41.9312 94.9864C41.4118 94.4772 40.8864 93.9748 40.3605 93.4723C40.0065 93.1275 39.6528 92.7822 39.2996 92.4365C38.4346 91.5917 37.5641 90.7528 36.6905 89.9169C35.9849 90.7842 35.591 91.5797 35.1923 92.6181C34.1687 94.7057 32.436 95.3534 30.3826 96.244C30.0325 96.4078 29.6824 96.5716 29.3217 96.7403C26.7415 97.9166 26.7415 97.9166 25.6803 97.5629C28.5102 94.9043 28.5102 94.9043 30.2105 93.9311C31.8602 92.8779 32.4116 91.4153 33.0204 89.6111C33.0962 89.3944 33.1719 89.1776 33.2499 88.9543C33.8611 87.0944 34.0633 85.4612 34.0275 83.5111C34.0262 83.2371 34.0249 82.9631 34.0236 82.6808C34.0185 81.8177 34.007 80.9549 33.9953 80.0919C33.9907 79.5017 33.9865 78.9116 33.9827 78.3214C33.9727 76.8853 33.9569 75.4494 33.9379 74.0134C33.7742 74.0995 33.6104 74.1857 33.4417 74.2745C33.2246 74.3863 33.0075 74.4982 32.7839 74.6134C32.5696 74.7248 32.3554 74.8362 32.1347 74.9509C31.2106 75.3614 30.3542 75.4243 29.3504 75.4661C29.0034 75.4835 28.6565 75.5008 28.299 75.5187C27.9111 75.5305 27.9111 75.5305 27.5153 75.5426C27.081 76.5466 26.8227 77.4434 26.6743 78.5245C26.1926 80.9803 25.0105 82.5839 22.9469 83.9722C22.6835 84.1433 22.4202 84.3144 22.1488 84.4907C21.1929 85.1696 20.5 85.9462 19.7631 86.8514C19.2577 87.4702 19.2577 87.4702 18.7046 88.0509C17.4155 89.4092 16.6481 90.7505 15.9365 92.4819C14.99 94.6504 14.99 94.6504 14.0585 95.1162C12.0251 95.3966 12.0251 95.3966 10.9392 94.6598C10.518 94.2846 10.1056 93.8993 9.70389 93.5034C9.13845 92.9164 9.13845 92.9164 8.24758 92.3636C7.84072 92.392 7.84072 92.392 7.42564 92.421C5.57405 92.3162 4.20453 91.1704 2.95277 89.8596C1.71657 88.3169 1.30945 86.5164 1.09863 84.5839C1.23415 83.6579 1.40853 83.4521 2.13083 82.8827C4.59925 82.3325 6.71753 83.5273 8.74457 84.7942C9.94801 85.4182 10.5816 85.548 11.9176 85.3294C15.7921 82.9388 18.0393 77.5855 19.2577 73.4017C19.3432 72.6933 19.3432 72.6933 19.3533 72.0446C19.447 70.6286 20.0378 69.4866 20.6722 68.2407C20.7697 68.0403 20.8672 67.8398 20.9677 67.6333C21.7654 66.1483 22.5359 65.7277 24.1511 65.1441C24.8448 64.6657 24.8448 64.6657 25.4509 64.131C27.8186 62.2217 30.6075 60.9719 33.3262 59.639C33.3842 58.7015 33.4265 57.7676 33.4601 56.8292C33.478 56.5648 33.4959 56.3005 33.5144 56.0281C33.5673 54.5668 33.5673 54.5668 32.9154 53.3101C31.6859 52.3548 30.5902 52.1726 29.0445 51.9931C28.918 51.6213 28.7915 51.2494 28.6612 50.8663C28.1908 49.484 27.7199 48.1018 27.2488 46.7197C27.0451 46.122 26.8416 45.5243 26.6383 44.9265C26.3456 44.0662 26.0524 43.2061 25.7592 42.3461C25.6687 42.0797 25.5782 41.8133 25.4849 41.5388C25.0691 40.3209 24.6469 39.113 24.1511 37.9246C22.8267 38.0657 21.5102 38.2127 20.1944 38.4216C19.2577 38.5363 19.2577 38.5363 18.6461 38.2304C18.4315 37.6378 18.218 37.0447 18.0117 36.4492C17.7233 35.7713 17.3883 35.3017 16.9257 34.7324C16.1076 33.6789 16.0284 32.7899 16.0261 31.4769C15.9824 31.2833 15.9386 31.0898 15.8935 30.8903C15.3153 30.5176 15.3153 30.5176 14.6702 30.2786C13.9966 29.6772 13.7697 29.2657 13.6965 28.3636C13.6954 27.6742 13.713 26.991 13.7527 26.3028C13.5863 26.2338 13.4199 26.1648 13.2485 26.0937C12.3041 25.565 11.5982 24.882 10.809 24.1428C9.76389 23.1174 9.76389 23.1174 8.55342 22.3269C8.55342 22.125 8.55342 21.9232 8.55342 21.7152C8.35157 21.7152 8.14971 21.7152 7.94174 21.7152C6.41256 20.0768 6.41256 20.0768 6.41256 18.9627C7.83772 19.1195 8.79705 19.7662 9.92969 20.5874C10.0996 20.7071 10.2695 20.8267 10.4446 20.95C11.2349 21.5107 11.9999 22.0885 12.7491 22.7032C13.4346 23.2966 13.4346 23.2966 14.3643 23.5502C14.4211 23.3799 14.4779 23.2096 14.5364 23.0341C15.7156 21.137 17.4799 20.616 19.5445 20.0904C19.7487 20.038 19.953 19.9856 20.1634 19.9315C22.3638 19.4167 24.3231 19.2793 26.3457 20.4118C27.9637 21.5308 28.6306 22.8919 29.0445 24.7736C29.2968 24.7988 29.5492 24.824 29.8091 24.85C31.1112 25.129 32.2348 25.5276 33.3262 26.3028C33.7775 27.2804 33.6841 27.6759 33.3454 28.6921C33.2381 28.9129 33.1309 29.1337 33.0204 29.3611C31.5781 29.6439 30.6738 29.7371 29.3504 29.0553C28.9178 29.9205 28.947 30.5459 29.0445 31.502C30.0794 32.5933 31.3724 32.7063 32.791 32.9356C33.1328 32.995 33.1328 32.995 33.4816 33.0557C34.0409 33.1525 34.601 33.2452 35.1613 33.337C35.1837 32.9639 35.1837 32.9639 35.2067 32.5832C35.3583 30.2594 35.5775 27.9585 35.8767 25.6493C36.2909 23.4414 36.2909 23.4414 35.6535 21.4273C35.4658 21.2637 35.2782 21.1001 35.0848 20.9315C34.4186 20.3378 33.9258 19.8613 33.4409 19.1036C32.3728 17.9968 31.2021 17.8218 29.7327 17.4908C29.3252 17.3918 29.3252 17.3918 28.9095 17.2907C28.242 17.1292 27.5736 16.9731 26.9037 16.8218C27.0046 16.519 27.1055 16.2162 27.2095 15.9043C28.4318 15.7848 29.6548 15.6894 30.8795 15.5984C31.3231 15.5511 31.3231 15.5511 31.7756 15.5029C33.4932 15.3861 34.4035 15.5679 35.773 16.6498C35.9874 16.8449 36.2019 17.0401 36.4229 17.2411C36.9979 17.805 36.9979 17.805 37.9138 18.0451C38.3342 17.2706 38.747 16.4935 39.1563 15.7131C39.3352 15.3861 39.3352 15.3861 39.5177 15.0525C40.0164 14.0904 40.352 13.3666 40.3952 12.2749C39.8643 10.781 39.0671 9.46426 38.2579 8.10543C35.4671 3.35251 35.4671 3.35251 35.4671 2.1416Z" fill="white" fill-opacity="0.47"/>
<path d="M57.4888 0C57.7916 0 58.0943 0 58.4063 0C58.662 1.3712 58.7787 2.70852 58.8436 4.10133C58.8661 4.53441 58.8888 4.96748 58.9117 5.40054C58.9464 6.07559 58.9799 6.75062 59.0101 7.42589C59.04 8.08289 59.0752 8.73945 59.1112 9.39614C59.1395 9.98163 59.1395 9.98163 59.1684 10.5789C59.3909 12.0716 60.0784 13.0227 61.0633 14.1259C61.7705 14.986 61.7705 14.986 61.7705 15.5977C61.9598 15.6734 62.149 15.7491 62.344 15.8271C63.1011 16.2725 63.2848 16.6309 63.6055 17.4327C63.8074 17.4327 64.0092 17.4327 64.2172 17.4327C64.624 17.8952 65.0094 18.3768 65.3832 18.8663C66.05 19.7266 66.6681 20.495 67.4667 21.2366C68.3654 22.2062 68.9014 23.2393 69.5108 24.4073C70.2024 25.7137 70.9477 26.9872 71.6981 28.2606C72.4748 29.5994 72.4748 29.5994 72.4748 30.2779C72.9408 30.0118 72.9408 30.0118 73.4162 29.7403C80.5008 25.7122 80.5008 25.7122 82.5675 25.3845C81.4394 28.1064 78.0956 30.036 75.839 31.8071C74.9914 32.4755 74.1782 33.1517 73.3923 33.8906C72.4748 34.5596 72.4748 34.5596 71.7055 34.5286C70.7429 34.1805 70.5779 33.8686 70.1046 32.9731C68.9461 30.8914 67.6627 28.9058 66.3581 26.9137C66.1748 26.631 65.9914 26.3483 65.8026 26.0571C63.5958 22.7649 60.5956 20.1657 57.4888 17.7386C57.4131 17.9909 57.3374 18.2432 57.2594 18.5032C56.9696 19.3147 56.6792 19.9572 56.2714 20.7014C55.6196 21.9961 55.3593 23.1904 55.1759 24.6199C55.14 24.8763 55.1041 25.1326 55.0672 25.3968C54.6765 28.3298 54.4263 31.2794 54.1641 34.2262C53.9339 36.7977 53.6575 39.3587 53.3218 41.9188C52.8773 45.3471 52.5762 48.7297 52.5811 52.1919C52.5813 52.4247 52.5815 52.6576 52.5817 52.8975C52.5921 56.6421 52.6642 60.3863 52.7292 64.1303C52.736 64.5294 52.7429 64.9285 52.75 65.3397C52.8294 69.9261 52.9109 74.5123 53.0541 79.0972C53.065 79.4562 53.0758 79.8153 53.0869 80.1852C53.118 81.0848 53.161 81.983 53.2071 82.8819C53.2116 83.1383 53.2162 83.3946 53.2209 83.6587C53.2823 84.9163 53.4242 85.6904 54.305 86.6201C54.6399 86.9169 54.9816 87.2063 55.3288 87.4886C55.5063 87.6423 55.6838 87.7959 55.8666 87.9542C56.4009 88.4128 56.9429 88.8599 57.4888 89.3045C57.956 89.6895 57.956 89.6895 58.4326 90.0823C59.131 90.6476 59.8344 91.2041 60.5472 91.7512C61.192 90.7839 61.5529 89.875 61.9617 88.7884C62.1663 88.2473 62.1663 88.2473 62.375 87.6953C62.4783 87.4189 62.5816 87.1426 62.688 86.8578C63.5654 87.2807 64.3886 87.7513 65.2112 88.2723C65.4272 88.4087 65.6433 88.5451 65.8659 88.6857C66.0283 88.789 66.1907 88.8923 66.3581 88.9987C66.165 91.1712 65.4473 93.1849 64.5231 95.1561C63.7216 96.9236 64.0309 98.1763 64.5231 100.009C64.6911 100.709 64.8567 101.41 65.02 102.111C65.0997 102.439 65.1793 102.766 65.2614 103.103C65.4406 103.985 65.4406 103.985 65.4406 105.208C65.1378 105.208 64.835 105.208 64.5231 105.208C64.4368 105.051 64.3506 104.894 64.2617 104.732C63.8654 104.011 63.4679 103.291 63.0703 102.57C62.8669 102.199 62.8669 102.199 62.6594 101.821C61.5736 99.8572 60.5542 98.0434 58.8459 96.5491C58.5755 96.3121 58.305 96.0752 58.0264 95.8311C56.9507 94.9184 55.8582 94.0279 54.7625 93.1394C53.6134 92.194 52.4808 91.2309 51.3529 90.2603C51.1524 90.0891 50.9518 89.9179 50.7452 89.7415C50.4635 89.498 50.4635 89.498 50.1762 89.2496C50.0086 89.1053 49.841 88.9611 49.6684 88.8125C48.4512 87.6279 48.5064 86.4714 48.4658 84.8816C48.4568 84.6168 48.4478 84.352 48.4384 84.0791C48.4091 83.1979 48.384 82.3166 48.3591 81.4352C48.3396 80.8154 48.3199 80.1956 48.3 79.5758C48.2586 78.2689 48.2193 76.9621 48.1814 75.6551C48.1336 74.0103 48.0821 72.3657 48.0292 70.7211C47.8415 64.8601 47.665 58.9989 47.6494 53.1345C47.6475 52.7573 47.6456 52.3801 47.6436 51.9915C47.6507 49.059 47.955 46.2055 48.3794 43.3071C48.6211 41.6499 48.7744 39.9943 48.9062 38.3253C49.1512 35.3691 49.4256 32.4162 49.7282 29.4653C49.7784 28.9695 49.8272 28.4736 49.8744 27.9775C50.263 23.9156 51.0745 20.2581 52.9012 16.5726C53.0022 16.363 53.1031 16.1535 53.2071 15.9376C54.025 14.2458 54.025 14.2458 54.4512 13.4869C55.3818 11.7914 55.6938 10.14 55.9787 8.2385C56.079 7.61639 56.1798 6.99436 56.281 6.37241C56.3293 6.06993 56.3777 5.76744 56.4275 5.45579C56.6273 4.24961 56.8609 3.05173 57.1065 1.85414C57.1806 1.49183 57.2547 1.12952 57.3311 0.756231C57.3831 0.506675 57.4352 0.257118 57.4888 0Z" fill="white"/>
<path d="M65.7892 31.935C66.9861 33.0159 67.8325 34.2383 68.7281 35.5728C68.9139 35.8441 69.0998 36.1154 69.2912 36.3949C69.8465 37.2079 70.3967 38.024 70.9454 38.8415C71.1806 39.1904 71.1806 39.1904 71.4206 39.5465C72.5111 41.1659 73.5965 42.7885 74.6441 44.4361C75.3312 45.4119 76.0704 45.8328 77.0621 46.4874C78.0065 47.2866 78.8364 48.0257 78.9653 49.3033C78.8959 50.0179 78.759 50.6831 78.5913 51.3808C78.5409 51.7719 78.4904 52.163 78.4384 52.5659C77.9124 53.6617 77.736 53.735 76.6416 54.1333C75.6536 54.4241 74.9755 54.5087 74.0038 54.1333C72.6881 52.4418 73.0049 50.3527 73.0863 48.3224C72.8907 48.2404 72.6952 48.1584 72.4937 48.0739C71.8629 47.7108 71.8629 47.7108 71.5571 46.7932C71.3426 46.7175 71.1281 46.6418 70.9072 46.5639C70.04 46.1868 69.7092 45.9111 69.0721 45.2449C68.1442 44.2782 67.1718 43.3953 66.1476 42.5306C65.8688 42.2945 65.5901 42.0583 65.3029 41.815C64.5107 41.1741 64.5107 41.1741 63.2995 41.2882C62.6898 41.75 62.6898 41.75 62.1526 42.3586C61.8711 42.6566 61.8711 42.6566 61.5839 42.9607C61.4436 43.1153 61.3032 43.2698 61.1586 43.429C61.6609 45.0281 62.6571 46.2491 63.6435 47.5769C64.0052 48.0712 64.3664 48.5658 64.7271 49.0607C64.9023 49.3009 65.0775 49.5411 65.258 49.7886C71.6042 58.5595 71.6042 58.5595 71.3671 62.3527C70.9071 64.9329 69.8363 67.3337 67.887 69.1194C66.7086 69.8511 65.4938 70.4169 64.217 70.9544C63.0864 71.4363 61.959 71.9225 60.8396 72.4298C60.6313 72.5235 60.4229 72.6171 60.2082 72.7136C59.7798 72.9063 59.3521 73.1006 58.9252 73.2966C57.8465 73.7779 57.1596 74.0128 55.9594 74.0128C55.6869 71.9226 55.6128 69.8865 55.6237 67.7801C55.6243 67.2972 55.6243 67.2972 55.625 66.8045C55.6267 65.7857 55.6305 64.7669 55.6344 63.7481C55.6359 63.0534 55.6373 62.3587 55.6386 61.664C55.6419 59.9693 55.6471 58.2747 55.6535 56.58C56.7723 56.1988 57.8528 55.8681 59.0177 55.6625C58.8041 55.6034 58.5904 55.5443 58.3702 55.4833C58.0919 55.4037 57.8136 55.324 57.5268 55.242C57.1116 55.1249 57.1116 55.1249 56.6881 55.0055C55.9594 54.745 55.9594 54.745 55.3477 54.1333C54.9434 50.3202 55.6823 46.3015 56.0876 42.4994C56.2193 41.2352 56.3061 39.9774 56.3584 38.7077C56.5778 34.93 56.5778 34.93 57.658 33.7226C59.9423 31.8556 62.9606 30.658 65.7892 31.935Z" fill="white"/>
<path d="M70.6396 67.8975C70.9423 67.9984 71.2451 68.0993 71.5571 68.2033C71.8297 68.9118 71.8297 68.9118 72.0481 69.8388C72.1279 70.169 72.2078 70.4992 72.29 70.8394C72.3698 71.1869 72.4497 71.5344 72.5319 71.8925C72.657 72.4155 72.657 72.4155 72.7846 72.9492C72.9907 73.8131 73.193 74.6778 73.3921 75.5434C76.1724 75.3537 78.9235 75.0222 81.6809 74.6283C82.1474 74.5626 82.6141 74.4989 83.0811 74.4372C83.7667 74.3466 84.4512 74.2498 85.1358 74.1516C85.3423 74.1254 85.5487 74.0992 85.7614 74.0723C87.2073 73.8546 88.1208 73.3316 89.2956 72.485C89.4975 72.485 89.6994 72.485 89.9073 72.485C89.9073 72.0813 89.9073 71.6776 89.9073 71.2617C90.2803 71.0895 90.657 70.9254 91.0351 70.7647C91.3491 70.6263 91.3491 70.6263 91.6695 70.4851C92.6367 70.2859 93.0473 70.4324 93.8832 70.9558C94.2577 71.6672 94.5253 72.2875 94.7816 73.0394C94.9356 73.457 95.0905 73.8744 95.2463 74.2914C95.3239 74.5015 95.4014 74.7116 95.4812 74.9281C95.8357 75.8484 96.2527 76.7356 96.674 77.6269C97.3294 79.0213 97.9307 80.4221 98.4875 81.8585C98.8778 82.8295 99.3228 83.7727 99.7754 84.7161C100 85.3302 100 85.3302 100 86.5535C96.931 86.6612 96.931 86.6612 95.4124 85.9419C94.1483 84.6194 93.0619 83.1808 92.0482 81.6601C91.2363 81.2124 91.2363 81.2124 90.2896 80.8382C89.9758 80.7046 89.662 80.5709 89.3387 80.4332C88.3328 80.1167 87.5902 80.0377 86.5431 80.131C86.0291 80.4031 85.5163 80.6794 85.0223 80.9863C82.8259 82.2898 80.3769 83.1495 77.9976 84.0519C76.4273 84.6576 74.9005 85.3139 73.422 86.1199C71.5671 87.1186 70.0186 87.9466 67.887 87.4711C66.2632 86.8911 65.29 85.947 64.5228 84.4127C64.3724 83.8354 64.2333 83.2552 64.1023 82.6732C63.4825 79.9549 62.0549 77.7097 60.4812 75.4383C60.2411 74.9317 60.2411 74.9317 60.5469 74.0142C61.2641 73.5926 61.2641 73.5926 62.2063 73.1648C62.5448 73.0077 62.8833 72.8506 63.232 72.6887C63.5886 72.5269 63.9452 72.365 64.3126 72.1983C65.0134 71.8794 65.7131 71.5581 66.4116 71.2342C66.7236 71.0927 67.0355 70.9512 67.357 70.8054C68.206 70.3369 68.7467 69.8121 69.4162 69.1208C69.6181 69.1208 69.8199 69.1208 70.0279 69.1208C70.2297 68.7171 70.4316 68.3134 70.6396 67.8975Z" fill="white"/>
<path d="M23.5391 42.2061C23.7409 42.2061 23.9428 42.2061 24.1507 42.2061C24.555 43.4348 24.9554 44.6649 25.355 45.8952C25.5262 46.4153 25.5262 46.4153 25.7008 46.9459C26.8998 50.6508 26.8998 50.6508 26.9033 51.9929C26.4194 52.7742 26.4194 52.7742 25.7373 53.4838C24.6479 54.7264 24.2024 55.5849 23.9488 57.2005C23.7968 58.0831 23.4945 58.6444 22.9274 59.333C21.5942 60.2117 20.5349 60.5005 18.9515 60.2505C18.4677 59.8284 17.9863 59.4031 17.5215 58.9602C15.0831 57.0914 11.6329 56.1548 8.78719 55.0895C8.0669 54.7965 7.43621 54.4812 6.77536 54.0764C5.96807 53.6173 5.48696 53.4123 4.61538 53.2162C1.58992 52.5012 1.58992 52.5012 0.601263 51.687C-0.0553268 50.0994 -0.19986 48.4455 0.295425 46.7936C0.842598 46.0966 1.37403 45.7687 2.13045 45.2644C2.97996 45.2387 3.35445 45.5707 4.08016 46.0099C4.87833 46.7891 5.13949 47.317 5.60935 48.3037C6.54774 49.9209 7.61035 50.4189 9.37617 50.9471C11.5934 51.5275 13.8624 51.7506 16.1413 51.9349C17.2845 52.0339 18.4233 52.1683 19.5632 52.2987C22.0339 48.9732 23.339 46.6955 23.2332 42.5119C23.3342 42.411 23.4351 42.31 23.5391 42.2061Z" fill="white" fill-opacity="0.47"/>
</svg>
