<svg width="100" height="120" viewBox="0 0 100 120" fill="none" xmlns="http://www.w3.org/2000/svg">
<path d="M35.6663 17C38.2551 17.1875 40.3721 18.0816 42.7406 19.0977C46.3065 20.5458 48.9033 19.4499 52.4372 18.3125C53.2132 18.0643 53.9897 17.8173 54.7666 17.5716C55.1075 17.462 55.4484 17.3524 55.7996 17.2395C56.6663 17 56.6663 17 57.6663 17C57.7065 18.9259 57.6104 20.7599 57.333 22.6667C57.5757 22.7587 57.8184 22.8508 58.0685 22.9456C58.9482 23.3119 59.7411 23.7258 60.5648 24.2031C60.8567 24.3714 61.1487 24.5396 61.4495 24.713C61.7548 24.8902 62.0601 25.0674 62.3747 25.25C63.0043 25.6127 63.6341 25.9751 64.264 26.3372C64.5645 26.5101 64.865 26.683 65.1746 26.8612C67.3057 28.0807 69.4581 29.259 71.6663 30.3333C71.8434 30.1649 72.0204 29.9965 72.2028 29.8229C72.4383 29.6064 72.6737 29.3898 72.9163 29.1667C73.1484 28.9501 73.3804 28.7335 73.6195 28.5104C74.333 28 74.333 28 75.6663 28C79.1654 36.2636 79.1654 36.2636 79.333 38.6667C73.1029 43.3333 73.1029 43.3333 71.6663 43.3333C71.7269 43.5718 71.7875 43.8103 71.8499 44.056C72.4881 46.5857 73.0878 49.1227 73.6663 51.6667C73.8648 51.6851 74.0633 51.7036 74.2677 51.7226C75.1646 51.8067 76.0613 51.8929 76.958 51.9792C77.2704 52.0082 77.5828 52.0372 77.9046 52.0671C78.2033 52.0961 78.5019 52.1251 78.8096 52.1549C79.0854 52.1811 79.3612 52.2073 79.6453 52.2343C80.333 52.3333 80.333 52.3333 80.9997 52.6667C80.9527 53.5348 80.9038 54.4028 80.8538 55.2708C80.8407 55.5168 80.8276 55.7628 80.8141 56.0163C80.7517 57.0769 80.6706 57.9872 80.333 59C78.9032 58.8213 77.8749 58.2707 76.6546 57.5482C75.9967 57.2552 75.9967 57.2552 75.3543 57.5874C74.6424 58.0143 74.2075 58.4247 73.6702 59.0534C73.4907 59.2617 73.3112 59.4701 73.1263 59.6847C72.9401 59.9056 72.754 60.1266 72.5622 60.3542C72.3704 60.5785 72.1787 60.8029 71.9811 61.034C70.7449 62.4884 69.5421 63.9645 68.3903 65.487C67.9997 66 67.9997 66 67.6663 66.3333C67.553 67.6616 67.5331 68.9911 67.513 70.3237C67.4999 70.9882 67.4726 71.6524 67.445 72.3164C67.4082 74.9122 67.6167 76.4812 69.3995 78.4259C69.5976 78.6154 69.7956 78.8048 69.9997 79C70.1722 79.1692 70.3447 79.3385 70.5224 79.5129C70.673 79.6599 70.8236 79.8069 70.9788 79.9583C71.6663 80.6667 71.6663 80.6667 71.6663 81.6667C67.1591 82.0085 63.891 81.769 60.0062 79.4053C59.0243 78.8142 58.0206 78.2667 57.0117 77.7232C56.5138 77.4549 56.0187 77.1815 55.5267 76.9024C54.3328 76.1896 54.3328 76.1896 52.9951 76.1009C51.9226 76.4774 50.9263 77.0045 49.9163 77.5208C49.6805 77.6377 49.4447 77.7546 49.2017 77.875C48.0108 78.4682 46.8479 79.0806 45.7093 79.7695C42.0615 81.9043 38.8333 81.9827 34.6663 81.6667C34.9223 78.5025 35.4659 75.3972 35.9997 72.2708C36.137 71.4613 36.2739 70.6518 36.4106 69.8422C36.4952 69.342 36.5801 68.8418 36.6655 68.3418C36.9109 66.897 37.1318 65.4514 37.333 64C35.5021 65.0253 33.7276 66.1227 31.958 67.25C29.7343 68.6614 27.5033 70.0574 25.2536 71.4271C24.2969 72.0061 24.2969 72.0061 23.2979 72.7604C22.333 73.3333 22.333 73.3333 21.6484 73.2723C20.492 72.7869 20.1467 71.5418 19.6455 70.4583C19.5327 70.225 19.4199 69.9917 19.3037 69.7513C18.6056 68.2957 17.9597 66.8209 17.333 65.3333C18.9014 64.4184 20.4659 64.0239 22.2275 63.6094C23.771 63.224 25.2793 62.7414 26.7939 62.2565C27.6663 62 27.6663 62 28.333 62C28.2505 61.5566 28.2505 61.5566 28.1663 61.1042C28.1082 60.6253 28.053 60.1461 27.9997 59.6667C27.9537 59.3667 27.9077 59.0668 27.8604 58.7578C27.5549 55.261 29.1457 52.8566 30.9513 50.0046C31.4331 49.1927 31.4331 49.1927 31.9997 47.6667C30.2397 47.6667 28.4797 47.6667 26.6663 47.6667C27.0484 45.7565 27.5077 44.0966 28.333 42.3333C28.5843 42.355 28.8355 42.3766 29.0944 42.3989C30.1983 42.3189 30.424 42.0929 31.1507 41.2839C31.4583 40.9482 31.4583 40.9482 31.7721 40.6058C31.9847 40.3646 32.1973 40.1235 32.4163 39.875C32.6367 39.6321 32.857 39.3892 33.084 39.139C33.524 38.6529 33.9621 38.1651 34.3981 37.6755C34.9138 37.0964 35.4339 36.522 35.958 35.9505C37.3104 34.4827 37.3104 34.4827 38.5361 32.9115C38.6891 32.7207 38.8421 32.5299 38.9997 32.3333C39.2197 32.3333 39.4397 32.3333 39.6663 32.3333C39.7626 32.134 39.8588 31.9346 39.958 31.7292C40.333 31 40.333 31 40.9997 30C40.7231 29.4468 40.4465 28.8937 40.1697 28.3406C39.9292 27.8593 39.6894 27.3777 39.4501 26.8958C38.8632 25.7156 38.2703 24.5408 37.6481 23.3789C36.509 21.2301 35.7088 19.4603 35.6663 17Z" fill="white" fill-opacity="0.5"/>
<path d="M62 0C62.33 0 62.66 0 63 0C63.034 4.23595 63.0331 8.45578 62.786 12.6855C62.6469 15.1263 62.6333 17.5557 62.6667 20C62.8634 20.1076 63.0601 20.2152 63.2628 20.326C64.1546 20.8141 65.0461 21.3029 65.9375 21.7917C66.4019 22.0456 66.4019 22.0456 66.8757 22.3047C67.1732 22.468 67.4708 22.6312 67.7773 22.7995C68.0514 22.9496 68.3255 23.0997 68.6078 23.2544C69.1976 23.5895 69.7689 23.957 70.3333 24.3333C71.6717 24.4881 71.6717 24.4881 72.375 23.6458C72.5121 23.4963 72.6491 23.3468 72.7904 23.1927C73.8969 22.1206 75.7442 20.3333 77.3333 20.3333C77.4433 20.0033 77.5533 19.6733 77.6667 19.3333C78.2222 19.1111 78.7778 18.8889 79.3333 18.6667C79.4433 18.3367 79.5533 18.0067 79.6667 17.6667C80.1782 17.2271 80.1782 17.2271 80.8307 16.7904C81.0658 16.6312 81.3008 16.472 81.543 16.3079C81.79 16.1444 82.0371 15.9809 82.2917 15.8125C82.5362 15.6477 82.7807 15.4829 83.0326 15.3132C83.6867 14.8729 84.3428 14.4358 85 14C85.33 13.78 85.66 13.56 86 13.3333C86.7292 13.4583 86.7292 13.4583 87.3333 13.6667C86.3576 15.0083 85.2361 16.0307 83.9844 17.1016C82.8446 18.0909 81.8127 19.1805 80.7708 20.2708C80 21 80 21 79.3333 21C78.9165 21.5551 78.9165 21.5551 78.6667 22.3333C78.8814 23.2959 78.8814 23.2959 79.3333 24.3177C79.5697 24.9028 79.5697 24.9028 79.8108 25.4997C79.9849 25.9165 80.1591 26.3332 80.3333 26.75C80.5057 27.1726 80.6775 27.5955 80.8487 28.0186C81.1867 28.853 81.5267 29.6865 81.868 30.5195C82.4588 31.976 83.0179 33.4424 83.5625 34.9167C83.715 35.3274 83.8676 35.7382 84.0247 36.1615C84.1775 36.5765 84.1775 36.5765 84.3333 37C84.5314 36.8788 84.7295 36.7577 84.9336 36.6328C86.4173 35.7329 87.9074 34.8607 89.4375 34.0417C91.2292 33.0796 92.9414 32.0082 94.6523 30.9115C95.6427 30.347 96.5755 29.9863 97.6667 29.6667C97.6667 30.6667 97.6667 30.6667 97.2122 31.181C95.6342 32.5124 94.0067 33.7451 92.3268 34.9453C91.2699 35.7127 90.2382 36.5095 89.2083 37.3125C87.4206 38.7012 85.5854 39.9997 83.7161 41.276C82.3947 42.1876 81.1023 43.1356 79.8125 44.0911C79 44.6667 79 44.6667 78.069 45.1758C77.8262 45.3378 77.5835 45.4998 77.3333 45.6667C77.1942 46.7088 77.1942 46.7088 77.3333 47.6667C77.7458 47.6568 78.1583 47.6469 78.5833 47.6367C80.5231 47.6371 82.4131 47.8914 84.3333 48.1458C86.7855 48.4587 89.2172 48.7328 91.6875 48.8333C94.4109 48.9593 97.0076 49.431 99.6667 50C99.7767 50.33 99.8867 50.66 100 51C95.27 51 90.54 51 85.6667 51C85.4467 55.18 85.2267 59.36 85 63.6667C86.54 64.4367 88.08 65.2067 89.6667 66C90.6416 66.5777 91.5946 67.1534 92.5417 67.7708C94.386 68.9756 94.386 68.9756 96.3333 70C96.3333 70.33 96.3333 70.66 96.3333 71C91.132 69.2767 86.1473 67.2273 81.1927 64.8932C79.5797 64.136 77.9576 63.3994 76.3333 62.6667C76.2431 62.8596 76.1529 63.0525 76.0599 63.2513C75.6651 64.0029 75.2234 64.6386 74.7083 65.3125C74.5442 65.5286 74.3801 65.7448 74.2109 65.9674C73.6667 66.6667 73.6667 66.6667 72.9531 67.4049C71.7438 69.2163 71.9231 71.5031 72.1642 73.6108C72.6179 75.549 74.2469 76.7327 75.6667 78C76.139 78.5437 76.599 79.0985 77.0417 79.6667C77.2282 79.9004 77.4146 80.1342 77.6068 80.375C78 81 78 81 78 82C77.5357 82.0455 77.07 82.0776 76.6042 82.1042C76.2155 82.1332 76.2155 82.1332 75.819 82.1628C74.6043 81.9214 74.1489 81.2472 73.3333 80.3333C73.0162 79.9947 72.6984 79.6566 72.3802 79.319C72.0586 78.97 71.7375 78.6206 71.4167 78.2708C71.1698 78.0043 71.1698 78.0043 70.918 77.7324C68.6275 75.2381 69.0273 72.2248 69.0807 68.957C69.2551 66.2295 70.2417 64.6055 72.1328 62.7044C73 62 73 62 73.6667 62C73.756 61.7456 73.8454 61.4912 73.9375 61.2292C74.5538 59.8345 74.5538 59.8345 75.3333 59.3333C77.0027 59.4638 78.3322 60.0848 79.7917 60.8542C80.0052 60.9639 80.2188 61.0737 80.4388 61.1868C80.9605 61.4555 81.4804 61.7274 82 62C81.9936 61.5836 81.9871 61.1673 81.9805 60.7383C81.9808 58.8767 82.138 57.0397 82.3125 55.1875C82.3415 54.8569 82.3705 54.5262 82.4004 54.1855C82.4439 53.7128 82.4439 53.7128 82.4883 53.2305C82.5145 52.9458 82.5407 52.6612 82.5676 52.3679C82.6667 51.6667 82.6667 51.6667 83 51C82.5901 50.9798 82.1802 50.9596 81.7578 50.9388C81.2135 50.9106 80.6693 50.8824 80.125 50.8542C79.8556 50.8411 79.5862 50.828 79.3086 50.8145C77.8495 50.7373 76.4382 50.6103 75 50.3333C74.7668 49.5287 74.5384 48.7233 74.3125 47.9167C74.2461 47.6894 74.1797 47.4621 74.1113 47.2279C73.49 44.9822 73.49 44.9822 74 44C74.6328 43.4414 74.6328 43.4414 75.4583 42.8958C75.7565 42.6973 76.0547 42.4988 76.362 42.2943C76.6825 42.0872 77.0031 41.88 77.3333 41.6667C77.6676 41.4458 78.0019 41.2249 78.3464 40.9974C80.8997 39.3333 80.8997 39.3333 81.6667 39.3333C81.5406 39.0141 81.4146 38.6948 81.2848 38.3659C80.813 37.1707 80.3416 35.9754 79.8702 34.7801C79.6669 34.2648 79.4636 33.7495 79.2602 33.2342C78.9662 32.4896 78.6725 31.7448 78.3789 31C78.2445 30.6597 78.2445 30.6597 78.1073 30.3126C77.8477 29.6535 77.5904 28.9935 77.3333 28.3333C77.2385 28.0944 77.1436 27.8555 77.0459 27.6094C76.6466 26.5842 76.3333 25.7769 76.3333 24.6667C76.0119 24.9352 75.6905 25.2038 75.3594 25.4805C74.9342 25.8275 74.5089 26.1743 74.0833 26.5208C73.8719 26.6985 73.6605 26.8762 73.4427 27.0592C73.1333 27.309 73.1333 27.309 72.8177 27.5638C72.6292 27.7192 72.4407 27.8745 72.2464 28.0346C71.6667 28.3333 71.6667 28.3333 70.9858 28.2412C70.0877 27.9092 69.2497 27.4955 68.3958 27.0625C67.8976 26.8118 67.8976 26.8118 67.3893 26.556C65.3332 25.4734 63.3438 24.2822 61.3542 23.0833C60.1889 22.3821 60.1889 22.3821 59 21.6667C59.22 19.3567 59.44 17.0467 59.6667 14.6667C59.0913 14.8437 58.516 15.0207 57.9232 15.2031C53.319 16.6198 53.319 16.6198 52.1623 16.972C51.3772 17.2161 50.5949 17.4694 49.8156 17.7311C49.4377 17.8559 49.0599 17.9808 48.6706 18.1094C48.3331 18.2242 47.9957 18.339 47.648 18.4574C46.0352 18.8014 44.6581 18.3831 43.1458 17.8125C42.8373 17.6969 42.5288 17.5813 42.2109 17.4622C41.8113 17.3097 41.4117 17.1572 41 17C40.4019 16.773 39.8038 16.546 39.2057 16.319C37.4696 15.6594 35.7345 14.9971 34 14.3333C34.081 17.3701 34.2907 19.9225 35.6667 22.6667C35.886 23.118 36.1052 23.5694 36.3242 24.0208C37.5531 26.5716 37.5531 26.5716 39 29C38.9547 30.5941 38.0819 31.4577 37.0208 32.5417C36.6878 32.8931 36.3549 33.2447 36.0221 33.5964C35.7676 33.8621 35.7676 33.8621 35.508 34.1331C34.7148 34.9662 33.941 35.8159 33.1667 36.6667C32.7696 37.0998 32.7696 37.0998 32.3646 37.5417C31.6646 38.3089 31.6646 38.3089 31.1146 39.1042C30.9668 39.2898 30.819 39.4754 30.6667 39.6667C30.4467 39.6667 30.2267 39.6667 30 39.6667C29.835 40.1617 29.835 40.1617 29.6667 40.6667C28.7867 40.5567 27.9067 40.4467 27 40.3333C26.8966 40.7068 26.8966 40.7068 26.7911 41.0877C26.4795 42.2115 26.1668 43.3349 25.8542 44.4583C25.6914 45.0461 25.6914 45.0461 25.5254 45.6458C25.4212 46.0197 25.317 46.3935 25.2096 46.7786C25.0656 47.2971 25.0656 47.2971 24.9187 47.826C24.6667 48.6667 24.6667 48.6667 24.3333 49.3333C25.8733 49.3333 27.4133 49.3333 29 49.3333C28.6818 50.9245 28.278 51.7309 27.4792 53.1042C26.0549 55.7122 26.0959 58.0976 26.3333 61C24.7026 61.4817 23.0713 61.9618 21.4395 62.4399C20.945 62.585 20.4506 62.7305 19.9564 62.8765C19.3185 63.0648 18.6801 63.2512 18.0417 63.4375C17.6713 63.5462 17.3009 63.6549 16.9193 63.7669C16 64 16 64 15 64C16.8138 68.0025 18.8219 71.8506 21 75.6667C23.9865 73.8505 26.9688 72.0318 29.9102 70.1432C30.9222 69.5057 31.9576 68.9197 33 68.3333C33.33 68.1133 33.66 67.8933 34 67.6667C34.33 67.6667 34.66 67.6667 35 67.6667C35.0412 69.4805 34.9154 71.1126 34.5742 72.9036C34.5306 73.135 34.487 73.3664 34.4421 73.6049C34.3505 74.0885 34.2577 74.572 34.1638 75.0552C34.0199 75.7963 33.8798 76.538 33.7402 77.2799C33.0515 80.8971 33.0515 80.8971 32.6667 81.6667C31.7838 81.8645 30.9027 81.914 30 82C29.9301 79.8192 30.1514 77.9275 30.6667 75.8125C30.7303 75.5399 30.7939 75.2672 30.8594 74.9863C31.0144 74.3235 31.1735 73.6616 31.3333 73C31.1523 73.1006 30.9713 73.2012 30.7848 73.3048C27.7393 74.9952 24.7 76.6746 21.5703 78.2044C20.5922 78.7047 19.6526 79.2511 18.7083 79.8125C16.8635 80.9082 14.9755 81.8642 13.0495 82.806C12.2069 83.2294 11.4067 83.674 10.6042 84.1667C10.1401 84.4142 10.1401 84.4142 9.66667 84.6667C9.33667 84.5567 9.00667 84.4467 8.66667 84.3333C9.81328 83.119 10.9692 82.1901 12.375 81.2917C13.473 80.5879 14.4246 79.9296 15.3333 79C16.0918 78.5144 16.8757 78.0995 17.6667 77.6667C17.2143 76.5052 16.7184 75.3778 16.1797 74.2539C16.0224 73.9254 15.8652 73.5969 15.7031 73.2585C15.5398 72.9188 15.3766 72.5791 15.2083 72.2292C15.0476 71.8934 14.8869 71.5576 14.7214 71.2116C14.0121 69.7324 13.2977 68.2581 12.5495 66.7982C12 65.6667 12 65.6667 12 65C11.2151 65.1939 10.4304 65.3884 9.64583 65.5833C9.40701 65.6425 9.16818 65.7017 8.92212 65.7627C7.69685 66.0684 6.47502 66.3823 5.25781 66.7187C5.03569 66.7799 4.81357 66.841 4.58472 66.904C3.9679 67.0749 3.35177 67.2483 2.73568 67.4219C1.77537 67.6418 0.978831 67.7183 0 67.6667C0 67.3367 0 67.0067 0 66.6667C3.11101 65.3095 6.18615 63.9799 9.45313 63.0417C11.1085 62.5301 12.7283 61.9313 14.3542 61.3333C21.6237 58.6667 21.6237 58.6667 23 58.6667C22.9845 58.3771 22.9691 58.0874 22.9531 57.7891C22.9411 57.4049 22.9291 57.0208 22.9167 56.625C22.9012 56.246 22.8857 55.867 22.8698 55.4766C23.0257 54.1081 23.5468 53.4424 24.3333 52.3333C22.521 52.1718 20.7085 52.0121 18.8958 51.8542C18.4956 51.8193 18.4956 51.8193 18.0874 51.7837C14.7936 51.4982 11.5032 51.2256 8.19881 51.0971C6.77554 51.0396 5.40483 50.8887 4 50.6667C4.11 50.3367 4.22 50.0067 4.33333 49.6667C6.34532 49.3724 8.29125 49.2888 10.3229 49.3008C10.7834 49.3015 10.7834 49.3015 11.2531 49.3022C12.2243 49.3041 13.1955 49.3082 14.1667 49.3125C14.829 49.3142 15.4913 49.3157 16.1536 49.3171C17.7691 49.3207 19.3845 49.3265 21 49.3333C21.6843 46.8346 22.3542 44.3327 23.0117 41.8268C23.3077 40.7593 23.6392 39.7138 24 38.6667C23.8101 38.6233 23.6202 38.5799 23.4245 38.5352C21.2305 37.9509 19.1407 36.9198 17.0625 36.0208C15.5603 35.3719 14.0537 34.76 12.5208 34.1875C10.4401 33.4011 8.44285 32.4751 6.4375 31.5169C5.5227 31.0887 4.60903 30.6956 3.66667 30.3333C3.66667 30.0033 3.66667 29.6733 3.66667 29.3333C6.53568 29.7926 9.2379 30.6907 11.9792 31.625C12.4147 31.7714 12.8502 31.9177 13.2858 32.0638C15.1987 32.7076 17.1048 33.366 18.9987 34.0638C20.3331 34.5538 21.6695 34.9795 23.0417 35.3542C24.8269 35.8516 26.5815 36.3959 28.3333 37C30.2634 35.1227 32.0676 33.1655 33.75 31.0625C34.249 30.4387 34.7643 29.8912 35.3333 29.3333C35.0912 28.7913 34.8479 28.2497 34.6042 27.7083C34.4529 27.3723 34.3017 27.0363 34.1458 26.6901C33.7166 25.7734 33.2517 24.8902 32.7708 24C31.3297 21.1258 31.2066 17.8501 30.9792 14.6875C30.9517 14.321 30.9243 13.9546 30.896 13.577C30.5905 9.2787 30.4532 4.97354 30.3333 0.666667C30.7733 0.666667 31.2133 0.666667 31.6667 0.666667C31.891 2.02049 32.1125 3.37477 32.3333 4.72917C32.3969 5.11266 32.4605 5.49616 32.526 5.89128C32.5862 6.26188 32.6464 6.63249 32.7083 7.01432C32.7642 7.35472 32.8201 7.69511 32.8776 8.04582C32.9914 8.93282 33.0229 9.77381 33 10.6667C33.1788 10.7157 33.3575 10.7646 33.5417 10.8151C35.5804 11.3986 37.5587 12.1066 39.5286 12.8888C40.2365 13.1632 40.9506 13.4145 41.6667 13.6667C42.1805 13.8659 42.1805 13.8659 42.7047 14.0693C45.9218 15.1858 48.08 14.8582 51.2708 13.8125C51.6857 13.6877 52.1006 13.5629 52.528 13.4342C54.495 12.8369 56.446 12.1976 58.3798 11.5001C59 11.3333 59 11.3333 60.3333 11.3333C60.3419 11.1017 60.3505 10.8701 60.3594 10.6315C60.5606 7.02377 61.2787 3.53416 62 0Z" fill="white"/>
<path d="M57.2497 91.8329C58.0618 92.2126 58.8651 92.5986 59.6663 92.9996C59.8832 93.1066 60.1 93.2136 60.3234 93.3238C61.4519 93.8811 62.5766 94.4456 63.6989 95.0152C65.2405 95.7934 66.8072 96.5099 68.3786 97.2261C69.6006 97.7896 70.8009 98.3884 71.9997 98.9996C71.8347 99.4946 71.8347 99.4946 71.6663 99.9996C61.065 101.823 61.065 101.823 55.9997 102.333C55.4982 102.4 55.4982 102.4 54.9867 102.468C53.0342 102.71 51.3687 102.571 49.4398 102.199C48.2141 101.978 46.9871 101.839 45.7497 101.708C42.0312 101.3 38.3507 100.639 34.6663 99.9996C34.5563 99.6696 34.4463 99.3396 34.333 98.9996C36.9516 97.6641 39.6219 96.4424 42.2907 95.2116C46.1926 93.482 46.1926 93.482 49.9163 91.4162C52.4539 90.4402 54.7849 90.8003 57.2497 91.8329Z" fill="white"/>
<path d="M42.6663 86C49.5963 86 56.5263 86 63.6663 86C63.6663 86.99 63.6663 87.98 63.6663 89C63.9588 89.094 64.2513 89.1881 64.5527 89.285C65.5567 89.6291 66.5144 90.0129 67.4853 90.4401C67.8263 90.5899 68.1673 90.7398 68.5186 90.8941C69.0558 91.1322 69.0558 91.1322 69.6038 91.375C69.9716 91.5373 70.3394 91.6997 70.7183 91.8669C73.7232 93.1987 76.7034 94.5776 79.6663 96C79.6663 96.55 79.6663 97.1 79.6663 97.6667C75.7376 97.9702 72.9484 97.3548 69.458 95.4792C69.0566 95.2731 68.6547 95.068 68.2523 94.8639C67.4529 94.4567 66.657 94.0438 65.8634 93.6256C64.2759 92.7913 62.6683 91.9981 61.0616 91.2018C60.3224 90.8293 59.5882 90.4466 58.8582 90.0562C56.1377 88.606 53.7259 88.1865 50.6663 88.6667C49.125 89.1737 47.7546 89.8906 46.333 90.6667C45.697 90.9906 45.0583 91.3085 44.419 91.6259C43.9715 91.8482 43.5246 92.0718 43.0784 92.2966C41.1734 93.2563 39.2501 94.1738 37.3119 95.0643C36.0428 95.6501 34.848 96.285 33.6455 97C31.4998 98.1158 29.0125 97.7977 26.6663 97.6667C26.5563 97.2267 26.4463 96.7867 26.333 96.3333C29.0007 94.8146 31.7291 93.5189 34.5413 92.2917C34.9289 92.1211 35.3165 91.9505 35.7158 91.7747C36.4668 91.4443 37.2182 91.1147 37.9701 90.7861C39.1301 90.276 40.2839 89.7527 41.4351 89.2228C41.9997 89 41.9997 89 42.6663 89C42.6663 88.01 42.6663 87.02 42.6663 86Z" fill="white" fill-opacity="0.5"/>
<path d="M32.814 83.957C33.7617 83.9588 34.7095 83.957 35.6572 83.9548C36.2592 83.9551 36.8612 83.9555 37.4632 83.9561C37.7468 83.9555 38.0305 83.9548 38.3227 83.9541C40.2947 83.9621 40.2947 83.9621 40.6663 84.3338C40.7341 84.9874 40.7341 84.9874 40.7497 85.7921C40.7583 86.0559 40.7669 86.3197 40.7757 86.5916C40.6378 87.5273 40.4168 87.7701 39.6663 88.3338C38.9398 88.6905 38.9398 88.6905 38.0413 89.0421C37.5122 89.2548 37.5122 89.2548 36.9723 89.4718C36.7697 89.5531 36.567 89.6344 36.3582 89.7182C34.9464 90.2941 33.5468 90.8992 32.1455 91.5004C31.8416 91.6304 31.5378 91.7604 31.2247 91.8944C29.3419 92.7023 27.4725 93.5308 25.6208 94.408C24.9997 94.6671 24.9997 94.6671 24.333 94.6671C24.333 95.8771 24.333 97.0871 24.333 98.3337C23.5082 98.7461 23.0947 98.6524 22.1872 98.5421C21.7959 98.497 21.7959 98.497 21.3968 98.4509C20.6663 98.3337 20.6663 98.3337 19.6663 98.0004C19.5432 94.9184 19.79 92.2856 20.6663 89.3338C20.8404 88.6672 21.0141 88.0005 21.1872 87.3338C21.7507 85.1942 21.7507 85.1942 22.333 84.3338C23.097 84.1321 23.097 84.1321 24.0986 84.0864C24.6835 84.0588 24.6835 84.0588 25.2803 84.0307C27.7913 83.9669 30.3022 83.9512 32.814 83.957Z" fill="white"/>
<path d="M66 84C67.867 83.9916 69.734 83.9856 71.601 83.9817C72.2342 83.98 72.8675 83.9777 73.5007 83.9748C77.018 83.9591 80.4974 83.9712 84 84.3333C84.8619 86.4449 85.4456 88.5994 86.0117 90.8047C86.3099 91.9809 86.3099 91.9809 86.7044 93.0208C87.0319 94.1056 87.0668 94.9951 87.0417 96.125C87.0357 96.4782 87.0296 96.8314 87.0234 97.1953C87.0157 97.4608 87.008 97.7264 87 98C85.2861 98.5946 84.1523 98.7335 82.3333 98.3333C82 98 82 98 81.9674 97.2382C81.9713 96.9327 81.9752 96.6272 81.9792 96.3125C81.9822 96.0061 81.9852 95.6997 81.9883 95.3841C81.9921 95.1473 81.996 94.9106 82 94.6666C81.8028 94.606 81.6055 94.5455 81.4023 94.483C79.9116 94.0088 78.6714 93.4825 77.3333 92.6666C76.54 92.326 75.7381 92.0126 74.9336 91.6992C73.2774 91.0501 71.6408 90.3534 70 89.6666C69.2501 89.354 68.5001 89.0415 67.75 88.7291C67.1725 88.4885 66.595 88.2479 66 88C66 86.68 66 85.36 66 84Z" fill="white"/>
<path d="M84.0003 105.333C84.7959 105.884 84.7959 105.884 85.5628 106.646C87.0786 108.104 88.6617 109.419 90.3154 110.718C90.6545 111.022 90.6545 111.022 91.0003 111.333C91.0003 111.553 91.0003 111.773 91.0003 112C91.1877 112.085 91.375 112.17 91.568 112.258C92.4316 112.719 93.1507 113.267 93.917 113.875C94.1834 114.086 94.4498 114.296 94.7243 114.513C94.9254 114.674 95.1265 114.835 95.3337 115C95.2189 115.964 95.1279 116.526 94.4665 117.255C92.9913 118.337 91.8936 119.095 90.0003 119C88.8389 118.641 87.752 118.159 86.6538 117.64C85.8882 117.281 85.1169 116.935 84.3454 116.589C83.7648 116.324 83.1845 116.058 82.6045 115.792C82.321 115.664 82.0375 115.536 81.7454 115.404C81.3489 115.218 81.3489 115.218 80.9443 115.029C80.7062 114.919 80.4681 114.809 80.2227 114.696C79.667 114.333 79.667 114.333 79.3337 113.333C79.2509 112.335 79.2566 111.335 79.2503 110.333C79.2435 110.06 79.2366 109.787 79.2295 109.505C79.2278 109.242 79.2261 108.979 79.2243 108.708C79.2212 108.469 79.2181 108.229 79.2148 107.982C79.421 106.857 80.2176 106.418 81.1045 105.771C82.1883 105.242 82.8036 105.208 84.0003 105.333Z" fill="white"/>
<path d="M23.5625 105.292C24.6667 105.667 24.6667 105.667 26.6667 106.667C26.6667 109.197 26.6667 111.727 26.6667 114.334C25.7454 114.739 24.8242 115.145 23.875 115.563C22.152 116.322 20.4529 117.091 18.7917 117.979C16.0827 119.318 16.0827 119.318 14.6667 119C13.3478 118.223 12.171 117.317 11 116.334C11.0949 115.205 11.2466 114.753 12.0625 113.942C12.3719 113.707 12.6813 113.472 13 113.229C14.5338 112.038 15.9838 110.799 17.4076 109.478C18 109 18 109 18.6667 109C18.7479 108.807 18.8291 108.613 18.9128 108.413C19.8868 106.685 21.5797 105.359 23.5625 105.292Z" fill="white"/>
<path d="M33.6663 102C34.4446 102.066 35.207 102.153 35.9801 102.259C36.3367 102.306 36.3367 102.306 36.7005 102.354C39.4631 102.72 42.2211 103.12 44.9788 103.521C46.4608 103.736 47.9429 103.951 49.4261 104.158C50.1358 104.258 50.8451 104.363 51.5524 104.479C53.6191 104.787 55.4983 104.456 57.5413 104.083C58.2786 103.957 59.016 103.832 59.7536 103.707C60.312 103.612 60.312 103.612 60.8817 103.515C62.6316 103.23 64.3871 102.996 66.1455 102.771C66.4506 102.731 66.7558 102.692 67.0702 102.651C69.0438 102.399 71.0193 102.191 72.9997 102C72.9997 102.99 72.9997 103.98 72.9997 105C61.4586 107.07 61.4586 107.07 56.3955 107.771C56.0152 107.825 55.635 107.878 55.2432 107.934C53.5805 108.022 51.9845 107.856 50.333 107.667C50.0434 107.633 49.7537 107.6 49.4553 107.566C48.5665 107.459 47.6789 107.346 46.7913 107.229C46.4685 107.187 46.1457 107.145 45.8132 107.101C43.2307 106.756 40.656 106.367 38.083 105.958C37.5444 105.873 37.5444 105.873 36.995 105.786C36.6614 105.732 36.3278 105.678 35.984 105.622C35.689 105.575 35.3939 105.527 35.0898 105.478C34.333 105.333 34.333 105.333 33.333 105C33.3005 102.949 33.3005 102.949 33.333 102.333C33.443 102.223 33.553 102.113 33.6663 102Z" fill="white" fill-opacity="0.5"/>
<path d="M55.2255 78.8602C55.4948 79.0025 55.7642 79.1447 56.0417 79.2913C56.4589 79.5011 56.4589 79.5011 56.8845 79.7152C57.7065 80.1333 58.5208 80.5634 59.3333 80.9996C59.559 81.12 59.7846 81.2404 60.0171 81.3644C62.3459 82.6215 62.3459 82.6215 63.3333 83.333C63.3333 83.553 63.3333 83.773 63.3333 83.9996C56.6233 83.9996 49.9133 83.9996 43 83.9996C43.4252 82.7242 43.7975 82.6598 44.9727 82.0621C45.4764 81.803 45.4764 81.803 45.9902 81.5387C46.521 81.2719 46.521 81.2719 47.0625 80.9996C47.4099 80.8218 47.7573 80.6439 48.1152 80.4606C48.7857 80.1179 49.4584 79.7796 50.1335 79.4461C51.0531 78.993 51.0531 78.993 52.056 78.2939C53.3646 77.886 54.0237 78.2726 55.2255 78.8602Z" fill="white" fill-opacity="0.5"/>
<path d="M75.3337 102.333C76.4983 102.624 77.2291 102.935 78.2503 103.521C78.5167 103.672 78.7831 103.824 79.0576 103.98C79.2587 104.097 79.4598 104.213 79.667 104.333C79.557 104.663 79.447 104.993 79.3337 105.333C78.8937 105.333 78.4537 105.333 78.0003 105.333C78.0003 107.753 78.0003 110.173 78.0003 112.666C73.5769 110.897 73.5769 110.897 72.8753 109.271C72.7722 108.806 72.7722 108.806 72.667 108.333C72.337 108.113 72.007 107.893 71.667 107.666C71.667 107.336 71.667 107.006 71.667 106.666C73.482 106.336 73.482 106.336 75.3337 106C75.3337 104.79 75.3337 103.58 75.3337 102.333Z" fill="white" fill-opacity="0.5"/>
<path d="M31.0003 102.333C31.0003 103.543 31.0003 104.753 31.0003 106C32.2103 106.22 33.4203 106.44 34.667 106.666C34.667 106.996 34.667 107.326 34.667 107.666C34.337 107.886 34.007 108.106 33.667 108.333C33.5776 108.65 33.4882 108.966 33.3962 109.293C32.8773 110.656 32.263 110.952 31.0003 111.646C30.6428 111.848 30.2853 112.05 29.917 112.259C29.4632 112.461 29.4632 112.461 29.0003 112.666C28.7803 112.556 28.5603 112.446 28.3337 112.333C28.3337 110.023 28.3337 107.713 28.3337 105.333C27.7837 105.223 27.2337 105.113 26.667 105C27.0716 103.786 27.3637 103.694 28.4587 103.104C28.7225 102.958 28.9863 102.813 29.2581 102.662C30.0003 102.333 30.0003 102.333 31.0003 102.333Z" fill="white" fill-opacity="0.5"/>
</svg>
