<svg width="21" height="21" viewBox="0 0 21 21" xmlns="http://www.w3.org/2000/svg">
<path d="M3.58369 16.1273C4.35519 18.0882 4.98806 19.3486 5.10126 19.5114C5.28788 19.7792 5.6726 19.9421 5.9798 19.8765C6.2365 19.8171 6.48607 19.7303 6.72423 19.6176C6.96362 19.5077 7.19085 19.373 7.40221 19.2157C7.65076 19.0242 7.78037 18.6357 7.70777 18.3314C7.66676 18.144 7.13643 16.902 6.39775 15.0235C5.65906 13.145 5.20585 11.8727 5.10823 11.7079C4.95401 11.4355 4.59554 11.2391 4.283 11.2674C4.02104 11.296 3.76276 11.3518 3.51233 11.4339C3.26064 11.5132 3.01821 11.6194 2.78923 11.7505C2.51935 11.9113 2.34832 12.2923 2.39343 12.6155C2.42214 12.8112 2.81548 14.1651 3.58369 16.1273ZM18.6072 12.6155C18.6523 12.2923 18.4812 11.9113 18.2114 11.7505C17.9828 11.6194 17.7408 11.5133 17.4895 11.4339C17.2391 11.3518 16.9808 11.296 16.7188 11.2674C16.4063 11.2391 16.0478 11.4355 15.8936 11.7079C15.796 11.8719 15.3403 13.1434 14.6041 15.0235C13.8678 16.9037 13.3347 18.144 13.294 18.3322C13.2219 18.6366 13.3511 19.025 13.5996 19.2165C13.811 19.3738 14.0382 19.5085 14.2776 19.6185C14.5158 19.7311 14.7653 19.8179 15.022 19.8773C15.3292 19.9429 15.7139 19.7801 15.9006 19.5122C16.0121 19.3482 16.645 18.089 17.4181 16.1281C18.1913 14.1671 18.5801 12.8112 18.6072 12.6155Z"/>
<path d="M20.5897 12.4383V11.1853C20.7138 11.1186 20.8174 11.0194 20.8896 10.8985C20.9619 10.7775 20.9999 10.6392 20.9998 10.4983C20.9995 8.42186 20.3835 6.39212 19.2298 4.66571C18.076 2.93931 16.4363 1.59375 14.5178 0.799173C12.5994 0.00459126 10.4885 -0.203339 8.45194 0.201671C6.41536 0.60668 4.5446 1.60644 3.07617 3.07456C2.09815 4.0472 1.3227 5.20412 0.794683 6.47839C0.26667 7.75266 -0.00342183 9.11898 3.27239e-05 10.4983C5.64349e-05 10.6391 0.0382018 10.7772 0.110418 10.898C0.182633 11.0188 0.286223 11.1178 0.410185 11.1845V12.4383C0.245781 12.5571 0.122083 12.7238 0.0560086 12.9156C-0.0100657 13.1073 -0.0152908 13.3148 0.0410479 13.5097C0.731498 15.9056 1.64451 18.2317 2.76815 20.4576C2.82628 20.5733 2.90665 20.6764 3.00467 20.7609C3.10269 20.8455 3.21642 20.9099 3.33936 20.9505C3.46231 20.991 3.59204 21.0069 3.72114 20.9973C3.85023 20.9876 3.97615 20.9526 4.0917 20.8942C4.20724 20.8358 4.31012 20.7552 4.39447 20.657C4.47881 20.5588 4.54296 20.4449 4.58323 20.3219C4.6235 20.1988 4.63911 20.069 4.62916 19.94C4.61921 19.8109 4.58389 19.6851 4.52524 19.5697C3.45719 17.4541 2.58935 15.2434 1.93308 12.9662C1.88156 12.7881 1.78076 12.6281 1.64231 12.5048C1.50386 12.3814 1.33338 12.2997 1.15051 12.2689V11.1853C1.27421 11.1183 1.37747 11.0191 1.44932 10.8981C1.52117 10.7772 1.55893 10.639 1.55861 10.4983C1.55844 8.72971 2.08277 7.00078 3.06529 5.5302C4.04782 4.05962 5.44439 2.91346 7.07838 2.23667C8.71237 1.55989 10.5104 1.38289 12.245 1.72806C13.9796 2.07322 15.5728 2.92506 16.8232 4.17582C17.6559 5.00432 18.316 5.98968 18.7653 7.07492C19.2147 8.16016 19.4444 9.32372 19.4412 10.4983C19.4413 10.6391 19.4794 10.7772 19.5516 10.898C19.6238 11.0188 19.7274 11.1178 19.8514 11.1845V12.2661C19.6685 12.2968 19.498 12.3785 19.3596 12.5019C19.2211 12.6252 19.1204 12.7852 19.0688 12.9633C18.4126 15.2405 17.5447 17.4513 16.4767 19.5668C16.4184 19.6822 16.3834 19.8079 16.3736 19.9369C16.3639 20.0658 16.3797 20.1954 16.4201 20.3182C16.4605 20.441 16.5246 20.5547 16.6089 20.6527C16.6932 20.7507 16.796 20.8312 16.9114 20.8895C17.0268 20.9478 17.1526 20.9828 17.2815 20.9925C17.4104 21.0022 17.54 20.9865 17.6628 20.9461C17.7857 20.9057 17.8993 20.8415 17.9974 20.7572C18.0954 20.6729 18.1759 20.5702 18.2342 20.4548C19.3575 18.2288 20.2704 15.9027 20.9609 13.5068C21.0163 13.3121 21.0105 13.1051 20.944 12.9139C20.8776 12.7227 20.7539 12.5567 20.5897 12.4383Z" />
</svg>
