<svg width="21" height="21" viewBox="0 0 21 21"  xmlns="http://www.w3.org/2000/svg">
<g clip-path="url(#clip0_183_315)">
<path d="M17.5 4.375H3.5C2.53312 4.375 1.75875 5.15812 1.75875 6.125L1.75 14.875C1.75 15.8419 2.53312 16.625 3.5 16.625H17.5C18.4669 16.625 19.25 15.8419 19.25 14.875V6.125C19.25 5.15812 18.4669 4.375 17.5 4.375ZM9.625 7H11.375V8.75H9.625V7ZM9.625 9.625H11.375V11.375H9.625V9.625ZM7 7H8.75V8.75H7V7ZM7 9.625H8.75V11.375H7V9.625ZM6.125 11.375H4.375V9.625H6.125V11.375ZM6.125 8.75H4.375V7H6.125V8.75ZM14 14.875H7V13.125H14V14.875ZM14 11.375H12.25V9.625H14V11.375ZM14 8.75H12.25V7H14V8.75ZM16.625 11.375H14.875V9.625H16.625V11.375ZM16.625 8.75H14.875V7H16.625V8.75Z" />
</g>
<defs>
<clipPath id="clip0_183_315">
<rect width="21" height="21" />
</clipPath>
</defs>
</svg>
