<svg width="21" height="18" viewBox="0 0 21 18"  xmlns="http://www.w3.org/2000/svg">
<path d="M19.8503 0H1.14546C0.994681 -1.03414e-06 0.845384 0.0297672 0.706134 0.0875968C0.566884 0.145426 0.440421 0.230179 0.334 0.336994C0.227579 0.443809 0.143294 0.570584 0.0859798 0.710047C0.0286654 0.84951 -0.00055059 0.998917 7.85704e-06 1.1497V13.3679C5.78608e-06 13.6721 0.120552 13.9638 0.335245 14.1793C0.549938 14.3948 0.841279 14.5164 1.14546 14.5176H19.8503C20.1549 14.5166 20.4468 14.3951 20.6621 14.1797C20.8775 13.9643 20.999 13.6725 21 13.3679V1.1497C20.9998 0.844848 20.8786 0.552548 20.663 0.336987C20.4475 0.121426 20.1552 0.000224733 19.8503 0ZM13.975 16.4504H12.8206V14.9494H8.1794V16.4517H7.02122C6.93683 16.4517 6.8559 16.4852 6.79623 16.5449C6.73656 16.6046 6.70303 16.6855 6.70303 16.7699C6.70303 16.8543 6.73656 16.9352 6.79623 16.9949C6.8559 17.0545 6.93683 17.0881 7.02122 17.0881H13.975C14.0594 17.0881 14.1403 17.0545 14.2 16.9949C14.2596 16.9352 14.2932 16.8543 14.2932 16.7699C14.2932 16.6855 14.2596 16.6046 14.2 16.5449C14.1403 16.4852 14.0594 16.4517 13.975 16.4517V16.4504Z" />
</svg>
