<svg width="100" height="100" viewBox="0 0 100 100" fill="none" xmlns="http://www.w3.org/2000/svg">
<path d="M2.47314 51.0775C5.67284 41.2634 22.9288 28.6582 34.4457 26.6543L35.3175 29.4719C23.5933 32.1978 10.6501 42.3361 6.4722 51.0775C10.4691 62.3407 26.2846 72.9263 39.8955 73.398L39.9928 76.7717C26.0556 76.8456 4.12167 63.0685 2.47314 51.0775ZM59.5244 73.398C75.2081 72.6605 91.8097 61.1407 93.1511 51.0775C93.073 43.6733 72.9098 30.2367 59.5244 29.4719V26.6543C72.6617 26.6859 97.6324 40.9761 97.6561 51.0775C95.8379 63.2243 75.2592 76.8474 59.5244 76.7717V73.398ZM59.5244 63.6082C59.139 57.0303 61.184 56.1897 60.5465 52.7342C60.0312 50.677 59.8183 47.1827 60.6509 44.9919C61.2887 43.4862 61.6204 40.8655 60.2399 39.738C59.8372 39.4482 60.1075 34.8502 60.5355 34.7087C65.0613 37.0111 68.4248 44.1493 69.0144 47.9003C70.2557 57.2378 65.9152 64.6814 59.5244 67.1181V63.6082ZM38.1131 35.459L39.7347 36.9825V44.105C39.7347 49.8695 39.6446 51.3467 39.2623 51.8522C39.0024 52.1958 38.7852 52.7273 38.7796 53.0334C38.7739 53.3462 38.2408 53.8611 37.5627 54.2088C35.35 55.3435 34.2639 57.032 34.2649 59.3358C34.4137 63.8112 39.1954 64.0649 39.7812 64.2602V66.7963C23.5532 60.7107 26.9827 39.4445 38.1131 35.459ZM13.9931 51.0775C17.9688 46.5387 21.8284 42.0387 26.9827 39.4445C23.5416 46.5146 23.843 54.1114 27.0932 61.9561C22.1953 59.6858 18.0097 55.0737 13.9931 51.0775ZM72.8786 61.9561C76.1625 54.7172 76.4854 47.087 73.1098 39.4445C77.6696 42.986 82.3497 46.4654 85.8389 51.0775C82.2677 56.4622 78.174 58.625 72.8786 61.9561Z" fill="white" fill-opacity="0.501961"/>
<path d="M44.8209 87.1349C44.1213 83.6414 44.1308 83.6156 44.0038 72.1785V59.702L39.4959 59.743C37.3617 59.809 38.4217 58.2504 39.4093 57.7761C39.9155 57.4571 40.9045 57.0744 41.987 56.5599L41.9871 58.4824L51.2277 57.874C53.088 57.8556 53.5031 57.8694 54.2954 58.5512C54.8335 59.2274 54.8322 59.2259 54.8652 72.6585L54.8716 86.5858L50.9998 95.7555C47.7196 94.6592 45.287 89.3299 44.8209 87.1349ZM50.4171 87.3581C50.3331 85.3741 50.3423 85.6656 52.2843 85.6204V61.8083H50.3535V83.2071L48.7532 83.2071L48.5836 61.8083H46.4841C46.5414 69.7457 46.4283 77.683 46.4841 85.6204C48.4425 85.6168 48.4389 85.6186 48.4228 87.3581V89.321H50.4171V87.3581ZM43.2743 53.1932C43.8815 52.4212 43.9178 51.8878 43.9178 43.7432V35.1114L39.391 30.9169L44.5544 20.2797L38.1885 16.1148L46.5353 4.27539L59.6209 11.3491C60.7905 12.0759 60.3005 12.5549 61.0546 13.2833L61.6984 13.9914L61.0318 15.1211C60.5531 15.9325 60.4167 16.5673 60.5476 17.3741C60.7049 18.3435 60.5479 18.7259 59.4032 20.1638C58.2158 21.655 58.0764 22.0139 58.0764 23.5791C58.0764 25.7263 57.6637 26.5728 56.617 26.5728C55.9116 26.5728 55.8239 26.7096 55.8239 27.8101C55.8239 28.6387 56.0365 29.2398 56.4675 29.6298C56.8238 29.9522 57.111 30.6209 57.111 31.1277C57.111 31.6312 56.8214 32.3328 56.4675 32.6868C55.8995 33.2547 55.8239 33.7594 55.8239 36.981C55.8239 40.223 55.896 40.6969 56.4675 41.2141C57.2902 41.9587 57.3304 43.4735 56.4675 44.3588C55.3248 45.4115 55.1942 51.5275 56.4675 53.1932C57.1014 54.0907 57.0921 54.0934 57.111 56.4989L53.0983 56.4989L53.0888 56.177H46.653V56.4989H42.6307C42.7016 53.9526 42.7049 53.9587 43.2743 53.1932ZM52.9933 53.0857L52.9933 43.8288L46.2507 48.776V53.0679L52.9933 53.0857ZM52.9933 33.4416L47.8359 35.3694L52.9933 41.045V33.4416ZM51.1581 31.8823L44.4985 31.8823L46.4504 33.4895L51.1581 31.8823ZM52.9933 25.2326L45.205 29.7202L52.9933 29.6298V25.2326ZM52.9933 21.0456H49.7937L45.8727 25.879L52.9933 21.0456ZM38.4597 26.2369L40.8189 21.7342L42.6307 22.7136L40.3896 27.2035L38.4597 26.2369Z" fill="white"/>
</svg>
