<svg width="100" height="100" viewBox="0 0 100 100" fill="none" xmlns="http://www.w3.org/2000/svg">
<path d="M57.8915 69.0266C54.4205 68.3822 49.5818 66.866 46.6085 65.4908C44.7635 64.6375 44.5693 64.3867 43.9455 62.0518C43.7589 61.3532 43.1507 60.179 42.594 59.4425C42.0373 58.706 41.4433 57.9155 41.2741 57.686C41.0482 57.3794 41.2656 56.9694 42.092 56.143L43.2175 55.0174L44.8218 56.2855C47.3565 58.289 49.703 58.6774 52.7668 57.6006C53.6987 57.273 54.8701 56.7139 55.37 56.3579C56.5614 55.5096 57.16 55.5403 57.3913 56.4616C57.6948 57.6708 59.8568 58.0189 67.2114 58.0427C70.7141 58.0539 73.7897 58.1816 74.0459 58.3264C74.3022 58.4711 76.4383 59.7863 78.7928 61.249C84.7027 64.9207 84.7925 65.6532 79.5566 67.4822C73.0293 69.7623 64.9555 70.3378 57.8915 69.0266ZM64.0508 67.5143C64.5827 67.0709 64.7197 66.7252 64.5696 66.2043C64.122 64.6501 62.7114 61.1362 62.4653 60.9621C61.9635 60.6072 55.6337 59.7086 55.4137 59.9611C53.9651 61.6236 51.989 64.1912 51.989 64.4108C51.989 64.5648 52.1433 65.0295 52.3319 65.4435C52.8578 66.5977 57.961 67.9578 62.2408 68.0844C62.9002 68.1039 63.6125 67.8795 64.0508 67.5143ZM68.877 67.3606C69.1651 66.6098 68.7536 65.9626 67.988 65.9626C67.1591 65.9626 66.7335 66.7848 67.2441 67.4C67.7141 67.9663 68.6533 67.9436 68.877 67.3606ZM73.8839 66.569C75.0762 66.3967 76.5791 66.0978 77.2235 65.9047C78.3077 65.5798 78.3952 65.4667 78.3952 64.3897C78.3952 63.3338 78.2617 63.1474 76.9565 62.3826C75.6619 61.6239 75.4016 61.5742 74.3575 61.8871C72.6872 62.3875 72.2455 62.3265 71.3969 61.4778C70.6761 60.757 70.5083 60.7295 67.873 60.9003L65.1059 61.0795L65.8238 62.6291C66.4762 64.0372 66.6438 64.1848 67.6604 64.2466C68.8296 64.3175 70.1633 65.2963 70.4889 66.3224C70.6973 66.9789 70.9303 66.9958 73.8839 66.569ZM81.6026 64.9055C81.8824 64.1764 81.0788 63.3725 80.3132 63.6155C79.6706 63.8195 79.4019 64.6911 79.845 65.1342C80.2191 65.5083 81.4318 65.3505 81.6026 64.9055ZM48.3761 63.0966C48.5988 62.7436 48.5714 62.4533 48.2826 62.1054C47.7324 61.4424 47.1087 61.4854 46.7193 62.2131C46.4758 62.668 46.5194 62.934 46.8997 63.3143C47.4704 63.885 47.9207 63.8186 48.3761 63.0966ZM73.6882 60.7171C74.3919 60.2711 73.9742 59.2937 73.0336 59.1851C72.3145 59.1021 72.182 59.2028 72.182 59.8323C72.182 60.9627 72.7625 61.3037 73.6882 60.7171ZM56.283 58.4142C56.4501 57.5378 55.7677 56.9044 55.063 57.2816C54.478 57.5946 54.2732 58.5128 54.6945 58.9341C55.0957 59.3353 56.1748 58.9822 56.283 58.4142ZM44.3503 57.7951C44.7641 57.1391 43.8938 56.1533 43.1521 56.4379C42.3525 56.7448 42.1878 57.6137 42.8391 58.0899C43.5185 58.5867 43.8976 58.5127 44.3503 57.7951ZM84.2978 64.2718C84.2978 64.0253 82.4804 62.6786 80.2592 61.2792C78.038 59.8797 76.2224 58.6485 76.2246 58.5431C76.2268 58.4377 77.52 58.0321 79.0983 57.6418C82.2623 56.8594 86.9567 54.7138 88.6471 53.2775L89.7344 52.3536L88.2281 51.0612H97.6562C97.6562 51.6948 96.1275 54.3814 94.8234 56.0398C92.411 59.1075 88.6217 62.4553 85.7117 64.0897C84.3748 64.8406 84.2978 64.8505 84.2978 64.2718ZM2.37376 49.0255C2.25918 48.8507 2.4674 48.1967 3.08969 47.0721C5.16416 43.323 8.91591 39.3247 12.792 36.7323C15.1383 35.163 15.9522 34.8828 15.9522 35.6446L23.8847 41.1269C23.957 41.2439 23.0056 41.5813 21.7705 41.8767C17.723 42.8448 12.3003 45.3835 10.8449 46.9917C10.1392 47.7581 10.2042 48.4603 11.9136 49.0255H2.37376ZM55.7316 43.766C54.4892 42.4435 52.5354 41.731 50.1509 41.731C48.292 41.731 47.7085 41.8806 45.9095 42.8183C43.5104 44.0688 42.9847 44.147 42.7597 43.2867C40.7265 40.8992 30.3186 41.6105 26.0487 41.5757L17.0622 35.3986C16.4859 34.6308 16.4843 34.578 17.0205 33.9855C18.2691 32.6058 25.0547 30.6546 30.3469 30.1535C37.7939 29.4483 46.9042 31.0685 53.2716 34.2305C55.4431 35.3088 55.5672 35.4288 55.8931 36.7622C56.3208 38.5124 56.7631 39.367 58.0941 41.0142L59.1465 42.3167L58.1762 43.4218C57.028 44.7296 56.6825 44.7782 55.7316 43.766ZM57.4255 42.3524C57.4255 41.783 57.2386 41.5491 56.7252 41.4762C56.3051 41.4166 55.9499 41.572 55.8376 41.8646C55.5283 42.6706 55.9618 43.3369 56.7252 43.2285C57.2386 43.1556 57.4255 42.9217 57.4255 42.3524ZM45.4421 42.0846C45.8496 41.3233 45.1513 40.3039 44.4156 40.5862C43.6994 40.861 43.4556 41.6474 43.915 42.201C44.4369 42.8298 45.069 42.7816 45.4421 42.0846ZM27.7541 40.337C28.3005 39.6786 27.9092 38.9351 27.0163 38.9351C26.1498 38.9351 25.8479 39.4601 26.2569 40.2554C26.5991 40.9207 27.2406 40.9557 27.7541 40.337ZM47.8523 34.5781C45.6274 31.8423 37.4248 31.3172 35.2406 32.8772L37.4417 38.7831L44.0842 40.1304C45.4471 39.0326 48.3402 35.908 47.8523 34.5781ZM34.8391 38.4751C34.8896 38.4277 34.6171 37.7429 34.2335 36.9533C33.6088 35.6674 33.4268 35.5178 32.4868 35.5178C31.4592 35.5178 30.2747 34.6314 29.466 33.2572C29.1763 32.7651 28.9556 32.762 26.204 33.2122C22.4001 33.8346 21.7378 34.1543 21.6354 35.4173C21.564 36.2971 21.721 36.5053 23.0905 37.348C24.5645 38.255 24.669 38.2744 25.7155 37.8372C27.2056 37.2145 27.5856 37.2582 28.5943 38.1677C29.4269 38.9185 29.5844 38.9449 32.1066 38.7575C33.5589 38.6496 34.7886 38.5226 34.8391 38.4751ZM53.3869 37.0711C53.3869 36.144 52.3136 35.8396 51.6907 36.5901C51.3656 36.9819 51.3656 37.1603 51.6907 37.5521C52.3136 38.3026 53.3869 37.9982 53.3869 37.0711ZM20.4289 35.6337C20.6465 35.0667 20.1197 34.2751 19.5248 34.2751C19.3103 34.2751 18.9608 34.4848 18.7481 34.7411C18.4396 35.1129 18.4396 35.3014 18.7481 35.6731C19.2593 36.289 20.1858 36.2673 20.4289 35.6337ZM32.5472 33.7759C33.1518 33.5439 33.1885 32.6117 32.612 32.1332C32.3773 31.9385 31.9579 31.8664 31.68 31.9731C31.0865 32.2008 30.9993 33.5313 31.5629 33.7587C31.7765 33.8449 31.9748 33.9265 32.0035 33.94C32.0323 33.9534 32.2769 33.8796 32.5472 33.7759Z" fill="white"/>
<path d="M50.1179 54.7691C52.8385 54.7691 55.044 52.5636 55.044 49.843C55.044 47.1225 52.8385 44.917 50.1179 44.917C47.3974 44.917 45.1919 47.1225 45.1919 49.843C45.1919 52.5636 47.3974 54.7691 50.1179 54.7691Z" fill="white"/>
<path d="M50.0467 42.4131C49.0704 42.4131 48.1036 42.6054 47.2017 42.979C46.2997 43.3526 45.4801 43.9002 44.7898 44.5906C44.0994 45.2809 43.5518 46.1005 43.1782 47.0024C42.8046 47.9044 42.6123 48.8712 42.6123 49.8475C42.6123 50.8238 42.8046 51.7905 43.1782 52.6925C43.5518 53.5945 44.0994 54.414 44.7898 55.1044C45.4801 55.7947 46.2997 56.3423 47.2017 56.716C48.1036 57.0896 49.0704 57.2819 50.0467 57.2818C51.023 57.2819 51.9897 57.0896 52.8917 56.716C53.7937 56.3423 54.6133 55.7947 55.3036 55.1044C55.9939 54.414 56.5416 53.5945 56.9152 52.6925C57.2888 51.7905 57.4811 50.8238 57.4811 49.8475C57.4811 48.8712 57.2888 47.9044 56.9152 47.0024C56.5416 46.1005 55.9939 45.2809 55.3036 44.5906C54.6133 43.9002 53.7937 43.3526 52.8917 42.979C51.9897 42.6054 51.023 42.4131 50.0467 42.4131ZM50.073 44.0032C51.6301 44.0032 53.1234 44.6217 54.2244 45.7228C55.3254 46.8238 55.944 48.3171 55.944 49.8742C55.944 51.4313 55.3254 52.9246 54.2244 54.0256C53.1234 55.1266 51.6301 55.7451 50.073 55.7451C48.5159 55.7451 47.0226 55.1266 45.9216 54.0256C44.8206 52.9246 44.202 51.4313 44.202 49.8742C44.202 48.3171 44.8206 46.8238 45.9216 45.7228C47.0226 44.6217 48.5159 44.0032 50.073 44.0032Z" fill="white"/>
<path d="M33.897 25.8331L38.0487 26.0247C50.4591 18.4405 79.5094 24.8666 79.5875 52.8089C82.355 21.432 47.5518 13.9674 33.897 25.8331Z" fill="white" fill-opacity="0.5"/>
<path d="M17.709 29.5117L22.4965 28.2772C42.8263 4.4593 82.728 16.8552 87.6359 46.3788C80.7169 2.32187 28.6273 4.88548 17.709 29.5117Z" fill="white" fill-opacity="0.5"/>
<path d="M77.6666 71.9358C57.3368 95.7537 18.1164 82.8469 13.2085 53.3232C20.1276 97.3802 71.5358 95.3276 82.4541 70.7013L77.6666 71.9358Z" fill="white" fill-opacity="0.5"/>
<path d="M66.6141 74.1037L62.4623 73.912C50.0519 81.4963 21.0016 75.0701 20.9235 47.1279C18.1561 78.5047 52.9592 85.9694 66.6141 74.1037Z" fill="white" fill-opacity="0.5"/>
</svg>
