<svg width="100" height="100" viewBox="0 0 100 100" fill="none" xmlns="http://www.w3.org/2000/svg">
<path d="M52.7799 87.5083L57.0367 90.1315C55.3982 75.4757 54.4016 60.7615 55.8779 45.8226L59.2244 47.5686C57.5155 64.2645 59.9371 80.9604 62.5843 97.6563C56.2268 95.8111 53.5936 92.0542 52.7799 87.5083ZM52.4969 85.8086C51.2344 72.1701 50.457 58.2737 51.4503 43.9424C51.7608 44.2001 52.1388 44.2913 52.2685 43.9531C52.457 43.462 51.9474 42.3469 51.5345 42.3469C51.3848 42.3469 51.2622 42.0928 51.2622 41.7823C51.2622 41.1374 51.3687 41.1039 52.1276 41.51C53.1645 42.0648 52.531 40.345 52.109 39.9477C51.2956 39.2116 51.3709 38.6232 52.2501 38.8438C53.1432 39.068 52.9427 38.7653 52.3207 37.4509C52.1051 36.9922 51.8154 36.5763 51.6322 35.996C51.2053 34.1517 51.4799 33.8394 52.5125 33.1064C54.4173 31.7634 54.0867 30.1426 52.9327 28.9261C51.5303 27.3454 52.3283 26.9973 53.4494 25.944C54.2107 27.0175 56.2205 28.5866 55.9371 29.8165C55.7685 31.4376 55.9666 32.7492 56.128 34.3876L59.7908 35.9443L58.6508 45.8443L55.011 44.1491C53.365 58.6542 53.6555 73.1592 55.4342 87.6643L52.4969 85.8086ZM59.0891 34.3696C56.964 33.4114 57.016 33.5078 56.8057 30.1431C56.7061 28.5485 56.512 27.7388 56.0862 27.1408C55.3166 26.0599 55.2517 24.1503 55.9411 22.8698C57.0662 20.78 56.4031 10.4991 55.0781 9.49031C53.6408 7.58491 54.4953 5.57795 55.0241 4.42987C55.8314 2.68268 56.1486 2.25118 56.5462 2.35929C56.8225 2.4344 57.3948 2.57282 57.8179 2.66689C58.4619 2.81004 58.816 3.30909 59.9895 5.72741C61.6368 9.12182 61.8089 9.7425 62.3985 14.4129C63.1588 20.4359 62.905 35.6466 62.0458 35.5504L59.0891 34.3696ZM57.82 3.95577C55.9638 3.69991 56.2363 3.59078 55.2515 6.89204C55.3401 6.96178 58.8697 7.77165 59.5373 7.87539C59.8791 7.06758 58.225 4.0911 57.82 3.95577Z" fill="white"/>
<path d="M41.8082 82.3108L35.3459 83.4153L39.1926 80.9526L34.7257 77.571L20.2812 83.3539L36.2101 72.242C38.974 74.9578 43.4056 78.3749 48.4412 79.6405L49.2577 84.6275C46.6436 84.1172 44.1701 83.3257 41.8082 82.3108ZM64.4329 83.8586L63.62 79.3364C77.0699 76.7284 83.288 59.9029 82.0711 56.2556C76.1243 61.0044 74.6201 73.5601 63.0651 75.271C62.2358 67.8559 61.8313 60.4407 61.8586 53.0256L90.9784 32.4871L83.8328 41.7333C84.9881 43.4739 85.5436 45.4543 85.9935 47.477L93.3246 42.0064L86.4798 50.4764L86.4295 54.6386C85.969 72.5519 76.0751 80.0821 64.4329 83.8586ZM81.5475 50.4145C81.4526 49.2119 80.8497 46.1444 80.1604 45.3935L77.5352 48.5129L78.3901 52.776L81.5475 50.4145ZM6.73279 83.0538L25.3076 62.4499L24.6708 58.8643L16.6118 65.0105L24.5151 53.9316C25.8343 38.5123 35.5435 27.5223 51.0179 23.8182C51.0916 23.8919 50.7003 24.4261 50.1484 25.0054C48.7892 26.4321 48.5307 26.9914 48.7984 27.9251C49.0201 28.698 48.9909 28.7207 46.8601 29.4307C40.0702 32.7846 29.7326 37.0668 29.6275 58.783L32.9178 55.4137C32.994 45.2612 38.2348 35.7349 47.9105 32.8182C48.5396 32.6418 48.5688 32.6825 48.3528 33.4368C48.2257 33.8809 48.1489 34.6253 48.1822 35.091C48.3678 37.6886 48.3336 40.534 48.1101 41.0866C47.9512 41.4795 47.9619 41.9608 48.1385 42.3565C48.3065 42.733 48.3275 43.3402 48.1899 43.8407L47.4868 53.6679L6.67608 83.166C6.67115 83.1466 6.68921 83.0538 6.73279 83.0538ZM39.2079 69.3855L47.424 63.4781L48.0545 75.3013C44.4717 73.7256 41.6518 71.6731 39.2079 69.3855ZM62.5173 40.2111C62.6659 39.1269 62.7995 38.9 63.2935 38.8925C64.5284 38.874 65.5815 37.4677 65.8761 35.4438C65.9834 34.7064 66.1521 34.1088 66.2509 34.1157C66.5887 34.1392 70.3386 36.7951 70.4256 37.0724L62.393 43.0088C62.2548 42.1213 62.4013 41.0736 62.5173 40.2111ZM66.2894 30.39L66.4251 25.3531C69.3997 26.4005 72.0719 27.8259 74.4755 29.587L86.914 23.7154L73.2454 34.2398C71.1147 32.5807 68.8471 31.1952 66.2894 30.39ZM66.2483 18.2384L74.464 14.9932L66.3602 21.391L66.2483 18.2384Z" fill="white" fill-opacity="0.5"/>
</svg>
