<svg width="100" height="100" viewBox="0 0 100 100" fill="none" xmlns="http://www.w3.org/2000/svg">
<path d="M39.3684 92.3382C41.3989 82.4127 43.6062 72.3699 41.9365 62.371C39.9935 52.3257 34.7182 42.8104 22.647 39.7769C25.8743 33.0007 31.2412 29.434 37.0455 26.5234C34.7044 35.4748 35.6552 42.3525 47.0296 45.6597L49.835 62.371L52.8706 45.6597C61.4681 43.0511 66.2918 37.8419 62.6594 26.5241C68.2517 30.5223 73.474 34.7849 77.131 40.1655C67.3139 43.7516 58.6209 52.7571 57.6402 62.371C56.6041 69.1483 57.6614 82.4783 60.0389 92.3382C60.6425 95.2549 60.4439 95.6333 57.4546 97.6563C56.0368 94.4613 53.689 92.6066 50.059 92.5998C50.059 92.5998 43.0324 92.3602 42.353 97.6563C39.1249 95.5112 38.6541 95.0222 39.3684 92.3382ZM50.9203 81.2527L49.835 71.391L48.7776 81.3492C47.0579 91.5408 52.9492 91.1307 50.9203 81.2527ZM35.1865 85.9338C32.715 70.8053 12.1182 74.4987 5.20508 63.4362C11.8075 57.0939 14.1622 48.4457 14.3352 38.6132C16.5138 38.6132 29.6647 45.6106 29.6647 46.7697C27.7353 55.2463 28.6751 62.2883 39.9263 64.1745C41.5671 69.7563 40.3187 83.0641 35.1865 85.9338ZM36.3601 65.3942C29.0236 64.1088 24.6428 56.5725 25.8691 49.0191C21.054 49.3755 17.0298 50.8105 14.238 53.926C14.238 53.926 20.5904 51.6593 22.917 54.0205C19.5848 55.3303 15.5311 58.1396 14.8367 61.4892C16.515 60.3874 19.4694 58.6982 23.3821 59.0087C19.9361 60.8205 17.9472 63.3609 17.2353 66.5398C20.7284 64.1132 24.4747 63.3749 28.3576 63.5471C25.5483 64.5665 23.3036 69.5662 24.0416 69.8429C26.1554 67.0365 29.0666 66.193 32.3742 66.325C30.174 67.7888 30.6086 69.7405 30.8099 71.6489C31.8793 69.2469 33.8187 67.1982 36.3601 65.3942ZM45.4195 33.3446H54.1354L49.835 43.1866L45.4195 33.3446ZM55.8548 33.3294L60.7442 31.1296L50.7326 43.1866L55.8548 33.3294ZM38.9002 31.1296L43.7165 33.3446L48.9353 43.1866L38.9002 31.1296ZM45.3133 32.0681L45.8535 28.9132H53.6106L54.0188 32.0681H45.3133ZM38.9002 29.8993L40.8643 27.4802L44.6024 28.9132L43.706 32.0681L38.9002 29.8993ZM54.4647 28.9132L59.3803 27.4802L60.6499 29.8993L55.7257 32.0681L54.4647 28.9132ZM45.8537 27.4642L40.8643 26.7593L45.8535 26.1064H53.6106L59.3803 26.7778C59.5931 26.8068 55.5081 27.15 53.6106 27.4931L45.8537 27.4642Z" fill="white"/>
<path d="M80.3089 23.8665C80.0225 18.5293 96.3449 13.9893 92.367 2.34375C80.3885 12.7298 67.1497 15.5376 51.3486 12.3775C52.4871 19.2179 58.9503 22.7575 63.6667 24.9305C72.422 28.3779 75.7084 34.259 79.6189 38.8878C84.0346 34.1707 80.4913 28.7482 80.3089 23.8665Z" fill="white"/>
<path d="M18.8638 23.8665C19.1502 18.5293 2.82779 13.9893 6.80567 2.34375C18.7842 12.7298 32.023 15.5376 47.824 12.3775C46.6856 19.2179 40.2224 22.7575 35.5059 24.9305C26.7507 28.3779 23.4643 34.259 19.5538 38.8878C15.1381 34.1707 18.6814 28.7482 18.8638 23.8665Z" fill="white"/>
<path d="M64.8138 85.9339C67.2854 70.8054 87.8821 74.4988 94.7953 63.4363C88.1929 57.094 85.8381 48.4458 85.6651 38.6133C83.4866 38.6133 70.3356 45.6107 70.3356 46.7698C72.2651 55.2464 71.3253 62.2883 60.0741 64.1746C58.4333 69.7564 59.6817 83.0642 64.8138 85.9339ZM63.6403 65.3942C70.9768 64.1089 75.3576 56.5726 74.1313 49.0192C78.9464 49.3756 82.9706 50.8105 85.7624 53.9261C85.7624 53.9261 79.41 51.6594 77.0834 54.0206C80.4156 55.3304 84.4693 58.1397 85.1637 61.4893C83.4854 60.3875 80.531 58.6983 76.6182 59.0088C80.0642 60.8206 82.0532 63.361 82.7651 66.5398C79.272 64.1133 75.5257 63.375 71.6428 63.5472C74.4521 64.5665 76.6968 69.5663 75.9588 69.843C73.845 67.0366 70.9338 66.1931 67.6262 66.3251C69.8264 67.7889 69.3918 69.7405 69.1905 71.649C68.1211 69.2469 66.1817 67.1983 63.6403 65.3942Z" fill="white"/>
</svg>
