<svg width="100" height="100" viewBox="0 0 100 100" fill="none" xmlns="http://www.w3.org/2000/svg">
<path d="M87.7242 72.2783C62.7005 83.6624 37.7121 83.6385 12.2892 72.2787L12.2891 83.1351C38.7965 99.0838 63.8537 98.0841 87.7242 83.1351V72.2783ZM30.1967 81.1206C32.3887 81.1207 34.1657 82.8038 34.1656 84.8799C34.1655 86.9559 32.3886 88.6388 30.1967 88.6389C28.0048 88.6388 26.2279 86.9559 26.2278 84.8799C26.2277 82.8038 28.0047 81.1207 30.1967 81.1206ZM69.6936 81.1677C71.8856 81.1675 73.6627 82.8505 73.6629 84.9266C73.663 87.0029 71.8858 88.6861 69.6936 88.6859C67.5016 88.6859 65.7246 87.0028 65.7247 84.9266C65.7248 82.8506 67.5017 81.1677 69.6936 81.1677ZM50.0104 82.284L55.7074 87.4761L50.0105 92.8388L44.5018 87.4761L50.0104 82.284Z" fill="white"/>
<path d="M29.9141 11.8539V2.34375L50.0099 13.3753L69.1562 2.34375V11.8663L50.0099 22.9198L29.9141 11.8539Z" fill="white" fill-opacity="0.8"/>
<path d="M34.3604 29.2749V23.2119L50.0103 32.0395L66.1509 23.2119V29.2304L50.0103 38.4334L34.3604 29.2749Z" fill="white" fill-opacity="0.7"/>
<path d="M37.2461 44.5819V39.8496L50.0103 46.8109L62.9077 39.8496V44.5776L50.0103 51.9444L37.2461 44.5819Z" fill="black" fill-opacity="0.6"/>
<path d="M15.251 65.0774C20.3966 58.7003 35.4652 54.6129 42.6181 55.5452C44.0246 55.9575 43.4155 57.5742 42.5928 57.848C36.9742 58.7678 27.7019 62.8115 23.6814 68.2406L15.251 65.0774Z" fill="white" fill-opacity="0.5"/>
<path d="M12.2891 71.3091V68.3516C37.7761 81.5546 62.8962 80.5929 87.724 68.3516C87.8241 68.3516 87.724 70.6217 87.724 71.3091C61.906 82.8855 36.7885 82.4132 12.2891 71.3091Z" fill="white"/>
<path d="M12.2314 87.271V84.3135C38.3876 99.9253 63.4881 98.8934 87.6664 84.3135C87.7665 84.3135 87.6664 86.5836 87.6664 87.271C61.7143 101.396 36.6012 100.838 12.2314 87.271Z" fill="white"/>
<path d="M85.0017 65.1281C79.856 58.751 64.7875 54.6637 57.6346 55.596C56.228 56.0083 56.8372 57.625 57.6598 57.8987C63.2784 58.8186 72.5507 62.8622 76.5712 68.2914L85.0017 65.1281Z" fill="white" fill-opacity="0.5"/>
</svg>
