<svg width="100" height="100" viewBox="0 0 100 100" fill="none" xmlns="http://www.w3.org/2000/svg">
<path d="M53.4941 2.34375C53.2656 2.34398 52.9408 2.55646 52.5079 2.97114C51.784 3.66473 51.4492 3.7742 50.0515 3.7742C48.711 3.7742 48.256 3.63899 47.4004 2.98636C46.0426 1.95074 45.695 2.20161 45.9135 4.06095C46.0303 5.05409 45.9499 5.92546 45.6671 6.72685C45.4361 7.38158 45.2471 8.16642 45.2471 8.47121C45.2471 9.41381 46.0982 10.8772 46.7413 11.04C47.0779 11.1252 47.7957 11.5737 48.3363 12.0369C49.6185 13.1353 50.2782 13.1121 51.7065 11.9188C52.3536 11.3781 53.0576 10.9359 53.2707 10.9359C53.7955 10.9359 54.5152 9.47705 54.5152 8.4132C54.5152 7.93716 54.3442 7.13891 54.1355 6.63922C53.9005 6.07678 53.8058 5.1312 53.8866 4.15681C53.9881 2.9326 53.8749 2.34338 53.4941 2.34375ZM52.0402 7.16418C52.2677 7.17745 52.5005 7.25199 52.7079 7.40361C53.1409 7.72021 53.1404 7.77706 52.7009 8.21655C52.1205 8.79691 51.1823 8.83192 50.9709 8.28114C50.7237 7.63686 51.3578 7.12435 52.0402 7.16418ZM48.0825 7.19051C48.5282 7.20164 48.9662 7.41656 49.1032 7.77347C49.1898 7.99932 49.0847 8.29561 48.8691 8.43212C48.2855 8.80162 47.8686 8.74285 47.3424 8.21655C46.9029 7.77706 46.9024 7.72021 47.3354 7.40361C47.5448 7.25045 47.815 7.18383 48.0825 7.19051Z" fill="white"/>
<path d="M36.6289 46.1244L44.5017 47.0288H54.5292L63.0667 46.1244L56.4176 44.9541H43.3581L36.6289 46.1244Z" fill="white" fill-opacity="0.5"/>
<path d="M51.0888 48.374H48.9072V57.7023H51.0888V48.374Z" fill="white" fill-opacity="0.5"/>
<path d="M36.5752 60.1146L44.448 61.019H54.4755L63.013 60.1146L56.3638 58.9443H43.3044L36.5752 60.1146Z" fill="white" fill-opacity="0.5"/>
<path d="M49.0908 13.543L49.0909 16.3453L50.074 15.4615L50.9952 16.3453V13.543C50.2799 13.8146 49.756 13.7978 49.0908 13.543Z" fill="white" fill-opacity="0.5"/>
<path d="M53.1982 18.0112L55.1398 19.8198L73.5717 11.9736L53.1982 18.0112Z" fill="white" fill-opacity="0.5"/>
<path d="M46.7624 18.0373L44.8208 19.7927L26.4688 12.4785L46.7624 18.0373Z" fill="white" fill-opacity="0.5"/>
<path d="M43.0479 37.0559L50.0392 25.7373L56.8084 37.0559H43.0479Z" fill="white"/>
<path d="M50.0736 17.3535L74.6936 36.9113L50.0736 20.0219L25.3066 36.9113C31.8279 30.6695 42.3828 23.4176 50.0736 17.3535Z" fill="white"/>
<path d="M59.1863 37.0559L51.1982 25.7373L67.3086 39.9939L59.1863 37.0559Z" fill="white"/>
<path d="M32.6084 40.08L48.9022 25.7373L40.0515 37.0559L32.6084 40.08Z" fill="white"/>
<path d="M43.0479 39.3018H56.8084L55.9094 43.5147L43.866 43.5146L43.0479 39.3018Z" fill="white"/>
<path d="M57.6318 43.5146L59.1868 39.3018L67.3091 42.1907L64.7669 45.0781L57.6318 43.5146Z" fill="white"/>
<path d="M32.6084 42.2553L40.3416 39.3018L42.1057 43.5146L35.1259 45.0781L32.6084 42.2553Z" fill="white"/>
<path d="M57.6631 62.4612L64.9911 60.8984L67.3193 63.7478L60.1648 66.2643L57.6631 62.4612Z" fill="white"/>
<path d="M32.5225 63.7478L34.6049 60.8984L42.0715 62.4612L40.052 66.2643L32.5225 63.7478Z" fill="white"/>
<path d="M42.7207 66.2641L43.7533 62.4609H55.8903L56.834 66.2641H42.7207Z" fill="white"/>
<path d="M51.1768 80.3874L60.1648 68.2123L67.3193 65.7734L51.1768 80.3874Z" fill="white"/>
<path d="M32.5225 65.6992L40.052 68.3035L48.8347 80.3875L32.5225 65.6992Z" fill="white"/>
<path d="M43.001 68.9851L56.7627 68.8965L50.0393 80.3877L43.001 68.9851Z" fill="white"/>
<path d="M25.3066 69.5879L50.0389 86.4856L74.6936 69.5879L50.0389 88.8989L25.3066 69.5879Z" fill="white"/>
<path d="M48.9968 93.1074L48.3848 93.7201L49.7541 97.6561H50.3529L51.6308 93.7201L51.0309 93.1074V90.2617L50.039 91.1265L48.9968 90.2617V93.1074Z" fill="white" fill-opacity="0.5"/>
<path d="M55.0766 86.8721L53.083 88.6587L73.3758 91.5926L55.0766 86.8721Z" fill="white" fill-opacity="0.5"/>
<path d="M44.9208 86.9287L46.7827 88.5837L26.6592 91.5364L44.9208 86.9287Z" fill="white" fill-opacity="0.5"/>
<path d="M50.0732 22.0439L27.3164 41.4533V64.4346L50.0385 84.145L72.5289 64.4346V41.4533L50.0732 22.0439ZM50.0732 23.2769L71.4969 41.9214V64.05L50.0385 82.6948L28.3831 64.05V41.9213L50.0732 23.2769Z" fill="url(#paint0_radial_551_711)"/>
<defs>
<radialGradient id="paint0_radial_551_711" cx="0" cy="0" r="1" gradientUnits="userSpaceOnUse" gradientTransform="translate(49.9228 53.0945) rotate(46.1475) scale(38.5422 39.8745)">
<stop stop-color="white" stop-opacity="0.501961"/>
<stop offset="1" stop-color="white"/>
</radialGradient>
</defs>
</svg>
