<svg width="100" height="100" viewBox="0 0 100 100" fill="none" xmlns="http://www.w3.org/2000/svg">
<path d="M49.9999 2.34375C27.3941 2.34386 9.06864 20.6696 9.06885 43.2753C9.08995 57.9854 17.0029 71.5529 29.796 78.8139L32.1968 76.6986C19.5318 70.1971 11.5622 57.163 11.547 42.9268C11.5469 21.9358 28.5635 4.91929 49.5544 4.91932C70.5454 4.91929 87.562 21.9358 87.5619 42.9268C87.5436 56.7168 80.0573 69.4151 68.0001 76.1076L67.9852 79.9873C82.0094 73.1275 90.91 58.8873 90.9314 43.2753C90.9316 20.6694 72.6058 2.34354 49.9999 2.34375ZM55.6417 80.4264C51.6871 81.0612 47.8007 81.0502 44.1241 80.4969L41.7469 83.3195C47.0973 84.4061 52.4122 84.4206 57.3941 83.5018L55.6417 80.4264Z" fill="white" fill-opacity="0.501961"/>
<path d="M29.4491 18.585C25.6669 21.5749 22.6128 25.3651 20.5122 29.6761C18.4117 33.9871 17.3182 38.7088 17.3125 43.4928C17.3198 49.2016 18.8758 54.8043 21.8188 59.7183C24.7617 64.6322 28.9842 68.6779 34.0471 71.4348L36.3205 69.3063C31.5056 66.8574 27.466 63.1476 24.6438 58.5831C21.8217 54.0186 20.3259 48.7753 20.3203 43.4274C20.3235 39.4629 21.1458 35.5408 22.7369 31.9008C24.328 28.2609 26.6545 24.9798 29.5741 22.2583C29.5115 20.4736 29.4906 19.8052 29.4491 18.585ZM70.4661 19.047L69.902 22.1029C72.8766 24.8255 75.2509 28.1242 76.8769 31.7932C78.5029 35.4621 79.3456 39.4226 79.3525 43.4274C79.3462 48.6588 77.9139 53.792 75.2061 58.2884C72.4982 62.7849 68.6146 66.4787 63.9627 68.9824L66.1748 70.9401C71.0018 68.1154 75.002 64.1001 77.7829 59.2882C80.5639 54.4762 82.0301 49.0331 82.0375 43.4928C82.0313 38.8313 80.9922 34.2277 78.9933 30.0047C76.9944 25.7817 74.0839 22.0417 70.4661 19.047Z" fill="white" fill-opacity="0.501961"/>
<path d="M32.9121 27.2842C28.6677 31.6017 26.2936 37.382 26.2935 43.3991C26.2991 47.1048 27.206 50.7549 28.938 54.0423C30.67 57.3298 33.1763 60.1584 36.246 62.2902L37.0669 60.1698C34.3748 58.2176 32.185 55.6679 30.6742 52.7266C29.1634 49.7852 28.3738 46.5343 28.3692 43.2363C28.3791 37.8806 30.4566 32.7302 34.1784 28.8342L32.9121 27.2842ZM66.8324 27.6276L65.2583 28.8944C68.9401 32.7859 70.991 37.9109 70.9975 43.2363C70.9965 46.4249 70.2618 49.5716 68.8488 52.4387C67.4358 55.3058 65.3814 57.8185 62.8409 59.7868L62.9464 62.5023C66.0941 60.3786 68.6695 57.5287 70.4491 54.1997C72.2288 50.8708 73.1591 47.1634 73.1592 43.3991C73.1485 37.5406 70.8874 31.9042 66.8324 27.6276Z" fill="white" fill-opacity="0.501961"/>
<path d="M29.1147 86.4275L34.4082 80.243C36.533 77.5762 40.6592 80.5264 38.1855 83.2791L32.8359 89.5197L29.1147 86.4275Z" fill="white"/>
<path d="M28.2501 87.5537L25.9962 90.1218C25.2189 90.0708 24.3465 91.0281 24.5287 91.7728C24.7277 92.8448 24.0695 92.8453 23.4544 92.8997C22.6988 92.923 21.0392 92.8506 21.0698 93.3979V96.2801L22.4455 97.6559H24.9741L25.4785 97.1515H27.8569L28.2731 97.5676H30.8441V97.2758L31.8661 96.3065V93.1353C31.8876 92.7738 31.3441 92.7376 31.2637 93.1353C30.9142 93.9675 30.4003 93.4533 30.3723 93.1353C30.3065 92.6222 30.5411 92.1458 30.949 91.7728L31.8661 90.8298L28.2501 87.5537ZM28.2937 91.767C28.7277 91.7744 29.2362 92.0265 29.8008 92.6962C30.5396 93.6541 30.1854 94.7338 28.9294 94.197C28.3886 94.1176 28.1072 94.3721 27.9102 94.7347C27.056 96.3825 26.5544 94.1838 26.6875 93.4374C26.7422 92.9198 27.3389 91.7508 28.2937 91.767Z" fill="white"/>
<path d="M39.9633 79.9282C40.4609 78.1898 40.916 76.4277 43.5796 75.8926C44.2397 75.7251 44.1207 76.2192 45.0733 75.3685L47.6676 73.01C46.8397 70.8294 45.1442 69.4399 42.6362 68.791L37.2642 73.1149L37.5262 78.0153L39.9633 79.9282Z" fill="white"/>
<path d="M70.719 86.4275L65.4256 80.243C63.3008 77.5762 59.1746 80.5264 61.6483 83.2791L66.9979 89.5197L70.719 86.4275Z" fill="white"/>
<path d="M71.5834 87.5537L73.8374 90.1218C74.6146 90.0708 75.487 91.0282 75.3049 91.7728C75.1059 92.8448 75.7641 92.8453 76.3791 92.8997C77.1347 92.923 78.7944 92.8506 78.7638 93.3979V96.2801L77.388 97.6559H74.8595L74.355 97.1515H71.9766L71.5605 97.5676H68.9895V97.2759L67.9674 96.3065V93.1353C67.946 92.7738 68.4894 92.7376 68.5699 93.1353C68.9193 93.9675 69.4332 93.4533 69.4613 93.1353C69.5271 92.6222 69.2924 92.1458 68.8846 91.7728L67.9674 90.8298L71.5834 87.5537ZM71.5398 91.767C71.1058 91.7748 70.5974 92.0265 70.0327 92.6962C69.2939 93.6541 69.6482 94.7338 70.9041 94.197C71.4449 94.1176 71.7263 94.3721 71.9233 94.7347C72.7775 96.3826 73.2791 94.1838 73.146 93.4374C73.0913 92.9198 72.4946 91.7508 71.5398 91.767Z" fill="white"/>
<path d="M59.8699 79.9282C59.3723 78.1898 58.9172 76.4277 56.2535 75.8926C55.5935 75.7251 55.7125 76.2192 54.7598 75.3685L52.1655 73.01C52.9935 70.8294 54.689 69.4399 57.1969 68.791L62.569 73.1149L62.3069 78.0152L59.8699 79.9282Z" fill="white"/>
<path d="M45.8841 67.1064C48.4285 68.0107 50.9988 67.981 53.5926 67.1064L54.2225 68.107C52.2756 69.0774 51.6637 70.6126 50.9613 72.1095H48.7007C48.0507 70.4102 46.8396 69.1667 45.4023 68.107L45.8841 67.1064Z" fill="white"/>
<path d="M46.2548 38.793V39.7938C42.8126 39.7351 41.735 43.7125 41.8816 47.0912V63.1413C41.8499 67.4285 57.4656 67.718 57.3711 63.1413V47.0912C57.5197 43.1284 56.4148 39.8486 53.222 39.9045V38.793H46.2548ZM48.8206 44.499H50.7077C52.1014 44.499 53.2231 45.6207 53.2231 47.0144V55.8193C53.2231 57.213 52.1014 58.3353 50.7077 58.3353H48.8206C47.4269 58.3353 46.3053 57.213 46.3053 55.8193V47.0144C46.3053 45.6207 47.4269 44.499 48.8206 44.499Z" fill="white"/>
<path d="M47.3296 34.7168H52.2215V37.1627H47.3296V34.7168Z" fill="white"/>
<path d="M46.8111 33.0115H52.6295L55.5943 26.4519C56.3036 24.5294 56.8656 23.9164 59.3373 23.8947L64.1551 23.8947L66.3787 22.3013V16.8164L63.8586 15.5934H55.2978V12.258C55.3417 9.86927 51.6069 9.78205 51.5547 12.258V15.5934H47.8488V13.1845H42.1045V15.5934H35.3967L32.9878 16.8164V22.3013L35.3596 23.8947H40.4368C41.8271 23.8693 43.1579 24.29 44.0029 26.4519L46.8111 33.0115Z" fill="white"/>
<path d="M42.1782 12.1098C42.8557 9.69093 46.9036 9.14792 47.7187 12.1098H42.1782Z" fill="white"/>
</svg>
