<svg width="100" height="100" viewBox="0 0 100 100" fill="none" xmlns="http://www.w3.org/2000/svg">
<path d="M45.41 2.37971V15.2117L41.879 18.9636L41.8791 50.2907C39.8072 52.4622 38.5323 55.4007 38.5323 58.639C38.5374 64.192 42.3228 69.0283 47.7117 70.3683V91.552H53.45V70.3908C58.8871 69.0882 62.7237 64.23 62.7303 58.639C62.7303 55.143 61.2455 51.9951 58.8745 49.7863V18.9636L55.6494 15.2117V2.37971H45.41ZM60.502 2.34375V13.0174L82.3049 33.7666L88.0086 31.9159L60.502 2.34375ZM40.0142 4.36915L11.9917 33.1061L18.1015 35.1178L40.344 14.8258L40.0142 4.36915ZM50.6421 52.0041C54.0935 52.0042 56.8913 54.802 56.8914 58.2534C56.8916 61.7049 54.0936 64.503 50.6421 64.5031C47.1905 64.5032 44.3923 61.705 44.3924 58.2534C44.3925 54.8019 47.1906 52.004 50.6421 52.0041Z" fill="white"/>
<path d="M81.3882 48.2652L84.122 45.5215V87.4067L81.3882 90.166V48.2652Z" fill="black" fill-opacity="0.501961"/>
<path d="M17.0737 87.6108V45.7256L19.9172 48.4693V90.3701L17.0737 87.6108Z" fill="black" fill-opacity="0.501961"/>
<path d="M73.3452 61.9014H76.1211V95.3494L73.3452 97.6567V61.9014Z" fill="black" fill-opacity="0.501961"/>
<path d="M24.522 95.3489L24.522 61.8594H27.5919V97.6562L24.522 95.3489Z" fill="black" fill-opacity="0.501961"/>
</svg>
