<svg width="100" height="100" viewBox="0 0 100 100" fill="none" xmlns="http://www.w3.org/2000/svg">
<path d="M75.0085 11.3049C73.6322 10.8665 70.7776 9.99192 68.6649 9.36142C59.5889 6.65281 58.6424 6.3228 58.5021 5.8179C58.1266 4.46605 57.9575 2.51461 58.2031 2.36654C58.3538 2.27564 59.379 2.46496 60.4813 2.78725C61.5836 3.10954 64.214 3.85518 66.3267 4.44423C68.4394 5.03328 71.3705 5.86746 72.8402 6.29796C74.3099 6.72845 76.986 7.5046 78.787 8.02272L82.0616 8.96477L80.9582 9.8706C80.3513 10.3688 79.3273 11.0747 78.6828 11.4392L77.5108 12.1021L75.0085 11.3049Z" fill="white"/>
<path d="M42.7778 20.8197C38.185 19.5464 33.2658 18.1822 31.8462 17.7881C30.4266 17.3941 29.3398 16.9507 29.4311 16.803C29.5225 16.6552 30.0075 16.3239 30.5091 16.0666C31.0106 15.8093 32.2477 15.1391 33.2581 14.5772C34.2686 14.0154 36.2226 12.929 37.6005 12.1631L40.1056 10.7705L49.1243 13.4857C54.0846 14.9791 59.4092 16.6133 60.9568 17.1174L63.7706 18.0339L62.6269 18.8312C61.9979 19.2697 60.8925 20.1253 60.1705 20.7325C59.145 21.5949 58.5534 21.8364 57.4666 21.8364C56.7015 21.8364 55.1879 22.1334 54.103 22.4963C53.0181 22.8592 51.9051 23.1513 51.6295 23.1455C51.3539 23.1396 47.3707 22.093 42.7778 20.8197Z" fill="white" fill-opacity="0.501961"/>
<path d="M42.9069 34.8378C38.2193 33.8622 32.3802 32.6333 26.4108 31.366C23.2876 30.703 18.5528 29.7124 15.889 29.1648C13.2251 28.6171 10.7944 28.0596 10.4873 27.9258C10.0814 27.749 11.8608 26.5962 17.0007 23.706L24.0726 19.7295L36.4755 22.8625L48.8784 25.9954L47.8759 27.7719C46.8412 29.6052 46.6769 30.3745 46.6406 33.5558C46.6158 35.7154 46.8075 35.6496 42.9069 34.8378Z" fill="white" fill-opacity="0.501961"/>
<path d="M87.3703 39.4354C85.7571 38.7922 85.524 38.5809 85.4576 37.7019C85.1192 33.2218 84.6186 27.3267 84.2804 23.8409C84.0576 21.5445 83.8725 19.5762 83.8692 19.4668C83.8575 19.0888 87.7282 15.7369 87.9362 15.9448C88.1326 16.1413 88.4937 21.2299 88.8758 29.1853C88.9684 31.1143 89.2023 34.2547 89.3955 36.1639C89.5888 38.0732 89.6255 39.7551 89.4772 39.9015C89.3288 40.048 88.3807 39.8382 87.3703 39.4354Z" fill="white"/>
<path d="M55.5036 52.5239C55.1933 51.0537 54.3018 45.3071 54.3018 44.7769C54.3018 44.3093 54.4267 44.303 55.4264 44.7207C57.0007 45.3785 61.7909 45.2183 63.2911 44.4577C63.918 44.1398 64.4893 43.9381 64.5606 44.0095C64.8434 44.2923 66.0794 51.5898 65.8785 51.7907C65.7603 51.9089 64.7231 52.0627 63.5735 52.1325C62.4239 52.2023 61.2578 52.3489 60.9822 52.4583C60.7067 52.5678 60.0303 52.6911 59.4791 52.7323C58.928 52.7736 57.8456 52.9217 57.0739 53.0614C55.7741 53.2968 55.6584 53.2572 55.5036 52.5239Z" fill="white" fill-opacity="0.501961"/>
<path d="M72.4411 62.9697L72.0956 61.2224L73.5536 60.0277C74.6031 59.1677 75.0115 58.5867 75.0115 57.9536C75.0115 56.9709 73.5879 54.8283 71.3602 52.4583C69.9194 50.9255 69.8551 50.7617 68.9405 46.2974C67.9888 41.6522 67.9649 40.622 68.7894 39.7975C69.2743 39.3126 70.4421 35.6747 70.2428 35.2698C70.178 35.1383 70.473 34.6979 70.8982 34.2911C71.3234 33.8843 71.6713 33.6039 71.6713 33.668C71.6713 33.7321 72.3101 33.1997 73.0909 32.485C74.33 31.3508 74.5415 31.2602 74.7542 31.7721C74.8882 32.0946 75.7629 35.7405 76.698 39.8741C77.6331 44.0076 78.7621 48.9679 79.207 50.8969C79.6519 52.8259 80.0172 54.4869 80.0189 54.588C80.0208 54.6892 78.6042 56.6929 76.8716 59.0407C75.1389 61.3885 73.511 63.6262 73.254 64.0133C72.8132 64.6772 72.767 64.618 72.4411 62.9697Z" fill="white" fill-opacity="0.501961"/>
<path d="M59.658 81.6155C59.6513 81.15 59.2727 78.5196 58.8165 75.7701C58.0777 71.3169 58.0432 70.7344 58.5003 70.4369C58.7826 70.2532 60.0953 69.2989 61.4174 68.3164C62.7395 67.3338 64.1219 66.4037 64.4893 66.2495C64.8567 66.0952 65.8338 65.5101 66.6605 64.9493C67.4872 64.3884 68.1992 64.0409 68.2427 64.177C68.2863 64.3131 68.5383 65.5518 68.8028 66.9296L69.2837 69.4348L67.9643 71.272C63.0656 78.0925 61.2451 80.5802 60.5088 81.4597L59.67 82.4618L59.658 81.6155Z" fill="white" fill-opacity="0.501961"/>
<path d="M58.7155 33.256C57.9691 32.6087 57.9689 32.6057 58.6597 32.4251C59.3577 32.2426 59.8299 32.8098 59.5868 33.5388C59.5125 33.7618 59.1707 33.6509 58.7155 33.256Z" fill="white"/>
<path d="M83.5711 10.21L81.1511 11.8427C79.8202 12.7408 78.6457 13.6141 78.5412 13.7833C78.4366 13.9524 77.7534 14.0105 77.0224 13.9124C75.425 13.6982 75.6623 13.5554 68.0478 19.3015C59.1633 26.006 59.9947 25.4856 58.4767 25.289C57.5715 25.1718 56.5301 25.3463 55.2464 25.8292C51.5837 27.2071 49.3792 31.0885 50.2747 34.5826L50.7141 36.2976L49.3695 37.5013C48.6299 38.1633 46.4272 39.955 44.4751 41.4827L40.9263 44.2604L42.1025 45.6348C42.7495 46.3907 43.2788 47.1321 43.2788 47.2827C43.2788 47.8005 43.9884 47.5551 45.2193 46.6114C47.6423 44.754 53.0938 40.7046 53.5177 40.4473C53.7679 40.2955 54.5331 40.4827 55.3374 40.8931C57.5845 42.0394 59.8425 42.1138 62.031 41.1128C64.9008 39.8 66.64 37.2909 66.6797 34.4055C66.6968 33.1698 66.8611 32.899 68.266 31.7956C69.1282 31.1185 71.412 29.2737 73.341 27.6963C75.27 26.1189 77.9339 23.9673 79.2605 22.915C81.4743 21.1588 81.6734 20.8994 81.682 19.7536C81.6909 18.6094 81.9013 18.3329 84.2062 16.4411C85.5892 15.306 86.6789 14.2899 86.6277 14.1825C86.5767 14.0752 85.8683 13.1374 85.0532 12.0986L83.5711 10.21ZM58.7728 28.8525C62.7314 28.8561 64.8209 33.2251 62.1954 36.0089C61.2369 37.0252 60.8535 37.2018 59.6065 37.1999C57.1116 37.1964 55.6145 36.0965 54.9656 33.7905C54.2736 31.3316 56.1869 28.8506 58.7728 28.8525Z" fill="white"/>
<path d="M14.6093 96.4589C16.354 94.5751 19.3616 92.1321 25.0556 87.9736C27.9484 85.8609 32.8187 82.2885 35.8786 80.0348C38.9384 77.7812 41.7425 75.7262 42.11 75.4682C42.4774 75.2101 44.6569 73.6083 46.9533 71.9086C53.5296 67.0412 54.9763 65.9759 59.7983 62.4504C62.2887 60.6296 64.2879 59.1121 64.2409 59.078C64.1206 58.9908 60.5269 59.4427 58.1431 59.8448C57.0409 60.0307 54.711 60.3563 52.9658 60.5682C51.2205 60.7801 48.5149 61.1615 46.9533 61.4158C45.3918 61.67 42.7613 62.0459 41.1079 62.251C35.8125 62.9081 33.1624 63.2677 30.0851 63.7468C25.1218 64.5195 21.8033 64.9305 20.5462 64.9281C19.5147 64.9262 19.215 64.7232 18.2748 63.3894C17.6792 62.5443 17.2369 61.7281 17.292 61.5757C17.3471 61.4232 20.9996 58.6365 25.4088 55.3829C29.8179 52.1293 34.4024 48.739 35.5965 47.8489C36.7906 46.9589 37.9247 46.2284 38.1165 46.2256C38.6654 46.218 41.0767 49.5625 40.7397 49.8643C40.4282 50.1432 37.1982 52.5713 35.5892 53.7361C33.5446 55.2161 30.1505 57.7884 29.3089 58.4956C28.4176 59.2445 28.4173 59.2467 29.1856 59.2471C29.6095 59.2473 30.5865 59.0948 31.3568 58.9082C32.1271 58.7217 35.012 58.2642 37.7677 57.8918C40.5234 57.5193 44.1308 56.9969 45.7842 56.731C47.4377 56.465 50.4596 56.0282 52.4997 55.7604C54.5397 55.4925 56.8695 55.1146 57.677 54.9206C58.4845 54.7266 61.0241 54.3256 63.3205 54.0295C65.6169 53.7333 67.9659 53.4191 68.5405 53.3312C69.492 53.1858 69.7379 53.3602 71.2962 55.2861C72.2373 56.4491 73.0072 57.5532 73.0072 57.7396C73.0072 58.1516 71.5112 59.3403 68.8319 61.0574C66.4022 62.6144 66.3485 62.6505 63.1944 64.8424C61.8066 65.8069 60.5629 66.596 60.4307 66.596C60.2985 66.596 59.88 66.8815 59.5008 67.2305C59.1215 67.5794 56.6317 69.2997 53.9678 71.0533C51.304 72.807 48.5232 74.6785 47.7884 75.2124C47.0535 75.7462 46.2268 76.2818 45.9512 76.4025C45.6757 76.5232 44.6235 77.227 43.6131 77.9664C40.9921 79.8844 19.6709 94.1803 16.6131 96.0698C15.2045 96.9402 13.927 97.6542 13.7743 97.6564C13.6216 97.6583 13.9973 97.1197 14.6093 96.4589Z" fill="white"/>
</svg>
