<svg width="100" height="100" viewBox="0 0 100 100" fill="none" xmlns="http://www.w3.org/2000/svg">
<path d="M24.5611 16.9609C22.5484 19.2371 19.7582 23.5083 19.3965 36.6397V36.675H29.8852V36.6397C28.9545 23.2007 26.7804 20.2826 24.5611 16.9609ZM19.3965 41.4652V41.6623V49.718L16.1738 56.4514V90.422H24.6408H33.1078V56.4514L29.8852 49.718V41.6623V41.4652H19.3965Z" fill="white"/>
<path d="M75.3586 16.8809C72.6142 21.6256 69.8276 25.8166 70.1143 36.6393L80.6029 36.6746V36.6393C79.8105 24.2835 77.6475 20.656 75.3586 16.8809ZM70.1143 41.4648V41.662V49.7176L66.8916 56.451V90.4216H75.3586H83.8256V56.451L80.6029 49.7176V41.662V41.4648H70.1143Z" fill="white"/>
<path d="M43.9819 31.8691V32.1264V41.7656L40.0762 49.9045V95.7576H50.3378H60.5994V50.0454L56.6937 41.7656V32.1264V31.8691H43.9819Z" fill="white"/>
<path d="M50.227 4.24219C47.6765 8.07541 44.7653 11.9928 43.8711 27.0643V27.1056H56.5829V27.0643C55.8357 10.991 52.8366 7.38904 50.227 4.24219Z" fill="white"/>
</svg>
