<svg width="100" height="100" viewBox="0 0 100 100" fill="none" xmlns="http://www.w3.org/2000/svg">
<path d="M12.9537 25.3249L10.6601 21.9512C-0.978747 38.2292 -2.27247 65.2069 19.568 85.2497L22.409 82.6269C8.2965 70.7699 -0.621183 48.0425 12.9537 25.3249Z" fill="white"/>
<path d="M63.462 82.5408C55.3788 86.8724 45.8422 87.174 37.5721 82.5342L29.0088 88.4011C41.7426 96.2303 59.3285 96.4757 72.0308 88.5303L63.462 82.5408Z" fill="white"/>
<path d="M87.138 25.3249L89.4316 21.9512C101.07 38.2292 102.364 65.2069 80.5237 85.2497L77.6826 82.6269C91.7952 70.7699 100.713 48.0425 87.138 25.3249Z" fill="white"/>
<path d="M50.032 18.8938L34.6446 5.86122L34.5874 39.9005L37.5315 43.4753L49.9137 57.4162L62.5254 43.5936L65.3655 40.0189L65.3079 5.8125L50.032 18.8938ZM75.5756 21.3971V39.3973C76.9357 44.6666 80.6637 51.627 71.5211 65.825H64.38C61.209 70.3361 55.9651 73.2846 50.032 73.2846C44.0475 73.2846 38.7644 70.2843 35.6024 65.7066H28.4318C19.2892 51.5087 23.0175 44.5482 24.3777 39.2789V21.5004C17.0687 28.3485 12.5 38.0862 12.5 48.8923C12.5 61.856 19.0728 73.2847 29.0675 80.0278C31.3785 78.4362 34.2486 76.3641 36.7291 74.5997C40.7277 77.067 45.3335 78.374 50.032 78.3746C54.8785 78.3695 59.6217 76.9741 63.6992 74.3548L71.6058 79.555L71.6571 79.5929C81.5732 72.8378 87.564 61.7955 87.5641 48.8923C87.5641 38.0317 82.9491 28.2504 75.5756 21.3971Z" fill="white"/>
</svg>
