<svg width="100" height="100" viewBox="0 0 100 100" fill="none" xmlns="http://www.w3.org/2000/svg">
<path d="M49.5958 10.6959C42.2576 10.7308 34.9374 12.378 28.2366 15.6204L28.1532 15.5949L28.1719 15.6525L30.7919 23.7676L51.3148 87.333L45.8118 58.0237C59.4845 55.2585 66.2854 64.9903 67.5575 71.9705C63.5647 77.5739 59.7581 83.2632 56.1043 89.0232L98.1155 47.5756C90.2641 22.7911 69.8627 10.5994 49.5958 10.6959ZM23.8623 18.0224C14.0181 24.1058 5.9597 33.9633 1.88379 47.5449L43.8192 89.305C40.1565 83.2398 36.3812 77.5967 32.5818 72.2867C33.2522 68.8749 33.8869 65.4622 37.7666 62.1492L36.8501 60.117C33.8052 62.8162 31.6013 65.9616 30.8354 69.87C28.8197 67.1116 26.8012 64.4442 24.7919 61.8608C25.6455 57.0691 25.0078 53.0004 32.2875 45.0945L30.9923 40.99C26.3592 44.3947 23.1435 49.912 21.1249 57.2138C17.7517 53.0037 14.4286 49.0088 11.2189 45.1805C15.1547 36.9389 20.3961 30.8087 26.3209 26.5584L23.8623 18.0224ZM50.0857 18.9827C66.6422 19.0418 82.7136 28.9689 88.7893 45.2649C85.2436 49.2443 81.8423 53.2905 78.5612 57.392C78.2783 53.7277 76.9613 51.4447 75.4052 48.5618L72.3058 51.4355C73.6327 54.1899 75.0599 57.5259 75.1754 61.6979C73.0928 64.396 71.0603 67.1171 69.0747 69.8599C64.8817 56.1074 52.1324 54.2217 45.4263 55.971L42.2402 39.0027C46.7799 37.4109 51.6247 37.3082 56.7523 38.5871L60.1336 35.5724C55.0128 34.3096 50.6869 32.2772 41.4823 34.9675L38.773 20.5371C42.3659 19.5145 46.0395 19.0043 49.6946 18.983C49.825 18.9823 49.9553 18.9823 50.0857 18.9827Z" fill="white"/>
<path d="M74.0467 41.8553L67.9102 35.7188L61.7736 41.8553L67.9101 47.9919L74.0467 41.8553Z" fill="white"/>
</svg>
