<svg width="100" height="100" viewBox="0 0 100 100" fill="none" xmlns="http://www.w3.org/2000/svg">
<path d="M50.0002 6.08789L12.1256 20.8355C11.3264 78.5898 38.5893 87.1491 50.0002 93.9114C61.4111 87.1491 88.674 78.5898 87.8748 20.8355L50.0002 6.08789ZM50.0002 11.1984L83.1434 24.1039C83.043 69.4351 60.3719 82.9141 50.0002 88.4453C39.6285 82.9142 16.9574 69.4351 16.857 24.1039L50.0002 11.1984ZM50.0002 17.5419L23.3694 28.2818C23.9718 68.6162 44.6546 80.4051 50.0002 82.1339C55.3458 80.4051 76.0286 68.6162 76.631 28.2818L50.0002 17.5419ZM44.3274 31.0024H55.6273V43.2655H67.3575V54.3144H55.6273V66.5356H44.3274V54.3144H32.3042V43.2655H44.3274V31.0024Z" fill="white"/>
</svg>
