<svg width="100" height="100" viewBox="0 0 100 100" fill="none" xmlns="http://www.w3.org/2000/svg">
<path d="M92.4833 31.0937H68.4981V7.7091H56.8975V2.3441L73.8285 2.34375V25.7361H97.6565V44.0039H92.3264L92.4833 31.0937Z" fill="white" fill-opacity="0.5"/>
<path d="M2.34375 25.7358H26.1717V2.34375H43.102L43.1023 7.70874H31.494V31.0933H20.0492C17.1495 31.0906 17.1251 29.9006 15.6453 28.1586C14.2318 28.927 12.2023 29.2203 11.0886 30.4323C10.4993 31.0115 8.85879 31.1142 7.66093 31.0933V44.0035H2.34377L2.34375 25.7358Z" fill="white" fill-opacity="0.5"/>
<path d="M40.054 17.0195V40.0586C39.4644 40.0604 38.6759 40.0086 38.2738 40.6113C37.3687 41.9367 35.9387 42.4481 35.4303 43.8461C34.8212 45.3348 32.6872 46.8645 31.1375 46.9921C30.0451 46.4752 30.0386 44.6337 28.8745 44.2584C27.93 43.8142 27.1916 41.663 26.4998 40.0586H17.2367V41.5923C17.2367 42.8975 17.3608 43.224 18.0218 43.6593L18.8065 44.1761C18.871 47.9788 19.1457 52.244 18.0218 55.4671C17.4386 56.7779 17.2887 57.9765 17.2363 59.9418H40.054V82.7698C40.1691 82.8855 41.3366 82.9809 42.6485 82.9809C44.8208 82.9809 45.0611 82.9172 45.3434 82.2705C45.6478 81.573 45.7512 81.5608 51.1485 81.5608C56.5458 81.5608 56.6492 81.573 56.9536 82.2705C57.2053 82.8471 57.5148 82.9809 58.6017 82.9809H59.9404V59.9418H81.675C81.9882 59.1564 82.3199 58.2294 82.1333 57.4181C81.63 55.4078 81.597 54.8925 81.9737 54.8925C82.2458 54.8925 82.0967 54.5624 81.8524 54.1144C81.2358 52.7088 81.3627 48.0208 81.3453 43.2293C82.9581 42.0561 82.7522 41.7783 82.758 40.0586H59.9404V19.9474L58.7631 18.4847C57.4632 16.8701 56.5016 16.6063 56.0112 17.7297C55.7063 18.4283 55.6098 18.4398 50.0497 18.4398C44.4895 18.4398 44.3926 18.4283 44.0877 17.7297C43.8137 17.1021 43.5491 17.0196 41.8109 17.0196L40.054 17.0195ZM45.3917 41.9201L47.0098 42.5613C48.2466 43.0513 48.8192 43.1297 49.4379 42.8932C50.5004 42.4872 50.521 42.4916 50.5175 43.136C50.5157 43.4397 50.8218 44.5689 51.1977 45.6449L51.8812 47.6009L51.0487 48.8653C50.4189 49.822 50.2628 50.3632 50.4075 51.0905C50.5905 52.0098 50.522 52.0859 48.8239 52.8408C47.8475 53.2748 46.8663 53.6299 46.6432 53.6299C46.4202 53.6299 45.6265 53.1041 44.8797 52.4617C43.2842 51.089 41.9133 48.312 42.195 47.0231C42.2957 46.562 42.1654 45.6725 41.9052 45.0467C41.3513 43.7142 41.4249 43.6192 43.7956 42.6038L45.3917 41.9201Z" fill="white"/>
<path d="M56.8975 91.9756H68.4982L68.4981 68.3132H92.326C92.334 66.2844 92.0604 60.7493 92.8058 59.551C93.0734 59.1665 93.192 58.8075 93.1096 58.5886C92.758 57.8865 92.3231 57.813 92.326 56.9434H97.6565L97.6562 73.6707H87.1095C86.6304 71.9553 85.3765 69.6539 83.8496 70.2052C82.2999 70.6296 81.4457 69.8574 79.8627 69.2106C79.0971 69.6163 75.7818 70.8534 75.7093 71.5995C75.4571 72.4434 74.3612 73.1272 73.8285 73.6707V97.6565H56.8977L56.8975 91.9756Z" fill="white" fill-opacity="0.5"/>
<path d="M26.1717 73.6707H12.79C12.3182 73.6153 11.8644 72.8932 11.5528 72.3267C9.39412 73.4748 8.86733 73.6707 6.65898 73.6707H2.34375V56.9434H7.66091V68.3132H31.494V91.9756H41.2503L41.7844 92.9719C42.3901 94.1019 43.1667 94.9955 43.6975 95.1737C43.8956 95.2401 44.1433 95.826 44.248 96.4755L44.4384 97.6566L26.1717 97.6565V73.6707Z" fill="white" fill-opacity="0.5"/>
</svg>
