<svg width="100" height="100" viewBox="0 0 100 100" fill="none" xmlns="http://www.w3.org/2000/svg">
<path d="M46.4549 81.1783H42.3731L37.4082 74.8748L39.8834 71.1084L38.4488 70.1928H26.2615L24.1381 68.3822V62.7621L31.2695 62.7621V59.5517H24.1381V53.8399L37.6241 46.9295L42.2995 39.8225H59.5698L64.2266 46.9295C64.7094 47.0298 74.7787 52.1426 77.0807 53.6014C77.7677 54.0368 77.7949 54.2576 77.7949 56.7199V59.5517H70.0406V62.7621H77.7949L77.7948 68.3822L75.5105 70.1928H63.3543L61.9847 71.1084L64.4729 74.8748L59.3638 81.1783H52.5936V95.4334H50.1705V81.1783H48.8434V97.656H46.4548L46.4549 81.1783ZM53.7831 68.5493C58.1708 66.4253 59.4779 60.5353 56.3923 56.7919C54.4058 54.3819 50.4008 53.3261 47.6326 54.4828C46.0556 55.1417 44.1706 56.9288 43.5034 58.3975C42.7726 60.0062 42.7237 63.0044 43.4018 64.6302C44.0643 66.2185 45.6654 67.869 47.2626 68.6101C49.0597 69.4439 51.9916 69.4166 53.7831 68.5493ZM57.3657 42.0841L44.3547 42.0871L41.5471 46.9295L60.3311 46.9294L57.3657 42.0841ZM24.2422 80.2092C22.7924 79.7269 22.2229 79.0624 22.2229 77.9704C22.2229 77.0348 22.6078 76.3375 24.2422 74.3119L26.2615 71.8093L36.4391 71.8087V74.8748L31.0944 80.2092H24.2422ZM65.5173 75.2506V71.8087L75.5105 71.8086L77.6186 74.3126C83.1751 80.8099 75.2635 80.1771 70.6126 80.2092C68.9142 78.5564 67.2158 76.9034 65.5173 75.2506ZM69.0713 30.1296L62.6096 30.1297L62.6095 24.3141H69.0713V17.8279H75.0486V24.3141H81.672V30.1297H75.0486V36.4303H69.0713V30.1296ZM29.3311 22.3754H18.3281V13.1674H29.3311V2.34375H38.5393V13.1674H49.7035V22.3754H38.5393V32.876H29.3311V22.3754Z" fill="white"/>
<path d="M32.9801 81.8027L31.9267 82.8562C31.5523 87.8407 31.698 92.6866 32.9396 97.2402C35.5421 93.213 38.418 89.3452 39.7872 84.5985L38.2475 81.8027C38.9146 84.1135 38.1581 87.3174 33.3448 93.0668C32.2417 89.3699 32.2483 85.6076 32.9801 81.8027Z" fill="white"/>
<path d="M68.8495 81.7256L69.903 82.7791C70.2773 87.7636 70.1316 92.6094 68.89 97.163C66.2875 93.1358 63.4117 89.268 62.0425 84.5213L63.5822 81.7256C62.9151 84.0363 63.6715 87.2402 68.4849 92.9896C69.588 89.2927 69.5814 85.5305 68.8495 81.7256Z" fill="white"/>
</svg>
