<svg width="100" height="100" viewBox="0 0 100 100" fill="none" xmlns="http://www.w3.org/2000/svg">
<path d="M19.9414 26.089L23.203 54.0089C28.0542 53.8353 28.2211 53.853 30.0342 56.5696L39.884 70.2984H60.9132L69.6956 56.5696C71.4982 54.1691 72.5492 53.9558 77.2475 54.0028L80.4622 26.089C72.7865 23.2169 65.3136 22.5684 57.9 22.5693L54.0031 30.4805H46.4074L42.5476 22.5693C34.9604 22.6629 27.3491 22.5962 19.9414 26.089ZM41.7308 34.5031C44.8285 34.5938 47.492 36.1482 49.394 39.0045C50.5172 40.6912 50.7036 40.8398 51.0202 40.3026C52.094 38.4803 54.0603 36.3808 55.4614 35.5599C56.8699 34.7347 57.3808 34.627 59.8914 34.6298C63.0498 34.633 64.1131 35.0301 66.0003 36.9112C68.746 39.6479 69.5186 44.8149 67.7409 48.5488C66.8331 50.4558 64.4101 52.8677 60.1868 56.0687C57.9125 57.7925 54.8499 60.1228 53.3809 61.2467L50.7096 63.2903L44.3825 58.532C34.1801 50.8595 32.6554 48.9543 32.7104 43.9451C32.7441 40.8805 33.5577 38.7669 35.4164 36.9141C36.9279 35.4075 38.2644 34.7716 40.3775 34.5542C40.8368 34.507 41.2883 34.4901 41.7308 34.5031Z" fill="white"/>
<path d="M42.864 20.1503C34.8898 20.0492 27.1711 21.0306 19.7248 23.1655L19.5303 19.0511L37.4559 10.7937L41.7327 3.01172H58.6438L63.0025 10.7937L81.0224 18.3058L80.5836 23.1191C72.8639 21.1425 65.1443 19.9903 57.4246 20.1503L53.3863 28.47H47.2919L42.864 20.1503Z" fill="white"/>
<path d="M32.7545 74.1465C32.0861 71.6691 31.3126 70.147 27.5856 63.9742C25.175 59.9818 23.1222 56.5693 23.2025 56.5693H27.7047L38.6688 71.8786L61.7927 71.8324L72.1894 56.5693H76.956C77.1668 56.5693 75.0327 60.3484 72.682 64.2107C69.3937 69.6138 68.2655 71.7704 67.79 73.5627C66.2471 81.4552 61.781 83.7593 56.0295 87.3733L45.739 87.362C39.8202 83.7899 33.9094 80.5301 32.7545 74.1465Z" fill="white"/>
<path d="M49.1302 96.9882C28.6216 97.0211 -8.94971 92.1206 15.1852 77.0803L2.73066 72.0523L16.5256 69.3547L2.34375 47.458L19.3828 62.581L25.979 76.1041C-0.0732842 87.6491 23.3174 94.2666 49.1302 94.6546C74.5151 94.9534 95.6315 88.0294 74.3418 76.5576L80.7098 63.1905L97.612 47.6486L83.9119 69.3024L97.6562 72.1596L85.1991 77.0429C110.061 96.3963 66.134 96.9931 49.1302 96.9882Z" fill="white" fill-opacity="0.5"/>
</svg>
