<svg width="100" height="100" viewBox="0 0 100 100" fill="none" xmlns="http://www.w3.org/2000/svg">
<path d="M44.2074 76.0645L41.6523 78.9309L48.1429 97.4828H51.482L58.6515 78.8273L55.9213 76.0645H44.2074ZM49.9264 77.9098C50.6064 77.9068 51.4802 78.3623 51.9168 78.9857C52.6045 79.9674 52.1956 81.6052 51.1246 82.159C50.2083 82.6329 49.2871 82.5463 48.5375 81.9156C47.0516 80.6652 47.6878 78.3887 49.6486 77.9399C49.736 77.9199 49.8293 77.9103 49.9264 77.9098Z" fill="white" fill-opacity="0.5"/>
<path d="M60.6606 36.916L58.7242 38.0187C45.8388 30.2126 34.6061 41.4601 35.185 51.6666L33.2984 52.637C31.0421 34.8466 48.0117 29.4634 60.6606 36.916Z" fill="white"/>
<path d="M29.6861 42.8856C30.3192 41.7604 34.4248 38.7829 35.1949 38.5908C30.7639 43.3884 30.8963 51.105 32.6129 56.686L30.6766 58.4504C28.2723 54.1318 28.6478 45.7098 29.6861 42.8856Z" fill="white"/>
<path d="M3.06758 51.6898C2.49348 51.48 2.53091 51.3979 2.53091 50.6669V49.0756C2.56143 48.5895 2.37967 48.4434 3.06758 48.1167L21.1931 41.6143L23.4194 43.7965C17.1136 49.398 16.9797 50.3944 23.4194 56.3181L21.1931 58.5865L3.06758 51.6898Z" fill="white" fill-opacity="0.5"/>
<path d="M96.9632 51.6488C97.5373 51.439 97.4999 51.3569 97.4999 50.6258V49.0346C97.4693 48.5485 97.6511 48.4023 96.9632 48.0756L78.8377 41.5732L76.6113 43.7555C82.9172 49.357 83.0511 50.3534 76.6113 56.2771L78.8377 58.5455L96.9632 51.6488Z" fill="white" fill-opacity="0.5"/>
<path d="M44.2074 23.7904L41.6523 20.9239L48.1429 2.37207H51.482L58.6515 21.0275L55.9213 23.7904H44.2074ZM49.9264 21.945C50.6064 21.948 51.4802 21.4925 51.9168 20.8692C52.6045 19.8874 52.1956 18.2496 51.1246 17.6958C50.2083 17.2219 49.2871 17.3085 48.5375 17.9393C47.0516 19.1896 47.6878 21.4661 49.6486 21.9149C49.736 21.9349 49.8293 21.9446 49.9264 21.945Z" fill="white" fill-opacity="0.5"/>
<path d="M15.3525 81.4694L26.1299 58.4375L27.2943 59.4137L17.1653 81.3213L19.2203 83.3376L46.0734 70.6955V68.3288H47.6205V71.7629L18.9188 85.2758L15.3525 81.4694Z" fill="white"/>
<path d="M19.5518 80.8351L43.9086 69.5044L43.9085 67.8249C41.6672 67.477 38.8083 66.4295 36.5961 65.2254C37.5223 67.6612 35.7862 69.9752 33.6977 69.8658C29.8256 69.5508 29.6364 64.5703 33.2698 63.4756L28.9697 60.6338L19.5518 80.8351Z" fill="white"/>
<path d="M32.431 68.2568C31.0871 67.1007 31.9694 64.8076 33.7582 64.8076C35.1949 64.8076 36.1954 66.2002 35.67 67.4686C35.1008 68.8427 33.5507 69.2199 32.431 68.2568Z" fill="white"/>
<path d="M15.2002 18.6497L25.9776 41.6816L27.1419 40.7054L17.0129 18.7979L19.0679 16.7815L45.921 29.4236V31.7903H47.4681V28.3563L18.7664 14.8434L15.2002 18.6497Z" fill="white"/>
<path d="M19.3994 19.2841L43.7562 30.6147L43.7562 32.2942C41.5148 32.6421 38.656 33.6896 36.4437 34.8938C37.37 32.4579 35.6338 30.144 33.5454 30.2533C29.6733 30.5684 29.4841 35.5489 33.1175 36.6436L28.8174 39.4854L19.3994 19.2841Z" fill="white"/>
<path d="M32.2787 31.8624C30.9347 33.0184 31.8171 35.3115 33.6058 35.3115C35.0425 35.3115 36.043 33.919 35.5176 32.6506C34.9485 31.2765 33.3984 30.8993 32.2787 31.8624Z" fill="white"/>
<path d="M84.751 18.6497L73.9736 41.6816L72.8093 40.7054L82.9382 18.7979L80.8832 16.7815L54.0302 29.4236V31.7903H52.4831V28.3563L81.1848 14.8434L84.751 18.6497Z" fill="white"/>
<path d="M80.5518 19.2841L56.1949 30.6147L56.195 32.2942C58.4364 32.6421 61.2952 33.6896 63.5074 34.8938C62.5812 32.4579 64.3173 30.144 66.4058 30.2533C70.2779 30.5684 70.4671 35.5489 66.8337 36.6436L71.1338 39.4854L80.5518 19.2841Z" fill="white"/>
<path d="M67.6725 31.8624C69.0164 33.0184 68.1341 35.3115 66.3453 35.3115C64.9086 35.3115 63.9081 33.919 64.4335 32.6506C65.0027 31.2765 66.5528 30.8993 67.6725 31.8624Z" fill="white"/>
<path d="M84.751 81.4694L73.9736 58.4375L72.8093 59.4137L82.9382 81.3213L80.8832 83.3376L54.0302 70.6955V68.3288H52.4831V71.7629L81.1848 85.2758L84.751 81.4694Z" fill="white"/>
<path d="M80.5518 80.8351L56.1949 69.5044L56.195 67.8249C58.4364 67.477 61.2952 66.4295 63.5074 65.2254C62.5812 67.6612 64.3173 69.9752 66.4058 69.8658C70.2779 69.5508 70.4671 64.5703 66.8337 63.4756L71.1338 60.6338L80.5518 80.8351Z" fill="white"/>
<path d="M67.6725 68.2568C69.0164 67.1007 68.1341 64.8076 66.3453 64.8076C64.9086 64.8076 63.9081 66.2002 64.4335 67.4686C65.0027 68.8427 66.5528 69.2199 67.6725 68.2568Z" fill="white"/>
<path d="M39.2217 63.0012L41.158 61.8985C54.0435 69.7047 65.2761 58.4572 64.6973 48.2507L66.5839 47.2803C68.8402 65.0706 51.8705 70.4539 39.2217 63.0012Z" fill="white"/>
<path d="M70.1963 57.0326C69.5632 58.1577 65.4576 61.1353 64.6875 61.3273C69.1185 56.5297 68.9861 48.8131 67.2696 43.2322L69.2058 41.4678C71.6101 45.7864 71.2346 54.2083 70.1963 57.0326Z" fill="white"/>
</svg>
