<svg width="100" height="100" viewBox="0 0 100 100" fill="none" xmlns="http://www.w3.org/2000/svg">
<path d="M56.4002 2.34375C59.0227 4.83636 61.8625 7.23567 63.8622 9.99559C59.0012 10.5095 54.5427 11.8295 50.1521 13.2853C45.6835 11.8494 41.1104 10.649 36.2628 10.0672C38.1118 7.32494 40.7013 5.0065 43.1894 2.63002C39.6864 4.92236 36.5404 7.39346 33.799 10.0672C29.586 10.1455 25.373 10.8308 21.16 11.4617C24.8564 11.4146 28.6041 11.1104 32.121 11.9623C28.7256 15.7754 26.4442 19.8459 24.2662 23.9403C19.866 26.2031 15.5762 28.7976 11.5552 32.1999C11.1252 28.6601 11.2898 25.1203 11.3768 21.5805C10.5758 25.6686 10.0213 29.7567 10.0916 33.8447C6.89232 36.8612 4.71056 40.348 2.34375 43.7492C4.85881 41.2045 7.14255 38.3122 10.0201 36.3121C10.5356 41.1322 11.9619 45.7243 13.1978 50.3641C11.5711 55.1539 10.8263 59.8633 10.2345 64.5589C7.4049 62.2199 4.98727 59.4684 2.41521 56.8714C4.77758 60.2019 7.05244 63.5573 10.0557 66.7043C10.0816 70.6374 10.6527 74.5705 11.4842 78.5036C11.5035 75.1362 11.1016 71.6483 11.984 68.5279C15.7144 71.2327 19.6516 73.8132 24.0529 76.1149L32.1569 88.4796C28.8007 89.0213 25.4445 88.8907 22.0882 89.0517C25.9932 89.5192 29.8753 90.1461 33.8705 89.9813C36.7933 92.7573 39.8475 95.4017 43.2909 97.6563C40.8678 95.1952 38.3757 92.7772 36.3163 90.0885C41.0495 89.6161 45.6772 88.4046 50.2768 86.9958C54.7349 88.5271 59.3069 89.3745 63.8981 90.1065C62.0657 92.8946 59.4849 95.2329 57.007 97.6332C60.4023 95.4131 63.628 92.9806 66.4864 90.0885C70.5281 90.1121 74.4681 89.6264 78.3761 88.9802C74.9902 88.9337 71.6043 89.1184 68.2184 88.4436C71.069 84.6897 73.7318 80.7476 75.9123 76.3225C80.3174 74.0159 84.5995 71.5368 88.3378 68.2952C88.9267 71.8709 88.5534 75.4465 88.5338 79.0221C89.2923 74.9936 90.2558 70.9651 89.8549 66.9366C92.9755 63.9527 95.3262 60.4547 97.6562 56.943C95.2244 59.5019 92.9996 62.3201 90.0693 64.255C89.5167 59.559 88.5295 54.9252 87.0345 50.3641C88.4049 45.7856 89.7092 41.189 90.0513 36.3297C93.0968 38.5162 95.1753 40.9795 97.6207 43.3378C95.4457 40.1159 93.3762 36.8624 90.2833 33.9163C90.1273 29.6617 89.7348 25.4663 88.8196 21.4018C88.9099 24.9416 89.0916 28.4814 88.3553 32.0211C84.6928 28.7027 80.41 26.1435 75.8947 23.8687C73.791 19.6404 71.4339 15.5505 68.2894 11.8908C71.8576 11.0442 75.561 11.5522 79.2153 11.5689C75.0378 10.6336 70.8603 9.93886 66.6828 10.1387C63.5829 7.32166 60.0685 4.78132 56.4002 2.34375ZM65.5558 12.0922C68.2001 15.4187 70.4079 18.846 71.817 22.4581C68.7149 21.7832 65.5505 21.2018 62.0716 21.0928C59.7544 18.8602 56.9195 17.0422 54.1442 15.1766C57.9994 13.5828 61.7957 12.6385 65.5558 12.0922ZM34.7695 12.1348C38.5296 12.6812 42.3259 13.6254 46.1811 15.2192C43.4058 17.0848 40.5709 18.9028 38.2537 21.1355C34.7748 21.2444 31.6104 21.8258 28.5083 22.5007C29.9174 18.8887 32.1252 15.4614 34.7695 12.1348ZM50.1521 16.396C54.0035 18.5589 57.6784 20.8502 60.6845 24.0478C65.187 23.9764 69.4992 24.9215 73.7168 26.3716C74.9819 30.4592 75.8159 34.6084 75.7518 38.8861C79.1282 42.2612 81.9742 46.0387 83.6426 50.3641C81.7876 54.554 79.1273 57.7679 76.0373 60.6258C76.3709 65.1853 74.9785 69.5527 73.6454 73.9268C69.5092 75.5179 65.2609 76.0411 60.9345 75.8219C57.9017 79.4083 54.252 81.6707 50.2768 83.6525C45.8665 81.8826 42.2963 78.9433 39.012 75.8579C34.7227 75.9107 30.5202 75.4414 26.5155 73.784C24.7691 69.6209 24.4154 65.1297 24.2662 60.5902C20.6322 57.7063 18.3809 54.1841 16.4828 50.3641C18.6735 46.3597 21.0317 42.4198 24.4446 38.8861C24.097 34.667 25.3955 30.448 26.4085 26.2289C30.6993 24.9989 35.0193 24.1497 39.4049 24.155C42.4219 21.1891 46.187 18.6973 50.1521 16.396ZM77.5814 28.0415C81.1882 29.4526 85.1659 32.1184 88.4877 34.7665C87.9421 38.532 86.9992 42.3339 85.4077 46.1946C83.5448 43.4152 81.1741 40.1211 78.9447 37.8005C78.8359 34.3166 78.2553 31.1481 77.5814 28.0415ZM22.579 27.9655C21.905 31.072 21.2235 34.4934 21.1147 37.9773C18.8853 40.2979 16.82 43.6016 14.957 46.381C13.3655 42.5202 12.6721 38.254 12.1266 34.4885C15.4484 31.8403 18.9721 29.3765 22.579 27.9655ZM15.1109 54.2348C16.9738 57.0142 18.7892 59.8531 21.0186 62.1737C21.1274 65.6576 21.708 68.8265 22.3819 71.9331C18.7751 70.522 15.3527 68.311 12.0309 65.6629C12.5765 61.8974 13.5194 58.0955 15.1109 54.2348ZM85.0051 54.2884C86.5966 58.1491 87.5395 61.9509 88.0851 65.7165C84.7633 68.3646 81.3409 70.5756 77.7341 71.9866C78.408 68.8801 78.9886 65.7111 79.0974 62.2273C81.3268 59.9067 83.1422 57.0678 85.0051 54.2884ZM71.7685 77.8775C70.3595 81.4895 68.1517 84.9168 65.5074 88.2434C61.7473 87.697 57.9509 86.7527 54.0957 85.1589C56.8711 83.2933 59.706 81.4754 62.0232 79.2427C65.5021 79.1338 68.6664 78.5523 71.7685 77.8775ZM28.3701 77.8845C31.4722 78.5594 34.6366 79.1412 38.1154 79.2501C40.4327 81.4828 43.2675 83.3008 46.0429 85.1664C42.1877 86.7602 38.3913 87.7045 34.6312 88.2508C31.9869 84.9242 29.7791 81.4965 28.3701 77.8845Z" fill="white" fill-opacity="0.5"/>
<path d="M40.9937 60.8441L42.6647 59.878C49.1363 65.2321 62.949 61.6594 61.9791 48.7108L63.4432 47.8643C65.4855 58.3259 53.3282 69.2472 40.9937 60.8441Z" fill="white"/>
<path d="M44.1747 64.4842L42.6094 66.2034C58.2144 72.4616 72.0682 57.5376 65.8869 42.8418L64.2964 44.4346C69.3771 56.8789 56.4886 69.7442 44.1747 64.4842Z" fill="white"/>
<path d="M58.6656 39.3739L56.9946 40.34C50.5229 34.986 36.7102 38.5586 37.6801 51.5073L36.2161 52.3538C34.1737 41.8921 46.331 30.9708 58.6656 39.3739Z" fill="white"/>
<path d="M55.5558 35.733L57.1211 34.0137C41.5161 27.7555 27.6623 42.6795 33.8436 57.3753L35.4342 55.7825C30.3534 43.3382 43.242 30.4729 55.5558 35.733Z" fill="white"/>
<path d="M62.4341 15.8594L62.934 16.8605C58.0997 17.1963 53.7426 18.14 49.9555 19.8104C45.8461 18.4273 41.6564 17.3124 37.2626 16.8785L37.923 15.8774L36.5128 16.9681L34.8348 17.0752L36.1024 17.2184C33.0482 20.9 30.5935 24.7105 28.872 28.6782C24.8035 30.827 20.8084 33.1166 17.3037 36.3476L17.1252 35.1317L16.9288 36.5979L15.8936 37.8493L16.9468 37.2416C17.1572 41.7608 18.3194 46.0758 19.8569 50.3103C17.9306 54.4621 17.4694 58.8097 16.9288 63.1466L16.072 62.7352L16.9647 63.6648L17.0003 65.3813L17.3752 64.3265C20.8318 67.251 24.733 69.5399 28.8544 71.5134C30.855 75.468 33.0425 79.3599 36.1735 82.9372L35.1917 83.3486L36.6557 83.4202L37.4055 84.2602L37.2446 83.3666C41.6844 82.926 46.0536 82.2206 50.1161 80.3631C54.1493 82.0795 58.4788 82.9653 62.9875 83.3486L62.5591 84.4034L63.6838 83.3666L65.1298 83.4377L64.0231 82.9372C67.0875 79.5725 69.5569 75.8255 71.2887 71.6029C75.2982 69.7568 79.1439 67.4509 82.6785 64.2729L83.0178 65.2741L83.0893 63.8975L84.196 62.7532L83.0713 63.3254C83.1783 58.7546 81.7704 54.5631 80.3936 50.3638C81.8223 46.0898 82.8384 41.7239 83.4103 37.2592L84.214 37.7598L83.3213 36.705L83.2678 35.0781L82.9464 36.2404C79.3458 32.8877 75.4357 30.5261 71.3601 28.6957C69.3563 24.7615 67.2609 20.8628 64.0407 17.3971L65.1298 17.1468L63.6658 17.0216L62.4341 15.8594ZM36.8104 17.4659C40.5705 18.0123 44.0095 19.1001 47.8647 20.6939C45.0893 22.5595 42.7544 24.0556 40.4371 26.2883C36.9582 26.3972 34.1488 27.1871 31.0468 27.862C32.4558 24.2499 34.1661 20.7925 36.8104 17.4659ZM63.2632 17.5129C65.9075 20.8394 67.6177 24.2965 69.0268 27.9085C65.9247 27.2336 63.4012 26.301 59.9223 26.1921C57.605 23.9594 54.9842 22.606 52.2088 20.7404C56.064 19.1466 59.503 18.0592 63.2632 17.5129ZM49.9555 21.8573C52.5579 23.1138 54.8685 24.5367 56.5959 26.3325C55.5779 26.258 54.6485 26.7017 53.6928 26.939C57.5631 27.616 61.0397 28.9683 63.968 31.2624C63.6771 30.3553 63.0362 29.4983 62.2767 28.6582C64.887 28.8546 67.4652 29.1787 69.8758 30.1752C70.7386 32.8184 71.162 35.3517 71.4917 37.8615C70.6084 36.9662 69.6346 36.6149 68.6894 36.0914C70.9825 39.0977 72.5474 42.5415 73.1581 46.5587C73.4177 45.5466 73.7484 44.5777 73.688 43.3733C75.4462 45.366 77.0295 47.5919 78.3839 50.1237C77.1276 52.8292 75.5068 54.9416 73.7134 56.7732C73.7693 55.6479 73.4497 54.5978 73.1831 53.5371C72.4868 57.6788 71.149 61.3686 68.6386 64.2319C69.5937 63.8265 70.5517 63.442 71.4414 62.5123C71.4826 65.1308 70.7252 67.7401 69.8254 70.224C67.4446 70.9043 64.9764 71.3873 62.3271 71.4625L64.0692 68.6816C60.7841 71.3078 57.1697 72.5199 53.4151 73.1313C54.3603 73.5643 55.4239 73.7599 56.5709 73.7887C54.6301 75.6913 52.4334 77.0817 50.1582 78.3146C49.8049 78.6684 43.3325 73.9879 43.594 73.8391C43.7816 73.7324 46.8196 73.349 46.7498 73.2326C42.4974 72.7215 39.0835 70.8771 35.9696 68.5553C36.5012 69.5629 37.0284 70.5714 37.8882 71.5134C35.2944 71.3696 32.7733 70.8986 30.3141 70.1481C29.4599 67.5447 28.9634 65.0063 28.8497 62.5377C29.7435 63.2825 30.6994 63.8407 31.7278 64.181C28.8335 60.8821 27.5748 57.2816 27.2341 53.5116C26.6405 54.4795 26.4816 55.5717 26.3504 56.6719C24.5356 54.6816 23.0234 52.5702 21.8817 50.3103C23.0344 47.8829 24.4427 45.5487 26.4008 43.5247C26.3464 44.5401 26.7752 45.4591 27.1834 46.3819C27.4868 42.728 29.0497 39.3141 31.3494 36.041C30.4773 36.4787 29.5659 36.8182 28.8751 37.7097C29.1158 35.2373 29.348 32.766 30.2384 30.2006C32.7265 29.3969 35.3167 28.9257 37.9386 28.5573C37.2527 29.4085 36.7064 30.3527 36.2219 31.3383C39.3386 29.0007 42.8594 27.635 46.6487 26.914C45.5621 26.6682 44.4509 26.3851 43.4929 26.3325C45.3263 24.5251 47.5203 23.129 49.9555 21.8573ZM72.3989 31.0723C76.0058 32.4834 79.4582 34.1965 82.78 36.8447C82.2344 40.6102 81.1482 44.0542 79.5567 47.9149C77.6937 45.1355 75.9854 42.3682 73.7559 40.0476C73.6472 36.5637 73.0728 34.1789 72.3989 31.0723ZM27.8426 31.0754C27.1686 34.182 26.5943 36.5668 26.4855 40.0507C24.2561 42.3713 22.5477 45.1386 20.6848 47.918C19.0933 44.0573 18.0071 40.6133 17.4615 36.8478C20.7833 34.1996 24.2357 32.4865 27.8426 31.0754ZM20.6059 52.4084C22.4688 55.1878 24.1768 57.9551 26.4062 60.2757C26.515 63.7596 27.0898 66.144 27.7637 69.2506C24.1568 67.8395 20.7044 66.1268 17.3826 63.4787C17.9282 59.7131 19.0144 56.2691 20.6059 52.4084ZM79.4122 52.4084C81.0037 56.2691 82.0899 59.7131 82.6355 63.4787C79.3137 66.1268 75.8613 67.8395 72.2544 69.2506C72.9283 66.144 73.7171 63.6165 73.8258 60.1326C76.3207 58.0114 77.8224 55.3929 79.4122 52.4084ZM31.2061 72.4594C34.3082 73.1343 36.6892 73.7095 40.168 73.8184C42.4853 76.051 45.2487 77.7619 48.0241 79.6275C44.1689 81.2213 40.7302 82.3091 36.9701 82.8554C34.3258 79.5289 32.6151 76.0715 31.2061 72.4594ZM69.1299 72.479C67.7208 76.091 66.0106 79.5484 63.3663 82.875C59.6061 82.3286 56.1671 81.2412 52.3119 79.6474C55.0873 77.7818 57.8151 76.1426 60.1324 73.9099C63.4685 74.0513 66.0278 73.1539 69.1299 72.479Z" fill="white"/>
</svg>
