<svg width="100" height="100" viewBox="0 0 100 100" fill="none" xmlns="http://www.w3.org/2000/svg">
<path d="M19.8218 49.6504L16.6953 59.1973L27.61 88.3125V62.2908L26.5152 52.1846L19.8218 49.6504Z" fill="white"/>
<path d="M17.9793 86.442L15.6903 81.3615L3.24023 47.8079L3.51938 47.1937L13.5687 59.6996L18.0351 70.8656L13.9037 58.9735L3.63104 46.0213L4.18934 42.7832L18.2026 48.422L14.9645 58.9735L24.1206 82.534L18.9284 85.7163L16.5277 81.0266L17.9793 86.442Z" fill="white" fill-opacity="0.501961"/>
<path d="M18.3828 87.2013L24.5018 83.5693L27.8574 96.3996L18.3828 87.2013Z" fill="white" fill-opacity="0.501961"/>
<path d="M29.9828 91.8573L29.5361 77.2299L31.8252 76.1133L29.9828 91.8573Z" fill="white" fill-opacity="0.501961"/>
<path d="M29.5918 75.8346L31.7971 74.9692V69.47L29.9268 64.4453L29.5918 75.8346Z" fill="white" fill-opacity="0.501961"/>
<path d="M28.7822 52.1348L29.2568 56.2383L30.4383 55.5561L28.7822 52.1348Z" fill="white"/>
<path d="M29.3125 57.2991L29.9266 62.9658C31.5096 62.0841 33.1733 61.364 34.9792 60.9281L33.1368 56.3779C31.7566 56.439 30.4695 56.7173 29.3125 57.2991Z" fill="white"/>
<path d="M6.14355 40.5225L6.2273 41.8624L23.1716 48.4782L22.4458 46.3008L6.14355 40.5225Z" fill="white" fill-opacity="0.501961"/>
<path d="M19.9227 40.3408L19.291 43.0253L20.9886 43.9333C20.9421 42.712 20.4435 41.5256 19.9227 40.3408Z" fill="white" fill-opacity="0.501961"/>
<path d="M23.2783 32.959C25.9966 29.9711 28.5244 26.9559 31.7265 24.0371L33.1477 25.182C31.1683 26.4645 29.599 27.9009 28.213 29.4061L23.2783 32.959Z" fill="white" fill-opacity="0.501961"/>
<path d="M16.0934 41.9206L14.8301 41.3679C17.2551 34.4939 20.2214 27.811 26.397 22.2607H28.213C20.9933 27.9256 18.3351 34.8649 16.0934 41.9206Z" fill="white" fill-opacity="0.501961"/>
<path d="M11.198 40.1824C13.0523 32.853 18.4321 24.276 23.1992 20.4835L22.5281 20.0098C16.6711 25.7499 12.4265 32.3386 10.5664 40.1824H11.198Z" fill="white" fill-opacity="0.501961"/>
<path d="M80.4065 50.168L82.9747 59.994L71.2783 89.1092L71.7808 63.0875L72.8756 52.9813L80.4065 50.168Z" fill="white"/>
<path d="M81.1266 87.9361L83.4156 82.8556L96.5635 50.5301L96.2844 49.916L86.8771 61.2494L81.0708 72.3596L86.5421 60.5233L96.7589 48.3528L96.4798 43.6631L82.4665 49.3019L85.4813 60.5233L74.9854 84.028L80.1775 87.2103L82.5782 82.5206L81.1266 87.9361Z" fill="white" fill-opacity="0.501961"/>
<path d="M80.5654 88.4581L74.4464 84.8262L71.0908 97.6564L80.5654 88.4581Z" fill="white" fill-opacity="0.501961"/>
<path d="M68.9059 94.162L69.3525 79.5346L67.0635 78.418L68.9059 94.162Z" fill="white" fill-opacity="0.501961"/>
<path d="M69.2957 78.1386L66.8955 77.2732L67.0351 69.7641L69.2957 64.6836V78.1386Z" fill="white" fill-opacity="0.501961"/>
<path d="M70.3484 52.4062L69.8739 56.5097L68.6924 55.8276L70.3484 52.4062Z" fill="white"/>
<path d="M69.8181 57.5706L69.204 63.2373C67.621 62.3555 65.9572 61.6355 64.1514 61.1995L65.9937 56.6494C67.374 56.7104 68.661 56.9888 69.8181 57.5706Z" fill="white"/>
<path d="M93.0075 42.0625L93.1211 42.5339L76.1768 49.1497L76.7052 47.8409L93.0075 42.0625Z" fill="white" fill-opacity="0.501961"/>
<path d="M79.9225 37.8145L80.062 41.9459L79.5596 42.225L80.1458 44.8211L81.8486 44.2628C81.737 41.9909 80.9998 39.8634 79.9225 37.8145Z" fill="white" fill-opacity="0.501961"/>
<path d="M66.5508 24.4706L68.6165 23.5215C72.6976 26.53 75.1158 30.1852 77.9401 33.6825L74.1436 31.5051C72.0311 28.8349 69.3229 26.6279 66.5508 24.4706Z" fill="white" fill-opacity="0.501961"/>
<path d="M70.5708 51.5481C71.3522 50.941 72.1086 50.2939 73.2506 50.264L78.2753 41.0521L77.6333 35.6924L53.459 22.5166V26.0618L72.5248 35.8878C75.8676 37.6707 75.752 40.1027 74.4227 42.9708L70.5708 51.5481Z" fill="white"/>
<path d="M85.1281 42.7248L86.3913 42.1721C83.9663 35.2981 80.2894 27.5493 74.1138 21.999H72.2979C79.5175 27.6638 82.8863 35.6691 85.1281 42.7248Z" fill="white" fill-opacity="0.501961"/>
<path d="M90.0238 40.9869C88.1695 33.6575 81.2896 23.1462 76.5225 19.3536L77.1936 18.8799C83.0506 24.62 88.7953 33.1432 90.6554 40.9869H90.0238Z" fill="white" fill-opacity="0.501961"/>
<path d="M33.6996 75.0811L34.6471 78.2393L33.3838 76.976L33.6996 75.0811Z" fill="white" fill-opacity="0.501961"/>
<path d="M64.6809 76.1074L63.7334 79.2656L64.9967 78.0024L64.6809 76.1074Z" fill="white" fill-opacity="0.501961"/>
<path d="M33.1934 80.8867V82.3383C35.2717 83.4855 37.5355 84.2616 39.7534 85.1298L37.1014 82.7849C35.6946 82.4125 34.4582 81.6142 33.1934 80.8867Z" fill="white" fill-opacity="0.501961"/>
<path d="M64.7856 81.9531V83.4047C62.7073 84.5519 60.4434 85.328 58.2256 86.1962L60.8775 83.8513C62.2843 83.4789 63.5208 82.6806 64.7856 81.9531Z" fill="white" fill-opacity="0.501961"/>
<path d="M32.7129 86.4512V87.2802C36.9419 88.856 41.4151 89.9436 45.9576 90.8924L45.2668 90.1029C40.9853 89.3697 36.7841 88.2357 32.7129 86.4512Z" fill="white" fill-opacity="0.501961"/>
<path d="M65.1576 87.3926V88.2216C60.8315 89.7062 56.5596 90.4609 52.3076 90.9456L52.9985 90.156C57.0308 90.1034 61.0881 89.0042 65.1576 87.3926Z" fill="white" fill-opacity="0.501961"/>
<path d="M28.1199 50.4035C27.3385 49.7965 26.5822 49.1494 25.4401 49.1195L21.6855 39.7401L22.0903 35.6924L45.9017 22.5166V26.0618L26.8358 35.8878C23.4931 37.6707 23.7761 40.1865 25.1054 43.0545L28.1199 50.4035Z" fill="white"/>
<path d="M46.8662 22.5762C48.6624 23.1227 50.4722 23.1087 52.2947 22.5762L52.2943 26.8595H46.8662V22.5762Z" fill="white"/>
<path d="M49.5694 37.9326L39.3848 43.1436L49.5694 66.1986L59.1235 43.1436L49.5694 37.9326Z" fill="white"/>
<path d="M49.526 33.4775C48.9876 33.4791 48.4565 33.6777 47.754 34.068L35.358 40.6177C33.5124 41.6883 33.9609 42.5893 34.4665 43.9463L45.1093 69.1205L49.5694 73.0292L53.6759 69.1205L64.8872 44.2895C65.2199 43.4153 65.0769 42.0539 64.1258 41.447L51.3445 34.068C50.6103 33.6715 50.0645 33.476 49.526 33.4775ZM49.5694 37.1041L60.0711 42.8655L49.5694 68.2125L38.3587 42.9351L49.5694 37.1041Z" fill="white" fill-opacity="0.501961"/>
<path d="M45.8387 28.1562L26.6891 38.4565L26.3545 40.8575L31.8954 54.7031C33.1136 54.2504 34.2779 54.5056 34.882 56.0148L36.5289 59.8532C37.3664 62.1179 36.0883 62.4364 35.2008 62.8038L41.4379 77.3706L49.0574 84.1615L56.9212 77.3706L63.4813 63.0493C62.3391 62.3683 61.7776 61.577 62.5317 60.0908L64.8766 55.4566C65.7329 54.4473 66.4243 54.7173 67.1378 54.8149L73.1397 40.8575L72.7208 38.4565L53.548 28.2417L52.6101 28.9324H46.6197L45.8387 28.1562ZM49.6534 31.6338C50.318 31.6676 50.9151 32.0796 52.1735 32.769L64.7105 40.0075C67.032 41.26 67.8124 41.6989 66.1119 45.2364L54.7418 70.2652C51.3354 76.674 46.1362 74.4091 44.1619 70.2652L32.9909 44.0756C32.2263 42.2221 31.6039 40.9209 34.214 39.5123L46.7284 32.769C48.2569 31.9446 48.9888 31.6001 49.6534 31.6338Z" fill="white"/>
<path d="M31.3223 63.3564L33.1367 62.6309L39.6967 78.2074L46.9546 84.6556C48.9149 86.4319 49.4457 86.4934 51.5885 84.6556L58.8463 78.2074L65.518 62.6309L67.4162 63.3564L61.8611 78.7098C61.3759 80.0356 60.8769 80.7223 59.6838 81.8641L52.063 88.5079C49.0784 90.8871 48.7156 90.7988 46.0613 88.5079L37.9939 80.8871C37.2003 80.0837 36.8614 78.3857 36.3749 77.0907L31.3223 63.3564Z" fill="white"/>
<path d="M23.6738 19L42.8793 22.0148L38.1896 25.2529L23.6738 19Z" fill="white" fill-opacity="0.501961"/>
<path d="M75.6586 19L56.4531 22.0148L61.1428 25.2529L75.6586 19Z" fill="white" fill-opacity="0.501961"/>
<path d="M25.0137 16.7662L33.9464 18.2736C33.5472 17.4017 35.313 16.3374 37.2404 15.2588L47.8477 9.28499L47.848 3.08789L29.9825 13.9189C33.213 17.9186 29.7966 17.5509 25.0137 16.7662Z" fill="white"/>
<path d="M26.6611 15.399L28.8385 14.2266L29.3689 15.8735L26.6611 15.399Z" fill="white"/>
<path d="M74.5723 16.6362L65.6395 18.1436C66.0387 17.2717 64.2729 16.2074 62.3455 15.1288L50.0908 8.54085L50.0909 2.34375L69.6034 13.7888C66.3729 17.7886 69.7893 17.4209 74.5723 16.6362Z" fill="white"/>
<path d="M73.1765 15.1841L70.9991 14.0117L70.4688 15.6587L73.1765 15.1841Z" fill="white"/>
<path d="M47.8476 11.6025V20.5356L36.2354 18.4975L47.8476 11.6025Z" fill="white"/>
<path d="M50.0908 10.9482V20.535L63.3095 18.4015L50.0908 10.9482Z" fill="white"/>
</svg>
