<svg width="100" height="100" viewBox="0 0 100 100" fill="none" xmlns="http://www.w3.org/2000/svg">
<path d="M74.6746 92.6696C74.0977 92.4193 72.5086 91.1465 71.1433 89.8413C69.0851 87.8736 68.3092 87.3452 66.6019 86.7484C63.7552 85.7532 63.708 85.6704 64.1579 82.4538C64.5067 79.9602 64.6028 79.7281 65.6744 78.79C66.3037 78.2392 67.1641 77.7121 67.5863 77.6187C68.0085 77.5253 69.1139 77.1728 70.0428 76.8355C70.9717 76.4981 72.3535 76.0034 73.1135 75.7361C73.8734 75.4688 75.0406 74.8556 75.7072 74.3734C76.3738 73.8912 77.2943 73.4967 77.7526 73.4967C78.799 73.4967 79.9253 74.7797 80.6398 76.7855C80.9279 77.5944 81.7584 79.4998 82.4853 81.0198C83.2212 82.5586 83.9704 84.7022 84.1758 85.8567C84.6186 88.3456 84.3232 88.9896 82.0886 90.4067C80.9614 91.1216 76.202 93.1912 75.8102 93.1368C75.7625 93.1302 75.2515 92.92 74.6746 92.6696ZM11.7431 90.8124C9.83427 88.9072 9.107 88.458 5.35122 86.8646C4.64582 86.5653 3.67856 85.9132 3.20176 85.4156C2.37726 84.555 2.33533 84.3727 2.34473 81.6905C2.35643 78.3549 2.89194 75.951 3.81693 75.082C4.8822 74.0812 7.80738 73.7765 13.61 74.0618C19.9178 74.372 20.476 74.6082 20.136 76.8236C20.015 77.6115 19.8868 80.5362 19.8509 83.3228C19.7719 89.4635 19.6366 89.8263 16.8633 91.33C13.6954 93.0476 14.015 93.0799 11.7431 90.8124ZM22.4388 91.3611C21.7552 90.8076 21.7534 90.785 22.2634 89.2493C22.547 88.3956 22.7453 87.197 22.7042 86.5859C22.663 85.9748 22.7612 85.3527 22.9223 85.2035C23.0835 85.0544 24.5658 84.432 26.2164 83.8205C29.1007 82.7519 31.6596 82.3732 31.6596 83.0148C31.6596 83.1832 32.1544 83.8687 32.7592 84.5381C33.3639 85.2075 33.8121 85.9973 33.7551 86.2932C33.5989 87.1042 30.9223 89.0217 27.8071 90.5541C24.7943 92.0363 23.5109 92.2292 22.4388 91.3611ZM87.2703 86.4809C86.8399 86.1324 86.2738 85.0091 85.8417 83.6464L85.126 81.3891L87.3007 79.2487C88.4967 78.0715 90.0668 76.8466 90.7898 76.5268C91.5128 76.207 92.806 75.2288 93.6636 74.3529C95.4144 72.565 95.7165 72.6142 96.0838 74.747C96.5016 77.1722 95.9964 79.6409 94.5079 82.4479C93.236 84.8464 93.0341 85.0671 91.3753 85.873C88.9325 87.0597 88.1315 87.1783 87.2703 86.4809ZM33.1485 83.9849C31.8935 82.8635 32.1198 82.2206 33.8644 81.9501C35.9361 81.629 37.2567 81.1597 38.3178 80.3677C39.4304 79.5371 39.6463 79.4805 39.636 80.0218C39.6226 80.7325 35.4858 84.8581 34.7867 84.8581C34.4232 84.8581 33.686 84.4651 33.1485 83.9849ZM22.5244 82.059C22.1062 81.6293 21.999 77.6861 22.3382 75.2112C22.5248 73.8496 22.623 73.7254 24.1038 72.9786C25.5379 72.2553 33.2616 67.8942 34.7052 66.9927C35.8186 66.2974 35.8089 67.063 34.678 69.1414C34.0639 70.2702 33.1248 72.712 32.5912 74.5677C32.0577 76.4234 31.2823 78.3859 30.8681 78.9288C29.3579 80.9089 23.5321 83.0945 22.5244 82.059ZM83.7349 78.1474C83.6457 78.0032 83.2052 76.8632 82.756 75.6141C82.3068 74.3651 81.7498 73.0706 81.5182 72.7375C81.2866 72.4043 81.0972 71.8849 81.0972 71.5832C81.0972 70.86 84.0135 66.3806 85.749 64.4382C86.5034 63.5938 87.5873 62.2436 88.1576 61.4377C88.7279 60.6318 89.3417 60.0213 89.5215 60.0809C89.7014 60.1406 90.0763 61.0072 90.3547 62.0067C90.633 63.0063 91.0988 64.3768 91.3898 65.0524C91.8615 66.1476 91.8776 66.5634 91.5384 68.8907C91.3292 70.3262 90.961 71.9844 90.7201 72.5755C90.1548 73.9629 85.476 78.3972 84.5698 78.4044C84.1997 78.4081 83.824 78.2917 83.7349 78.1474ZM61.4659 76.2896C60.5103 74.9477 60.7032 71.2011 61.9621 66.6517C62.5616 64.4855 63.1748 64.0504 64.5896 64.7874C65.14 65.0741 66.0045 65.3947 66.5107 65.5C67.6605 65.7391 67.8081 66.331 67.857 70.902C67.8942 74.3715 67.7024 75.032 66.6577 75.032C66.3834 75.032 65.4788 75.5156 64.6474 76.1067C62.8093 77.4136 62.2875 77.4436 61.4659 76.2896ZM96.7575 74.8632C96.7575 73.9834 95.9622 72.2684 95.5542 72.2684C95.0005 72.2684 94.9918 71.3858 95.5268 69.4794L96.0798 67.5089L96.7614 69.0156C97.5913 70.8502 97.8221 72.3916 97.5442 74.2448C97.3207 75.7347 96.7575 76.1775 96.7575 74.8632ZM70.7471 73.341C69.7843 72.6667 69.5442 70.1714 70.151 67.1449C70.5954 64.9286 70.742 64.6447 72.0697 63.4279C72.8604 62.7033 74.2477 61.6191 75.1526 61.0184C76.0574 60.4178 77.6176 59.0092 78.6197 57.8882C79.6217 56.7672 80.5413 55.9499 80.6633 56.0719C80.7854 56.1939 80.6627 57.6426 80.3905 59.2913C79.9492 61.9653 79.1666 66.9775 78.7588 69.7405C78.6264 70.6378 78.3769 70.8559 76.3995 71.8036C74.6737 72.6306 71.7732 73.8037 71.4543 73.8037C71.4286 73.8037 71.1104 73.5955 70.7471 73.341ZM4.3936 71.4427C3.70364 70.8662 3.53257 69.8385 3.65506 67.0059C3.70762 65.7903 3.90785 65.3811 5.02167 64.2133C5.73944 63.4606 6.68829 62.4408 7.13024 61.9468C7.57219 61.4529 8.72146 60.6503 9.68418 60.1632C11.5166 59.2361 14.4639 58.7182 14.4639 59.3234C14.4639 59.5087 14.0657 60.459 13.5789 61.4352C13.0204 62.5551 12.6369 63.8898 12.5397 65.0524C12.4543 66.0743 12.1113 67.3734 11.7697 67.9695C11.4309 68.5606 10.9902 69.5605 10.7905 70.1914C10.5907 70.8224 10.3337 71.3957 10.2194 71.4654C10.105 71.5351 8.89721 71.6837 7.53531 71.7955C5.40511 71.9704 4.96615 71.9211 4.3936 71.4427ZM13.2212 71.5169C12.7501 71.0458 12.8789 70.1974 13.6565 68.6502C14.0568 67.8536 14.4868 66.8563 14.6119 66.4341C15.3452 63.9592 16.529 62.8199 20.4517 60.8142C21.7506 60.1501 22.4796 60.014 25.1856 59.9307C27.4417 59.8612 28.4197 59.9385 28.5047 60.1935C28.5709 60.3923 28.1475 61.2904 27.5637 62.1895C26.98 63.0885 26.1082 64.5454 25.6265 65.4269C25.1448 66.3085 23.95 68.1293 22.9714 69.4731L21.1921 71.9165L17.3529 71.863C15.2414 71.8336 13.3821 71.6779 13.2212 71.5169ZM34.8257 71.46C34.7143 71.1699 35.0417 70.2158 35.603 69.1949C36.1363 68.2247 36.5727 67.1346 36.5727 66.7724C36.5727 66.3025 37.1145 65.7635 38.4627 64.8922C40.651 63.4777 41.3232 63.3375 41.006 64.3615C40.5883 65.7101 39.2484 68.1425 38.1726 69.5048C36.3077 71.8666 35.2245 72.4994 34.8257 71.46ZM65.1297 64.3884C64.1503 63.7139 63.912 63.361 63.9062 62.5768C63.9003 61.7565 66.3843 57.1523 66.9276 56.9769C67.2445 56.8745 67.2811 57.0158 67.0811 57.5697C66.8432 58.2288 66.8217 61.4856 67.0398 63.8241C67.1449 64.951 66.3063 65.1987 65.1297 64.3884ZM92.0766 64.0646C91.8027 63.7618 91.214 62.5037 90.7685 61.2687C89.977 59.0745 89.9712 59.0044 90.5125 58.1995C90.8172 57.7464 91.3204 56.823 91.6307 56.1475C92.1572 55.0014 92.2231 54.9575 92.616 55.4909C93.4549 56.63 93.6338 62.7225 92.8685 64.09C92.593 64.5824 92.5438 64.5808 92.0766 64.0646ZM23.6956 59.0882C23.3548 58.8688 23.336 58.7065 23.6126 58.3733C24.4801 57.328 29.6592 55.3798 31.5706 55.3798C32.4962 55.3798 32.4647 56.0118 31.5032 56.7339C31.0794 57.0522 30.4605 57.7529 30.1278 58.2912C29.5271 59.2631 29.5047 59.2701 26.8298 59.3209C25.3485 59.3491 23.9381 59.2443 23.6956 59.0882ZM14.9005 58.7187C14.7617 58.4941 14.0558 58.43 12.8865 58.5361C11.8963 58.6259 11.0862 58.5931 11.0862 58.4633C11.0862 58.1859 14.2257 56.7709 15.4942 56.4766C16.5463 56.2324 19.0699 56.5665 19.0699 56.95C19.0699 57.0997 18.8972 57.2261 18.6861 57.2308C18.475 57.2352 17.7595 57.65 17.0961 58.1519C15.8074 59.127 15.2429 59.2727 14.9005 58.7187ZM75.9158 58.0366C75.3837 57.3954 77.0925 54.2824 79.2975 51.8761C81.0494 49.9641 81.9268 49.4849 81.8194 50.4986C81.7944 50.7344 81.6003 51.8025 81.3881 52.8722C81.0936 54.3571 80.8502 54.875 80.3589 55.0625C80.0049 55.1975 79.1199 56.0151 78.392 56.8793C77.0243 58.5033 76.5047 58.7461 75.9158 58.0366ZM49.7837 42.9713C48.4364 41.7349 47.0944 40.8102 46.1744 40.4843C40.5321 38.4856 40.2574 38.162 40.2574 33.5148C40.2574 30.2098 40.7233 28.1604 41.604 27.5907C42.96 26.7137 46.1619 26.3023 51.3833 26.3342C56.5175 26.3657 56.5221 26.3663 57.3375 27.1817C58.1102 27.9544 58.1351 28.0712 57.8053 29.3807C57.5574 30.3655 57.5396 31.9907 57.7437 35.0264C58.0088 38.9686 57.8828 40.9253 57.3035 41.8626C56.9537 42.4285 52.9608 44.9396 52.4108 44.9396C52.1455 44.9396 50.9633 44.0539 49.7837 42.9713ZM61.1379 43.3075C60.5875 43.0245 60.393 42.6999 60.4506 42.1606C60.4948 41.7468 60.6174 40.3944 60.723 39.1552L60.915 36.902L63.2298 35.8471C67.3816 33.9551 69.7357 33.5063 69.7357 34.6068C69.7357 34.8454 70.2194 35.4095 70.8105 35.8604C71.4016 36.3112 71.8852 36.9214 71.8852 37.2163C71.8852 38.2912 68.5081 40.9277 64.6026 42.9017C62.8043 43.8106 62.2438 43.8763 61.1379 43.3075ZM71.8852 35.8169C71.0266 35.5011 70.3499 34.7141 70.3499 34.0311C70.3499 33.442 70.606 33.3006 72.2651 32.9742C74.4387 32.5466 75.4673 32.0834 76.3092 31.1531C76.6305 30.798 77.0102 30.5075 77.1529 30.5075C77.7862 30.5075 77.265 31.4426 75.3985 33.6549C73.4949 35.9114 72.989 36.2227 71.8852 35.8169ZM60.4663 33.6832C59.9106 33.068 59.7554 31.6394 59.8491 28.0008L59.9097 25.6476L62.443 24.1218C63.8363 23.2827 66.5653 21.5444 68.5075 20.2591C71.7142 18.137 72.8064 17.588 72.8064 18.0985C72.8064 18.1978 72.3803 19.1996 71.8594 20.3247C71.3385 21.4498 70.7277 23.1303 70.5021 24.0592C70.2764 24.988 69.8762 26.6376 69.6126 27.7249C69.0308 30.1254 67.7879 31.5369 65.0184 32.9426C62.5334 34.2038 61.1411 34.4304 60.4663 33.6832ZM41.5419 23.9654C40.967 23.3535 40.8716 22.8986 40.8716 20.7699C40.8716 18.309 40.8827 18.2741 42.1766 16.6661C44.7922 13.4155 47.0762 11.7734 49.6229 11.3125C51.2437 11.0191 51.4252 11.4545 50.513 13.4471C49.9628 14.6488 49.6771 15.8363 49.6318 17.109C49.5949 18.145 49.3547 19.4071 49.0981 19.9138C48.8414 20.4204 48.3943 21.5606 48.1044 22.4474C47.5221 24.229 47.5484 24.2151 44.2287 24.5036C42.3954 24.6629 42.1512 24.614 41.5419 23.9654ZM50.3758 23.5807C50.1044 23.2537 50.133 22.8436 50.4971 21.8404C50.7591 21.1185 51.3207 19.5606 51.745 18.3784C52.615 15.9547 53.6968 14.7953 56.7865 12.9753C58.5228 11.9526 58.9035 11.8563 61.9464 11.6701C63.7533 11.5595 65.2946 11.532 65.3716 11.6089C65.4485 11.6858 65.1146 12.4113 64.6297 13.2212C64.1447 14.031 63.3 15.6425 62.7525 16.8022C61.9966 18.4033 59.4115 22.6021 58.5 23.7091C58.45 23.77 56.6814 23.8622 54.5699 23.9141C51.5744 23.9877 50.6528 23.9144 50.3758 23.5807ZM72.397 22.9332C72.0062 22.5424 72.1964 21.5741 72.9599 20.0673C73.3821 19.2341 73.7276 18.2255 73.7276 17.8261C73.7276 17.3001 74.2041 16.7468 75.455 15.82C77.5201 14.29 78.1237 14.1797 77.838 15.3845C77.4741 16.9187 76.8201 18.2629 75.3933 20.4092C73.8753 22.6926 72.9423 23.4785 72.397 22.9332ZM47.7783 10.859C48.5481 9.61346 53.0706 8.17186 54.7638 8.63226L55.6058 8.8612L54.0227 10.0376C52.4943 11.1734 52.396 11.2019 51.18 10.8614C50.2743 10.6078 49.6789 10.6006 49.0608 10.8355C47.9867 11.2439 47.5353 11.2522 47.7783 10.859ZM60.3358 10.7146C59.8609 10.3673 59.9781 10.2109 61.47 9.20182C62.3851 8.58284 64.012 7.80349 65.0853 7.46993C66.9984 6.87541 68.8145 6.6741 68.8145 7.05655C68.8145 7.16275 68.3654 7.77252 67.8166 8.41159C67.2677 9.05066 66.6113 9.84877 66.358 10.1851C65.9841 10.6817 65.424 10.8254 63.3815 10.9493C61.6278 11.0557 60.705 10.9846 60.3358 10.7146Z" fill="white"/>
</svg>
