<svg width="100" height="100" viewBox="0 0 100 100" fill="none" xmlns="http://www.w3.org/2000/svg">
<path d="M49.0325 16.918V37.9575C46.0131 38.1527 43.1714 39.4535 41.0504 41.6112C38.9293 43.769 37.6776 46.6326 37.5343 49.6549V49.3158H16.542V50.6178H37.5343V50.6029C37.629 53.6605 38.8591 56.5733 40.9849 58.7732C43.1106 60.973 45.9795 62.3023 49.0321 62.5017V83.0816H50.4131V62.4998C53.4989 62.3497 56.4154 61.0443 58.5832 58.843C60.751 56.6417 62.0115 53.7056 62.1143 50.6178H83.0173V49.3158H62.0815C61.8567 46.3241 60.5469 43.5176 58.3982 41.4239C56.2495 39.3302 53.4099 38.0936 50.4134 37.9465V16.918H49.0325ZM49.8851 42.0603C52.0518 42.0603 54.1296 42.918 55.6617 44.4446C57.1938 45.9713 58.0545 48.0418 58.0547 50.2008C58.0547 51.2699 57.8434 52.3286 57.4329 53.3163C57.0223 54.304 56.4206 55.2015 55.662 55.9575C54.9034 56.7135 54.0028 57.3132 53.0116 57.7223C52.0204 58.1315 50.958 58.3421 49.8851 58.3421C48.8122 58.3422 47.7498 58.1316 46.7586 57.7224C45.7673 57.3133 44.8667 56.7136 44.108 55.9576C43.3493 55.2016 42.7476 54.3041 42.337 53.3164C41.9264 52.3286 41.7151 51.2699 41.7152 50.2008C41.7153 48.0417 42.5761 45.9711 44.1083 44.4445C45.6404 42.9179 47.7184 42.0602 49.8851 42.0603Z" fill="white"/>
<path d="M69.6191 47.8136L71.8629 46.5479C73.5085 54.6885 70.6687 61.82 63.6356 68.008C57.0462 73.5595 42.0088 72.0289 35.5591 67.4902L38.033 65.9943C43.5388 70.303 54.1987 72.1212 61.6794 66.0518C67.6926 61.1119 70.6547 55.1393 69.6191 47.8136Z" fill="white" fill-opacity="0.5"/>
<path d="M73.5587 40.9553L75.5522 38.8398C78.1938 40.8652 78.7885 50.8355 78.6644 50.9836C78.6566 54.6094 77.7367 57.9504 76.5082 61.1949L69.877 65.7107C72.3427 61.953 75.3637 56.372 75.2471 50.8615C75.5262 46.6011 74.6349 43.7851 73.5587 40.9553Z" fill="white" fill-opacity="0.5"/>
<path d="M51.0403 22.9813C34.7219 22.8784 18.2957 32.1917 2.34375 50.1518C35.0394 86.3146 65.8179 86.3288 97.6562 50.5175C82.5721 32.0264 66.8566 23.0811 51.0403 22.9813ZM50.8374 25.652C65.3264 25.7303 79.7616 33.7912 94.0712 50.5175C65.0755 82.5985 35.5583 83.4143 5.89858 50.1518C20.8825 33.9879 35.8885 25.5712 50.8374 25.652Z" fill="white"/>
<path d="M30.007 35.2422L23.1029 40.0175C22.017 43.0719 21.3711 46.361 21.4344 50.0284C21.3787 54.2223 21.9991 58.1327 24.3111 61.3338L26.6125 59.0899C25.7167 56.1809 24.8625 53.2558 24.944 49.9708C25.2763 41.4972 27.6559 38.4071 30.007 35.2422Z" fill="white" fill-opacity="0.5"/>
<path d="M30.2927 52.0818L27.6484 53.5464C27.2414 47.4043 27.7925 41.2445 33.1812 34.9952C40.3047 27.7486 51.6352 28.3609 56.4516 29.5844C59.7952 29.9833 61.9559 31.3434 64.0999 32.7169L61.4962 34.2629C59.3358 32.8426 57.6344 32.0781 56.0041 31.4151C46.9099 28.0934 37.97 33.4475 35.256 36.7445C30.2952 42.2312 29.5334 47.2426 30.2927 52.0818Z" fill="white" fill-opacity="0.5"/>
</svg>
