<svg width="100" height="100" viewBox="0 0 100 100" fill="none" xmlns="http://www.w3.org/2000/svg">
<path d="M42.6623 42.9239L42.3491 36.2207C37.0309 40.3495 36.2173 46.6034 35.8965 48.0296C38.8439 47.286 40.4176 44.6405 42.6623 42.9239Z" fill="white"/>
<path d="M42.9511 44.6035C42.806 44.4077 42.6528 44.3022 42.4638 44.6035C40.9282 48.0071 36.6091 50.4804 36.3507 51.0267C34.82 52.5338 34.3759 57.7514 33.4492 60.9052C34.2296 65.0946 36.1802 68.3478 37.5468 72.0682C37.8293 72.5956 38.2546 72.7488 38.9643 72.1568L46.7164 65.3128C47.5954 63.2189 46.0005 61.0973 46.0741 56.2982L43.7263 48.9005C43.6314 47.4533 43.6651 45.9944 42.9511 44.6035Z" fill="white"/>
<path d="M28.9274 50.7539L27.5648 56.3921C25.5934 56.8393 23.7993 57.8368 22.6157 60.7304C23.0937 58.7705 23.3162 56.8248 24.4951 54.8259C25.7196 53.3562 27.3393 52.0621 28.9274 50.7539Z" fill="white"/>
<path d="M25.6304 59.1118C26.385 58.1999 26.8403 58.4037 27.1365 59.2004C27.6255 62.0211 28.2673 64.6838 30.5364 66.2881C32.2436 67.7827 33.604 72.6468 34.6907 76.0325C32.9479 77.701 31.0758 80.0734 29.4597 81.0286C28.255 81.8692 27.2086 81.6913 26.2961 80.6527L21.8325 75.735C21.9955 72.3642 21.6823 68.9253 22.3963 65.6332C22.9443 63.3497 23.875 61.1455 25.6304 59.1118Z" fill="white"/>
<path d="M22.9727 9.20973L26.6937 6.90625L26.3836 46.0656C23.6739 39.4151 24.7621 32.1042 24.5231 25.0241L22.9727 9.20973Z" fill="white"/>
<path d="M37.4136 3.07466L40.6916 2.34375L40.2043 30.7387C37.5596 21.7191 38.2708 12.3046 37.4136 3.07466Z" fill="white"/>
<path d="M58.2616 2.79785L62.6155 3.89417L58.9194 29.9552C57.7104 20.8368 58.3465 11.8413 58.2616 2.79785Z" fill="white"/>
<path d="M75.0665 9.86133L78.1675 12.2889C78.099 25.4026 78.7786 39.1978 73.605 47.6601C75.3849 35.5427 74.1907 24.1922 75.0665 9.86133Z" fill="white"/>
<path d="M61.5786 49.9422H63.2174C62.6949 45.7801 63.3382 43.0544 60.6924 36.2762C60.6496 35.9252 59.9498 35.7221 59.8064 36.2762L58.5439 42.2785C60.7741 44.2073 60.7356 47.301 61.5786 49.9422Z" fill="white"/>
<path d="M51.8714 63.9102C51.6794 64.6402 51.0283 64.5139 51.6834 66.1342C53.0962 68.8554 56.0114 71.1473 58.5119 73.5578C59.2015 74.2339 59.9797 74.2695 60.8612 73.5578C63.4374 71.2563 63.9446 68.2653 65.2464 65.539C65.8082 64.3071 65.8671 62.7213 64.8392 60.3707L60.172 52.1326L58.0107 45.6174C57.8419 45.1201 57.5888 44.4451 57.2277 45.5861L51.8714 63.9102Z" fill="white"/>
<path d="M70.8848 64.1134C74.9061 60.814 75.5373 57.6263 75.8182 54.4502C76.4038 55.9846 77.0026 57.4693 76.1627 64.3797C73.9074 65.1808 71.7456 65.8142 70.8848 64.1134Z" fill="white"/>
<path d="M69.6626 66.1768L64.0811 76.0552L64.1696 78.3144C66.0618 79.5155 67.3199 81.5161 68.2538 83.9254C69.7337 85.3804 71.5717 83.5785 72.4354 82.6099C74.2719 80.0462 74.3239 77.152 75.1606 74.4032C75.7045 72.5399 76.402 70.7535 76.4761 68.6553C76.5346 68.2469 76.5651 66.778 75.4268 66.9639C73.2239 67.2645 71.3661 66.875 69.6626 66.1768Z" fill="white"/>
<path d="M33.0147 83.534C32.0917 85.0333 31.6048 86.4921 32.4665 87.8253L38.9975 96.2826C39.9251 97.4674 41.3744 97.8699 43.3044 97.5512L52.3568 94.7008C53.6085 94.3156 54.9207 94.0072 56.7891 94.4032C59.004 95.0571 60.761 95.2007 61.5189 94.2309C62.9432 92.4247 62.8553 90.1602 63.414 88.0916C63.7623 87.2708 63.9242 86.3104 63.3357 84.787C62.1096 82.3779 58.6044 80.2721 57.6661 79.0705L55.7554 76.3297C55.0937 75.5412 54.1922 75.8633 53.9543 75.5153L51.6834 71.3179C50.3634 69.5366 47.4577 69.8039 46.1548 71.0987L40.6889 76.5803C37.5973 79.2025 34.954 80.4376 33.0147 83.534Z" fill="white"/>
</svg>
