<svg width="100" height="100" viewBox="0 0 100 100" fill="none" xmlns="http://www.w3.org/2000/svg">
<path d="M16.5743 51.9727L14.3957 45.0197L19.68 41.126L18.3357 36.4443L3.73436 49.6551C2.77673 50.4639 2.38074 51.1687 2.34375 52.2509L2.39011 59.8528L3.03906 60.7336L16.5743 51.9727Z" fill="white"/>
<path d="M17.8723 50.9989L22.4149 48.125C22.4146 49.0345 22.5856 49.9194 23.0175 50.7671C23.0262 46.2976 34.373 46.0776 34.0033 50.9989C35.0272 49.8918 34.799 43.2811 35.5793 39.4569L43.274 34.4507C43.5605 36.7934 43.7222 39.0861 44.2938 41.5428C44.6065 36.9649 55.6907 36.6606 55.5113 41.8673C56.3605 39.6034 56.3579 37.0202 56.7629 34.5898L64.4112 39.5959C64.868 43.2856 64.6872 47.3296 65.8482 50.6281C66.0531 46.3879 77.0217 45.9866 76.834 50.9526C77.35 50.1405 77.4908 49.1032 77.5756 48.0323L82.3037 51.277L83.8333 45.5755L78.4563 41.4964L80.3568 35.2387L50.088 7.93652L19.4483 35.3778L21.4415 41.6355L16.1108 45.6683L17.8723 50.9989Z" fill="white"/>
<path d="M83.4255 52.0362L85.6041 45.0832L80.3198 41.1895L81.6641 36.5078L96.2654 49.7185C97.2231 50.5274 97.619 51.2322 97.656 52.3143L97.6097 59.9163L96.9608 60.797L83.4255 52.0362Z" fill="white"/>
<path d="M28.5565 53.9187C31.2702 53.9187 33.47 52.632 33.47 51.0448C33.47 49.4576 31.2702 48.1709 28.5565 48.1709C25.8429 48.1709 23.6431 49.4576 23.6431 51.0448C23.6431 52.632 25.8429 53.9187 28.5565 53.9187Z" fill="white"/>
<path d="M50.0414 44.6951C52.755 44.6951 54.9549 43.4084 54.9549 41.8212C54.9549 40.234 52.755 38.9473 50.0414 38.9473C47.3278 38.9473 45.1279 40.234 45.1279 41.8212C45.1279 43.4084 47.3278 44.6951 50.0414 44.6951Z" fill="white"/>
<path d="M71.3642 53.9187C74.0778 53.9187 76.2776 52.632 76.2776 51.0448C76.2776 49.4576 74.0778 48.1709 71.3642 48.1709C68.6505 48.1709 66.4507 49.4576 66.4507 51.0448C66.4507 52.632 68.6505 53.9187 71.3642 53.9187Z" fill="white"/>
<path d="M28.2664 57.5166C23.4959 58.4199 19.6196 69.0693 23.2842 75.8717L23.1205 71.4467L24.9233 76.8218C25.3358 78.6695 25.4127 80.4656 23.5793 81.9678C24.7503 83.0371 25.4836 81.9177 26.1361 80.3946C26.5834 84.305 24.597 87.8162 28.2994 92.0635C27.9929 85.5827 29.3806 85.0007 31.5441 81.2468C33.4929 77.9573 31.9616 74.0874 32.7239 73.3479C33.747 74.3423 34.0576 76.3457 34.035 78.8214C34.7603 77.7633 35.8312 59.0408 28.2664 57.5166ZM27.9389 58.2705C30.5691 58.4832 30.1428 64.3741 29.8888 65.8419L29.1516 63.3181C28.3597 66.2915 28.4591 69.6319 29.1516 73.2166C27.0954 69.8187 26.6167 66.4209 26.4636 63.023L26.1361 63.1868C25.6407 60.8463 26.4459 58.4259 27.9389 58.2705Z" fill="white" fill-opacity="0.51"/>
<path d="M50.1414 48.2539C45.3709 49.1572 41.4946 59.8066 45.1592 66.609L44.9955 62.184L46.7983 67.5591C47.2108 69.4068 47.2877 71.2029 45.4543 72.7051C46.6253 73.7744 47.3586 72.6551 48.0111 71.1319C48.4584 75.0424 46.472 78.5535 50.1744 82.8008C49.8679 76.32 51.2556 75.738 53.4191 71.9841C55.3679 68.6946 53.8366 64.8247 54.5989 64.0852C55.622 65.0796 55.9326 67.083 55.91 69.5587C56.6353 68.5006 57.7062 49.7781 50.1414 48.2539ZM49.8139 49.0078C52.4441 49.2206 52.0178 55.1114 51.7638 56.5792L51.0267 54.0554C50.2347 57.0288 50.3341 60.3692 51.0267 63.9539C48.9704 60.556 48.4917 57.1582 48.3386 53.7604L48.0111 53.9241C47.5157 51.5836 48.3209 49.1632 49.8139 49.0078Z" fill="white" fill-opacity="0.51"/>
<path d="M71.8128 57.3662C67.0423 58.2695 63.166 68.9189 66.8306 75.7213L66.6669 71.2963L68.4697 76.6714C68.8822 78.5191 68.9591 80.3152 67.1257 81.8174C68.2966 82.8867 69.03 81.7673 69.6825 80.2442C70.1298 84.1546 68.1434 87.6658 71.8458 91.9131C71.5393 85.4323 72.927 84.8503 75.0905 81.0964C77.0393 77.8069 75.508 73.937 76.2703 73.1975C77.2934 74.1919 77.604 76.1953 77.5814 78.671C78.3067 77.6129 79.3776 58.8904 71.8128 57.3662ZM71.4853 58.1201C74.1155 58.3328 73.6892 64.2237 73.4352 65.6915L72.698 63.1677C71.9061 66.1411 72.0055 69.4815 72.698 73.0662C70.6418 69.6683 70.1631 66.2705 70.01 62.8726L69.6825 63.0364C69.1871 60.6959 69.9922 58.2755 71.4853 58.1201Z" fill="white" fill-opacity="0.51"/>
</svg>
