<svg width="100" height="100" viewBox="0 0 100 100" fill="none" xmlns="http://www.w3.org/2000/svg">
<path d="M69.3183 21.4365H29.9539L27.4932 24.4567V75.0038L30.0633 77.7435H69.3183L71.8884 75.0038V24.4567L69.3183 21.4365ZM49.4173 22.3817C50.2627 22.3817 50.9481 23.0827 50.9481 23.9473C50.9481 24.812 50.2627 25.513 49.4173 25.513C48.5718 25.513 47.8864 24.812 47.8864 23.9473C47.8864 23.0827 48.5718 22.3817 49.4173 22.3817ZM60.6481 23.2312C64.6218 23.2312 67.8431 26.5257 67.8431 30.5897C67.8431 34.6536 64.6218 37.9481 60.6481 37.9481C56.6744 37.9481 53.4531 34.6536 53.4531 30.5897C53.4531 26.5257 56.6744 23.2312 60.6481 23.2312ZM38.4962 23.3101C42.4699 23.3101 45.6912 26.6046 45.6912 30.6685C45.6912 34.7325 42.4699 38.027 38.4962 38.027C34.5225 38.027 31.3012 34.7325 31.3012 30.6685C31.3012 26.6046 34.5225 23.3101 38.4962 23.3101ZM49.3676 37.0931H49.3712C50.893 37.0931 52.1267 38.3548 52.1267 39.9113C52.1267 41.4677 50.893 42.7294 49.3712 42.7294C47.8494 42.7294 46.6157 41.4677 46.6157 39.9113C46.6157 38.3563 47.8472 37.0952 49.3676 37.0931ZM69.414 38.589C70.2595 38.589 70.9449 39.29 70.9449 40.1547C70.9449 41.0193 70.2595 41.7203 69.414 41.7203C68.5686 41.7203 67.8832 41.0193 67.8832 40.1547C67.8832 39.29 68.5686 38.589 69.414 38.589ZM30.1841 38.5922C31.0296 38.5922 31.715 39.2931 31.715 40.1578C31.715 41.0225 31.0296 41.7234 30.1841 41.7234C29.3387 41.7234 28.6533 41.0225 28.6533 40.1578C28.6533 39.2931 29.3387 38.5922 30.1841 38.5922ZM60.6559 42.091H60.6565C60.6794 42.0909 60.7023 42.0909 60.7253 42.091C64.699 42.091 67.9203 45.3855 67.9203 49.4494C67.9203 53.5134 64.699 56.8079 60.7253 56.8079C56.7516 56.8079 53.5303 53.5134 53.5303 49.4494C53.5301 45.413 56.7093 42.1299 60.6559 42.091ZM38.4573 42.2885C42.431 42.2885 45.6523 45.583 45.6523 49.647C45.6523 53.7109 42.431 57.0054 38.4573 57.0054C34.4836 57.0054 31.2623 53.7109 31.2623 49.647C31.2623 45.583 34.4836 42.2885 38.4573 42.2885ZM49.376 56.496H49.3791C50.9009 56.496 52.1346 57.7577 52.1346 59.3141C52.1346 60.8705 50.9009 62.1323 49.3791 62.1323C47.8572 62.1323 46.6235 60.8705 46.6235 59.3141C46.6235 57.7589 47.8553 56.4977 49.376 56.496ZM69.4487 57.4262C70.2942 57.4262 70.9796 58.1272 70.9796 58.9918C70.9796 59.8565 70.2942 60.5575 69.4487 60.5575C68.6033 60.5575 67.9179 59.8565 67.9179 58.9918C67.9179 58.1272 68.6033 57.4262 69.4487 57.4262ZM30.1405 57.4617C30.9859 57.4617 31.6713 58.1626 31.6713 59.0273C31.6713 59.892 30.9859 60.5929 30.1405 60.5929C29.295 60.5929 28.6096 59.892 28.6096 59.0273C28.6096 58.1626 29.295 57.4617 30.1405 57.4617ZM60.5016 61.188C60.5247 61.1879 60.5478 61.1879 60.571 61.188C64.5447 61.188 67.766 64.4825 67.766 68.5464C67.766 72.6104 64.5447 75.9049 60.571 75.9049C56.5973 75.9049 53.376 72.6104 53.376 68.5464C53.3758 64.51 56.555 61.2269 60.5016 61.188ZM38.3539 61.232C38.377 61.2319 38.4001 61.2319 38.4232 61.232C42.3969 61.232 45.6182 64.5265 45.6182 68.5905C45.6182 72.6544 42.3969 75.9489 38.4232 75.9489C34.4495 75.9489 31.2282 72.6544 31.2282 68.5905C31.228 64.5541 34.4073 61.2709 38.3539 61.232ZM49.3724 73.7754C49.3794 73.7754 49.3864 73.7754 49.3934 73.7754C50.2393 73.7753 50.9252 74.4478 50.9254 75.2774C50.9255 76.1073 50.2395 76.7801 49.3934 76.7801C48.5472 76.7801 47.8612 76.1073 47.8613 75.2774C47.8615 74.4557 48.5347 73.7865 49.3724 73.7754Z" fill="white"/>
<path d="M67.2591 5.6414L63.973 9.47659C24.5225 -2.98296 -1.28865 36.3556 11.9116 67.064L15.3013 64.7156L14.8639 76.4019L3.71058 72.4878L7.59239 69.9716C3.01447 60.1775 2.4849 49.2875 4.9134 37.5966L2.34375 35.2482C7.37654 18.3947 20.536 8.14958 30.9926 3.26464L33.3435 5.44534C43.1259 1.68794 54.0822 0.877512 67.2591 5.6414Z" fill="white"/>
<path d="M31.6475 93.9813L35.0302 89.9287C73.7871 103.335 103.892 65.026 87.9283 30.8869L84.152 33.7888L84.5893 22.1025L95.7427 26.0166L91.8609 28.5328C96.4388 38.3269 98.3656 50.0573 95.0866 62.6971L97.6563 65.0455C92.6235 81.899 79.4641 92.1441 69.0074 97.0291L66.6565 94.8484C56.8741 98.6058 42.6374 98.857 31.6475 93.9813Z" fill="white"/>
<path d="M27.1692 18.5312L24.5781 21.5359V77.6796L27.0915 80.8029H72.1327L74.875 77.6796V21.5359L72.2851 18.5312H27.1692ZM29.0224 19.9892H70.3518L73.2126 23.4128V75.9012L70.3518 78.9841L28.9088 78.945L26.1473 75.9012V23.4128L29.0224 19.9892Z" fill="white"/>
<path d="M60.568 62.7188C59.0198 62.7188 57.535 63.3478 56.4403 64.4674C55.3455 65.587 54.7305 67.1055 54.7305 68.6889C54.7305 70.2723 55.3455 71.7909 56.4403 72.9105C57.535 74.0301 59.0198 74.6591 60.568 74.6591C62.1163 74.6591 63.6011 74.0301 64.6958 72.9105C65.7906 71.7909 66.4056 70.2723 66.4056 68.6889C66.4056 67.1055 65.7906 65.587 64.6958 64.4674C63.6011 63.3478 62.1163 62.7188 60.568 62.7188ZM60.6733 66.1662C60.9949 66.1662 61.3135 66.231 61.6106 66.3569C61.9078 66.4828 62.1778 66.6673 62.4053 66.8999C62.6327 67.1325 62.8131 67.4087 62.9362 67.7126C63.0593 68.0165 63.1227 68.3422 63.1227 68.6712C63.1227 69.0002 63.0593 69.3259 62.9362 69.6298C62.8131 69.9337 62.6327 70.2099 62.4053 70.4425C62.1778 70.6751 61.9078 70.8596 61.6106 70.9855C61.3135 71.1114 60.9949 71.1762 60.6733 71.1762C60.3516 71.1762 60.0331 71.1114 59.736 70.9855C59.4388 70.8596 59.1688 70.6751 58.9413 70.4425C58.7139 70.2099 58.5335 69.9337 58.4104 69.6298C58.2873 69.3259 58.2239 69.0002 58.2239 68.6712C58.2239 68.3422 58.2873 68.0165 58.4104 67.7126C58.5335 67.4087 58.7139 67.1325 58.9413 66.8999C59.1688 66.6673 59.4388 66.4828 59.736 66.3569C60.0331 66.231 60.3516 66.1662 60.6733 66.1662ZM60.6781 67.4028C60.3565 67.4078 60.0497 67.5419 59.824 67.7763C59.5984 68.0106 59.4719 68.3264 59.4719 68.6553C59.4719 68.8198 59.5036 68.9827 59.5652 69.1346C59.6267 69.2866 59.7169 69.4246 59.8306 69.541C59.9443 69.6573 60.0794 69.7495 60.2279 69.8125C60.3765 69.8754 60.5358 69.9078 60.6966 69.9078C60.8574 69.9078 61.0167 69.8754 61.1653 69.8125C61.3139 69.7495 61.4489 69.6573 61.5626 69.541C61.6763 69.4246 61.7665 69.2866 61.8281 69.1346C61.8896 68.9827 61.9213 68.8198 61.9213 68.6553C61.9213 68.4908 61.8896 68.328 61.8281 68.176C61.7665 68.024 61.6763 67.8859 61.5626 67.7696C61.4489 67.6533 61.3139 67.5611 61.1653 67.4981C61.0167 67.4352 60.8574 67.4028 60.6966 67.4028C60.6904 67.4027 60.6842 67.4027 60.6781 67.4028Z" fill="white"/>
<path d="M38.4963 62.7744C36.9481 62.7744 35.4632 63.4034 34.3685 64.5231C33.2737 65.6427 32.6587 67.1612 32.6587 68.7446C32.6587 70.328 33.2737 71.8465 34.3685 72.9661C35.4632 74.0858 36.9481 74.7148 38.4963 74.7148C40.0445 74.7148 41.5293 74.0858 42.6241 72.9661C43.7188 71.8465 44.3338 70.328 44.3338 68.7446C44.3338 67.1612 43.7188 65.6427 42.6241 64.5231C41.5293 63.4034 40.0445 62.7744 38.4963 62.7744ZM38.6015 66.2218C38.9232 66.2218 39.2417 66.2867 39.5388 66.4125C39.836 66.5384 40.106 66.7229 40.3335 66.9556C40.5609 67.1882 40.7413 67.4643 40.8644 67.7682C40.9875 68.0722 41.0509 68.3979 41.0509 68.7269C41.0509 69.3912 40.7928 70.0284 40.3335 70.4982C39.8741 70.9679 39.2511 71.2319 38.6015 71.2319C37.9519 71.2319 37.3289 70.9679 36.8696 70.4982C36.4102 70.0284 36.1521 69.3912 36.1521 68.7269C36.1521 68.3979 36.2155 68.0722 36.3386 67.7682C36.4617 67.4643 36.6421 67.1882 36.8695 66.9556C37.097 66.7229 37.367 66.5384 37.6642 66.4125C37.9614 66.2867 38.2799 66.2218 38.6015 66.2218ZM38.6063 67.4585C38.2847 67.4634 37.9779 67.5976 37.7522 67.8319C37.5266 68.0663 37.4001 68.382 37.4001 68.711C37.4001 69.0432 37.5291 69.3617 37.7588 69.5966C37.9885 69.8315 38.3 69.9635 38.6248 69.9635C38.9496 69.9635 39.2611 69.8315 39.4908 69.5966C39.7204 69.3617 39.8495 69.0431 39.8495 68.711C39.8495 68.3788 39.7204 68.0602 39.4908 67.8253C39.2611 67.5904 38.9496 67.4585 38.6248 67.4585C38.6186 67.4584 38.6124 67.4584 38.6063 67.4585Z" fill="white"/>
<path d="M38.4577 43.5977C36.9095 43.5977 35.4247 44.2267 34.3299 45.3463C33.2352 46.4659 32.6201 47.9844 32.6201 49.5678C32.6201 51.1512 33.2352 52.6697 34.3299 53.7894C35.4247 54.909 36.9095 55.538 38.4577 55.538C40.0059 55.538 41.4907 54.909 42.5855 53.7894C43.6802 52.6697 44.2953 51.1512 44.2953 49.5678C44.2953 47.9844 43.6802 46.4659 42.5855 45.3463C41.4907 44.2267 40.0059 43.5977 38.4577 43.5977ZM38.5629 47.0451C38.8846 47.0451 39.2031 47.1099 39.5003 47.2358C39.7974 47.3617 40.0675 47.5462 40.2949 47.7788C40.5224 48.0114 40.7028 48.2876 40.8259 48.5915C40.949 48.8954 41.0123 49.2211 41.0123 49.5501C41.0123 50.2145 40.7543 50.8516 40.2949 51.3214C39.8356 51.7912 39.2126 52.0551 38.5629 52.0551C37.9133 52.0551 37.2903 51.7912 36.831 51.3214C36.3716 50.8516 36.1136 50.2145 36.1136 49.5501C36.1136 49.2211 36.1769 48.8954 36.3 48.5915C36.4231 48.2876 36.6035 48.0114 36.831 47.7788C37.0584 47.5462 37.3284 47.3617 37.6256 47.2358C37.9228 47.1099 38.2413 47.0451 38.5629 47.0451ZM38.5677 48.2817C38.2461 48.2867 37.9393 48.4208 37.7137 48.6552C37.488 48.8895 37.3615 49.2053 37.3615 49.5342C37.3615 49.8664 37.4906 50.185 37.7202 50.4198C37.9499 50.6547 38.2614 50.7867 38.5862 50.7867C38.911 50.7867 39.2225 50.6547 39.4522 50.4198C39.6819 50.185 39.8109 49.8664 39.8109 49.5342C39.8109 49.202 39.6819 48.8834 39.4522 48.6485C39.2225 48.4137 38.911 48.2817 38.5862 48.2817C38.58 48.2817 38.5739 48.2817 38.5677 48.2817Z" fill="white"/>
<path d="M60.6096 43.6377C59.0613 43.6377 57.5765 44.2667 56.4818 45.3863C55.387 46.506 54.772 48.0245 54.772 49.6079C54.772 51.1913 55.387 52.7098 56.4818 53.8294C57.5765 54.9491 59.0613 55.5781 60.6096 55.5781C62.1578 55.5781 63.6426 54.9491 64.7373 53.8294C65.8321 52.7098 66.4471 51.1913 66.4471 49.6079C66.4471 48.0245 65.8321 46.506 64.7373 45.3863C63.6426 44.2667 62.1578 43.6377 60.6096 43.6377ZM60.7148 47.0851C61.3645 47.0852 61.9875 47.3491 62.4468 47.8188C62.9062 48.2886 63.1642 48.9258 63.1642 49.5902C63.1642 50.2545 62.9061 50.8917 62.4468 51.3615C61.9875 51.8312 61.3645 52.0951 60.7148 52.0951C60.0652 52.0951 59.4422 51.8312 58.9829 51.3615C58.5235 50.8917 58.2655 50.2545 58.2655 49.5902C58.2655 49.2612 58.3288 48.9355 58.4519 48.6315C58.575 48.3276 58.7554 48.0515 58.9829 47.8188C59.2103 47.5862 59.4803 47.4017 59.7775 47.2758C60.0747 47.1499 60.3932 47.0851 60.7148 47.0851ZM60.7195 48.3217C60.3979 48.3267 60.0911 48.4609 59.8655 48.6952C59.6398 48.9296 59.5133 49.2453 59.5133 49.5742C59.5133 49.7387 59.545 49.9016 59.6066 50.0536C59.6681 50.2055 59.7583 50.3436 59.872 50.4599C59.9858 50.5762 60.1208 50.6685 60.2693 50.7314C60.4179 50.7943 60.5772 50.8268 60.738 50.8268C61.0628 50.8268 61.3743 50.6948 61.604 50.4599C61.8337 50.225 61.9627 49.9064 61.9627 49.5742C61.9627 49.2421 61.8337 48.9235 61.604 48.6886C61.3743 48.4537 61.0628 48.3217 60.738 48.3217C60.7319 48.3217 60.7257 48.3217 60.7195 48.3217Z" fill="white"/>
<path d="M60.6096 24.6201C59.0613 24.6201 57.5765 25.2491 56.4818 26.3688C55.387 27.4884 54.772 29.0069 54.772 30.5903C54.772 32.1737 55.387 33.6922 56.4818 34.8119C57.5765 35.9315 59.0613 36.5605 60.6096 36.5605C62.1578 36.5605 63.6426 35.9315 64.7373 34.8119C65.8321 33.6922 66.4471 32.1737 66.4471 30.5903C66.4471 29.0069 65.8321 27.4884 64.7373 26.3688C63.6426 25.2491 62.1578 24.6201 60.6096 24.6201ZM60.7148 28.0676C61.3645 28.0676 61.9875 28.3315 62.4468 28.8013C62.9061 29.271 63.1642 29.9082 63.1642 30.5726C63.1642 31.2369 62.9062 31.8741 62.4468 32.3439C61.9875 32.8136 61.3645 33.0776 60.7148 33.0776C60.3932 33.0776 60.0747 33.0128 59.7775 32.8869C59.4803 32.761 59.2103 32.5765 58.9829 32.3439C58.7554 32.1113 58.575 31.8351 58.4519 31.5312C58.3288 31.2273 58.2655 30.9015 58.2655 30.5726C58.2655 29.9082 58.5235 29.271 58.9829 28.8013C59.4422 28.3315 60.0652 28.0676 60.7148 28.0676ZM60.7195 29.3042C60.3979 29.3091 60.0911 29.4433 59.8655 29.6776C59.6398 29.912 59.5133 30.2277 59.5133 30.5567C59.5133 30.7212 59.545 30.884 59.6066 31.036C59.6681 31.188 59.7583 31.326 59.872 31.4423C59.9858 31.5586 60.1208 31.6509 60.2693 31.7138C60.4179 31.7768 60.5772 31.8092 60.738 31.8092C61.0628 31.8092 61.3743 31.6772 61.604 31.4423C61.8337 31.2074 61.9627 30.8889 61.9627 30.5567C61.9627 30.2245 61.8337 29.9059 61.604 29.671C61.3743 29.4361 61.0628 29.3042 60.738 29.3042C60.7319 29.3041 60.7257 29.3041 60.7195 29.3042Z" fill="white"/>
<path d="M38.4186 24.6992C36.8704 24.6992 35.3856 25.3282 34.2909 26.4479C33.1961 27.5675 32.5811 29.086 32.5811 30.6694C32.5811 32.2528 33.1961 33.7713 34.2909 34.891C35.3856 36.0106 36.8704 36.6396 38.4186 36.6396C39.9669 36.6396 41.4517 36.0106 42.5464 34.891C43.6412 33.7713 44.2562 32.2528 44.2562 30.6694C44.2562 29.086 43.6412 27.5675 42.5464 26.4479C41.4517 25.3282 39.9669 24.6992 38.4186 24.6992ZM38.5239 28.1467C38.8455 28.1467 39.164 28.2115 39.4612 28.3373C39.7584 28.4632 40.0284 28.6477 40.2558 28.8804C40.4833 29.113 40.6637 29.3891 40.7868 29.6931C40.9099 29.997 40.9732 30.3227 40.9732 30.6517C40.9732 30.9806 40.9099 31.3064 40.7868 31.6103C40.6637 31.9142 40.4833 32.1904 40.2558 32.423C40.0284 32.6556 39.7584 32.8401 39.4612 32.966C39.164 33.0919 38.8455 33.1567 38.5239 33.1567C38.2022 33.1567 37.8837 33.0919 37.5865 32.966C37.2894 32.8401 37.0194 32.6556 36.7919 32.423C36.5645 32.1904 36.3841 31.9142 36.261 31.6103C36.1379 31.3064 36.0745 30.9806 36.0745 30.6517C36.0745 30.3227 36.1379 29.997 36.261 29.6931C36.3841 29.3891 36.5645 29.113 36.7919 28.8804C37.0194 28.6477 37.2894 28.4632 37.5865 28.3373C37.8837 28.2115 38.2022 28.1467 38.5239 28.1467ZM38.5286 29.3833C38.207 29.3882 37.9003 29.5224 37.6746 29.7568C37.4489 29.9911 37.3224 30.3068 37.3225 30.6358C37.3225 30.8003 37.3542 30.9631 37.4157 31.1151C37.4772 31.2671 37.5675 31.4051 37.6812 31.5214C37.7949 31.6377 37.9299 31.73 38.0785 31.7929C38.2271 31.8559 38.3863 31.8883 38.5472 31.8883C38.708 31.8883 38.8672 31.8559 39.0158 31.7929C39.1644 31.73 39.2994 31.6377 39.4131 31.5214C39.5269 31.4051 39.6171 31.2671 39.6786 31.1151C39.7402 30.9631 39.7718 30.8003 39.7718 30.6358C39.7718 30.3036 39.6428 29.985 39.4131 29.7501C39.1835 29.5152 38.872 29.3833 38.5472 29.3833C38.541 29.3832 38.5348 29.3832 38.5286 29.3833Z" fill="white"/>
</svg>
