<svg width="100" height="100" viewBox="0 0 100 100" fill="none" xmlns="http://www.w3.org/2000/svg">
<path d="M44.2072 58.3289C42.9139 63.4774 41.9832 68.7467 39.1553 73.3836L26.5929 55.2641L35.1474 78.1997L33.7329 78.2334L2.34375 45.5645L25.9866 79.4459L24.4374 79.8163L9.78688 73.754L19.0487 81.3656C6.94413 86.9967 28.3339 91.8699 49.3264 91.7725C77.3566 91.289 91.0731 86.132 80.9176 81.4329L90.1121 73.8214L75.6973 79.8163L73.845 79.3111L97.6562 45.6318L66.4018 78.2671L64.7179 78.1324L73.2387 55.6682L60.8111 73.653C57.7204 68.2653 56.9002 63.31 55.5908 58.2615C54.1283 58.5365 52.6623 58.809 50.6736 58.7331C52.4798 65.539 54.2926 76.0569 60.1711 81.4329C81.1835 84.3869 70.8393 88.8463 55.9276 89.6507C50.9552 84.3652 50.9818 78.4345 49.9281 72.2385C48.8384 78.3829 48.0874 84.7905 43.2305 89.6507C21.8886 88.3473 21.8382 83.0282 39.9636 81.3656C45.4504 76.5355 47.0262 67.1601 49.3601 58.6657C47.1966 58.8321 45.6626 58.605 44.2072 58.3289Z" fill="white"/>
<path d="M45.3557 51.9497C48.2469 52.5154 51.3589 52.3084 54.5006 51.9974C53.1082 44.0257 52.2588 36.2022 52.262 28.6111L60.5972 38.8991L49.9282 8.22559L39.1162 39.0897L47.5467 28.4683C47.4829 35.9621 46.4093 43.9609 45.3557 51.9497Z" fill="white"/>
<path d="M42.6342 45.665L42.6225 46.4766C29.9716 47.6414 23.9609 52.7065 49.7754 53.818C64.0812 54.1211 79.9662 49.2923 57.3818 46.4766L57.443 45.665C64.3015 45.7932 73.7341 47.9808 73.8511 50.885C73.9415 53.127 66.9727 56.3124 49.8091 56.1162C36.8057 56.0435 26.1858 53.7273 26.168 50.885C26.7195 46.4207 41.3291 45.7245 42.6342 45.665Z" fill="white" fill-opacity="0.506024"/>
</svg>
