<svg width="128" height="128" viewBox="0 0 128 128" fill="none" xmlns="http://www.w3.org/2000/svg">
<g clip-path="url(#clip0_648_14)">
<path d="M64.0003 128C69.5297 128 74.3042 124.717 76.4854 120H51.5151C53.6963 124.717 58.4708 128 64.0003 128ZM60.2503 95.0002V64.6734C51.7023 63.1636 45.2504 56.5979 45.2504 48.7505C45.2504 46.6795 46.9294 45.0005 49.0003 45.0005C51.0713 45.0005 52.7503 46.6795 52.7503 48.7505C52.7503 52.5527 55.8855 55.7947 60.2503 56.9987V2.56372C57.6391 0.889471 54.6022 -8.04374e-05 51.5003 0.000738845C43.6141 0.000738845 36.8872 5.69496 35.5169 13.3802C26.4862 16.0211 20.2505 24.2808 20.2505 33.7505C20.2505 38.814 22.043 43.653 25.3215 47.5005C22.0432 51.3479 20.2505 56.1869 20.2505 61.2504C20.2505 70.7203 26.4862 78.9798 35.5169 81.6208C36.8869 89.3057 43.6141 95.0002 51.5003 95.0002H60.2503ZM45.2504 106.25C45.2504 109.702 48.0486 112.5 51.5003 112.5H76.5002C79.9519 112.5 82.7501 109.702 82.7501 106.25V102.5H45.2504V106.25ZM92.4833 13.3799C91.1133 5.69496 84.3864 0.000488847 76.4999 0.000488847C73.3981 -0.000330436 70.3612 0.889222 67.75 2.56347V30.3276C76.2979 31.8373 82.7499 38.403 82.7499 46.2505C82.7499 48.3215 81.0709 50.0004 78.9999 50.0004C76.9289 50.0004 75.2499 48.3215 75.2499 46.2505C75.2499 42.4482 72.1147 39.2063 67.75 38.0023V95.0002H76.4999C84.3861 95.0002 91.1133 89.306 92.4833 81.6208C101.514 78.9798 107.75 70.7201 107.75 61.2504C107.75 56.1869 105.957 51.3479 102.679 47.5005C105.957 43.653 107.75 38.814 107.75 33.7505C107.75 24.2806 101.514 16.0211 92.4833 13.3799ZM116.753 21.2511C115.541 21.2511 114.352 20.6646 113.629 19.5806C112.481 17.8574 112.946 15.5291 114.67 14.3804L122.17 9.38043C123.893 8.23119 126.221 8.69719 127.37 10.4204C128.519 12.1437 128.053 14.4719 126.33 15.6206L118.83 20.6206C118.215 21.0319 117.493 21.2513 116.753 21.2511ZM124.246 83.7507C123.507 83.751 122.784 83.5316 122.17 83.1205L114.67 78.1205C112.946 76.9718 112.481 74.6436 113.629 72.9203C114.778 71.1968 117.107 70.7316 118.83 71.8803L126.33 76.8803C128.053 78.029 128.519 80.3573 127.37 82.0805C126.647 83.1643 125.458 83.7507 124.246 83.7507ZM11.2471 21.2511C10.5077 21.2514 9.78486 21.032 9.17032 20.6209L1.67036 15.6209C-0.052875 14.4722 -0.518622 12.1439 0.630121 10.4207C1.77911 8.69719 4.1076 8.23169 5.83034 9.38068L13.3303 14.3807C15.0535 15.5294 15.5193 17.8576 14.3705 19.5809C13.648 20.6646 12.4588 21.2511 11.2471 21.2511ZM3.75385 83.7507C2.54211 83.7507 1.35287 83.1642 0.630121 82.0803C-0.518622 80.357 -0.052875 78.0288 1.67036 76.88L9.17032 71.8801C10.8933 70.7308 13.2218 71.1968 14.3705 72.9201C15.5193 74.6433 15.0535 76.9715 13.3303 78.1203L5.83034 83.1202C5.21593 83.5315 4.49319 83.751 3.75385 83.7507ZM11.2506 50.0004H3.7506C1.67961 50.0004 0.000624673 48.3215 0.000624673 46.2505C0.000624673 44.1795 1.67961 42.5005 3.7506 42.5005H11.2506C13.3215 42.5005 15.0005 44.1795 15.0005 46.2505C15.0005 48.3215 13.3215 50.0004 11.2506 50.0004ZM124.25 50.0004H116.75C114.679 50.0004 113 48.3215 113 46.2505C113 44.1795 114.679 42.5005 116.75 42.5005H124.25C126.321 42.5005 128 44.1795 128 46.2505C128 48.3215 126.321 50.0004 124.25 50.0004Z" />
</g>
<defs>
<clipPath id="clip0_648_14">
<rect width="128" height="128" />
</clipPath>
</defs>
</svg>
