<svg width="75" height="75" viewBox="0 0 75 75"  xmlns="http://www.w3.org/2000/svg">
<path d="M41.714 10.5859L17.5796 30.3957C21.0538 32.3889 26.6496 28.0177 32.5067 22.8624C34.1915 21.6355 36.0801 21.173 38.5054 22.7229L69.1966 42.5326L73.2422 26.071L66.267 15.1896L41.714 10.5859Z" />
<path d="M33.5216 10.978L9.1562 15.2198L1.75781 27.8463L7.77518 44.2214C12.7587 37.4528 22.6298 33.4732 24.3475 41.854C28.1057 41.2896 31.5229 41.2434 32.0419 45.6025C38.6992 45.0769 39.3859 47.3611 39.4403 49.9429C47.4045 49.187 48.4618 53.6045 46.9373 58.7223C49.4821 60.645 54.1232 59.5729 53.3492 56.0589C52.0698 52.3207 54.5108 53.6621 55.7167 54.2833C58.7294 55.4511 61.2692 53.6245 60.2544 50.732C58.5412 46.696 61.6832 49.4573 62.9178 49.5483C67.9408 50.5705 67.8659 47.0233 66.0745 45.997L37.4674 28.2409C34.5389 25.9306 33.6745 27.7385 32.6338 28.9314C22.1622 43.6431 7.92247 33.2084 13.4966 27.4518L33.5216 10.978Z" />
<path d="M45.5504 60.4941C46.7701 65.3095 43.8104 64.4162 41.3652 64.2259L45.5504 60.4941Z" />
<path d="M39.6516 54.9395L32.2486 60.8504C30.8995 62.0269 32.6916 65.0035 34.8885 63.2607L42.1193 57.4072C43.6017 55.9312 41.6858 53.6918 39.6516 54.9395Z" />
<path d="M32.1716 50.9185L24.7687 56.8294C23.4195 58.0059 25.2116 60.9825 27.4085 59.2397L34.6393 53.3862C36.1217 51.9102 34.2058 49.6708 32.1716 50.9185Z" />
<path d="M24.3093 46.4424L16.9064 52.3534C15.5572 53.5298 17.3493 56.5065 19.5462 54.7636L26.777 48.9101C28.2594 47.4341 26.3435 45.1948 24.3093 46.4424Z" />
<path d="M17.136 42.1382L9.73301 48.0491C8.38386 49.2256 10.176 52.2023 12.3728 50.4594L19.6037 44.6059C21.0861 43.1299 19.1702 40.8906 17.136 42.1382Z" />
</svg>
