<svg width="21" height="21" viewBox="0 0 21 21" xmlns="http://www.w3.org/2000/svg">
<g clip-path="url(#clip0_295_9)">
<path d="M10.5 0.524902C4.7103 0.524902 0 4.7641 0 9.9749C0 11.7963 0.5761 13.5607 1.6688 15.0863C1.46195 17.3743 0.90755 19.0728 0.10255 19.8775C0.0507207 19.9294 0.0165062 19.9962 0.00473916 20.0686C-0.00702788 20.141 0.00424721 20.2153 0.0369719 20.2809C0.0696966 20.3466 0.122217 20.4003 0.187115 20.4345C0.252013 20.4686 0.326008 20.4816 0.39865 20.4714C0.5404 20.4515 3.8332 19.9776 6.21495 18.6028C7.56735 19.1484 9.00795 19.4249 10.5 19.4249C16.2897 19.4249 21 15.1857 21 9.9749C21 4.7641 16.2897 0.524902 10.5 0.524902ZM5.6 11.3749C4.8279 11.3749 4.2 10.747 4.2 9.9749C4.2 9.2028 4.8279 8.5749 5.6 8.5749C6.3721 8.5749 7 9.2028 7 9.9749C7 10.747 6.3721 11.3749 5.6 11.3749ZM10.5 11.3749C9.7279 11.3749 9.1 10.747 9.1 9.9749C9.1 9.2028 9.7279 8.5749 10.5 8.5749C11.2721 8.5749 11.9 9.2028 11.9 9.9749C11.9 10.747 11.2721 11.3749 10.5 11.3749ZM15.4 11.3749C14.6279 11.3749 14 10.747 14 9.9749C14 9.2028 14.6279 8.5749 15.4 8.5749C16.1721 8.5749 16.8 9.2028 16.8 9.9749C16.8 10.747 16.1721 11.3749 15.4 11.3749Z"/>
</g>
<defs>
<clipPath id="clip0_295_9">
<rect width="21" height="21"/>
</clipPath>
</defs>
</svg>
