<svg width="124" height="75" viewBox="0 0 124 75"  xmlns="http://www.w3.org/2000/svg">
<path d="M58.9856 54.1821L48.9891 67.554L44.4453 60.154L58.9856 54.1821Z" />
<path d="M2.90186 36.7858L62.2314 26.3999L72.6174 36.7858L62.6209 45.8735L2.90186 36.7858Z" />
<path d="M22.5054 4.979L19.2598 12.7685L48.2105 20.4281L22.5054 4.979Z" />
<path d="M69.7612 22.2456L88.1962 2.90186L89.2348 19.5193L120.912 8.48428L98.3225 37.6947L111.175 55.9999L91.312 53.7929L95.0769 72.0981L70.4103 51.1964L88.8454 61.5823L83.912 46.7824L95.8559 47.1719L87.5471 37.5649L99.7506 23.4141L83.6524 27.0491L84.4314 11.9895L69.7612 22.2456Z" />
</svg>
