<svg width="128" height="128" viewBox="0 0 128 128" fill="none" xmlns="http://www.w3.org/2000/svg">
<g clip-path="url(#clip0_614_2)">
<path d="M49.333 0H9.333C4.1865 0 0 4.1865 0 9.333V33.333C0 38.4805 4.1865 42.667 9.333 42.667H49.333C54.4805 42.667 58.667 38.4805 58.667 33.333V9.333C58.667 4.1865 54.4805 0 49.333 0ZM49.333 53.333H9.333C4.1865 53.333 0 57.5195 0 62.667V118.667C0 123.813 4.1865 128 9.333 128H49.333C54.4805 128 58.667 123.813 58.667 118.667V62.667C58.667 57.5195 54.4805 53.333 49.333 53.333ZM118.667 85.333H78.667C73.5195 85.333 69.333 89.5195 69.333 94.667V118.667C69.333 123.813 73.5195 128 78.667 128H118.667C123.813 128 128 123.813 128 118.667V94.667C128 89.5195 123.813 85.333 118.667 85.333ZM118.667 0H78.667C73.5195 0 69.333 4.1865 69.333 9.333V65.333C69.333 70.4805 73.5195 74.667 78.667 74.667H118.667C123.813 74.667 128 70.4805 128 65.333V9.333C128 4.1865 123.813 0 118.667 0Z" />
</g>
<defs>
<clipPath id="clip0_614_2">
<rect width="128" height="128" />
</clipPath>
</defs>
</svg>
