<svg width="128" height="128" viewBox="0 0 128 128" fill="none" xmlns="http://www.w3.org/2000/svg">
<g clip-path="url(#clip0_648_11)">
<path d="M81.8016 58.145C76.7787 55.3692 71.4386 53.2543 66.1514 51.0601C63.0848 49.7912 60.1503 48.3107 57.5596 46.2487C52.4574 42.1775 53.4355 35.5685 59.4101 32.9513C61.102 32.2111 62.8733 31.9732 64.6709 31.8674C71.5972 31.4973 78.1799 32.7662 84.4452 35.78C87.5647 37.2868 88.5957 36.811 89.6532 33.5593C90.7635 30.1226 91.6888 26.633 92.7198 23.1699C93.4071 20.8435 92.5612 19.3102 90.367 18.3321C86.3486 16.5608 82.2246 15.2919 77.8891 14.6045C72.2317 13.7322 72.2317 13.7057 72.2053 8.02193C72.1788 0.0117496 72.1788 0.0117494 64.1422 0.0117494C62.979 0.0117494 61.8158 -0.0146868 60.6526 0.0117494C56.8987 0.117494 56.2642 0.7784 56.1585 4.55878C56.1056 6.2507 56.1585 7.94262 56.132 9.66097C56.1056 14.6839 56.0792 14.6045 51.2678 16.3493C39.6358 20.5791 32.4452 28.51 31.6785 41.1994C30.9912 52.4348 36.86 60.022 46.0863 65.5472C51.7701 68.9574 58.0619 70.9666 64.0893 73.6367C66.4422 74.6677 68.6892 75.8573 70.6455 77.4963C76.4351 82.2813 75.3776 90.2386 68.5042 93.2523C64.8296 94.8649 60.9434 95.2615 56.9516 94.7592C50.7919 93.9926 44.8966 92.3799 39.345 89.4984C36.0934 87.8065 35.1417 88.2559 34.0313 91.7719C33.0796 94.8121 32.2337 97.8787 31.3877 100.945C30.251 105.069 30.6739 106.047 34.6129 107.977C39.6358 110.409 45.0024 111.652 50.4747 112.524C54.7574 113.212 54.8895 113.397 54.9424 117.838C54.9688 119.847 54.9688 121.883 54.9953 123.892C55.0217 126.43 56.2378 127.91 58.855 127.963C61.8158 128.016 64.8031 128.016 67.764 127.937C70.1961 127.884 71.4386 126.562 71.4386 124.103C71.4386 121.354 71.5708 118.578 71.465 115.829C71.3329 113.027 72.5489 111.599 75.2454 110.859C81.4579 109.167 86.7452 105.836 90.8164 100.866C102.131 87.1191 97.822 67.0012 81.8016 58.145Z" />
</g>
<defs>
<clipPath id="clip0_648_11">
<rect width="128" height="128" />
</clipPath>
</defs>
</svg>
