<svg width="75" height="75" viewBox="0 0 75 75"  xmlns="http://www.w3.org/2000/svg">
<g clip-path="url(#clip0_194_161)">
<path d="M65.022 11.2869L73.0782 22.1628C74.1404 24.0956 69.7115 25.8104 69.2663 24.7179L61.2624 13.92C60.4911 12.3776 64.3116 10.4577 65.022 11.2869Z" />
<path d="M59.0468 15.9863L67.3716 26.2581C64.8705 31.287 61.3252 36.1719 53.6759 40.4908C50.6985 42.0013 49.6833 39.7752 50.3863 38.2082C50.8418 36.5962 49.723 36.8947 49.1107 37.3354C46.1741 38.8114 46.1598 36.6335 46.8953 35.4556C47.3797 34.3929 46.9214 34.0378 45.8882 34.1129C43.7082 35.2697 39.2192 34.7479 42.4643 30.6219C43.567 29.6871 43.2959 29.1862 41.9944 29.0106C38.5975 28.9684 39.462 26.2653 41.0545 25.4524L48.9093 20.6187C50.3938 19.4577 50.4514 18.9453 47.768 19.6788C41.0904 21.3655 43.3284 19.573 46.8953 17.2619C49.2383 16.2726 51.7025 15.7685 54.5487 16.7919C56.3092 17.652 57.0607 16.2494 59.0468 15.9863Z" />
<path d="M6.36475 33.5552L10.21 38.16C12.4339 46.9653 16.8161 53.6124 23.5971 57.8608L25.3061 63.9372C10.0789 54.9241 7.48407 44.3318 6.36475 33.5552Z" />
<path d="M68.9564 33.0806L65.1112 37.6853C62.8873 46.4907 58.5051 53.1378 51.7241 57.3862L50.0151 63.4626C65.2423 54.4494 67.8371 43.8572 68.9564 33.0806Z" />
<path d="M17.2959 10.8834L23.3381 11.5548C35.1088 5.62372 43.1697 7.68282 50.3266 11.6891L56.503 10.4807C43.434 1.95957 30.3649 0.804274 17.2959 10.8834Z" />
<path d="M9.97803 11.2864L1.92178 22.1623C0.859599 24.0952 5.28852 25.8099 5.73366 24.7174L13.7376 13.9196C14.5089 12.3771 10.6884 10.4572 9.97803 11.2864Z" />
<path d="M15.9532 15.9858L7.62842 26.2576C10.1295 31.2865 13.6748 36.1714 21.3241 40.4903C24.3015 42.0008 25.3167 39.7747 24.6137 38.2077C24.1582 36.5957 25.277 36.8942 25.8893 37.3349C28.8259 38.8109 28.8402 36.633 28.1047 35.4551C27.6203 34.3924 28.0786 34.0373 29.1118 34.1124C31.2918 35.2692 35.7808 34.7474 32.5357 30.6214C31.433 29.6866 31.7041 29.1857 33.0056 29.0101C36.4025 28.9679 35.538 26.2648 33.9455 25.4519L26.0907 20.6182C24.6062 19.4572 24.5486 18.9448 27.232 19.6783C33.9096 21.365 31.6716 19.5725 28.1047 17.2614C25.7617 16.2721 23.2975 15.7681 20.4513 16.7914C18.6908 17.6515 17.9393 16.2489 15.9532 15.9858Z" />
<path d="M31.7347 71.2959L45.2569 70.7123C47.4274 70.3214 45.9728 65.8004 44.8436 66.142L31.4151 66.7171C29.731 67.0884 30.6433 71.2656 31.7347 71.2959Z" />
<path d="M31.6268 63.695L44.8484 63.7003C47.1826 58.5918 48.7478 52.7624 47.2903 44.0999C46.5904 40.8354 44.2215 41.4474 43.4461 42.9799C42.4801 44.3483 42.008 43.291 41.9652 42.5378C41.2641 39.3267 39.5625 40.6862 39.11 41.9991C38.589 43.0443 38.0247 42.9116 37.4328 42.0614C36.9599 39.6393 33.7293 36.479 32.565 41.5975C32.5325 43.0427 31.9726 43.1473 31.0171 42.2463C28.8466 39.633 27.2899 42.006 27.6604 43.7551L28.8471 52.9015C28.879 54.7857 28.5171 55.153 27.3984 52.606C24.5069 46.355 24.5222 49.2224 24.9708 53.4487C25.6766 55.8921 26.8356 58.1245 29.4221 59.6923C31.1984 60.5192 30.5813 61.986 31.6268 63.695Z" />
</g>
<defs>
<clipPath id="clip0_194_161">
<rect width="75" height="75" />
</clipPath>
</defs>
</svg>
