<svg width="21" height="21" viewBox="0 0 21 21" xmlns="http://www.w3.org/2000/svg">
<path d="M17.5 2.625H16.625V14H17.5C17.9641 14 18.4092 13.8156 18.7374 13.4874C19.0656 13.1592 19.25 12.7141 19.25 12.25V4.375C19.25 3.91087 19.0656 3.46575 18.7374 3.13756C18.4092 2.80937 17.9641 2.625 17.5 2.625ZM3.5 14H9.625L8.64325 16.947C8.55565 17.21 8.53179 17.4901 8.57362 17.7641C8.61546 18.0382 8.72181 18.2983 8.88389 18.5232C9.04598 18.7481 9.25918 18.9313 9.50593 19.0576C9.75267 19.184 10.0259 19.2499 10.3031 19.25H10.5L14.875 14.4918V2.625H5.25L1.80512 10.1929L1.75 10.4493V12.25C1.75 12.7141 1.93437 13.1592 2.26256 13.4874C2.59075 13.8156 3.03587 14 3.5 14Z"/>
</svg>
