<svg width="21" height="21" viewBox="0 0 21 21"  xmlns="http://www.w3.org/2000/svg">
<g clip-path="url(#clip0_477_27)">
<path d="M15.3384 12.7807C15.3384 13.6627 15.5893 14.0144 16.2456 14.0144C17.7082 14.0144 18.6396 12.1507 18.6396 9.05109C18.6396 4.31349 15.1872 2.04549 10.8769 2.04549C6.44279 2.04549 2.40974 5.01909 2.40974 10.6387C2.40974 16.0063 5.93774 18.9295 11.3557 18.9295C13.1953 18.9295 14.4301 18.7279 16.3191 18.0979L16.7244 19.7852C14.8596 20.3911 12.8667 20.5664 11.3305 20.5664C4.22414 20.5664 0.417892 16.6604 0.417892 10.6376C0.417892 4.56444 4.82894 0.431641 10.9021 0.431641C17.2273 0.431641 20.5779 4.21164 20.5779 8.84844C20.5779 12.7796 19.3441 15.7784 15.4633 15.7784C13.6983 15.7784 12.5401 15.0728 12.3889 13.5094C11.9353 15.2482 10.7257 15.7784 9.08669 15.7784C6.89429 15.7784 5.05469 14.089 5.05469 10.688C5.05469 7.26084 6.66854 5.14404 9.56654 5.14404C11.1037 5.14404 12.0613 5.74884 12.4876 6.70644L13.2195 5.37084H15.3363V12.7807H15.3384ZM12.2398 9.45429C12.2398 8.06934 11.2056 7.48869 10.3488 7.48869C9.41639 7.48869 8.38424 8.24364 8.38424 10.4623C8.38424 12.2263 9.16544 13.2091 10.3488 13.2091C11.1804 13.2091 12.2398 12.6799 12.2398 11.2183V9.45429Z" />
</g>
<defs>
<clipPath id="clip0_477_27">
<rect width="21" height="21" />
</clipPath>
</defs>
</svg>
