<svg width="128" height="128" viewBox="0 0 128 128" fill="none" xmlns="http://www.w3.org/2000/svg">
<g clip-path="url(#clip0_651_2)">
<path d="M86.5805 35.1572C84.4895 32.0847 81.0105 30.25 77.275 30.25H67.75V18.75C67.75 8.41175 59.3383 0 49 0C46.9272 0 45.25 1.67725 45.25 3.75V14.099C45.25 20.0792 41.8002 25.8992 36.3695 28.5835C34.5337 29.5545 32.4588 30.0278 30.25 30.1478V67.75H32.711C34.05 68.754 35.475 69.6355 36.9393 70.4518L42.3055 57.0348C45.0853 49.9998 52.0907 45.25 59.7262 45.25H72.7742C75.4877 45.25 78.2235 45.5027 81.1385 46.0262C83.1163 46.4099 85.0669 46.9225 86.9778 47.5607L87.734 45.66C87.7378 45.6562 87.7377 45.6527 87.7412 45.649C89.1147 42.1592 88.679 38.237 86.5805 35.1572ZM22.75 30.25H3.75C1.67725 30.25 0 31.9272 0 34V71.5C0 73.5728 1.67725 75.25 3.75 75.25H22.75V30.25Z" />
<path d="M97.75 60.25H95.289C90.77 56.859 85.4635 54.5042 79.813 53.4092C77.3448 52.9662 75.0413 52.75 72.7745 52.75H59.7265C55.1415 52.75 50.9375 55.6027 49.2713 59.8215L40.2588 82.3508C38.8855 85.8408 39.3213 89.7628 41.4198 92.8428C43.5108 95.9153 46.9898 97.75 50.7253 97.75H60.25V109.25C60.25 119.588 68.6618 128 79 128C81.0728 128 82.75 126.323 82.75 124.25V113.901C82.75 107.921 86.1998 102.097 91.627 99.4165C93.4628 98.4455 95.54 97.9722 97.75 97.8522V60.25ZM124.25 52.75H105.25V97.75H124.25C126.323 97.75 128 96.0728 128 94V56.5C128 54.4272 126.323 52.75 124.25 52.75Z" />
</g>
<defs>
<clipPath id="clip0_651_2">
<rect width="128" height="128" />
</clipPath>
</defs>
</svg>
