<svg width="32" height="32" viewBox="0 0 32 32"  xmlns="http://www.w3.org/2000/svg">
<path d="M31 7C31 7.53043 30.7893 8.03914 30.4142 8.41421C30.0391 8.78929 29.5304 9 29 9H3C2.46957 9 1.96086 8.78929 1.58579 8.41421C1.21071 8.03914 1 7.53043 1 7C1 6.46957 1.21071 5.96086 1.58579 5.58579C1.96086 5.21071 2.46957 5 3 5H29C29.5304 5 30.0391 5.21071 30.4142 5.58579C30.7893 5.96086 31 6.46957 31 7ZM25 14H7C6.46957 14 5.96086 14.2107 5.58579 14.5858C5.21071 14.9609 5 15.4696 5 16C5 16.5304 5.21071 17.0391 5.58579 17.4142C5.96086 17.7893 6.46957 18 7 18H25C25.5304 18 26.0391 17.7893 26.4142 17.4142C26.7893 17.0391 27 16.5304 27 16C27 15.4696 26.7893 14.9609 26.4142 14.5858C26.0391 14.2107 25.5304 14 25 14ZM22 23H10C9.46957 23 8.96086 23.2107 8.58579 23.5858C8.21071 23.9609 8 24.4696 8 25C8 25.5304 8.21071 26.0391 8.58579 26.4142C8.96086 26.7893 9.46957 27 10 27H22C22.5304 27 23.0391 26.7893 23.4142 26.4142C23.7893 26.0391 24 25.5304 24 25C24 24.4696 23.7893 23.9609 23.4142 23.5858C23.0391 23.2107 22.5304 23 22 23Z" />
</svg>
