<svg width="128" height="128" viewBox="0 0 128 128" fill="none" xmlns="http://www.w3.org/2000/svg">
<path d="M114 22.3333V105.667H122.333C124.635 105.667 126.5 107.532 126.5 109.833V118.167C126.5 120.468 124.635 122.333 122.333 122.333H80.6667C78.3655 122.333 76.5 120.468 76.5 118.167V109.833C76.5 107.532 78.3655 105.667 80.6667 105.667H89V72.3333H39V105.667H47.3332C49.6345 105.667 51.5 107.532 51.5 109.833V118.167C51.5 120.468 49.6345 122.333 47.3332 122.333H5.66675C3.3655 122.333 1.5 120.468 1.5 118.167V109.834C1.5 107.532 3.3655 105.667 5.66675 105.667H14V22.3333H5.66675C3.3655 22.3333 1.5 20.4678 1.5 18.1668V9.83325C1.5 7.532 3.3655 5.6665 5.66675 5.6665H47.3335C49.6347 5.6665 51.5003 7.532 51.5003 9.83325V18.1665C51.5003 20.4678 49.6347 22.3333 47.3335 22.3333H39V55.6665H89V22.3333H80.6667C78.3655 22.3333 76.5 20.4678 76.5 18.1665V9.83325C76.5 7.532 78.3655 5.6665 80.6667 5.6665H122.334C124.635 5.6665 126.5 7.532 126.5 9.83325V18.1665C126.5 20.4678 124.635 22.3333 122.334 22.3333H114Z" />
</svg>
