<svg width="75" height="75" viewBox="0 0 75 75"  xmlns="http://www.w3.org/2000/svg">
<path d="M35.3642 68.8101C35.3642 68.8101 34.1885 68.8755 34.1885 71.1424C34.1885 73.4093 37.4456 73.9467 37.4456 72.2336C37.4456 70.5205 36.3926 68.8101 35.3642 68.8101Z" />
<path d="M33.6098 71.2515C33.6098 71.2515 33.8662 72.599 31.973 72.599C30.0799 72.599 30.1344 68.5317 31.2447 68.5317C32.355 68.5317 33.6098 70.7304 33.6098 71.2515Z" />
<path d="M29.5346 71.7645C29.5346 71.7645 27.4587 70.3078 27.3741 69.1539C27.2895 68 28.4216 68.1582 29.3218 68.1582C30.222 68.1582 30.0065 71.3389 29.5346 71.7645Z" />
<path d="M26.785 68.8127C26.785 68.8127 26.7522 70.1766 25.421 69.2C24.0898 68.2234 25.0145 67.356 25.6938 67.356C26.373 67.356 26.785 67.6206 26.785 68.8127Z" />
<path d="M38.4576 71.3307C38.4576 71.3307 38.4085 72.5992 40.3672 72.5992C42.3258 72.5992 42.1785 71.2544 42.1785 70.7224C42.1333 70.2975 41.9398 69.9022 41.6319 69.6058C41.3241 69.3095 40.9217 69.1311 40.4954 69.1021C39.4342 69.1021 38.875 70.3733 38.4576 71.3307Z" />
<path d="M42.9805 71.0061C42.9805 71.0061 43.0623 72.3945 44.6663 72.0317C45.2099 71.9873 45.7158 71.7363 46.08 71.3305C46.4443 70.9246 46.6393 70.3946 46.6249 69.8494C46.6249 68.9983 45.4056 68.8237 44.5872 68.8237C43.7688 68.8237 42.9805 69.8521 42.9805 71.0061Z" />
<path d="M47.3311 68.9792C47.3311 68.9792 47.3311 69.9312 48.8532 69.4129C50.3754 68.8946 49.7043 67.8662 49.126 67.8662C48.5477 67.8662 47.3311 68.33 47.3311 68.9792Z" />
<path d="M63.5323 40.1507V40.1753C61.8634 36.6664 32.8166 29.5815 11.3585 40.1753C12.6756 41.3626 12.4333 43.0146 12.3896 44.8509C12.3896 47.4506 10.6001 47.9198 10.6001 50.8523C10.6001 53.7848 17.1225 61.3792 18.3146 61.3792C19.5067 61.3792 20.1477 60.3154 20.9143 60.3154C23.0487 61.3501 24.5559 63.3474 24.9652 65.6839C24.9652 65.6839 25.0061 65.8884 25.0743 66.1694L25.1507 66.344C25.3278 66.2898 25.5112 66.2595 25.6963 66.254C26.4432 66.205 27.1538 66.582 27.5322 67.2278C27.912 67.106 28.3091 67.0471 28.7079 67.0533H29.3135C29.7697 67.0696 30.1948 67.2886 30.4728 67.6507C30.7095 67.5059 30.9811 67.4286 31.2585 67.427C32.2248 67.5371 33.0903 68.076 33.6154 68.8946C33.9606 68.2539 34.5891 67.8146 35.3094 67.7107C36.5254 67.8368 37.562 68.6477 37.9773 69.7975C38.4062 68.7677 39.3819 68.07 40.4952 67.9971C41.2907 68.0069 42.0414 68.3672 42.5465 68.9819C42.9708 68.2427 43.7366 67.7646 44.587 67.708C45.2428 67.6864 45.8951 67.8112 46.4965 68.0735C47.1245 67.2606 48.0883 66.7777 49.1153 66.7614C49.3708 66.7679 49.6212 66.8343 49.8464 66.9551C49.8992 66.5316 49.9247 66.1051 49.9228 65.6784C50.3324 63.3429 51.8382 61.346 53.971 60.3099C54.7402 60.3099 55.3786 61.3738 56.5734 61.3738C57.7682 61.3738 64.2879 53.7875 64.2879 50.8468C64.2879 47.9061 62.4957 47.4369 62.4957 44.8454C62.5546 43.2307 62.9058 41.6401 63.5323 40.1507ZM23.3803 54.2785C21.8881 54.2785 15.1966 54.3194 15.1966 48.0562C15.1966 41.7929 23.8577 39.6352 25.9091 39.6352C27.8677 39.6352 33.9073 39.998 33.9073 46.0948C33.9073 52.1917 24.8725 54.2785 23.3803 54.2785ZM40.3178 64.4645C39.1939 64.4645 37.83 61.3547 37.4454 61.3547C37.4454 61.3547 35.6559 63.9544 34.3765 63.9544C33.0971 63.9544 32.4669 61.5238 32.4669 61.0137C32.4669 60.5036 35.3231 49.1637 37.1044 49.1637C38.8857 49.1637 42.181 61.1828 42.181 62.0776C42.181 62.9723 41.4445 64.4563 40.3178 64.4563V64.4645ZM52.7216 54.2785C51.2294 54.2785 42.1919 52.1917 42.1919 46.0948C42.1919 39.998 48.2315 39.6379 50.1928 39.6379C52.2442 39.6379 60.9053 41.7902 60.9053 48.0562C60.9053 54.3222 54.2001 54.2785 52.7216 54.2785Z" />
<path d="M38.1023 1.75781L29.9894 24.998L13.0739 28.436L2.76123 19.7719L8.81164 36.0833C28.559 29.3326 48.0939 30.0066 67.4747 36.0833L72.2391 20.8654L63.439 28.7418L46.0781 24.7224L38.1023 1.75781ZM38.1023 9.00245L42.581 23.2967L38.1023 28.6436L33.4412 23.2967L38.1023 9.00245ZM5.25162 23.5874L14.0026 32.1445L9.18917 34.7695L5.25162 23.5874ZM70.3917 23.7824L67.1828 34.3807L62.3694 31.7557L70.3917 23.7824Z" />
<path d="M33.8393 6.08936L28.2699 21.8349L13.762 25.8916L11.3555 23.7601C17.7585 9.01587 25.8324 7.82455 33.8393 6.08936Z" />
<path d="M42.4341 6.02051L48.0035 21.8348L62.0988 25.6852L63.474 24.2413C59.2926 12.2772 51.1362 8.58143 42.4341 6.02051Z" />
</svg>
