<svg width="16" height="21" viewBox="0 0 16 21" xmlns="http://www.w3.org/2000/svg">
<g clip-path="url(#clip0_182_198)">
<path d="M7.875 0C3.52611 0 0 3.52611 0 7.875C0 11.05 1.10619 11.9368 7.06699 20.5775C7.45791 21.1423 8.29377 21.1423 8.68465 20.5775C14.6426 11.9355 15.75 11.0496 15.75 7.875C15.75 3.52611 12.2227 0 7.875 0ZM7.875 11.1193C6.06498 11.1193 4.59375 9.6477 4.59375 7.83809C4.59375 6.02848 6.06621 4.55684 7.875 4.55684C9.68379 4.55684 11.1562 6.02848 11.1562 7.83809C11.1562 9.6477 9.68379 11.1193 7.875 11.1193Z"/>
</g>
<defs>
<clipPath id="clip0_182_198">
<rect width="15.75" height="21"/>
</clipPath>
</defs>
</svg>
