<svg width="128" height="128" viewBox="0 0 128 128" fill="none" xmlns="http://www.w3.org/2000/svg">
<g clip-path="url(#clip0_543_5)">
<path d="M109.255 18.745C97.167 6.657 81.095 0 64 0C46.905 0 30.833 6.657 18.745 18.745C6.657 30.833 0 46.905 0 64C0 81.095 6.65725 97.1667 18.745 109.255C30.8328 121.343 46.905 128 64 128C81.095 128 97.167 121.343 109.255 109.255C121.343 97.167 128 81.095 128 64C128 46.905 121.343 30.8333 109.255 18.745ZM64 60C73.9253 60 82 68.0747 82 78C82 86.2192 76.4608 93.1648 68.9205 95.3108C68.3788 95.465 68 95.9523 68 96.5155V99.887C68 102.041 66.3448 103.894 64.1933 103.995C61.896 104.103 60 102.273 60 100V96.5147C60 95.953 59.6235 95.4655 59.0832 95.3118C51.5752 93.1768 46.0503 86.2835 46.0003 78.1117C45.987 75.9305 47.702 74.0642 49.8825 74.0017C52.1452 73.9367 54 75.7517 54 78C54 83.7505 58.8793 88.383 64.7148 87.975C69.6408 87.6307 73.631 83.6402 73.975 78.7142C74.3825 72.8785 69.7502 68 64 68C54.0747 68 46 59.9253 46 50C46 41.7808 51.5392 34.8353 59.0795 32.6893C59.6212 32.535 60 32.0478 60 31.4845V28.113C60 25.959 61.6553 24.1057 63.8068 24.0045C66.104 23.8965 68 25.7267 68 28V31.4853C68 32.047 68.3765 32.5345 68.9167 32.6883C76.4247 34.8233 81.9497 41.7165 81.9997 49.8882C82.013 52.0695 80.298 53.9357 78.1175 53.9982C75.8548 54.0632 74 52.2483 74 50C74 44.2495 69.1208 39.617 63.2853 40.025C58.3593 40.3693 54.369 44.3598 54.025 49.2858C53.6175 55.1215 58.2498 60 64 60Z"/>
</g>
<defs>
<clipPath id="clip0_543_5">
<rect width="128" height="128"/>
</clipPath>
</defs>
</svg>
