<svg width="32" height="32" viewBox="0 0 32 32"  xmlns="http://www.w3.org/2000/svg">
<path fill-rule="evenodd" clip-rule="evenodd" d="M28.26 25.8664C28.26 25.8664 28.2467 25.8598 28.24 25.8531C25.8067 23.8598 23.06 23.2664 20.2 23.1664C20.0533 24.4131 20.2 25.6664 20.7133 26.9198C20.7867 27.0998 20.9333 27.2398 21.12 27.2998C21.3067 27.3598 21.5067 27.3398 21.6733 27.2398C23.58 26.0931 25.7267 26.3598 27.1267 26.1798C27.56 26.1198 27.94 26.0198 28.26 25.8664ZM12 23.9998V25.3331C12 25.6998 12.3 25.9998 12.6667 25.9998C13.0333 25.9998 13.3333 25.6998 13.3333 25.3331V23.9998C13.3333 23.6331 13.0333 23.3331 12.6667 23.3331C12.3 23.3331 12 23.6331 12 23.9998ZM9.52666 23.5264L8.19332 24.8598C7.93332 25.1198 7.93332 25.5398 8.19332 25.8064C8.45332 26.0664 8.87332 26.0664 9.13999 25.8064L10.4733 24.4731C10.7333 24.2131 10.7333 23.7931 10.4733 23.5264C10.2133 23.2664 9.79332 23.2664 9.52666 23.5264ZM3.75332 7.48643C3.65595 7.40676 3.53798 7.35632 3.41311 7.34099C3.28823 7.32565 3.16156 7.34603 3.0478 7.39977C2.93404 7.45351 2.83785 7.5384 2.77039 7.6446C2.70293 7.7508 2.66696 7.87395 2.66666 7.99977C2.66666 7.99977 2.66666 15.5864 2.68666 18.6998C2.68666 19.7998 3.36666 20.7864 4.39332 21.1798H4.40666C8.37332 22.6264 12.7333 22.0798 16.9933 21.8731C21 21.6798 24.9133 21.7798 28.2467 24.5131C28.344 24.5928 28.462 24.6432 28.5869 24.6585C28.7118 24.6739 28.8384 24.6535 28.9522 24.5998C29.0659 24.546 29.1621 24.4611 29.2296 24.3549C29.2971 24.2487 29.333 24.1256 29.3333 23.9998C29.3333 23.9998 29.3333 16.4131 29.3133 13.2998C29.3133 12.1998 28.6333 11.2131 27.6067 10.8198H27.5933C23.6267 9.3731 19.2667 9.91977 15.0067 10.1264C11 10.3198 7.08666 10.2198 3.75332 7.48643ZM9.33332 17.9998V15.8398L11.4867 18.4264C11.6667 18.6398 11.96 18.7198 12.2267 18.6264C12.4933 18.5331 12.6667 18.2798 12.6667 17.9998V13.9998C12.6667 13.6331 12.3667 13.3331 12 13.3331C11.6333 13.3331 11.3333 13.6331 11.3333 13.9998V16.1598L9.17999 13.5731C8.99999 13.3598 8.70666 13.2798 8.43999 13.3731C8.17332 13.4664 7.99999 13.7198 7.99999 13.9998V17.9998C7.99999 18.3664 8.29999 18.6664 8.66666 18.6664C9.03332 18.6664 9.33332 18.3664 9.33332 17.9998ZM14.6667 15.3331V15.0331C14.6667 14.9331 14.7067 14.8464 14.7733 14.7731C14.84 14.7064 14.9333 14.6664 15.0333 14.6664H16C16.3667 14.6664 16.6667 14.3664 16.6667 13.9998C16.6667 13.6331 16.3667 13.3331 16 13.3331H15.0333C14.58 13.3331 14.1533 13.5131 13.8333 13.8331C13.5133 14.1531 13.3333 14.5798 13.3333 15.0331V16.9731C13.3333 17.4264 13.5133 17.8531 13.8333 18.1731C14.1533 18.4931 14.58 18.6731 15.0333 18.6731H16C16.3667 18.6731 16.6667 18.3731 16.6667 18.0064C16.6667 17.6398 16.3667 17.3398 16 17.3398H15.0333C14.9362 17.3387 14.8432 17.3006 14.7733 17.2331C14.7067 17.1664 14.6667 17.0731 14.6667 16.9731V16.6731H16C16.3667 16.6731 16.6667 16.3731 16.6667 16.0064C16.6667 15.6398 16.3667 15.3398 16 15.3398H14.6667V15.3331ZM17.38 14.2398L18.9067 18.2398C18.9555 18.3682 19.0428 18.4783 19.1567 18.5551C19.2706 18.6318 19.4054 18.6715 19.5427 18.6686C19.68 18.6656 19.8131 18.6203 19.9236 18.5387C20.0341 18.4572 20.1167 18.3434 20.16 18.2131L20.6733 16.7198L21.1867 18.2131C21.28 18.4798 21.5267 18.6598 21.8067 18.6664C22.0867 18.6664 22.34 18.4998 22.44 18.2398L23.9667 14.2398C24.1 13.8931 23.9267 13.5131 23.58 13.3798C23.2333 13.2464 22.8533 13.4198 22.72 13.7664L21.8533 16.0464L21.3067 14.4531C21.2133 14.1864 20.96 13.9998 20.6733 13.9998C20.3867 13.9998 20.1333 14.1798 20.04 14.4531L19.4933 16.0464L18.6267 13.7664C18.4933 13.4198 18.1133 13.2531 17.7667 13.3798C17.42 13.5131 17.2533 13.8931 17.38 14.2398ZM3.73999 6.1331C3.73999 6.1331 3.75332 6.13977 3.75999 6.14643C6.19332 8.13977 8.93999 8.7331 11.8 8.8331C11.9467 7.58643 11.8 6.3331 11.2867 5.07977C11.2133 4.89977 11.0667 4.75977 10.88 4.69977C10.6933 4.63977 10.4933 4.65977 10.3267 4.75977C8.41999 5.90643 6.27332 5.63977 4.87332 5.81977C4.43999 5.87977 4.05999 5.97977 3.73999 6.1331ZM20 7.99977V6.66643C20 6.29977 19.7 5.99977 19.3333 5.99977C18.9667 5.99977 18.6667 6.29977 18.6667 6.66643V7.99977C18.6667 8.36643 18.9667 8.66643 19.3333 8.66643C19.7 8.66643 20 8.36643 20 7.99977ZM22.4733 8.4731L23.8067 7.13977C24.0667 6.87977 24.0667 6.45977 23.8067 6.1931C23.5467 5.9331 23.1267 5.9331 22.86 6.1931L21.5267 7.52643C21.2667 7.78643 21.2667 8.20643 21.5267 8.4731C21.7867 8.7331 22.2067 8.7331 22.4733 8.4731Z" />
</svg>
