<svg width="21" height="21" viewBox="0 0 21 21" xmlns="http://www.w3.org/2000/svg">
<g clip-path="url(#clip0_295_6)">
<path d="M18.7066 14.7989C18.0539 14.2482 17.5294 13.5615 17.1698 12.7869C16.8102 12.0123 16.6243 11.1685 16.625 10.3145V7.875C16.625 4.79588 14.3377 2.247 11.375 1.82V0.875C11.375 0.642936 11.2828 0.420376 11.1187 0.256282C10.9546 0.0921872 10.7321 0 10.5 0C10.2679 0 10.0454 0.0921872 9.88127 0.256282C9.71718 0.420376 9.62499 0.642936 9.62499 0.875V1.82C6.66137 2.247 4.37499 4.79588 4.37499 7.875V10.3145C4.37533 11.1702 4.18847 12.0157 3.82751 12.7915C3.46656 13.5674 2.94025 14.2549 2.28549 14.8059C2.04885 15.0099 1.88019 15.2813 1.80209 15.5838C1.72399 15.8863 1.74018 16.2054 1.84849 16.4985C1.9568 16.7915 2.15206 17.0445 2.40812 17.2235C2.66418 17.4025 2.96882 17.4989 3.28124 17.5H17.7187C18.5631 17.5 19.25 16.8131 19.25 15.9688C19.25 15.5208 19.0549 15.0972 18.7066 14.7989ZM10.5 21C11.256 20.999 11.9886 20.7373 12.5741 20.2591C13.1597 19.781 13.5626 19.1155 13.7147 18.375H7.28524C7.43741 19.1155 7.84024 19.781 8.42583 20.2591C9.01143 20.7373 9.74397 20.999 10.5 21Z" />
</g>
<defs>
<clipPath id="clip0_295_6">
<path d="M0 0H21V21H0V0Z" />
</clipPath>
</defs>
</svg>
