<svg width="21" height="21" viewBox="0 0 21 21"  xmlns="http://www.w3.org/2000/svg">
<path d="M10.5 14.875C10.9641 14.875 11.4092 14.6906 11.7374 14.3624C12.0656 14.0342 12.25 13.5891 12.25 13.125C12.25 12.6609 12.0656 12.2158 11.7374 11.8876C11.4092 11.5594 10.9641 11.375 10.5 11.375C10.0359 11.375 9.59075 11.5594 9.26256 11.8876C8.93437 12.2158 8.75 12.6609 8.75 13.125C8.75 13.5891 8.93437 14.0342 9.26256 14.3624C9.59075 14.6906 10.0359 14.875 10.5 14.875ZM15.75 7C16.2141 7 16.6592 7.18437 16.9874 7.51256C17.3156 7.84075 17.5 8.28587 17.5 8.75V17.5C17.5 17.9641 17.3156 18.4092 16.9874 18.7374C16.6592 19.0656 16.2141 19.25 15.75 19.25H5.25C4.78587 19.25 4.34075 19.0656 4.01256 18.7374C3.68437 18.4092 3.5 17.9641 3.5 17.5V8.75C3.5 8.28587 3.68437 7.84075 4.01256 7.51256C4.34075 7.18437 4.78587 7 5.25 7H6.125V5.25C6.125 4.08968 6.58594 2.97688 7.40641 2.15641C8.22688 1.33594 9.33968 0.875 10.5 0.875C11.0745 0.875 11.6434 0.988163 12.1742 1.20803C12.705 1.42789 13.1873 1.75015 13.5936 2.15641C13.9998 2.56266 14.3221 3.04496 14.542 3.57576C14.7618 4.10656 14.875 4.67547 14.875 5.25V7H15.75ZM10.5 2.625C9.80381 2.625 9.13613 2.90156 8.64384 3.39384C8.15156 3.88613 7.875 4.55381 7.875 5.25V7H13.125V5.25C13.125 4.55381 12.8484 3.88613 12.3562 3.39384C11.8639 2.90156 11.1962 2.625 10.5 2.625Z" />
</svg>
