<svg width="128" height="128" viewBox="0 0 128 128" fill="none" xmlns="http://www.w3.org/2000/svg">
<path d="M102.428 9.656C96.4603 2.896 85.6603 0 71.8441 0H31.7481C28.9241 0 26.5241 2.04 26.0761 4.8L9.38031 109.848C9.05231 111.92 10.6683 113.792 12.7803 113.792H37.5323L43.7483 74.672L43.5563 75.904C43.9963 73.144 46.3883 71.104 49.2123 71.104H60.9723C84.0843 71.104 102.172 61.792 107.46 34.856C107.62 34.056 107.868 32.52 107.868 32.52C109.372 22.552 107.86 15.792 102.428 9.656Z" />
<path d="M114.132 37.624C108.388 64.144 90.0602 78.176 60.9722 78.176H50.4282L42.5562 128H59.6602C62.1322 128 64.2361 126.216 64.6201 123.792L64.8202 122.736L68.7561 98.008L69.0122 96.648C69.3962 94.224 71.5001 92.44 73.9641 92.44H77.0921C97.3081 92.44 113.132 84.296 117.756 60.736C119.612 51.28 118.716 43.352 114.132 37.624Z" />
</svg>
