<svg width="21" height="21" viewBox="0 0 21 21"  xmlns="http://www.w3.org/2000/svg">
<path d="M10.5 10.5C9.5375 10.5 8.71354 10.1573 8.02813 9.47187C7.34271 8.78646 7 7.9625 7 7C7 6.0375 7.34271 5.21354 8.02813 4.52813C8.71354 3.84271 9.5375 3.5 10.5 3.5C11.4625 3.5 12.2865 3.84271 12.9719 4.52813C13.6573 5.21354 14 6.0375 14 7C14 7.9625 13.6573 8.78646 12.9719 9.47187C12.2865 10.1573 11.4625 10.5 10.5 10.5ZM3.5 17.5V15.05C3.5 14.5542 3.62775 14.0986 3.88325 13.6832C4.13875 13.2679 4.47767 12.9506 4.9 12.7313C5.80417 12.2792 6.72292 11.9402 7.65625 11.7145C8.58958 11.4887 9.5375 11.3756 10.5 11.375C11.4625 11.375 12.4104 11.4882 13.3438 11.7145C14.2771 11.9408 15.1958 12.2798 16.1 12.7313C16.5229 12.95 16.8621 13.2673 17.1176 13.6832C17.3731 14.0992 17.5006 14.5548 17.5 15.05V17.5H3.5Z" />
</svg>
