<svg width="128" height="128" viewBox="0 0 128 128" fill="none" xmlns="http://www.w3.org/2000/svg">
<path fill-rule="evenodd" clip-rule="evenodd" d="M53.62 21.3081C51.08 24.8201 13.64 87.2041 10.424 91.6601C9.04194 93.5715 8.2149 95.8276 8.0342 98.1795C7.8535 100.531 8.32617 102.887 9.40003 104.987C10.4739 107.088 12.1072 108.85 14.1196 110.081C16.132 111.311 18.4453 111.961 20.804 111.96H107.196C109.555 111.961 111.868 111.311 113.88 110.081C115.893 108.85 117.526 107.088 118.6 104.987C119.674 102.887 120.147 100.531 119.966 98.1795C119.785 95.8276 118.958 93.5715 117.576 91.6601C116.656 90.3841 74.936 22.0761 74.38 21.3081C73.1929 19.6658 71.633 18.3286 69.8285 17.4064C68.024 16.4843 66.0265 16.0034 64 16.0034C61.9736 16.0034 59.976 16.4843 58.1716 17.4064C56.3671 18.3286 54.8072 19.6658 53.62 21.3081ZM64 88.0001C65.0609 88.0001 66.0783 88.4215 66.8285 89.1716C67.5786 89.9218 68 90.9392 68 92.0001C68 93.0609 67.5786 94.0783 66.8285 94.8285C66.0783 95.5786 65.0609 96.0001 64 96.0001C62.9392 96.0001 61.9217 95.5786 61.1716 94.8285C60.4215 94.0783 60 93.0609 60 92.0001C60 90.9392 60.4215 89.9218 61.1716 89.1716C61.9217 88.4215 62.9392 88.0001 64 88.0001ZM60 40.0001V80.0001C60 81.0609 60.4215 82.0783 61.1716 82.8285C61.9217 83.5786 62.9392 84.0001 64 84.0001C65.0609 84.0001 66.0783 83.5786 66.8285 82.8285C67.5786 82.0783 68 81.0609 68 80.0001V40.0001C68 38.9392 67.5786 37.9218 66.8285 37.1716C66.0783 36.4215 65.0609 36.0001 64 36.0001C62.9392 36.0001 61.9217 36.4215 61.1716 37.1716C60.4215 37.9218 60 38.9392 60 40.0001Z" />
</svg>
