<svg width="128" height="128" viewBox="0 0 128 128" fill="none" xmlns="http://www.w3.org/2000/svg">
<g clip-path="url(#clip0_686_2)">
<path d="M123.91 116.588L93.4463 84.9034C101.282 75.6068 105.577 63.8383 105.571 51.68C105.571 23.1841 82.3868 0 53.8909 0C25.395 0 2.21094 23.1841 2.21094 51.68C2.21094 80.1758 25.395 103.36 53.8909 103.36C64.5886 103.36 74.7831 100.133 83.499 94.0081L114.195 125.933C115.478 127.265 117.203 128 119.053 128C120.803 128 122.463 127.333 123.724 126.119C125.011 124.879 125.753 123.179 125.788 121.392C125.823 119.605 125.148 117.878 123.91 116.588ZM53.8909 13.4817C74.9538 13.4817 92.0891 30.617 92.0891 51.68C92.0891 72.7429 74.9538 89.8782 53.8909 89.8782C32.8279 89.8782 15.6927 72.7429 15.6927 51.68C15.6927 30.617 32.8279 13.4817 53.8909 13.4817Z" />
</g>
<defs>
<clipPath id="clip0_686_2">
<rect width="128" height="128" />
</clipPath>
</defs>
</svg>
