<svg width="128" height="128" viewBox="0 0 128 128" fill="none" xmlns="http://www.w3.org/2000/svg">
<path d="M117.872 56.3309L14.6828 5.98952C13.6912 5.50629 12.5929 5.28332 11.4913 5.3416C10.3898 5.39988 9.32113 5.7375 8.38602 6.32268C7.45091 6.90786 6.68008 7.72135 6.14606 8.68659C5.61205 9.65183 5.33242 10.7371 5.3335 11.8402V12.0269C5.33403 12.8989 5.4415 13.7676 5.6535 14.6135L15.5522 54.2082C15.6849 54.7356 15.9757 55.2099 16.3856 55.5674C16.7955 55.9249 17.3049 56.1485 17.8455 56.2082L61.3495 61.0455C62.0733 61.1326 62.7402 61.4818 63.2239 62.0273C63.7077 62.5727 63.9748 63.2765 63.9748 64.0055C63.9748 64.7346 63.7077 65.4383 63.2239 65.9838C62.7402 66.5292 62.0733 66.8785 61.3495 66.9655L17.8455 71.8029C17.3049 71.8626 16.7955 72.0862 16.3856 72.4436C15.9757 72.8011 15.6849 73.2754 15.5522 73.8029L5.6535 113.392C5.4415 114.238 5.33403 115.107 5.3335 115.979V116.166C5.33333 117.268 5.61362 118.353 6.14801 119.317C6.68239 120.282 7.45332 121.095 8.38828 121.679C9.32325 122.264 10.3915 122.601 11.4927 122.659C12.5938 122.717 13.6916 122.494 14.6828 122.011L117.867 71.6695C119.304 70.9685 120.515 69.8778 121.362 68.5218C122.209 67.1658 122.659 65.5991 122.659 64.0002C122.659 62.4013 122.209 60.8346 121.362 59.4786C120.515 58.1226 119.309 57.0319 117.872 56.3309Z" />
</svg>
