<svg width="128" height="128" viewBox="0 0 128 128" fill="none" xmlns="http://www.w3.org/2000/svg">
<path d="M87.2678 13.8013H5.0855C3.10525 13.8013 1.5 15.4065 1.5 17.3868V38.9005C1.5 40.8808 3.10525 42.486 5.0855 42.486H12.2568C14.237 42.486 15.8422 40.8808 15.8422 38.9005V31.7293H37.2125V99.8558H28.2485C26.2683 99.8558 24.663 101.461 24.663 103.441V110.613C24.663 112.593 26.2683 114.198 28.2485 114.198H64.1045C66.0847 114.198 67.69 112.593 67.69 110.613V103.441C67.69 101.461 66.0847 99.8558 64.1045 99.8558H55.1405V31.7293H76.5107V38.9005C76.5107 40.8808 78.116 42.486 80.0963 42.486H87.2675C89.2478 42.486 90.853 40.8808 90.853 38.9005V17.3868C90.8532 15.4065 89.248 13.8013 87.2678 13.8013Z" />
<path d="M124.179 49.2095H70.9812C70.3656 49.2095 69.7753 49.4541 69.34 49.8894C68.9048 50.3246 68.6602 50.9149 68.6602 51.5305V65.4567C68.6602 66.0723 68.9048 66.6626 69.34 67.0978C69.7753 67.5331 70.3656 67.7777 70.9812 67.7777H75.6232C76.2387 67.7777 76.829 67.5331 77.2643 67.0978C77.6995 66.6626 77.9441 66.0723 77.9442 65.4567V60.8147H91.7774V104.914H85.9749C85.3593 104.914 84.769 105.159 84.3337 105.594C83.8984 106.029 83.6539 106.62 83.6539 107.235V111.877C83.654 112.493 83.8985 113.083 84.3338 113.518C84.769 113.954 85.3594 114.198 85.9749 114.198H109.185C109.801 114.198 110.391 113.954 110.826 113.518C111.262 113.083 111.506 112.493 111.506 111.877V107.235C111.506 106.62 111.262 106.029 110.826 105.594C110.391 105.159 109.801 104.914 109.185 104.914H103.383V60.8147H117.216V65.4567C117.216 66.0723 117.461 66.6626 117.896 67.0978C118.331 67.5331 118.921 67.7777 119.537 67.7777H124.179C124.794 67.7777 125.385 67.5331 125.82 67.0978C126.255 66.6626 126.5 66.0723 126.5 65.4567V51.5305C126.5 50.2487 125.461 49.2095 124.179 49.2095Z" />
</svg>
