<svg width="32" height="32" viewBox="0 0 32 32"  xmlns="http://www.w3.org/2000/svg">
<path d="M16.5723 12.305L15.6875 10.5122L14.8028 12.305C14.7579 12.3959 14.6916 12.4745 14.6096 12.534C14.5277 12.5936 14.4324 12.6323 14.3321 12.6469L12.3536 12.9344L13.7853 14.3299C13.8579 14.4006 13.9121 14.488 13.9435 14.5843C13.9748 14.6807 13.9822 14.7833 13.9651 14.8831L13.6271 16.8536L15.3967 15.9233C15.4864 15.8761 15.5862 15.8515 15.6875 15.8515C15.7888 15.8515 15.8886 15.8761 15.9783 15.9233L17.748 16.8536L17.4099 14.8831C17.3928 14.7833 17.4003 14.6807 17.4316 14.5843C17.4629 14.488 17.5172 14.4006 17.5897 14.3299L19.0214 12.9344L17.0429 12.6469C16.9426 12.6323 16.8474 12.5936 16.7654 12.534C16.6834 12.4745 16.6171 12.3959 16.5723 12.305Z" />
<path d="M24.681 14.2374C24.6274 14.0738 24.6274 13.8974 24.681 13.7338L25.1875 12.1751C25.3231 11.7604 25.3235 11.3134 25.1886 10.8985C25.0538 10.4836 24.7908 10.1222 24.4374 9.86645L23.1114 8.90307C22.972 8.80218 22.8683 8.65946 22.8154 8.49563L22.3089 6.93688C22.1749 6.52175 21.9124 6.15991 21.5595 5.9035C21.2066 5.64709 20.7813 5.50935 20.3451 5.51013H18.7061C18.5329 5.51013 18.3673 5.45632 18.2271 5.35451L16.9011 4.39113C16.5487 4.1341 16.1237 3.99561 15.6874 3.99561C15.2512 3.99561 14.8262 4.1341 14.4738 4.39113L13.1478 5.35451C13.0088 5.45597 12.841 5.51048 12.6689 5.51013H11.0299C10.5936 5.50936 10.1684 5.64711 9.81545 5.90353C9.46251 6.15996 9.20009 6.52181 9.06601 6.93695L8.55951 8.49576C8.50664 8.65956 8.40296 8.80225 8.26351 8.90313L6.93757 9.86651C6.58419 10.1223 6.32114 10.4837 6.18634 10.8986C6.05154 11.3135 6.05195 11.7604 6.18751 12.1751L6.69401 13.7339C6.74757 13.8975 6.74757 14.0739 6.69401 14.2374L6.18751 15.7963C6.05195 16.2109 6.05155 16.6579 6.18636 17.0728C6.32117 17.4877 6.58423 17.8491 6.93763 18.1049L8.26363 19.0683C8.40311 19.1692 8.50678 19.3119 8.55957 19.4758L9.06607 21.0345C9.20015 21.4496 9.46258 21.8115 9.81552 22.0679C10.1685 22.3243 10.5937 22.462 11.0299 22.4613H12.6689C12.8421 22.4613 13.0078 22.5151 13.1479 22.6169L14.4739 23.5802C14.8264 23.8372 15.2513 23.9757 15.6876 23.9758C16.1129 23.9758 16.5383 23.8439 16.9013 23.5803L18.2273 22.6169C18.3663 22.5154 18.5341 22.4609 18.7062 22.4613H20.3452C20.7814 22.462 21.2067 22.3243 21.5596 22.0679C21.9126 21.8114 22.175 21.4496 22.3091 21.0344L22.8156 19.4756C22.8684 19.3118 22.9721 19.1691 23.1116 19.0683L24.4375 18.1048C24.7909 17.849 25.054 17.4876 25.1888 17.0727C25.3236 16.6578 25.3232 16.2109 25.1876 15.7962L24.681 14.2374ZM20.8008 12.9457L18.6976 14.9958L19.1941 17.8906C19.2139 18.0055 19.201 18.1237 19.1571 18.2318C19.1132 18.3398 19.0399 18.4334 18.9455 18.502C18.8512 18.5705 18.7395 18.6113 18.6232 18.6197C18.5069 18.6281 18.3905 18.6038 18.2873 18.5495L15.6875 17.1827L13.0878 18.5494C12.9845 18.6037 12.8682 18.628 12.7519 18.6196C12.6356 18.6112 12.5239 18.5704 12.4296 18.5018C12.3352 18.4333 12.2619 18.3397 12.218 18.2317C12.174 18.1237 12.1612 18.0055 12.1809 17.8906L12.6774 14.9958L10.5742 12.9457C10.4907 12.8643 10.4316 12.7612 10.4037 12.6479C10.3757 12.5347 10.38 12.4159 10.416 12.305C10.4521 12.1941 10.5184 12.0955 10.6076 12.0203C10.6967 11.9451 10.8052 11.8964 10.9206 11.8796L13.8272 11.4573L15.127 8.82345C15.1786 8.71887 15.2585 8.63081 15.3575 8.56925C15.4566 8.50768 15.5709 8.47505 15.6875 8.47505C15.8041 8.47505 15.9184 8.50768 16.0175 8.56925C16.1165 8.63081 16.1964 8.71887 16.248 8.82345L17.5478 11.4573L20.4544 11.8796C20.5699 11.8964 20.6783 11.9451 20.7675 12.0202C20.8567 12.0954 20.9231 12.194 20.9591 12.305C20.9952 12.4159 20.9994 12.5347 20.9715 12.6479C20.9435 12.7612 20.8844 12.8643 20.8008 12.9457Z" />
<path d="M27.4538 22.4028L24.5013 19.4497L23.8544 19.9191L23.3788 21.3822C22.9506 22.701 21.7313 23.5866 20.345 23.5866H18.8069L18.2013 24.026L22.0163 27.8403C22.1344 27.9585 22.2944 28.0235 22.4581 28.0235C22.5006 28.0235 22.5438 28.0191 22.5863 28.0097C22.7925 27.9666 22.9631 27.8222 23.04 27.626L24.2213 24.6072L27.2394 23.4266C27.3362 23.3888 27.4221 23.3275 27.4892 23.2482C27.5563 23.1688 27.6026 23.074 27.6238 22.9722C27.6669 22.766 27.6031 22.5516 27.4538 22.4028ZM12.5681 23.5866H11.03C9.64376 23.5866 8.42438 22.701 7.99626 21.3822L7.52063 19.9191L6.87376 19.4497L3.92126 22.4028C3.84778 22.4761 3.79375 22.5665 3.76407 22.666C3.73438 22.7654 3.72998 22.8707 3.75126 22.9722C3.79438 23.1791 3.93876 23.3497 4.13563 23.4266L7.15376 24.6072L8.33501 27.626C8.37283 27.7226 8.43412 27.8082 8.51334 27.8752C8.59256 27.9422 8.68721 27.9884 8.78876 28.0097C8.83126 28.0191 8.87438 28.0235 8.91688 28.0235C9.08063 28.0235 9.24063 27.9585 9.35876 27.8403L13.1738 24.026L12.5681 23.5866Z" />
</svg>
