<svg width="32" height="32" viewBox="0 0 32 32"  xmlns="http://www.w3.org/2000/svg">
<path d="M18.8595 27.5944C21.574 22.7754 20.4375 16.7109 16.157 13.1754L16.15 13.1694L16.1685 13.2154L16.1655 13.2499C16.9995 15.4529 16.8825 17.8714 15.858 19.9464L15.136 21.4094L14.9145 19.7929C14.7647 18.6983 14.3527 17.6561 13.7135 16.7549H13.613L13.56 16.6049C13.5675 18.2804 13.2145 19.9309 12.522 21.4879C11.6135 23.5254 11.747 25.8749 12.8795 27.7739L13.661 29.0849L12.255 28.4909C9.9365 27.5114 8.083 25.6244 7.1695 23.3139C6.146 20.7339 6.3355 17.7424 7.677 15.3134C8.36947 14.069 8.86119 12.7231 9.134 11.3254L9.3955 9.96992L10.0625 11.1789C10.3829 11.761 10.6182 12.386 10.761 13.0349L10.776 13.0504L10.7915 13.1554L10.806 13.1509C12.804 10.4964 14.001 7.19342 14.1755 3.84892L14.2205 2.98242L14.9475 3.45642C16.4194 4.41923 17.6803 5.67095 18.6539 7.13568C19.6276 8.6004 20.2935 10.2476 20.6115 11.9774L20.626 12.0489L20.6335 12.0599L20.666 12.0139C21.2446 11.2545 21.5569 10.3256 21.5545 9.37092V7.88192L22.453 9.06892C24.5442 11.8351 25.6103 15.2416 25.469 18.7064C25.292 22.7744 23.0735 26.3449 19.534 28.2794L18.0015 29.1169L18.8595 27.5944Z" />
</svg>
