<svg width="21" height="21" viewBox="0 0 21 21" xmlns="http://www.w3.org/2000/svg">
<g clip-path="url(#clip0_294_111)">
<path d="M0.875 18.375H4.375V7.875H0.875V18.375ZM20.125 8.75C20.125 7.78312 19.3419 7 18.375 7H12.8494L13.685 3.00125C13.7025 2.91375 13.7156 2.82187 13.7156 2.72563C13.7156 2.3625 13.5669 2.03438 13.3306 1.79813L12.3988 0.875L6.63688 6.63688C6.32188 6.95625 6.125 7.39375 6.125 7.875V16.625C6.125 17.5919 6.90812 18.375 7.875 18.375H15.75C16.4762 18.375 17.0975 17.9331 17.36 17.3075L19.9981 11.1388C20.0769 10.9375 20.125 10.7231 20.125 10.5V8.82438L20.1162 8.81562L20.125 8.75Z"/>
</g>
<defs>
<clipPath id="clip0_294_111">
<rect width="21" height="21"/>
</clipPath>
</defs>
</svg>
