<svg width="100" height="19" viewBox="0 0 100 19"  xmlns="http://www.w3.org/2000/svg">
<path d="M77.4682 18.3516C77.2856 18.3168 77.2598 18.2635 77.284 17.9728C77.3085 17.6783 77.3539 17.6203 77.6345 17.5246C77.8118 17.4641 78.334 17.4123 78.795 17.4095C79.6839 17.4043 79.5875 17.4394 80.4769 16.7912C80.6706 16.65 80.7208 16.6471 80.93 16.7651C81.0594 16.8381 81.1809 16.945 81.1999 17.0027C81.2191 17.0604 80.9804 17.4023 80.6696 17.7625L80.1046 18.4173L78.8926 18.4048C78.2259 18.3981 77.585 18.3739 77.4682 18.3516ZM76.3547 17.9846L76.0418 17.7381L76.3985 17.4385C76.8416 17.0666 76.7479 16.9309 76.2438 17.2143L75.8682 17.4254L76.1189 17.0465C76.2568 16.838 76.4 16.6675 76.4371 16.6675C76.5498 16.6675 76.9852 17.0394 77.0801 17.2166C77.1496 17.3466 77.1361 17.3803 77.0183 17.3706C76.8528 17.357 76.4679 17.9262 76.5723 18.0302C76.608 18.0658 76.7166 17.9972 76.8136 17.8775C76.9983 17.6497 77.024 17.6819 76.9318 18.0259C76.8598 18.2948 76.7373 18.286 76.3547 17.9846ZM75.5164 17.1998C75.5164 17.1295 75.6686 16.9292 75.8546 16.7547L76.1928 16.4373L75.9572 16.8482C75.7162 17.2686 75.5164 17.4279 75.5164 17.1998ZM75.2401 16.7303C75.2401 16.5491 75.7235 16.0457 75.7683 16.1802C75.8203 16.3361 75.635 16.6468 75.4222 16.7608C75.2814 16.8361 75.2401 16.8292 75.2401 16.7303ZM81.1493 16.4975C80.9383 16.3027 80.7656 16.0819 80.7656 16.0068C80.7656 15.6245 82.581 13.6285 82.9287 13.6285C83.163 13.6285 83.0845 13.9501 82.7465 14.3753C82.5112 14.6713 82.4248 14.8707 82.4241 15.1196C82.4237 15.3065 82.4647 15.4851 82.5153 15.5164C82.7057 15.634 82.5942 15.9256 82.1845 16.3813C81.9519 16.64 81.7101 16.8517 81.6473 16.8517C81.5844 16.8517 81.3603 16.6923 81.1493 16.4975ZM74.7198 16.6186C74.6753 16.5028 74.7466 16.3843 74.9713 16.201C75.4032 15.8485 75.249 15.762 74.7305 16.0659C74.4963 16.2031 74.2847 16.2954 74.2602 16.2709C74.1751 16.1858 74.7998 15.5624 74.9701 15.5624C75.2451 15.5624 75.358 15.875 75.2104 16.228C75.1411 16.3938 75.0164 16.5859 74.9331 16.6549C74.8033 16.7626 74.773 16.7575 74.7198 16.6186ZM79.3612 15.7796C79.1713 15.5449 79.0159 15.2818 79.0159 15.195C79.0159 15.1082 79.2973 14.7098 79.6413 14.3098C80.6433 13.1447 80.8767 12.7445 80.6133 12.6434C80.5062 12.6023 80.1809 12.8824 79.4596 13.6368C78.2981 14.8518 78.2803 14.733 79.424 13.3985C79.858 12.8921 80.2131 12.4258 80.2131 12.3624C80.2131 12.299 80.1274 12.2471 80.0228 12.2471C79.9018 12.2471 79.4828 12.6078 78.8726 13.2371C78.3446 13.7816 77.9126 14.1857 77.9125 14.135C77.9124 14.0844 78.3306 13.5477 78.8419 12.9424C79.6133 12.0293 79.7436 11.832 79.6073 11.7842C79.3593 11.6972 79.028 11.7879 78.9728 11.958C78.9007 12.1801 77.4814 13.6847 77.4092 13.6156C77.3753 13.5831 77.5281 13.3344 77.7486 13.063C77.9691 12.7916 78.3444 12.3296 78.5827 12.0363C78.8209 11.7431 79.0159 11.4451 79.0159 11.3741C79.0159 11.0052 78.741 11.1794 77.8519 12.1115C77.3285 12.6602 76.8794 13.0883 76.8539 13.0628C76.8285 13.0374 77.1565 12.5953 77.5829 12.0804C78.5141 10.9558 78.689 10.5683 78.1944 10.7253C78.0275 10.7782 77.522 11.3016 76.5466 12.4313C76.0709 12.9821 76.1268 12.6696 76.6146 12.0509C78.0306 10.2548 78.051 10.2211 77.7276 10.2211C77.6167 10.2211 77.1597 10.6114 76.5687 11.2111C75.5148 12.2803 75.4221 12.2494 76.3618 11.142C77.437 9.87483 77.5042 9.76064 77.1741 9.76064C77.0614 9.76064 76.6151 10.1445 76.0232 10.7506C75.4915 11.2951 75.0563 11.6965 75.0562 11.6425C75.0561 11.5886 75.3857 11.1534 75.7888 10.6756C76.6388 9.66787 76.7877 9.42955 76.652 9.2939C76.5062 9.14811 76.1534 9.35177 75.8519 9.75571C75.5553 10.153 74.5034 11.2164 74.5034 11.1189C74.5034 11.084 74.7707 10.727 75.0975 10.3255C75.9829 9.23775 76.2453 8.7532 75.9538 8.74398C75.8905 8.74174 75.417 9.18708 74.9015 9.73307C73.8848 10.8101 73.5639 10.9829 74.3493 10.0304C75.3677 8.7953 75.6426 8.28717 75.2923 8.28717C75.1784 8.28717 74.2701 9.22447 73.5597 10.0752L73.3354 10.3438L72.515 9.87506C71.62 9.36373 71.0038 9.09802 70.083 8.82624C69.3442 8.60821 67.9058 8.38163 67.2281 8.37654C66.9495 8.37429 66.618 8.31349 66.4914 8.24112C66.3571 8.16436 66.0046 8.10815 65.6455 8.10624C64.5861 8.10036 64.3781 7.91024 64.6971 7.23798C64.99 6.62073 65.8308 6.43479 66.4087 6.85944C66.9222 7.23672 67.4185 7.43348 68.149 7.54929C69.7055 7.79605 71.3977 8.30319 72.4983 8.85274C72.8897 9.04818 73.2797 9.20809 73.365 9.20809C73.4503 9.20809 73.8318 8.97339 74.2129 8.68655C74.594 8.39971 75.0714 8.07099 75.2738 7.95605C75.7143 7.70582 75.7266 7.71049 76.9891 8.60406C77.4513 8.93116 78.1287 9.34086 78.4945 9.5145C79.1476 9.82452 79.7683 10.2801 81.4468 11.6817C81.9102 12.0687 82.4316 12.4928 82.6056 12.6242L82.9218 12.8632L82.6089 13.2689C82.277 13.6992 79.8421 16.2073 79.7568 16.2067C79.7292 16.2065 79.5511 16.0143 79.3612 15.7796ZM81.4869 13.7788C81.5049 13.6854 81.4715 13.5615 81.4127 13.5036C81.278 13.3709 81.0285 13.6706 81.1059 13.8722C81.1759 14.0547 81.4465 13.9884 81.4869 13.7788ZM71.6452 8.88981C71.7832 8.72346 71.6946 8.56346 71.4643 8.56346C71.369 8.56346 71.2643 8.60672 71.2316 8.65959C71.1706 8.75839 71.3402 9.02392 71.4643 9.02392C71.5026 9.02392 71.584 8.96362 71.6452 8.88981ZM68.9666 8.20398C69.1313 8.09972 69.0181 7.91882 68.7882 7.91882C68.6152 7.91882 68.5457 8.1006 68.6709 8.22579C68.7512 8.30608 68.8126 8.30158 68.9666 8.20398ZM73.6764 15.7501C73.5998 15.607 73.6118 15.5112 73.7285 15.3331C73.9018 15.0686 73.7834 15.0264 73.4609 15.2378C73.2666 15.3651 73.2178 15.347 72.68 14.9483L72.1063 14.5231L72.2919 14.2087C72.6082 13.6725 72.5214 13.5481 72.1107 13.9492C71.6801 14.3696 71.5445 14.3266 71.8213 13.8574C72.0752 13.4271 72.068 13.3908 71.7743 13.6218C71.5427 13.804 71.2802 13.8757 71.2802 13.7569C71.2802 13.6301 71.8577 12.9839 71.9709 12.9839C72.0384 12.9839 72.2253 13.1501 72.3862 13.3533C72.6509 13.6876 72.6692 13.7504 72.5781 14.0117C72.4379 14.414 72.4475 14.4244 72.7032 14.1485C73.1177 13.7012 73.2951 13.9545 72.9214 14.4599C72.7077 14.7489 72.7474 14.9299 72.9817 14.7355C73.1006 14.6368 73.1221 14.6515 73.1221 14.8317V15.0443L73.3804 14.7969C73.8281 14.3679 73.9509 14.4522 73.9509 15.1886C73.9509 15.8544 73.8465 16.0679 73.6764 15.7501ZM74.0512 15.7236C74.1855 15.4632 74.511 15.102 74.6115 15.102C74.7798 15.102 74.6705 15.3587 74.3839 15.6365C74.0281 15.9814 73.9012 16.0146 74.0512 15.7236ZM78.2791 15.094L77.9568 14.8147L78.301 15.0274C78.4903 15.1444 78.6457 15.2712 78.6463 15.3092C78.6487 15.4095 78.6332 15.4009 78.2791 15.094ZM43.156 13.7592C43.1252 13.679 43.1001 13.492 43.1001 13.3435C43.1001 13.195 43.0493 12.9922 42.9872 12.8927C42.8884 12.7345 42.9195 12.6657 43.2361 12.3414C43.6085 11.96 43.5273 11.8336 43.0976 12.1257L42.8699 12.2805L43.0419 12.0834C43.1544 11.9545 43.1946 11.8132 43.158 11.6753C43.0816 11.3878 41.2683 9.11606 41.1151 9.11606C41.0477 9.11606 40.8425 9.20456 40.6592 9.31273L40.3258 9.50941L40.0279 9.22064C39.7886 8.98864 39.6494 8.93048 39.32 8.92479C38.6878 8.91386 38.1972 8.7318 38.0386 8.44931C37.7642 7.96041 37.7199 7.96491 42.8054 7.96491C47.2263 7.96491 47.4916 7.97421 47.7968 8.14071C47.9741 8.2374 48.3482 8.43013 48.6282 8.56901C49.213 8.85907 49.4649 9.20383 49.2666 9.44273C49.1987 9.52455 48.4983 10.0498 47.7102 10.61C46.9221 11.1702 46.0286 11.8834 45.7247 12.195C45.0736 12.8626 44.5042 13.3255 43.9208 13.6615C43.4363 13.9405 43.2354 13.9662 43.156 13.7592ZM44.8517 12.0595C45.0086 11.7664 44.8787 11.4944 44.598 11.5281C44.2482 11.5702 44.1249 11.8216 44.3385 12.0576C44.5558 12.2978 44.7238 12.2981 44.8517 12.0595ZM45.8693 10.0822C47.1166 9.25749 47.339 9.03309 47.1031 8.83729C46.7832 8.57182 42.8238 8.51013 42.8238 8.77063C42.8238 8.97969 44.4148 10.8658 44.5911 10.8658C44.6424 10.8658 45.2175 10.5132 45.8693 10.0822ZM48.7247 9.33846L48.9479 9.10041L48.7305 8.92404C48.4544 8.70008 48.2889 8.70061 48.1684 8.92629C48.0527 9.14235 48.1921 9.57696 48.377 9.57696C48.4454 9.57696 48.6019 9.46939 48.7247 9.33846ZM41.6661 8.78715C41.827 8.6263 41.8396 8.5636 41.7403 8.41865C41.5562 8.14973 40.982 8.24322 40.982 8.54212C40.982 8.90726 41.3972 9.05601 41.6661 8.78715ZM97.1751 13.6304C96.4407 13.0984 96.4562 13.1957 96.681 10.5134C97.0038 6.66249 97.0156 6.35355 96.855 5.97011C96.7165 5.63971 96.7011 5.6317 96.084 5.57021C95.7376 5.53573 95.0398 5.42354 94.5333 5.32098C93.4747 5.1066 92.9715 5.13358 88.8833 5.62377C86.2758 5.93643 85.8854 6.02539 84.718 6.57294C83.6479 7.07486 83.3808 7.13088 80.9325 7.36701C78.7585 7.57668 77.8092 7.70871 77.7005 7.81653C77.569 7.94708 77.7367 8.18058 78.2424 8.57071L78.7425 8.95651L80.7939 8.83876C81.9222 8.77402 83.0386 8.74999 83.2748 8.78539C83.6042 8.83477 83.9263 9.00812 84.6569 9.52924C85.1808 9.90293 85.7836 10.263 85.9964 10.3294L86.3832 10.4502V11.4513V12.4525L85.8537 12.3908C85.2145 12.3163 84.5616 12.1169 83.9442 11.8075C83.5233 11.5967 83.4164 11.5821 82.6545 11.6322L81.8237 11.6867L81.0875 11.0357C79.9358 10.0175 79.3351 9.58226 78.3602 9.05967C77.4312 8.56167 76.257 7.74225 75.9308 7.36431L75.7466 7.15088L75.9308 7.23556C76.2206 7.36883 78.1944 7.31218 80.9453 7.09167L83.4734 6.88902L84.3067 6.47037C85.4639 5.88897 86.1454 5.64838 86.8437 5.5747C87.1729 5.53993 88.6752 5.3694 90.1822 5.19568C93.2164 4.8459 93.9502 4.81666 94.617 5.01896C95.236 5.20673 95.6437 5.19315 97.5876 4.92005C99.561 4.64282 99.9534 4.64758 99.9962 4.94928C100.014 5.07488 99.9677 5.17915 99.8789 5.21321C99.7789 5.2516 99.7387 5.36668 99.7527 5.57461C99.765 5.75688 99.6742 6.07694 99.5271 6.36973C99.3917 6.63926 99.2191 7.10842 99.1434 7.41233C98.9326 8.25917 98.6392 10.4302 98.5457 11.8345C98.4676 13.0087 98.4451 13.1141 98.2243 13.3447C98.0936 13.481 97.9868 13.6628 97.9868 13.7487C97.9868 13.9949 97.6006 13.9386 97.1751 13.6304ZM81.1171 9.91475C81.138 9.73849 81.1044 9.6686 80.9991 9.6686C80.8247 9.6686 80.7232 9.88574 80.8018 10.0907C80.885 10.3075 81.0837 10.1967 81.1171 9.91475ZM97.8252 9.4614C97.9001 9.2578 97.7931 9.11605 97.5647 9.11605C97.3264 9.11605 97.2721 9.28549 97.4526 9.466C97.596 9.60932 97.7716 9.60696 97.8252 9.4614ZM98.1249 7.87155C98.1249 7.74046 98.0532 7.68038 97.8716 7.65949C97.6707 7.63639 97.6184 7.66806 97.6184 7.81298C97.6184 7.91342 97.6702 8.01698 97.7335 8.04311C97.949 8.13204 98.1249 8.05492 98.1249 7.87155ZM98.2905 6.66351C98.3791 6.57491 98.1816 6.26121 98.0372 6.26121C97.8926 6.26121 97.8092 6.43559 97.872 6.60655C97.9163 6.72676 98.19 6.76399 98.2905 6.66351ZM49.3674 13.015C49.162 12.7281 48.994 12.4458 48.994 12.3875C48.994 12.2148 49.4321 11.8511 50.6508 11.0126L51.8011 10.2211H53.302H54.8029L55.1853 9.85365C55.5587 9.49484 56.0287 9.31567 56.3116 9.42424C56.3864 9.45296 56.5083 9.62177 56.5826 9.79946C56.6743 10.019 56.7978 10.1427 56.968 10.1854C57.2821 10.2642 59.5707 10.1584 60.1684 10.0375C60.672 9.93563 60.9659 10.0331 60.9659 10.3025C60.9659 10.4495 60.8486 10.4766 59.9846 10.5295C59.4449 10.5625 58.2902 10.5895 57.4186 10.5895C56.547 10.5895 55.611 10.6318 55.3385 10.6834C54.6596 10.8122 54.4843 11.0117 54.4274 11.7201L54.3813 12.2932L54.059 12.2795C53.8817 12.2721 53.4858 12.2359 53.1791 12.1993L52.6215 12.1326L51.2687 12.8345C50.5247 13.2205 49.8765 13.5363 49.8284 13.5363C49.7802 13.5363 49.5728 13.3018 49.3674 13.015ZM54.1327 11.7683C54.4423 11.4587 54.0655 11.0372 53.7049 11.2898C53.5124 11.4246 53.4428 11.6924 53.5678 11.8174C53.6679 11.9175 54.0136 11.8873 54.1327 11.7683ZM56.4123 9.84476C56.5072 9.6912 56.2938 9.51512 56.1667 9.64216C56.0605 9.74842 56.1269 9.94488 56.2692 9.94488C56.3139 9.94488 56.3783 9.89985 56.4123 9.84476ZM92.7145 13.3809C92.5848 13.347 92.5637 13.2728 92.6064 13.0002C92.6355 12.8139 92.6874 12.2886 92.7215 11.8328C92.7814 11.0328 92.7914 11.0039 93.0079 11.0039C93.3126 11.0039 93.4121 11.4123 93.3629 12.4612C93.3187 13.4026 93.2377 13.5176 92.7145 13.3809ZM70.8685 13.2646C70.8386 13.2163 70.7529 12.5015 70.678 11.676C70.5042 9.76173 70.4719 9.57863 70.2963 9.51125C70.1033 9.43718 69.8782 9.74783 69.5699 10.5138C69.2436 11.3244 68.8777 11.7626 68.4623 11.8405C68.0967 11.9091 66.306 11.6743 65.6033 11.4656C64.9404 11.2687 64.5409 10.9688 64.3112 10.4955C64.0709 10.0002 63.4188 8.63763 63.3756 8.54047C63.3587 8.50245 63.674 8.47138 64.0761 8.47138H64.8073L64.8703 9.23115C64.9445 10.125 65.1347 10.5651 65.55 10.8041C65.8708 10.9887 67.2568 11.2324 67.9921 11.2335C68.5792 11.2342 68.7701 11.0297 69.108 10.0369C69.2546 9.60642 69.4146 9.20237 69.4637 9.13905C69.5952 8.96938 69.8623 8.99667 70.6553 9.26075C71.4809 9.53571 71.4222 9.4031 71.5084 11.1881C71.5378 11.7959 71.5843 12.4192 71.6118 12.5733C71.6513 12.7945 71.6096 12.9058 71.4124 13.1028C71.155 13.3602 70.9629 13.4173 70.8685 13.2646ZM64.5039 9.06015C64.7396 8.96968 64.6859 8.65559 64.4347 8.65559C64.15 8.65559 64.0839 8.73531 64.1956 8.94397C64.2988 9.13676 64.3015 9.1378 64.5039 9.06015ZM91.2362 13.2832C91.2148 13.2452 91.2292 12.9655 91.269 12.6616C91.3084 12.3577 91.3448 11.8604 91.3498 11.5565C91.3606 10.9026 91.4388 10.7468 91.7349 10.7887C91.954 10.8196 91.9547 10.8238 91.9398 11.9518C91.9301 12.6813 91.8852 13.1315 91.8134 13.218C91.697 13.3582 91.3032 13.4027 91.2362 13.2832ZM88.5751 13.1485C88.4354 13.0418 88.4295 12.9246 88.5152 11.9709C88.5675 11.3884 88.6421 10.8497 88.681 10.7737C88.7198 10.6977 88.8714 10.6356 89.0178 10.6356H89.284L89.2504 11.3263C89.1758 12.8602 89.1141 13.2121 88.915 13.2406C88.8133 13.2552 88.6604 13.2138 88.5751 13.1485ZM89.9683 13.1142C89.8702 12.9961 89.8671 12.7894 89.952 12.0296C90.0097 11.5133 90.0843 11.0196 90.1178 10.9323C90.1787 10.7735 90.5693 10.7102 90.653 10.8456C90.7251 10.9623 90.5078 13.0194 90.4101 13.1451C90.2882 13.3018 90.1139 13.2897 89.9683 13.1142ZM94.5103 13.1022L94.0268 13.0664L94.0284 12.1272C94.0291 11.6107 94.0603 11.1423 94.0974 11.0863C94.1346 11.0303 94.3208 10.9558 94.5111 10.9208C95.0895 10.8145 95.1695 10.5915 95.1028 9.27237C95.0384 7.99969 94.9398 7.56631 94.6337 7.21046C94.3346 6.86273 93.7739 6.84446 90.8498 7.08718C87.5497 7.3611 86.2019 7.52751 85.9509 7.69202C85.7617 7.81597 85.7387 7.90311 85.7392 8.49655C85.7395 8.8626 85.7836 9.31998 85.8372 9.51294C85.8908 9.7059 85.92 9.90742 85.9023 9.96078C85.8845 10.0142 85.3605 9.67785 84.7379 9.21347L83.6058 8.36913L81.3468 8.47783C78.8963 8.59574 78.653 8.5707 78.1412 8.14798L77.865 7.91978L78.1412 7.91904C78.7174 7.91679 82.7681 7.54548 83.2523 7.45055C83.5309 7.39593 84.2011 7.14761 84.7416 6.89874C85.9482 6.34319 86.3511 6.25656 89.4225 5.89223C92.6877 5.50491 93.8029 5.45576 94.5796 5.66495C94.9088 5.75364 95.4594 5.83091 95.8032 5.83667C96.2498 5.84418 96.4531 5.88657 96.5155 5.98529C96.64 6.1823 96.624 7.16838 96.4663 9.02431C96.22 11.9218 96.1272 12.6236 96.0038 12.5211C95.8421 12.3869 95.5926 12.5129 95.5926 12.7286C95.5926 12.8773 95.6388 12.9048 95.8273 12.8688C96.0076 12.8343 96.0554 12.8585 96.0336 12.9732C96.0033 13.1327 95.4979 13.1752 94.5103 13.1022ZM94.6715 12.6057C94.6715 12.4812 94.6057 12.4314 94.4412 12.4314C94.2757 12.4314 94.211 12.481 94.211 12.6079C94.211 12.705 94.2628 12.8025 94.3261 12.8246C94.5152 12.8906 94.6715 12.7915 94.6715 12.6057ZM93.5877 12.7077C93.5877 12.5304 93.6067 12.4579 93.6298 12.5465C93.6529 12.6351 93.6529 12.7802 93.6298 12.8688C93.6067 12.9575 93.5877 12.8849 93.5877 12.7077ZM87.166 12.641C86.7973 12.5504 86.7516 12.4344 86.7516 11.5913V10.7737H87.2181C87.7357 10.7737 88.0408 10.653 88.0408 10.4482C88.0408 10.374 88.1065 10.3133 88.1868 10.3133C88.3151 10.3133 88.3248 10.4378 88.2674 11.3493C88.2315 11.9191 88.1643 12.4579 88.1182 12.5465C88.0349 12.7065 87.6059 12.7491 87.166 12.641ZM87.2721 12.2898C87.3415 12.1089 87.029 11.7487 86.9078 11.8699C86.7816 11.9962 86.914 12.4314 87.0785 12.4314C87.1551 12.4314 87.2422 12.3677 87.2721 12.2898ZM92.2843 12.3777C92.289 12.2704 92.3106 12.2485 92.34 12.322C92.3666 12.3885 92.3633 12.4679 92.3323 12.4985C92.3017 12.5291 92.2802 12.4748 92.2843 12.3777ZM54.7957 11.8599C54.7957 11.3945 54.8335 11.2285 54.9672 11.1076C55.2499 10.8517 56.0973 10.7748 58.6406 10.7743L61.058 10.7738V11.2403C61.058 12.3045 60.9117 12.3524 57.4894 12.411L54.7957 12.4571V11.8599ZM90.922 11.9249C90.9228 11.6717 90.9406 11.579 90.9618 11.719C90.9829 11.859 90.9824 12.0662 90.9602 12.1794C90.9384 12.2927 90.9213 12.178 90.922 11.9249ZM42.5936 12.063C42.6853 11.9617 42.781 11.8789 42.8063 11.8789C42.8316 11.8789 42.7774 11.9617 42.6857 12.063C42.594 12.1643 42.4983 12.2472 42.4729 12.2472C42.4476 12.2472 42.5019 12.1643 42.5936 12.063ZM89.6401 11.3723C89.6403 10.8658 89.6558 10.6703 89.6744 10.9379C89.693 11.2055 89.6928 11.62 89.6739 11.8588C89.655 12.0977 89.6398 11.8788 89.6401 11.3723ZM74.0846 11.4968L73.7206 11.1148L74.1533 11.4059C74.6291 11.7259 74.7649 11.8788 74.5735 11.8788C74.5048 11.8788 74.2848 11.7069 74.0846 11.4968ZM42.1792 11.6247C42.1792 11.5862 42.2724 11.4974 42.3864 11.4274C42.5929 11.3006 42.593 11.3008 42.4182 11.4974C42.2305 11.7084 42.1792 11.7357 42.1792 11.6247ZM93.7738 11.1881C93.7745 10.9855 93.7936 10.9135 93.8157 11.028C93.8377 11.1426 93.8368 11.3083 93.8133 11.3964C93.7903 11.4844 93.7728 11.3905 93.7738 11.1881ZM92.3871 10.9118C92.3894 10.7599 92.4096 10.7089 92.433 10.7985C92.4563 10.8881 92.4548 11.0124 92.4299 11.0747C92.4046 11.1371 92.3852 11.0637 92.3871 10.9118ZM41.5806 10.8658C41.6723 10.7645 41.763 10.6816 41.7823 10.6816C41.8015 10.6816 41.7729 10.7645 41.7187 10.8658C41.6645 10.9671 41.5737 11.0499 41.517 11.0499C41.4603 11.0499 41.4889 10.9671 41.5806 10.8658ZM94.4022 10.4599C94.3294 10.3721 94.3035 9.96016 94.3219 9.18513C94.3593 7.6125 94.4548 7.69204 92.624 7.77031C89.8092 7.89065 86.6356 8.23214 86.4693 8.43259C86.3354 8.5939 86.4483 9.29913 86.665 9.65551C86.7594 9.81074 87.0351 10.041 87.2776 10.1672L87.7185 10.3967L87.275 10.4011C86.678 10.407 86.5375 10.3127 86.2908 9.74145C86.0505 9.18494 85.93 8.07436 86.0986 7.97013C86.3027 7.84399 89.3662 7.52111 93.263 7.21503C94.4655 7.12058 94.5871 7.27534 94.7752 9.14C94.8302 9.68494 94.8493 10.234 94.8176 10.3602C94.7538 10.6143 94.5675 10.659 94.4022 10.4599ZM41.3043 10.3132C41.396 10.2119 41.4856 10.129 41.5035 10.129C41.5214 10.129 41.4843 10.2119 41.4211 10.3132C41.3578 10.4145 41.2682 10.4974 41.2218 10.4974C41.1755 10.4974 41.2126 10.4145 41.3043 10.3132ZM67.5965 10.4744C67.5966 10.4617 67.6823 10.2258 67.7871 9.95012C67.8919 9.67445 67.9869 9.30148 67.9982 9.1213C68.0145 8.86155 68.0609 8.78759 68.222 8.76425C68.3885 8.74019 68.4253 8.77953 68.4253 8.9822C68.4253 9.18424 68.4591 9.22076 68.6095 9.18142C68.7154 9.15374 68.7935 9.17848 68.7932 9.23974C68.7923 9.44784 68.3743 10.033 68.062 10.2634C67.7875 10.466 67.5964 10.5526 67.5965 10.4744ZM49.7937 9.28146C49.5125 8.91659 49.3002 8.58941 49.3219 8.55439C49.3992 8.42927 50.1495 8.67043 50.3859 8.89637C50.7636 9.25746 51.3743 9.39245 52.6232 9.39092C53.8444 9.38945 54.1563 9.30089 54.243 8.93108C54.2907 8.72737 54.3584 8.69495 54.8456 8.64251C55.1474 8.61003 56.6878 8.57896 58.2686 8.57342C60.9669 8.56405 61.153 8.57389 61.3076 8.73618C61.3983 8.83119 61.5657 8.93761 61.6797 8.97265C61.7937 9.00764 61.9289 9.1147 61.9802 9.21044C62.119 9.46989 61.8398 9.57644 61.0212 9.57644C60.629 9.57644 60.14 9.64014 59.8957 9.72311C59.4518 9.87381 57.2254 9.9423 57.0142 9.81176C56.959 9.77765 56.9138 9.67166 56.9138 9.57622C56.9138 9.27333 56.5588 9.11598 55.8752 9.11598H55.2458L55.0625 9.5304L54.8792 9.94481H52.592H50.3048L49.7937 9.28146ZM25.7188 9.28118C25.6652 9.21562 25.5916 8.74764 25.5551 8.24113C25.5187 7.73463 25.4472 7.26841 25.3963 7.2051C25.3356 7.12953 25.0388 7.08999 24.5323 7.08999C23.855 7.08999 23.7356 7.11531 23.5538 7.29719C23.3531 7.49803 23.2823 7.5053 21.2515 7.53365L19.1562 7.56288V6.69169V5.82049L20.7448 5.75479C22.4994 5.68215 37.4381 5.72563 37.5161 5.80359C37.5429 5.83053 37.5939 6.23647 37.6293 6.7058L37.6938 7.55914L33.3997 7.53182L29.1056 7.50451L28.9605 7.29729C28.8342 7.11686 28.7343 7.09009 28.1875 7.09009C27.8422 7.09009 27.4314 7.1157 27.2747 7.14708L26.9897 7.20406L26.9638 8.27519L26.938 9.34633L26.377 9.37342C26.0011 9.39151 25.784 9.36101 25.7188 9.28118ZM20.9456 6.29086C21.0206 6.09524 20.7834 5.84947 20.5908 5.92336C20.4065 5.99408 20.4063 6.1167 20.5902 6.30063C20.7758 6.48622 20.8716 6.48355 20.9456 6.29086ZM27.1649 6.31124C27.3136 6.13205 27.2088 5.98488 26.9326 5.98488C26.582 5.98488 26.639 6.39319 26.9958 6.43808C27.0276 6.4418 27.1037 6.385 27.1649 6.31124ZM28.0431 6.1614C28.0431 6.00075 27.9922 5.93884 27.8602 5.93884C27.6441 5.93884 27.5527 6.24849 27.7347 6.36374C27.9253 6.48435 28.0431 6.407 28.0431 6.1614ZM34.4291 6.22075C34.4802 5.95689 34.2847 5.82793 34.1054 6.00726C33.9778 6.13479 33.9727 6.1838 34.0738 6.30568C34.2205 6.48244 34.386 6.44287 34.4291 6.22075ZM35.361 6.21928C35.486 6.06875 35.4165 5.89293 35.2321 5.89293C35.0665 5.89293 34.8743 6.13891 34.9475 6.25725C35.0322 6.39429 35.2309 6.37609 35.361 6.21928ZM72.2471 8.42174C71.1837 7.9051 70.1793 7.5894 69.0239 7.40863C67.5681 7.18082 67.3547 7.11248 66.6999 6.66417C66.1389 6.28015 66.0438 6.24547 65.6542 6.2829C64.9102 6.35436 64.4008 6.8912 64.2406 7.77275L64.1751 8.13307L57.022 8.07291C53.0878 8.03983 49.7472 7.97902 49.5986 7.9378C49.2743 7.84786 49.2244 7.74053 49.3971 7.50432C49.4914 7.37544 49.6193 7.33363 49.8682 7.35038C50.0561 7.36301 50.2693 7.32411 50.3418 7.26386C50.4217 7.19757 51.0011 7.13004 51.8098 7.09278C53.4347 7.01793 53.5072 6.97488 53.6054 6.02624C53.64 5.69164 53.7115 5.37479 53.7641 5.32211C54.0332 5.05306 58.0778 4.9838 58.5563 5.24004C58.8556 5.40035 59.032 5.88024 59.032 6.53459V7.0901H60.2248C60.9535 7.0901 61.5116 7.04729 61.6592 6.98007C62.188 6.73912 62.2844 6.08203 61.9783 4.80499C61.8773 4.38392 61.7947 3.97987 61.7947 3.90709C61.7947 3.73375 62.3192 3.73096 62.6785 3.90268C62.8255 3.97288 63.3571 4.05708 63.8597 4.08985C64.7592 4.14846 64.7796 4.15496 65.1586 4.50435C65.5887 4.90078 65.5165 4.87168 66.9058 5.2081C69.1511 5.75181 72.1975 6.98495 73.8833 8.03252C74.2628 8.2683 74.2447 8.37187 73.7692 8.68852C73.431 8.91371 73.1624 8.86642 72.2471 8.42174ZM58.4418 6.5836C58.7219 6.23319 58.7219 5.92099 58.4418 5.57059C58.2244 5.29867 58.2052 5.29381 57.222 5.2619C56.6727 5.24411 55.7155 5.25895 55.095 5.29415L53.9669 5.35889V5.98299C53.9669 6.64432 54.031 6.7637 54.4274 6.84114C54.554 6.86587 55.4594 6.88019 56.4393 6.87303L58.2209 6.85988L58.4418 6.5836ZM54.2149 6.40406C54.0313 6.22041 54.0285 6.19202 54.1581 5.82032C54.2478 5.56287 54.3042 5.53017 54.7556 5.47377C55.0298 5.43951 55.8244 5.4283 56.5214 5.44882C57.9479 5.49089 58.3232 5.60152 58.369 5.99355C58.4205 6.43606 58.249 6.47839 56.2327 6.52081C54.5734 6.55572 54.3539 6.54305 54.2149 6.40406ZM48.3723 8.00815C47.9472 7.83727 48.0918 7.54641 50.0759 4.58061L51.6007 2.30134H52.2222H52.8437L52.9094 2.87691C53.04 4.02208 52.9841 4.00503 56.6078 4.00503C59.3817 4.00503 59.4877 3.99837 59.7389 3.81141C59.9655 3.64266 60.0058 3.53918 60.0523 3.00594C60.0817 2.66942 60.1373 2.36286 60.1759 2.32468C60.2875 2.21436 64.9331 2.27065 65.5044 2.38928C65.9916 2.49041 66.053 2.48026 66.9202 2.15517C67.4188 1.96828 67.9434 1.78176 68.0861 1.7407C68.5332 1.612 68.3221 1.82851 67.6412 2.19706C66.7555 2.67644 66.778 2.79435 67.8267 3.17156C68.8478 3.53884 70.5526 4.29856 71.1542 4.65441C71.826 5.05184 71.4401 5.0482 70.4775 4.64774C68.003 3.61906 65.8167 2.91063 65.2767 2.96249C65.0336 2.98582 64.9394 3.05706 64.8116 3.31408C64.6703 3.5982 64.5994 3.64287 64.213 3.69098C63.6981 3.75505 62.883 3.66175 62.4687 3.49119C62.2564 3.40379 62.0789 3.3949 61.8241 3.45885C61.4849 3.544 61.4731 3.56015 61.4931 3.91408C61.5045 4.1159 61.6008 4.63738 61.7072 5.07293C61.8135 5.50847 61.8871 6.00483 61.8707 6.17593C61.8275 6.62475 61.5726 6.71847 60.3903 6.7201L59.4003 6.72157V6.34863C59.4003 5.93183 59.2333 5.55831 58.8105 5.02992L58.5255 4.67361L56.2447 4.71383C54.1278 4.75111 53.9458 4.7675 53.7123 4.9418C53.4052 5.1711 53.2257 5.71743 53.2907 6.22472C53.3391 6.60263 53.3391 6.6027 52.9854 6.66114C52.7908 6.69325 52.3415 6.72115 51.9869 6.72307C50.9973 6.72826 49.6837 6.87602 49.4772 7.00502C49.2446 7.15025 48.994 7.5668 48.994 7.80803C48.994 8.07814 48.7456 8.15819 48.3723 8.00815ZM52.2464 4.10771C52.2733 4.03758 52.2326 3.89052 52.1559 3.78098C52.0454 3.62332 51.9893 3.60429 51.8866 3.6896C51.7276 3.82153 51.7206 3.97815 51.8672 4.12476C52.0148 4.27231 52.1862 4.26461 52.2464 4.10771ZM72.7997 7.14665C70.5098 5.96537 69.8098 5.70101 66.2702 4.68093C65.4809 4.45344 65.11 4.12191 65.11 3.64375C65.11 3.33129 65.1259 3.31435 65.4195 3.31435C65.5897 3.31435 65.9212 3.3407 66.1562 3.37289C66.5682 3.42936 66.5835 3.4425 66.5835 3.74125C66.5835 4.01032 66.6137 4.05105 66.8137 4.05105C66.957 4.05105 67.0439 3.99886 67.0439 3.91292C67.0439 3.72389 67.3123 3.73913 67.9871 3.96644C68.6803 4.19998 69.07 4.46462 69.07 4.70196C69.07 4.9013 69.3363 4.94504 69.5075 4.77379C69.5876 4.69378 69.7844 4.73008 70.3092 4.92144C70.7746 5.09117 71.175 5.17312 71.5188 5.16901C72.1622 5.16134 72.7122 5.36716 73.8292 6.03376C74.7843 6.60369 75.3322 7.04142 75.3322 7.23451C75.3322 7.42418 74.7817 8.0116 74.6089 8.00634C74.5256 8.00409 73.7114 7.61697 72.7997 7.14665ZM23.8299 7.85545C23.3615 7.73306 23.9921 7.45848 24.7415 7.45848C25.1627 7.45848 25.2343 7.48365 25.2343 7.63192C25.2343 7.73394 25.149 7.82823 25.0271 7.86089C24.7948 7.92312 24.0764 7.91962 23.8299 7.85545ZM27.5083 7.85917C27.4149 7.83222 27.3547 7.74401 27.3711 7.65786C27.4135 7.43525 28.6172 7.3795 28.7004 7.59629C28.7313 7.67679 28.7306 7.76853 28.699 7.80017C28.6233 7.87583 27.7214 7.92054 27.5083 7.85917ZM38.1271 7.48106C38.1271 7.34586 38.3587 7.27445 38.8023 7.27282C39.3128 7.27058 39.3778 7.21288 39.4468 6.69707C39.5261 6.10338 39.6674 5.84815 40.6468 4.52927L41.4885 3.3959L42.5517 3.42417C43.4368 3.44772 43.6586 3.4833 43.8761 3.63662C44.4435 4.03654 44.5015 4.0481 46.001 4.06055C46.8114 4.06721 48.0257 4.09894 48.6994 4.13098L49.9244 4.18915L48.8553 5.7629L47.7862 7.33664L43.5323 7.39901C41.1926 7.43334 39.0193 7.4872 38.7027 7.51873C38.3315 7.55571 38.1271 7.54233 38.1271 7.48106ZM38.0409 6.73252C37.9328 6.53063 37.9079 4.30922 38.0013 3.20428L38.0597 2.51396L41.8461 2.45328C43.9287 2.41991 45.75 2.36656 45.8934 2.33475C46.0369 2.30293 46.178 2.20987 46.207 2.12793C46.3303 1.77992 46.4427 1.725 46.6014 1.93528C46.8754 2.2986 47.8475 2.36408 48.4328 2.05865C48.7197 1.90897 50.0601 1.88746 50.1489 2.03112C50.1823 2.08515 50.1329 2.18742 50.0392 2.25841C49.8827 2.37695 49.8956 2.38773 50.1966 2.39043C50.6261 2.39412 50.8775 2.57741 50.7978 2.82847C50.7645 2.93343 50.6094 3.19582 50.4531 3.41156L50.1689 3.8038L47.3042 3.7412L44.4395 3.67861L44.0982 3.44205C43.6507 3.13196 43.2333 3.04284 42.216 3.04017L41.378 3.03796L40.6882 3.93585C39.7091 5.21021 39.3215 5.82171 39.1413 6.37607C38.9844 6.859 38.9835 6.85981 38.5614 6.88759C38.2169 6.91025 38.1207 6.88174 38.0409 6.73252ZM38.557 6.31439C38.4861 6.12949 38.2301 6.12565 38.16 6.30851C38.1306 6.38512 38.1594 6.51153 38.224 6.5894C38.3275 6.71409 38.3577 6.7148 38.4772 6.59529C38.5518 6.5207 38.5877 6.39429 38.557 6.31439ZM38.4945 5.57168C38.6301 5.40828 38.5546 5.1561 38.3701 5.1561C38.2121 5.1561 38.1127 5.37971 38.1859 5.57051C38.2531 5.74545 38.35 5.74626 38.4945 5.57168ZM25.2527 5.41406C25.1919 5.35331 25.1422 5.10464 25.1422 4.86152V4.41948L23.6918 4.41282C22.3233 4.40616 21.3376 4.32932 21.2283 4.21998C21.2015 4.19318 21.1529 3.70523 21.1203 3.13565C21.0724 2.29771 21.0858 2.0844 21.1907 2.01797C21.262 1.9728 22.1644 1.93524 23.1959 1.93447L25.0713 1.93299L25.314 2.21654C25.4474 2.37248 25.8345 2.80813 26.1742 3.18464C26.8398 3.92232 26.9827 4.25019 26.9835 5.04109L26.984 5.52457H26.1736C25.6661 5.52457 25.3219 5.48331 25.2527 5.41406ZM35.9301 5.14971C35.7644 5.08328 35.7254 5.01385 35.7652 4.85549C35.8253 4.61579 35.7533 4.47666 35.5255 4.39263C35.4369 4.35993 35.3644 4.25342 35.3644 4.15595C35.3644 3.90557 35.5589 3.85048 36.6306 3.79742L37.5746 3.7507V4.4995V5.2483L36.8609 5.24242C36.4683 5.23947 36.0495 5.19752 35.9301 5.14971ZM10.3194 3.10717C10.326 1.2591 10.455 0.919998 11.1517 0.919998C11.7203 0.919998 11.89 1.13835 11.9786 1.98374C12.0207 2.38636 12.0575 3.05767 12.0602 3.47554L12.0652 4.23529H11.1903H10.3154L10.3194 3.10717ZM0.0909738 3.81488C-0.0508039 3.44198 -0.0207027 2.52057 0.138457 2.36141C0.213969 2.2859 0.535856 2.19625 0.853761 2.16222C1.58538 2.08387 9.35377 2.16665 9.69382 2.25601L9.94707 2.32282V3.18696V4.05109L6.74688 4.03677L3.54669 4.02245L5.99496 3.94734C7.34151 3.90607 8.54331 3.83461 8.66562 3.78865C9.07706 3.63405 7.6423 3.57527 4.2219 3.6066C0.982944 3.63628 0.933269 3.6396 0.657079 3.8439C0.297802 4.10969 0.201175 4.10473 0.0909738 3.81488ZM8.33546 2.49343C8.71415 2.4374 8.76321 2.41028 8.61174 2.34059C8.36737 2.22815 1.11602 2.22967 0.876033 2.34207C0.721283 2.41463 0.758075 2.43814 1.10626 2.48914C1.68093 2.57331 7.77064 2.57666 8.33546 2.49343ZM12.3974 3.90544C12.3666 3.82532 12.3415 3.45105 12.3415 3.07372C12.3415 2.52964 12.372 2.37597 12.4889 2.3311C12.713 2.24512 12.799 2.46988 12.8005 3.14568C12.8021 3.8312 12.7465 4.0511 12.5717 4.0511C12.5066 4.0511 12.4281 3.98555 12.3974 3.90544ZM13.1693 3.936C13.1687 3.87267 13.1426 3.66549 13.1112 3.47555L13.0541 3.13021H16.934H20.8139V3.59067V4.05112H16.9921C13.9966 4.05112 13.1701 4.02624 13.1693 3.936ZM26.486 3.16605C26.0348 2.68953 25.6964 2.26891 25.7339 2.23136C25.7714 2.19379 28.0219 2.15169 30.7349 2.13772L35.6677 2.11233L35.6101 2.72979C35.5341 3.54352 35.3591 3.71205 35.1467 3.1761C35.1266 3.12546 35.0355 3.15521 34.9441 3.24232C34.7883 3.39088 34.7876 3.41112 34.9331 3.57189C35.1673 3.83066 35.1227 3.92907 34.7428 3.99187C34.5528 4.02324 32.8019 4.04524 30.8519 4.04074L27.3064 4.03248L26.486 3.16605ZM53.4257 3.55808C53.3688 3.48958 53.2957 3.17878 53.2631 2.8674L53.2039 2.30125H56.4385H59.6731L59.7269 2.51584C59.7565 2.63387 59.7677 2.91339 59.7517 3.13702C59.7254 3.50526 59.6966 3.54913 59.4464 3.60222C59.2944 3.63448 57.9009 3.6657 56.3496 3.67176C54.0815 3.68054 53.5088 3.65822 53.4257 3.55808ZM35.8655 3.28742C35.8379 3.21552 35.8279 2.89171 35.8431 2.56783L35.8709 1.97893H36.1932H36.5155V2.66962V3.3603L36.2156 3.38916C36.0204 3.40799 35.8982 3.37245 35.8655 3.28742ZM37.0283 3.23383C36.9208 3.033 36.8972 2.4937 36.9858 2.26275C37.0438 2.1118 37.3576 2.06938 37.542 2.18757C37.6136 2.23341 37.6284 2.43345 37.5881 2.80778C37.5368 3.28339 37.5006 3.36431 37.3276 3.38893C37.2007 3.40702 37.0903 3.34981 37.0283 3.23383ZM14.1142 2.69944C13.3233 2.67213 13.0782 2.63418 13.0782 2.53923C13.0782 2.4708 13.1714 2.38985 13.2854 2.35931C13.5558 2.28682 20.3363 2.28682 20.6067 2.35931C20.8548 2.42582 20.8736 2.53364 20.6527 2.62315C20.469 2.69759 15.6774 2.7535 14.1142 2.69944ZM38.0382 2.03625C37.8046 1.87573 38.3391 1.7481 39.2152 1.75519C40.0323 1.76183 40.4591 1.8468 40.268 1.96489C40.0892 2.07536 38.1838 2.13634 38.0382 2.03625ZM40.7216 1.94469C40.5533 1.838 41.1262 1.75074 41.995 1.75074C42.8209 1.75074 43.3914 1.83405 43.3231 1.94465C43.2594 2.04758 40.884 2.04763 40.7216 1.94469ZM43.8898 1.94422C43.8265 1.84171 44.2828 1.74883 44.8498 1.74883C45.0904 1.74883 45.4161 1.77459 45.5736 1.80611C46.119 1.91519 45.7557 2.02512 44.8498 2.02512C44.3493 2.02512 43.9173 1.9887 43.8898 1.94422ZM58.4558 1.93831C56.6047 1.87579 56.2454 1.83427 56.3813 1.69838C56.4092 1.67048 57.1931 1.5494 58.1234 1.42928C60.0034 1.18653 60.1752 1.13992 60.5054 0.78315C60.6321 0.646335 60.8584 0.470551 61.0085 0.392517C61.2848 0.248829 62.6959 0.00119736 63.2452 1.46748e-06C63.6382 -0.000736702 63.9128 0.277079 63.9128 0.675759C63.9128 0.872079 63.9832 1.04745 64.1068 1.15925C64.2135 1.25574 64.3801 1.49009 64.477 1.68002L64.6533 2.02537H64.3315C64.067 2.02537 63.9842 1.97613 63.8668 1.7491C63.7022 1.4309 63.5481 1.393 63.4798 1.65395C63.4538 1.75357 63.3644 1.85485 63.2813 1.87902C62.9635 1.97136 60.3763 2.00317 58.4558 1.93831ZM61.4263 1.24259C61.4263 1.16585 61.3445 1.10445 61.2422 1.10445C61.1398 1.10445 61.058 1.16587 61.058 1.24259C61.058 1.31933 61.1398 1.38073 61.2422 1.38073C61.3445 1.38073 61.4263 1.31931 61.4263 1.24259ZM63.4881 0.805144C63.6365 0.569367 63.4486 0.321669 63.1213 0.321669C62.7972 0.321669 62.716 0.574195 62.9551 0.838436C63.1444 1.04753 63.3433 1.03511 63.4881 0.805144ZM47.4532 1.77736C47.5428 1.75403 47.6671 1.75551 47.7295 1.78031C47.7918 1.80555 47.7185 1.8246 47.5665 1.82275C47.4146 1.82054 47.3636 1.80068 47.4532 1.77736Z" />
</svg>
