<svg width="100" height="78" viewBox="0 0 100 78"  xmlns="http://www.w3.org/2000/svg">
<path d="M53.882 76.7136C52.008 76.2056 51.2556 75.7694 50.8975 74.9836C50.5553 74.2326 50.5514 73.8497 50.8839 73.6413C51.4421 73.2912 52.2985 70.3573 52.3019 68.7836C52.3032 68.1636 53.8377 64.3969 55.7118 60.4132L59.1194 53.1701L62.8042 53.1586C64.8309 53.1525 66.4891 53.1723 66.4891 53.2031C66.4891 53.234 64.9417 56.8958 63.0504 61.3408C61.1591 65.7858 59.6116 69.5545 59.6116 69.7156C59.6116 69.8767 60.7722 70.5294 62.1907 71.166C64.5038 72.204 64.7698 72.455 64.7698 73.5995C64.7698 74.5054 64.4893 75.0036 63.8026 75.3171C63.2707 75.5599 62.257 76.0716 61.5499 76.4541C59.7674 77.4184 56.8463 77.5172 53.882 76.7136ZM60.2816 75.098C60.8339 74.6904 60.9707 74.3405 60.6862 74.0632C59.8695 73.2674 54.7688 71.3579 54.4121 71.7146C54.2154 71.9113 53.9991 72.7331 53.9315 73.5406C53.8272 74.7875 53.9707 75.0555 54.8833 75.3185C56.7284 75.8502 59.411 75.7406 60.2816 75.098ZM60.4713 63.0334C60.9349 62.4747 60.7158 62.3886 58.8299 62.3886C56.7764 62.3886 55.8534 62.7857 56.4711 63.4033C57.0095 63.9417 59.9425 63.6706 60.4713 63.0334ZM61.664 60.3215C61.8032 59.899 61.3382 59.7919 59.7969 59.8917C58.5868 59.97 57.6684 60.2554 57.5591 60.5872C57.4199 61.0097 57.885 61.1168 59.4262 61.017C60.6364 60.9387 61.5547 60.6533 61.664 60.3215ZM62.9535 57.7425C63.0927 57.3199 62.6277 57.2129 61.0864 57.3126C59.8763 57.3909 58.958 57.6763 58.8487 58.0081C58.7095 58.4306 59.1745 58.5377 60.7158 58.4379C61.9259 58.3596 62.8443 58.0742 62.9535 57.7425ZM64.2431 55.1634C64.3823 54.7409 63.9172 54.6338 62.376 54.7336C61.1658 54.8119 60.2475 55.0973 60.1382 55.429C59.999 55.8516 60.464 55.9586 62.0053 55.8589C63.2155 55.7806 64.1338 55.4951 64.2431 55.1634ZM65.6423 73.6721C65.6491 73.0219 66.408 70.9425 67.3283 69.0512L69.0014 65.6125L68.7667 67.6157C68.5435 69.5209 68.5978 69.653 69.8747 70.3133C70.6132 70.6952 71.2174 71.2743 71.2174 71.6003C71.2174 72.1691 66.9663 74.8541 66.0658 74.8541C65.8258 74.8541 65.6352 74.3222 65.6423 73.6721ZM63.8026 71.2515C62.9531 70.875 62.7517 70.5964 63.0868 70.2614C63.8056 69.5426 63.371 67.8357 62.3388 67.3232C61.4249 66.8695 61.4521 66.7702 64.3466 60.0051L67.281 53.147L70.3238 53.0207C72.4731 52.9315 73.3666 53.0461 73.3666 53.4099C73.3666 54.1271 65.525 71.8533 65.2268 71.8103C65.0936 71.7912 64.4527 71.5396 63.8026 71.2515ZM61.1877 69.8393C60.6788 69.3304 60.8833 68.0754 61.5145 67.8332C62.3005 67.5316 63.2227 68.627 62.897 69.4756C62.6401 70.1451 61.6946 70.3462 61.1877 69.8393ZM50.5555 65.0938C50.0888 63.6796 50.1171 63.45 50.8069 63.052C52.8918 61.849 53.2323 61.1512 52.927 58.7075C52.7483 57.2774 52.7975 56.3708 53.0539 56.3708C53.2843 56.3708 54.3788 55.5733 55.4862 54.5985C56.5937 53.6237 57.5666 52.8983 57.6483 52.9866C57.8871 53.2445 51.7614 66.6871 51.405 66.6871C51.227 66.6871 50.8447 65.9701 50.5555 65.0938ZM54.1051 51.3202C54.2349 50.644 54.9987 50.556 61.6609 50.4503L69.0722 50.3327L71.8154 44.8623C73.3242 41.8536 74.9675 39.0235 75.4671 38.5731C76.7683 37.4002 76.6255 35.5328 75.086 33.5891C73.7008 31.8402 73.5296 31.0223 74.2621 29.6537C74.6736 28.8848 75.1287 29.4994 78.182 34.9476C80.082 38.3376 81.7243 41.3365 81.8318 41.6116C81.9392 41.8868 81.4182 43.4992 80.674 45.1949C79.9298 46.8905 79.4363 48.5785 79.5773 48.9461C80.0476 50.1716 79.3602 51.1789 77.7478 51.6267C76.853 51.8753 71.3184 52.0686 65.0606 52.07C54.7199 52.0722 53.9705 52.0209 54.1051 51.3202ZM72.7474 51.1715C73.1263 50.5583 71.8718 49.3038 71.2587 49.6828C70.4395 50.189 70.7089 51.6425 71.6219 51.6425C72.0808 51.6425 72.5872 51.4306 72.7474 51.1715ZM56.6393 48.1353C57.7485 46.0627 55.8463 39.6711 53.3889 37.2137C52.6368 36.4616 52.3553 35.8246 52.5308 35.2716C52.8944 34.1262 52.4018 32.8118 51.41 32.2811C50.741 31.923 50.0302 32.1378 47.8516 33.3561C45.435 34.7075 44.7805 34.8786 42.0258 34.8786C37.2514 34.8786 37.2596 34.8893 37.2596 29.0606V24.1325H38.6158C39.9147 24.1325 39.9412 24.1666 39.2423 24.9387C38.6535 25.5894 38.5369 26.4396 38.6384 29.3446L38.7641 32.9443L41.9879 33.0569C44.9093 33.159 45.4255 33.046 47.49 31.8538C48.743 31.1302 49.8761 30.257 50.0079 29.9135C50.2882 29.183 49.0161 25.7849 48.2891 25.3224C48.015 25.148 47.0769 25.0024 46.2043 24.9987C45.3317 24.9953 44.4982 24.7987 44.3521 24.5623C44.1809 24.2853 46.1977 24.0981 50.0221 24.0359C54.0255 23.9709 52.3196 23.8659 44.7819 23.7136L33.6059 23.4877L33.4784 20.8186C33.3923 19.0159 33.5703 17.7253 34.0267 16.8426L34.7026 15.5356H38.5602H42.4178V17.0153C42.4178 18.4438 42.3545 18.5008 40.5909 18.6596C39.5862 18.7501 40.65 18.858 42.9551 18.8992L47.146 18.9743L47.0817 17.5773C47.0217 16.2771 47.0049 16.2622 46.8382 17.3624C46.6892 18.3459 46.445 18.5445 45.3847 18.5445C44.1954 18.5445 44.117 18.4439 44.2115 17.04L44.3128 15.5356H48.5234C51.0439 15.5356 52.734 15.7081 52.734 15.9654C52.734 16.2018 53.2042 16.3953 53.7787 16.3953C54.5349 16.3953 54.8614 16.6624 54.9608 17.3624C55.0491 17.984 55.4438 18.3787 56.0653 18.4669C56.8841 18.5832 57.0325 18.4062 57.0325 17.3134C57.0325 16.2351 56.8378 15.993 55.8504 15.8435C55.2003 15.745 56.1441 15.6354 57.9478 15.6L61.2274 15.5356L62.8067 17.4629L64.386 19.3903L52.6496 19.5047L40.9133 19.6191L40.7703 20.6295C40.655 21.4444 40.4242 21.6012 39.578 21.4394C39.0009 21.3291 38.4251 21.4063 38.2986 21.6111C38.1721 21.8158 39.6275 21.9833 41.5327 21.9833C44.6944 21.9833 44.9969 21.9092 44.9969 21.1352C44.9969 20.3128 45.409 20.2816 58.6444 20.1007C66.1506 19.9981 73.4042 19.7815 74.7636 19.6194C76.4279 19.4209 77.2352 19.4762 77.2352 19.7886C77.2352 20.0437 76.1713 22.5079 74.8711 25.2646C73.5708 28.0212 72.5069 30.7619 72.5069 31.355C72.5069 31.9481 72.9905 33.0673 73.5815 33.8422C74.6858 35.2899 74.9988 37.1952 74.2123 37.6812C73.9682 37.8321 72.5161 40.4548 70.9854 43.5095L68.2023 49.0635H65.056H61.9097L62.0934 47.8122C62.2348 46.8486 62.0574 46.4433 61.3218 46.0496C60.5128 45.6167 60.2276 45.6774 59.4588 46.4461C58.6894 47.2155 58.6325 47.484 59.085 48.2086C59.5848 49.0089 59.508 49.0635 57.8807 49.0635C56.233 49.0635 56.1684 49.0151 56.6393 48.1353ZM68.8225 44.5194C70.0628 43.2792 69.3261 41.7561 67.4859 41.7561C66.3072 41.7561 65.6677 43.5604 66.4937 44.5557C67.1773 45.3793 67.975 45.367 68.8225 44.5194ZM66.728 43.9441C66.3797 43.3806 66.9204 42.186 67.5237 42.186C68.3097 42.186 69.0278 43.0804 68.7737 43.7428C68.5187 44.407 67.1003 44.5466 66.728 43.9441ZM67.8531 34.4089C68.9848 33.8032 72.0771 27.1241 72.0771 25.2853C72.0771 23.1157 71.5071 22.843 66.9743 22.843C62.3007 22.843 61.3309 23.3304 61.3309 25.6798C61.3309 27.3155 64.0296 33.5473 65.0817 34.3413C65.9576 35.0022 66.7101 35.0206 67.8531 34.4089ZM59.7681 47.9917C59.6192 47.6037 59.7035 47.0802 59.9554 46.8283C60.6103 46.1734 61.8512 46.7719 61.6801 47.6602C61.4896 48.6497 60.1122 48.8885 59.7681 47.9917ZM81.6232 44.726C82.6451 42.0809 89.0487 26.6989 89.4806 25.8519C89.782 25.2608 91.1482 21.8758 92.5167 18.3296C93.8852 14.7834 95.173 11.7692 95.3784 11.6313C95.5857 11.4922 95.5579 10.8707 95.316 10.2344C94.7938 8.86086 95.0448 8.82971 97.6469 9.94512C99.2686 10.6402 99.5971 10.9584 99.3845 11.6283C99.2403 12.0826 99.3236 12.5788 99.5696 12.7308C100.267 13.1617 100.097 14.9586 99.2021 16.6292L98.3873 18.1496L97.1989 15.1205C96.5452 13.4546 95.9452 12.1568 95.8654 12.2365C95.7856 12.3163 96.2124 13.8166 96.8137 15.5705C97.5002 17.5729 97.8187 19.2393 97.6696 20.049C97.4329 21.3345 95.5316 24.8207 91.6469 31.0922C89.8147 34.0501 89.6453 34.531 90.0384 35.6588C90.4052 36.711 90.3078 37.2044 89.4485 38.6453C88.8409 39.6643 87.9774 40.4823 87.3406 40.6421C86.7473 40.791 86.2619 41.0793 86.2619 41.2828C86.2619 41.4863 85.1656 42.4806 83.8255 43.4923C82.4855 44.5041 81.4944 45.0592 81.6232 44.726ZM91.4201 28.216C91.4201 27.8614 91.2381 27.5712 91.0156 27.5712C90.4736 27.5712 90.0854 28.2425 90.4288 28.5859C90.9129 29.07 91.4201 28.8807 91.4201 28.216ZM95.7185 20.8728C95.7185 20.4985 95.4889 20.2688 95.2081 20.3624C94.4111 20.628 94.2789 21.5534 95.038 21.5534C95.4123 21.5534 95.7185 21.2472 95.7185 20.8728ZM78.5752 34.5159L75.0854 28.065L76.9901 23.8654C79.4185 18.5113 79.2844 18.1147 75.0469 18.1147H72.0291L73.1993 17.1081C74.791 15.739 74.8046 13.6245 73.2306 12.2705C72.2306 11.4103 72.1825 11.2585 72.8366 11.0276C73.2464 10.883 74.1723 9.86556 74.894 8.76673L76.2063 6.76886L83.1195 6.79496C90.6812 6.82348 92.4372 7.26179 94.0951 9.53435C94.8712 10.5982 94.8703 10.6735 94.0578 12.5433C93.5995 13.598 92.6116 15.9492 91.8625 17.7682C90.5404 20.9783 90.4542 21.0792 88.9222 21.2069C87.781 21.3021 87.3015 21.5621 87.1908 22.1457C87.0618 22.8257 87.2476 22.9221 88.3693 22.7575C89.7397 22.5563 89.8888 22.713 89.44 23.8824C89.2753 24.3116 88.658 24.5624 87.7666 24.5624C86.8751 24.5624 86.2579 24.8132 86.0932 25.2423C85.7083 26.2453 85.7368 26.2817 86.9069 26.2817C87.4979 26.2817 87.9815 26.5298 87.9815 26.8329C87.9815 27.5232 82.8902 40.1225 82.4146 40.6093C82.2224 40.806 80.4946 38.064 78.5752 34.5159ZM87.5344 20.4995C88.7007 19.0941 86.5721 16.9655 85.1667 18.1318C84.5258 18.6637 84.3183 20.3262 84.8292 20.837C85.34 21.3478 87.0024 21.1404 87.5344 20.4995ZM85.129 20.0519C84.9801 19.6639 85.0644 19.1403 85.3163 18.8884C85.9712 18.2335 87.2121 18.8321 87.041 19.7204C86.8505 20.7098 85.4731 20.9486 85.129 20.0519ZM91.4333 15.9408C91.8842 15.0983 91.8086 15.0626 89.8404 15.1885C88.2784 15.2884 87.7393 15.5043 87.6313 16.0729C87.4064 17.2571 90.7918 17.1394 91.4333 15.9408ZM92.7215 13.3642C93.2955 12.2917 93.1182 10.7235 92.396 10.4857C92.1053 10.39 91.5375 11.0035 91.1343 11.849L90.4012 13.3864H87.4972C85.9001 13.3864 84.4738 13.5798 84.3277 13.8162C84.1577 14.0913 85.536 14.2461 88.1558 14.2461C91.8439 14.2461 92.2963 14.1587 92.7215 13.3642ZM83.8801 8.98273C84.7102 7.79764 83.9055 7.32983 83.0497 8.50004C82.4995 9.25246 82.4303 9.25467 81.6461 8.54494C81.1924 8.13435 80.4642 7.79842 80.0279 7.79842C79.3144 7.79842 79.3361 7.9065 80.2441 8.87303C81.4971 10.2068 82.9912 10.2519 83.8801 8.98273ZM6.74065 34.7246C6.74065 33.2243 7.25433 32.6815 7.81526 33.5891C8.3607 34.4716 10.1194 34.021 11.0098 32.7705C12.3312 30.9148 12.271 26.7813 10.9039 25.497C9.85834 24.5147 8.2685 24.2588 7.81093 24.9992C7.35467 25.7374 6.74065 25.0076 6.74065 23.7274C6.74065 22.8884 6.48368 22.4462 5.90877 22.2959C5.30795 22.1388 5.14279 21.8263 5.31414 21.1711C5.54916 20.2724 5.67779 20.2639 19.0166 20.2639H32.4819L32.6141 22.0907C32.7456 23.9087 32.7551 23.9182 34.5731 24.0498C36.1876 24.1666 36.3999 24.304 36.3999 25.2318C36.3999 26.1884 36.2293 26.2817 34.4808 26.2817C33.0015 26.2817 32.4561 26.0846 32.1015 25.422C31.6814 24.6371 31.2015 24.5624 26.5844 24.5624C21.252 24.5624 20.4957 24.8067 20.4957 26.53C20.4957 27.0448 20.2055 27.7068 19.8509 28.0011C18.93 28.7654 19.0487 31.1088 20.0636 32.1981C20.8535 33.046 21.2639 33.1054 25.2785 32.9531C27.6751 32.8622 29.8425 32.5812 30.095 32.3288C30.3475 32.0763 31.8694 31.8697 33.477 31.8697H36.4V33.1114C36.4 34.5296 36.077 34.633 30.1672 35.1056C28.2759 35.2569 26.2449 35.4733 25.6538 35.5864C25.0628 35.6995 20.5655 35.9042 15.6599 36.0411L6.74066 36.29L6.74065 34.7246ZM7.88189 32.803C6.92487 31.7455 6.91407 27.5025 7.86473 26.0517C9.35772 23.7731 11.0391 25.399 11.0391 29.1214C11.0391 32.9032 9.54708 34.643 7.88189 32.803ZM20.7772 31.5135C18.7627 29.2875 21.9972 26.1253 24.1187 28.2467C24.918 29.0461 25.0086 31.0534 24.2783 31.7837C23.5075 32.5545 21.5851 32.4062 20.7772 31.5135ZM26.0388 31.7622C26.0141 31.7031 25.9475 30.8975 25.8906 29.9719C25.7638 27.9074 24.4639 26.7116 22.3465 26.7116C21.3438 26.7116 20.9124 26.5352 21.0323 26.1743C21.1589 25.7928 22.7278 25.6019 26.4412 25.5163C30.9032 25.4133 31.6716 25.4926 31.6716 26.0536C31.6716 26.5646 32.1998 26.7116 34.0358 26.7116H36.3999V28.6459V30.5802H33.1761H29.9523V28.1861C29.9523 25.9493 29.8888 25.8011 28.9851 25.9294C28.1365 26.05 28.0016 26.3551 27.8848 28.4179C27.7801 30.2655 27.9128 30.8868 28.5042 31.3193C29.1658 31.8031 29.065 31.8697 27.6703 31.8697C26.7976 31.8697 26.0635 31.8213 26.0388 31.7622ZM46.1006 29.8279C46.2404 28.9414 46.1507 27.6841 45.9014 27.034C45.4721 25.9147 45.5131 25.8519 46.6743 25.8519C48.114 25.8519 48.7602 26.5077 49.1269 28.341C49.3623 29.5182 49.2249 29.7762 47.9473 30.5551C45.9794 31.7548 45.8074 31.6871 46.1006 29.8279ZM5.45112 18.1813C5.45112 17.7451 5.80485 17.0681 6.23719 16.6769C6.92206 16.0571 8.33381 15.9655 17.2023 15.9655H27.3812L28.759 13.1715C29.6866 11.2905 30.3876 10.3775 30.9042 10.3775C31.9235 10.3775 31.8741 10.8662 30.6013 13.378C29.9531 14.6572 29.7 15.5946 29.9596 15.7551C30.1953 15.9008 30.5042 15.7176 30.6461 15.3479C30.7879 14.9783 31.3619 14.6759 31.9215 14.6759C32.6136 14.6759 33.1489 14.2703 33.5949 13.4077C34.4727 11.7104 34.4372 11.6038 33.1054 11.9381C32.1393 12.1806 32.0048 12.1091 32.2457 11.4813C32.4028 11.0719 32.5314 10.6561 32.5314 10.5573C32.5314 10.4584 39.812 10.3775 48.7106 10.3775C63.61 10.3775 64.9361 10.437 65.4749 11.1297C66.032 11.8461 66.0814 11.8461 66.5108 11.1297C66.8649 10.5389 67.5334 10.3816 69.6268 10.3965L72.292 10.4155L70.5726 11.3214C67.7306 12.8188 67.1795 14.1618 68.426 16.5519C68.7792 17.2291 69.0682 17.8577 69.0682 17.9489C69.0682 18.0401 68.1136 18.1147 66.9468 18.1147C64.9588 18.1147 64.7494 18.0064 63.6155 16.3912C62.95 15.4432 62.0187 14.567 61.5459 14.444C61.073 14.3211 54.6984 14.2746 47.38 14.3407L34.0738 14.461L32.9802 16.6925L31.8866 18.9239L18.6688 18.949C6.09868 18.973 5.45112 18.9357 5.45112 18.1813ZM69.4766 15.9254C68.3914 13.8978 70.5691 11.6423 72.466 12.8292C73.3271 13.368 73.5956 15.3865 72.9152 16.2064C72.128 17.1549 70.0434 16.9846 69.4766 15.9254ZM3.0385 15.7792C2.90846 15.4404 3.30139 14.4283 3.91167 13.5302C4.52196 12.6321 5.02127 11.5553 5.02127 11.1374C5.02127 10.5121 5.40191 10.3775 7.1705 10.3775C8.35257 10.3775 9.31972 10.4838 9.31972 10.6138C9.31972 10.7437 9.02461 11.4207 8.66392 12.1182C8.01202 13.3788 8.01539 13.3864 9.22907 13.3864C10.2012 13.3864 10.5962 13.0798 11.1675 11.8819C11.831 10.4906 12.0308 10.3775 13.8261 10.3775C15.9167 10.3775 16.0829 10.569 15.109 11.8566C14.2232 13.0277 14.319 13.3864 15.5174 13.3864C16.2418 13.3864 16.8389 12.9303 17.4868 11.8819C18.3465 10.4908 18.5766 10.3775 20.5418 10.3775H22.667L22.0112 11.6457C21.1501 13.3108 21.1686 13.3864 22.4369 13.3864C23.2498 13.3864 23.6967 13.0126 24.2359 11.8819C24.9091 10.4702 25.0809 10.3775 27.023 10.3775C28.1613 10.3775 29.0926 10.4806 29.0926 10.6067C29.0926 10.7328 28.6058 11.7966 28.0107 12.9708L26.9289 15.1058H16.8874C8.48603 15.1058 6.75851 15.2111 6.31081 15.7505C5.62963 16.5713 3.35011 16.5913 3.0385 15.7792ZM0.502558 14.347C0.263217 14.1733 0.0418811 13.4992 0.0107259 12.8491C-0.0437389 11.7129 0.0357288 11.667 2.05783 11.667C3.21489 11.667 4.16158 11.7822 4.16158 11.923C4.16158 12.0639 3.76155 12.7409 3.27262 13.4275C2.40575 14.6449 1.38159 14.9849 0.502558 14.347ZM5.02714 8.76557C5.03051 8.35185 5.14963 7.57813 5.2922 7.0462C5.54987 6.08471 5.60097 6.07905 14.0232 6.07905H22.4951L23.5046 5.00444C24.0599 4.4134 24.9252 3.92983 25.4275 3.92983C26.221 3.92983 26.3175 4.13048 26.1625 5.45795C25.8532 8.10712 26.2415 8.19912 37.7969 8.2146C44.3254 8.2234 48.0058 8.07331 48.0058 7.79842C48.0058 7.52432 44.4237 7.36858 38.1193 7.36858C31.8149 7.36858 28.2329 7.21285 28.2329 6.93874C28.2329 6.70232 27.9427 6.50889 27.5881 6.50889C27.2335 6.50889 26.9434 6.21874 26.9434 5.86412C26.9434 5.50951 27.2542 5.21936 27.6341 5.21936C28.0715 5.21936 28.2341 4.98288 28.0775 4.57459C27.8808 4.0622 28.2149 3.92983 29.7049 3.92983C30.9748 3.92983 31.6595 4.13783 31.8271 4.57459C31.9632 4.92921 32.5642 5.21936 33.1626 5.21936C33.8433 5.21936 34.2507 4.97791 34.2507 4.57459C34.2507 3.71818 36.3457 3.71818 36.6743 4.57459C36.8169 4.94623 37.4593 5.21936 38.1907 5.21936C38.9272 5.21936 39.3481 5.039 39.1939 4.78951C39.0247 4.51564 40.2743 4.35967 42.638 4.35967C46.3104 4.35967 47.5759 4.79896 47.5759 6.07371C47.5759 6.34096 47.785 6.4304 48.0406 6.27244C48.2962 6.11449 48.3947 5.54492 48.2597 5.00673C48.1222 4.45869 48.2487 3.84336 48.5473 3.60805C48.8463 3.3724 51.5342 3.22623 54.6684 3.27518L60.2564 3.36246L62.0232 1.68123L63.79 0L66.2575 2.1592C68.0085 3.69146 69.5548 4.58945 71.5831 5.25192C73.1551 5.76536 74.5806 6.31055 74.751 6.46346C74.9213 6.61636 74.5725 7.31779 73.976 8.02217C73.1344 9.0159 72.999 9.08082 73.3718 8.3119C74.21 6.58305 73.5716 6.29062 72.554 7.93724C71.2844 9.99149 70.1643 10.196 71.2453 8.17618C72.1032 6.57315 71.389 6.36204 70.4562 7.94295C69.7187 9.19301 69.2642 9.5178 68.2529 9.5178C67.2607 9.5178 66.9483 9.30474 66.8414 8.55504C66.6376 7.12635 65.1996 7.00078 65.1996 8.41167V9.5178H35.1104C6.73842 9.5178 5.02161 9.47487 5.02714 8.76557ZM65.4296 3.90539C65.8535 3.21943 65.2938 1.47889 64.5585 1.19674C63.0288 0.60974 61.6051 2.49142 62.6376 3.73553C63.2392 4.46041 65.0196 4.56873 65.4296 3.90539ZM63.1429 3.39654C62.5096 2.63352 63.1632 1.65653 64.1765 1.85166C65.165 2.04203 65.2654 3.64906 64.3004 3.83491C63.924 3.9074 63.4031 3.71013 63.1429 3.39654ZM6.10669 4.807C5.96651 4.5802 6.09826 3.99991 6.39964 3.51746C6.91626 2.69022 7.36431 2.64029 14.2707 2.64029C20.269 2.64029 21.7705 2.76395 22.5698 3.32379C23.3439 3.86599 23.4416 4.13256 23.0426 4.61332C22.6424 5.09552 20.8867 5.21936 14.4506 5.21936C9.75022 5.21936 6.25478 5.04662 6.10669 4.807Z" />
</svg>
