<svg width="100" height="100" viewBox="0 0 100 100"  xmlns="http://www.w3.org/2000/svg">
<path d="M50.5225 31.0679H57.3118L57.573 32.6347H50.5225V31.0679Z" />
<path d="M39.293 52.2197L42.6876 58.2257L41.1209 58.748L37.9873 53.2642L39.293 52.2197Z" />
<path d="M68.8013 52.2197L69.8459 53.2642L66.7123 58.748L65.1455 58.2257L68.8013 52.2197Z" />
<path d="M9.52457 32.3739L7.69666 28.1958L6.12988 55.3533L9.26344 53.5254L9.52457 32.3739Z" />
<path d="M25.192 66.0594C21.0139 58.7477 11.091 54.5696 9.78532 54.0474L6.39062 55.8753L24.9309 71.282C25.4531 72.0653 26.2365 72.0653 27.0199 71.5431L27.8033 71.0208L25.192 66.0594Z" />
<path d="M39.5546 62.4035L33.8097 52.7417C33.8097 52.4806 33.8097 52.2194 33.8097 51.9583L37.4655 48.8247L35.6376 47.7802L30.415 52.4806L27.8037 54.3085C24.9313 56.1364 21.0143 55.0919 19.4476 51.9583L10.308 33.6792L10.0469 53.5251C11.6137 54.3085 21.5366 58.2254 25.7147 65.7982L28.5871 70.7597L37.9878 65.2759L44.5161 63.1869V61.0979L40.0768 62.6646C40.0768 62.9258 39.8157 62.6646 39.5546 62.4035Z" />
<path d="M89.4305 16.967L93.8697 17.2282L71.1514 2.34375V5.99957L89.4305 16.967Z" />
<path d="M52.3499 13.5723C60.7061 13.5723 69.3234 7.04409 70.3679 6.2607L70.6291 2.34375L48.1719 10.6999C47.3885 10.961 46.8662 11.7444 46.8662 12.5278V13.5723H52.3499Z" />
<path d="M48.1716 27.9347H59.4002C59.6614 27.9347 59.9225 28.1959 59.9225 28.457L60.7059 33.1573L62.5338 32.1128L61.2281 25.0623V21.9288C61.2281 18.5341 64.1006 15.6616 67.4953 15.6616L87.8634 16.9673L70.6288 6.7832C69.3232 7.82772 60.7059 14.356 52.3497 14.356H46.6049V25.0623L45.0381 31.8517L46.866 32.8962L47.6494 28.1959C47.9105 27.9347 47.9105 27.9347 48.1716 27.9347Z" />
<path d="M62.7949 93.7392L60.1836 97.6561L84.4687 85.383L81.3351 83.2939L62.7949 93.7392Z" />
<path d="M84.4685 63.4483C80.2904 70.7599 81.596 81.2051 81.8572 82.7719L85.2519 84.861L89.1688 61.0981C89.43 60.3147 88.9077 59.5313 88.1243 59.0091L87.3409 58.4868L84.4685 63.4483Z" />
<path d="M74.0237 52.7417L68.2789 62.4036C68.2789 62.6647 67.7566 62.6647 67.7566 62.6647L63.3174 61.0979V63.187L69.8456 65.276L72.7181 66.8428C75.5905 68.6707 76.635 72.3265 75.0682 75.1989L63.8396 92.1724L81.0742 82.5106C80.8131 80.6827 79.5075 70.2375 83.6855 62.9258L86.558 57.9643L77.1573 52.4806L71.9347 47.7803L70.1068 48.8248L73.7626 51.9584C74.0237 52.2195 74.0237 52.4806 74.0237 52.7417Z" />
<path d="M56.0058 54.5698H51.8277C51.8277 54.5698 51.5666 54.5698 51.5666 54.831L49.4775 61.8815C50.7832 62.4037 52.35 62.6649 53.9168 62.6649C55.4835 62.6649 57.0503 62.4037 58.356 61.8815L56.0058 54.5698Z" />
<path d="M46.8663 45.9525L48.9554 42.2967V42.0356L43.9939 36.813C41.9049 38.902 40.3381 41.5133 39.5547 44.3858L46.6052 45.9525C46.6052 46.2137 46.8663 46.2137 46.8663 45.9525Z" />
<path d="M63.8394 36.813L58.8779 42.0356V42.2967L60.967 45.9525C60.967 45.9525 61.2281 46.2137 61.2281 45.9525L68.2786 44.3858C67.7564 41.5133 66.1896 38.902 63.8394 36.813Z" />
<path d="M59.1389 33.9403L58.6167 29.7622H49.4771L48.6937 33.9403C47.1269 34.4625 45.8213 35.5071 44.5156 36.2905L46.0824 38.1184C48.1714 36.2905 51.0439 35.2459 53.9163 35.2459C56.7887 35.2459 59.6612 36.2905 61.7502 38.1184L63.317 36.5516C62.0113 35.2459 60.7057 34.4625 59.1389 33.9403ZM49.7382 33.418L50.2605 30.5456H57.8333L58.3555 33.418H49.7382Z" />
<path d="M41.3822 47.7804C41.3822 46.997 41.3822 46.4747 41.6433 45.9524L39.2931 45.4302C39.032 46.2136 39.032 46.997 39.032 47.7804C39.032 48.5637 39.032 49.3471 39.2931 50.1305L35.8984 52.7418L40.3376 60.5757L44.2546 59.0089C45.5602 60.0535 46.8659 60.8369 48.4327 61.3591L49.2161 59.2701C44.7769 57.4422 41.3822 53.003 41.3822 47.7804ZM40.8599 59.5312L36.943 53.003L39.032 51.175L43.2101 58.4867L40.8599 59.5312Z" />
<path d="M68.5395 50.1304C68.5395 49.347 68.8007 48.5636 68.8007 47.7802C68.8007 46.9969 68.8007 46.2135 68.5395 45.1689L66.1894 45.6912C66.1894 46.2135 66.4505 46.9969 66.4505 47.7802C66.4505 53.0028 63.0558 57.7032 58.3555 59.5311L59.1389 61.6201C60.7056 61.0979 62.0113 60.3145 63.3169 59.27L67.2339 60.8368L71.6731 53.0028L68.5395 50.1304ZM66.9728 59.5311L64.3615 58.4866L68.5395 51.1749L70.6286 53.0028L66.9728 59.5311Z" />
<path d="M65.6677 45.9522L61.4896 46.9968C61.4896 46.9968 61.4896 46.9968 61.2285 46.9968C60.9674 46.9968 60.4451 46.7356 60.4451 46.4745L58.3561 42.8187C58.095 42.5576 58.095 42.0353 58.3561 41.7742L61.2285 38.6406C59.1395 37.0738 56.7893 36.0293 53.9169 36.0293C51.0444 36.0293 48.6943 37.0738 46.6052 38.6406L49.4777 41.7742C49.7388 42.0353 49.7388 42.5576 49.4777 42.8187L47.3886 46.4745C47.1275 46.7356 46.8664 46.9968 46.6052 46.9968C46.6052 46.9968 46.6052 46.9968 46.3441 46.9968L42.4271 45.9522C42.4271 46.4745 42.166 47.2579 42.166 47.7802C42.166 52.7416 45.2996 56.9197 49.7388 58.7476L51.0444 54.5695C51.3056 54.0473 51.5667 53.7861 52.089 53.7861H56.267C56.7893 53.7861 57.0504 54.0473 57.3116 54.5695L58.6172 58.7476C63.0564 56.9197 66.19 52.7416 66.19 47.7802C65.6677 46.9968 65.6677 46.4745 65.6677 45.9522ZM57.0504 49.6081C56.267 50.6526 55.2225 51.436 53.9169 51.436C53.3946 51.436 52.6112 51.1748 52.089 50.9137C50.261 49.8692 49.7388 47.519 50.7833 45.9522C51.5667 44.9077 52.6112 44.1243 53.9169 44.1243C54.4391 44.1243 55.2225 44.3855 55.7448 44.6466C56.5282 45.1689 57.3116 45.9522 57.5727 46.9968C57.8338 47.7802 57.5727 48.5635 57.0504 49.6081Z" />
<path d="M53.9168 50.9141C55.6474 50.9141 57.0503 49.5111 57.0503 47.7805C57.0503 46.0499 55.6474 44.647 53.9168 44.647C52.1861 44.647 50.7832 46.0499 50.7832 47.7805C50.7832 49.5111 52.1861 50.9141 53.9168 50.9141Z" />
</svg>
