<svg width="100" height="27" viewBox="0 0 100 27"  xmlns="http://www.w3.org/2000/svg">
<path d="M45.6003 26.5314L45.1847 26.2823L45.1851 22.9868L45.1856 19.6913L45.4835 19.3735L45.7815 19.0556H47.2436H48.7058V18.8111C48.7058 18.5346 48.8704 18.4974 49.1517 18.7102C49.3993 18.8974 50.2619 18.8974 50.5095 18.7102C50.6139 18.6312 50.7349 18.5665 50.7784 18.5665C50.822 18.5665 50.8576 20.4151 50.8576 22.6745V26.7824L48.4368 26.7816C46.0175 26.7808 46.0158 26.7807 45.6003 26.5314ZM47.245 25.3118C47.4234 25.2163 47.4342 25.0856 47.4342 23.0189C47.4342 20.4241 47.4795 20.5227 46.2877 20.5227H45.5759L45.5773 22.7967C45.5781 24.0474 45.6111 25.1192 45.6507 25.1783C45.6903 25.2375 45.7886 25.3111 45.8693 25.3418C46.1219 25.438 47.047 25.4178 47.245 25.3118ZM60.5505 26.4366L60.247 26.0909V24.1416V22.1922L59.9593 21.7385C59.6717 21.285 59.6715 21.2841 59.6792 19.7709L59.6866 18.2569L59.1353 17.6998L58.584 17.1427V14.9374C58.584 12.3839 58.5522 12.4699 59.6266 12.1071C59.9954 11.9825 60.3382 11.7817 60.5437 11.5696C61.1409 10.9535 61.3882 11.1367 61.433 12.2285C61.4603 12.8914 61.4388 13.0086 61.2512 13.2079C60.4654 14.0443 60.6215 15.4893 61.5687 16.1469C62.2453 16.6168 63.0403 16.6245 63.7134 16.1677C63.9094 16.0346 64.0892 15.9258 64.1129 15.9258C64.1367 15.9258 64.3767 16.2591 64.6465 16.6665L65.137 17.4073V18.8268V20.2463L64.1076 21.3381L63.0781 22.4299L63.0885 24.2226C63.0988 25.9966 63.0958 26.0192 62.845 26.3988L62.5912 26.7824H61.7224H60.8537L60.5505 26.4366ZM62.2792 25.8477C62.479 25.7077 62.4966 25.617 62.4966 24.7229C62.4966 24.188 62.4635 23.7519 62.4232 23.7538C62.3311 23.7585 61.1272 25.7437 61.1272 25.8912C61.1272 26.058 62.0276 26.0238 62.2792 25.8477ZM61.6266 24.2611C61.9066 23.7919 62.195 23.3384 62.2674 23.2534C62.4539 23.0345 62.3398 22.9679 61.7789 22.9679C61.0164 22.9679 60.9316 23.0972 60.9316 24.2603C60.9316 24.8471 60.9682 25.2064 61.0245 25.1716C61.0756 25.14 61.3465 24.7303 61.6266 24.2611ZM62.1493 22.1275C62.2918 21.985 62.2556 21.9162 61.7249 21.3206C60.9085 20.4043 60.4573 19.9864 60.374 20.0696C60.3024 20.1413 60.6879 21.7902 60.8515 22.1121C60.9692 22.3436 61.9219 22.3549 62.1493 22.1275ZM64.3549 19.9134C64.3549 19.872 63.6067 19.8381 62.6922 19.8381C61.5282 19.8381 61.0294 19.871 61.0294 19.9479C61.0294 20.0083 61.3905 20.4275 61.8318 20.8796L62.6341 21.7017L63.4945 20.8453C63.9677 20.3743 64.3549 19.9549 64.3549 19.9134ZM61.1078 18.8622C61.1407 18.1737 61.082 18.059 60.7605 18.1824C60.5663 18.2569 60.5404 18.3355 60.5404 18.8497C60.5404 19.3227 60.5726 19.4408 60.7116 19.4766C61.029 19.5584 61.0782 19.482 61.1078 18.8622ZM62.7697 18.7746C62.7424 18.1561 62.7298 18.1264 62.4966 18.1264C62.2631 18.1264 62.2507 18.1558 62.2233 18.7786C62.1985 19.3399 62.2189 19.4363 62.37 19.4697C62.7401 19.5516 62.7995 19.4483 62.7697 18.7746ZM64.4077 19.4086C64.4091 19.4025 64.3944 19.1228 64.3746 18.7866C64.3401 18.216 64.3219 18.1753 64.1018 18.1753C63.8749 18.1753 63.8659 18.2015 63.8659 18.8618V19.5484L64.1349 19.4838C64.2828 19.4484 64.4055 19.4145 64.4077 19.4086ZM62.1841 17.3502L62.2139 16.9015L61.7439 16.7001C61.4854 16.5893 61.2 16.4318 61.1098 16.3501C60.9099 16.1692 60.8348 16.2089 60.1003 16.8839L59.5367 17.4019L59.7392 17.6174C59.9269 17.8173 60.0223 17.8318 61.0479 17.8159L62.1542 17.7988L62.1841 17.3502ZM63.8739 17.7841C64.6402 17.7841 64.6512 17.7671 64.3218 17.0995C64.0871 16.6238 64.0641 16.6169 63.2057 16.7617L62.79 16.8318V17.2916C62.79 17.791 62.8526 17.9163 63.0618 17.836C63.1362 17.8075 63.5017 17.7841 63.8739 17.7841ZM59.9213 16.2838C60.5562 15.712 60.5989 15.6493 60.4703 15.4769C60.3676 15.3391 60.3379 15.0461 60.3575 14.3608C60.3782 13.6373 60.3472 13.3627 60.2185 13.12C60.1274 12.9486 60.0102 12.782 59.9582 12.7499C59.9063 12.7178 59.6859 12.8521 59.4685 13.0485L59.0733 13.4055V15.1547C59.0733 16.1167 59.1092 16.9038 59.1532 16.9038C59.197 16.9038 59.5427 16.6248 59.9213 16.2838ZM37.6478 19.2757C37.6448 19.1815 37.5886 18.5694 37.5234 17.9153L37.4048 16.7261L37.7505 16.6708C39.0213 16.4676 39.7593 15.0819 39.2244 13.9036C39.0211 13.4559 39.0694 13.3828 39.5688 13.3828C39.8046 13.3828 39.8053 13.3796 39.8053 12.3069V11.231H40.2943H40.7833V12.6272V14.0233L41.2271 15.0968C41.4712 15.6872 41.7618 16.3903 41.8729 16.6593C41.9841 16.9283 42.1826 17.3847 42.3141 17.6735C42.4456 17.9623 42.5401 18.2105 42.5241 18.225C42.3348 18.3964 38.3096 19.4468 37.8421 19.4468C37.7299 19.4468 37.6512 19.3775 37.6478 19.2757ZM33.2871 18.1038C32.4744 17.0104 32.3071 16.7018 31.9904 15.7113C31.5969 14.4808 31.5604 13.16 31.9006 12.4599C32.018 12.2184 32.161 12.0041 32.2185 11.9838C32.2759 11.9634 33.0184 11.9876 33.8683 12.037C34.9569 12.1007 35.4512 12.0961 35.541 12.0215C35.6302 11.9474 35.689 11.4492 35.7368 10.363C35.7986 8.95641 35.788 8.77988 35.6237 8.48585C35.4054 8.09509 35.2392 8.04425 33.8765 7.95138L32.8286 7.87994L32.2335 7.32964C31.9062 7.02699 31.4506 6.69561 31.221 6.59327C30.8069 6.40862 30.8052 6.4058 30.9999 6.22436C31.3303 5.91659 31.516 5.46379 31.4489 5.12954C31.3132 4.45295 31.2801 4.49232 32.3503 4.05846L33.3556 3.65091L33.7585 2.96626C33.9801 2.5897 34.2319 2.19983 34.3181 2.09988C34.572 1.80546 35.3678 1.45025 35.7737 1.45025C36.2605 1.45025 36.402 1.60478 37.5925 3.43638C38.4944 4.82394 38.5338 4.90723 38.5338 5.42563C38.5338 5.90309 38.4591 6.10792 37.8981 7.16835L37.2623 8.37003L37.2638 9.82496C37.2646 10.6252 37.2976 11.3262 37.3372 11.3829C37.3767 11.4395 37.5741 11.5861 37.7758 11.7087C38.1624 11.9436 38.2456 12.225 38.0413 12.6067C37.9635 12.7521 37.8348 12.7959 37.4854 12.7959C35.9227 12.7959 34.9588 14.667 35.903 15.8674C36.08 16.0924 36.09 16.1525 35.9761 16.3075C35.7253 16.6488 33.9203 18.7133 33.8499 18.7395C33.8111 18.754 33.5578 18.4679 33.2871 18.1038ZM33.9237 15.2716C34.5966 14.8341 34.626 14.7993 34.5647 14.5136C34.4676 14.0603 34.3415 13.8721 34.0647 13.7669C33.8515 13.6858 33.7262 13.7274 33.2394 14.0405C32.9237 14.2436 32.6427 14.4796 32.6149 14.565C32.5681 14.709 32.8607 15.5017 33.0192 15.6602C33.1331 15.774 33.1864 15.7511 33.9237 15.2716ZM32.8465 13.8598C33.2425 13.5686 33.2605 13.5333 33.2326 13.1043C33.2039 12.6647 33.1954 12.6539 32.8609 12.6364C32.3458 12.6094 32.1763 12.8181 32.1763 13.4794C32.1763 14.2769 32.2344 14.3099 32.8465 13.8598ZM35.3264 13.7052C35.5304 13.506 35.6973 13.313 35.6973 13.2762C35.6973 13.2394 35.5621 13.1895 35.3969 13.1653C35.0268 13.111 34.6215 13.3988 34.6215 13.7159C34.6215 14.1826 34.841 14.1792 35.3264 13.7052ZM36.871 7.87725C36.871 7.80789 37.0251 7.45568 37.2134 7.09458C37.5989 6.35509 37.6249 6.18799 37.3938 5.93266C37.2649 5.79031 37.0853 5.7538 36.5135 5.7538H35.7951V6.38377C35.7951 6.73026 35.8391 7.04095 35.8929 7.07419C35.9466 7.10744 35.9906 7.30076 35.9906 7.5038C35.9906 7.70684 36.02 7.9023 36.0559 7.93816C36.1788 8.06122 36.871 8.00951 36.871 7.87725ZM33.4478 7.19065C33.4478 6.98275 33.5455 6.78707 33.7597 6.5661L34.0715 6.24432L33.908 5.90125C33.8046 5.68467 33.675 5.55818 33.5563 5.55818C33.3109 5.55818 32.5675 6.44728 32.5675 6.74079C32.5675 7.01567 33.125 7.61727 33.3129 7.54517C33.3873 7.51659 33.4478 7.35775 33.4478 7.19065ZM32.846 5.84028C33.0963 5.56508 33.3541 5.22397 33.4189 5.08227C33.5516 4.79198 33.5858 4.18888 33.4694 4.18888C33.4275 4.18888 33.0864 4.31828 32.7114 4.47644C32.0681 4.74774 32.0259 4.78511 31.9643 5.13664C31.9285 5.34159 31.8505 5.63567 31.7911 5.79015C31.6586 6.13423 31.7925 6.34064 32.1488 6.34064C32.3155 6.34064 32.5326 6.18485 32.846 5.84028ZM35.5402 5.7947C35.6659 5.46677 35.6017 4.23556 35.4473 4.01503C35.2572 3.74367 34.619 3.72769 34.1813 3.98333C33.9315 4.12927 33.8835 4.22236 33.8582 4.61031C33.8387 4.90868 33.8958 5.21836 34.0238 5.50767L34.2192 5.94942H34.85C35.335 5.94942 35.4945 5.91364 35.5402 5.7947ZM37.4672 5.19477C37.6235 5.10248 37.7513 4.99827 37.7513 4.9632C37.7513 4.92812 37.5696 4.58551 37.3474 4.20183C36.9925 3.58872 36.909 3.50423 36.6583 3.50423C36.2825 3.50423 35.893 3.89401 35.893 4.27002C35.893 4.7992 36.009 5.14513 36.221 5.24772C36.5471 5.40559 37.154 5.37982 37.4672 5.19477ZM34.9047 3.48789C35.1203 3.47943 35.3621 3.52673 35.4419 3.59298C35.7855 3.87818 36.2173 3.30079 36.1685 2.6213C36.1434 2.27121 36.0878 2.16232 35.8736 2.04259C35.6242 1.90323 35.5868 1.91118 35.1947 2.18682C34.9664 2.34725 34.6342 2.72031 34.4564 3.01583C34.0835 3.63578 34.0584 3.74636 34.3225 3.605C34.427 3.54905 34.6891 3.49635 34.9047 3.48789ZM48.4614 17.6237C47.3468 16.783 47.0108 16.7228 46.3328 17.2423C46.0022 17.4956 45.7043 17.6273 45.3058 17.6965C44.2327 17.8827 43.6669 17.9825 43.3648 18.0389C43.0691 18.0941 43.0542 18.079 42.8084 17.4753C42.6694 17.1341 42.2673 16.1727 41.9148 15.3389C41.5622 14.5051 41.2734 13.7973 41.273 13.7659C41.2724 13.7174 43.2794 13.2209 43.8643 13.1249C44.8865 12.9572 45.57 12.7377 45.8295 12.494C46.0066 12.3276 46.1278 12.2968 46.4252 12.3426C47.6238 12.5271 47.5439 12.54 48.0455 12.0805C48.301 11.8465 48.5101 11.58 48.5101 11.4884C48.5101 11.3137 48.7771 10.8433 48.948 10.7169C49.1256 10.5855 50.0157 10.669 50.3823 10.8514C50.5783 10.9489 50.9414 11.2605 51.1893 11.5438L51.6399 12.059V14.6645V17.2701L51.2487 17.3326C50.8831 17.3911 50.8575 17.4165 50.8575 17.7209C50.8575 18.0142 50.82 18.0578 50.4794 18.1599C49.6714 18.402 49.3962 18.3288 48.4614 17.6237ZM44.5252 16.996C45.022 16.8854 45.5167 16.7162 45.6244 16.6202C45.7322 16.5241 46.0926 16.3463 46.4252 16.225C46.9574 16.031 47.0901 16.0175 47.5303 16.1119C47.8055 16.1709 48.0725 16.2192 48.1237 16.2192C48.1783 16.2192 48.2167 15.6187 48.2167 14.7641C48.2167 13.1638 48.1639 12.9991 47.7274 13.2407C47.5811 13.3217 47.1892 13.3762 46.7496 13.3767C45.8148 13.3775 42.2505 14.2128 42.2505 14.4308C42.2505 14.5063 42.453 15.0608 42.7005 15.6627C42.9481 16.2646 43.1891 16.8562 43.236 16.9772C43.3406 17.2466 43.3968 17.2474 44.5252 16.996ZM43.6442 15.861C43.4389 15.7782 43.4973 15.2612 43.7257 15.1389C43.8882 15.052 43.9674 15.0642 44.1169 15.1996C44.535 15.5779 44.1785 16.0766 43.6442 15.861ZM46.0845 15.1237C45.7595 14.7987 46.1419 14.2382 46.5424 14.4525C46.815 14.5983 46.8757 14.8521 46.6879 15.0596C46.4994 15.2679 46.2546 15.2938 46.0845 15.1237ZM49.2616 14.6543C49.2542 13.6322 49.2419 12.7959 49.2355 12.7959C49.0253 12.7959 48.6132 13.0572 48.5702 13.2178C48.4964 13.4932 48.4952 15.8115 48.5688 16.0858C48.6221 16.2842 48.9149 16.4917 49.1621 16.506C49.2458 16.5107 49.2723 16.0165 49.2616 14.6543ZM51.0595 15.9223C51.2279 15.8322 51.2487 15.7095 51.2487 14.8051V13.7892L50.9 13.6741C50.5368 13.5542 49.9242 13.6162 49.7082 13.7947C49.6264 13.8624 49.586 14.1972 49.586 14.8074C49.586 15.6386 49.6052 15.7325 49.8034 15.8713C50.0504 16.0444 50.7764 16.0738 51.0595 15.9223ZM2.75803 17.5879C2.19323 17.4692 1.46099 17.0581 1.04238 16.6247C0.662229 16.2312 0.193277 15.4081 0.193277 15.1345C0.193277 15.0381 0.149281 14.932 0.0955413 14.8988C-0.0268492 14.8232 -0.0336405 13.7332 0.0866842 13.5037C0.135699 13.4103 0.246855 13.1314 0.333665 12.884C0.65346 11.9726 1.61009 11.1444 2.65105 10.8778C3.63879 10.6247 4.73544 10.8305 5.57154 11.4259L5.85535 11.628L7.49893 10.636C8.40292 10.0903 9.50008 9.42885 9.93709 9.16597C10.514 8.81896 10.8355 8.68684 11.1108 8.68373C11.6716 8.6774 11.9762 8.54459 14.6461 7.14271C16.5363 6.15017 17.8738 5.54112 20.5958 4.43346C23.7585 3.14642 24.6239 2.78857 25.5742 2.37484C25.8338 2.2618 26.1993 2.12612 27.7259 1.57609C27.9411 1.49857 28.2634 1.32388 28.442 1.18789C28.7401 0.961017 29.0951 0.853076 30.4645 0.572946C30.7335 0.517924 31.4817 0.358534 32.1273 0.218742C33.06 0.0167592 33.4415 -0.0224683 33.9856 0.0276789C34.9156 0.113399 34.9544 0.130183 35.2476 0.573132L35.5044 0.96124H35.2554C35.1186 0.96124 34.7173 1.15521 34.3639 1.39227C33.752 1.80276 33.5922 2.00015 32.971 3.113C32.926 3.19369 32.5417 3.38304 32.117 3.53378C31.6923 3.68452 31.2343 3.86787 31.0991 3.94123C30.9077 4.04518 30.7539 4.05181 30.402 3.97128C30.0188 3.88361 29.8933 3.89596 29.573 4.05287C29.1307 4.26957 28.7529 4.78763 28.7529 5.17738V5.4523L28.2827 5.21613C28.0241 5.08624 27.5174 4.66993 27.1568 4.291C26.7962 3.91207 26.4277 3.60203 26.338 3.60203C26.1051 3.60203 25.5253 3.82293 25.5253 3.91166C25.5253 4.06615 25.8715 4.17296 26.0494 4.07337C26.4098 3.8717 27.0518 4.86709 26.9758 5.50967C26.9365 5.84138 27.0183 5.79805 25.0362 6.53864C24.1486 6.87029 23.0923 7.26664 22.6889 7.41939C21.639 7.8169 19.6378 8.56359 18.7508 8.88876C18.3332 9.04186 17.9586 9.18746 17.9184 9.21232C17.8149 9.27628 17.5693 9.07645 17.3642 8.76137C17.2244 8.54668 17.1149 8.4924 16.8214 8.4924C16.2606 8.4924 15.8764 8.39193 15.6576 8.18811C15.5485 8.0865 15.4117 8.00336 15.3536 8.00336C15.2954 8.00336 14.2921 8.48884 13.1239 9.08219L10.9999 10.161L10.442 10.9161C9.95027 11.5817 9.76475 11.7431 8.87757 12.2771C7.26846 13.2455 7.22901 13.1558 9.29403 13.2237C11.3016 13.2897 15.9383 13.4251 21.5641 13.582C29.4765 13.8028 30.8309 13.8567 30.9289 13.9547C30.9837 14.0095 31.0004 14.1273 30.9661 14.2166C30.9106 14.3612 30.7563 14.3724 29.5594 14.3187C28.8199 14.2856 26.5424 14.216 24.4982 14.1642C22.4541 14.1124 19.9893 14.0456 19.021 14.0157C15.6041 13.9103 7.47632 13.6768 7.21079 13.6765C6.94902 13.6762 6.94171 13.6913 6.93753 14.2386C6.93462 14.5479 6.8742 14.9665 6.802 15.1689C6.72553 15.3834 6.70825 15.5599 6.76067 15.5924C6.81012 15.623 7.3883 15.6235 8.04549 15.5931C8.70265 15.5632 10.2746 15.515 11.5388 15.486C12.803 15.4571 14.4535 15.4117 15.2066 15.3852C15.9597 15.3588 18.4464 15.2912 20.7327 15.2351C23.0189 15.179 26.2319 15.0969 27.8726 15.0527C29.5133 15.0085 30.8888 14.9913 30.9291 15.0145C30.9694 15.0377 31.0025 15.1401 31.0025 15.2421C31.0025 15.5027 30.8275 15.5185 27.2369 15.5808C25.5155 15.6107 23.6449 15.6573 23.0801 15.6844C22.5152 15.7115 20.2265 15.7765 17.9941 15.8289C15.7616 15.8813 12.2406 15.9745 10.1695 16.036L6.40391 16.1478L6.08134 16.4767C5.90393 16.6576 5.79389 16.8062 5.83683 16.8069C5.87978 16.8074 11.7152 16.8186 18.8046 16.8314C30.1386 16.8517 31.7054 16.8722 31.787 17.0013C32.0424 17.4054 32.4828 17.3925 18.3917 17.3925C9.9029 17.3925 4.80802 17.4278 4.65085 17.4875C4.27247 17.6314 3.22884 17.6869 2.75803 17.5879ZM4.85143 16.6145C5.71257 16.1205 6.25734 15.2245 6.25734 14.302V13.8765L5.30833 14.461C4.45772 14.9849 4.30486 15.0455 3.83371 15.0455C3.38315 15.0455 3.26721 15.0047 3.02215 14.7596C2.6903 14.4277 2.63766 13.9176 2.89474 13.5252C2.982 13.3921 3.53463 12.9932 4.12291 12.6387C5.09582 12.0525 5.17655 11.9822 5.01579 11.8603C4.64233 11.5773 3.89687 11.4009 3.2823 11.4502C1.88621 11.5623 0.960115 12.4948 0.724088 14.0262C0.646137 14.5322 0.838359 14.7521 1.35873 14.7521C1.83589 14.7521 2.1528 15.0565 1.97386 15.3431C1.80223 15.6179 1.82078 15.6809 2.19288 16.0871C2.51412 16.4377 2.53842 16.4471 2.71408 16.2881C3.05472 15.9798 3.9099 16.1288 3.9099 16.4965C3.9099 16.6884 4.08918 16.9043 4.24733 16.9029C4.30387 16.9024 4.57569 16.7726 4.85143 16.6145ZM4.25496 14.3579C4.65796 13.9126 3.967 13.2216 3.52169 13.6246C3.14034 13.9697 3.35652 14.5456 3.87035 14.5533C3.983 14.5549 4.15612 14.4671 4.25496 14.3579ZM17.0182 8.10117C17.0643 8.10117 17.1158 7.94276 17.1325 7.74913C17.1586 7.44591 17.2103 7.3803 17.5052 7.27603C18.0817 7.07214 22.0868 5.56084 24.2882 4.71651C24.7643 4.5339 25.2154 4.3845 25.2907 4.3845C25.366 4.3845 25.4275 4.32107 25.4275 4.24356C25.4275 3.89625 25.2455 3.9389 22.8845 4.83938C22.2659 5.07532 21.3416 5.42503 20.8306 5.6165C18.1655 6.61504 17.5679 6.85796 16.6982 7.29627C16.2275 7.5335 15.8424 7.76765 15.8424 7.81659C15.8424 7.86553 15.8528 7.90623 15.8669 7.90705C15.8802 7.90792 16.0674 7.97205 16.2826 8.04969C16.4978 8.12733 16.7325 8.17068 16.8041 8.14602C16.8757 8.12139 16.9721 8.10117 17.0182 8.10117ZM95.5065 17.5368C95.1725 17.4164 92.9728 17.3956 80.4687 17.3944L65.822 17.3928V17.1605C65.822 16.9778 65.8883 16.9149 66.1325 16.8661C66.3033 16.8319 72.6743 16.8049 80.2901 16.806C87.906 16.8068 94.1652 16.8075 94.1993 16.8068C94.2335 16.8062 94.1234 16.6565 93.9548 16.474L93.6482 16.1422L90.3227 16.0363C88.4937 15.9781 86.007 15.9058 84.7966 15.8758C82.802 15.8262 79.041 15.7167 74.8692 15.5865C74.0085 15.5597 72.2555 15.5084 70.9736 15.4726L68.643 15.4074L68.8861 15.1643L69.1291 14.9213L74.9823 15.0819C78.2015 15.1702 81.4516 15.2636 82.2047 15.2895C82.9578 15.3153 84.4103 15.3593 85.4324 15.3873C86.4545 15.4152 88.1049 15.4606 89.1002 15.488C90.0953 15.5154 91.4258 15.5623 92.0567 15.5921C92.6876 15.6219 93.2448 15.6209 93.2948 15.5897C93.3491 15.5562 93.3306 15.3262 93.2492 15.0202C93.1741 14.738 93.112 14.357 93.1114 14.1736L93.1106 13.8402L90.7877 13.9051C89.5101 13.9408 85.934 14.0354 82.8409 14.1153C79.7477 14.1951 75.5224 14.3043 73.4514 14.3581C71.3803 14.4118 69.6088 14.4563 69.5146 14.4569C69.3969 14.4577 69.3435 14.3817 69.3435 14.2136C69.3435 13.9964 69.3844 13.969 69.7102 13.9684C69.912 13.9681 71.4634 13.9252 73.158 13.8732C74.8525 13.8212 78.0874 13.7342 80.3468 13.6799C82.6061 13.6255 85.0269 13.559 85.7262 13.5321C86.4255 13.5052 88.3291 13.4548 89.9564 13.4203C91.5836 13.3857 92.915 13.3252 92.915 13.2858C92.915 13.2464 92.3423 12.873 91.6423 12.4561C90.4719 11.7589 90.3207 11.6347 89.7596 10.91L89.1494 10.1219L87.0085 9.05402L84.8676 7.98618L84.5633 8.21212C84.3347 8.38187 84.0949 8.44749 83.5989 8.476C83.1717 8.50057 82.9387 8.55538 82.9387 8.63132C82.9387 8.69588 82.8064 8.87548 82.6446 9.03043C82.4168 9.24869 82.3242 9.28587 82.2338 9.19544C82.1696 9.13125 82.0594 9.07872 81.9889 9.07872C81.9184 9.07872 81.6741 8.99352 81.446 8.88938C81.218 8.7853 80.6573 8.56952 80.2001 8.40993C79.7428 8.25034 78.8846 7.93538 78.2928 7.71001C77.1915 7.29056 75.3675 6.60293 74.2338 6.17984C73.3757 5.85957 73.3098 5.81699 73.2715 5.55779C73.1733 4.89252 73.8161 3.86705 74.202 4.07353C74.3831 4.17048 74.7229 4.06633 74.7229 3.91393C74.7229 3.83802 74.0269 3.60156 73.8035 3.60156C73.7266 3.60156 73.4085 3.89201 73.0968 4.24702C72.6282 4.78077 71.7302 5.45525 71.4833 5.45898C71.4498 5.45953 71.394 5.28237 71.3593 5.0654C71.3188 4.81282 71.1762 4.54015 70.9626 4.3074C70.6369 3.95227 70.6126 3.94381 69.9129 3.9404C69.5189 3.93845 69.1306 3.90844 69.0499 3.87364C68.9692 3.83884 68.6171 3.71195 68.2675 3.59165C67.4688 3.31687 67.462 3.31134 66.9464 2.5143C66.6226 2.0137 66.357 1.74459 65.8536 1.40689C65.4878 1.16152 65.0887 0.960774 64.9666 0.960774H64.7446L64.9656 0.619395C65.3199 0.0720134 66.4759 -0.155945 67.5339 0.112928C67.8567 0.194959 68.5829 0.355142 69.1477 0.46891C70.929 0.827688 71.4366 0.969751 71.7885 1.20799C71.9768 1.33543 72.505 1.57828 72.9622 1.74765C73.4195 1.91702 73.9323 2.11735 74.1018 2.19284C74.2713 2.26833 74.4407 2.33008 74.4782 2.33008C74.5157 2.33008 74.6852 2.39447 74.8547 2.47318C75.237 2.65071 76.7707 3.28073 78.1949 3.84532C78.7866 4.0799 79.7549 4.47695 80.3467 4.72768C80.9384 4.9784 81.7086 5.29282 82.0583 5.4264C82.408 5.55998 83.1782 5.9138 83.7699 6.21268C85.3218 6.99651 87.4179 8.08713 87.9127 8.36816C88.1806 8.52036 88.5618 8.63019 88.9397 8.66411C89.4392 8.70894 89.6808 8.80322 90.3719 9.22308C91.169 9.7073 94.0626 11.4217 94.2072 11.4955C94.2456 11.515 94.4499 11.4218 94.6612 11.2884C95.3195 10.8729 95.9702 10.711 96.7748 10.7626C98.0453 10.8442 98.8845 11.4137 99.6263 12.6977C99.9724 13.2968 99.9939 13.3829 99.9997 14.1928C100.004 14.715 99.9639 15.0795 99.8987 15.1219C99.8399 15.1604 99.7634 15.3068 99.729 15.4475C99.54 16.2208 98.452 17.2744 97.5675 17.5407C96.9626 17.7227 96.0184 17.7215 95.5065 17.5368ZM96.0249 16.7865C96.0894 16.7219 96.1423 16.5914 96.1423 16.4965C96.1423 16.4015 96.2274 16.2783 96.3315 16.2226C96.6062 16.0756 97.1753 16.0986 97.3111 16.2623C97.4681 16.4514 97.645 16.3681 97.9579 15.9579C98.1498 15.7062 98.19 15.587 98.1097 15.5067C97.8116 15.2086 98.157 14.7521 98.6809 14.7521C99.13 14.7521 99.2721 14.6106 99.2721 14.1634C99.2721 12.3042 97.3257 10.9107 95.6321 11.5575C94.8396 11.8602 94.8607 11.9092 96.0973 12.6369C97.4932 13.4582 97.7388 13.8333 97.3602 14.5655C97.1823 14.9095 96.8786 15.0455 96.2883 15.0455C95.9411 15.0455 95.6917 14.9428 94.9686 14.5023C93.6893 13.723 93.7518 13.7262 93.8268 14.4434C93.9303 15.4338 94.496 16.3066 95.2885 16.6989C95.7667 16.9356 95.8642 16.9472 96.0249 16.7865ZM96.8071 14.4337C96.8632 14.3661 96.9381 14.195 96.9736 14.0535C97.0849 13.6101 96.436 13.2987 96.1004 13.6343C95.8927 13.8419 95.903 14.3257 96.1178 14.4508C96.3547 14.5888 96.6852 14.5805 96.8071 14.4337ZM83.9565 8.06225C84.1364 7.98704 84.3117 7.88029 84.3458 7.82502C84.4562 7.64645 82.4994 6.79385 78.6979 5.36419C75.3347 4.09935 74.9814 3.98583 74.842 4.12521C74.7027 4.2646 74.7104 4.28686 74.9256 4.36823C76.7792 5.06883 78.6346 5.7538 78.6787 5.7538C78.7094 5.7538 78.9213 5.83776 79.1493 5.94038C79.3774 6.043 80.3121 6.40112 81.2267 6.73621C82.1412 7.07131 82.9444 7.38886 83.0116 7.44188C83.0789 7.49489 83.1339 7.66187 83.1339 7.81293C83.1339 8.01998 83.1881 8.098 83.354 8.12996C83.475 8.15327 83.5864 8.17834 83.6016 8.18565C83.6168 8.19305 83.7765 8.13746 83.9565 8.06225ZM53.1224 17.262L52.806 16.9356L52.8342 13.6352C52.8589 10.7492 52.882 10.3204 53.0184 10.2205C53.1234 10.1436 53.5755 10.116 54.401 10.1361L55.6277 10.166L55.6878 10.4662C55.7209 10.6313 55.7479 12.166 55.7479 13.8765V16.9866L55.4469 17.2875C55.1568 17.5776 55.1152 17.5885 54.2924 17.5885C53.4532 17.5885 53.4335 17.583 53.1224 17.262ZM53.4983 16.5126C53.4983 16.405 53.4348 16.317 53.3573 16.317C53.1845 16.317 53.074 16.478 53.1559 16.6104C53.2622 16.7825 53.4983 16.7151 53.4983 16.5126ZM55.5336 16.5371C55.5154 16.443 55.4359 16.3659 55.3566 16.3659C55.2773 16.3659 55.1978 16.4429 55.1796 16.5371C55.1565 16.6572 55.2093 16.7083 55.3566 16.7083C55.504 16.7083 55.5567 16.6572 55.5336 16.5371ZM54.7029 16.4034C55.2986 16.0987 55.4405 15.3742 55.0056 14.8574C54.8008 14.614 54.6778 14.5565 54.3623 14.5565C53.3875 14.5565 53.0393 15.8283 53.8725 16.3452C54.1814 16.5368 54.4106 16.5529 54.7029 16.4034ZM53.8558 15.9425C53.6184 15.6803 53.6475 15.1869 53.9113 15.0022C54.3805 14.6735 54.9654 14.9365 54.9654 15.476C54.9654 15.6634 54.8907 15.8652 54.7865 15.9595C54.5491 16.1744 54.0575 16.1654 53.8558 15.9425ZM53.4983 14.5076C53.4983 14.3183 53.3063 14.2203 53.1809 14.3457C53.1065 14.4201 53.1121 14.4937 53.2006 14.6002C53.3384 14.7663 53.4983 14.7166 53.4983 14.5076ZM55.5033 14.4573C55.5033 14.2477 55.2191 14.278 55.1779 14.492C55.1528 14.6227 55.1927 14.6626 55.3233 14.6374C55.4224 14.6183 55.5033 14.5373 55.5033 14.4573ZM54.0851 12.6981V11.6223H53.5961H53.107V12.4238C53.107 13.1604 53.1283 13.2476 53.3699 13.4997C53.5144 13.6506 53.7345 13.774 53.8589 13.774C54.0816 13.774 54.0851 13.7574 54.0851 12.6981ZM55.2944 13.5162C55.5319 13.2787 55.5522 13.1937 55.5522 12.4403V11.6223H55.0632H54.5742V12.6981C54.5742 13.764 54.5756 13.774 54.8054 13.774C54.9325 13.774 55.1526 13.658 55.2944 13.5162ZM54.0368 11.1323C54.1591 10.9343 53.9787 10.6442 53.7331 10.6442C53.4768 10.6442 53.343 10.8423 53.4358 11.0843C53.499 11.2491 53.9427 11.2845 54.0368 11.1323ZM55.2099 10.9376C55.2099 10.6529 54.8738 10.5477 54.6862 10.7738C54.5035 10.9939 54.6574 11.2462 54.9534 11.2119C55.1539 11.1886 55.2099 11.1287 55.2099 10.9376ZM35.6973 17.3022C35.6973 17.1454 36.2027 16.806 36.4361 16.806C36.8078 16.806 36.9688 16.9127 36.9688 17.1588C36.9688 17.3817 36.9384 17.3929 36.3331 17.3929C35.9834 17.3929 35.6973 17.3521 35.6973 17.3022ZM51.9334 14.914C51.9334 12.8344 51.9567 12.4047 52.0696 12.4047C52.1445 12.4047 52.2326 12.4743 52.2652 12.5594C52.2978 12.6445 52.3246 13.694 52.3246 14.8916C52.3246 16.9449 52.3128 17.0792 52.129 17.2462C51.9338 17.4228 51.9334 17.417 51.9334 14.914ZM56.2043 17.2299C56.1684 17.194 56.139 16.1674 56.139 14.9485C56.139 12.7583 56.1419 12.7297 56.3654 12.5196C56.556 12.3405 56.7066 12.307 57.319 12.3073L58.0463 12.3076L58.0796 14.4045C58.0981 15.5578 58.084 16.6359 58.0475 16.8004C57.9902 17.0614 57.9401 17.0993 57.653 17.0993C57.4722 17.0993 57.297 17.1433 57.2638 17.1971C57.1968 17.3055 56.3074 17.333 56.2043 17.2299ZM36.83 15.9395C36.179 15.5574 35.9363 14.8283 36.2375 14.1602C36.8267 12.8537 38.8254 13.2614 38.8268 14.6884C38.8279 15.7574 37.7114 16.4569 36.83 15.9395ZM65.5775 15.5955C64.6269 15.1085 64.6003 15.0858 64.6302 14.7862C64.7415 13.6727 63.7422 12.6003 62.5931 12.6003H62.0951L62.1246 12.0904C62.1527 11.6078 62.1704 11.5772 62.4562 11.5192C62.9881 11.4111 62.9856 11.4191 62.9856 9.8462V8.37512L62.3498 7.2063C61.7777 6.15445 61.7141 5.98149 61.7141 5.47805C61.7141 4.94164 61.7498 4.86244 62.5843 3.55244C63.063 2.80103 63.5978 2.01569 63.7728 1.80724C64.0735 1.4491 64.1158 1.43074 64.5408 1.47368C65.3097 1.55136 65.8806 1.97455 66.3565 2.81958C66.8106 3.62579 67.0468 3.79036 68.5942 4.37868C68.8413 4.47263 68.8625 4.51562 68.802 4.80068C68.765 4.97524 68.7344 5.14006 68.7338 5.16696C68.7264 5.57625 68.806 5.80389 69.0553 6.08778L69.3546 6.42857L68.9331 6.64119C68.7013 6.75814 68.269 7.08355 67.9726 7.36435L67.4335 7.87488L66.5544 7.94263C64.7851 8.07897 64.7858 8.07875 64.594 8.50409C64.444 8.83679 64.4309 9.07022 64.4895 10.3693C64.5295 11.2557 64.6023 11.9093 64.6702 11.9911C64.7631 12.1029 65.0545 12.1161 66.2565 12.0631C67.0664 12.0273 67.7969 11.9794 67.8798 11.9567C67.9835 11.9283 68.1133 12.0842 68.2955 12.4557C68.521 12.9155 68.5605 13.1208 68.5605 13.8355C68.5605 14.782 68.691 14.5878 67.3686 15.6079C67.0025 15.8903 66.6698 16.1158 66.6292 16.1089C66.5886 16.102 66.1154 15.871 65.5775 15.5955ZM67.2772 14.8158L67.6077 14.4723L67.148 14.1476C66.313 13.5577 65.9584 13.6025 65.719 14.3278C65.5889 14.7221 65.6505 14.9449 65.8923 14.9548C65.9881 14.9587 66.1986 15.0409 66.3599 15.1374C66.6987 15.3399 66.8109 15.3006 67.2772 14.8158ZM67.876 13.4926C67.876 12.6987 67.7894 12.5912 67.2134 12.6684C66.8021 12.7236 66.8001 12.7259 66.8001 13.1337C66.8001 13.5142 66.8333 13.5656 67.2646 13.8515C67.5202 14.0209 67.7622 14.1608 67.8026 14.1623C67.8429 14.1639 67.876 13.8625 67.876 13.4926ZM65.509 13.9501C65.8046 13.6545 65.4726 13.1841 64.9426 13.1474C64.5075 13.1173 64.4885 13.2388 64.8603 13.6716C65.2129 14.0819 65.3279 14.1312 65.509 13.9501ZM64.2571 7.45251C64.2571 7.27769 64.3011 7.10745 64.3548 7.0742C64.4086 7.04096 64.4526 6.73027 64.4526 6.38378V5.7538H63.7512C63.0201 5.7538 62.6944 5.90106 62.69 6.23355C62.6888 6.31936 62.8539 6.74923 63.0567 7.18884C63.3866 7.90364 63.4566 7.99169 63.719 8.02187C64.0808 8.06348 64.2571 7.87699 64.2571 7.45251ZM67.3578 7.29953C67.8007 6.87025 67.7774 6.59488 67.2497 6.02277C66.7648 5.49701 66.5972 5.45435 66.3712 5.79927C66.1496 6.13735 66.1715 6.26409 66.5067 6.58517C66.711 6.78088 66.8001 6.95976 66.8001 7.17401C66.8001 7.7029 66.9149 7.72877 67.3578 7.29953ZM68.364 6.2633C68.5732 6.09394 68.5751 6.07574 68.4238 5.71342C68.3377 5.50731 68.2673 5.2167 68.2673 5.06761C68.2673 4.78874 68.2643 4.78663 66.8246 4.2164C66.7379 4.18206 66.7023 4.29372 66.7023 4.59995C66.7023 4.96993 66.7664 5.10832 67.1488 5.56403C67.6263 6.13309 67.9486 6.43846 68.0716 6.43846C68.1136 6.43846 68.245 6.35964 68.364 6.2633ZM66.1593 5.63823C66.2806 5.43282 66.3459 5.12623 66.3515 4.73627C66.3604 4.15546 66.3544 4.14263 66.0176 3.97627C65.5798 3.75984 65.056 3.75247 64.8272 3.95953C64.6832 4.08986 64.6483 4.26932 64.6483 4.8807C64.6483 5.9422 64.6528 5.94942 65.3712 5.94942C65.9465 5.94942 65.9842 5.93453 66.1593 5.63823ZM63.9953 5.25484C64.1917 5.16534 64.242 5.05355 64.2921 4.59464C64.3492 4.07092 64.3371 4.02818 64.0587 3.77321C63.5734 3.32884 63.3611 3.4036 62.8989 4.18154C62.6776 4.55405 62.4966 4.90079 62.4966 4.95206C62.4966 5.28186 63.4938 5.48333 63.9953 5.25484ZM64.795 3.60204C64.8724 3.47691 65.5378 3.4754 65.8645 3.59971C66.0026 3.65216 66.1154 3.67088 66.1154 3.64128C66.1154 3.61168 65.9233 3.29052 65.6885 2.92757C65.1639 2.11659 64.6883 1.8266 64.3001 2.08097C64.0981 2.2133 64.0615 2.31492 64.0615 2.74226C64.0615 3.12607 64.1126 3.30149 64.2741 3.47356C64.5002 3.7142 64.6959 3.76242 64.795 3.60204ZM61.8344 15.6716C60.9707 14.9909 61.0581 13.8365 62.0095 13.3585C62.8681 12.9271 63.8736 13.4369 64.0269 14.3813C64.1026 14.8483 63.7599 15.581 63.3717 15.7817C62.9165 16.0171 62.2085 15.9664 61.8344 15.6716ZM33.8145 11.7504C33.7203 11.7258 33.6434 11.6402 33.6434 11.5602C33.6434 11.443 33.734 11.4268 34.108 11.4768C34.7075 11.5571 34.8171 11.5942 34.8171 11.717C34.8171 11.816 34.1507 11.8383 33.8145 11.7504ZM65.4551 11.6956C65.492 11.5846 66.5044 11.3917 66.5917 11.4791C66.6121 11.4994 66.602 11.5839 66.5707 11.6669C66.4957 11.8623 65.3903 11.8907 65.4551 11.6956ZM33.4918 11.2363C33.4395 11.1842 33.4121 10.6032 33.429 9.90964L33.4592 8.67558L34.2604 8.74325C34.7011 8.78047 35.0686 8.81628 35.0772 8.82283C35.086 8.82935 35.0683 9.39591 35.0385 10.0818L34.9843 11.3288H34.2845C33.8997 11.3288 33.5429 11.2872 33.4918 11.2363ZM65.2002 10.7276C65.1656 10.397 65.1373 9.83059 65.1373 9.469V8.81156L65.8953 8.76126C66.3122 8.7336 66.6673 8.72348 66.6844 8.7388C66.7016 8.75411 66.7413 9.34314 66.7726 10.0477L66.8296 11.3288H66.0463H65.263L65.2002 10.7276ZM39.6341 10.9706C39.5408 10.933 39.5118 10.3326 39.5118 8.43536V5.94942H40.2349C40.8041 5.94942 40.9707 5.98236 41.0174 6.10413C41.05 6.18922 41.0767 7.30686 41.0767 8.58776C41.0767 10.6212 41.0571 10.9242 40.922 10.976C40.74 11.0459 39.8109 11.0421 39.6341 10.9706ZM33.8133 8.52257C33.462 8.43091 33.7713 8.2968 34.3338 8.2968C34.8905 8.2968 35.0878 8.40513 34.7602 8.53085C34.5887 8.59664 34.0803 8.59219 33.8133 8.52257ZM65.333 8.44351C65.333 8.33266 65.4525 8.2968 65.822 8.2968C66.091 8.2968 66.344 8.28902 66.3844 8.27931C66.4247 8.26968 66.4719 8.33572 66.4894 8.42602C66.5162 8.5652 66.4305 8.59023 65.927 8.59023C65.4642 8.59023 65.333 8.5578 65.333 8.44351ZM29.5539 5.75C29.1063 5.33293 29.4442 4.48086 30.0561 4.48381C30.4423 4.48576 30.5617 4.55976 30.7437 4.91056C30.9132 5.23733 30.7986 5.69904 30.5097 5.85368C30.2172 6.01024 29.7827 5.96311 29.5539 5.75ZM69.5165 5.77826C69.269 5.49641 69.2242 5.19792 69.3833 4.89029C69.6311 4.41109 70.181 4.33329 70.5701 4.72239C70.8635 5.01578 70.8764 5.34985 70.6075 5.69172C70.3608 6.00541 69.7579 6.05323 69.5165 5.77826ZM39.5118 3.51564V1.27748L39.7319 1.2185C40.0766 1.12612 40.6796 1.14679 40.8876 1.25809C41.066 1.35359 41.0767 1.48434 41.0767 3.55656V5.75379H40.2943H39.5118V3.51564Z" />
</svg>
