<svg width="100" height="33" viewBox="0 0 100 33"  xmlns="http://www.w3.org/2000/svg">
<path d="M15.1513 32.4415C15.0716 32.3617 15.0064 32.0192 15.0064 31.6803C15.0064 31.1109 15.0725 31.062 15.8763 31.0369C16.3548 31.022 16.8686 30.9975 17.0181 30.9825C17.2222 30.9621 17.3047 29.967 17.3492 26.9862L17.4085 23.0172H16.2074H15.0063V22.256V21.4948H16.1006C16.9463 21.4948 17.2255 21.5812 17.3298 21.8754C17.609 22.6626 18.1136 23.0172 18.9548 23.0172H19.791V25.9137C19.791 29.3258 19.4721 30.6795 18.4005 31.8157C17.7403 32.5157 17.5644 32.5865 16.4849 32.5865C15.8312 32.5865 15.2311 32.5212 15.1513 32.4415ZM16.9637 22.2922C16.9637 21.8831 16.7544 21.7228 16.3987 21.8592C15.9361 22.0368 16.0342 22.5822 16.5287 22.5822C16.768 22.5822 16.9637 22.4517 16.9637 22.2922ZM15.4413 30.1941C15.4413 29.8615 15.5863 29.7592 16.0575 29.7592C16.7813 29.7592 16.9775 29.9052 16.8167 30.3241C16.7524 30.4919 16.4166 30.6291 16.0705 30.6291C15.5863 30.6291 15.4413 30.5288 15.4413 30.1941ZM71.8031 30.1257C71.5042 29.7655 71.68 29.5392 72.9079 28.7037C74.3851 27.6986 75.2066 26.7544 75.632 25.5726C76.0375 24.4464 76.4702 24.2376 76.6785 25.0676C76.83 25.6713 76.6488 26.3772 76.208 26.899C74.9573 28.3798 74.3333 28.9574 73.2587 29.6293C72.3034 30.2266 71.9787 30.3373 71.8031 30.1257ZM43.8433 29.4873C43.5421 29.2182 43.2424 28.7044 43.1774 28.3455L43.0592 27.6931L43.3071 28.3455C43.4435 28.7044 43.6518 29.1203 43.77 29.2698C44.0711 29.6507 53.7298 29.6608 54.1099 29.2807C54.5325 28.8582 54.4082 28.5706 53.9732 28.9643C53.629 29.2758 52.9446 29.3242 48.889 29.3242C45.4009 29.3242 44.1467 29.2547 43.9846 29.0524C43.8648 28.9028 43.6064 28.2214 43.4105 27.538C43.2146 26.8547 42.9966 26.1451 42.926 25.9613C42.8219 25.6899 42.9891 25.627 43.814 25.627C45.064 25.627 45.58 25.3689 45.7594 24.6541L45.8973 24.1046H49.9166H53.936V24.7176C53.936 25.0547 54.0912 25.8533 54.2809 26.4921C54.4706 27.131 54.5803 27.8919 54.5247 28.1831C54.4389 28.6316 54.469 28.6669 54.7219 28.4141C54.9747 28.1612 54.9541 27.8844 54.5868 26.6002C54.3485 25.7666 54.1534 24.8641 54.1534 24.5946C54.1534 23.7907 54.5341 24.0397 54.6512 24.9202C54.8002 26.0402 55.2739 27.6673 55.4939 27.8145C55.5936 27.8813 55.2476 28.395 54.725 28.9563L53.7747 29.9767H49.0828C44.5244 29.9767 44.3753 29.9627 43.8433 29.4873ZM54.1613 28.4397C54.3486 28.0896 54.3245 27.8721 54.0523 27.4567L53.7028 26.9233L49.0954 26.982L44.4879 27.0406L44.2239 27.5706C44.0451 27.9295 44.028 28.2278 44.1709 28.4949C44.3649 28.8573 44.7682 28.8893 49.1513 28.8893C53.7497 28.8893 53.9293 28.8732 54.1613 28.4397ZM44.5159 28.531C44.2356 28.2507 44.366 27.4137 44.7107 27.2814C45.2402 27.0782 53.3537 27.1316 53.6831 27.3405C53.8431 27.4419 53.941 27.7585 53.9006 28.044L53.8272 28.5631L49.2462 28.6217C46.7266 28.6539 44.5979 28.613 44.5159 28.531ZM45.4508 28.1824C45.449 28.0329 45.3511 27.7638 45.2333 27.5843C45.0429 27.2944 44.9953 27.2944 44.805 27.5843C44.4633 28.1049 44.5493 28.4543 45.0191 28.4543C45.2584 28.4543 45.4526 28.332 45.4508 28.1824ZM53.6004 28.2518C53.6693 28.1405 53.6245 27.9869 53.501 27.9106C53.3775 27.8343 53.3327 27.6807 53.4016 27.5693C53.4704 27.458 53.4335 27.3669 53.3196 27.3669C53.1148 27.3669 52.8486 27.8686 52.8486 28.2546C52.8486 28.5155 53.4388 28.5134 53.6004 28.2518ZM47.1396 24.8476C46.9323 24.6404 46.5168 24.9761 46.6713 25.226C46.7631 25.3745 46.8847 25.3708 47.0409 25.2145C47.1689 25.0865 47.2133 24.9214 47.1396 24.8476ZM53.2835 24.9617C53.2835 24.8491 53.1367 24.757 52.9573 24.757C52.621 24.757 52.5252 25.0137 52.7701 25.2586C52.9439 25.4324 53.2835 25.2359 53.2835 24.9617ZM15.985 29.5541L14.8976 29.4174L16.0395 29.3164C16.862 29.2437 17.1814 29.2915 17.1813 29.4873C17.1812 29.6368 17.1567 29.7438 17.1268 29.725C17.0969 29.7062 16.5831 29.6293 15.985 29.5541ZM15.3326 28.8892C15.2513 28.7577 15.5521 28.6718 16.0938 28.6718C16.6355 28.6718 16.9363 28.7577 16.855 28.8892C16.781 29.0089 16.4385 29.1067 16.0938 29.1067C15.749 29.1067 15.4065 29.0089 15.3326 28.8892ZM71.3069 28.7261C71.0386 28.384 71.0457 28.3747 71.3766 28.6337C71.6903 28.8792 71.8529 28.8471 72.4768 28.4162C73.3093 27.8411 74.6213 26.419 75.0195 25.6601C75.2631 25.1959 75.1572 24.9539 73.8547 22.9977C73.0668 21.8142 72.4221 20.7995 72.4221 20.7427C72.4221 20.6859 72.0225 20.0245 71.5341 19.2729C70.7889 18.1259 70.6633 17.7751 70.7524 17.0897C70.881 16.1003 70.6505 16.0037 68.3941 16.101L66.8762 16.1664L66.9385 16.9276C67.0956 18.8497 67.0513 19.993 66.8103 20.234C66.4335 20.6109 66.4902 21.235 66.9614 21.8961L67.3729 22.4734L63.1734 22.4063C59.0358 22.3402 58.9578 22.3473 57.8758 22.8956C57.031 23.3237 56.45 23.4521 55.3568 23.4521C54.0781 23.4521 53.9359 23.4083 53.9359 23.0145C53.9359 22.6259 54.0331 22.5925 54.8059 22.7161L55.6758 22.8552V18.9808V15.1063L56.3283 15.7314C56.7999 16.1833 56.9807 16.5591 56.9807 17.0878C56.9807 17.9435 57.3798 18.7772 58.5435 20.3529L59.3867 21.4947H61.762C63.1403 21.4947 64.3766 21.3857 64.7075 21.2349C65.4662 20.8892 65.8976 19.998 65.8976 18.7762C65.8976 17.5543 65.4662 16.6631 64.7075 16.3174C64.3394 16.1498 62.8729 16.0576 60.5718 16.0576C58.4294 16.0576 56.9527 15.9708 56.872 15.8401C56.7833 15.6966 59.552 15.6226 65.0148 15.6226C70.3879 15.6226 73.292 15.6989 73.292 15.8401C73.292 15.9597 72.9474 16.0576 72.5261 16.0576C71.9162 16.0576 71.7088 16.1706 71.5076 16.6123C71.292 17.0854 71.3401 17.3335 71.8338 18.2978C73.0722 20.7164 74.4402 22.8288 75.3107 23.6667C75.8153 24.1523 75.8256 24.2164 75.5468 25.1428C75.2167 26.2394 74.0708 27.6244 72.7627 28.5076C71.7176 29.2133 71.6921 29.2172 71.3069 28.7261ZM57.1439 22.2017C57.2628 21.8446 56.5814 21.5897 56.2891 21.8819C56.164 22.007 56.1308 22.2212 56.2153 22.3578C56.4074 22.6687 57.0229 22.5653 57.1439 22.2017ZM56.437 22.1473C56.3631 22.0276 56.461 21.9298 56.6545 21.9298C56.8481 21.9298 56.9459 22.0276 56.872 22.1473C56.7981 22.2669 56.7002 22.3648 56.6545 22.3648C56.6088 22.3648 56.5109 22.2669 56.437 22.1473ZM15.985 28.2492L14.8976 28.1125L16.0395 28.0115C16.862 27.9388 17.1814 27.9866 17.1813 28.1824C17.1812 28.332 17.1567 28.4389 17.1268 28.4201C17.0969 28.4014 16.5831 28.3245 15.985 28.2492ZM70.7397 26.9863C70.1832 26.0597 69.7354 25.5404 69.5254 25.5784C69.3424 25.6114 69.1312 25.5392 69.0562 25.4178C68.976 25.2881 69.059 25.2504 69.2573 25.3266C69.4429 25.3978 69.5948 25.3477 69.5948 25.2153C69.5948 25.0829 69.5214 24.9744 69.4317 24.9742C69.342 24.974 68.9903 24.5334 68.6503 23.9951C68.3102 23.4569 67.95 23.0672 67.8498 23.1292C67.7495 23.1911 67.5967 23.1273 67.5101 22.9872C67.4118 22.8281 67.447 22.7908 67.6038 22.8877C67.9901 23.1264 67.9064 22.8683 67.3014 21.954C66.7559 21.1297 66.7532 21.1045 67.1112 20.2097C67.3718 19.5584 67.4329 19.0124 67.3273 18.2778C67.0304 16.2126 66.8978 16.3913 68.7792 16.3204L70.4647 16.2569V17.2161C70.4647 18.0358 70.6953 18.5354 72.0492 20.6507C72.9206 22.0121 73.8993 23.5157 74.224 23.992C74.5487 24.4684 74.8144 25.0837 74.8144 25.3594C74.8144 25.9003 72.4133 28.4543 71.9048 28.4543C71.7488 28.4543 71.2245 27.7937 70.7397 26.9863ZM72.9658 22.5792C72.9658 22.1131 72.3339 22.1804 72.2422 22.6563C72.1862 22.947 72.2748 23.0355 72.5655 22.9796C72.7856 22.9371 72.9658 22.757 72.9658 22.5792ZM70.6317 27.6387C70.4668 27.3098 70.1548 26.7715 69.9383 26.4426C69.7219 26.1136 69.592 25.8445 69.6496 25.8445C69.7873 25.8445 70.7815 27.368 70.9625 27.8562C71.1813 28.4467 70.9653 28.3049 70.6317 27.6387ZM15.3171 27.4212C15.3735 27.0298 16.106 26.8066 16.6496 27.0152C17.2174 27.2331 16.734 27.8018 15.981 27.8018C15.4207 27.8018 15.2744 27.718 15.3171 27.4212ZM15.985 26.7268L14.8976 26.5901L16.0395 26.4891C16.862 26.4164 17.1814 26.4642 17.1813 26.66C17.1812 26.8096 17.1567 26.9165 17.1268 26.8977C17.0969 26.879 16.5831 26.802 15.985 26.7268ZM42.5449 26.3798C42.4703 26.1854 42.4155 25.9121 42.4231 25.7723C42.4307 25.6326 42.5307 25.7527 42.6453 26.0392C42.7599 26.3257 42.8147 26.599 42.7671 26.6466C42.7195 26.6943 42.6195 26.5742 42.5449 26.3798ZM15.2238 26.062C15.2238 25.9424 15.6211 25.8445 16.1066 25.8445C16.6397 25.8445 16.9361 25.9306 16.855 26.062C16.781 26.1816 16.3838 26.2795 15.9722 26.2795C15.5606 26.2795 15.2238 26.1816 15.2238 26.062ZM15.1281 25.4305C15.0613 25.3224 15.496 25.2001 16.094 25.1586C16.8592 25.1056 17.1814 25.1635 17.1813 25.3551C17.1812 25.6731 15.3202 25.7414 15.1281 25.4305ZM15.3326 24.7571C15.2513 24.6255 15.5521 24.5396 16.0938 24.5396C16.6355 24.5396 16.9363 24.6255 16.855 24.7571C16.781 24.8767 16.4385 24.9746 16.0938 24.9746C15.749 24.9746 15.4065 24.8767 15.3326 24.7571ZM44.1889 23.6153C44.2077 22.8677 44.1688 21.906 44.1026 21.4783C43.9606 20.5624 43.3583 19.32 43.0562 19.32C42.9397 19.32 42.8402 19.0998 42.8352 18.8306C42.821 18.0673 42.1254 16.9435 41.4504 16.5933C40.9592 16.3385 39.5545 16.2659 34.3919 16.2286C28.6221 16.187 28.3452 16.1698 31.75 16.0655C35.3334 15.9557 35.558 15.9238 35.6355 15.514C35.6807 15.2748 35.8287 15.0071 35.9643 14.9193C36.1 14.8314 37.7488 14.758 39.6284 14.7561L43.0457 14.7533L44.7936 17.6891C45.755 19.3037 46.5415 20.6831 46.5415 20.7542C46.5415 20.8254 46.8563 21.41 47.2411 22.0532L47.9407 23.2229L50.6665 23.2905L53.3923 23.3582L50.5372 23.4054C48.2232 23.4437 47.6309 23.3909 47.4115 23.1265C47.2625 22.947 46.962 22.8002 46.7436 22.8002C46.2293 22.8002 45.3156 23.6516 45.0335 24.3936C44.9119 24.7134 44.6645 24.9751 44.4836 24.9751C44.2216 24.9751 44.1618 24.6983 44.1889 23.6153ZM45.1949 23.2184C45.1521 23.0898 45.024 22.9846 44.9104 22.9846C44.7968 22.9846 44.6687 23.0898 44.6258 23.2184C44.583 23.347 44.711 23.4522 44.9104 23.4522C45.1097 23.4522 45.2378 23.347 45.1949 23.2184ZM46.324 22.256C46.324 22.0766 46.2319 21.9298 46.1194 21.9298C45.8451 21.9298 45.6487 22.2694 45.8225 22.4432C46.0674 22.6881 46.324 22.5923 46.324 22.256ZM36.6817 15.7169C36.863 15.2445 36.4028 14.8003 36.0734 15.1297C35.795 15.4081 35.9675 16.0577 36.3198 16.0577C36.4469 16.0577 36.6098 15.9043 36.6817 15.7169ZM36.1023 15.3924C36.1023 15.2658 36.2002 15.2226 36.3198 15.2965C36.4394 15.3704 36.5373 15.4741 36.5373 15.5268C36.5373 15.5795 36.4394 15.6227 36.3198 15.6227C36.2002 15.6227 36.1023 15.5191 36.1023 15.3924ZM42.6268 15.3924C42.6268 15.2799 42.48 15.1878 42.3006 15.1878C41.9643 15.1878 41.8685 15.4444 42.1134 15.6893C42.2872 15.8631 42.6268 15.6666 42.6268 15.3924ZM45.2692 24.3221C45.3943 23.9633 45.5986 23.6696 45.7232 23.6696C45.8479 23.6696 46.0757 23.4984 46.2295 23.2891C46.4959 22.9266 46.5401 22.9266 47.157 23.2891C47.66 23.5846 48.3806 23.68 50.381 23.7158C52.8759 23.7605 52.8439 23.7657 49.3688 23.8789C45.9096 23.9917 45.7726 24.0135 45.5656 24.4852C45.2471 25.2113 45.0056 25.0784 45.2692 24.3221ZM42.4496 24.333C42.4903 23.9007 42.3772 23.6638 42.1864 23.7817C42.0639 23.8575 41.9854 23.8388 42.0121 23.7402C42.0942 23.4362 41.739 22.5822 41.5303 22.5822C41.4218 22.5822 41.1796 22.2854 40.992 21.9226C40.794 21.5398 40.5495 21.3258 40.4091 21.4125C40.2604 21.5044 40.2286 21.4628 40.3265 21.3044C40.5256 20.9821 39.5219 19.2374 38.8779 18.7863C38.4775 18.5058 37.5398 18.45 33.2266 18.45H28.0554V17.4713V16.4927H34.3501H40.6449L41.0303 17.1451C41.2423 17.504 41.4796 17.7976 41.5577 17.7976C41.6358 17.7976 42.244 18.9043 42.9093 20.2569C43.9675 22.4083 44.1036 22.831 43.9961 23.6327C43.8781 24.5126 43.8444 24.5473 43.1557 24.5009C42.7611 24.4744 42.4434 24.3988 42.4496 24.333ZM15.3326 24.1046C15.2505 23.9718 15.584 23.8871 16.1897 23.8871C16.735 23.8871 17.1812 23.985 17.1812 24.1046C17.1812 24.2242 16.7955 24.3221 16.3241 24.3221C15.8527 24.3221 15.4065 24.2242 15.3326 24.1046ZM68.0724 23.8871C67.9444 23.6479 67.8886 23.4522 67.9484 23.4522C68.0082 23.4522 68.1619 23.6479 68.2899 23.8871C68.4179 24.1264 68.4737 24.3221 68.4139 24.3221C68.3541 24.3221 68.2004 24.1264 68.0724 23.8871ZM15.4413 23.4522C15.4413 23.3325 15.7291 23.2347 16.0809 23.2347C16.4327 23.2347 16.781 23.3325 16.855 23.4522C16.9349 23.5816 16.676 23.6696 16.2153 23.6696C15.7896 23.6696 15.4413 23.5718 15.4413 23.4522ZM74.7587 22.6882C74.3257 22.0916 73.7285 21.1537 73.4314 20.6039L72.8915 19.6043L73.3936 19.7004C74.4201 19.8966 75.6818 18.5763 75.6835 17.3041C75.6842 16.7573 75.7393 16.7152 76.2824 16.8462C77.1703 17.0605 80.4988 18.2386 81.1009 18.5518C81.6166 18.82 81.6121 18.8262 80.7867 18.981C79.5116 19.2202 78.041 20.0546 77.3155 20.9506C76.9566 21.3937 76.546 21.8809 76.4029 22.0332C76.2599 22.1856 76.0085 22.6393 75.8444 23.0415L75.546 23.7729L74.7587 22.6882ZM53.3682 23.0658C53.2354 22.9792 52.9637 22.5904 52.7646 22.2016C52.4198 21.5288 52.3425 21.4948 51.1575 21.4943L49.9125 21.4938L49.2765 20.1894C48.9267 19.472 48.5716 18.885 48.4874 18.885C48.4031 18.885 48.2099 18.585 48.058 18.2182C47.8291 17.6658 47.834 17.5009 48.086 17.2562C48.4574 16.8957 48.9618 16.853 52.3592 16.8948L55.0234 16.9276V19.7635C55.0234 22.1865 54.9789 22.5585 54.718 22.3189C54.55 22.1647 54.4277 21.9896 54.4461 21.9298C54.4646 21.87 54.3818 21.821 54.2622 21.821C54.1426 21.821 54.0692 21.8944 54.0991 21.9841C54.129 22.0738 54.0621 22.1473 53.9504 22.1473C53.8387 22.1473 53.7164 22.3894 53.6785 22.6853C53.6358 23.0197 53.5184 23.1637 53.3682 23.0658ZM53.4976 20.788C53.4958 20.5188 53.1219 19.6136 52.6667 18.7762L51.8392 17.2539L50.3309 17.191C49.2698 17.1468 48.694 17.2222 48.3889 17.4453C47.9575 17.7608 47.9578 17.7653 48.4319 18.27C48.6941 18.5491 49.1662 19.34 49.4809 20.0274L50.0531 21.2773H51.7771C53.4208 21.2773 53.5008 21.2545 53.4976 20.788ZM49.4839 19.4549C49.0298 18.5722 48.726 17.7404 48.8089 17.6063C48.894 17.4686 49.5481 17.3626 50.3126 17.3626H51.6657L52.4746 18.9973C52.9195 19.8964 53.2835 20.7283 53.2835 20.8459C53.2835 20.9653 52.6262 21.0598 51.7965 21.0598H50.3095L49.4839 19.4549ZM51.3261 18.9937C51.3261 18.6357 50.7304 18.3998 50.5527 18.6874C50.4784 18.8075 50.4716 19.0463 50.5374 19.218C50.6788 19.5864 51.3261 19.4023 51.3261 18.9937ZM54.534 17.4532C54.3268 17.2459 53.9113 17.5816 54.0657 17.8316C54.1575 17.9801 54.2791 17.9763 54.4353 17.8201C54.5634 17.692 54.6078 17.527 54.534 17.4532ZM95.2579 22.9946C94.0548 22.8043 88.0663 20.889 87.8634 20.6296C87.7533 20.4889 83.8262 19.0881 82.4263 18.6903C82.0077 18.5713 80.0993 17.9316 78.1854 17.2686C76.2715 16.6057 74.4365 16.0621 74.1076 16.0605C73.5553 16.0577 73.5095 15.9911 73.5095 15.1878V14.3178H72.5743C71.5319 14.3178 71.1172 14.032 71.1172 13.3134C71.1172 12.2968 71.3147 12.143 72.6193 12.143C73.3003 12.143 73.9749 12.0255 74.1185 11.882C74.262 11.7385 74.3794 11.1513 74.3794 10.5771C74.3794 9.67817 74.4399 9.53318 74.8144 9.53318C75.1967 9.53318 75.2494 9.67817 75.2494 10.7293C75.2494 11.3872 75.3472 11.9255 75.4669 11.9255C75.5865 11.9255 75.6843 11.3872 75.6843 10.7293V9.53318H85.0786H94.4729L95.0829 10.1176L95.6928 10.702V15.8472C95.6928 20.7162 95.6694 21.0135 95.2579 21.3861C94.4019 22.1607 94.8512 22.5078 96.889 22.6466L97.5415 22.6909L97.5987 15.2325L97.6558 7.7741L96.0761 7.83805L94.4965 7.90201L94.4284 8.60883L94.3603 9.31565H85.0404C77.7971 9.31565 75.6923 9.25505 75.5937 9.0438C75.4922 8.82631 75.4414 8.82631 75.3399 9.0438C75.2702 9.19332 75.0255 9.31565 74.7962 9.31565C74.4453 9.31565 74.3794 9.15604 74.3794 8.30668V7.2977L75.5212 7.43485C76.1491 7.51028 81.434 7.57285 87.2653 7.57388L97.8676 7.57571V15.4051V23.2346L97.1608 23.2092C96.772 23.1952 95.9158 23.0987 95.2579 22.9946ZM95.1259 20.9333C95.1986 20.7441 95.2579 18.475 95.2579 15.8908C95.2579 9.60638 95.8925 10.1856 89.0074 10.1856C85.7666 10.1856 83.539 10.2732 83.282 10.4108C82.8997 10.6153 82.8613 10.89 82.8613 13.4164C82.8613 16.1634 82.869 16.2052 83.4788 16.8885C83.8184 17.2688 84.1708 17.5801 84.2618 17.5801C84.4759 17.5801 89.9357 19.5006 90.8323 19.8913C91.2093 20.0555 91.6182 20.1899 91.7411 20.1899C91.864 20.1899 92.0956 20.321 92.2558 20.4812C92.978 21.2034 94.9057 21.507 95.1259 20.9333ZM93.518 20.9061C93.3386 20.8352 93.1429 20.7101 93.083 20.6281C93.0231 20.5461 92.7786 20.368 92.5393 20.2323C92.1103 19.989 92.1106 19.9856 92.5643 19.9791C93.2147 19.9693 94.17 19.1565 94.523 18.3118C94.7215 17.8368 94.8229 16.7091 94.8229 14.9773V12.3605L94.2248 12.3334C90.3432 12.1576 83.5131 12.0709 83.5134 12.1974C83.5136 12.2871 83.4158 12.3605 83.2962 12.3605C83.1766 12.3605 83.0787 12.1403 83.0786 11.8712L83.0784 11.3818H87.8089C91.8687 11.3818 92.5393 11.3356 92.5393 11.0556C92.5393 10.7797 91.8355 10.7116 87.9721 10.614L83.405 10.4986L88.7636 10.4508C93.5882 10.4079 94.1686 10.441 94.5875 10.7837C95.0412 11.1549 95.0513 11.2851 94.9922 16.0577L94.9317 20.9511L94.388 20.9931C94.0889 21.0161 93.6974 20.977 93.518 20.9061ZM72.3837 12.9405C72.4244 12.7308 72.3152 12.578 72.1246 12.578C71.7206 12.578 71.4768 12.9325 71.668 13.2419C71.8647 13.5602 72.299 13.3773 72.3837 12.9405ZM80.469 10.1856C80.469 10.066 80.3711 9.96815 80.2515 9.96815C80.1319 9.96815 80.034 10.066 80.034 10.1856C80.034 10.3052 80.1319 10.4031 80.2515 10.4031C80.3711 10.4031 80.469 10.3052 80.469 10.1856ZM98.0852 15.4052V7.57582H98.711C99.0552 7.57582 99.4379 7.69816 99.5615 7.84768C99.8632 8.21279 100.122 9.66321 99.9388 9.96009C99.6473 10.4317 99.4346 18.7845 99.7071 19.0571C99.7699 19.1198 99.7196 19.2938 99.5951 19.4437C99.4384 19.6325 99.439 19.7595 99.5975 19.8571C99.7229 19.9347 99.8255 20.574 99.8255 21.2778C99.8255 22.3537 99.7485 22.6115 99.3422 22.8961C99.0763 23.0823 98.6848 23.2347 98.4722 23.2347C98.1089 23.2347 98.0852 22.763 98.0852 15.4052ZM49.0193 22.6732C49.0919 22.484 49.1511 22.3127 49.1508 22.2926C49.1506 22.2724 49.9335 22.2877 50.8907 22.3269C52.2181 22.381 52.6311 22.4713 52.6311 22.7075C52.6311 22.9514 52.2336 23.0172 50.7592 23.0172C49.1416 23.0172 48.9052 22.9704 49.0193 22.6732ZM18.0151 22.5375C17.5135 22.1477 17.4217 21.4956 17.7689 20.788C18.2139 19.8809 19.1766 19.957 19.7888 20.9476C20.0464 21.3643 20.2257 21.9271 20.1872 22.1981C20.1297 22.6031 19.9622 22.7024 19.2473 22.755C18.7688 22.7902 18.2143 22.6923 18.0151 22.5375ZM19.4228 21.9049C19.7487 21.3848 19.4461 20.8423 18.83 20.8423C18.1664 20.8423 17.7843 21.4313 18.0843 21.9917C18.3374 22.4647 19.1032 22.4151 19.4228 21.9049ZM18.3478 21.8225C18.2725 21.6262 18.3151 21.3613 18.4426 21.2338C18.774 20.9025 19.4018 21.2053 19.3152 21.6548C19.2188 22.1554 18.5219 22.2762 18.3478 21.8225ZM47.7824 22.4321C47.7243 22.3353 47.3849 21.7144 47.0284 21.0524L46.3801 19.8488L47.1059 19.9336C47.6157 19.9931 47.8742 20.1571 47.9748 20.4847C48.0535 20.7413 48.3178 21.1414 48.5621 21.374C48.9094 21.7045 48.9391 21.8169 48.6983 21.8884C48.5288 21.9387 48.2772 22.1213 48.1391 22.2941C48.0011 22.4669 47.8406 22.529 47.7824 22.4321ZM48.2814 22.3648C48.2814 22.2452 48.3735 22.1473 48.486 22.1473C48.5986 22.1473 48.7512 22.2452 48.8251 22.3648C48.899 22.4844 48.8069 22.5823 48.6204 22.5823C48.434 22.5823 48.2814 22.4844 48.2814 22.3648ZM95.4159 22.2139C95.0687 22.1234 95.0849 22.0485 95.579 21.4612L96.1278 20.809V15.8242V10.8394L95.3502 9.97867C94.8323 9.40535 94.5962 8.95126 94.6434 8.61877C94.7073 8.16733 94.8442 8.11339 96.0735 8.05484L97.4327 7.99009V15.1774V22.3648L96.6172 22.3396C96.1686 22.3257 95.628 22.2691 95.4159 22.2139ZM96.7803 21.7123C96.7803 21.5927 96.6277 21.4948 96.4412 21.4948C96.2547 21.4948 96.1626 21.5927 96.2366 21.7123C96.3105 21.8319 96.4631 21.9298 96.5756 21.9298C96.6881 21.9298 96.7803 21.8319 96.7803 21.7123ZM96.66 10.1671C96.59 10.0538 96.44 10.0184 96.3267 10.0884C96.2135 10.1585 96.178 10.3084 96.2479 10.4217C96.3179 10.5351 96.4679 10.5705 96.5813 10.5004C96.6945 10.4304 96.73 10.2804 96.66 10.1671ZM49.0079 21.4948C48.796 21.1359 48.5572 20.8423 48.4773 20.8423C48.3974 20.8423 48.2809 20.6466 48.2183 20.4074C48.0067 19.5982 48.8628 19.9004 49.2965 20.788C49.677 21.5667 49.749 21.6066 50.8911 21.6704C52.727 21.7729 52.7708 22.1472 50.9469 22.1472C49.4514 22.1472 49.379 22.1229 49.0079 21.4948ZM14.1426 21.0352C13.4978 20.7779 13.2743 20.4638 13.2698 19.8093L13.2664 19.3199H17.303H21.3395L21.272 20.112C21.2216 20.7042 21.0793 20.9499 20.7081 21.0862C20.3003 21.236 20.1772 21.1775 20.018 20.7588C19.6319 19.7435 18.2076 19.6617 17.6603 20.6235C17.3119 21.2358 17.2122 21.2738 15.9849 21.2621C15.2672 21.2554 14.4382 21.1532 14.1426 21.0352ZM14.517 19.8455C14.3097 19.6382 13.8942 19.9739 14.0487 20.2238C14.1405 20.3724 14.2621 20.3686 14.4183 20.2124C14.5464 20.0843 14.5908 19.9193 14.517 19.8455ZM20.8784 19.9724C20.8784 19.8528 20.7316 19.7549 20.5522 19.7549C20.3728 19.7549 20.226 19.8528 20.226 19.9724C20.226 20.092 20.3728 20.1899 20.5522 20.1899C20.7316 20.1899 20.8784 20.092 20.8784 19.9724ZM7.66627 20.082C7.07585 19.4114 7.38267 19.3199 10.2217 19.3199H13.049V19.8636C13.049 20.1627 12.9511 20.4073 12.8315 20.4073C12.7119 20.4073 12.614 20.3095 12.614 20.1899C12.614 20.0702 12.3694 19.9724 12.0703 19.9724C11.7713 19.9724 11.5266 20.0702 11.5266 20.1899C11.5266 20.5474 7.98901 20.4486 7.66627 20.082ZM21.5309 19.8636V19.3199H24.4669C27.4355 19.3199 27.77 19.4189 27.0922 20.0967C26.6977 20.4912 23.8823 20.5213 23.2678 20.1376C22.9239 19.9228 22.7476 19.9228 22.4038 20.1376C21.7596 20.5398 21.5309 20.468 21.5309 19.8636ZM62.2004 20.1899C62.2004 20.0702 62.2982 19.9724 62.4178 19.9724C62.5421 19.9724 62.6353 19.3199 62.6353 18.45C62.6353 17.5801 62.5421 16.9276 62.4178 16.9276C62.2982 16.9276 62.2004 16.7808 62.2004 16.6014C62.2004 16.3735 62.4299 16.2752 62.9615 16.2752H63.7227V17.48C63.7227 18.8083 63.0669 20.4073 62.5222 20.4073C62.3452 20.4073 62.2004 20.3095 62.2004 20.1899ZM46.6413 19.5229C46.5625 19.3954 46.5446 19.2443 46.6016 19.1873C46.6586 19.1303 46.7632 19.2347 46.834 19.4193C46.9811 19.8025 46.8558 19.8699 46.6413 19.5229ZM47.194 19.4287C47.194 19.0938 47.7618 19.0002 48.3723 19.2344C48.9747 19.4656 48.7429 19.7549 47.9552 19.7549C47.4235 19.7549 47.194 19.6565 47.194 19.4287ZM45.1841 17.8303C44.2867 16.341 44.2254 16.1591 44.6003 16.0969C45.1766 16.0012 45.1621 15.1877 44.5841 15.1877C44.3175 15.1877 44.1465 15.335 44.1423 15.5683C44.136 15.9127 44.1049 15.9087 43.816 15.5267C43.3159 14.8655 43.4223 14.7527 44.5462 14.7527C45.3795 14.7527 45.6991 14.8628 46.0975 15.2868C46.5021 15.7175 46.8567 15.8357 47.9296 15.8974L49.26 15.9739L47.9274 16.0158C46.1833 16.0706 45.9212 16.3642 46.5375 17.5723C46.9841 18.4476 46.9853 18.479 46.5905 18.9809L46.1867 19.4942L45.1841 17.8303ZM7.0681 18.7141C6.40269 18.1438 5.87203 17.219 5.87203 16.6297C5.87203 16.1323 5.92989 16.1063 6.79633 16.2146C7.3047 16.2781 7.81361 16.4156 7.92725 16.5201C8.28905 16.8528 9.56925 16.7466 9.56925 16.3839C9.56925 16.1656 9.78749 16.0576 10.2285 16.0576C10.6139 16.0576 10.9398 16.1932 11.013 16.3839C11.0905 16.586 11.4216 16.7101 11.8829 16.7101C12.3443 16.7101 12.6753 16.586 12.7529 16.3839C12.829 16.1855 13.1581 16.0576 13.5927 16.0576C14.0273 16.0576 14.3564 16.1855 14.4325 16.3839C14.5061 16.5756 14.8324 16.7101 15.2238 16.7101C15.6153 16.7101 15.9416 16.5756 16.0151 16.3839C16.0849 16.2019 16.4083 16.0576 16.7462 16.0576C17.0842 16.0576 17.4075 16.2019 17.4773 16.3839C17.5489 16.5704 17.8734 16.7101 18.2352 16.7101C18.5831 16.7101 18.9896 16.5633 19.1385 16.3839C19.2875 16.2045 19.6 16.0576 19.8332 16.0576C20.0663 16.0576 20.4038 16.2045 20.5833 16.3839C20.7627 16.5633 21.1992 16.7101 21.5532 16.7101C21.9248 16.7101 22.2499 16.5722 22.3222 16.3839C22.392 16.2019 22.7153 16.0576 23.0533 16.0576C23.3912 16.0576 23.7145 16.2019 23.7844 16.3839C23.8629 16.5886 24.1955 16.7101 24.6776 16.7101C25.2153 16.7101 25.4456 16.6123 25.4456 16.3839C25.4456 15.8738 26.4592 15.9696 26.596 16.4926C26.6729 16.7865 26.8927 16.9276 27.2738 16.9276C28.0039 16.9276 28.0193 17.4874 27.2942 17.6693C26.863 17.7776 26.7505 17.943 26.7505 18.4686C26.7505 19.063 26.6889 19.1242 26.1534 19.0625C25.6816 19.0081 25.5329 18.8568 25.4445 18.3412C25.3452 17.7623 25.247 17.6888 24.5735 17.6888C23.8761 17.6888 23.8089 17.7462 23.7463 18.3956C23.6867 19.0132 23.5993 19.1024 23.0533 19.1024C22.5076 19.1024 22.4197 19.013 22.3602 18.3974C22.2867 17.6369 21.906 17.4387 20.97 17.6737C20.557 17.7773 20.4434 17.9488 20.4434 18.4686C20.4434 19.0633 20.382 19.1242 19.8454 19.0625C19.3721 19.008 19.2327 18.8662 19.1772 18.3828C19.0974 17.6869 18.7263 17.4726 17.9419 17.6695C17.5146 17.7767 17.3987 17.9441 17.3987 18.4541C17.3987 19.0264 17.3237 19.1024 16.76 19.1024C16.1984 19.1024 16.1131 19.0171 16.0532 18.3956C15.9905 17.7458 15.9236 17.6888 15.2238 17.6888C14.524 17.6888 14.4571 17.7457 14.3945 18.3956C14.3321 19.0427 14.2632 19.1024 13.5789 19.1024C12.9369 19.1024 12.8315 19.0295 12.8315 18.5853C12.8315 17.4084 11.2887 17.192 11.0909 18.3412C10.9956 18.8951 10.8807 18.9937 10.3304 18.9937C9.78019 18.9937 9.66531 18.8951 9.56999 18.3412C9.48864 17.8684 9.32009 17.6692 8.9578 17.6177C8.31627 17.5265 7.79581 17.9593 7.87572 18.5174C7.95799 19.092 7.60832 19.1771 7.0681 18.7141ZM7.50316 16.9276C7.39794 16.7573 7.27283 16.7447 7.12784 16.8897C7.00822 17.0093 6.98138 17.2221 7.06817 17.3625C7.17341 17.5328 7.29851 17.5454 7.44349 17.4004C7.56311 17.2808 7.58995 17.068 7.50316 16.9276ZM10.5479 16.9276C10.4427 16.7573 10.3176 16.7447 10.1726 16.8897C10.053 17.0093 10.0262 17.2221 10.113 17.3625C10.2182 17.5328 10.3433 17.5454 10.4883 17.4004C10.6079 17.2808 10.6347 17.068 10.5479 16.9276ZM20.0085 17.1322C20.0085 17.0197 19.8617 16.9276 19.6823 16.9276C19.3459 16.9276 19.2502 17.1842 19.4951 17.4291C19.6689 17.6029 20.0085 17.4065 20.0085 17.1322ZM13.9189 17.145C13.9189 17.0254 13.7232 16.9275 13.484 16.9275C13.2447 16.9275 13.049 17.0254 13.049 17.145C13.049 17.2646 13.2447 17.3625 13.484 17.3625C13.7232 17.3625 13.9189 17.2646 13.9189 17.145ZM16.9637 17.145C16.9637 17.0254 16.8169 16.9275 16.6375 16.9275C16.4581 16.9275 16.3113 17.0254 16.3113 17.145C16.3113 17.2646 16.4581 17.3625 16.6375 17.3625C16.8169 17.3625 16.9637 17.2646 16.9637 17.145ZM23.2707 17.145C23.2707 17.0254 23.1729 16.9275 23.0533 16.9275C22.9336 16.9275 22.8358 17.0254 22.8358 17.145C22.8358 17.2646 22.9336 17.3625 23.0533 17.3625C23.1729 17.3625 23.2707 17.2646 23.2707 17.145ZM26.3155 17.145C26.3155 17.0254 26.2176 16.9275 26.098 16.9275C25.9784 16.9275 25.8805 17.0254 25.8805 17.145C25.8805 17.2646 25.9784 17.3625 26.098 17.3625C26.2176 17.3625 26.3155 17.2646 26.3155 17.145ZM8.26435 18.5587C8.26435 18.1237 8.3731 18.015 8.80806 18.015C9.24303 18.015 9.35177 18.1237 9.35177 18.5587C9.35177 18.9936 9.24302 19.1024 8.80806 19.1024C8.37309 19.1024 8.26435 18.9936 8.26435 18.5587ZM11.3091 18.5587C11.3091 18.1237 11.4179 18.015 11.8528 18.015C12.2878 18.015 12.3965 18.1237 12.3965 18.5587C12.3965 18.9936 12.2878 19.1024 11.8528 19.1024C11.4179 19.1024 11.3091 18.9936 11.3091 18.5587ZM14.7255 18.9666C14.6408 18.8818 14.5714 18.633 14.5714 18.4137C14.5714 18.1136 14.7366 18.015 15.239 18.015C15.8069 18.015 15.8962 18.088 15.837 18.5043C15.7684 18.9874 15.0466 19.2876 14.7255 18.9666ZM17.7703 18.9666C17.6855 18.8818 17.6162 18.633 17.6162 18.4137C17.6162 18.1136 17.7814 18.015 18.2837 18.015C18.8516 18.015 18.9409 18.088 18.8818 18.5043C18.8132 18.9874 18.0914 19.2876 17.7703 18.9666ZM21.0326 18.9666C20.9478 18.8818 20.8784 18.633 20.8784 18.4137C20.8784 18.1136 21.0436 18.015 21.546 18.015C22.1139 18.015 22.2032 18.088 22.1441 18.5043C22.0755 18.9874 21.3536 19.2876 21.0326 18.9666ZM24.1407 18.5587C24.1407 18.1237 24.2494 18.015 24.6844 18.015C25.1194 18.015 25.2281 18.1237 25.2281 18.5587C25.2281 18.9936 25.1193 19.1024 24.6844 19.1024C24.2494 19.1024 24.1407 18.9936 24.1407 18.5587ZM27.098 18.9424C26.7859 18.6303 26.9882 18.015 27.4029 18.015C27.6847 18.015 27.8379 18.16 27.8379 18.4267C27.8379 18.8398 27.3414 19.1858 27.098 18.9424ZM46.9117 17.7068C46.5263 17.0173 46.4413 16.6798 46.6104 16.5107C46.9068 16.2143 49.3688 16.1981 49.3688 16.4926C49.3688 16.6122 49.0904 16.7101 48.7501 16.7101C47.9064 16.7101 47.2958 17.3925 47.6116 17.9826C47.8984 18.5185 47.9062 18.6674 47.6475 18.6674C47.5381 18.6674 47.207 18.2351 46.9117 17.7068ZM26.834 16.3965C26.7678 16.2241 26.7464 15.9377 26.7865 15.76C26.8464 15.4942 26.9534 15.5139 27.3913 15.8712C27.8301 16.2292 27.8683 16.3402 27.6088 16.5044C27.1658 16.7847 26.9726 16.7578 26.834 16.3965ZM49.5467 16.1663C49.3203 15.6693 49.1802 15.6226 47.9156 15.6226C46.6449 15.6226 46.5117 15.5776 46.2803 15.0697C46.0639 14.5949 46.0953 14.4498 46.5024 14.0427C46.7631 13.782 46.9765 13.6882 46.9765 13.8344C46.9765 13.9806 47.1233 14.1002 47.3027 14.1002C47.4906 14.1002 47.6289 14.2967 47.6289 14.5635C47.6289 14.9839 47.7195 15.0165 48.6076 14.9164C49.1459 14.8558 49.5863 14.892 49.5863 14.9969C49.5863 15.1018 49.7331 15.1877 49.9125 15.1877C50.0919 15.1877 50.2387 15.1116 50.2387 15.0188C50.2387 14.9259 50.6395 14.8882 51.1294 14.9349C51.9053 15.0089 52.0094 14.9676 51.9377 14.6144C51.8735 14.2981 51.6733 14.2148 51.027 14.2356C50.2672 14.26 50.2068 14.2194 50.2973 13.7462C50.3515 13.4625 50.3116 13.2303 50.2086 13.2303C50.1055 13.2303 50.0213 13.475 50.0213 13.774C50.0213 14.0731 49.9234 14.3177 49.8038 14.3177C49.6842 14.3177 49.5863 14.2199 49.5863 14.1003C49.5863 13.9806 49.0585 13.8828 48.4134 13.8828C47.5419 13.8828 47.2064 13.794 47.1078 13.5369C46.8721 12.9227 47.1878 12.7954 48.9467 12.7954C50.6438 12.7954 50.6737 12.8047 50.6737 13.3391C50.6737 13.6774 50.7969 13.8828 50.9999 13.8828C51.1872 13.8828 51.3262 13.6866 51.3262 13.4224C51.3262 13.0487 51.4284 12.9817 51.8699 13.0661C52.1689 13.1232 52.4136 13.0857 52.4136 12.9827C52.4136 12.8796 52.1607 12.7953 51.8517 12.7953C51.5083 12.7953 51.3241 12.6929 51.3778 12.5317C51.499 12.1681 53.5188 12.3033 53.9282 12.7024C54.2073 12.9744 54.2006 13.0128 53.8738 13.0128C53.6688 13.0128 53.501 13.1107 53.501 13.2303C53.501 13.5096 53.8702 13.5126 54.042 13.2342C54.1249 13.1001 54.331 13.1195 54.5985 13.2866C54.9566 13.5102 55.0234 13.7999 55.0234 15.1307V16.7095H52.4089C49.8312 16.7095 49.791 16.7024 49.5467 16.1663ZM8.26435 16.0577C8.26435 15.7387 8.40934 15.6227 8.80806 15.6227C9.20678 15.6227 9.35177 15.7387 9.35177 16.0577C9.35177 16.3766 9.20678 16.4926 8.80806 16.4926C8.40934 16.4926 8.26435 16.3766 8.26435 16.0577ZM11.3091 16.0577C11.3091 15.7387 11.4541 15.6227 11.8528 15.6227C12.2516 15.6227 12.3965 15.7387 12.3965 16.0577C12.3965 16.3766 12.2516 16.4926 11.8528 16.4926C11.4541 16.4926 11.3091 16.3766 11.3091 16.0577ZM14.7255 16.3568C14.3521 15.9834 14.6047 15.6227 15.2398 15.6227C15.759 15.6227 15.892 15.7077 15.8356 16.0033C15.7614 16.3927 15.003 16.6342 14.7255 16.3568ZM17.7703 16.3568C17.3969 15.9834 17.6495 15.6227 18.2846 15.6227C18.8038 15.6227 18.9368 15.7077 18.8804 16.0033C18.8062 16.3927 18.0477 16.6342 17.7703 16.3568ZM21.0326 16.3568C20.6591 15.9834 20.9118 15.6227 21.5468 15.6227C22.066 15.6227 22.199 15.7077 22.1427 16.0033C22.0685 16.3927 21.31 16.6342 21.0326 16.3568ZM24.1407 16.0577C24.1407 15.7387 24.2857 15.6227 24.6844 15.6227C25.0831 15.6227 25.2281 15.7387 25.2281 16.0577C25.2281 16.3766 25.0831 16.4926 24.6844 16.4926C24.2857 16.4926 24.1407 16.3766 24.1407 16.0577ZM6.00404 15.4962C5.93143 15.307 5.87203 15.0613 5.87203 14.9503C5.87203 14.8283 9.93329 14.7708 16.1481 14.805L26.4243 14.8615L26.4938 15.3508C26.5504 15.7494 26.4595 15.8402 26.0044 15.8402C25.6527 15.8402 25.4456 15.7193 25.4456 15.5139C25.4456 15.2856 25.2153 15.1877 24.6776 15.1877C24.1955 15.1877 23.8629 15.3092 23.7844 15.5139C23.713 15.6999 23.3886 15.8402 23.03 15.8402C22.6157 15.8402 22.4008 15.7287 22.4008 15.5139C22.4008 15.2723 22.1471 15.1877 21.4221 15.1877C20.6972 15.1877 20.4435 15.2723 20.4435 15.5139C20.4435 15.7314 20.226 15.8402 19.791 15.8402C19.356 15.8402 19.1385 15.7314 19.1385 15.5139C19.1385 15.2856 18.9082 15.1877 18.3705 15.1877C17.8885 15.1877 17.5559 15.3092 17.4773 15.5139C17.406 15.6999 17.0816 15.8402 16.723 15.8402C16.3087 15.8402 16.0938 15.7287 16.0938 15.5139C16.0938 15.2783 15.8521 15.1877 15.2238 15.1877C14.5956 15.1877 14.3539 15.2783 14.3539 15.5139C14.3539 15.7398 14.1269 15.8402 13.616 15.8402C13.1607 15.8402 12.8301 15.7152 12.7529 15.5139C12.6743 15.3092 12.3417 15.1877 11.8597 15.1877C11.322 15.1877 11.0916 15.2856 11.0916 15.5139C11.0916 15.7418 10.8621 15.8402 10.3305 15.8402C9.79883 15.8402 9.56926 15.7418 9.56926 15.5139C9.56926 15.2856 9.33894 15.1877 8.80124 15.1877C8.31918 15.1877 7.98661 15.3092 7.90804 15.5139C7.73227 15.972 6.18107 15.9575 6.00404 15.4962ZM28.2729 15.4875C28.2729 15.1948 28.2159 15.1819 27.9388 15.4119C27.6591 15.644 27.4968 15.5863 26.9422 15.0579C26.4023 14.5435 26.3 14.2999 26.3892 13.7416C26.4722 13.222 26.3812 12.9462 26.0124 12.5998C25.5342 12.1506 25.3743 12.1431 16.2429 12.1431H6.95945V10.9469V9.75079H14.9024H22.8454L24.5756 10.6207L26.3059 11.4907H30.9866H35.6673V12.2518C35.6673 12.9973 35.2257 13.3127 34.9061 12.7956C34.8263 12.6664 33.4628 12.5781 31.5489 12.5781C28.9495 12.5781 28.2738 12.6412 28.0554 12.9043C27.8847 13.11 27.8701 13.2305 28.0159 13.2305C28.1431 13.2305 28.3077 13.1327 28.3816 13.013C28.4607 12.8851 29.7468 12.7956 31.5046 12.7956C34.801 12.7956 35.6628 13.0095 35.6656 13.8286L35.6673 14.3179H40.5607H45.4541V13.7742C45.4541 13.3755 45.57 13.2305 45.889 13.2305C46.3875 13.2305 46.4406 13.6023 46.0212 14.1548C45.7615 14.4971 45.2488 14.5354 40.9351 14.5354C38.2966 14.5354 35.983 14.5949 35.7938 14.6674C35.6046 14.7401 35.4498 14.9327 35.4498 15.0956C35.4498 15.2695 35.3151 15.34 35.1236 15.2665C34.917 15.1872 34.7974 15.2694 34.7974 15.4908C34.7974 15.7963 34.3864 15.8403 31.5351 15.8403C28.6709 15.8403 28.2729 15.7974 28.2729 15.4875ZM34.3205 14.0461L34.2537 13.1218L31.8614 13.0586C28.7405 12.9761 28.4904 13.0429 28.4904 13.9597C28.4904 14.3561 28.5556 14.7457 28.6353 14.8255C28.7151 14.9052 30.0419 14.9705 31.5839 14.9705H34.3874L34.3205 14.0461ZM28.9253 13.9848V13.2168L31.4808 13.2781L34.0362 13.3394L34.1043 14.0462L34.1725 14.753H31.5489H28.9253L28.9253 13.9848ZM26.968 12.2519C26.968 12.0724 26.8212 11.9256 26.6417 11.9256C26.4623 11.9256 26.3155 12.0724 26.3155 12.2519C26.3155 12.4313 26.4623 12.5781 26.6417 12.5781C26.8212 12.5781 26.968 12.4313 26.968 12.2519ZM8.9168 11.0555C8.9168 10.7655 8.77181 10.6205 8.48183 10.6205C8.19186 10.6205 8.04687 10.7655 8.04687 11.0555C8.04687 11.3455 8.19186 11.4905 8.48183 11.4905C8.77181 11.4905 8.9168 11.3455 8.9168 11.0555ZM8.26435 11.0555C8.26435 10.9359 8.36222 10.838 8.48183 10.838C8.60144 10.838 8.69932 10.9359 8.69932 11.0555C8.69932 11.1751 8.60145 11.273 8.48183 11.273C8.36222 11.273 8.26435 11.1751 8.26435 11.0555ZM44.3667 15.6227C44.3667 15.503 44.4645 15.4052 44.5842 15.4052C44.7038 15.4052 44.8016 15.503 44.8016 15.6227C44.8016 15.7423 44.7038 15.8401 44.5842 15.8401C44.4645 15.8401 44.3667 15.7423 44.3667 15.6227ZM55.9368 15.1442C55.1308 14.3382 55.4209 14.307 63.5042 14.3319C67.9576 14.3455 71.3855 14.4415 71.4552 14.5543C71.5227 14.6634 71.9635 14.7527 72.4349 14.7527C73.0518 14.7527 73.292 14.8441 73.292 15.0789C73.292 15.3634 72.1974 15.4052 64.7449 15.4052C58.3871 15.4052 56.1309 15.3383 55.9368 15.1442ZM6.15463 14.1237C6.01328 13.8974 5.95711 13.6527 6.02982 13.58C6.10252 13.5073 7.42007 13.4478 8.95771 13.4478C11.7287 13.4478 11.7556 13.443 12.0011 12.9041C12.2366 12.3874 12.339 12.3604 14.0626 12.3604H15.8763V13.4478V14.5352H11.144C6.73704 14.5352 6.39395 14.5069 6.15463 14.1237ZM10.4392 14.1003C10.4392 13.9715 9.64175 13.8828 8.48183 13.8828C7.32192 13.8828 6.52448 13.9715 6.52448 14.1003C6.52448 14.2292 7.32192 14.3178 8.48183 14.3178C9.64175 14.3178 10.4392 14.2292 10.4392 14.1003ZM25.6156 14.2634C25.7384 14.1139 25.8839 13.7469 25.9388 13.4479C26.0125 13.0471 26.0466 13.1185 26.0684 13.7197C26.0909 14.3392 26.0132 14.5353 25.7452 14.5353C25.4888 14.5353 25.4534 14.4609 25.6156 14.2634ZM16.0938 13.4479C16.0938 12.9062 16.1797 12.6054 16.3113 12.6867C16.4309 12.7606 16.5287 13.1032 16.5287 13.4479C16.5287 13.7926 16.4309 14.1351 16.3113 14.2091C16.1797 14.2904 16.0938 13.9896 16.0938 13.4479ZM21.5721 13.5022L21.6396 12.6867L23.2705 12.6217C24.5744 12.5697 24.8469 12.6112 24.6298 12.8283C24.2036 13.2544 24.3109 13.8779 24.8475 14.0935C25.1972 14.2341 24.7899 14.2942 23.4207 14.304L21.5046 14.3179L21.5721 13.5022ZM55.2409 13.777C55.2409 13.5992 54.8739 13.1125 54.4253 12.6955C53.7671 12.0835 53.4339 11.9361 52.6983 11.9314C52.197 11.9282 51.7263 11.8276 51.6524 11.708C51.5659 11.5681 52.3625 11.4905 53.8855 11.4905H56.2529L56.1576 12.1402C56.0271 13.0296 56.2704 13.8828 56.6545 13.8828C57.0387 13.8828 57.282 13.0296 57.1514 12.1402C57.0784 11.6424 57.1402 11.4905 57.4157 11.4905C57.6912 11.4905 57.753 11.6424 57.68 12.1402C57.5494 13.0296 57.7928 13.8828 58.1769 13.8828C58.561 13.8828 58.8043 13.0296 58.6738 12.1402C58.596 11.61 58.6558 11.4905 58.999 11.4905C59.2929 11.4905 59.3799 11.594 59.2878 11.834C59.0762 12.3854 59.3943 13.8828 59.7229 13.8828C60.1064 13.8828 60.3281 12.9691 60.1744 12.0219C60.0575 11.3014 60.1225 11.2136 61.8333 9.78423C62.8127 8.96597 63.7483 8.13432 63.9125 7.93614C64.1745 7.61987 64.8195 7.5758 69.1865 7.5758H74.162V9.31567C74.162 10.2726 74.0777 11.0555 73.9746 11.0555C73.8716 11.0555 73.8341 10.8109 73.8912 10.5118C73.9484 10.2128 73.897 9.96812 73.7765 9.96812C73.6562 9.96812 73.5714 10.1394 73.588 10.3487C73.614 10.6758 73.3835 10.7382 71.949 10.7925C70.3589 10.8528 70.2753 10.8321 70.1844 10.3576C70.0994 9.91392 70.0857 9.92398 70.0593 10.4496L70.0297 11.0398L67.9092 11.102L65.7888 11.1643L65.7245 12.6323L65.6602 14.1003H60.4505C55.9856 14.1003 55.2409 14.054 55.2409 13.777ZM61.7224 12.7431C61.6737 11.8981 61.5653 11.586 61.3034 11.5362C60.8292 11.4462 60.6493 11.996 60.8147 13.0302C60.9185 13.6795 61.0509 13.8828 61.3696 13.8828C61.7378 13.8828 61.7802 13.7457 61.7224 12.7431ZM63.4622 12.7431C63.4115 11.8622 63.3101 11.5869 63.0159 11.531C62.6903 11.4691 62.6353 11.6338 62.6353 12.6707C62.6353 13.7481 62.6849 13.8828 63.0817 13.8828C63.4834 13.8828 63.5214 13.7689 63.4622 12.7431ZM65.4626 13.1183C65.4626 12.7684 64.8673 12.5271 64.6943 12.8069C64.623 12.9223 64.6281 13.2168 64.7057 13.4613C64.8183 13.8162 64.9088 13.8542 65.1547 13.6502C65.3241 13.5096 65.4626 13.2703 65.4626 13.1183ZM72.8571 8.42246C72.8571 8.15575 72.7039 8.01077 72.4221 8.01077C72.0074 8.01077 71.8051 8.62614 72.1171 8.93821C72.3606 9.18164 72.8571 8.83557 72.8571 8.42246ZM72.2046 8.4457C72.2046 8.32609 72.3025 8.22821 72.4221 8.22821C72.5417 8.22821 72.6396 8.32608 72.6396 8.4457C72.6396 8.56531 72.5417 8.66318 72.4221 8.66318C72.3025 8.66318 72.2046 8.56532 72.2046 8.4457ZM66.1184 12.741C66.1209 11.7831 66.184 11.4781 66.3325 11.708C66.4731 11.9254 66.5445 11.9436 66.5467 11.7623C66.5485 11.6128 66.7073 11.4905 66.8995 11.4905C67.1063 11.4905 67.2023 11.6123 67.1345 11.7888C67.07 11.9569 67.2933 12.2891 67.6462 12.55C68.4066 13.1122 68.7835 13.1422 68.6781 12.6323C68.6348 12.4229 68.4319 12.2653 68.2272 12.2819C68.0224 12.2985 67.8549 12.1843 67.8549 12.0281C67.8549 11.872 67.7326 11.6948 67.5831 11.6345C67.4335 11.5742 68.8771 11.5325 70.791 11.5419C73.1412 11.5534 73.7915 11.6008 72.7945 11.6878C71.1406 11.8322 70.9082 12.0285 70.903 13.2847L70.9002 14.1003L69.2147 14.0831C68.2877 14.0734 67.6515 14.0166 67.8011 13.9562C68.1797 13.8034 68.1417 13.4478 67.7467 13.4478C67.5673 13.4478 67.4205 13.5946 67.4205 13.774C67.4205 13.9915 67.203 14.1002 66.768 14.1002H66.1156L66.1184 12.741ZM66.4811 13.4071C66.4117 13.2336 66.3601 13.2851 66.3497 13.5384C66.3402 13.7677 66.3917 13.8962 66.4639 13.8239C66.5362 13.7516 66.544 13.5641 66.4811 13.4071ZM70.6133 13.4071C70.5438 13.2336 70.4923 13.2851 70.4819 13.5384C70.4722 13.7677 70.5239 13.8962 70.5961 13.8239C70.6684 13.7516 70.6761 13.5641 70.6133 13.4071ZM35.9273 12.8497C35.986 11.9339 36.0552 11.8084 36.5373 11.7439C36.8363 11.7039 37.1739 11.5815 37.2876 11.472C37.5723 11.1978 43.6526 11.2149 43.823 11.4905C43.8969 11.6101 44.2452 11.708 44.597 11.708C45.2195 11.708 45.2366 11.737 45.2366 12.7954V13.8828H40.5488H35.861L35.9273 12.8497ZM36.7547 13.1216C36.7547 12.9422 36.6626 12.7954 36.5501 12.7954C36.2758 12.7954 36.0794 13.135 36.2532 13.3087C36.4981 13.5537 36.7547 13.4579 36.7547 13.1216ZM44.8343 13.1216C44.8343 13.0079 44.7291 12.8799 44.6005 12.837C44.4719 12.7942 44.3667 12.9222 44.3667 13.1216C44.3667 13.3209 44.4719 13.449 44.6005 13.4061C44.7291 13.3633 44.8343 13.2352 44.8343 13.1216ZM5.65454 12.7954C5.65454 12.3804 5.79953 12.3604 8.80806 12.3604C10.5425 12.3604 11.9616 12.4387 11.9616 12.5344C11.9616 13.0969 11.3071 13.2303 8.54708 13.2303C5.79953 13.2303 5.65454 13.2085 5.65454 12.7954ZM45.4541 12.2517V11.4905H47.9987C50.0147 11.4905 50.4875 11.5461 50.2752 11.7584C50.1278 11.9058 49.2703 12.0636 48.3697 12.1091C47.0568 12.1754 46.6813 12.2732 46.4758 12.6023C46.3348 12.8281 46.0472 13.0128 45.8367 13.0128C45.5444 13.0128 45.4541 12.8332 45.4541 12.2517ZM1.18585e-05 12.5235C-1.41949e-05 12.4338 0.122298 12.3589 0.271818 12.3571C0.452272 12.3546 0.433992 12.2844 0.21745 12.1474C-0.0681947 11.9668 -0.0619845 11.8944 0.267366 11.5649C0.614374 11.2178 0.61626 11.1585 0.291725 10.7999C0.0166883 10.496 -0.00408791 10.3437 0.196501 10.102C0.395218 9.86261 0.389725 9.76747 0.172141 9.68017C0.0176287 9.61816 1.23689 9.55972 2.88161 9.55027L5.87201 9.53307V10.8113C5.87201 12.6041 5.72711 12.6866 2.57635 12.6866C1.15939 12.6866 3.79119e-05 12.6132 1.18585e-05 12.5235ZM2.39229 11.915C2.39229 11.622 2.02397 11.4785 1.64517 11.6239C1.38106 11.7253 1.35312 11.8303 1.5327 12.0466C1.77584 12.3396 2.39229 12.2452 2.39229 11.915ZM3.91467 11.915C3.91467 11.5666 3.45803 11.4552 3.13366 11.7244C2.88774 11.9285 2.87173 12.036 3.06909 12.158C3.36872 12.3431 3.91467 12.1863 3.91467 11.915ZM5.43706 11.915C5.43706 11.8152 5.33067 11.6679 5.20063 11.5875C4.89865 11.4009 4.47292 11.8145 4.65828 12.1145C4.81265 12.3642 5.43706 12.2043 5.43706 11.915ZM2.27426 10.4181C2.34307 10.3067 2.29523 10.1512 2.16793 10.0726C1.84607 9.87364 1.24753 10.1343 1.41266 10.4015C1.58264 10.6765 2.10826 10.6866 2.27426 10.4181ZM3.76305 10.2973C3.78663 10.1793 3.63466 10.0498 3.42533 10.0095C3.18728 9.96361 3.04474 10.0703 3.04474 10.2943C3.04474 10.6727 3.68747 10.6754 3.76305 10.2973ZM5.38279 10.3487C5.24577 9.93716 4.56712 9.87865 4.56712 10.2784C4.56712 10.4801 4.75307 10.6205 5.02022 10.6205C5.28598 10.6205 5.43588 10.5081 5.38279 10.3487ZM46.932 12.5377C47.1223 12.3526 50.4147 12.2464 50.588 12.4197C50.6575 12.4892 49.8288 12.5776 48.7465 12.6163C47.6642 12.655 46.8477 12.6195 46.932 12.5377ZM6.08951 10.8509C6.08951 10.1403 6.18738 9.49834 6.307 9.42441C6.44354 9.34002 6.52448 9.82087 6.52448 10.7165C6.52448 11.5225 6.42987 12.143 6.307 12.143C6.18641 12.143 6.08951 11.5673 6.08951 10.8509ZM35.8848 11.2078C35.8848 10.4891 36.3843 10.4031 40.5607 10.4031C44.7371 10.4031 45.2366 10.4891 45.2366 11.2078C45.2366 11.5382 44.238 11.5927 44.0404 11.273C43.9603 11.1433 42.5563 11.0555 40.5607 11.0555C38.5651 11.0555 37.1611 11.1433 37.081 11.273C36.8834 11.5927 35.8848 11.5382 35.8848 11.2078ZM24.5253 10.2827L23.0613 9.53121L15.0104 9.49675C10.5824 9.47777 6.95945 9.38036 6.95945 9.28024C6.95945 9.18011 7.79782 9.09819 8.8225 9.09819H10.6856L10.6167 8.50011C10.5486 7.90748 10.5316 7.90145 8.75369 7.83886L6.95945 7.77569L6.97662 6.86018C6.98609 6.35665 7.04315 6.067 7.10348 6.21652C7.25628 6.5952 7.6119 6.55717 7.6119 6.16215C7.6119 5.87632 9.02479 5.83593 19.023 5.83593C29.0768 5.83593 30.4192 5.87471 30.3089 6.16215C30.2276 6.37393 30.3144 6.48838 30.5564 6.48838C30.7984 6.48838 30.8853 6.37393 30.804 6.16215C30.7352 5.98273 30.7724 5.83593 30.8868 5.83593C31.0055 5.83593 31.0725 6.55844 31.043 7.52143L30.9914 9.20693H39.3645H47.7377L47.8008 7.41269L47.864 5.61844H52.9661C56.9619 5.61844 58.0682 5.67868 58.0682 5.89633C58.0682 6.04918 58.265 6.34278 58.5056 6.54879C59.0685 7.03077 61.005 7.06234 61.4702 6.59712C61.7106 6.35677 62.2982 6.27089 63.7023 6.27089C65.5621 6.27089 65.6228 6.25449 66.2128 5.59233C66.6957 5.05031 66.7577 4.87384 66.5206 4.71541C66.3198 4.5812 66.4699 4.5369 66.985 4.57841C67.6478 4.63186 67.7556 4.72205 67.8187 5.27614C67.8586 5.62615 68.1393 6.23782 68.4426 6.63541L68.994 7.35831H66.5559H64.1177L63.0313 8.28262C62.4337 8.79099 61.4783 9.62286 60.9082 10.1312L59.8717 11.0555H52.7152C45.7943 11.0555 45.5498 11.0412 45.2871 10.6206C45.0298 10.2086 44.7799 10.1856 40.5607 10.1856C36.3415 10.1856 36.0916 10.2086 35.8343 10.6206C35.5757 11.0347 35.3333 11.055 30.776 11.0448L25.9893 11.0342L24.5253 10.2827ZM55.8933 8.98944V7.14083H55.0234H54.1534V8.98944V10.8381H55.0234H55.8933V8.98944ZM54.3709 8.98944V7.35831H55.0234H55.6758V8.98944V10.6206H55.0234H54.3709V8.98944ZM18.6578 8.44573L18.5787 7.90203L22.3547 7.87478C24.4315 7.85979 26.2163 7.76195 26.321 7.6573C26.4297 7.54859 25.5459 7.46702 24.2593 7.46702C23.0207 7.46702 22.0527 7.54042 22.1082 7.63013C22.1636 7.71985 22.0271 7.79325 21.8049 7.79325C21.4769 7.79325 21.4163 7.65994 21.4834 7.08643L21.566 6.3796L19.428 6.45637C17.4553 6.52719 16.9777 6.67057 16.967 7.19517C16.9652 7.28488 17.8866 7.35828 19.0147 7.35828C20.8933 7.35828 21.0739 7.32148 21.1641 6.91998C21.2459 6.55538 21.2576 6.56453 21.2336 6.97435C21.2058 7.44739 21.1093 7.47147 18.8123 7.57848C17.4965 7.63976 15.3434 7.63976 14.0277 7.57848C11.8269 7.47595 11.6336 7.4322 11.614 7.03206C11.5977 6.70096 11.6143 6.68798 11.6835 6.97769C11.7621 7.30707 12.0523 7.35829 13.84 7.35829C15.8066 7.35829 15.899 7.33744 15.7675 6.92332C15.6825 6.65554 15.7285 6.48835 15.887 6.48835C16.0464 6.48835 16.1037 6.70174 16.0374 7.04855C15.9682 7.41031 16.005 7.53405 16.1412 7.39788C16.2571 7.2819 16.3184 7.01933 16.2773 6.81441C16.2125 6.49138 15.8769 6.43766 13.7558 6.4107L11.309 6.37964L11.3091 6.98454C11.3091 7.31724 11.4315 7.63242 11.581 7.68493C11.7305 7.73746 13.3198 7.8567 15.1127 7.94996C18.1493 8.1079 18.3755 8.14929 18.4168 8.55448C18.4513 8.89302 18.4363 8.90507 18.3489 8.60884C18.2528 8.28274 17.9554 8.22825 16.272 8.22825C14.615 8.22825 14.327 8.27935 14.4325 8.55448C14.5014 8.7339 14.4515 8.88071 14.3217 8.88071C14.1875 8.88071 14.1383 8.67961 14.2076 8.4144C14.2947 8.08136 14.2626 8.01504 14.0954 8.1823C13.9666 8.31111 13.9107 8.54541 13.9711 8.70297C14.0526 8.91526 14.6839 8.98945 16.409 8.98945H18.737L18.6578 8.44573ZM23.6785 8.4842C23.9473 8.15636 23.965 8.17212 23.8538 8.64017C23.7654 9.01205 23.797 9.09392 23.9642 8.92665C24.093 8.79784 24.1492 8.56354 24.089 8.40598C24.006 8.18857 23.4485 8.1361 21.7766 8.18832C19.8943 8.24713 19.5703 8.31045 19.5518 8.62329C19.5384 8.84912 19.4634 8.78107 19.356 8.44573L19.1819 7.90203L19.16 8.44573L19.1382 8.98945L21.2588 8.91917C22.9197 8.86412 23.4443 8.76983 23.6785 8.4842ZM50.5779 8.24912C50.4968 8.11803 50.2406 8.01077 50.0084 8.01077C49.5323 8.01077 49.4088 8.77864 49.8581 8.94525C50.2193 9.07913 50.7648 8.55151 50.5779 8.24912ZM49.8038 8.44574C49.8038 8.32612 49.8959 8.22825 50.0084 8.22825C50.121 8.22825 50.2735 8.32612 50.3475 8.44574C50.4214 8.56535 50.3293 8.66323 50.1428 8.66323C49.9563 8.66323 49.8038 8.56536 49.8038 8.44574ZM16.855 6.94412C16.855 6.5967 16.7816 6.3578 16.6919 6.41325C16.6021 6.46867 16.5287 6.75295 16.5287 7.04493C16.5287 7.33691 16.6021 7.5758 16.6919 7.5758C16.7816 7.5758 16.855 7.29155 16.855 6.94412ZM26.272 7.09734C26.864 6.50537 26.5097 6.37964 24.2494 6.37964C22.3631 6.37964 21.9664 6.43642 21.9692 6.70587C21.9721 6.99585 21.9959 6.99585 22.1833 6.70587C22.3538 6.44207 22.3948 6.47328 22.3975 6.86898C22.4007 7.33687 22.4799 7.35832 24.2059 7.35832C25.3199 7.35832 26.111 7.2584 26.272 7.09734ZM48.9338 6.14621C48.9338 5.94368 48.7859 5.83273 48.5713 5.87435C48.0256 5.98017 47.9507 6.48838 48.4807 6.48838C48.7479 6.48838 48.9338 6.34796 48.9338 6.14621ZM66.7675 6.2709C66.7675 6.15129 66.6696 6.05342 66.55 6.05342C66.4304 6.05342 66.3325 6.15129 66.3325 6.2709C66.3325 6.39051 66.4304 6.48838 66.55 6.48838C66.6696 6.48838 66.7675 6.39051 66.7675 6.2709ZM31.1859 8.79034C30.9974 8.29932 31.1837 7.29143 31.4808 7.19386C31.6643 7.13357 31.7526 7.35783 31.7526 7.88391V8.66322H39.7036C44.9489 8.66322 47.6089 8.73724 47.5202 8.88071C47.4345 9.01935 44.4709 9.09819 39.3449 9.09819C32.6113 9.09819 31.2848 9.04813 31.1859 8.79034ZM6.01111 8.7298C5.93461 8.65331 5.87203 8.26449 5.87203 7.86578C5.87203 7.36637 5.97352 7.14083 6.19825 7.14083C6.42503 7.14083 6.52448 7.36897 6.52448 7.88919C6.52448 8.62108 6.2886 9.0073 6.01111 8.7298ZM6.95945 8.43658C6.95945 8.0222 7.07214 7.99672 8.64259 8.05599C10.0426 8.10882 10.338 8.18352 10.3984 8.50011C10.4628 8.83715 10.2702 8.8807 8.71526 8.8807C7.09238 8.8807 6.95945 8.84709 6.95945 8.43658ZM10.0042 8.4457C10.0042 8.32302 9.38802 8.22822 8.59058 8.22822C7.79314 8.22822 7.17693 8.32302 7.17693 8.4457C7.17693 8.56838 7.79314 8.66319 8.59058 8.66319C9.38802 8.66319 10.0042 8.56838 10.0042 8.4457ZM5.00209 8.01071C5.00209 7.76905 5.14708 7.57574 5.32832 7.57574C5.50955 7.57574 5.65454 7.76905 5.65454 8.01071C5.65454 8.25235 5.50955 8.44567 5.32832 8.44567C5.14708 8.44567 5.00209 8.25235 5.00209 8.01071ZM32.0729 8.21871C31.9958 8.09386 32.043 7.85871 32.1779 7.69615C32.3624 7.47395 32.3535 7.37332 32.1423 7.29064C31.9878 7.23017 32.2528 7.23725 32.7313 7.30636C33.2098 7.37547 33.8757 7.59865 34.2111 7.80231C34.7415 8.12437 35.3755 8.1639 39.0795 8.1058C41.7119 8.06449 43.4265 7.95057 43.5696 7.80741C43.6983 7.6787 44.6514 7.57582 45.7151 7.57582C47.484 7.57582 47.6289 7.60873 47.6289 8.01079C47.6289 8.43757 47.484 8.44575 39.9211 8.44575C34.8015 8.44575 32.1661 8.3695 32.0729 8.21871ZM34.7974 7.83236C33.9455 7.44631 33.5567 7.05106 33.6558 6.67181C33.7531 6.29974 34.0622 6.27088 37.9509 6.27088C41.9582 6.27088 42.1461 6.28987 42.2549 6.70585C42.3601 7.10842 42.5686 7.14371 45.0531 7.17958L47.7377 7.21836L45.6716 7.38223C44.5352 7.47236 42.6298 7.66076 41.4372 7.8009C39.8518 7.9872 39.1656 7.99119 38.8847 7.81576C38.4052 7.51629 36.3927 7.49939 36.211 7.79332C36.0606 8.03675 35.2951 8.05788 34.7974 7.83236ZM68.8201 6.54273C67.7175 5.34784 67.877 5.07634 69.6867 5.06686L71.1848 5.05907L71.9422 6.1134C72.694 7.15979 72.9441 7.21595 73.1279 6.37966C73.214 5.98828 73.2474 6.00234 73.4612 6.51997C73.5919 6.83637 73.8275 7.14671 73.9848 7.20961C74.142 7.27252 73.2136 7.33172 71.9217 7.34117L69.5726 7.35837L68.8201 6.54273ZM70.3677 6.90437C70.5918 6.54173 70.0878 6.12589 69.7877 6.42591C69.5368 6.67687 69.6938 7.1408 70.0298 7.1408C70.1353 7.1408 70.2873 7.03441 70.3677 6.90437ZM74.3794 6.69819C74.3794 6.45474 74.2214 6.01434 74.0282 5.71951C73.478 4.87981 74.0282 5.09145 74.8979 6.05401C75.3304 6.53282 75.6843 6.97323 75.6843 7.03269C75.6843 7.09218 75.3907 7.1408 75.0319 7.1408C74.5207 7.1408 74.3794 7.045 74.3794 6.69819ZM31.4497 6.57931C31.377 6.3901 31.3176 6.14543 31.3176 6.0356C31.3176 5.91788 34.6655 5.8359 39.4733 5.8359H47.6289V6.37961V6.92332H45.1802C42.967 6.92332 42.7053 6.88147 42.4598 6.48835C42.2032 6.07757 41.9526 6.05339 37.9509 6.05339C33.9492 6.05339 33.6986 6.07756 33.442 6.48835C33.0984 7.0386 31.6512 7.10466 31.4497 6.57931ZM73.5006 6.04086C72.9283 5.23715 73.104 4.90916 73.7143 5.64198C74.107 6.11356 74.304 6.70584 74.068 6.70584C74.0164 6.70584 73.761 6.4066 73.5006 6.04086ZM4.73024 6.32992C3.86872 6.2398 3.7216 5.95058 4.13981 5.16915C4.44373 4.60128 6.59401 4.53171 6.37718 5.09676C6.27811 5.35495 6.3502 5.42193 6.65586 5.3557C6.88264 5.30657 7.04372 5.14983 7.01382 5.00742C6.97416 4.81852 7.66538 4.74848 9.56925 4.74848C11.5411 4.74848 12.1658 4.81493 12.1247 5.02033C12.0871 5.2085 11.3003 5.33675 9.56925 5.43695C6.47423 5.61609 6.52448 5.60532 6.52448 6.08963C6.52448 6.50228 6.46025 6.51089 4.73024 6.32992ZM58.775 6.35322C58.6255 6.28801 58.5031 6.09599 58.5031 5.92654C58.5031 5.67832 58.9997 5.61807 61.0586 5.61655C62.464 5.61529 64.1523 5.55048 64.8102 5.47204C65.8892 5.34339 65.9783 5.36345 65.7199 5.67683C65.5104 5.93106 64.8979 6.0546 63.4363 6.13743C62.3379 6.19969 60.9009 6.30039 60.243 6.36122C59.5851 6.42206 58.9245 6.41842 58.775 6.35322ZM72.1289 5.92295C71.6538 5.27083 71.8363 4.91605 72.3333 5.52557C72.6626 5.92939 72.6703 5.92967 72.5436 5.53336C72.4323 5.1852 72.4631 5.16423 72.7433 5.39688C73.1304 5.7181 73.194 6.15294 72.8201 5.92187C72.649 5.81614 72.6112 5.88315 72.7046 6.12652C72.9116 6.66612 72.5865 6.55115 72.1289 5.92295ZM12.469 5.07473C12.469 4.8953 12.5995 4.7485 12.759 4.7485C12.9185 4.7485 13.049 4.8953 13.049 5.07473C13.049 5.25415 12.9185 5.40095 12.759 5.40095C12.5995 5.40095 12.469 5.25415 12.469 5.07473ZM13.2665 4.96599C13.2665 4.72675 13.4051 4.53102 13.5746 4.53102C13.744 4.53102 13.9236 4.40868 13.9736 4.25916C14.0369 4.06986 14.6313 3.98731 15.9311 3.98731C16.9577 3.98731 17.8461 4.03626 17.9052 4.09605C17.9643 4.15585 17.961 4.47393 17.8979 4.80287C17.7882 5.37359 17.7269 5.40017 16.5578 5.38378C15.8839 5.37435 15.4549 5.31726 15.6045 5.25691C15.9187 5.13013 15.9708 4.3976 15.6785 4.21692C15.3402 4.00789 14.7889 4.34056 14.7889 4.75364C14.7889 4.97011 14.9112 5.19658 15.0607 5.25691C15.2103 5.31727 14.8677 5.37434 14.2996 5.38378C13.4058 5.39864 13.2665 5.34229 13.2665 4.96599ZM14.2804 4.47665C14.2201 4.32712 14.1708 4.44945 14.1708 4.7485C14.1708 5.04754 14.2201 5.16988 14.2804 5.02035C14.3408 4.87084 14.3408 4.62616 14.2804 4.47665ZM17.6162 4.78475C17.6162 4.50157 17.3576 4.31323 17.1473 4.44321C16.9224 4.58223 17.1163 4.96599 17.4115 4.96599C17.5241 4.96599 17.6162 4.88442 17.6162 4.78475ZM18.0511 5.18346C18.0511 5.03998 25.1918 4.96599 39.0383 4.96599C52.8848 4.96599 60.0255 5.03998 60.0255 5.18346C60.0255 5.32695 52.8848 5.40095 39.0383 5.40095C25.1918 5.40095 18.0511 5.32696 18.0511 5.18346ZM60.3285 5.05694C60.4011 4.86773 60.4605 4.57413 60.4605 4.40449C60.4605 4.14981 61.0575 4.10212 63.8859 4.13085C65.7698 4.14996 66.9931 4.20513 66.6044 4.25337C66.1022 4.3157 65.8976 4.45405 65.8976 4.73129C65.8976 5.04911 65.6496 5.14742 64.5608 5.26123C63.8255 5.33807 62.5428 5.40095 61.7102 5.40095C60.4192 5.40095 60.2159 5.35034 60.3285 5.05694ZM61.9444 4.67611C61.9851 4.46633 61.876 4.31353 61.6854 4.31353C61.2814 4.31353 61.0375 4.66806 61.2288 4.97746C61.4255 5.29576 61.8597 5.11291 61.9444 4.67611ZM61.3304 4.7485C61.3304 4.62889 61.4283 4.53102 61.5479 4.53102C61.6675 4.53102 61.7654 4.62889 61.7654 4.7485C61.7654 4.86812 61.6675 4.96599 61.5479 4.96599C61.4283 4.96599 61.3304 4.86812 61.3304 4.7485ZM15.048 4.73216C15.0909 4.60358 15.2189 4.49837 15.3326 4.49837C15.4462 4.49837 15.5743 4.60358 15.6171 4.73216C15.66 4.86075 15.5319 4.96596 15.3326 4.96596C15.1332 4.96596 15.0052 4.86075 15.048 4.73216ZM18.5638 4.42225C18.9436 4.04245 22.2851 3.95036 22.5095 4.31351C22.6846 4.59668 23.7057 4.59668 23.7057 4.31351C23.7057 4.19389 23.9504 4.09603 24.2494 4.09603C24.5485 4.09603 24.7931 4.19389 24.7931 4.31351C24.7931 4.43312 25.0867 4.53099 25.4456 4.53099C25.8044 4.53099 26.098 4.43312 26.098 4.31351C26.098 4.18558 26.8592 4.09603 27.9466 4.09603C29.0341 4.09603 29.7953 4.18558 29.7953 4.31351C29.7953 4.59668 30.8164 4.59668 30.9914 4.31351C31.1664 4.03034 32.1876 4.03034 32.1876 4.31351C32.1876 4.59668 33.2087 4.59668 33.3837 4.31351C33.5611 4.02657 37.1897 4.02657 37.1897 4.31351C37.1897 4.43312 37.4344 4.53099 37.7334 4.53099C38.0325 4.53099 38.2771 4.43312 38.2771 4.31351C38.2771 4.03034 39.2983 4.03034 39.4733 4.31351C39.6483 4.59668 40.6694 4.59668 40.6694 4.31351C40.6694 4.18558 41.4306 4.09603 42.5181 4.09603C43.6055 4.09603 44.3667 4.18558 44.3667 4.31351C44.3667 4.43312 44.6056 4.53099 44.8975 4.53099C45.1895 4.53099 45.4889 4.43312 45.5628 4.31351C45.7378 4.03034 46.759 4.03034 46.759 4.31351C46.759 4.43312 47.0037 4.53099 47.3027 4.53099C47.6017 4.53099 47.8464 4.43312 47.8464 4.31351C47.8464 4.02657 51.475 4.02657 51.6524 4.31351C51.8274 4.59668 52.8485 4.59668 52.8485 4.31351C52.8485 4.03034 53.8697 4.03034 54.0447 4.31351C54.2197 4.59668 55.2409 4.59668 55.2409 4.31351C55.2409 4.18558 56.0021 4.09603 57.0895 4.09603C58.3025 4.09603 58.9381 4.17929 58.9381 4.33819C58.9381 4.48356 59.1989 4.54208 59.5905 4.4846C59.9494 4.43195 60.243 4.46974 60.243 4.56866C60.243 4.66755 50.7918 4.74848 39.2403 4.74848C20.5712 4.74848 18.2738 4.71223 18.5638 4.42225ZM61.3304 3.31125C61.3304 2.82993 61.4053 2.76276 61.8245 2.86798C62.3395 2.99723 63.7341 2.64882 64.4839 2.20359C64.8566 1.98228 64.88 1.88176 64.647 1.50123C64.204 0.777437 64.3244 0.616281 65.3086 0.616281C66.1207 0.616281 66.3609 0.737445 67.1572 1.54882C67.849 2.25372 68.0724 2.65189 68.0724 3.17995C68.0724 4.02192 67.7407 4.10201 67.5414 3.30813C67.4107 2.78723 67.3284 2.74927 66.5936 2.87077C66.151 2.94395 65.5197 3.0049 65.1908 3.00621C64.7385 3.00803 64.5927 3.11463 64.5927 3.44357C64.5927 3.83987 64.4477 3.87854 62.9615 3.87854C61.3486 3.87854 61.3304 3.87229 61.3304 3.31125ZM66.9442 2.08114C67.0308 1.63169 66.4029 1.32884 66.0716 1.6602C65.7402 1.99156 66.0431 2.6194 66.4925 2.53284C66.7008 2.49271 66.9041 2.28946 66.9442 2.08114ZM66.266 2.21708C66.0922 2.04332 66.2886 1.7037 66.5629 1.7037C66.6754 1.7037 66.7675 1.8505 66.7675 2.02993C66.7675 2.36625 66.5109 2.462 66.266 2.21708ZM64.8102 3.55231C64.8102 3.32987 65.035 3.22514 65.517 3.22312C65.9057 3.2213 66.4605 3.15682 66.7498 3.07942C67.1845 2.96314 67.251 3.00338 67.1329 3.31117C67.0481 3.53228 67.0774 3.62965 67.205 3.55077C67.3232 3.47769 67.42 3.52155 67.42 3.64822C67.42 3.78473 66.8885 3.87854 66.1151 3.87854C65.1001 3.87854 64.8102 3.80605 64.8102 3.55231ZM14.3995 1.86681C14.4569 0.235789 14.504 0.066655 14.9177 0.00756453C15.292 -0.0458852 15.4584 0.1666 15.8547 1.20373C16.1197 1.89736 16.5938 2.73403 16.9083 3.06298L17.4801 3.66106H15.9082H14.3363L14.3995 1.86681ZM62.1346 2.65289C61.896 2.41427 61.9572 1.74521 62.2333 1.57457C62.3711 1.48943 62.6021 1.5815 62.7467 1.77921C63.1193 2.28886 63.7037 2.22447 63.9254 1.64933C64.0896 1.2237 64.1336 1.20818 64.2639 1.53017C64.4681 2.03481 64.2775 2.27762 63.5641 2.42157C63.2327 2.48846 62.8096 2.60201 62.624 2.67391C62.4383 2.74582 62.2181 2.73636 62.1346 2.65289Z" />
</svg>
