<svg width="100" height="41" viewBox="0 0 100 41"  xmlns="http://www.w3.org/2000/svg">
<path d="M28.0602 40.7359C27.9827 40.6105 28.0774 40.2665 28.2708 39.9715C28.5479 39.5485 28.8087 39.4351 29.5037 39.4351C30.0358 39.4351 30.3317 39.3485 30.2503 39.2167C30.0585 38.9064 28.0127 38.9402 27.9076 39.2553C27.8587 39.4021 27.7035 39.4392 27.5458 39.3417C27.1528 39.0989 28.037 38.512 28.6707 38.5951C28.9388 38.6302 29.1845 38.5633 29.2167 38.4464C29.3016 38.1374 27.5424 38.0526 27.1859 38.3485C27.0198 38.4863 26.7709 38.5291 26.6327 38.4437C26.2536 38.2095 26.836 37.9135 27.6839 37.9095C28.0743 37.9079 28.3937 37.7961 28.3937 37.6615C28.3937 37.4975 27.9604 37.4482 27.0785 37.512C26.2071 37.575 25.789 37.5286 25.8396 37.3744C25.8816 37.2464 26.3283 37.1114 26.8322 37.0743C27.3361 37.0372 27.6913 36.9144 27.6214 36.8013C27.4378 36.5043 25.336 36.5406 25.336 36.8409C25.336 37.0118 25.2533 37.0177 25.0629 36.8602C24.9128 36.736 24.4955 36.6011 24.1357 36.5604C23.6024 36.5002 23.4608 36.3654 23.3692 35.8313C23.2691 35.2465 23.1514 35.1601 22.2761 35.0284C21.7367 34.9472 20.8881 34.8735 20.3904 34.8646C19.799 34.854 19.442 34.7349 19.3598 34.5208C19.2597 34.2599 18.7908 34.1932 17.0578 34.1932C15.0734 34.1932 14.8693 34.2317 14.7429 34.63C14.6548 34.9076 14.4124 35.0668 14.078 35.0668C13.4317 35.0668 12.9795 35.7317 12.7792 36.9768C12.5372 38.4803 12.2312 38.284 12.2312 36.6254C12.2312 35.3034 12.3064 35.0109 12.7966 34.4283L13.3621 33.7563H18.9862H24.6104L28.2494 36.7315C31.4239 39.3268 31.8884 39.7869 31.8884 40.3353V40.964H30.0447C28.9995 40.964 28.1401 40.8652 28.0602 40.7359ZM32.2838 40.2306C32.2228 39.5711 31.832 39.1855 28.4046 36.4026L24.5933 33.308L19.0121 33.3268C14.1108 33.3432 13.3767 33.3905 12.9854 33.7147C12.1142 34.4367 11.9018 34.9337 11.7638 36.5735C11.6664 37.7308 11.6411 37.3247 11.6804 35.2331C11.7181 33.2228 11.8271 32.1235 12.0106 31.9023C12.4165 31.4133 13.3401 31.4804 13.4783 32.009C13.5845 32.4148 13.7763 32.4458 16.1804 32.4458C18.5447 32.4458 18.7884 32.4081 19.002 32.009C19.2082 31.6236 19.4343 31.5773 20.9208 31.6156L22.6058 31.659L21.0223 31.7343C19.8916 31.7882 19.4388 31.8924 19.4388 32.099C19.4388 32.3116 19.8872 32.3961 21.1315 32.4179C22.8693 32.4484 23.5467 32.2527 23.2674 31.8009C23.1482 31.6081 23.9725 31.5433 26.5702 31.5413C28.4741 31.5398 30.4004 31.5364 30.8509 31.5335L31.6699 31.5285V22.5954V13.6622H32.216H32.762L32.7622 23.8731L32.7625 34.0839H30.3237C28.8227 34.0839 27.8556 34.1716 27.8084 34.3121C27.7663 34.4376 28.8603 35.4205 30.2395 36.4962L32.7472 38.4522L32.7546 39.708C32.7625 41.0497 32.397 41.4554 32.2838 40.2306ZM33.1988 26.5487C33.1988 12.6765 33.214 12.1334 33.6023 12.1334C33.8242 12.1334 34.1051 12.3545 34.2265 12.6248C34.391 12.9912 34.4571 12.3945 34.4862 10.2798C34.5077 8.71978 34.5963 7.37234 34.6832 7.2855C34.77 7.19867 37.1746 7.09905 40.0268 7.06414C43.3439 7.02353 45.1927 6.92197 45.1575 6.78226C45.1227 6.64434 43.1935 6.56384 39.9228 6.56384C33.7178 6.56384 34.038 6.42711 33.9482 9.11519C33.9148 10.1145 33.88 11.1041 33.8708 11.3143C33.861 11.5379 33.6824 11.6966 33.4406 11.6966C33.0078 11.6966 32.762 12.0986 32.762 12.8065C32.762 13.1078 32.6086 13.2255 32.216 13.2255C31.7071 13.2255 31.6699 13.1519 31.6699 12.1442C31.6699 11.4058 31.5651 11.0044 31.3393 10.878C31.1574 10.7762 30.8379 10.0166 30.6294 9.18998C30.4209 8.36338 30.1283 7.64758 29.9792 7.59933C29.7848 7.53641 29.7461 7.7017 29.8426 8.18385C30.0038 8.98982 29.6411 9.51242 28.9207 9.51242C28.174 9.51242 27.8291 8.75725 28.269 8.08577C28.4577 7.79774 28.6122 7.50947 28.6122 7.44518C28.6122 7.38088 25.4179 7.32829 21.5137 7.32829C17.6096 7.32829 14.4153 7.26488 14.4153 7.18738C14.4153 7.10988 14.6856 6.61863 15.0159 6.09571L15.6166 5.14494L30.9601 5.14454C39.3991 5.14433 46.3774 5.14097 46.4675 5.13725C46.8133 5.12296 46.7727 6.32764 46.4185 6.58659C46.009 6.88604 46.3052 7.17926 46.8183 6.98236C47.0247 6.90316 47.1795 6.51743 47.2203 5.98083L47.2865 5.10812L50.4535 5.07147C52.3083 5.05002 53.6657 4.94434 53.7297 4.81641C53.8311 4.61369 42.5802 4.49797 22.0876 4.49098C16.41 4.48905 15.7035 4.45112 15.9442 4.16118C16.2608 3.77968 19.4388 3.68037 19.4388 4.05196C19.4388 4.33604 20.2461 4.33604 20.4217 4.05196C20.5974 3.76759 21.6229 3.76759 21.6229 4.05196C21.6229 4.17209 21.8195 4.27038 22.0598 4.27038C22.3 4.27038 22.4966 4.1721 22.4966 4.05196C22.4966 3.73035 25.6267 3.77484 25.953 4.10109C26.1641 4.31221 26.3109 4.31221 26.6489 4.10109C27.1655 3.77845 27.9569 3.74872 27.9569 4.05196C27.9569 4.17209 28.1477 4.27038 28.3809 4.27038C28.614 4.27038 28.8655 4.1721 28.9398 4.05196C29.1316 3.74166 31.8094 3.78056 32.3227 4.10109C32.6608 4.31221 32.8075 4.31221 33.0187 4.10109C33.3397 3.78001 34.2909 3.74328 34.2909 4.05196C34.2909 4.33604 35.0982 4.33604 35.2738 4.05196C35.4691 3.73592 38.2973 3.77744 38.6209 4.10109C38.8321 4.31221 38.9788 4.31221 39.3169 4.10109C39.8637 3.75962 40.4636 3.75962 40.8051 4.10109C41.0162 4.31221 41.163 4.31221 41.501 4.10109C42.0143 3.78055 44.6922 3.74165 44.884 4.05196C45.0692 4.35174 45.8668 4.32855 45.8668 4.02338C45.8668 3.86339 46.1344 3.81981 46.6264 3.89966C47.1406 3.9831 47.3699 3.94106 47.3363 3.76962C47.3089 3.63029 47.5193 3.48103 47.8039 3.43792C48.1346 3.38782 48.4069 3.13282 48.5585 2.73136L48.7956 2.10319L50.662 2.18179C51.6885 2.22501 52.5912 2.27034 52.6679 2.28253C52.7447 2.29474 52.8735 2.65666 52.9542 3.08687C53.0613 3.65814 53.2833 3.96735 53.7774 4.23354C55.2556 5.02989 55.6732 5.59798 55.7312 6.89136L55.785 8.09263L51.1832 8.15149L46.5815 8.21035L45.6674 10.1777L44.7533 12.145L45.2078 12.7832L45.6622 13.4214L50.7334 13.4872C55.4069 13.5478 55.8503 13.5872 56.3868 13.9898C57.2423 14.6317 57.7 15.5064 57.5315 16.1777C57.4418 16.5349 57.5359 17.0737 57.7839 17.6237C58.0435 18.1994 58.1015 18.551 57.9529 18.6477C57.8284 18.7286 57.6101 19.016 57.4677 19.2863C57.0706 20.0403 56.7875 19.8727 56.7875 18.8836C56.7875 18.1732 56.6977 17.9661 56.3507 17.8753C56.0545 17.7979 55.9129 17.5759 55.9108 17.1859C55.9037 15.8194 55.7318 15.6279 54.5124 15.6279C53.1915 15.6279 52.856 15.8814 52.856 16.8794V17.6067L52.2122 17.1307C51.5996 16.6777 51.5415 16.6724 51.011 17.02C50.7044 17.2209 50.4535 17.5009 50.4535 17.6423C50.4535 18.2934 50.0389 17.3965 49.9767 16.6107L49.9075 15.7371L48.7431 15.6705C47.342 15.5903 46.9589 15.8538 46.9589 16.8976C46.9589 17.5991 46.9299 17.6374 46.6688 17.2804C46.3076 16.7864 45.2261 16.7612 44.8769 17.2387C44.479 17.7828 44.3689 17.6741 44.2959 16.6654L44.2287 15.7371L43.0341 15.6694C41.6772 15.5925 41.2801 15.8987 41.2801 17.0219C41.2801 17.6201 41.2549 17.6426 40.9901 17.2804C40.5796 16.719 39.5512 16.7717 39.0942 17.3776C38.6673 17.9436 38.5047 17.7836 38.4844 16.7775C38.4641 15.7713 38.3127 15.6279 37.2703 15.6279C36.143 15.6279 35.8219 15.9142 35.8128 16.9274C35.807 17.5786 35.7633 17.6482 35.5398 17.3617C35.1073 16.8071 34.5636 16.7108 34.1368 17.1131C33.7736 17.4555 33.7515 17.8585 33.8531 22.2869C33.9583 26.8746 33.9828 27.0927 34.4001 27.165C34.6404 27.2066 34.9639 27.4044 35.1192 27.6045C35.3363 27.8843 35.8563 27.986 37.3725 28.0451C39.2241 28.1173 39.3509 28.0942 39.4637 27.6629C39.6146 27.0861 40.0689 27.0784 40.7837 27.6406C41.2452 28.0036 41.6698 28.0775 43.2957 28.0775C45.0688 28.0775 45.2632 28.0365 45.3667 27.6406C45.5076 27.1018 45.9903 27.0729 46.2772 27.586C46.4539 27.9022 46.8734 27.9813 48.7055 28.0438C50.802 28.1153 50.9267 28.0949 51.04 27.6616C51.1895 27.0899 51.4352 27.0853 52.1412 27.6406C52.595 27.9976 53.0273 28.0774 54.5057 28.0774C56.6498 28.0774 56.9962 27.9784 56.8471 27.4081C56.7528 27.0476 56.8527 26.9854 57.5264 26.9854C58.2126 26.9854 58.3164 27.0536 58.3164 27.5047C58.3164 28.0826 57.8648 28.5628 57.4111 28.4673C57.2017 28.4233 57.0956 28.7085 57.0485 29.4425C56.9981 30.2283 57.0579 30.48 57.2948 30.48C57.4669 30.48 57.7329 30.631 57.8861 30.8155C58.0392 31 60.0416 32.5888 62.3357 34.346C64.6299 36.1033 66.5817 37.6478 66.6731 37.7782C66.7645 37.9086 66.8136 38.4084 66.7823 38.8889L66.7253 39.7626L64.3959 39.8244C62.2387 39.8817 62.0742 39.857 62.17 39.4906C62.2443 39.2064 61.7928 38.6677 60.5679 37.5791C59.6299 36.7454 57.7218 35.0037 56.3278 33.7085L53.7931 31.3537H49.4199C45.7703 31.3537 45.001 31.2987 44.7707 31.0212C44.3867 30.5586 36.8027 30.636 36.8027 31.1025C36.8027 31.3383 37.4624 31.391 40.0994 31.366L43.3961 31.3348L44.1846 32.297L44.9731 33.2593L43.6406 33.3986C42.9078 33.4752 41.7434 33.5379 41.0532 33.5379H39.7982L36.7715 37.2484C35.1069 39.2891 33.622 40.96 33.4719 40.9614C33.2562 40.9633 33.1988 37.9366 33.1988 26.5487ZM44.7278 9.67623L44.6655 7.4375H41.2801H37.8947L37.8311 9.38593C37.7961 10.4576 37.8175 11.465 37.8788 11.6247C37.9649 11.8489 38.7637 11.915 41.3901 11.915H44.79L44.7278 9.67623ZM38.2224 11.1631C38.2224 10.9486 38.5186 10.8266 39.1506 10.7809L40.0789 10.7137L40.1881 9.62162L40.2973 8.52955L42.3176 8.46676L44.3379 8.40397V9.94106V11.4781H41.2801C38.7619 11.4781 38.2224 11.4226 38.2224 11.1631ZM38.2224 9.20817C38.2224 8.13639 38.3027 7.78104 38.5678 7.67928C38.7579 7.60636 40.1339 7.54671 41.6256 7.54671C43.9529 7.54671 44.3379 7.59573 44.3379 7.89209C44.3379 8.18644 44.0381 8.22874 42.309 8.17841C41.193 8.14593 40.161 8.19285 40.0156 8.28276C39.8702 8.37261 39.7512 8.87212 39.7512 9.39275C39.7512 10.3675 39.5341 10.6045 38.6413 10.6045C38.272 10.6045 38.2224 10.439 38.2224 9.20817ZM29.3126 8.15982C28.9545 7.80166 28.5017 8.2544 28.7004 8.77207C28.837 9.12809 28.8706 9.12915 29.2115 8.78831C29.4964 8.50335 29.5186 8.36575 29.3126 8.15982ZM50.1135 7.27969C50.3005 7.01271 50.4535 6.71785 50.4535 6.62445C50.4535 6.33499 49.5967 5.58098 49.2678 5.58098C48.466 5.58098 47.9517 6.9233 48.5315 7.50302C48.9485 7.92004 49.7436 7.80779 50.1135 7.27969ZM48.7852 7.00067C48.6122 6.54977 48.8468 6.01781 49.2186 6.01781C49.6657 6.01781 50.0461 6.5607 49.8879 6.97299C49.7166 7.41919 48.9531 7.43837 48.7852 7.00067ZM53.4676 7.50302C53.8649 7.10572 53.7818 6.3511 53.292 5.9078C52.3899 5.09138 51.07 6.44081 51.8874 7.34394C52.3175 7.81927 53.0751 7.89553 53.4676 7.50302ZM52.0608 6.99905C51.9837 6.7982 52.0731 6.48869 52.2632 6.29863C52.7272 5.83468 53.3425 6.10064 53.2536 6.72668C53.1674 7.33328 52.2678 7.5387 52.0608 6.99905ZM67.095 38.7252C67.1526 37.9285 67.2381 37.7862 67.6983 37.7213C68.2356 37.6455 71.6251 36.509 81.7702 33.0033L87.2048 31.1253L90.9435 31.1849L94.6822 31.2446V31.7544V32.2643L90.9891 32.2619C87.3995 32.2595 87.2499 32.2778 85.6554 32.9112C84.7531 33.2696 81.1567 34.6449 77.6634 35.9674C74.1701 37.2898 70.6974 38.6602 69.9463 39.0127C69.1952 39.3651 68.2313 39.6535 67.8042 39.6535H67.0278L67.095 38.7252ZM55.2586 38.9751C55.2586 38.8122 55.8273 38.7594 57.0059 38.8129C58.3057 38.8719 58.7532 38.822 58.7532 38.6176C58.7532 38.4666 58.6124 38.343 58.4403 38.343C58.2682 38.343 58.065 38.1464 57.9888 37.9062C57.9125 37.6659 57.7208 37.4693 57.5627 37.4693C57.4046 37.4693 57.2239 37.2728 57.161 37.0325C57.0563 36.6321 56.8631 36.5957 54.8422 36.5957C53.3543 36.5957 52.6376 36.5158 52.6376 36.3499C52.6376 36.1796 53.2014 36.1337 54.4718 36.2004C55.9269 36.2767 56.2832 36.2372 56.1958 36.0093C56.1155 35.8003 55.5303 35.722 54.0469 35.722C52.7911 35.722 51.9507 35.6291 51.8586 35.4801C51.7523 35.3081 52.2536 35.2607 53.5931 35.3163C54.6293 35.3592 55.4771 35.3404 55.477 35.2743C55.4769 34.8247 54.8472 34.6845 53.3037 34.7903C52.2537 34.8623 51.4529 34.8149 51.1958 34.6656C50.8674 34.4749 51.1333 34.4235 52.4738 34.4182C53.4523 34.4143 54.1665 34.3194 54.1665 34.1931C54.1665 34.0639 53.3746 33.9747 52.2276 33.9747C50.7705 33.9747 50.221 33.8933 50.0167 33.6471C49.8388 33.4327 49.3521 33.3195 48.6087 33.3195C47.6607 33.3195 47.2946 33.1929 46.3974 32.555L45.3222 31.7906H49.404H53.4859L54.659 32.8281C57.4061 35.2574 61.5926 39.0682 61.5926 39.1394C61.5926 39.1819 60.1674 39.2167 58.4256 39.2167C56.2577 39.2167 55.2586 39.1404 55.2586 38.9751ZM72.0764 38.7954C72.2566 38.6907 75.8197 37.3174 79.9943 35.7438L87.5846 32.8827H90.7333C92.4651 32.8827 94.0375 32.9423 94.2275 33.0152C94.6712 33.1855 94.696 34.6928 94.2611 35.0538C94.0895 35.1962 91.8117 36.0466 89.1992 36.9435C84.5142 38.5521 84.4132 38.5757 81.8121 38.6743C75.0006 38.9325 71.7715 38.9726 72.0764 38.7954ZM54.4942 38.1246C54.4091 37.9869 54.9244 37.9062 55.8881 37.9062C56.729 37.9062 57.4777 38.0045 57.5519 38.1246C57.637 38.2622 57.1217 38.343 56.158 38.343C55.3171 38.343 54.5684 38.2447 54.4942 38.1246ZM54.4395 37.3102C54.89 37.2631 55.6272 37.2631 56.0776 37.3102C56.5281 37.3574 56.1595 37.3959 55.2586 37.3959C54.3576 37.3959 53.9891 37.3574 54.4395 37.3102ZM63.2307 34.6078C61.1885 33.0378 59.2965 31.5479 59.0262 31.297C58.543 30.8484 58.5348 30.7533 58.5348 25.6231V20.4053L60.2585 20.4509C61.6767 20.4884 62.0928 20.4191 62.6064 20.0598C62.9498 19.8196 63.501 19.5578 63.8313 19.4779C64.1617 19.3981 64.4401 19.2117 64.4502 19.0639C64.5161 18.0903 64.6166 17.749 64.8884 17.577C65.0578 17.4698 69.349 17.3805 74.4244 17.3787L83.6523 17.3752V20.6078C83.6523 22.8307 83.7342 23.9221 83.9144 24.1024C84.1039 24.2918 85.6437 24.3645 89.4681 24.3645H94.7597L95.2183 24.9475C95.6407 25.4844 95.6721 25.7636 95.6164 28.4788C95.5729 30.5988 95.4792 31.4526 95.2829 31.5178C95.1327 31.5677 95.0098 31.4634 95.0098 31.2861C95.0098 30.7683 94.515 30.6985 90.8473 30.6985H87.3757L81.3096 32.787C77.9732 33.9357 73.5821 35.4592 71.5515 36.1725C69.5209 36.8857 67.6535 37.4678 67.4016 37.4659C67.1498 37.464 65.2729 36.1779 63.2307 34.6078ZM72.6308 34.0839C75.0073 33.3031 77.2155 32.6642 77.538 32.6642C78.6459 32.6642 78.8279 32.1684 78.8952 28.9666L78.9564 26.0531L80.5945 25.4818L82.2326 24.9106L82.2958 22.8682C82.3365 21.5501 82.2689 20.7176 82.1052 20.5203C81.7145 20.0496 74.3322 20.0796 73.6539 20.5547C73.0479 20.9792 73.0257 21.8192 73.6053 22.3988C73.8456 22.6391 74.0422 22.8848 74.0422 22.9448C74.0422 23.0049 73.1696 23.054 72.1032 23.054C70.6461 23.054 70.0966 23.1355 69.8923 23.3817C69.7153 23.5949 69.1912 23.7183 68.3913 23.7351C67.1395 23.7615 65.4473 24.071 66.2885 24.1198C66.6905 24.1431 66.7196 24.2738 66.6542 25.7619L66.5831 27.3786L67.5672 28.0557C68.1085 28.4281 68.6879 28.7328 68.8547 28.7328C69.0216 28.7328 69.6851 28.3397 70.3291 27.8591C70.9732 27.3786 71.5806 26.9855 71.6791 26.9855C72.0714 26.9855 71.8188 26.4178 71.0981 25.6797C70.6802 25.2517 70.2748 24.5841 70.1972 24.1962L70.0561 23.4909L72.4314 23.4902L74.8066 23.4895L76.4951 24.6369L78.1836 25.7843L78.2206 28.5691C78.2409 30.1007 78.2674 31.4767 78.2794 31.6269C78.2917 31.7807 77.995 31.9295 77.5998 31.9677C76.9861 32.027 76.8603 31.9451 76.5936 31.3125C76.426 30.9148 75.4148 29.7929 74.3465 28.8193L72.4041 27.0492L70.6592 28.2187C69.6995 28.8619 68.7946 29.3882 68.6484 29.3882C68.3056 29.3882 66.1197 28.1045 65.9096 27.7797C65.8214 27.6433 65.7476 26.7669 65.7458 25.8321C65.7433 24.5465 65.6649 24.1028 65.4238 24.0103C64.9295 23.8206 63.6786 24.3178 63.099 24.9343C62.6026 25.4622 62.5722 25.6575 62.5132 28.6955C62.479 30.458 62.5281 32.0079 62.6224 32.1399C63.0929 32.7983 67.1999 35.5036 67.7291 35.5036C68.0486 35.5036 70.2543 34.8648 72.6308 34.0839ZM69.5508 26.4424C69.4664 25.9922 69.1053 25.2914 68.7485 24.885L68.0997 24.1461H68.857C69.6067 24.1461 69.617 24.1592 69.8947 25.468C70.0953 26.413 70.1081 26.857 69.9398 27.0254C69.7715 27.1937 69.6606 27.0276 69.5508 26.4424ZM68.7576 22.1038L68.8242 21.0883H66.178H63.5319L63.5997 21.8982C63.663 22.6543 63.7298 22.7231 64.606 22.9356C65.1221 23.0608 66.2524 23.1533 67.1177 23.1412L68.691 23.1192L68.7576 22.1038ZM64.2681 22.4726C64.118 22.412 63.9951 22.174 63.9951 21.9438C63.9951 21.5591 64.1724 21.5252 66.1793 21.5252C67.4897 21.5252 68.3634 21.6125 68.3634 21.7436C68.3634 21.8637 67.9823 21.962 67.5165 21.962C67.0301 21.962 66.5538 22.1015 66.3977 22.2896C66.1374 22.6033 64.8633 22.7127 64.2681 22.4726ZM16.6501 35.5036C16.4959 35.2567 16.1408 35.0668 15.8331 35.0668C15.5338 35.0668 15.2889 34.9685 15.2889 34.8484C15.2889 34.7196 16.0655 34.63 17.1819 34.63C18.223 34.63 19.0092 34.6955 18.9291 34.7757C18.8489 34.8558 18.5622 34.9459 18.292 34.9759C18.0218 35.0059 17.7336 35.0386 17.6516 35.0486C17.5696 35.0586 17.4401 35.2634 17.3639 35.5036C17.2876 35.7439 17.1572 35.9405 17.0741 35.9405C16.9909 35.9405 16.8001 35.7439 16.6501 35.5036ZM96.3878 33.2649C96.2906 33.1147 96.162 31.1488 96.1019 28.8963C95.999 25.0356 96.0156 24.8007 96.3917 24.801C96.6112 24.8012 97.078 24.5141 97.4292 24.1629L98.0676 23.5245V19.5034C98.0676 17.2919 98.1175 15.4325 98.1786 15.3714C98.2396 15.3104 98.6573 15.3201 99.1068 15.393L99.9241 15.5255L99.986 18.1296C100.033 20.1258 99.9659 20.9385 99.6967 21.6114C99.4392 22.255 99.2864 23.8317 99.124 27.5221C98.8708 33.2748 98.7963 33.5379 97.4202 33.5379C96.9496 33.5379 96.485 33.415 96.3878 33.2649ZM44.9172 32.3216C44.062 31.2497 44.2807 31.1825 45.1715 32.2435C45.5675 32.7151 45.8122 33.1011 45.7153 33.1011C45.6185 33.1011 45.2593 32.7503 44.9172 32.3216ZM16.108 32.0557C14.9367 32.0213 13.9785 31.9077 13.9785 31.8033C13.9785 31.6418 18.3275 31.7412 18.5251 31.9072C18.7194 32.0704 18.0376 32.1123 16.108 32.0557ZM28.6459 31.0034C27.7789 30.3961 28.2505 29.2757 29.31 29.4259C29.6973 29.4808 29.829 29.6577 29.8808 30.1926C29.9681 31.0936 29.3521 31.498 28.6459 31.0034ZM29.4779 30.5989C29.8082 30.2009 29.5936 29.8249 29.0361 29.8249C28.7706 29.8249 28.6122 29.9745 28.6122 30.2253C28.6122 30.9405 29.0408 31.1255 29.4779 30.5989ZM16.4422 30.7561C17.0164 30.711 17.901 30.7115 18.4079 30.7574C18.9148 30.8033 18.445 30.8402 17.3639 30.8395C16.2827 30.8388 15.868 30.8013 16.4422 30.7561ZM23.7525 30.7628C24.0227 30.7108 24.465 30.7108 24.7353 30.7628C25.0056 30.8149 24.7845 30.8575 24.2439 30.8575C23.7033 30.8575 23.4822 30.8149 23.7525 30.7628ZM26.2642 30.7664C26.4744 30.7115 26.8184 30.7115 27.0287 30.7664C27.2389 30.8213 27.0669 30.8663 26.6464 30.8663C26.226 30.8663 26.054 30.8213 26.2642 30.7664ZM0.436791 30.2508C0.436951 29.7252 1.18183 29.6064 4.47748 29.6064C6.71846 29.6064 8.08006 29.5203 8.23137 29.369C8.40236 29.198 8.50989 29.198 8.61557 29.369C8.71637 29.5321 10.9833 29.6064 15.8555 29.6064C23.7336 29.6064 24.0255 29.5587 24.0255 28.2708C24.0255 27.7488 24.1167 27.6407 24.5573 27.6407C25.5331 27.6407 26.2218 28.0535 26.5478 28.8336C27.1908 30.3724 28.268 30.2488 13.6508 30.3129C6.38307 30.3448 0.43677 30.3168 0.436791 30.2508ZM26.9994 29.1697C26.7866 27.8388 26.2113 27.3862 24.8335 27.4659C23.7515 27.5284 23.6943 27.5624 23.6235 28.186C23.5827 28.546 23.4352 28.9131 23.2959 29.0017C23.1566 29.0904 19.8434 29.1644 15.9333 29.1663C10.5353 29.1688 8.75727 29.1039 8.5471 28.8966C8.32533 28.6778 8.21416 28.6996 7.98791 29.0058C7.73888 29.3429 7.28135 29.388 4.11486 29.388C1.61334 29.388 0.444691 29.4675 0.262097 29.6501C-0.0598678 29.9721 -0.0779583 29.7234 0.2261 29.1552C0.435549 28.7639 0.716382 28.7328 4.04019 28.7328H7.62819L8.5482 27.3677C9.0542 26.6169 9.57386 25.9304 9.703 25.8421C9.83215 25.7539 13.3287 25.6823 17.4731 25.6831C24.4354 25.6845 25.0786 25.7165 25.9321 26.1039C26.4654 26.346 27.042 26.8286 27.2964 27.2458C27.8024 28.0758 27.8785 29.4368 27.4393 29.8013C27.1969 30.0024 27.1134 29.8825 26.9994 29.1697ZM29.1036 29.0116C28.563 28.9445 28.3937 28.8171 28.3937 28.4772C28.3937 28.1354 28.4833 28.0691 28.776 28.1943C28.9862 28.2842 29.4285 28.4041 29.7588 28.4608C30.3344 28.5596 30.649 29.2067 30.0865 29.1346C29.9363 29.1154 29.494 29.0601 29.1036 29.0116ZM28.9736 27.6781C28.4605 27.1111 28.5261 26.3967 29.1274 26.0027C29.9405 25.4699 30.786 25.9332 30.7929 26.9153C30.8002 27.9394 29.6475 28.4227 28.9736 27.6781ZM30.3188 26.9302C30.3589 26.7196 30.2358 26.4875 30.0452 26.4143C29.5951 26.2416 29.0394 26.7064 29.199 27.1222C29.3662 27.558 30.2272 27.4104 30.3188 26.9302ZM37.0314 27.4658C36.6767 27.4212 36.2739 27.2307 36.1363 27.0425C35.9987 26.8543 35.7774 26.7675 35.6446 26.8496C35.2119 27.117 34.2909 26.7475 34.2909 26.3066C34.2909 26.0793 34.4383 25.8934 34.6185 25.8934C34.7987 25.8934 34.9461 25.7951 34.9461 25.675C34.9461 25.5549 34.7987 25.4566 34.6185 25.4566C34.3424 25.4566 34.2909 24.9591 34.2909 22.2896C34.2909 19.6201 34.3424 19.1226 34.6185 19.1226C34.7987 19.1226 34.9461 18.9752 34.9461 18.795C34.9461 18.6148 34.8092 18.4673 34.6419 18.4673C34.3005 18.4673 34.0054 17.879 34.1939 17.574C34.408 17.2275 34.9719 17.3587 35.3672 17.8469C35.9012 18.5063 36.2566 18.1818 36.2566 17.0348V16.0648H37.2395C38.0709 16.0648 38.2223 16.1309 38.2223 16.4939C38.2223 16.73 38.023 17.0298 37.7794 17.1601C37.5358 17.2905 37.3994 17.4991 37.4764 17.6237C37.5665 17.7694 37.6917 17.7749 37.8274 17.6391C37.9632 17.5034 38.2271 17.6029 38.5672 17.9182C39.0902 18.4029 39.096 18.4529 39.096 22.4784C39.096 24.9319 39.0128 26.5486 38.8864 26.5486C38.7712 26.5486 38.4517 26.7732 38.1766 27.0478C37.8237 27.3998 37.4863 27.523 37.0314 27.4658ZM35.4922 22.1804C35.4922 21.0152 35.3986 20.1108 35.2738 20.0695C35.1379 20.0244 35.0554 20.8224 35.0554 22.181C35.0554 23.54 35.1379 24.3373 35.2738 24.2919C35.3986 24.2502 35.4922 23.3451 35.4922 22.1804ZM37.9603 24.1024C38.1139 23.9487 38.2223 23.211 38.2223 22.3187C38.2223 20.4398 37.9539 20.5533 37.9196 22.4467L37.8947 23.8185L37.1849 23.8869C36.7945 23.9245 36.475 24.0474 36.475 24.1599C36.475 24.4567 37.6515 24.4112 37.9603 24.1024ZM38.0039 19.1226C38.0039 18.6421 37.9056 18.2489 37.7855 18.2489C37.6654 18.2489 37.5671 18.6421 37.5671 19.1226C37.5671 19.6031 37.6654 19.9962 37.7855 19.9962C37.9057 19.9962 38.0039 19.6031 38.0039 19.1226ZM36.9119 17.5937C36.9119 17.4736 36.8136 17.3753 36.6935 17.3753C36.5733 17.3753 36.475 17.4736 36.475 17.5937C36.475 17.7138 36.5733 17.8121 36.6935 17.8121C36.8136 17.8121 36.9119 17.7138 36.9119 17.5937ZM42.6998 27.4852C42.3394 27.4357 41.9289 27.2449 41.7876 27.0613C41.632 26.8591 41.3634 26.7805 41.1066 26.862C40.5944 27.0246 39.5328 26.6557 39.5328 26.3152C39.5328 26.1808 39.7294 26.0195 39.9697 25.9567C40.2099 25.8939 40.4065 25.7556 40.4065 25.6495C40.4065 25.5434 40.2099 25.4566 39.9697 25.4566C39.5529 25.4566 39.5328 25.311 39.5328 22.2896C39.5328 19.2682 39.5529 19.1226 39.9697 19.1226C40.2099 19.1226 40.4065 18.9866 40.4065 18.8204C40.4065 18.6543 40.2099 18.4669 39.9697 18.4041C39.7083 18.3357 39.5328 18.1061 39.5328 17.8326C39.5328 17.2233 40.3917 17.2164 40.9098 17.8214C41.4415 18.4424 41.717 18.1739 41.717 17.0348V16.0648H42.9182C43.5789 16.0648 44.1195 16.1498 44.1195 16.2537C44.1195 16.3577 43.9117 16.7069 43.6578 17.0297C43.4038 17.3525 43.2699 17.6852 43.3601 17.769C43.4503 17.8528 43.5703 17.7913 43.6269 17.6323C43.7025 17.4198 43.8679 17.4732 44.2522 17.8342C44.7668 18.3176 44.7747 18.3868 44.7747 22.3628V26.4005L44.0802 27.0206C43.6982 27.3617 43.3787 27.626 43.3703 27.608C43.362 27.59 43.0602 27.5347 42.6998 27.4852ZM41.1486 22.5532C41.301 20.6752 41.1992 19.9961 40.7653 19.9965C40.5924 19.9966 40.528 20.6511 40.5559 22.126C40.606 24.7819 40.5896 24.6305 40.8128 24.4926C40.9161 24.4287 41.0672 23.556 41.1486 22.5532ZM43.8155 23.9823C44.1544 23.5358 44.2216 21.1772 43.9011 20.9791C43.7634 20.894 43.6827 21.4137 43.6827 22.3859V23.9277H42.9182C42.4978 23.9277 42.1538 24.026 42.1538 24.1461C42.1538 24.5228 43.5064 24.3895 43.8155 23.9823ZM43.6991 19.7178C43.6901 19.6307 43.6827 19.2646 43.6827 18.9042C43.6827 18.5438 43.5844 18.2489 43.4643 18.2489C43.3441 18.2489 43.2458 18.6503 43.2458 19.1408C43.2458 19.6798 43.3387 20.0017 43.4806 19.9544C43.6098 19.9113 43.7081 19.8049 43.6991 19.7178ZM42.5906 17.5937C42.5906 17.4736 42.4923 17.3753 42.3722 17.3753C42.2521 17.3753 42.1538 17.4736 42.1538 17.5937C42.1538 17.7138 42.2521 17.8121 42.3722 17.8121C42.4923 17.8121 42.5906 17.7138 42.5906 17.5937ZM54.1684 27.4596C53.749 27.4195 53.3345 27.2719 53.2472 27.1315C53.1598 26.9911 52.8641 26.8685 52.59 26.859C51.2635 26.8131 51.1087 26.7595 51.1087 26.3454C51.1087 26.0824 51.2936 25.8874 51.6002 25.8271L52.0916 25.7304L51.6002 25.568C51.1208 25.4096 51.1087 25.3282 51.1087 22.2641C51.1087 19.2682 51.129 19.1226 51.5456 19.1226C51.7882 19.1226 51.9824 18.977 51.9824 18.795C51.9824 18.6148 51.7973 18.4673 51.571 18.4673C51.179 18.4673 50.8029 17.7539 51.0597 17.4971C51.3117 17.2451 51.8615 17.3908 52.3344 17.835C52.9923 18.453 53.2929 18.2021 53.2929 17.0348V16.0648H54.3849C55.3077 16.0648 55.477 16.1284 55.477 16.475C55.477 16.7006 55.2559 17.0338 54.9856 17.2155C54.7153 17.3973 54.5695 17.6238 54.6616 17.7191C54.7537 17.8143 54.9335 17.7878 55.0611 17.6602C55.2248 17.4964 55.4487 17.5723 55.8219 17.9182C56.3456 18.4035 56.3505 18.4467 56.3349 22.4238L56.3191 26.4394L55.625 26.9859C55.1171 27.3858 54.7265 27.5129 54.1684 27.4596ZM52.5908 21.9819C52.5565 20.9692 52.4294 20.1079 52.3084 20.0679C52.1687 20.0217 52.1169 20.6241 52.1665 21.7164C52.2102 22.6785 52.142 23.6294 52.012 23.8724C51.7072 24.4418 51.9962 24.7214 52.3663 24.2152C52.5629 23.9464 52.6335 23.244 52.5908 21.9819ZM55.2149 24.1024C55.3686 23.9487 55.477 23.211 55.477 22.3187C55.477 21.4818 55.4033 20.8717 55.3132 20.9628C55.2231 21.054 55.1494 21.7338 55.1494 22.4735V23.8185L54.3258 23.8865C53.8728 23.924 53.5591 24.0468 53.6288 24.1596C53.8098 24.4524 54.9043 24.413 55.2149 24.1024ZM55.2586 19.1226C55.2586 18.6421 55.1603 18.2489 55.0402 18.2489C54.92 18.2489 54.8218 18.6421 54.8218 19.1226C54.8218 19.6031 54.92 19.9962 55.0402 19.9962C55.1603 19.9962 55.2586 19.6031 55.2586 19.1226ZM54.1246 17.5773C54.0816 17.4482 53.953 17.3425 53.8389 17.3425C53.7248 17.3425 53.5962 17.4482 53.5531 17.5773C53.5101 17.7064 53.6387 17.8121 53.8389 17.8121C54.0391 17.8121 54.1677 17.7065 54.1246 17.5773ZM47.4684 27.0784C47.3825 26.8543 47.1733 26.7755 46.8681 26.8521C46.1383 27.0353 45.43 26.7657 45.43 26.3048C45.43 26.0785 45.5774 25.8934 45.7576 25.8934C45.9378 25.8934 46.0852 25.7951 46.0852 25.675C46.0852 25.5549 45.9378 25.4566 45.7576 25.4566C45.4814 25.4566 45.43 24.9591 45.43 22.2896C45.43 19.6201 45.4814 19.1226 45.7576 19.1226C45.9378 19.1226 46.0852 18.9752 46.0852 18.795C46.0852 18.6148 45.9483 18.4673 45.781 18.4673C45.4948 18.4673 45.2116 18.0239 45.2116 17.5758C45.2116 17.1977 46.2064 17.3751 46.5885 17.8214C47.1202 18.4424 47.3957 18.1739 47.3957 17.0348V16.0648H48.597C49.2577 16.0648 49.7982 16.1498 49.7982 16.2538C49.7982 16.3577 49.5905 16.7069 49.3365 17.0297C49.0826 17.3525 48.9405 17.6824 49.0208 17.7627C49.1011 17.843 49.2544 17.7668 49.3615 17.5935C49.5275 17.325 49.5765 17.3309 49.6924 17.6329C49.7672 17.8279 50.0182 18.0371 50.2502 18.0978C50.6485 18.2019 50.6714 18.4367 50.6626 22.3237L50.6534 26.4394L49.8831 26.9309C48.9772 27.5088 47.6644 27.589 47.4684 27.0784ZM46.7474 22.4908C46.8769 20.563 46.8075 19.9961 46.442 19.9966C46.274 19.9968 46.1944 20.6995 46.1944 22.181C46.1944 24.8114 46.5772 25.0259 46.7474 22.4908ZM49.3422 24.06C49.6785 23.6549 49.9041 21.6564 49.67 21.157C49.5399 20.8794 49.4495 21.2188 49.3682 22.2896L49.2522 23.8185L48.5424 23.8869C48.1519 23.9245 47.8325 24.0474 47.8325 24.1599C47.8325 24.4806 49.0607 24.3993 49.3422 24.06ZM49.3614 19.1226C49.3614 18.6421 49.2631 18.2489 49.143 18.2489C49.0229 18.2489 48.9246 18.6421 48.9246 19.1226C48.9246 19.6031 49.0229 19.9962 49.143 19.9962C49.2631 19.9962 49.3614 19.6031 49.3614 19.1226ZM48.2693 17.6301C48.2693 17.3457 48.0097 17.1566 47.7985 17.2871C47.5726 17.4267 47.7674 17.8121 48.0638 17.8121C48.1769 17.8121 48.2693 17.7302 48.2693 17.6301ZM56.7875 23.5176C56.7875 20.5198 56.9989 19.5933 57.4264 20.7178C57.5371 21.0089 57.7858 21.3078 57.9792 21.382C58.2788 21.497 58.3216 21.8805 58.2689 23.9782L58.2072 26.4394L57.4973 26.5079L56.7875 26.5763V23.5176ZM27.2104 25.2017C27.1602 25.0416 27.0596 24.2518 26.9869 23.4466C26.869 22.1407 26.9009 21.958 27.2823 21.7539C27.5174 21.6281 27.7692 21.5251 27.8418 21.5251C28.1139 21.5251 27.8531 25.3103 27.5748 25.4025C27.4247 25.4522 27.2607 25.3619 27.2104 25.2017ZM29.2753 24.7017C28.9226 24.2767 29.171 23.9277 29.8263 23.9277C30.4251 23.9277 30.514 24.2412 30.0474 24.7077C29.6592 25.0959 29.6021 25.0954 29.2753 24.7017ZM30.7404 24.2007C30.5648 23.8004 30.4755 22.1798 30.4728 19.341C30.4692 15.7187 30.5245 14.984 30.8421 14.4267C31.2021 13.7952 31.2159 13.9712 31.2243 19.2864C31.2293 22.3196 31.1815 24.8013 31.1185 24.8013C31.0554 24.8013 30.8853 24.531 30.7404 24.2007ZM28.4214 19.4502C28.4214 15.3618 28.476 14.3284 28.6696 14.7543C29.012 15.5077 29.0165 23.4104 28.6749 24.1461C28.4744 24.578 28.4214 23.5966 28.4214 19.4502ZM9.39178 22.8024V21.2403L11.7397 21.3886C13.0311 21.4702 15.5869 21.6293 17.4194 21.7423C19.2519 21.8552 20.9408 22.0491 21.1727 22.1732C21.4045 22.2973 21.7972 22.3988 22.0454 22.3988C22.4345 22.3988 22.4966 22.534 22.4966 23.3816V24.3645H15.9442H9.39178L9.39178 22.8024ZM95.4467 24.1461C95.1463 24.0499 92.5172 23.9615 89.6041 23.9495C84.9968 23.9305 84.3076 23.8841 84.3076 23.5923C84.3076 23.2995 84.9611 23.2605 89.4639 23.2848C92.3782 23.3006 94.7082 23.2247 94.8225 23.1103C94.9338 22.9991 94.9969 21.786 94.9627 20.4147L94.9006 17.9213L89.4949 17.8629C86.1404 17.8267 84.0892 17.7231 84.0892 17.5899C84.0892 17.4541 86.5343 17.3753 90.7508 17.3753H97.4124V20.4172C97.4124 23.4433 97.4092 23.4615 96.8369 23.9119C96.2105 24.4046 96.2388 24.3998 95.4467 24.1461ZM23.1518 22.9448C23.1518 22.4239 23.2113 22.3988 24.4444 22.3988C25.1554 22.3988 25.8925 22.3391 26.0825 22.2662C26.3519 22.1629 26.428 22.2832 26.428 22.8123V23.4909H24.7899C23.1882 23.4909 23.1518 23.4787 23.1518 22.9448ZM29.2674 23.1633C29.2674 22.9813 29.4615 22.8356 29.7042 22.8356C29.9469 22.8356 30.1411 22.9813 30.1411 23.1633C30.1411 23.3453 29.9469 23.4909 29.7042 23.4909C29.4615 23.4909 29.2674 23.3453 29.2674 23.1633ZM84.0892 20.8816C84.0892 18.9758 84.1405 18.6736 84.4973 18.4827C84.7217 18.3626 84.9587 18.3177 85.0239 18.3829C85.1375 18.4964 88.3329 18.5551 88.7851 18.4519C88.9052 18.4244 90.2593 18.3922 91.7943 18.3801L94.5851 18.3582L94.5244 20.6515L94.4638 22.9448L89.2765 23.0034L84.0892 23.062L84.0892 20.8816ZM91.0247 22.235C91.0907 22.0351 90.7297 21.962 89.6769 21.962C88.3408 21.962 88.0092 22.0962 88.3942 22.4811C88.6572 22.7442 90.9268 22.5318 91.0247 22.235ZM21.358 21.7306C21.1522 21.6107 18.6459 21.3608 15.7885 21.1753C8.52193 20.7036 9.17336 20.8751 9.17336 19.4335C9.17336 18.6706 9.27257 18.2011 9.44638 18.1413C9.59654 18.0896 12.324 17.8427 15.5074 17.5925C18.6907 17.3424 22.1799 17.0535 23.261 16.9505C25.0979 16.7755 25.3162 16.7998 26.5918 17.3205L27.9569 17.8777V19.3858V20.894L26.7494 21.428C25.7636 21.8639 25.1922 21.9608 23.637 21.9553C22.5893 21.9518 21.5638 21.8506 21.358 21.7306ZM25.5158 20.5788C25.5566 20.3681 25.447 20.2147 25.2557 20.2147C24.8499 20.2147 24.605 20.5707 24.7971 20.8815C24.9946 21.2011 25.4307 21.0175 25.5158 20.5788ZM25.5544 18.3711C25.5544 18.198 25.476 18.0079 25.3801 17.9486C25.1007 17.776 24.6102 18.1765 24.7748 18.443C24.9916 18.7936 25.5544 18.7417 25.5544 18.3711ZM29.3766 20.2147C29.4509 20.0946 29.6041 19.9963 29.7171 19.9963C29.8302 19.9963 29.9227 20.0946 29.9227 20.2147C29.9227 20.3348 29.7694 20.4331 29.5821 20.4331C29.3949 20.4331 29.3024 20.3348 29.3766 20.2147ZM57.6612 19.5862C57.6612 19.4808 57.8009 19.2786 57.9716 19.1369C58.2263 18.9255 58.2609 18.9599 58.1645 19.3285C58.0497 19.7675 57.6612 19.9664 57.6612 19.5862ZM59.0262 19.6214C59.3566 19.5714 59.8972 19.5714 60.2275 19.6214C60.5579 19.6715 60.2876 19.7124 59.6269 19.7124C58.9662 19.7124 58.6959 19.6715 59.0262 19.6214ZM61.3624 19.5368C62.3417 19.1457 62.5212 18.8901 62.1245 18.4517C61.6788 17.9593 61.8997 17.1569 62.481 17.1569C62.84 17.1569 62.9031 17.3148 62.9031 18.2139C62.9031 19.1346 62.8314 19.3036 62.3468 19.5244C62.0408 19.6638 61.5739 19.7716 61.3093 19.764C60.8462 19.7507 60.8482 19.7421 61.3624 19.5368ZM29.3766 19.341C29.3024 19.2209 29.3949 19.1226 29.5821 19.1226C29.7694 19.1226 29.9226 19.2209 29.9226 19.341C29.9226 19.4611 29.8302 19.5594 29.7171 19.5594C29.6041 19.5594 29.4509 19.4611 29.3766 19.341ZM58.8683 19.113C58.9458 18.9876 58.9056 18.7602 58.779 18.6077C58.6524 18.4551 58.5702 17.6153 58.5964 16.7414C58.6479 15.0239 58.7263 15.1682 57.0436 13.8837L56.4599 13.4381L57.8176 13.492C58.6702 13.5259 59.2755 13.4457 59.4448 13.2765C59.593 13.1283 60.0407 13.007 60.4397 13.007C61.0286 13.007 61.3932 13.235 62.3754 14.2172C63.3395 15.1813 63.5717 15.5477 63.5174 16.0191C63.4624 16.4953 63.3212 16.6253 62.7939 16.6848C61.7949 16.7975 61.5307 17.1246 61.6601 18.0887C61.7598 18.8322 61.7102 18.9533 61.2317 19.1353C60.4813 19.4206 58.6887 19.4037 58.8683 19.113ZM60.8565 18.4987C60.5205 18.1274 60.5191 18.0686 60.8395 17.8027C61.1089 17.5791 61.173 17.1948 61.118 16.1328C61.0466 14.7536 61.215 14.4641 61.7673 15.0164C61.9115 15.1606 62.0294 15.4554 62.0294 15.6717C62.0294 15.8879 62.1277 16.0648 62.2478 16.0648C62.368 16.0648 62.4662 15.8216 62.4662 15.5244C62.4662 15.1468 62.272 14.8835 61.8219 14.6507C60.6538 14.0467 60.5471 14.1539 60.6658 15.8127C60.7576 17.0955 60.7185 17.3287 60.3906 17.4546C60.1803 17.5352 59.8734 17.4892 59.7084 17.3523C59.4836 17.1657 59.4085 17.1665 59.4085 17.3554C59.4085 17.4941 59.5634 17.6669 59.7528 17.7396C59.9422 17.8123 60.1855 18.104 60.2934 18.388C60.4014 18.6719 60.6548 18.9042 60.8566 18.9042C61.2001 18.9042 61.2001 18.8784 60.8565 18.4987ZM63.3399 18.2757C63.3399 17.5952 63.4582 17.1122 63.6675 16.9385C64.1543 16.5345 64.0867 15.1483 63.5583 14.6958C63.0129 14.2288 62.9955 13.4072 63.5209 12.9317C64.0624 12.4416 64.1088 12.4584 64.654 13.3404C65.5126 14.7297 65.5717 14.7543 68.0514 14.7543H70.3291V15.4954C70.3291 16.4294 70.5196 16.5016 72.9823 16.5016C74.0615 16.5016 75.1452 16.609 75.3904 16.7403C75.7129 16.9129 75.9024 16.9129 76.075 16.7403C76.3869 16.4284 84.4432 16.4094 84.6352 16.7201C84.7769 16.9493 80.879 17.0106 70.6198 16.9406C65.3166 16.9044 65.1066 16.9191 64.6681 17.3576C64.4181 17.6076 64.2135 18.0382 64.2135 18.3145C64.2135 18.8113 63.8529 19.341 63.5146 19.341C63.4185 19.341 63.3399 18.8616 63.3399 18.2757ZM29.4858 18.371C29.4858 18.1838 29.5841 18.0305 29.7042 18.0305C29.8244 18.0305 29.9226 18.123 29.9226 18.2361C29.9226 18.3491 29.8244 18.5023 29.7042 18.5766C29.5841 18.6508 29.4858 18.5583 29.4858 18.371ZM9.39178 16.0853V14.5359H15.9442H22.4966V15.4012C22.4966 16.2172 22.45 16.2786 21.6775 16.4811C20.1322 16.8863 19.7572 16.9278 15.6166 17.1522C13.3341 17.2758 10.9998 17.435 10.4292 17.5059L9.39178 17.6347V16.0853ZM29.4858 17.3753C29.4858 17.2552 29.5841 17.1569 29.7042 17.1569C29.8244 17.1569 29.9226 17.2552 29.9226 17.3753C29.9226 17.4954 29.8244 17.5937 29.7042 17.5937C29.5841 17.5937 29.4858 17.4954 29.4858 17.3753ZM27.3578 17.0924C26.8965 16.8859 26.8758 16.7824 27.0035 15.3223C27.078 14.4693 27.2248 13.6781 27.3296 13.564C27.7517 13.1043 27.9737 13.8662 27.9117 15.5619C27.8487 17.2854 27.8404 17.3084 27.3578 17.0924ZM85.345 16.7938C85.4952 16.7332 85.7409 16.7332 85.8911 16.7938C86.0412 16.8544 85.9184 16.904 85.6181 16.904C85.3177 16.904 85.1949 16.8544 85.345 16.7938ZM86.4917 16.7201C86.9398 16.4305 97.4124 16.4305 97.4124 16.7201C97.4124 16.8601 95.3943 16.9373 91.7883 16.9351C88.0764 16.9329 86.2755 16.8598 86.4917 16.7201ZM24.4398 16.3404C23.0343 16.2667 23.0002 16.2508 23.1019 15.7189C23.2029 15.1901 23.2547 15.1751 24.7625 15.2368C26.2799 15.2988 26.3205 15.3154 26.3879 15.901C26.4341 16.3019 26.3614 16.4874 26.1695 16.4589C26.0114 16.4354 25.233 16.382 24.4398 16.3404ZM75.2737 16.174C75.2045 15.9938 74.9896 15.8464 74.7961 15.8464C74.5135 15.8464 74.4742 15.7067 74.5965 15.1366C74.8108 14.1373 74.8389 14.113 75.7213 14.1633C76.2246 14.1919 76.5362 14.3276 76.577 14.5359C76.6123 14.7161 76.7067 15.0847 76.7868 15.355C76.8964 15.7247 76.8434 15.8464 76.5725 15.8464C76.3746 15.8464 76.156 15.9938 76.0869 16.174C76.0177 16.3542 75.8347 16.5016 75.6803 16.5016C75.5258 16.5016 75.3428 16.3542 75.2737 16.174ZM75.9104 15.3906C75.9911 15.26 75.9437 15.0396 75.805 14.9009C75.6144 14.7103 75.5053 14.7258 75.3579 14.9642C75.1498 15.301 75.2548 15.628 75.571 15.628C75.677 15.628 75.8297 15.5211 75.9104 15.3906ZM84.7192 16.3027C84.7054 16.2319 84.6752 16.0757 84.6522 15.9556C84.6292 15.8355 84.5245 15.5465 84.4196 15.3135C84.2922 15.0302 84.3157 14.8609 84.4907 14.8025C84.6346 14.7546 84.8909 14.5767 85.0604 14.4072C85.4591 14.0085 85.622 14.0258 86.2281 14.5312C86.653 14.8854 86.7009 15.0569 86.5441 15.662C86.3794 16.2975 86.2713 16.3783 85.5519 16.4033C85.1078 16.4187 84.7331 16.3734 84.7192 16.3027ZM85.9074 15.4843C86.1049 15.2868 85.6154 14.7302 85.3749 14.8788C85.0738 15.065 85.1471 15.628 85.4725 15.628C85.6326 15.628 85.8283 15.5633 85.9074 15.4843ZM29.1884 15.7372C29.2576 15.557 29.5002 15.4096 29.7276 15.4096C29.955 15.4096 30.1411 15.557 30.1411 15.7372C30.1411 15.9399 29.9355 16.0648 29.6019 16.0648C29.2123 16.0648 29.0976 15.9739 29.1884 15.7372ZM70.7245 15.0274L70.6567 14.2083L68.2179 14.1467L65.779 14.0851L65.0841 13.0022L64.3892 11.9193L64.8057 11.2073L65.2222 10.4953L68.9223 10.5581C76.1946 10.6816 84.993 11.4603 92.4981 12.6447L94.2454 12.9204V13.7358C94.2454 14.6803 94.5703 14.9633 95.6651 14.9724C96.7588 14.9815 97.4124 15.1954 97.4124 15.5443C97.4124 15.7931 96.4887 15.8464 92.1759 15.8464H86.9395L87.0696 15.1958C87.1802 14.6428 87.1169 14.5137 86.6485 14.3356C86.3454 14.2204 86.0328 14.0217 85.954 13.8942C85.723 13.5203 85.3407 13.6321 84.526 14.3117C83.8452 14.8795 83.7916 14.9984 84.0364 15.3979C84.3092 15.843 84.2851 15.8464 80.8694 15.8447L77.4276 15.8431L77.1545 15.2552C77.0044 14.9319 76.8815 14.4903 76.8815 14.274C76.8815 14.0577 76.8078 13.8716 76.7177 13.8604C74.9763 13.6439 74.1466 13.8482 74.2887 14.4584C74.3126 14.5611 74.2563 14.9155 74.1635 15.2458C73.9991 15.8311 73.9539 15.8465 72.3936 15.8465H70.7923L70.7245 15.0274ZM29.049 14.658C29.049 14.4849 29.154 14.2784 29.2823 14.1991C29.4106 14.1198 29.466 13.9256 29.4053 13.7675C29.3446 13.6094 29.4362 13.4258 29.6088 13.3596C29.8281 13.2754 29.9226 13.3976 29.9226 13.7654C29.9226 14.0549 30.0225 14.3535 30.1446 14.4289C30.4992 14.6481 30.1634 14.9728 29.5821 14.9728C29.2635 14.9728 29.049 14.8461 29.049 14.658ZM28.5414 13.7928C28.418 13.4715 28.5592 13.2254 28.867 13.2254C28.9671 13.2254 29.049 13.422 29.049 13.6623C29.049 14.1631 28.7163 14.2487 28.5414 13.7928ZM30.3595 13.566C30.3595 13.2585 30.4578 13.007 30.5779 13.007C30.698 13.007 30.7963 13.1978 30.7963 13.431C30.7963 13.6641 30.698 13.9156 30.5779 13.9899C30.454 14.0664 30.3595 13.883 30.3595 13.566ZM9.70115 13.0583C9.33568 12.8105 7.86288 10.5363 7.86288 10.2198C7.86288 10.065 8.12163 9.84006 8.43787 9.71983C9.0303 9.49459 22.0929 9.44208 23.1946 9.6605C23.6881 9.75834 23.7942 9.90618 23.8499 10.5731C23.9136 11.3371 23.9524 11.3716 24.8192 11.4349C26.1957 11.5354 26.9013 10.8305 27.0347 9.22181C27.1074 8.34422 27.2279 7.98353 27.4484 7.98353C27.691 7.98353 27.7451 8.28155 27.6943 9.33938C27.6317 10.6458 27.5974 10.7176 26.7556 11.3078C25.4782 12.2036 24.0708 12.3491 16.6699 12.3505L10.0787 12.3517L9.64921 11.8057C9.41298 11.5054 9.16013 11.2597 9.08733 11.2597C8.77613 11.2597 8.99419 11.8756 9.46046 12.3137C9.95941 12.7824 10.062 12.7884 17.3779 12.779C24.7407 12.7695 24.996 12.7487 26.7369 12.0165C27.5893 11.658 26.8191 12.3935 25.9097 12.8065C25.0845 13.1812 24.3712 13.2159 17.4731 13.2173C13.3287 13.218 9.83131 13.1466 9.70115 13.0583ZM28.8306 12.5702C28.3049 12.0445 28.2844 11.7315 28.7337 11.0899C29.1461 10.5012 29.9434 10.4609 30.4348 11.0039C30.9382 11.5601 30.8857 12.2644 30.3109 12.667C29.6693 13.1164 29.3563 13.0959 28.8306 12.5702ZM30.098 11.7767C30.1346 11.5213 30.0199 11.26 29.841 11.1913C29.4252 11.0318 28.9604 11.5874 29.1331 12.0375C29.3193 12.5228 30.0181 12.3339 30.098 11.7767ZM46.0124 12.8614C45.5977 12.4467 46.1199 12.3518 48.8154 12.3518C51.5009 12.3518 52.341 12.5205 51.4185 12.8745C50.9483 13.0549 46.1944 13.0435 46.0124 12.8614ZM52.4192 12.6794C52.6352 12.4192 53.2701 12.3518 55.5038 12.3518C57.8583 12.3518 58.3164 12.4052 58.3164 12.6794C58.3164 12.9552 57.8281 13.007 55.2319 13.007C52.5148 13.007 52.1797 12.968 52.4192 12.6794ZM45.6484 11.7169C45.6484 11.608 45.9375 10.8745 46.2909 10.0869L46.9334 8.65485L51.8911 8.5922L56.8487 8.52956L57.5826 10.1403C57.9862 11.0262 58.3164 11.788 58.3164 11.833C58.3164 11.8781 55.4661 11.915 51.9824 11.915C48.3394 11.915 45.6484 11.8308 45.6484 11.7169ZM53.1658 11.564C53.5928 11.4001 53.6414 9.89231 53.2307 9.55141C53.0729 9.42051 51.8055 9.30137 50.3367 9.27939L47.7233 9.24028L47.1197 10.266C46.7877 10.8301 46.5723 11.3828 46.6412 11.4941C46.7781 11.7158 52.6077 11.7782 53.1658 11.564ZM47.2995 10.9769C47.3814 10.7635 48.0631 10.7043 50.0775 10.7359C53.2465 10.7856 53.0745 10.768 53.0745 11.0413C53.0745 11.1761 51.9483 11.2597 50.1327 11.2597C47.8146 11.2597 47.214 11.1998 47.2995 10.9769ZM47.908 9.89465C47.8523 9.80455 48.992 9.73084 50.4406 9.73084C51.8892 9.73084 53.0745 9.82035 53.0745 9.92976C53.0745 10.1666 48.0551 10.1325 47.908 9.89465ZM55.8652 11.3566C56.4713 10.9321 56.4934 10.092 55.9138 9.51242C55.3881 8.98672 55.0751 8.96624 54.4336 9.4156C53.8533 9.82202 53.7937 10.727 54.3096 11.2971C54.7521 11.786 55.2262 11.8041 55.8652 11.3566ZM54.3934 10.8387C54.1079 10.3053 54.302 9.78661 54.8524 9.6119C55.6684 9.35292 56.264 10.3854 55.6517 10.9976C55.2586 11.3908 54.6475 11.3136 54.3934 10.8387ZM24.6261 11.0918C24.3757 11.0378 24.2439 10.8039 24.2439 10.4137C24.2439 10.0862 24.1259 9.70026 23.9818 9.55611C23.7876 9.36188 21.667 9.29401 15.7931 9.29401C8.10313 9.29401 7.85844 9.30711 7.59378 9.73084C7.24712 10.2859 6.77082 10.2961 6.77082 9.74842C6.77082 9.3831 6.62359 9.33449 5.6263 9.37053C4.7353 9.40273 4.46567 9.4956 4.40901 9.78978C4.34653 10.1142 4.06162 10.1677 2.39422 10.1677C0.318221 10.1677 0 9.9954 0 8.87155C0 8.42431 0.0658144 8.42036 7.52237 8.42036C12.3017 8.42036 15.094 8.34072 15.1797 8.20195C15.2641 8.06546 17.4298 7.98353 20.9533 7.98353H26.5918L26.7298 8.67337C27.0077 10.063 25.8778 11.362 24.6261 11.0918ZM28.3937 10.2299C28.3937 9.9768 28.5661 9.83343 28.8852 9.82118C29.1555 9.81076 29.5359 9.73144 29.7306 9.64482C29.9587 9.54335 30.1311 9.60834 30.2152 9.82749C30.3122 10.0803 30.2036 10.1677 29.7922 10.1677C29.4878 10.1677 29.0486 10.2694 28.8162 10.3938C28.4719 10.5781 28.3937 10.5478 28.3937 10.2299ZM47.0792 2.687C46.8117 1.82124 46.8138 0.542038 47.0834 0.186506C47.348 -0.162437 47.3826 -0.0784151 47.3887 0.928841C47.3938 1.74937 47.4951 2.12032 47.7539 2.26517C47.951 2.37545 48.0435 2.5769 47.9595 2.71285C47.7546 3.04428 47.1845 3.02754 47.0792 2.687Z" />
</svg>
