<svg width="100" height="27" viewBox="0 0 100 27"  xmlns="http://www.w3.org/2000/svg">
<path d="M61.7521 26.4737C61.5917 26.2447 61.4604 25.9951 61.4604 25.9191C61.4604 25.8431 63.147 25.7564 65.2084 25.7265C67.6213 25.6915 68.9541 25.7389 68.9499 25.8595C68.9464 25.9626 68.7852 26.2367 68.5918 26.4686C68.253 26.8746 68.1256 26.8902 65.1419 26.8902C62.1529 26.8902 62.0336 26.8755 61.7521 26.4737ZM61.5742 25.2821C61.5116 25.119 61.4604 22.6024 61.4604 19.6895C61.4604 14.7966 61.4865 14.3696 61.8031 14.0831C62.0925 13.8213 62.6102 13.774 65.1293 13.7793C69.3344 13.788 68.9559 13.1911 68.9559 19.8162V25.1435L68.4787 25.361C68.1768 25.4985 66.8411 25.5785 64.8447 25.5785C62.139 25.5785 61.6717 25.5361 61.5742 25.2821ZM66.6467 22.6428L67.6442 21.9558V18.7077V15.4595L66.3794 15.4642C65.2336 15.4684 65.0307 15.5304 64.2244 16.1219L63.3343 16.7749V19.9275C63.3343 21.6614 63.3905 23.1362 63.4592 23.2049C63.528 23.2736 64.0488 23.3299 64.6167 23.3299C65.4994 23.3299 65.794 23.2301 66.6467 22.6428ZM63.7091 19.9586V17.1496L64.5992 16.4916C65.3493 15.937 65.6219 15.8409 66.3325 15.8807L67.1758 15.928L67.2274 18.7661L67.279 21.6043L66.5446 22.186C65.9206 22.6801 65.652 22.7676 64.7596 22.7676H63.7091V19.9586ZM60.8983 22.674C60.8983 21.7048 60.8708 21.6433 60.4386 21.6433C59.4251 21.6433 59.0499 21.2455 57.2739 18.2881C54.8257 14.2114 54.901 14.3891 54.9076 12.7048C54.9118 11.6204 54.9625 11.3279 55.1043 11.5712C55.2621 11.8422 55.5676 11.8991 56.8635 11.8991H58.4317L58.837 12.555C59.2114 13.1607 59.3128 13.2109 60.164 13.2109H61.0857V18.4577C61.0857 21.3435 61.0435 23.7046 60.992 23.7046C60.9404 23.7046 60.8983 23.2408 60.8983 22.674ZM60.8779 16.3496L60.8983 15.6469H59.7875H58.6768L58.0073 14.5449C57.6391 13.9388 57.3379 13.3485 57.3379 13.2332C57.3379 13.1178 57.2031 13.0235 57.0383 13.0235C56.7845 13.0235 56.8024 13.1309 57.155 13.7262C57.384 14.1127 58.0843 15.3382 58.7114 16.4496C59.3385 17.561 60.0238 18.6559 60.2344 18.8828L60.6172 19.2952L60.7374 18.1737C60.8035 17.557 60.8668 16.7361 60.8779 16.3496ZM78.4391 20.5974C78.3766 20.4343 78.3254 20.1884 78.3254 20.0509C78.3254 19.6041 76.2723 16.13 75.6951 15.6001C75.1763 15.1238 75.0153 15.0847 73.5676 15.0847C72.6709 15.0847 71.6686 14.9674 71.2232 14.8102C70.6776 14.6177 70.3062 14.5884 69.9807 14.7122L69.5163 14.8888L69.6134 17.0354C69.6746 18.389 69.6403 19.2255 69.5206 19.2994C69.3949 19.3771 69.3352 18.2888 69.3439 16.0796C69.3511 14.2441 69.4188 12.8995 69.4943 13.0915C69.7133 13.6485 71.6463 14.3352 72.9953 14.3352C74.1303 14.3352 74.1677 14.3193 74.4554 13.713C74.7875 13.013 74.6243 12.1442 74.0068 11.3256C73.5866 10.7684 73.3137 10.9752 73.6102 11.6261C73.9388 12.3471 73.8378 14.1478 73.4689 14.1478C73.3985 14.1478 73.2384 13.6516 73.1131 13.0451C72.7862 11.4622 72.3373 10.9629 71.2379 10.9593C70.7558 10.9578 70.2349 10.8747 70.0803 10.7748C69.8949 10.655 71.4827 10.5922 74.7455 10.5903L79.6918 10.5874L79.183 11.0589C78.9032 11.3182 78.5982 11.4834 78.5053 11.426C78.1347 11.1969 76.4515 12.3068 76.4515 12.7803C76.4515 13.0033 77.7809 15.5485 79.395 18.4158L79.8462 19.2173L80.814 18.3706C81.6481 17.641 81.8185 17.5606 82.0468 17.7889C82.4509 18.193 82.2175 18.5258 80.6651 19.7594C79.2127 20.9137 78.6428 21.1282 78.4391 20.5974ZM75.4008 14.4136C75.5807 13.9446 75.5359 13.773 75.2335 13.773C75.0586 13.773 74.9524 13.95 74.9524 14.2415C74.9524 14.7649 75.2257 14.8697 75.4008 14.4136ZM31.4099 18.2567C30.9849 17.9224 30.9162 17.7268 30.9162 16.8513V15.8343H33.2585H35.6009L35.5938 16.6307C35.587 17.3982 35.5487 17.4492 34.5363 18.0361C33.2671 18.7719 32.1638 18.8498 31.4099 18.2567ZM34.6639 16.7858C34.6639 16.0678 33.7918 15.7721 33.3283 16.3329C33.0931 16.6175 33.1069 16.6218 33.4897 16.3834C33.8568 16.1548 33.9487 16.163 34.2356 16.45C34.5226 16.737 34.5308 16.8289 34.3022 17.1959C34.0638 17.5787 34.0682 17.5925 34.3528 17.3573C34.5239 17.2158 34.6639 16.9587 34.6639 16.7858ZM32.4153 16.7976C32.4153 16.1848 31.4971 15.7238 31.2081 16.1916C31.1503 16.285 31.2566 16.3213 31.4443 16.2723C31.8621 16.163 32.3111 16.6588 32.1573 17.0597C32.0926 17.2283 32.1235 17.3042 32.23 17.2384C32.3319 17.1754 32.4153 16.9771 32.4153 16.7976ZM78.7969 16.6074C78.1878 15.5123 77.479 14.2045 77.2217 13.7013L76.7539 12.7863L77.3552 12.249C78.1399 11.5479 78.3254 11.5714 78.3254 12.3718C78.3254 12.8724 78.4976 13.2232 79.0381 13.8241C79.6601 14.5155 81.3236 17.0892 81.3236 17.3601C81.3236 17.414 81.0042 17.7147 80.6139 18.0283L79.9043 18.5986L78.7969 16.6074ZM28.7353 17.9893C28.6429 17.7484 27.853 17.7082 23.2132 17.7082H17.799L17.7753 17.0055L17.7516 16.3028L17.5549 17.0055L17.3581 17.7082H15.4236H13.4891L13.4834 16.7244C13.4788 15.9248 13.4396 15.8062 13.2742 16.0909C13.1622 16.2836 13.1115 16.8037 13.1614 17.2467C13.2384 17.9299 13.2062 18.0359 12.949 17.9448C12.369 17.7393 12.1774 17.4712 12.1774 16.8649C12.1774 16.1383 12.5576 15.7718 13.3117 15.7718C13.6154 15.7718 13.8639 15.7107 13.8639 15.636C13.8639 15.4116 14.8202 15.243 15.053 15.4263C15.2738 15.6002 28.3823 15.8649 28.8081 15.7041C29.5019 15.4421 28.82 15.2721 27.0747 15.2721C25.3268 15.2721 25.1069 15.2355 25.1046 14.9442C25.1031 14.7638 25.0512 14.4265 24.9891 14.1946L24.8761 13.773H36.2349H47.5938V14.6163V15.4595H46.6543C46.1376 15.4595 45.5363 15.3541 45.3181 15.2253C45.0007 15.0379 44.9044 15.0379 44.8365 15.2253C44.7283 15.5241 44.3251 15.5241 43.819 15.2253C43.5016 15.0379 43.4053 15.0379 43.3374 15.2253C43.2817 15.3791 42.8451 15.4595 42.0658 15.4595C41.2832 15.4595 40.8522 15.3797 40.8004 15.2253C40.7392 15.0431 40.6082 15.0515 40.211 15.2631C39.7899 15.4875 39.6327 15.493 39.315 15.2946C39.0387 15.122 38.8724 15.1113 38.7269 15.2567C38.4365 15.5472 36.2148 15.5204 36.1157 15.2253C36.0532 15.0392 35.944 15.0383 35.5847 15.2211C35.3292 15.351 34.215 15.4733 33.0239 15.5022C31.07 15.5494 30.9155 15.5275 30.9158 15.2023C30.9162 14.9022 30.8729 14.8874 30.617 15.0997C30.3781 15.298 30.3312 15.6425 30.3842 16.8092L30.4505 18.2703H29.6469C29.1053 18.2703 28.808 18.1786 28.7353 17.9893ZM95.1833 16.5218C94.1594 16.05 90.4784 13.3512 90.3313 12.9643C90.2456 12.739 89.0342 11.7747 87.6392 10.8215L85.1029 9.08832H83.8802C83.2076 9.08832 82.6202 9.02507 82.5747 8.94777C82.5291 8.87048 82.5636 8.6175 82.6512 8.38561C82.8046 7.97975 82.8971 7.96399 85.1234 7.96399C87.3881 7.96399 87.4639 7.97763 88.7675 8.61985L90.0988 9.27571H93.4461C96.1724 9.27571 96.8707 9.32982 97.2099 9.56741C97.6146 9.85093 97.6263 9.95621 97.6263 13.3152V16.7712L96.6425 16.756C96.1015 16.7476 95.4448 16.6422 95.1833 16.5218ZM97.0246 12.6623C97.0667 11.311 97.0252 10.9439 96.8372 11.0062C96.6687 11.062 96.5793 11.6113 96.5416 12.8224C96.4995 14.1738 96.541 14.5409 96.729 14.4786C96.8974 14.4228 96.9868 13.8735 97.0246 12.6623ZM95.3777 12.5229V11.0853L94.5311 10.2742L93.6846 9.46309H91.6207C89.8728 9.46309 89.5387 9.51058 89.4378 9.77336C89.3209 10.0781 89.4205 10.1905 90.6606 11.1536L91.1614 11.5425L90.5617 11.2524C89.8198 10.8934 89.729 10.8929 89.2765 11.2461C88.9291 11.5173 88.9347 11.5251 89.4015 11.4199C89.6736 11.3585 90.2029 11.4403 90.5956 11.6044C91.4385 11.9566 91.5045 11.9636 91.3309 11.6827C91.1649 11.4142 91.2693 11.4771 93.307 12.8745C94.1779 13.4717 95.0001 13.9604 95.1341 13.9604C95.3128 13.9604 95.3777 13.5775 95.3777 12.5229ZM93.3164 13.4957C93.3164 13.3838 91.8904 12.6487 91.6732 12.6487C91.5857 12.6487 91.3505 12.7765 91.1504 12.9326C90.8027 13.2041 90.8081 13.2118 91.272 13.1073C91.5389 13.0471 92.0448 13.1233 92.3963 13.2765C93.0939 13.5806 93.3164 13.6336 93.3164 13.4957ZM96.6894 10.294C96.6894 9.94878 96.2474 9.46309 95.9333 9.46309C95.4838 9.46309 95.4695 9.60912 95.8752 10.0573C96.1655 10.3781 96.6894 10.5304 96.6894 10.294ZM86.4299 9.30129C86.0949 9.01455 85.8209 8.68552 85.8209 8.57012C85.8209 8.45473 86.1793 8.32803 86.6173 8.28858C87.308 8.22637 87.2707 8.2125 86.3362 8.18411C84.9949 8.14336 84.9147 8.44935 86.0551 9.25708C87.0531 9.9639 87.228 9.98454 86.4299 9.30129ZM98.1184 11.1351C98.1642 7.89847 98.1223 5.22585 98.021 4.85756C97.8207 4.13228 97.9039 4.09229 98.8181 4.47425C100.038 4.98399 100.303 6.41261 99.6618 9.02151C99.5388 9.52204 99.4249 11.37 99.4087 13.1281C99.3926 14.8862 99.3173 16.4251 99.2413 16.5479C99.1654 16.6707 98.8638 16.7712 98.571 16.7712H98.0387L98.1184 11.1351ZM48.1559 14.1478C48.1559 13.7877 48.2808 13.773 51.3415 13.773C53.0936 13.773 54.5271 13.8083 54.5271 13.8514C54.5271 13.8945 54.5783 14.0631 54.6408 14.2262C54.7419 14.4895 54.3868 14.5226 51.4552 14.5226C48.2808 14.5226 48.1559 14.5084 48.1559 14.1478ZM68.5363 13.7532C68.3459 13.6457 66.8073 13.5921 64.8352 13.6243C61.1082 13.6851 61.2336 13.73 61.6662 12.4893L61.8719 11.8991H65.1038C68.0422 11.8991 68.365 11.9315 68.6582 12.2555C68.8683 12.4876 68.9601 12.8431 68.9215 13.2745C68.8707 13.8428 68.8159 13.9109 68.5363 13.7532ZM24.8199 13.3882C24.7528 13.2797 24.7561 12.6894 24.8272 12.0765L24.9565 10.9622H26.9116C28.4766 10.9622 28.8882 11.0183 28.9745 11.2433C29.0338 11.3979 29.1895 11.5244 29.3205 11.5244C29.4514 11.5244 29.6635 11.3979 29.7918 11.2433C30.1401 10.8237 39.5625 10.8237 39.9108 11.2433C40.2096 11.6033 40.5899 11.6033 40.7281 11.2433C40.8185 11.0078 41.3843 10.9622 44.2148 10.9622H47.5937L47.5916 12.1334L47.5896 13.3045L47.1096 12.6955C46.4735 11.8884 46.1524 11.9259 45.9073 12.8361C45.7243 13.5155 45.6492 13.585 45.1037 13.5785C44.6176 13.5727 44.4031 13.4286 43.9883 12.829C43.3316 11.8795 42.9787 11.8815 42.7217 12.8361L42.5198 13.5856L41.3559 13.5785C40.2141 13.5715 40.1822 13.5573 39.6784 12.829C39.0217 11.8795 38.6688 11.8815 38.4118 12.8361L38.2099 13.5856L35.9216 13.5785L33.6334 13.5714L33.1198 12.8289C32.463 11.8795 32.1102 11.8815 31.8531 12.8361C31.6577 13.5617 31.6261 13.5854 30.8621 13.5785C30.1574 13.5722 30.018 13.492 29.5594 12.829C28.9027 11.8795 28.5498 11.8815 28.2927 12.8361C28.1194 13.4797 28.0191 13.5846 27.5828 13.5785C27.2063 13.5733 26.9417 13.3792 26.5612 12.829C25.9045 11.8795 25.5516 11.8815 25.2945 12.8361C25.081 13.6292 25.0157 13.7051 24.8199 13.3882ZM27.918 13.2877C27.918 13.2269 27.7282 13.019 27.4963 12.8255L27.0747 12.4738L27.4807 12.4675C27.704 12.4641 27.9293 12.5667 27.9813 12.6955C28.0332 12.8243 28.0824 12.74 28.0906 12.5081C28.1035 12.1387 28.0126 12.0865 27.3558 12.0865C26.9436 12.0865 26.6063 12.1367 26.6063 12.1981C26.6063 12.4753 27.4087 13.3982 27.6496 13.3982C27.7972 13.3982 27.918 13.3485 27.918 13.2877ZM45.4143 12.9766C45.6271 12.1827 45.5589 12.0865 44.7829 12.0865C44.3706 12.0865 44.0333 12.1368 44.0333 12.1981C44.0333 12.4622 44.8301 13.3982 45.0549 13.3982C45.1904 13.3982 45.3522 13.2085 45.4143 12.9766ZM44.5955 12.7424C44.4006 12.5075 44.4277 12.4613 44.76 12.4613C44.9886 12.4613 45.1577 12.5808 45.1577 12.7424C45.1577 12.897 45.0837 13.0235 44.9932 13.0235C44.9028 13.0235 44.7238 12.897 44.5955 12.7424ZM38.318 12.2739C38.3931 12.1524 37.5043 12.0865 35.7883 12.0865C34.0723 12.0865 33.1834 12.1524 33.2585 12.2739C33.326 12.3831 34.3811 12.4613 35.7883 12.4613C37.1954 12.4613 38.2505 12.3831 38.318 12.2739ZM25.8954 13.4523C25.5524 13.3866 25.4909 13.2878 25.5907 12.9625C25.7798 12.3468 25.8515 12.3331 26.2401 12.8389C26.6159 13.3279 26.7019 13.603 26.4657 13.5601C26.3884 13.5461 26.1318 13.4976 25.8954 13.4523ZM28.483 13.2577C28.4845 13.0773 28.5695 12.8033 28.6718 12.6487C28.8293 12.4105 28.914 12.4391 29.2269 12.8361C29.7274 13.4711 29.6992 13.5856 29.0423 13.5856C28.6307 13.5856 28.4809 13.4978 28.483 13.2577ZM32.4621 13.4534C32.01 13.3663 31.9338 13.0998 32.2321 12.6487C32.3897 12.4105 32.4744 12.4391 32.7873 12.8361C33.1726 13.3249 33.2638 13.6036 33.0243 13.5601C32.947 13.5461 32.694 13.498 32.4621 13.4534ZM39.0126 13.4523C38.6695 13.3866 38.608 13.2878 38.7079 12.9625C38.89 12.3695 38.927 12.3632 39.3377 12.8564C39.7261 13.3227 39.824 13.6039 39.5829 13.5601C39.5056 13.5461 39.2489 13.4976 39.0126 13.4523ZM43.3225 13.4523C42.9795 13.3866 42.918 13.2878 43.0178 12.9625C43.2069 12.3468 43.2786 12.3331 43.6672 12.8389C44.043 13.3279 44.129 13.603 43.8928 13.5601C43.8155 13.5461 43.5589 13.4976 43.3225 13.4523ZM46.5081 13.4523C46.1651 13.3866 46.1036 13.2878 46.2034 12.9625C46.3855 12.3695 46.4226 12.3632 46.8332 12.8564C47.2216 13.3227 47.3196 13.6039 47.0784 13.5601C47.0011 13.5461 46.7445 13.4976 46.5081 13.4523ZM48.1559 12.8315V12.0775L51.2946 12.1288L54.4334 12.1802L54.4915 12.8829L54.5497 13.5856H51.3528H48.1559L48.1559 12.8315ZM58.9863 12.2727C58.6721 11.7206 58.6425 11.7117 57.1124 11.7105L55.5577 11.7092L55.1119 11.0546L54.6662 10.4H51.5004H48.3346L48.6416 9.93156L48.9485 9.4631L53.5648 9.46544L58.1811 9.46779L58.6045 10.1213C59.0033 10.737 59.0874 10.7749 60.0568 10.7749H61.0857V11.8055V12.8361L60.1956 12.835C59.4036 12.8339 59.2703 12.7719 58.9863 12.2727ZM68.6571 11.9023C68.518 11.7617 67.3544 11.7127 65.0415 11.7502C61.6591 11.805 61.6301 11.802 61.5274 11.3919C61.3175 10.5537 61.38 10.5398 65.211 10.5753C67.2138 10.5938 68.8814 10.6378 68.9167 10.6731C68.952 10.7083 68.9541 11.046 68.9216 11.4234C68.8785 11.9221 68.8062 12.053 68.6571 11.9023ZM69.3673 11.6181C69.3711 11.3089 69.4131 11.2051 69.4606 11.3874C69.5081 11.5697 69.505 11.8227 69.4537 11.9496C69.4023 12.0764 69.3634 11.9273 69.3673 11.6181ZM48.1909 11.2901L48.2496 10.6811L51.3415 10.6638C54.5666 10.6457 54.7062 10.6794 54.7116 11.4775C54.7144 11.8989 54.7124 11.8991 51.4233 11.8991H48.1321L48.1909 11.2901ZM22.6711 9.65048V8.90093H23.608H24.545V9.65048V10.4H23.608H22.6711V9.65048ZM24.9198 9.55679V8.71354H26.6999H28.4801V9.55679V10.4H26.6999H24.9198V9.55679ZM28.8549 9.55679V8.71354H33.727H38.5991V9.55679V10.4H33.727H28.8549V9.55679ZM38.7865 9.55679V8.71354H40.8594H42.9323L42.3267 9.55679L41.7212 10.4H40.2538H38.7865V9.55679ZM42.7178 9.65534C43.0464 9.24041 43.3795 8.90093 43.4579 8.90093C43.5363 8.90093 43.7531 9.06958 43.9396 9.27571C44.1262 9.48183 44.4555 9.64924 44.6714 9.64772C45.0405 9.64508 45.0372 9.63111 44.6157 9.41348C44.3692 9.28617 44.0521 9.00647 43.9111 8.79193C43.6752 8.43304 43.7751 8.24202 45.1599 6.40273C45.9877 5.30322 46.7058 4.40362 46.7557 4.40362C46.8057 4.40362 47.3138 5.39425 47.8849 6.60502C48.747 8.43271 48.8906 8.87808 48.731 9.22846C48.6037 9.50782 48.3631 9.65783 48.0194 9.67222C47.6832 9.68629 47.6193 9.72488 47.8383 9.78165C48.0244 9.82988 48.1439 9.96767 48.104 10.0878C48.0538 10.2389 47.1197 10.3223 45.0758 10.358L42.1203 10.4097L42.7178 9.65534ZM46.9847 9.63547C46.762 9.50573 46.5516 9.50573 46.3288 9.63547C46.0613 9.7913 46.1217 9.82647 46.6568 9.82647C47.1918 9.82647 47.2522 9.79129 46.9847 9.63547ZM58.8122 9.74417C58.4751 9.17283 58.331 9.08832 57.6942 9.08832C57.2921 9.08832 56.9631 9.00399 56.9631 8.90093C56.9631 8.79786 56.7031 8.71354 56.3853 8.71354C56.0676 8.71354 55.8357 8.63733 55.87 8.54418C55.9044 8.45103 56.3119 7.43976 56.7757 6.2969L57.619 4.21897L58.5559 4.21888C59.4046 4.2188 59.5322 4.27662 59.9108 4.83269C60.1406 5.17033 60.6044 5.74595 60.9414 6.11183L61.5541 6.77708L70.2677 6.69361C77.3426 6.62583 79.0368 6.56124 79.2771 6.35012C79.7848 5.90388 81.2342 6.02566 82.0804 6.58563C82.5161 6.87396 83.0433 7.06369 83.3412 7.03938C83.6229 7.01639 87.0155 6.93895 90.8804 6.86728L97.9074 6.73696L91.0978 6.69462C84.3644 6.65274 84.2845 6.64773 83.9594 6.24625C83.5769 5.77395 83.0285 5.88523 82.8767 6.46595C82.784 6.82056 82.7394 6.81082 82.0143 6.27761C81.4152 5.837 81.055 5.71533 80.3497 5.71533H79.4497V4.59101C79.4497 3.25008 79.4298 3.2538 82.8227 3.9601C83.1834 4.03519 86.5921 4.12748 90.3976 4.16518C98.2111 4.2426 97.6848 4.12934 97.9151 5.78292C97.9849 6.28388 97.9824 7.40907 97.9093 8.28335L97.7769 9.87296L97.2696 9.38694L96.7623 8.90093H93.3761H89.9899L88.5507 8.24507C87.1621 7.61224 87.0328 7.58922 84.8692 7.58922C82.6593 7.58922 82.6239 7.59596 82.4135 8.05769C82.244 8.42971 82.0616 8.52675 81.5274 8.52903C80.6508 8.53274 80.2057 8.79521 80.5284 9.118C80.6564 9.24596 80.7611 9.54461 80.7611 9.78166V10.2126H75.3269C70.1357 10.2126 69.8926 10.1969 69.8926 9.86082C69.8926 9.12414 69.5441 9.0706 65.2737 9.15119C60.7811 9.23597 60.6567 9.24676 60.7782 9.54118C61.1483 10.4378 61.1753 10.4 60.1622 10.4C59.2599 10.4 59.1746 10.3585 58.8122 9.74417ZM76.4515 9.37297C76.4515 8.82506 75.9988 8.65882 74.75 8.74806C74.003 8.80142 73.9159 8.85781 73.8624 9.32255L73.8031 9.83787H75.1273C76.4121 9.83787 76.4515 9.82405 76.4515 9.37297ZM60.452 8.40218C60.2934 8.10965 60.1604 7.92957 60.1562 8.00202C60.1435 8.22477 60.5795 9.09479 60.6623 9.01198C60.7051 8.96913 60.6105 8.69472 60.452 8.40218ZM69.4244 7.96399C69.3546 7.85096 68.0446 7.7766 66.123 7.7766C64.047 7.7766 62.9778 7.84187 63.0532 7.96399C63.1231 8.07703 64.433 8.15138 66.3546 8.15138C68.4306 8.15138 69.4999 8.08611 69.4244 7.96399ZM61.6478 9.55679C61.7761 9.4022 62.0816 9.27571 62.3266 9.27571C62.5977 9.27571 62.7721 9.38576 62.7721 9.55679C62.7721 9.75491 62.5718 9.83787 62.0933 9.83787C61.5112 9.83787 61.4478 9.79784 61.6478 9.55679ZM63.3343 9.55679C63.3343 9.32666 63.657 9.27571 65.1145 9.27571C66.572 9.27571 66.8947 9.32666 66.8947 9.55679C66.8947 9.78692 66.572 9.83787 65.1145 9.83787C63.657 9.83787 63.3343 9.78692 63.3343 9.55679ZM67.4568 9.55679C67.4568 9.1836 68.5697 9.17946 69.0607 9.55083C69.3956 9.80414 69.3464 9.82642 68.4406 9.83191C67.6884 9.83641 67.4568 9.77171 67.4568 9.55679ZM0.254694 8.61023C-0.290795 7.77771 0.0378651 7.6893 3.94144 7.61851L7.49267 7.55411V7.10319V6.65228H3.74491C0.299445 6.65228 -0.00262065 6.62582 1.68998e-05 6.32435C0.00695525 5.5376 0.118895 5.5185 4.97743 5.47554L9.64763 5.43425V6.83966C9.64763 7.61264 9.71657 8.4348 9.8008 8.6667L9.95397 9.08832H5.26096H0.567952L0.254694 8.61023ZM10.2844 8.78425C9.99884 8.44016 9.83145 6.11586 10.0674 5.77044C10.2039 5.57054 11.2839 5.43764 12.229 5.50443C12.5368 5.52619 12.5403 5.5694 12.2759 6.08081C11.9169 6.77503 11.9102 7.90034 12.2611 8.573L12.5299 9.08832H11.5333C10.8426 9.08832 10.4593 8.995 10.2844 8.78425ZM48.1841 6.69912L47.0144 4.30993L49.6723 4.25778C51.1342 4.22909 52.3659 4.24128 52.4095 4.28487C52.5154 4.3907 50.4402 8.51728 50.1202 8.83723C49.9821 8.97533 49.7532 9.08833 49.6115 9.08833C49.4675 9.08833 48.8378 8.03424 48.1841 6.69912ZM51.3415 8.90093C51.3415 8.79787 51.215 8.71354 51.0604 8.71354C50.9058 8.71354 50.7779 8.6503 50.7761 8.573C50.7744 8.4957 51.2089 7.48381 51.7418 6.32435L52.7106 4.21623H55.0443C56.8357 4.21623 57.3565 4.27066 57.2854 4.45047C57.2344 4.5793 56.795 5.67552 56.3089 6.88651L55.425 9.08832H53.3833C52.147 9.08832 51.3415 9.01439 51.3415 8.90093ZM12.5483 8.14422C12.4359 7.93416 12.3697 7.40713 12.4012 6.97305L12.4584 6.18381L18.5017 6.13437L24.545 6.08493V7.30555V8.52617H18.6488C12.9077 8.52617 12.7473 8.51612 12.5483 8.14422ZM24.9198 5.99642C24.9198 3.5916 24.9383 3.46668 25.2945 3.46668C25.5325 3.46668 25.6693 3.34175 25.6693 3.12457C25.6693 2.77005 26.3981 1.96757 26.72 1.96757C26.8208 1.96757 26.8997 1.52487 26.8953 0.983787C26.8893 0.242865 26.9548 0 27.1607 0C27.313 0 27.487 0.248991 27.5536 0.562164C27.6193 0.871354 27.8546 1.44311 28.0766 1.83273C28.6227 2.79133 28.5961 3.09126 27.9648 3.09477C27.6814 3.09633 27.323 3.17938 27.1684 3.27929C26.8515 3.4841 26.517 3.4771 37.0063 3.48511C47.209 3.4929 46.6568 3.50955 46.6568 3.19416C46.6568 2.98811 46.9653 2.90812 47.9216 2.86623L49.1865 2.81082L49.2432 1.82704C49.2743 1.28595 49.39 0.843249 49.5003 0.843249C49.6282 0.843249 49.6164 0.74145 49.4676 0.562167C49.2612 0.313513 49.8099 0.281085 54.223 0.281085H59.2118V1.03064V1.78019H54.4334H49.655V2.34235V2.90452L50.9199 2.93652C51.6155 2.95412 53.1434 2.9521 54.315 2.93199C55.621 2.9096 56.5399 2.97389 56.6896 3.09813C56.8665 3.24494 57.0411 3.23376 57.3232 3.05757C57.6425 2.8582 57.7829 2.8582 58.1021 3.05757C58.3824 3.23257 58.5595 3.24443 58.7337 3.09985C59.0151 2.86629 62.5178 2.8802 62.9876 3.11674C63.2002 3.22374 63.332 3.18081 63.4093 2.97943C63.5635 2.5774 63.5677 2.58547 63.1469 2.47543C62.567 2.32377 62.6665 1.65745 63.2875 1.53413C63.9466 1.40322 66.6921 1.60395 66.808 1.79153C66.8564 1.86974 66.8444 2.06783 66.7816 2.23173C66.6983 2.44862 66.4146 2.52972 65.7393 2.52972C65.2289 2.52972 64.8585 2.60613 64.9162 2.69952C64.974 2.79291 65.1947 2.82393 65.4068 2.76846C65.6902 2.69436 65.8202 2.77363 65.897 3.06713C65.9947 3.44068 66.1211 3.46666 67.8409 3.46666C69.5852 3.46666 69.6869 3.44486 69.8095 3.04504C70.0484 2.26575 70.2563 2.13882 70.7566 2.46666C71.1102 2.69832 71.1641 2.82117 70.9995 3.0195C70.7316 3.3423 70.9132 3.84143 71.2985 3.84143C71.4596 3.84143 71.652 3.68963 71.726 3.50409C71.8422 3.21267 71.9498 3.19354 72.5163 3.36355C72.9797 3.50259 73.1722 3.66959 73.1722 3.93256C73.1722 4.45432 73.8254 4.54802 73.9569 4.04512C74.0346 3.74773 74.2081 3.65405 74.681 3.65405C75.0229 3.65405 75.5059 3.5768 75.7543 3.48238C76.0026 3.38796 76.8935 3.35785 77.734 3.41547L79.2623 3.52021V4.24299V4.96576H77.4932C76.5159 4.96576 75.6722 5.04964 75.6082 5.15315C75.5419 5.26041 74.5757 5.34054 73.3485 5.34054H71.2046V4.87207V4.4036H68.669C66.588 4.4036 66.114 4.35321 66.0255 4.12252C65.867 3.70936 62.5848 3.70936 62.5848 4.12252C62.5848 4.52968 59.9227 4.52752 59.5845 4.12012C59.3814 3.87535 58.4758 3.84334 52.9581 3.88588L46.5669 3.93516L44.8222 6.23066L43.0774 8.52617H33.9986H24.9198V5.99642ZM28.1758 7.73327C28.333 7.48371 28.3085 7.33729 28.0699 7.09864C27.5085 6.53728 26.671 7.27093 27.1771 7.88072C27.4684 8.2318 27.9022 8.16776 28.1758 7.73327ZM30.0497 7.73327C30.2068 7.48371 30.1824 7.33729 29.9437 7.09864C29.3824 6.53728 28.5449 7.27093 29.051 7.88072C29.3423 8.2318 29.7761 8.16776 30.0497 7.73327ZM31.9236 7.73327C32.0807 7.48371 32.0563 7.33729 31.8176 7.09864C31.2563 6.53728 30.4188 7.27093 30.9248 7.88072C31.2162 8.2318 31.6499 8.16776 31.9236 7.73327ZM33.7974 7.73327C33.9546 7.48371 33.9302 7.33729 33.6915 7.09864C33.1301 6.53728 32.2926 7.27093 32.7987 7.88072C33.0901 8.2318 33.5238 8.16776 33.7974 7.73327ZM35.6713 7.73327C35.8285 7.48371 35.804 7.33729 35.5654 7.09864C35.004 6.53728 34.1665 7.27093 34.6726 7.88072C34.964 8.2318 35.3977 8.16776 35.6713 7.73327ZM37.5452 7.73327C37.7024 7.48371 37.6779 7.33729 37.4393 7.09864C36.8779 6.53728 36.0404 7.27093 36.5465 7.88072C36.8378 8.2318 37.2716 8.16776 37.5452 7.73327ZM39.4191 7.73327C39.5762 7.48371 39.5518 7.33729 39.3131 7.09864C38.7518 6.53728 37.9143 7.27093 38.4204 7.88072C38.7117 8.2318 39.1455 8.16776 39.4191 7.73327ZM41.293 7.73327C41.4501 7.48371 41.4257 7.33729 41.187 7.09864C40.6257 6.53728 39.7882 7.27093 40.2942 7.88072C40.5856 8.2318 41.0193 8.16776 41.293 7.73327ZM43.1668 7.73327C43.324 7.48371 43.2996 7.33729 43.0609 7.09864C42.4996 6.53728 41.662 7.27093 42.1681 7.88072C42.4595 8.2318 42.8932 8.16776 43.1668 7.73327ZM28.738 5.672C28.8951 5.42244 28.8707 5.27601 28.632 5.03736C28.0707 4.476 27.2332 5.20966 27.7392 5.81945C28.0306 6.17053 28.4643 6.10649 28.738 5.672ZM30.6118 5.672C30.769 5.42244 30.7446 5.27601 30.5059 5.03736C29.9445 4.476 29.107 5.20966 29.6131 5.81945C29.9045 6.17053 30.3382 6.10649 30.6118 5.672ZM32.4857 5.672C32.6429 5.42244 32.6184 5.27601 32.3798 5.03736C31.8184 4.476 30.9809 5.20966 31.487 5.81945C31.7784 6.17053 32.2121 6.10649 32.4857 5.672ZM34.3596 5.672C34.5168 5.42244 34.4923 5.27601 34.2537 5.03736C33.6923 4.476 32.8548 5.20966 33.3609 5.81945C33.6522 6.17053 34.086 6.10649 34.3596 5.672ZM36.2335 5.672C36.3906 5.42244 36.3662 5.27601 36.1276 5.03736C35.5662 4.476 34.7287 5.20966 35.2348 5.81945C35.5261 6.17053 35.9599 6.10649 36.2335 5.672ZM38.1074 5.672C38.2645 5.42244 38.2401 5.27601 38.0014 5.03736C37.4401 4.476 36.6026 5.20966 37.1086 5.81945C37.4 6.17053 37.8337 6.10649 38.1074 5.672ZM39.9812 5.672C40.1384 5.42244 40.114 5.27601 39.8753 5.03736C39.314 4.476 38.4764 5.20966 38.9825 5.81945C39.2739 6.17053 39.7076 6.10649 39.9812 5.672ZM41.8551 5.672C42.0123 5.42244 41.9878 5.27601 41.7492 5.03736C41.1878 4.476 40.3503 5.20966 40.8564 5.81945C41.1478 6.17053 41.5815 6.10649 41.8551 5.672ZM43.729 5.672C43.8862 5.42244 43.8617 5.27601 43.6231 5.03736C43.0617 4.476 42.2242 5.20966 42.7303 5.81945C43.0216 6.17053 43.4554 6.10649 43.729 5.672ZM64.037 5.44381C63.5475 4.90445 63.1469 4.36544 63.1469 4.246C63.1469 3.89486 65.7021 3.95555 65.8381 4.30992C65.926 4.53897 66.3784 4.59101 68.2818 4.59101H70.6176L70.6768 5.10632L70.7362 5.62164L73.0317 5.67426C75.1725 5.72332 75.3272 5.75174 75.3272 6.09588C75.3272 6.45459 75.182 6.46432 70.1271 6.44467L64.9271 6.42446L64.037 5.44381ZM66.4313 5.69939C66.6107 5.134 65.9136 4.47441 64.9784 4.32488C63.8612 4.14622 63.7161 4.43268 64.4763 5.31642C65.2314 6.19434 66.2132 6.38665 66.4313 5.69939ZM64.9455 5.31002C64.4175 4.5561 65.1061 4.29591 65.7631 5.00111C66.2639 5.53874 66.2452 5.71533 65.6873 5.71533C65.4304 5.71533 65.1049 5.53746 64.9455 5.31002ZM75.7019 6.19913C75.7019 6.05296 75.6507 5.79999 75.5882 5.63696C75.4891 5.37873 75.7183 5.34055 77.3684 5.34055C78.41 5.34055 79.2623 5.37875 79.2623 5.42543C79.2623 5.47211 79.1644 5.72509 79.0448 5.9876C78.8371 6.44351 78.7574 6.46488 77.2646 6.46488C76.0405 6.46488 75.7019 6.40729 75.7019 6.19913ZM60.7577 5.53478C60.5258 5.24076 60.3361 4.95029 60.3361 4.88929C60.3361 4.8283 60.9538 4.77839 61.7089 4.77839C62.9308 4.77839 63.1299 4.82984 63.5217 5.24686L63.9618 5.71533H62.9922C62.4589 5.71533 62.0226 5.79965 62.0226 5.90272C62.0226 6.2963 61.1606 6.04554 60.7577 5.53478ZM22.674 5.3874C22.6796 4.73701 22.9445 4.57036 23.7641 4.70142C24.4258 4.80723 24.545 4.89413 24.545 5.27081C24.545 5.67931 24.4691 5.71533 23.608 5.71533C22.8396 5.71533 22.6716 5.65637 22.674 5.3874ZM73.4902 3.09387C72.8407 3.02009 72.2286 2.87918 72.1302 2.78072C71.9392 2.58973 73.0138 1.03063 73.3364 1.03063C73.5347 1.03063 75.2918 2.11709 75.6517 2.46223C75.7787 2.58402 75.9895 2.72693 76.1202 2.77982C76.3017 2.85328 76.2914 2.9229 76.0767 3.07476C75.7686 3.29267 75.2729 3.29633 73.4902 3.09387ZM70.9704 2.31194C70.687 2.20842 70.4551 2.05667 70.4551 1.97472C70.4551 1.72009 72.4657 0.0936894 72.7804 0.0936894C73.1313 0.0936894 73.1342 0.110255 72.8927 0.74537C72.6999 1.25251 71.7437 2.54087 71.5794 2.51493C71.5278 2.50679 71.2538 2.41545 70.9704 2.31194Z" />
</svg>
