<svg width="100" height="34" viewBox="0 0 100 34"  xmlns="http://www.w3.org/2000/svg">
<path d="M44.1502 33.0228C42.2486 32.482 42.2244 32.4672 42.1006 31.768C42.0235 31.3325 41.9651 31.2357 41.9487 31.5162C41.9214 31.9825 41.6163 32.0931 41.1585 31.8026C40.9597 31.6763 41.2201 30.4036 42.3079 26.1848C43.0814 23.1848 44.0505 19.5453 44.4614 18.0971C44.8723 16.6488 45.2177 15.2996 45.2291 15.0989C45.2463 14.7953 45.3701 14.7545 45.9659 14.856C47.6826 15.1485 52.7555 16.5358 52.7237 16.7042C52.7044 16.806 52.6287 17.161 52.5554 17.4932C52.4543 17.9511 52.4743 18.0236 52.6379 17.7932C52.9657 17.3319 52.9248 17.7258 52.3513 20.5583C51.8215 23.175 49.3587 31.9836 48.9971 32.5553C48.7434 32.9565 48.6613 33.2986 50.1104 27.9126C51.5664 22.5005 52.4922 18.6115 52.3926 18.3254C52.3488 18.1998 52.246 18.4161 52.164 18.806C51.7887 20.5898 48.3243 33.3104 48.1658 33.4866C47.8313 33.8582 47.2846 33.2939 47.3516 32.6464L47.4135 32.0485L45.0455 31.3857C43.7431 31.0212 42.5532 30.6752 42.4011 30.6168C42.249 30.5585 42.1246 30.5996 42.1246 30.7083C42.1246 30.8169 42.6943 31.0622 43.3906 31.2532C47.0531 32.2583 46.8128 32.144 46.7442 32.8489C46.7072 33.2297 46.5593 33.5044 46.3783 33.5289C46.2111 33.5515 45.2085 33.3238 44.1502 33.0228ZM48.0546 30.1996C48.2335 29.5591 48.3168 28.9728 48.2399 28.8968C48.1629 28.8208 46.915 28.4836 45.4668 28.1476C42.2806 27.4082 42.3575 27.3716 42.2428 29.6782C42.2295 29.9442 42.7519 30.1583 44.6565 30.6678C45.9934 31.0254 47.2317 31.3284 47.4083 31.3411C47.6333 31.3574 47.8268 31.0156 48.0546 30.1996ZM46.277 30.5544C45.9428 30.4607 44.9725 30.233 44.1209 30.0484L42.5725 29.7127L42.6802 28.8675C42.7395 28.4026 42.8108 27.9944 42.8386 27.9606C42.8896 27.8986 47.6482 28.9295 47.7487 29.0243C47.7783 29.0522 47.7287 29.4302 47.6385 29.8642C47.4623 30.7122 47.2409 30.8244 46.277 30.5544ZM48.932 26.1486C49.1173 25.508 49.3083 24.8793 49.3564 24.7515C49.4065 24.6186 49.0263 24.386 48.4681 24.2081C47.0105 23.7434 44.3879 23.0596 44.0631 23.0596C43.8772 23.0596 43.6702 23.5327 43.4678 24.42C43.2971 25.1683 43.1963 25.8192 43.2437 25.8666C43.3464 25.9694 47.9909 27.2695 48.3475 27.2953C48.4836 27.3052 48.7467 26.7891 48.932 26.1486ZM47.391 26.5137C46.6306 26.2735 44.7275 25.7495 44.1278 25.6152C43.6056 25.4982 43.6019 25.4843 43.8241 24.4975C43.9479 23.9479 44.103 23.4443 44.1689 23.3785C44.2748 23.2726 48.3927 24.399 48.5785 24.5848C48.6969 24.7031 48.1738 26.7072 48.0291 26.6896C47.9567 26.6808 47.6695 26.6016 47.391 26.5137ZM50.3134 21.5099C50.4995 20.769 50.5789 20.0915 50.4899 20.0045C50.2728 19.7923 45.9881 18.6065 45.4324 18.6048C45.0861 18.6037 44.9273 18.8075 44.6836 19.5656C44.1044 21.3671 43.9625 21.2061 46.8846 22.0627C48.3329 22.4873 49.6207 22.8397 49.7464 22.8459C49.8721 22.852 50.1272 22.2508 50.3134 21.5099ZM46.9859 21.5154C45.9276 21.2434 44.9517 20.9827 44.8174 20.936C44.6333 20.872 44.653 20.6118 44.8974 19.8791C45.0757 19.3446 45.2424 18.8808 45.2678 18.8486C45.3361 18.7618 49.6968 19.8541 49.8598 19.9988C49.9365 20.0668 49.9063 20.5555 49.7927 21.0847C49.551 22.2113 49.6402 22.1976 46.9859 21.5154ZM51.1138 17.6473L51.2424 16.7926L50.0763 16.4648C49.4349 16.2846 48.2775 15.9538 47.5043 15.7297C46.1569 15.3393 46.0873 15.3375 45.8332 15.685C45.6874 15.8844 45.568 16.3359 45.568 16.6883C45.568 17.3105 45.6106 17.3411 47.0365 17.7442C49.9972 18.5812 50.7358 18.7521 50.8592 18.6284C50.9285 18.559 51.043 18.1175 51.1138 17.6473ZM48.0184 17.4697C46.8594 17.2051 45.8876 16.9645 45.8588 16.9351C45.7213 16.795 46.043 15.7853 46.2473 15.7154C46.375 15.6717 47.446 15.9427 48.6273 16.3176C50.6651 16.9644 50.7702 17.0248 50.6799 17.4975C50.5683 18.0813 50.7032 18.0828 48.0184 17.4697ZM40.93 29.8866C40.8896 29.1772 43.8665 17.9907 44.5255 16.3753C44.8768 15.5142 44.7784 16.2656 44.3625 17.6199C44.1451 18.3279 43.3713 21.186 42.6431 23.9711C41.0872 29.9218 40.9574 30.3697 40.93 29.8866ZM72.4413 23.584C72.3676 23.3918 72.9505 22.8901 74.2215 22.052C76.1645 20.7708 76.5213 20.2806 76.0907 19.4836C75.9796 19.278 75.205 18.3517 74.3694 17.4251L72.85 15.7404L73.287 15.3034L73.7241 14.8663L75.436 16.5692C77.3162 18.4396 77.6308 18.9757 77.5346 20.1456C77.4728 20.8985 77.382 20.9884 75.2596 22.3998C72.9707 23.9219 72.6265 24.0665 72.4413 23.584ZM72.4064 21.8613C72.4064 20.8821 72.4233 20.8555 73.4192 20.2608C73.9762 19.9282 74.6598 19.614 74.9383 19.5624L75.4447 19.4688L74.9626 19.4412C74.6974 19.4261 73.8644 19.7463 73.1116 20.1529C71.8783 20.8191 71.0856 20.9488 71.092 20.4834C71.0936 20.3963 71.7768 19.9361 72.6111 19.4605C74.1214 18.5998 74.3806 18.2549 73.8488 17.8135C73.6313 17.6331 73.2031 17.7695 71.9167 18.4291C70.7805 19.0116 70.1986 19.2111 70.0549 19.0674C69.9112 18.9237 70.3251 18.5953 71.3793 18.0167C72.2227 17.5538 72.9128 17.0886 72.9128 16.983C72.9128 16.8773 72.6401 16.6498 72.3069 16.4775C71.6193 16.122 70.8738 16.2316 70.0458 16.81C69.4374 17.235 69.0408 17.2836 68.7288 16.9716C68.5785 16.8213 68.3316 16.9118 67.8995 17.2754C67.2915 17.7869 67.2419 17.7932 63.7926 17.7932H60.3011L59.4466 16.9324C58.9766 16.4589 58.5556 15.9619 58.5111 15.8279C58.4666 15.694 57.8923 15.4447 57.2348 15.274C55.8409 14.9121 55.9565 14.9903 55.8674 14.3498L55.797 13.8435L57.7536 13.7857L59.7101 13.7279L59.6009 14.5423C59.5109 15.2137 59.5871 15.4818 60.0346 16.0686L60.5776 16.7805H63.7768C67.4887 16.7805 67.6464 16.7119 67.6464 15.0969C67.6464 14.1699 67.6295 14.1456 66.6403 13.6443C65.647 13.141 65.5717 13.1345 60.684 13.1345C55.7565 13.1345 55.7342 13.1326 55.8448 12.7096C55.9515 12.3014 56.0351 12.2904 57.9698 12.4289L59.9837 12.573L60.6678 11.91C61.3307 11.2675 61.4256 11.2412 63.7395 11.0588C65.8428 10.8931 66.1889 10.8125 66.6447 10.3822C67.1115 9.94145 67.3394 9.89336 68.9741 9.89056C69.9706 9.88885 70.8824 9.82049 71.0003 9.73864C71.6577 9.28209 71.9 8.54437 71.9 6.99933C71.9 5.5974 71.8376 5.32863 71.3696 4.71503L70.8391 4.0196H71.7631C72.7588 4.0196 73.9954 4.60845 74.3359 5.2447C74.4444 5.44749 74.5332 6.57555 74.5332 7.75151V9.88962L73.2503 10.4713C71.8608 11.1013 71.018 12.0176 71.1264 12.7804C71.1718 13.1002 71.5051 13.389 72.2457 13.7503C73.6143 14.418 73.6824 14.5021 73.1537 14.8724C72.4252 15.3827 72.6281 15.9215 74.2044 17.6623C75.996 19.6408 76.2771 20.4125 75.4072 20.9638C75.0936 21.1625 74.3624 21.6698 73.7823 22.0911C73.2021 22.5124 72.6553 22.8571 72.5669 22.8571C72.4786 22.8571 72.4064 22.409 72.4064 21.8613ZM69.6719 11.9192C69.6719 11.5376 69.5369 11.5141 67.3426 11.5141C65.1482 11.5141 65.0132 11.5376 65.0132 11.9192C65.0132 12.3008 65.1482 12.3243 67.3426 12.3243C69.5369 12.3243 69.6719 12.3008 69.6719 11.9192ZM71.0296 19.6103C70.941 19.2716 71.1363 19.0912 72.1411 18.584C73.244 18.0272 74.1225 17.9184 73.8414 18.3733C73.7433 18.532 71.3565 20.0213 71.2002 20.0213C71.1654 20.0213 71.0887 19.8364 71.0296 19.6103ZM70.077 18.0077C70.077 17.7915 69.9792 17.5541 69.8596 17.4802C69.53 17.2765 70.3082 16.8125 71.216 16.6715C71.7654 16.5862 72.123 16.6432 72.4064 16.8611C72.6292 17.0325 72.7016 17.1756 72.5672 17.1791C72.4329 17.1827 71.8592 17.459 71.2924 17.7932C70.0735 18.5119 70.077 18.5113 70.077 18.0077ZM96.258 17.4424C95.6637 17.3889 95.3324 17.2421 95.1852 16.9672C94.905 16.4435 95.1503 16.0361 95.477 16.4828C95.6939 16.7795 95.7499 16.7827 95.9752 16.5113C96.1822 16.2618 96.1675 16.1711 95.8949 16.0186C95.6118 15.8601 95.7055 15.708 96.5093 15.021L97.4577 14.2103L97.5713 10.9379C97.6775 7.87698 97.7101 7.66556 98.0766 7.66556C98.3026 7.66556 98.4305 7.55844 98.379 7.41237C98.3298 7.27312 98.1486 7.17041 97.9761 7.18412C97.7551 7.20171 97.6235 6.94795 97.5298 6.32327C97.253 4.47768 97.118 5.58063 97.118 9.68608C97.118 13.8887 97.1126 13.9384 96.6383 14.3949L96.1587 14.8562L96.2871 10.6026C96.3667 7.96783 96.3385 6.08426 96.2132 5.65345C96.1019 5.27091 96.0408 4.92797 96.0774 4.89136C96.1141 4.85475 96.7733 4.89426 97.5425 4.97922L98.9409 5.13365L98.8645 11.0077C98.8224 14.2384 98.7054 17.0413 98.6042 17.2362C98.4178 17.5954 98.1839 17.616 96.258 17.4424ZM94.2735 17.0108C93.5735 16.5839 92.9666 15.7533 92.9635 15.2178C92.9604 14.7435 90.2759 10.0674 89.8534 9.80079C89.6005 9.64126 89.4506 9.70323 89.1902 10.0749C88.8587 10.5482 88.8195 10.5531 86.497 10.4173C85.2007 10.3415 84.0707 10.3488 83.9859 10.4336C83.7583 10.6612 78.559 10.6575 78.0273 10.4293C77.7154 10.2955 77.5715 10.061 77.5715 9.68668C77.5715 9.21203 77.5043 9.15246 77.064 9.23664C76.7848 9.29001 76.429 9.22785 76.2731 9.09855C76.1102 8.96332 75.7628 8.92041 75.4555 8.99756L74.9212 9.13167L74.9804 7.43873C75.0293 6.03944 75.099 5.73445 75.3819 5.68042C75.6514 5.62893 75.7407 5.80049 75.8022 6.4884L75.8804 7.36174L75.9157 6.51729C75.9508 5.68167 75.9611 5.6707 76.9102 5.46829C77.9828 5.23953 78.1709 5.36287 78.1761 6.29833C78.1792 6.80048 78.1094 6.85536 77.4703 6.85536C77.0804 6.85536 76.7614 6.94651 76.7614 7.05791C76.7614 7.16931 77.1733 7.26046 77.6767 7.26046C78.5519 7.26046 78.5865 7.23827 78.465 6.75408C78.3063 6.12174 78.4205 6.12174 79.351 6.75408C79.8618 7.10112 80.3717 7.26046 80.9715 7.26046C81.5713 7.26046 82.0812 7.41981 82.5919 7.76685C83.1902 8.17337 83.5865 8.27323 84.602 8.27323C85.7277 8.27323 85.9034 8.2175 86.1987 7.76685C86.4901 7.32223 86.675 7.26046 87.7154 7.26046C88.7035 7.26046 88.9373 7.32959 89.123 7.67658C89.303 8.01294 89.5082 8.08088 90.1936 8.03105C90.9562 7.97561 91.1076 7.87039 91.6997 6.98439C92.1189 6.35708 92.358 5.75023 92.358 5.31332V4.62725H93.8496H95.3413L95.6726 5.49488C95.8548 5.97207 96.004 6.88356 96.004 7.52041V8.67832H86.889C80.9474 8.67832 77.7741 8.74884 77.7741 8.88088C77.7741 9.01291 80.944 9.08343 86.8786 9.08343H95.9831L96.0441 12.0208C96.0778 13.6363 96.0546 14.958 95.9931 14.9578C95.9315 14.9576 95.3493 13.8181 94.6994 12.4256L93.5178 9.89364L92.1783 9.92769L90.8388 9.96175L92.0437 10.0796L93.2485 10.1975L94.2902 12.3243C95.6576 15.1159 95.7171 15.3834 95.0998 15.9633C94.6393 16.396 94.6285 16.4543 94.9246 16.9063C95.3037 17.4849 95.1036 17.517 94.2735 17.0108ZM95.3962 5.3362C95.3962 5.09507 95.1037 5.03237 93.9784 5.03237C92.8531 5.03237 92.5605 5.09507 92.5605 5.3362C92.5605 5.57734 92.8531 5.64003 93.9784 5.64003C95.1037 5.64003 95.3962 5.57734 95.3962 5.3362ZM98.9265 17.0843C99.0882 16.4793 99.4326 5.93128 99.3064 5.44885C99.154 4.86596 99.6081 4.92158 99.8803 5.51914C100.041 5.87225 100.04 6.81203 99.8757 8.94158C99.7513 10.5562 99.6496 12.9248 99.6496 14.2051C99.6496 16.2627 99.6012 16.5886 99.2338 17.0112C98.8625 17.4382 98.8298 17.446 98.9265 17.0843ZM49.214 15.2399C44.9428 14.1636 45.1424 14.2338 45.2867 13.8579C45.3855 13.6005 46.1698 13.5443 50.3473 13.4958L55.2909 13.4383L55.2908 14.2209C55.2906 14.9776 55.2703 15.0005 54.6742 14.913C54.1703 14.839 53.9498 14.9456 53.4651 15.4977C53.1391 15.869 52.8468 16.1639 52.8155 16.153C52.7843 16.1421 51.1636 15.7312 49.214 15.2399ZM65.1609 15.1014C65.3064 13.8098 65.0795 13.7052 62.2931 13.7803C61.0036 13.815 59.9487 13.7752 59.9489 13.6915C59.9491 13.608 61.2223 13.5396 62.7782 13.5396C66.1372 13.5396 66.9532 13.7893 67.1577 14.8795C67.3304 15.8002 67.1559 15.9703 66.0389 15.9703H65.0629L65.1609 15.1014ZM32.8072 15.3226C32.3672 15.1948 29.7837 15.1473 25.9984 15.1974L19.8985 15.2782L21.2 14.6115L22.5015 13.9447H27.3536H32.2056L33.2823 14.5524C34.2538 15.1006 34.5357 15.1603 36.1657 15.1631C37.4069 15.1653 37.8772 15.2277 37.6684 15.3626C37.2733 15.618 33.7233 15.5888 32.8072 15.3226ZM16.1978 14.7549C15.8602 14.4173 15.7927 14.0798 15.7927 12.7294C15.7927 11.8382 15.85 11.109 15.92 11.109C15.9901 11.109 16.4005 11.428 16.8321 11.8179L17.6168 12.5268H23.5036C27.3331 12.5268 29.5333 12.4504 29.7993 12.308C30.0242 12.1876 30.3385 11.7774 30.4977 11.3965C30.8358 10.5873 31.3893 10.4631 31.3893 11.1965C31.3893 11.509 31.6043 11.8422 31.9776 12.1079C32.5077 12.4854 32.8581 12.5268 35.5223 12.5268H38.4787V13.6409V14.7549L36.4025 14.7515C34.4667 14.7482 34.2578 14.7074 33.3135 14.1473L32.3008 13.5466L27.2831 13.5431L22.2654 13.5397L20.6539 14.3499C19.3071 15.0271 18.8422 15.1601 17.8227 15.1601C16.8729 15.1601 16.5132 15.0704 16.1978 14.7549ZM39.7446 14.6112L38.6812 14.5312V13.7316V12.932H41.3144H43.9476V13.4383C43.9476 13.7726 43.8347 13.9447 43.6155 13.9447C43.4328 13.9447 43.1821 14.0733 43.0584 14.2304C42.8016 14.5566 41.3048 14.7286 39.7446 14.6112ZM14.4786 13.7943C13.3464 13.6789 13.1595 13.4527 13.1595 12.1982V11.109H14.2735H15.3875V12.5268C15.3875 13.3067 15.3648 13.9294 15.3369 13.9107C15.3091 13.8919 14.9228 13.8396 14.4786 13.7943ZM5.03149 12.9653C4.92429 12.6834 4.75503 11.8085 4.65535 11.0212L4.47412 9.58982L4.52685 11.3622C4.56732 12.7222 4.51735 13.1345 4.31206 13.1345C4.16493 13.1345 4.04454 13.0434 4.04454 12.932C4.04454 12.8123 3.31535 12.7294 2.26207 12.7294C1.14578 12.7294 0.388758 12.6386 0.236536 12.4863C-0.0788453 12.171 -0.0788453 10.2495 0.236536 9.93416C0.38626 9.78444 1.12061 9.6911 2.14884 9.6911C3.06692 9.6911 3.87441 9.59995 3.94327 9.48855C4.01314 9.37549 4.95814 9.28599 6.08203 9.28599H8.09562V10.6091C8.09562 11.3368 8.23234 12.2594 8.39945 12.6594C8.77889 13.5675 8.77808 13.5837 8.35777 13.5028C8.1412 13.4611 7.87743 13.0209 7.651 12.3232C7.31834 11.2983 7.28674 11.7559 7.60312 13.0165L7.73787 13.5533L6.48214 13.5157C5.34098 13.4814 5.20862 13.4312 5.03149 12.9653ZM5.88343 10.2846C6.22627 10.0677 7.07182 10.0361 6.77902 10.2512C6.66761 10.3331 6.57646 10.5823 6.57646 10.8051C6.57646 11.0938 6.44663 11.2058 6.12497 11.1946C5.77205 11.1824 5.72219 11.2377 5.89658 11.4478C6.18765 11.7985 6.37598 11.7869 6.76895 11.3939C7.22469 10.9382 7.06718 10.0123 6.52018 9.93157C5.65187 9.8034 5.25766 10.23 5.28522 11.268L5.31057 12.223L5.45304 11.3449C5.5314 10.862 5.72507 10.3849 5.88343 10.2846ZM8.62104 12.3895C8.44346 11.8683 8.29956 11.0708 8.30127 10.6171C8.30452 9.76135 8.57698 9.09219 8.82234 9.33755C8.93692 9.45213 9.08651 13.3371 8.97635 13.3371C8.95851 13.3371 8.79862 12.9107 8.62104 12.3895ZM9.31093 11.2102V9.28599H10.7147C12.0095 9.28599 12.1253 9.25059 12.2063 8.83025C12.2546 8.57959 12.3065 8.88745 12.3216 9.51438C12.3395 10.2525 12.4563 10.7431 12.6531 10.9064C12.8471 11.0675 12.9569 11.5155 12.9569 12.1465V13.1345H11.1339H9.31093L9.31093 11.2102ZM45.7706 12.8307C45.7706 12.5716 46.3192 12.5268 49.493 12.5268C52.5548 12.5268 53.2602 12.5808 53.4676 12.8307C53.6903 13.099 53.2552 13.1345 49.7452 13.1345C46.3472 13.1345 45.7706 13.0904 45.7706 12.8307ZM54.1903 12.4256L53.6496 11.7166H49.7899H45.9302L45.1414 12.3413L44.3527 12.966V11.3285V9.6911H49.9229H55.4932V11.1697C55.4932 12.514 55.296 13.1345 54.869 13.1345C54.7931 13.1345 54.4877 12.8155 54.1903 12.4256ZM35.3897 12.1728C36.9772 12.1386 39.575 12.1386 41.1625 12.1728C42.75 12.2071 41.4511 12.2351 38.2761 12.2351C35.1011 12.2351 33.8022 12.2071 35.3897 12.1728ZM17.0586 11.7826C16.8079 11.6077 16.6029 11.3846 16.6029 11.2868C16.6029 11.189 18.9674 11.109 21.8573 11.109C25.1418 11.109 27.1587 11.033 27.2369 10.9064C27.3058 10.795 28.0404 10.7039 28.8693 10.7039C30.5179 10.7039 30.7609 10.9271 29.9714 11.7166C29.5839 12.1041 29.3038 12.1213 23.5403 12.1111C18.4057 12.1021 17.4469 12.0535 17.0586 11.7826ZM55.8983 10.9064C55.8983 9.99932 55.9458 9.89079 56.354 9.86619C56.6047 9.85108 57.9035 9.78272 59.2404 9.71427L61.671 9.58982V8.88089V8.17195H59.0378H56.4046L56.4737 6.87944C56.5306 5.81608 56.4678 5.48535 56.1193 5.01402C55.8863 4.69892 55.6957 4.34627 55.6957 4.23036C55.6957 4.08824 58.1002 4.0196 63.0786 4.0196H70.4615L70.9782 4.69702C71.4077 5.26014 71.4949 5.59336 71.4952 6.67192L71.4954 7.9694L68.2036 7.90746C65.4982 7.85656 64.8397 7.90049 64.5067 8.15421C64.139 8.43444 64.433 8.46349 67.6969 8.46933C69.9546 8.47336 71.2923 8.55115 71.2923 8.67833C71.2923 8.78973 71.11 8.88089 70.8872 8.88089C70.6622 8.88089 70.4821 9.01592 70.4821 9.18471C70.4821 9.43197 70.1473 9.48854 68.6838 9.48854C67.1164 9.48854 66.8499 9.54031 66.6077 9.89178C66.3723 10.2333 65.9419 10.3306 63.7979 10.5276C61.4991 10.7387 61.198 10.8135 60.5278 11.3396C59.9055 11.8283 59.6026 11.9192 58.5956 11.9192C57.4399 11.9192 57.4017 11.9021 57.4094 11.3878C57.4205 10.6461 56.8301 10.2929 56.3618 10.7612C56.0672 11.0558 56.0497 11.1832 56.2584 11.5174C56.467 11.8514 56.4578 11.9192 56.2038 11.9192C55.9722 11.9192 55.8983 11.6741 55.8983 10.9064ZM64.6081 6.75408C64.6081 6.16261 64.4853 5.79425 64.203 5.53876C63.8011 5.17511 63.7979 5.18497 63.7979 6.75408C63.7979 8.32318 63.8012 8.33304 64.203 7.9694C64.4853 7.7139 64.6081 7.34554 64.6081 6.75408ZM62.8464 6.75686C62.8684 6.64698 62.7268 6.52636 62.5319 6.48882C62.3102 6.44611 62.1774 6.54547 62.1774 6.75409C62.1774 7.10649 62.776 7.10896 62.8464 6.75686ZM70.5479 6.51955C70.7311 6.33638 70.2771 5.82023 70.0541 5.95808C69.7748 6.13068 69.8428 6.65283 70.1445 6.65283C70.2931 6.65283 70.4746 6.59285 70.5479 6.51955ZM57.7212 6.14642C57.7212 5.97762 57.5412 5.84259 57.3161 5.84259C57.0911 5.84259 56.911 5.97762 56.911 6.14642C56.911 6.31521 57.0911 6.45024 57.3161 6.45024C57.5412 6.45024 57.7212 6.31521 57.7212 6.14642ZM59.2005 6.1492C59.2224 6.03932 59.0809 5.9187 58.8859 5.88116C58.6642 5.83846 58.5315 5.93781 58.5315 6.14643C58.5315 6.49883 59.1301 6.5013 59.2005 6.1492ZM31.8957 11.5141C31.8133 11.3808 33.8516 11.3115 37.859 11.3115C41.783 11.3115 43.9476 11.3835 43.9476 11.5141C43.9476 11.6445 41.8248 11.7166 37.9842 11.7166C34.2271 11.7166 31.9745 11.6417 31.8957 11.5141ZM43.6585 10.9302C43.5977 10.8319 39.9464 10.6839 35.5444 10.6014L27.5408 10.4513V9.56482V8.67833H35.7442H43.9476V9.89365C43.9476 11.0763 43.8858 11.298 43.6585 10.9302ZM12.7543 7.475C12.7543 5.53751 12.8326 4.40029 12.9718 4.31425C13.1224 4.22119 13.1691 4.74536 13.1237 6.01813L13.0582 7.85641L15.185 7.91292L17.3118 7.96942L17.3721 9.23538L17.4324 10.5013H15.0934H12.7544L12.7543 7.475ZM14.5624 9.71911C14.8259 9.22673 14.3926 8.60621 13.8573 8.7093C13.4486 8.78801 13.2499 9.30928 13.4398 9.80424C13.5995 10.2204 14.3234 10.1655 14.5624 9.71911ZM17.0841 9.6443C17.254 9.37454 17.2276 9.21626 16.9696 8.9583C16.3628 8.35151 15.4575 9.14454 16.0045 9.80368C16.3195 10.1832 16.7883 10.114 17.0841 9.6443ZM18.0207 9.1784C18.0207 8.15222 18.0935 7.82753 18.345 7.73101C18.8224 7.54783 19.0269 8.02705 19.0304 9.33667C19.0335 10.4448 19.0089 10.5013 18.5271 10.5013C18.0387 10.5013 18.0207 10.4545 18.0207 9.1784ZM19.8847 9.23539C19.9425 8.02214 19.9682 7.96676 20.502 7.90534L21.059 7.84125V9.1713V10.5014H20.4417H19.8244L19.8847 9.23539ZM22.1128 9.23747C22.1612 8.22356 22.2432 7.96019 22.5276 7.90602C22.836 7.84726 22.882 8.01121 22.882 9.16994C22.882 10.3767 22.8432 10.5014 22.4673 10.5014C22.0871 10.5014 22.0575 10.3958 22.1128 9.23747ZM24.0973 9.42786C24.0973 8.83742 24.2067 8.24495 24.3404 8.11126C24.4741 7.97758 25.0666 7.8682 25.657 7.8682H26.7305V9.1848V10.5014H25.4139H24.0973V9.42786ZM26.2866 9.45538C26.3331 9.05317 26.2403 8.88126 25.9224 8.78034C25.1657 8.54017 24.6156 9.31821 25.1584 9.86098C25.5822 10.2848 26.217 10.0565 26.2866 9.45538ZM44.4877 9.3536C44.4135 9.27933 44.3527 9.09556 44.3527 8.94524C44.3527 8.7212 45.3477 8.68163 49.8696 8.7258C54.9379 8.77531 55.392 8.80852 55.4547 9.13416C55.5182 9.46466 55.1543 9.48863 50.0728 9.48863C47.0753 9.48863 44.562 9.42787 44.4877 9.3536ZM4.78724 8.9484C4.71297 8.87414 4.6522 8.69184 4.6522 8.5433C4.6522 8.33461 5.15859 8.27323 6.88029 8.27323C8.97334 8.27323 9.10838 8.29778 9.10838 8.67833C9.10838 9.16549 8.79386 9.20934 8.54096 8.75743C8.37328 8.4578 8.3484 8.4578 8.23343 8.75743C8.13312 9.01883 7.79262 9.08344 6.5153 9.08344C5.63914 9.08344 4.86151 9.02268 4.78724 8.9484ZM52.3057 8.3242L48.8144 8.26368L48.5026 7.66079L48.1908 7.05791L44.2462 7.02752C42.0767 7.01081 40.1877 6.98802 40.0484 6.97688C39.8977 6.96481 39.7952 7.20239 39.7952 7.56428V8.17194L37.9216 8.23018C36.8911 8.26221 36.048 8.23738 36.048 8.17504C36.048 8.11269 36.4136 7.3345 36.8605 6.44574L37.673 4.82981H44.2417C48.1156 4.82981 50.8587 4.9078 50.928 5.01991C50.9926 5.12447 51.2487 5.15471 51.497 5.08711C51.7453 5.01952 52.7084 4.92705 53.6372 4.88163C55.8953 4.77121 56.1008 4.94694 56.1008 6.98802C56.1008 7.80628 56.0324 8.45529 55.9489 8.43024C55.8653 8.40521 54.2259 8.35749 52.3057 8.3242ZM40.5042 5.53876C40.5042 5.36996 40.3241 5.23493 40.0991 5.23493C39.874 5.23493 39.694 5.36996 39.694 5.53876C39.694 5.70755 39.874 5.84259 40.0991 5.84259C40.3241 5.84259 40.5042 5.70755 40.5042 5.53876ZM28.3999 7.87598C28.1518 7.4741 27.9683 7.46301 21.5637 7.46301C16.4327 7.46301 14.9829 7.40722 14.9844 7.20982C14.9855 7.07057 15.4485 6.34137 16.0133 5.58939L17.0402 4.22216L18.0875 4.21573C19.049 4.20984 19.1028 4.1851 18.7445 3.91399C18.5298 3.75158 18.4283 3.54939 18.519 3.46469C18.6097 3.37998 18.7246 3.42462 18.7743 3.56387C18.8412 3.75118 19.6567 3.81707 21.9081 3.81707H24.9515L24.8244 4.32344L24.6973 4.82983H28.2088H31.7203L30.8941 6.50089C30.1139 8.07882 30.0284 8.17521 29.3613 8.23045C28.8287 8.27456 28.5921 8.18732 28.3999 7.87598ZM18.7803 5.53909C19.3288 4.69239 19.336 4.62726 18.8816 4.62727C18.5749 4.62728 17.4131 5.82064 17.4131 6.13559C17.4131 6.19725 17.6182 6.24656 17.8688 6.24518C18.1649 6.24356 18.4842 5.99621 18.7803 5.53909ZM23.4927 5.63578C24.324 4.46842 23.6393 4.19258 22.7628 5.34172C22.1742 6.11344 21.8204 6.16878 22.355 5.40551C23.0799 4.37049 22.3333 4.3115 21.5475 5.34172C20.9589 6.11344 20.605 6.16878 21.1397 5.40551C21.757 4.52411 21.3354 4.32086 20.4644 5.07998C20.1787 5.32897 20.0589 5.40189 20.1982 5.24202C20.5523 4.8355 20.5137 4.62727 20.0844 4.62727C19.7655 4.62727 19.261 5.14543 18.7589 5.98876C18.6462 6.17803 19.1381 6.23201 20.8511 6.21833C23.0617 6.20069 23.0958 6.19315 23.4927 5.63578ZM32.6087 6.66908C33.2733 5.32306 33.8199 4.52329 33.8199 4.89673C33.8199 5.18987 32.1644 8.27323 32.007 8.27323C31.9022 8.27323 32.173 7.55136 32.6087 6.66908ZM6.3464 7.7682C6.27625 7.58537 6.31597 7.33866 6.43467 7.21995C6.74329 6.91134 7.32802 7.1934 7.24741 7.61199C7.15761 8.07824 6.50856 8.19077 6.3464 7.7682ZM3.92596 7.59225C3.86774 7.44052 3.84781 6.78057 3.88168 6.1257C3.9279 5.23213 4.02341 4.9198 4.26446 4.87398C4.53281 4.82297 4.57631 5.00595 4.52883 5.98606L4.47201 7.15918L4.68107 5.89322C4.79605 5.19695 4.9665 4.62726 5.05984 4.62726C5.15319 4.62726 5.22613 5.22084 5.22195 5.94632C5.21759 6.70623 5.32036 7.39312 5.46446 7.56674C5.67905 7.82532 5.59508 7.86812 4.8732 7.86812C4.35007 7.86812 3.99179 7.76377 3.92596 7.59225ZM7.48795 6.56809C7.48795 5.2732 7.61402 4.62726 7.86676 4.62726C7.93986 4.62726 7.99967 5.35646 7.99967 6.24769C7.99967 7.418 7.92859 7.86812 7.74381 7.86812C7.56428 7.86812 7.48795 7.4803 7.48795 6.56809ZM8.32364 7.20982C8.12111 6.57033 8.28697 4.97605 8.58728 4.67574C8.87591 4.38711 9.10229 5.18478 9.10528 6.50088C9.10772 7.54949 9.04124 7.86812 8.82026 7.86812C8.66179 7.86812 8.43832 7.57189 8.32364 7.20982ZM9.31093 6.34897V4.82982H10.8301H12.3492V6.34897V7.86812H10.8301H9.31093V6.34897ZM82.6723 7.36174C82.2075 6.97067 81.8419 6.85535 81.0667 6.85535C80.2724 6.85535 79.8875 6.72829 79.2223 6.24642C78.4516 5.68811 78.3817 5.56182 78.3817 4.72727V3.81705L80.5592 3.81016C81.7568 3.80634 84.81 4.05702 87.3441 4.36718L91.9517 4.93113L91.9523 5.50229C91.9527 5.81644 91.675 6.47727 91.3354 6.97081C90.5927 8.05034 89.7464 8.21754 89.3565 7.36177C89.1449 6.89725 89.017 6.85539 87.8095 6.85539C86.629 6.85539 86.459 6.90761 86.1614 7.36177C85.8656 7.81333 85.6913 7.86815 84.5519 7.86815C83.4844 7.86815 83.175 7.78476 82.6723 7.36174ZM5.59224 7.01553C5.42209 6.38034 5.43638 5.18316 5.61743 4.90509C5.69928 4.77938 6.15563 4.64005 6.63155 4.59548C7.30029 4.53284 7.47284 4.57703 7.39113 4.78997C7.33298 4.94151 7.28539 5.46996 7.28539 5.96429C7.28539 6.81052 7.25713 6.85598 6.80186 6.74171C6.44926 6.65321 6.23685 6.73668 6.01743 7.04994L5.71653 7.47953L5.59224 7.01553ZM13.5646 5.84259V4.22216H15.0837C15.9192 4.22216 16.6029 4.26916 16.6029 4.32659C16.6029 4.5999 14.0803 7.46301 13.8395 7.46301C13.6309 7.46301 13.5646 7.07213 13.5646 5.84259ZM25.3969 4.2728C25.4804 4.18924 28.6555 4.07531 32.4528 4.0196C37.6954 3.9427 39.3771 3.85784 39.4405 3.66698C39.506 3.46953 37.2955 3.40439 29.1296 3.36315C19.5178 3.31462 18.7302 3.28465 18.6686 2.9651C18.6077 2.64851 18.9386 2.62036 22.6157 2.6294C24.8232 2.63484 29.5233 2.63078 33.0603 2.6205L39.4914 2.60173V2.09535C39.4914 1.63023 39.5657 1.58897 40.4029 1.58897C40.9042 1.58897 41.3144 1.68012 41.3144 1.79152C41.3144 2.05497 42.0631 2.05497 42.2259 1.79152C42.3885 1.52835 43.5425 1.52723 43.5425 1.79021C43.5425 1.98696 43.9467 1.96638 44.5553 1.73865C45.3081 1.45692 45.8013 1.43342 45.894 1.67486C45.9704 1.87404 46.2272 1.88552 47.0348 1.72584C47.753 1.58383 48.0987 1.58531 48.1472 1.73066C48.1953 1.87497 48.5147 1.87811 49.1594 1.7406C49.8252 1.59861 50.208 1.60632 50.4651 1.76689C50.9164 2.04871 51.4421 2.06196 51.4421 1.79152C51.4421 1.68012 51.8006 1.58897 52.2388 1.58897C52.9464 1.58897 53.0428 1.6482 53.0997 2.11792C53.1623 2.6349 53.197 2.6466 54.6323 2.63497C58.6725 2.6022 58.3289 2.65077 58.3289 2.11244C58.3289 1.6713 58.5232 1.56163 60.3038 0.997902C62.5771 0.278191 64.1675 0.179758 64.663 0.728116C64.8391 0.923074 65.0128 1.44718 65.0489 1.8928L65.1144 2.70301L66.9818 2.80429C68.3935 2.88086 68.9353 2.99204 69.2026 3.26003C69.5393 3.59761 68.8732 3.6145 55.2208 3.6145C45.7154 3.6145 40.9276 3.68275 41.0106 3.81706C41.0902 3.94585 43.7174 4.01961 48.2251 4.01961C52.8998 4.01961 55.2719 4.0886 55.1893 4.22216C55.1077 4.35423 49.8758 4.42472 40.1546 4.42472C31.9544 4.42472 25.3134 4.35635 25.3969 4.2728ZM64.0872 1.87833C64.4869 1.47865 64.487 1.29424 64.0876 0.894896C63.8477 0.654935 63.6739 0.628306 63.3787 0.786278C62.9378 1.02224 62.866 1.58881 63.2307 1.95356C63.551 2.27389 63.7052 2.26035 64.0872 1.87833ZM63.1902 1.38641C63.1902 1.11634 63.3252 0.981303 63.5953 0.981303C63.8654 0.981303 64.0004 1.11634 64.0004 1.38641C64.0004 1.65648 63.8654 1.79152 63.5953 1.79152C63.3252 1.79152 63.1902 1.65648 63.1902 1.38641ZM13.6992 3.37679C13.5455 2.78881 13.7166 2.5584 14.1945 2.71007C14.5025 2.80782 14.6348 2.69981 14.8049 2.21192C14.9243 1.8693 15.1114 1.58896 15.2206 1.58896C15.3299 1.58896 15.3893 1.24715 15.3527 0.829388C15.2872 0.0804252 15.2972 0.0689151 16.0689 0.0055699C16.9257 -0.0647466 17.8182 0.541867 17.8182 1.19446C17.8182 1.38426 18.0233 1.68261 18.2739 1.85746C18.6565 2.12435 18.6728 2.17708 18.3752 2.186C18.0985 2.1943 18.0207 2.37429 18.0207 3.00684V3.81705H15.9176C13.9287 3.81705 13.8081 3.79311 13.6992 3.37679Z" />
</svg>
