<svg width="100" height="36" viewBox="0 0 100 36"  xmlns="http://www.w3.org/2000/svg">
<path d="M74.2668 33.5339C73.3152 32.3763 72.1121 30.9355 71.5931 30.332C70.8383 29.4543 70.701 29.173 70.9067 28.9251C71.2587 28.501 71.677 28.5367 72.144 29.0306C72.36 29.259 72.7342 29.4822 72.9756 29.5267C73.248 29.5768 73.4424 29.8148 73.488 30.1539C73.5284 30.4544 73.6519 30.7942 73.7623 30.9088C73.8728 31.0235 73.9632 31.3738 73.9632 31.6873C73.9632 32.0577 74.2541 32.5414 74.794 33.0685C75.4804 33.7388 75.7758 33.8767 76.4949 33.8627C76.9735 33.8534 77.6935 33.9157 78.095 34.0013L78.8248 34.1569L78.1068 34.8977C77.5885 35.4324 77.1951 35.6385 76.6929 35.6385C76.0801 35.6385 75.7906 35.3874 74.2668 33.5339ZM76.5728 33.5032C75.1248 33.3873 74.364 32.5476 74.073 30.7438C73.8701 29.4865 73.8078 29.3782 73.2499 29.314C72.4631 29.2235 72.4846 28.9298 73.3092 28.5033C74.6342 27.8182 76.231 25.0372 77.0256 22.0311C77.2968 21.005 77.6497 20.0174 77.8098 19.8363C77.9699 19.6552 78.1329 19.112 78.172 18.6292L78.2431 17.7513L81.9535 17.6839L85.664 17.6166L85.5275 20.1635C85.4121 22.3156 85.3148 22.8175 84.8992 23.4011C84.5173 23.9374 84.4182 24.3499 84.4558 25.2474C84.4982 26.2601 84.3917 26.5872 83.5948 27.8932C82.4133 29.8298 81.6253 30.8561 80.1335 32.4013C78.8331 33.7484 78.9982 33.6972 76.5728 33.5032ZM79.1209 32.4561C79.1209 32.0907 78.9555 32.0076 78.1333 31.96C76.9918 31.8939 76.4725 32.1445 76.6722 32.665C76.7823 32.9517 77.054 33.014 77.9662 32.9615C78.9524 32.9048 79.1209 32.8311 79.1209 32.4561ZM77.1456 32.5659C77.0636 32.4331 77.3671 32.3464 77.9138 32.3464C78.4604 32.3464 78.764 32.4331 78.682 32.5659C78.6074 32.6866 78.2617 32.7854 77.9138 32.7854C77.5659 32.7854 77.2202 32.6866 77.1456 32.5659ZM76.0436 30.8176C76.2366 30.5053 75.3232 28.8348 74.9594 28.8348C74.7879 28.8348 74.593 28.9231 74.5263 29.031C74.4033 29.23 74.8841 30.5634 75.1876 30.8649C75.4199 31.0958 75.8877 31.0699 76.0436 30.8176ZM75.329 30.5398C75.2008 30.3853 75.0279 29.9879 74.9447 29.6566C74.7189 28.7569 75.199 28.9118 75.5044 29.8371C75.7826 30.6801 75.7047 30.9924 75.329 30.5398ZM81.2059 30.0858C81.2059 29.5845 80.702 29.2737 79.8891 29.2737C79.0762 29.2737 78.5722 29.5845 78.5722 30.0858C78.5722 30.2882 78.9549 30.3711 79.8891 30.3711C80.8232 30.3711 81.2059 30.2882 81.2059 30.0858ZM79.0112 29.9322C79.0112 29.8115 79.4004 29.7127 79.8761 29.7127C80.3518 29.7127 80.8021 29.8115 80.8767 29.9322C80.9596 30.0662 80.6229 30.1517 80.0118 30.1517C79.4614 30.1517 79.0112 30.0529 79.0112 29.9322ZM78.0064 28.9101C78.0893 28.6942 77.9149 28.1971 77.5774 27.6873C77.1279 27.0079 76.9462 26.8802 76.7093 27.0768C76.4754 27.2709 76.4613 27.479 76.645 28.0253C77.0606 29.262 77.7095 29.6837 78.0064 28.9101ZM77.0305 28.2718C76.764 27.571 76.7595 27.2985 77.0144 27.2985C77.1233 27.2985 77.3209 27.6095 77.4534 27.9897C77.7476 28.8338 77.7477 28.8348 77.4695 28.8348C77.3458 28.8348 77.1482 28.5815 77.0305 28.2718ZM82.0265 27.4687C82.4034 27.1146 82.5228 26.7579 82.5228 25.9853C82.5228 24.8955 82.3104 24.5127 81.3904 23.9441C80.9556 23.6754 80.5224 23.617 79.6919 23.7154C78.7666 23.825 78.5069 23.9582 78.1648 24.4984C77.5938 25.4002 77.9136 26.6212 78.9618 27.5416C79.6477 28.1437 79.8395 28.2053 80.6334 28.0784C81.1266 27.9995 81.7535 27.7251 82.0265 27.4687ZM79.1943 27.2995C78.8121 27.0058 78.5585 26.5502 78.4632 25.986C78.2298 24.6045 78.435 24.2859 79.667 24.1164C81.0563 23.9254 82.0838 24.4509 82.0838 25.3526C82.0838 25.6788 82.1315 26.0773 82.1897 26.238C82.2479 26.3988 82.1188 26.7594 81.9029 27.0393C81.344 27.764 79.9702 27.896 79.1943 27.2995ZM83.7369 23.2494C84.4818 22.9382 84.7281 22.4186 84.2661 22.1331C83.7186 21.7947 81.8781 22.8375 82.1749 23.3178C82.3812 23.6515 82.8206 23.6323 83.7369 23.2494ZM82.5228 23.1691C82.5228 22.8807 84.0281 22.2424 84.1694 22.4709C84.2392 22.5838 83.9346 22.8273 83.4925 23.0121C82.5611 23.4012 82.5228 23.4074 82.5228 23.1691ZM80.9414 22.6519C81.0149 22.2698 79.3002 21.0843 78.9695 21.2886C78.5537 21.5456 78.8345 22.2833 79.505 22.695C80.3179 23.1942 80.8399 23.1786 80.9414 22.6519ZM79.4196 22.2694C79.1346 22.0384 78.9621 21.7884 79.0363 21.7139C79.1936 21.5559 80.5441 22.2813 80.5461 22.5249C80.5484 22.8302 79.9413 22.6924 79.4196 22.2694ZM81.2059 19.6347C81.2059 19.1354 79.8088 18.1996 79.3348 18.3815C78.7923 18.5897 78.9719 19.1604 79.7245 19.6192C80.6377 20.1761 81.2059 20.182 81.2059 19.6347ZM79.8342 19.3798C79.623 19.2567 79.4501 19.0174 79.4501 18.848C79.4501 18.5981 79.5744 18.6106 80.1072 18.9137C80.4685 19.1194 80.7648 19.3617 80.7656 19.4522C80.7671 19.6827 80.2907 19.6456 79.8342 19.3798ZM83.8484 19.6124C84.7871 19.1335 84.8894 18.9353 84.405 18.5333C84.1598 18.3298 83.9001 18.3722 83.1979 18.7304C82.3626 19.1565 82.1041 19.5639 82.4496 19.9095C82.6787 20.1386 82.9155 20.0883 83.8484 19.6124ZM82.5228 19.5127C82.5228 19.369 83.7649 18.7389 84.0482 18.7389C84.4759 18.7389 84.2825 19.1056 83.7196 19.3621C83.1498 19.6217 82.5228 19.7006 82.5228 19.5127ZM65.8975 26.9336C65.7466 26.8728 65.6232 26.7155 65.6232 26.5842C65.6232 26.4528 65.4886 26.1895 65.3241 25.9989C65.1596 25.8083 64.9648 25.3327 64.8912 24.942C64.7644 24.2689 64.8234 24.1893 66.0133 23.4272C68.0774 22.1053 68.5513 21.9639 69.2025 22.4762C70.2334 23.2871 70.8522 23.0369 72.1179 21.2975L73.0853 19.968V17.4122C73.0853 14.0811 73.1374 14.1329 69.7759 14.1212C67.438 14.113 67.3095 14.0905 67.8673 13.7878C68.1962 13.6093 68.57 13.2676 68.698 13.0285C68.9048 12.642 69.1619 12.5936 71.008 12.5936H73.0853V13.3421C73.0853 13.9964 73.293 14.2763 74.7365 15.5683C75.6447 16.3811 76.4512 16.9825 76.5289 16.9049C76.6065 16.8272 76.6289 16.7341 76.5787 16.6979C76.5284 16.6617 75.8206 16.0571 75.0058 15.3542C73.6667 14.1991 73.5243 13.9972 73.5243 13.2521C73.5243 11.976 73.2525 11.8742 70.1823 12.0011C66.2858 12.1621 60.4582 12.7429 59.9363 13.0222C59.6897 13.1541 59.3834 13.4574 59.2557 13.696C59.128 13.9347 58.9018 14.1299 58.7532 14.1299C58.5869 14.1299 58.4738 14.4758 58.4593 15.0283C58.4456 15.5497 58.2532 16.1713 58.0008 16.5097C57.5505 17.1135 56.8442 17.4124 56.8442 16.9992C56.8442 16.8697 56.9923 16.7637 57.1734 16.7637C57.412 16.7637 57.5026 16.5182 57.5026 15.8713C57.5026 14.3948 57.2411 14.1299 55.783 14.1299C55.0871 14.1299 54.3992 14.2485 54.2544 14.3933C53.9005 14.7472 53.9005 18.1217 54.2544 18.4756C54.6216 18.8428 56.6032 18.8045 57.7254 18.4085C58.4276 18.1608 58.7365 18.1401 58.9602 18.3257C59.4644 18.7442 59.3024 18.9283 58.1212 19.2791C56.974 19.6198 52.4285 19.7615 51.6935 19.4794C51.3889 19.3625 51.3389 18.9613 51.3585 16.7908C51.3712 15.3877 51.3761 14.0175 51.3695 13.7459C51.359 13.3181 51.24 13.2521 50.4795 13.2521C49.8722 13.2521 49.6016 13.1571 49.6016 12.944C49.6016 12.6277 50.3707 12.4831 53.347 12.2397C54.493 12.1459 54.8467 12.1926 55.0748 12.4675C55.2835 12.7189 55.7614 12.8131 56.8281 12.8131C58.1965 12.8131 58.3399 12.7655 58.9751 12.0998C59.3495 11.7075 59.8387 10.9915 60.0624 10.5086L60.469 9.6307L72.4836 9.57396C80.024 9.53835 84.4981 9.43829 84.4981 9.30525C84.4981 8.49823 80.261 8.03979 79.3275 8.74582C78.9689 9.01708 77.4347 9.06916 69.6305 9.07504C60.6012 9.0819 60.3524 9.09346 60.0854 9.52097C59.8293 9.93112 59.5447 9.96317 55.7489 10.0095L51.6866 10.0591L55.692 10.1242C58.1017 10.1634 59.6974 10.2745 59.6974 10.4032C59.6974 10.5208 59.3403 11.0124 58.9037 11.4956C58.1369 12.3444 58.063 12.3741 56.7219 12.3741C55.9375 12.3741 55.268 12.2677 55.1825 12.1294C55.0798 11.9632 54.1494 11.9103 52.2871 11.9647L49.5429 12.0449L49.4604 11.167C49.3976 10.4984 49.1953 10.1267 48.6118 9.60744C47.6488 8.75057 47.5835 8.27673 48.4932 8.74716C49.3827 9.20716 49.9442 9.167 50.4668 8.60599C50.8835 8.15876 51.1561 8.12381 54.9746 8.02813L59.0389 7.92629V7.15278V6.37926L70.6975 6.53574C81.1185 6.67562 82.4164 6.7317 82.9241 7.06409C83.4694 7.42106 83.3174 7.43833 79.1275 7.49558C76.3678 7.53329 74.6805 7.47277 74.5387 7.33098C74.3008 7.09309 61.516 7.00752 60.6569 7.23807C60.4 7.30701 60.079 7.6066 59.9436 7.90382C59.6208 8.61234 59.6273 8.64306 60.1011 8.64306C60.3231 8.64306 60.6173 8.39615 60.7548 8.09437L61.0048 7.54568H67.7035C72.023 7.54568 74.4022 7.62363 74.4022 7.76516C74.4022 7.90465 76.1178 7.98463 79.11 7.98463C82.7458 7.98463 83.8578 8.04984 83.9934 8.27102C84.0899 8.42852 84.5392 8.78225 84.9919 9.05708C85.4446 9.33191 85.8149 9.69685 85.8149 9.86808C85.8149 10.0393 86.0044 10.1794 86.2359 10.1794C87.1384 10.1794 87.3513 10.4161 87.3513 11.42V12.3942L85.8698 12.3293C84.4457 12.2669 84.3857 12.2417 84.3205 11.6769C84.2032 10.6627 83.9414 10.6035 79.8602 10.6679L76.0483 10.7281V11.4962V12.2644L78.5723 12.3741C79.9604 12.4345 81.2197 12.5638 81.3706 12.6614C81.5494 12.7772 81.6449 13.4051 81.6449 14.4644C81.6449 15.8467 81.7083 16.1237 82.0694 16.317C82.6525 16.629 84.7898 16.6036 85.1126 16.2808C85.5856 15.8078 85.4281 14.6417 84.8273 14.1692C84.1342 13.624 84.0624 12.5936 84.7176 12.5936C85.0102 12.5936 85.1565 12.7399 85.1565 13.0326C85.1565 13.3161 85.3028 13.4715 85.5699 13.4715C85.7986 13.4715 86.0345 13.2755 86.098 13.0326C86.1756 12.7359 86.3974 12.5936 86.782 12.5936H87.3513V15.1176C87.3513 17.1688 87.292 17.6415 87.035 17.6415C86.8611 17.6415 86.6577 17.5428 86.5831 17.4221C86.5031 17.2926 85.0798 17.1955 83.1134 17.1853C81.2797 17.1757 79.9028 17.1181 80.0537 17.0572C80.3536 16.9363 80.436 16.3247 80.1525 16.3247C80.0559 16.3247 79.8607 16.4409 79.7187 16.5829C79.5208 16.7808 79.3573 16.7477 79.0184 16.441C78.6016 16.0638 78.5982 16.0243 78.9584 15.7508C79.3112 15.483 79.3026 15.4602 78.8466 15.4538C78.4179 15.4477 78.3528 15.5594 78.3528 16.3012C78.3528 16.8582 78.2382 17.1996 78.0236 17.282C77.7913 17.3711 77.6944 17.7335 77.6944 18.5126C77.6944 19.5992 77.6836 19.6168 77.0194 19.6168C76.3587 19.6168 76.3457 19.5963 76.4039 18.6486C76.4602 17.7322 76.1402 16.9831 75.6922 16.9831C75.5863 16.9831 75.4996 17.7839 75.4996 18.7627V20.5422L73.3925 23.5363C72.2336 25.183 71.1283 26.6538 70.9364 26.8047C70.5924 27.075 66.5069 27.1795 65.8975 26.9336ZM68.0349 25.6564C68.5151 24.8795 68.4773 24.3745 67.954 24.5753C67.519 24.7422 66.6816 25.9605 66.8332 26.2058C67.0934 26.6268 67.5698 26.4091 68.0349 25.6564ZM71.1418 25.3792C71.5346 24.7561 71.5478 24.6505 71.2479 24.5355C70.8795 24.3941 69.8124 25.4309 69.8001 25.942C69.7873 26.4797 70.6857 26.1028 71.1418 25.3792ZM73.3741 22.1145C73.2063 21.6772 72.8854 21.741 72.4145 22.3054C71.9825 22.8233 71.8745 23.3808 72.1524 23.6587C72.3894 23.8957 73.5127 22.4758 73.3741 22.1145ZM74.5119 19.4339C74.5119 18.1491 74.0874 18.1833 74.0052 19.4748C73.9541 20.2764 74.0085 20.5162 74.2246 20.4442C74.4001 20.3857 74.5119 19.9924 74.5119 19.4339ZM74.7688 16.6356C74.8469 16.432 74.7077 16.0938 74.4327 15.8187L73.9632 15.3493V16.1662C73.9632 16.7535 74.0577 16.9831 74.2993 16.9831C74.4842 16.9831 74.6954 16.8268 74.7688 16.6356ZM79.4501 14.0073C79.4501 13.5424 79.3613 13.2811 79.2307 13.3618C79.1099 13.4364 79.0112 13.7879 79.0112 14.1429C79.0112 14.4979 79.1099 14.7884 79.2307 14.7884C79.3514 14.7884 79.4501 14.4369 79.4501 14.0073ZM80.1086 14.0202C80.1086 13.5977 80.0098 13.252 79.8891 13.252C79.7684 13.252 79.6696 13.5977 79.6696 14.0202C79.6696 14.4427 79.7684 14.7884 79.8891 14.7884C80.0098 14.7884 80.1086 14.4427 80.1086 14.0202ZM64.1417 11.5614C65.4394 11.1435 66.5011 10.7109 66.5011 10.6002C66.5011 10.3051 66.0217 10.3521 63.0582 10.9375C60.3637 11.4698 59.4779 11.7729 59.4779 12.1624C59.4779 12.6033 61.8597 12.2964 64.1417 11.5614ZM86.3087 11.7898C86.1578 11.7289 86.0344 11.5498 86.0344 11.3917C86.0344 11.0632 85.4355 10.7751 85.1367 10.9598C85.0269 11.0277 84.937 11.2749 84.937 11.5092C84.937 11.8582 85.0857 11.9321 85.76 11.9179C86.2127 11.9083 86.4596 11.8507 86.3087 11.7898ZM62.9895 10.2891C62.9895 10.0404 62.7212 9.95991 61.8921 9.95991C61.063 9.95991 60.7947 10.0404 60.7947 10.2891C60.7947 10.5379 61.063 10.6183 61.8921 10.6183C62.7212 10.6183 62.9895 10.5379 62.9895 10.2891ZM64.3345 23.531C64.1901 23.2998 64.14 23.0006 64.2231 22.8661C64.3091 22.727 64.2753 22.6827 64.1447 22.7634C64.0186 22.8414 63.7541 22.6591 63.5571 22.3584C63.2005 21.8141 63.2022 21.8116 63.9172 21.8082C64.3123 21.8065 64.7729 21.7179 64.9408 21.6115C65.1255 21.4946 64.6897 21.4629 63.8371 21.5313C62.7295 21.6202 62.3675 21.5713 62.1445 21.3025C61.8989 21.0066 61.981 20.9246 62.7557 20.6925C63.8594 20.3619 63.778 20.1581 62.665 20.4654C61.9745 20.6561 61.8976 20.6428 62.1226 20.3717C62.3087 20.1475 62.3132 20.0558 62.1385 20.0558C62.003 20.0558 61.8921 19.9147 61.8921 19.7422C61.8921 19.2025 61.2326 18.7389 60.4648 18.7389C59.9092 18.7389 59.6203 18.5888 59.2939 18.1303C58.9105 17.592 58.8952 17.4588 59.1614 16.978C59.3269 16.679 59.4658 15.8736 59.4701 15.1881C59.4823 13.2434 59.5462 13.2112 64.1966 12.8077C65.6451 12.682 67.2106 12.5188 67.6755 12.4451C68.4218 12.3266 68.5117 12.3596 68.4437 12.7266C68.3977 12.9744 67.9037 13.3639 67.2207 13.691C66.5904 13.9928 65.9166 14.3985 65.7233 14.5926C65.4151 14.9022 65.2667 14.9093 64.5156 14.6505C63.795 14.4023 63.4757 14.4037 62.5014 14.6593C61.6996 14.8697 61.4563 15.009 61.7104 15.1121C61.9122 15.194 62.276 15.1547 62.519 15.0247C63.6906 14.3976 65.8527 15.137 65.518 16.0503C65.4627 16.2012 65.5453 16.3246 65.7016 16.3246C65.8578 16.3246 66.2138 16.5675 66.4927 16.8644L66.9997 17.4041L66.1469 17.2851C65.506 17.1958 65.3758 17.2244 65.6232 17.4005C65.8043 17.5293 66.2205 17.6363 66.5482 17.6381C67.1491 17.6415 67.7438 18.3261 67.4953 18.7282C67.4274 18.8381 67.4722 18.99 67.5949 19.0659C67.9485 19.2844 67.8543 19.6154 67.4339 19.6316C67.1276 19.6434 67.1495 19.6946 67.5424 19.8841C67.8236 20.0197 68.1262 20.4519 68.2475 20.8912C68.4831 21.7446 68.3954 22.031 67.8983 22.031C67.7153 22.031 66.8977 22.4631 66.0813 22.9912C64.6692 23.9047 64.5843 23.931 64.3345 23.531ZM66.2919 21.1596C66.1655 21.0814 65.921 20.8258 65.7485 20.5915C65.4525 20.1893 65.4266 20.1874 65.283 20.5578C65.0653 21.1195 65.7973 21.9029 66.2156 21.5558C66.4162 21.3893 66.4425 21.2526 66.2919 21.1596ZM65.8426 19.3906C65.4202 19.2908 64.7288 19.291 64.3063 19.391C63.6647 19.5428 63.7913 19.5727 65.0745 19.5723C66.3574 19.572 66.4841 19.542 65.8426 19.3906ZM64.3982 18.4024C65.0901 18.316 65.5733 18.1623 65.4719 18.0609C65.2755 17.8645 62.8551 18.3498 62.5953 18.6377C62.5103 18.7318 62.5977 18.7528 62.7905 18.6843C62.9828 18.6157 63.7063 18.4889 64.3982 18.4024ZM61.0142 17.2026C61.0142 17.0819 60.9096 16.9831 60.7818 16.9831C60.6539 16.9831 60.6104 17.0819 60.685 17.2026C60.7595 17.3233 60.8642 17.4221 60.9174 17.4221C60.9707 17.4221 61.0142 17.3233 61.0142 17.2026ZM60.9547 15.9726C60.8818 15.8997 60.6925 15.8919 60.534 15.9553C60.359 16.0254 60.411 16.0774 60.6667 16.0879C60.898 16.0975 61.0276 16.0455 60.9547 15.9726ZM60.2518 14.8308C60.1842 14.7632 60.0071 14.8306 59.8583 14.9806C59.6431 15.1974 59.6683 15.2226 59.9811 15.1035C60.1976 15.021 60.3194 14.8983 60.2518 14.8308ZM90.9941 21.1068C90.8132 20.8305 90.3573 19.9251 89.9809 19.0948C89.3726 17.7529 89.3263 17.5133 89.5645 16.9384L89.8324 16.2917L90.3424 16.9117C90.7473 17.4041 90.8937 17.4694 91.0528 17.2289C91.2499 16.9311 90.566 15.4468 90.2318 15.4468C90.15 15.4468 90.1215 15.0432 90.1686 14.5499C90.2815 13.3656 90.4398 13.5463 92.0675 16.7173C93.219 18.9608 93.4565 19.2876 93.9355 19.2876H94.4841L94.5464 16.7913C94.5958 14.8112 94.5372 14.186 94.2629 13.7674C93.8466 13.132 93.9964 12.8131 94.7109 12.8131C95.081 12.8131 95.3465 13.0172 95.5906 13.4892C95.8808 14.0503 95.9143 14.6007 95.7879 16.7264C95.7042 18.1351 95.5373 19.4111 95.4171 19.562C95.2953 19.7149 94.7189 19.8363 94.1151 19.8363C93.4486 19.8363 93.0838 19.9208 93.1673 20.0558C93.2418 20.1765 93.522 20.2753 93.7899 20.2753C94.2541 20.2753 95.0328 20.9467 95.0328 21.3471C95.0328 21.451 94.1981 21.5524 93.1779 21.5725C91.4666 21.6063 91.2975 21.5701 90.9941 21.1068ZM92.687 20.1942C92.8386 19.799 92.02 18.4629 91.693 18.5719C91.27 18.7129 91.282 19.0329 91.7384 19.7814C92.2046 20.5462 92.5022 20.6757 92.687 20.1942ZM95.4718 20.8961C95.4718 20.5133 95.6184 20.0381 95.7975 19.8402C96.0412 19.5709 96.129 18.8621 96.1465 17.0246C96.1688 14.6668 96.1887 14.5683 96.6438 14.5535C97.0531 14.5402 97.0646 14.517 96.7282 14.384C96.204 14.1768 95.6359 13.0907 95.9848 12.9628C96.4395 12.7962 94.7626 12.6079 92.2345 12.5416L89.7654 12.4769V14.2586C89.7654 15.7503 89.6838 16.1617 89.2641 16.7861C88.9883 17.1962 88.543 17.5635 88.2744 17.6022C87.7863 17.6726 87.7861 17.6708 87.8023 14.1301C87.8134 11.714 87.7364 10.4887 87.5601 10.2764C87.1681 9.80398 87.7815 9.66189 89.5012 9.82676C90.4636 9.91903 91.5593 9.85415 92.6691 9.63919C94.563 9.27231 98.179 9.34609 98.68 9.76184C98.9782 10.0094 99.116 11.2768 98.8447 11.2768C98.7684 11.2768 98.3981 11.0875 98.0217 10.8562C97.6453 10.6249 96.9423 10.3777 96.4594 10.3069L95.5815 10.1781L96.5964 10.5628C97.6154 10.9492 99.5205 12.3204 98.6542 12.044C97.948 11.8187 96.2476 11.5252 96.1594 11.6134C96.1148 11.6579 96.3617 11.7554 96.7079 11.83C98.2059 12.1527 98.8739 12.5021 98.9457 13.0004C99.0163 13.4907 99.0045 13.4937 98.3421 13.1512C97.9706 12.959 97.6666 12.8512 97.6666 12.9115C97.6666 12.9719 97.9629 13.1745 98.325 13.3618C99.1034 13.7643 99.1841 14.2802 98.4896 14.414L97.9958 14.5091L98.4896 14.539C98.8893 14.5632 98.9834 14.6988 98.9834 15.2508C98.9834 15.7698 98.9048 15.9009 98.6542 15.7995C97.797 15.4526 97.5527 15.4111 97.986 15.6859C98.412 15.956 98.412 15.9594 97.986 16.1378C97.5652 16.314 97.5654 16.3171 97.9958 16.2958C98.8313 16.2546 98.9834 16.3266 98.9834 16.7636C98.9834 17.0328 98.8349 17.2052 98.5993 17.2093C98.2362 17.2155 98.236 17.2281 98.5954 17.4373C98.8821 17.6044 98.9693 17.9295 98.9505 18.7619L98.9257 19.8651L98.0219 19.7546L97.1181 19.6441L97.9411 19.8887C98.6781 20.1076 98.7642 20.2095 98.7642 20.8626L98.7642 21.5921H97.1181H95.472L95.4718 20.8961ZM89.4362 11.4962C88.4624 11.2484 87.9662 11.2484 88.1194 11.4962C88.1939 11.6169 88.6689 11.704 89.1748 11.6897C90.0436 11.6652 90.0582 11.6545 89.4362 11.4962ZM93.3349 11.5612C93.065 11.5091 92.5712 11.5077 92.2375 11.5582C91.9039 11.6087 92.1248 11.6513 92.7283 11.6529C93.3319 11.6546 93.6049 11.6133 93.3349 11.5612ZM92.7283 10.5083C92.2507 10.3442 89.0248 10.2522 89.4362 10.4144C89.6776 10.5096 90.5665 10.5866 91.4115 10.5856C92.2565 10.5845 92.8491 10.5497 92.7283 10.5083ZM99.2095 15.6114C99.2041 10.4517 99.2512 9.52094 99.5191 9.52094C99.6931 9.52094 99.8905 9.61016 99.9579 9.71922C100.149 10.0287 99.6388 20.98 99.4153 21.3618C99.2927 21.5712 99.2137 19.3618 99.2095 15.6114ZM16.4606 17.1957C16.4606 14.5813 16.5311 13.6511 16.735 13.5757C16.8859 13.5199 18.3673 13.4416 20.0271 13.4017C22.8282 13.3343 23.0449 13.3579 23.0449 13.7295C23.0449 14.0624 22.8642 14.1299 21.9744 14.1299C21.2906 14.1299 20.8052 14.2489 20.6307 14.4591C20.473 14.6491 19.9943 14.7884 19.4987 14.7884C19.0264 14.7884 18.3965 14.9479 18.099 15.1428C17.5742 15.4866 17.558 15.5755 17.558 18.1057V20.7142H17.0093H16.4606V17.1957ZM17.997 18.2197C17.997 15.8016 18.0153 15.7047 18.5379 15.3623C18.8355 15.1673 19.4222 15.0078 19.8418 15.0078C20.2614 15.0078 20.6658 14.9091 20.7404 14.7884C20.815 14.6676 21.364 14.5689 21.9605 14.5689H23.0449V15.8857C23.0449 16.61 22.9896 17.2026 22.922 17.2026C22.8544 17.2026 22.3374 16.8501 21.7731 16.4192C20.757 15.6434 20.7437 15.6401 20.3882 16.0791C20.1908 16.3229 19.9079 17.3027 19.7595 18.2564C19.4442 20.2835 19.3958 20.3802 18.6005 20.5748L17.997 20.7226L17.997 18.2197ZM6.84145 19.0114C6.34192 18.3098 6.22399 17.7019 6.4747 17.1206C6.59917 16.832 6.54378 16.6487 6.28896 16.5061C5.97626 16.3311 5.92841 15.8701 5.94436 13.1863C5.95454 11.4721 6.03309 9.50843 6.1189 8.82249C6.25777 7.71243 6.37975 7.4823 7.2286 6.72902C8.10888 5.94784 8.1594 5.84606 7.88497 5.40663C7.62059 4.98329 7.64572 4.86876 8.11186 4.37258C8.61418 3.83788 8.7375 3.81524 11.0669 3.83002C13.8072 3.84741 14.1562 3.93864 14.1562 4.63763C14.1562 4.90923 14.2549 5.10676 14.3756 5.07658C14.4964 5.0464 14.5912 4.79949 14.5865 4.52789C14.5779 4.04224 14.6222 4.03407 17.2615 4.03407H19.9452L19.9039 4.61366C19.8811 4.93243 19.986 5.23696 20.1369 5.29038C20.318 5.35451 20.4112 5.15765 20.4112 4.71079V4.03407H23.1167H25.8221L25.7255 4.6925C25.6674 5.08773 25.7265 5.35093 25.8732 5.35093C26.0076 5.35093 26.1176 5.05463 26.1176 4.6925V4.03407H28.9572H31.7969L31.7555 4.57084C31.7328 4.86607 31.813 5.08829 31.9337 5.06466C32.0544 5.04104 32.1493 4.79949 32.1445 4.52789C32.136 4.04188 32.1789 4.03407 34.8566 4.03407C37.1848 4.03407 37.5591 4.08156 37.451 4.36329C37.301 4.75402 37.4958 5.35093 37.7733 5.35093C37.8811 5.35093 37.9693 5.05463 37.9693 4.6925V4.03407H41.8101H45.6509V4.65144C45.6509 5.04135 45.4241 5.48608 45.0354 5.85855C44.4818 6.38888 44.2551 6.44901 42.7857 6.45528C40.7771 6.46386 40.3835 6.7094 40.3835 7.95396C40.3835 8.77679 40.3318 8.86253 39.8348 8.86253C39.3258 8.86253 39.2861 8.78645 39.2861 7.80905C39.2861 7.22964 39.1676 6.63705 39.0228 6.4922C38.8575 6.32692 38.0338 6.22883 36.8112 6.22883H34.8631L34.9262 5.35427C34.9609 4.87327 34.8944 4.5029 34.7784 4.53124C34.6623 4.55958 34.5674 4.95325 34.5674 5.40608V6.2294H31.8239H29.0805V5.40608C29.0805 4.95325 28.9817 4.58276 28.861 4.58276C28.7403 4.58276 28.6456 4.97782 28.6505 5.46066C28.6588 6.27572 28.5543 6.4289 27.1907 7.60055L25.7219 8.86253H23.9811C23.0236 8.86253 22.1856 8.80795 22.1189 8.74123C22.0522 8.67452 22.4425 8.19952 22.9864 7.68569C23.8976 6.82469 23.9473 6.7236 23.6198 6.39608C23.4052 6.18155 23.2644 5.67592 23.2644 5.12025C23.2644 4.30192 23.2255 4.23209 22.9137 4.49084C22.6675 4.69517 22.5983 4.99938 22.6815 5.512L22.8 6.24213L20.1242 6.18061L17.4483 6.11908L17.3386 5.1498C17.2412 4.28999 17.1947 4.22189 16.9271 4.54679C16.7386 4.77567 16.6748 5.15983 16.7571 5.57094C16.8653 6.1124 16.8167 6.22882 16.482 6.22882C15.8706 6.22882 15.6182 6.67225 15.5419 7.88046L15.473 8.97227L11.8297 9.03228L8.18635 9.0923L7.934 9.64616C7.66917 10.2274 7.63402 12.6767 7.87437 13.8007C7.97356 14.2646 8.14424 14.4591 8.45196 14.4591C9.08507 14.4591 9.19236 13.4811 8.5769 13.3202C8.2689 13.2396 8.12059 13.0232 8.12059 12.6543C8.12059 12.2198 8.19937 12.1401 8.50467 12.2658C8.71592 12.3528 9.05476 12.4718 9.25766 12.5304C9.75154 12.6729 9.92685 13.1857 9.53332 13.3367C9.30118 13.4258 9.21797 13.8587 9.21797 14.9775C9.21797 16.1936 9.14487 16.5252 8.85206 16.6376C8.57317 16.7446 8.54707 16.8389 8.74232 17.0342C9.14071 17.4326 9.04549 18.2542 8.51827 18.9673C7.91865 19.7783 7.39733 19.792 6.84145 19.0114ZM8.50045 17.5848C8.37048 17.2463 6.75932 17.2261 6.64749 17.5616C6.60273 17.6959 6.83207 18.1219 7.15714 18.5082L7.74818 19.2106L8.17661 18.5339C8.41225 18.1617 8.55798 17.7346 8.50045 17.5848ZM7.24269 13.9105C7.24269 13.3854 7.14819 13.252 6.77631 13.252C6.37101 13.252 6.32789 13.1622 6.44709 12.5662C6.52254 12.189 6.58426 11.6951 6.58426 11.4688C6.58426 11.2425 6.68303 11.0573 6.80374 11.0573C6.92445 11.0573 7.02473 11.3289 7.02658 11.6608C7.02844 11.9928 7.12568 12.4125 7.24269 12.5936C7.3968 12.8321 7.45637 12.6396 7.45881 11.8951C7.46151 11.06 7.38027 10.8414 7.02518 10.7287C6.78484 10.6524 6.48854 10.6516 6.36675 10.7269C6.11439 10.8829 6.08032 12.0582 6.28488 13.5506C6.39416 14.3479 6.51324 14.5689 6.83357 14.5689C7.14183 14.5689 7.24269 14.4066 7.24269 13.9105ZM14.5951 6.77752V5.68014H13.6075H12.6198L12.5503 6.52625C12.4432 7.83106 12.5911 8.01979 13.6603 7.94248L14.5951 7.87489L14.5951 6.77752ZM12.8161 7.45448C12.7505 7.28361 12.7289 6.86387 12.7681 6.52171C12.83 5.98079 12.9324 5.89961 13.5526 5.89961C13.9449 5.89961 14.2659 5.97369 14.2659 6.06422C14.2659 6.15475 14.2659 6.5745 14.2659 6.99699C14.2659 7.70596 14.2146 7.76516 13.6006 7.76516C13.2293 7.76516 12.8826 7.62785 12.8161 7.45448ZM11.8517 5.2229C11.8517 4.51643 11.77 4.24379 11.5773 4.30705C11.2775 4.40552 11.0896 5.42264 11.2797 5.91815C11.5315 6.57416 11.8517 6.18491 11.8517 5.2229ZM40.8224 5.2229C40.8224 4.51643 40.7408 4.24379 40.5481 4.30705C40.2482 4.40552 40.0603 5.42264 40.2505 5.91815C40.5022 6.57416 40.8224 6.18491 40.8224 5.2229ZM47.9656 19.3425C47.7026 18.501 47.6296 17.4221 47.8357 17.4221C47.9619 17.4221 48.0651 17.5733 48.0651 17.7582C48.0651 18.2177 48.657 18.4089 49.0556 18.0782C49.2351 17.9292 49.3757 17.5972 49.3681 17.3403C49.3544 16.8819 49.3505 16.8824 49.1557 17.3672C48.6109 18.7225 47.8744 17.3796 47.6991 14.7115L47.56 12.5936H48.3612C49.0599 12.5936 49.1625 12.6608 49.1625 13.1183C49.1625 13.4069 48.9672 14.0736 48.7284 14.5998C48.2488 15.6567 48.1512 16.8748 48.5275 17.1074C48.6965 17.2118 48.7246 17.0485 48.6198 16.5716C48.4828 15.9478 48.5183 15.8858 49.0118 15.8858C49.6989 15.8858 49.8209 16.2195 49.8209 18.0985V19.6168H48.9361C48.4204 19.6168 48.0156 19.5024 47.9656 19.3425ZM50.4062 19.4705C50.3257 19.39 50.2599 18.5703 50.2599 17.6489C50.2599 15.8659 50.0668 15.4468 49.2452 15.4468C48.7763 15.4468 48.7701 15.421 49.0857 14.7884C49.367 14.2243 49.5377 14.1299 50.276 14.1299H51.1378V16.8734C51.1378 19.0133 51.0734 19.6168 50.8452 19.6168C50.6842 19.6168 50.4867 19.551 50.4062 19.4705ZM43.1568 18.5118C43.2939 18.3745 43.8865 18.0269 44.4736 17.7393C45.9714 17.0056 45.3427 17.0756 43.3813 17.861C42.0383 18.3988 41.4219 18.5188 40.0177 18.5158L38.2985 18.512L39.0161 18.0524C39.8181 17.5389 40.7694 17.2756 43.3464 16.8539L45.1022 16.5666L43.3464 16.6782C42.2131 16.7503 40.8751 17.0315 39.5723 17.4715L37.554 18.1532L35.7315 17.6749C34.1186 17.2516 33.3032 17.194 28.6416 17.1736C25.7391 17.1609 23.6698 17.0754 24.0326 16.9831L24.691 16.8155L24.0874 16.7896C23.6524 16.7708 23.4839 16.6485 23.4839 16.3513C23.4839 15.3975 25.6507 15.1929 30.8363 15.6571C33.3562 15.8826 34.7977 15.8976 36.9816 15.7211L39.8348 15.4906L36.8719 15.601C34.8911 15.6748 32.7085 15.5875 30.2876 15.3377C27.0118 14.9996 24.7391 15.012 23.7983 15.373C23.59 15.453 23.4839 15.3455 23.4839 15.0546C23.4839 14.6598 23.6815 14.5998 25.4395 14.4606C26.5152 14.3755 27.725 14.3693 28.1281 14.4469C28.7503 14.5666 28.7979 14.5488 28.4432 14.3291C28.1582 14.1526 27.3034 14.1071 25.7546 14.1862C23.5439 14.299 23.4839 14.2896 23.4836 13.8319C23.4834 13.366 23.5197 13.3623 27.489 13.4299C29.6922 13.4674 31.5886 13.5908 31.7032 13.7042C31.9821 13.98 34.1761 13.9689 34.3479 13.6909C34.4225 13.5702 35.3355 13.4714 36.3769 13.4714C37.9186 13.4714 38.3543 13.5477 38.7233 13.8819C39.2279 14.3391 41.7003 14.7289 41.7003 14.3513C41.7003 14.2295 41.2312 14.1141 40.6578 14.0948C39.8565 14.0678 39.7804 14.0391 40.3286 13.9711C40.7209 13.9224 41.0419 13.7901 41.0419 13.677C41.0419 13.5639 41.9671 13.4714 43.1001 13.4714C44.6207 13.4714 45.2265 13.5537 45.4197 13.7865C45.6365 14.0477 45.5567 14.117 44.9527 14.1916C44.3366 14.2677 44.3597 14.279 45.1022 14.2649L45.9801 14.2482V16.4387V18.6291L44.4438 18.6952C43.2964 18.7445 42.9706 18.6981 43.1568 18.5118ZM28.1477 16.5472C29.4359 16.5451 30.0681 16.4619 30.0681 16.2943C30.0681 15.9763 26.4755 16.1674 25.6786 16.5279L25.1299 16.776L25.6786 16.6631C25.9804 16.601 27.0915 16.5488 28.1477 16.5472ZM36.1537 16.6035C35.6983 16.556 35.007 16.5568 34.6174 16.6052C34.2277 16.6536 34.6003 16.6925 35.4453 16.6915C36.2903 16.6905 36.6091 16.651 36.1537 16.6035ZM40.4932 16.3247C41.1196 16.1653 41.109 16.1569 40.2737 16.1529C39.7909 16.1506 38.8527 16.2237 38.1887 16.3155L36.9816 16.4824L38.4082 16.4873C39.1928 16.49 40.1311 16.4168 40.4932 16.3247ZM42.6331 16.1793C42.4822 16.1185 42.2353 16.1185 42.0844 16.1793C41.9335 16.2402 42.057 16.29 42.3588 16.29C42.6605 16.29 42.784 16.2402 42.6331 16.1793ZM44.8279 15.9503C44.5563 15.898 44.1118 15.898 43.8402 15.9503C43.5686 16.0026 43.7909 16.0454 44.3341 16.0454C44.8773 16.0454 45.0995 16.0026 44.8279 15.9503ZM42.1942 15.288C41.8019 15.2393 41.1599 15.2393 40.7676 15.288C40.3753 15.3367 40.6962 15.3766 41.4809 15.3766C42.2655 15.3766 42.5865 15.3367 42.1942 15.288ZM43.95 15.3014C43.7991 15.2406 43.5522 15.2406 43.4013 15.3014C43.2504 15.3623 43.3738 15.4121 43.6756 15.4121C43.9774 15.4121 44.1009 15.3623 43.95 15.3014ZM46.7483 16.6808C46.7483 15.1191 46.6689 14.5567 46.4191 14.3494C45.9428 13.9541 46.0149 13.1195 46.5702 12.6022C46.9745 12.2255 46.9919 12.1547 46.6799 12.1547C46.3805 12.1547 46.3093 11.9394 46.3093 11.0338C46.3093 10.1277 46.3724 9.93715 46.6385 10.0393C46.8196 10.1088 46.9678 10.0766 46.9678 9.96781C46.9678 9.53391 45.7749 9.47736 39.8302 9.62943C35.3782 9.74331 33.5927 9.71948 33.4847 9.5447C33.3759 9.36873 35.219 9.30149 40.1511 9.30149C44.5492 9.30149 46.9678 9.22362 46.9678 9.08201C46.9678 8.9461 45.7928 8.86254 43.8819 8.86254H40.7959L40.864 8.0395L40.9321 7.21647L42.7857 7.15203C44.379 7.09665 44.7257 7.1515 45.2548 7.54268L45.8703 7.99777V6.88694C45.8703 6.18196 45.9706 5.7505 46.1447 5.70603C46.2956 5.66749 46.9129 5.46282 47.5164 5.25121C49.28 4.63289 49.5377 4.58363 49.2173 4.92601C49.0665 5.08729 48.943 5.33118 48.943 5.46798C48.943 5.75263 49.2105 5.79805 50.9991 5.81715C52.0747 5.82864 52.305 5.89985 52.3964 6.24934C52.4721 6.5389 52.7007 6.66778 53.1386 6.66778C53.9319 6.66778 53.9468 6.34082 53.2191 4.90468L52.6667 3.8146L50.4208 3.86053L48.1749 3.90647L50.2747 3.97773L52.3744 4.049L52.8535 5.03504C53.117 5.57737 53.3325 6.11721 53.3325 6.23469C53.3325 6.63213 52.7261 6.45145 52.6134 6.02043C52.5198 5.66251 52.2738 5.58178 51.1086 5.52661C49.9157 5.47013 49.7043 5.39762 49.6372 5.02171C49.5037 4.27414 49.2937 4.23804 47.8715 4.71832C46.444 5.20039 45.8903 5.09008 46.1636 4.37804C46.2778 4.08038 46.8882 3.91108 47.4779 4.01352C47.5774 4.03081 47.5963 3.94374 47.5198 3.82003C47.4273 3.67046 48.4328 3.5952 50.5213 3.59534L53.6617 3.59556L54.279 4.69451L54.8962 5.79346L54.4286 6.45009C54.0756 6.94589 53.7884 7.10673 53.2563 7.10673C52.8033 7.10673 52.4385 7.26354 52.2351 7.54568C51.8005 8.14874 50.6988 8.14874 50.6988 7.54568C50.6988 7.30426 50.6 7.10673 50.4793 7.10673C50.3586 7.10673 50.2599 7.30426 50.2599 7.54568C50.2599 7.7871 50.1611 7.98463 50.0404 7.98463C49.9197 7.98463 49.8209 7.7871 49.8209 7.54568C49.8209 7.30426 49.7222 7.10673 49.6014 7.10673C49.4807 7.10673 49.382 7.35364 49.382 7.65542C49.382 8.13617 49.2869 8.20411 48.6138 8.20411C47.8475 8.20411 47.8456 8.20155 47.8183 7.1616L47.7909 6.11909L47.6162 7.32512C47.5201 7.98844 47.3705 10.8279 47.2838 13.635C47.197 16.4422 47.041 18.7389 46.9371 18.7389C46.8333 18.7389 46.7483 17.8128 46.7483 16.6808ZM82.4496 15.7394C82.3692 15.659 82.3033 14.942 82.3033 14.1462C82.3033 12.2089 82.0969 12.0789 78.7917 11.9352C76.7433 11.8461 76.2677 11.7634 76.2677 11.4962C76.2677 11.2191 76.8498 11.1575 79.9488 11.1068C83.1484 11.0545 83.6474 11.0923 83.7639 11.3959C83.8376 11.588 83.786 11.8571 83.6493 11.9938C83.3045 12.3387 83.3387 12.5936 83.7299 12.5936C83.9655 12.5936 84.0591 12.8337 84.0591 13.4375C84.0591 14.0027 84.2041 14.4126 84.4981 14.6786C84.7395 14.8971 84.937 15.2581 84.937 15.4808C84.937 15.8238 84.7579 15.8858 83.7665 15.8858C83.1227 15.8858 82.5301 15.8199 82.4496 15.7394ZM3.10789 12.693C2.78812 11.9912 2.7832 11.1041 3.09412 10.2121C3.32506 9.54968 3.38531 9.52096 4.5442 9.52096C5.55659 9.52096 5.73165 9.57744 5.6201 9.86812C5.54684 10.0591 5.48688 10.8986 5.48688 11.7337V13.252H4.42474C3.49953 13.252 3.32975 13.18 3.10789 12.693ZM9.99265 12.8336C9.9196 12.6035 9.46851 12.2586 8.99022 12.0672C7.85626 11.6135 7.8896 11.1818 9.09413 10.7218C9.62957 10.5173 10.1229 10.206 10.1904 10.0301C10.3497 9.615 11.0257 9.8256 11.7811 10.5256C12.0966 10.818 12.4391 11.0573 12.5422 11.0573C12.6452 11.0573 12.7296 11.2817 12.7296 11.5561C12.7296 11.9144 12.4978 12.1685 11.9065 12.4583C11.4539 12.6802 10.912 12.9496 10.7024 13.0569C10.182 13.3234 10.1443 13.3115 9.99265 12.8336ZM11.9672 13.0419C11.8958 12.9263 12.1368 12.6769 12.5029 12.4876C13.4562 11.9946 13.4125 11.1865 12.4004 10.5893C11.0324 9.78213 11.4517 9.45412 14.0464 9.30148L15.912 9.19174L16.0217 7.98463L16.1314 6.77751L18.2165 6.72149L20.3015 6.66548L19.1656 7.764C18.5408 8.36819 18.1364 8.86252 18.2668 8.86252C18.3972 8.86252 18.3419 9.04165 18.1437 9.26058C17.6604 9.79464 18.0459 10.1759 19.0834 10.1899L19.8625 10.2004L18.2165 11.7259L16.5704 13.2514L14.3337 13.2517C13.1036 13.2519 12.0386 13.1575 11.9672 13.0419ZM19.0944 11.4703C20.5346 10.1215 20.8193 9.94442 21.3714 10.0541C21.7185 10.123 22.5024 10.1794 23.1134 10.1794H24.2244L23.6347 10.795C23.2121 11.236 23.0449 11.6404 23.0449 12.2215V13.0326L20.2466 13.0222L17.4483 13.0118L19.0944 11.4703ZM23.4839 12.2286C23.4839 11.6398 23.6492 11.238 24.0736 10.795C24.6019 10.2436 24.8022 10.1826 25.994 10.2105C27.0658 10.2356 27.1752 10.2676 26.5565 10.3751C25.4167 10.5732 24.8007 11.062 24.8007 11.7685V12.3741H26.4468H28.0929V11.4026C28.0929 10.6619 28.0016 10.4072 27.7088 10.3307C27.4975 10.2755 27.9115 10.2189 28.6286 10.2048C29.7458 10.183 29.8769 10.2201 29.5441 10.4634C29.2713 10.6629 29.1772 10.9732 29.2278 11.5059L29.3 12.2644L30.6717 12.3297C31.6586 12.3768 32.0434 12.4799 32.0434 12.6973C32.0434 12.9428 31.2403 13.0039 27.7636 13.0231L23.4839 13.0467L23.4839 12.2286ZM32.447 11.7706C32.3503 10.1295 32.4461 9.52096 32.8013 9.52096C33.1894 9.52096 33.28 10.0285 33.1832 11.6608C33.1268 12.6109 33.0126 13.0326 32.8116 13.0326C32.6132 13.0326 32.4978 12.6332 32.447 11.7706ZM33.5798 11.606C33.5798 10.8214 33.6538 10.1713 33.7444 10.1613C33.8349 10.1514 34.2053 10.094 34.5674 10.0338C34.9295 9.97364 35.9419 9.99019 36.817 10.0706L38.4082 10.2168V11.6247V13.0326H35.994H33.5798V11.606ZM36.8719 11.2768V10.3989H35.3356H33.7992V11.1304C33.7992 11.5328 33.8651 11.9279 33.9455 12.0083C34.026 12.0888 34.7174 12.1547 35.4819 12.1547H36.8719V11.2768ZM34.0981 11.606C33.8221 10.8868 34.1865 10.6183 35.4384 10.6183C36.641 10.6183 36.6524 10.6246 36.6524 11.2768C36.6524 11.929 36.641 11.9352 35.4384 11.9352C34.5618 11.9352 34.1893 11.8437 34.0981 11.606ZM38.8472 11.4962V9.95991H39.6153C40.2884 9.95991 40.3835 10.0278 40.3835 10.5086C40.3835 10.911 40.5006 11.0573 40.8224 11.0573C41.0663 11.0573 41.2614 10.911 41.2614 10.7281C41.2614 10.547 41.1626 10.3989 41.0419 10.3989C40.9212 10.3989 40.8224 10.3001 40.8224 10.1794C40.8224 10.0587 41.1589 9.95991 41.5701 9.95991C42.2096 9.95991 42.3011 10.0233 42.2029 10.3989C42.1162 10.7303 42.1963 10.8378 42.5292 10.8378C42.7718 10.8378 43.0271 10.6897 43.0966 10.5086C43.1661 10.3275 43.4114 10.1794 43.6419 10.1794C43.8723 10.1794 44.1838 10.3275 44.3341 10.5086C44.7045 10.955 44.9192 10.9224 45.0561 10.3989C45.1192 10.1574 45.3283 9.95991 45.5206 9.95991C45.7983 9.95991 45.8704 10.2088 45.8704 11.167V12.3741L45.1571 12.3811C44.7648 12.3849 44.2521 12.5331 44.0178 12.7103C43.7042 12.9475 42.9655 13.0326 41.2194 13.0326H38.8472V11.4962ZM0.603557 12.533C0.271601 12.399 0 12.2114 0 12.1162C0 11.7689 1.91061 9.95991 2.27734 9.95991C2.60083 9.95991 2.64533 10.1556 2.58931 11.3316C2.52482 12.6855 2.51542 12.7038 1.86554 12.74C1.50341 12.7601 0.935515 12.667 0.603557 12.533ZM25.1634 11.8335C24.9818 11.3602 26.0513 10.6183 26.9153 10.6183C27.6131 10.6183 27.6539 10.6608 27.6539 11.3865V12.1547H26.4703C25.6339 12.1547 25.2505 12.0605 25.1634 11.8335ZM29.521 11.9377C29.4371 11.8019 29.429 11.4495 29.503 11.1546C29.6251 10.6681 29.7484 10.6183 30.8317 10.6183C32.0222 10.6183 32.0256 10.6204 31.9797 11.2763C31.9376 11.8793 31.8664 11.9344 31.1286 11.9348C30.6858 11.935 30.1773 11.9913 29.9986 12.0599C29.8198 12.1285 29.6049 12.0735 29.521 11.9377ZM47.7124 11.8075C47.7857 11.6166 47.8457 11.1524 47.8457 10.776C47.8457 9.9407 48.1619 10.1955 48.4671 11.2768L48.684 12.0449L48.7038 11.3616C48.7172 10.8979 48.5376 10.4922 48.145 10.0996C47.4895 9.44412 47.6948 9.33021 48.4644 9.92233C48.7984 10.1793 49.0159 10.6304 49.0969 11.2343L49.2203 12.1547H48.3998C47.7417 12.1547 47.6056 12.0859 47.7124 11.8075ZM8.12059 10.4895C8.12059 9.73682 8.56577 9.30148 9.33543 9.30148C9.75367 9.30148 10.0959 9.38494 10.0959 9.48694C10.0959 9.74712 9.43839 10.2668 8.72415 10.5712C8.21524 10.7881 8.12059 10.7753 8.12059 10.4895ZM20.8502 9.58473C20.6691 9.51816 20.3578 9.32187 20.1584 9.14855C19.959 8.97523 19.6627 8.85167 19.4999 8.87398C18.4357 9.01989 18.3417 8.86349 19.1027 8.21303C19.9711 7.47071 20.1917 7.40471 20.1917 7.88724C20.1917 8.08081 20.6434 8.43739 21.2343 8.71027C22.1933 9.15321 22.6765 9.19733 27.2698 9.26145C30.1611 9.30182 32.2629 9.4173 32.2629 9.5358C32.2629 9.75278 21.4335 9.79922 20.8502 9.58473ZM27.4344 8.00468C28.2593 7.27178 28.6645 7.03204 28.7142 7.24752C28.7715 7.49657 29.1637 7.54952 30.5797 7.4994C32.8534 7.41893 32.8443 7.03903 30.5647 6.87263C29.5419 6.79797 30.8564 6.73219 33.8541 6.70803L38.8472 6.66778V7.87489V9.08201L32.5372 9.07955L26.2273 9.07709L27.4344 8.00468ZM34.3219 7.88954C34.638 7.4751 34.8966 7.08004 34.8966 7.01164C34.8966 6.94323 34.5509 6.88725 34.1284 6.88725C33.3786 6.88725 33.3603 6.90816 33.3603 7.76516C33.3603 8.248 33.4473 8.64306 33.5537 8.64306C33.6601 8.64306 34.0058 8.30397 34.3219 7.88954ZM36.4329 7.65542C36.4329 6.72633 36.2574 6.69803 35.4864 7.50282C34.7185 8.30427 34.7416 8.42358 35.6648 8.42358C36.3964 8.42358 36.4329 8.387 36.4329 7.65542ZM54.7749 6.68334L55.3455 5.82101L54.6002 4.54346L53.8548 3.26591L52.629 3.20077C51.6285 3.1476 51.3825 3.0568 51.291 2.70695C51.1396 2.12787 50.2561 2.13551 50.104 2.71722C50.0052 3.09494 49.8014 3.15714 48.6431 3.16315C47.809 3.16746 47.1349 3.2927 46.8709 3.49236C46.5114 3.7643 44.9442 3.8146 36.8299 3.8146H27.215V3.24771V2.68081L30.3918 2.74116C32.139 2.77435 33.6272 2.74299 33.6987 2.67141C33.7703 2.59985 34.1746 2.63677 34.5972 2.75345C35.1557 2.90766 35.4553 2.8911 35.6942 2.6928C35.9525 2.47843 36.1786 2.47633 36.7501 2.68298C37.273 2.87206 37.6465 2.88166 38.0792 2.71713C38.51 2.55336 38.7663 2.55903 38.9808 2.73704C39.1501 2.87751 39.4489 2.91312 39.6674 2.81884C40.1612 2.60575 40.6087 2.60718 41.1116 2.82349C41.3462 2.92439 41.7304 2.87737 42.0444 2.70932C42.485 2.47349 42.6748 2.47529 43.1314 2.71962C43.5563 2.94704 43.7445 2.95564 43.9434 2.75671C44.0876 2.61259 44.8154 2.49778 45.5851 2.49778H46.9678V1.66377C46.9678 0.550766 47.2754 0.303022 48.6577 0.303022C49.6315 0.303022 49.8209 0.36735 49.8209 0.698078C49.8209 1.3877 50.2999 1.61988 51.7227 1.61988C52.8783 1.61988 53.1355 1.69072 53.3353 2.06394C53.5393 2.44519 53.6303 2.46784 53.9783 2.22406C54.25 2.03377 54.8035 1.97779 55.6561 2.05434L56.9285 2.16856L57.7523 3.81463C58.571 5.45078 58.7148 6.10703 58.4616 7.05189C58.3363 7.51958 58.2201 7.54571 56.2668 7.54571H54.2042L54.7749 6.68334ZM45.1543 7.00794C44.8235 6.76608 44.8131 6.68828 45.0813 6.46564C45.3331 6.25666 45.4235 6.29725 45.5427 6.67276C45.7333 7.27306 45.634 7.35871 45.1543 7.00794ZM50.3853 1.05548C49.859 0.529153 49.969 0.303327 50.7537 0.29963C51.146 0.297803 51.6098 0.205909 51.7844 0.0954681C52.2495 -0.198815 52.8936 0.227089 52.8936 0.828965C52.8936 1.26498 52.8055 1.32421 52.29 1.23476C51.9581 1.17716 51.5528 0.968631 51.3894 0.771375C51.1253 0.452473 51.1087 0.467453 51.2396 0.906548C51.417 1.50138 50.9182 1.58833 50.3853 1.05548Z" />
</svg>
