<svg width="100" height="100" viewBox="0 0 100 100"  xmlns="http://www.w3.org/2000/svg">
<path d="M93.8439 47.6849C93.8439 49.3189 92.4823 50.9528 90.5761 50.9528C88.9422 50.9528 87.3082 49.5912 87.3082 47.6849C87.3082 46.051 88.6698 44.4171 90.5761 44.4171C92.21 44.4171 93.8439 46.051 93.8439 47.6849ZM12.9645 37.3367H86.4913L88.9422 39.5153H10.7859L12.9645 37.3367ZM55.4466 58.3055L61.1654 68.109L55.4466 77.9126H44.2814L38.5627 68.109L44.2814 58.3055H55.4466ZM46.7323 47.6849C46.7323 46.051 48.0939 44.4171 50.0002 44.4171C51.9064 44.4171 53.2681 45.7787 53.2681 47.6849C53.2681 49.3189 51.9064 50.9528 50.0002 50.9528C48.0939 50.9528 46.7323 49.3189 46.7323 47.6849ZM9.15198 50.9528C7.51805 50.9528 5.88412 49.5912 5.88412 47.6849C5.88412 46.051 7.24573 44.4171 9.15198 44.4171C11.0582 44.4171 12.4198 45.7787 12.4198 47.6849C12.1475 49.3189 10.7859 50.9528 9.15198 50.9528ZM30.9377 93.7073L20.5895 93.7073L15.4154 83.9038L20.5895 74.1001H30.9377L36.1118 83.9037L30.9377 93.7073ZM22.4957 68.1091C22.4957 66.4751 23.8573 64.8412 25.7636 64.8412C27.3975 64.8412 29.0314 66.2028 29.0314 68.1091C29.0314 70.0153 27.6698 71.3769 25.7636 71.3769C24.1297 71.3769 22.4957 70.0153 22.4957 68.1091ZM30.9377 62.3903H20.5895L15.4154 52.5867L20.5895 43.0555H30.9377L36.1118 52.859L30.9377 62.3903ZM36.6564 89.8948L37.4734 88.2609H62.2547L63.0716 89.8948H36.6564ZM78.8663 93.7073H68.5181L63.6163 83.9037L68.7904 74.1001L79.1386 74.1001L84.0404 83.9037L78.8663 93.7073ZM70.6966 68.1091C70.6966 66.4751 72.0582 64.8412 73.9645 64.8412C75.8707 64.8412 77.2323 66.2028 77.2323 68.1091C77.2323 70.0153 75.8707 71.3769 73.9645 71.3769C72.0582 71.3769 70.6966 70.0153 70.6966 68.1091ZM78.8663 62.3903H68.5181L63.3439 52.5867L68.5181 42.7831H78.8663L84.0404 52.5867L78.8663 62.3903ZM95.4779 77.9126H88.6698L84.8573 68.109L88.6698 58.3055H95.4779V44.6894C95.4959 43.1842 94.4591 41.5145 93.5716 40.6046L80.5002 31.0733C79.9556 30.5287 79.1386 30.2563 78.3216 30.2563H21.4064C20.5895 30.2563 20.0448 30.5287 19.2279 31.0733L6.15645 40.6046C5.33948 41.4215 4.52252 42.5108 4.52252 43.6001L4.52246 58.3055L11.8752 58.3055L15.96 68.109L12.1475 77.9126H4.52246V83.3591C4.52246 84.4484 5.33948 85.5376 6.42877 86.3546L19.7725 96.1582C20.3172 96.7028 21.1341 96.9752 21.9511 96.9752H78.3216C79.1386 96.9752 79.6832 96.7028 80.5002 96.1582L93.8439 86.3546C94.9332 85.5376 95.4779 84.4484 95.4779 83.3591V77.9126Z" />
<path d="M54.6297 68.1093C54.6297 69.4093 54.1133 70.6561 53.194 71.5754C52.2748 72.4947 51.028 73.0111 49.728 73.0111C48.4279 73.0111 47.1811 72.4947 46.2619 71.5754C45.3426 70.6561 44.8262 69.4093 44.8262 68.1093C44.8262 67.4656 44.953 66.8282 45.1993 66.2335C45.4456 65.6388 45.8067 65.0984 46.2619 64.6432C46.717 64.188 47.2574 63.827 47.8521 63.5806C48.4468 63.3343 49.0842 63.2075 49.728 63.2075C50.3717 63.2075 51.0091 63.3343 51.6038 63.5806C52.1985 63.827 52.7389 64.188 53.194 64.6432C53.6492 65.0984 54.0103 65.6388 54.2566 66.2335C54.503 66.8282 54.6297 67.4656 54.6297 68.1093Z" />
<path d="M8.87946 68.1093C8.87946 68.753 8.79494 69.3904 8.63071 69.9851C8.46649 70.5799 8.22578 71.1202 7.92233 71.5754C7.61888 72.0306 7.25864 72.3916 6.86216 72.638C6.46569 72.8843 6.04075 73.0111 5.61161 73.0111C4.74492 73.0111 3.91373 72.4947 3.30088 71.5754C2.68804 70.6561 2.34375 69.4093 2.34375 68.1093C2.34375 67.4656 2.42828 66.8282 2.5925 66.2335C2.75673 65.6388 2.99743 65.0984 3.30088 64.6432C3.60433 64.188 3.96458 63.827 4.36105 63.5806C4.75753 63.3343 5.18247 63.2075 5.61161 63.2075C6.04075 63.2075 6.46569 63.3343 6.86216 63.5806C7.25864 63.827 7.61888 64.188 7.92233 64.6432C8.22578 65.0984 8.46649 65.6388 8.63071 66.2335C8.79494 66.8282 8.87946 67.4656 8.87946 68.1093Z" />
<path d="M97.6558 68.1093C97.6558 69.4093 97.3115 70.6561 96.6987 71.5754C96.0859 72.4947 95.2547 73.0111 94.388 73.0111C93.5213 73.0111 92.6901 72.4947 92.0772 71.5754C91.4644 70.6561 91.1201 69.4093 91.1201 68.1093C91.1201 67.4656 91.2046 66.8282 91.3689 66.2335C91.5331 65.6388 91.7738 65.0984 92.0772 64.6432C92.3807 64.188 92.7409 63.827 93.1374 63.5806C93.5339 63.3343 93.9588 63.2075 94.388 63.2075C94.8171 63.2075 95.2421 63.3343 95.6385 63.5806C96.035 63.827 96.3952 64.188 96.6987 64.6432C97.0021 65.0984 97.2429 65.6388 97.4071 66.2335C97.5713 66.8282 97.6558 67.4656 97.6558 68.1093Z" />
<path d="M29.3038 52.8593C29.3038 53.503 29.1841 54.1404 28.9515 54.7351C28.7188 55.3299 28.3778 55.8702 27.9479 56.3254C27.518 56.7806 27.0077 57.1416 26.446 57.388C25.8843 57.6343 25.2823 57.7611 24.6744 57.7611C23.4466 57.7611 22.2691 57.2447 21.4009 56.3254C20.5327 55.4061 20.0449 54.1593 20.0449 52.8593C20.0449 51.5593 20.5327 50.3125 21.4009 49.3932C22.2691 48.474 23.4466 47.9575 24.6744 47.9575C25.2823 47.9575 25.8843 48.0843 26.446 48.3306C27.0077 48.577 27.518 48.938 27.9479 49.3932C28.3778 49.8484 28.7188 50.3888 28.9515 50.9835C29.1841 51.5782 29.3038 52.2156 29.3038 52.8593Z" />
<path d="M29.3038 83.9037C29.3038 84.5475 29.1841 85.1849 28.9515 85.7796C28.7188 86.3743 28.3778 86.9147 27.9479 87.3698C27.518 87.825 27.0077 88.1861 26.446 88.4324C25.8843 88.6787 25.2823 88.8055 24.6744 88.8055C23.4466 88.8055 22.2691 88.2891 21.4009 87.3698C20.5327 86.4506 20.0449 85.2038 20.0449 83.9037C20.0449 82.6037 20.5327 81.3569 21.4009 80.4377C22.2691 79.5184 23.4466 79.002 24.6744 79.002C25.2823 79.002 25.8843 79.1287 26.446 79.3751C27.0077 79.6214 27.518 79.9825 27.9479 80.4377C28.3778 80.8928 28.7188 81.4332 28.9515 82.0279C29.1841 82.6226 29.3038 83.26 29.3038 83.9037Z" />
<path d="M79.6828 52.8593C79.6828 54.1593 79.195 55.4061 78.3268 56.3254C77.4586 57.2447 76.2811 57.7611 75.0533 57.7611C73.8255 57.7611 72.648 57.2447 71.7798 56.3254C70.9116 55.4061 70.4238 54.1593 70.4238 52.8593C70.4238 51.5593 70.9116 50.3125 71.7798 49.3932C72.648 48.474 73.8255 47.9575 75.0533 47.9575C76.2811 47.9575 77.4586 48.474 78.3268 49.3932C79.195 50.3125 79.6828 51.5593 79.6828 52.8593Z" />
<path d="M79.6828 83.9037C79.6828 85.2038 79.195 86.4506 78.3268 87.3698C77.4586 88.2891 76.2811 88.8055 75.0533 88.8055C73.8255 88.8055 72.648 88.2891 71.7798 87.3698C70.9116 86.4506 70.4238 85.2038 70.4238 83.9037C70.4238 82.6037 70.9116 81.3569 71.7798 80.4377C72.648 79.5184 73.8255 79.002 75.0533 79.002C76.2811 79.002 77.4586 79.5184 78.3268 80.4377C79.195 81.3569 79.6828 82.6037 79.6828 83.9037Z" />
<path d="M63.8887 15.5513H73.6922L77.7771 19.3638H67.7012L63.8887 15.5513Z" />
<path d="M39.379 19.9081L45.6424 13.1001H26.5799C24.4014 13.1001 22.4951 15.0063 22.4951 17.1849V22.6314L20.5889 26.1715L39.1067 26.1716V19.9081H39.379Z" />
<path d="M41.2862 21.27L41.2861 26.1718L78.5942 26.1718L77.2326 23.9932V21.2701L41.2862 21.27Z" />
<path d="M58.442 13.1001H48.0937L42.375 19.3635H64.9777L58.442 13.1001ZM57.0804 18.2742C55.7188 18.2742 54.9018 17.1849 54.9018 16.0956C54.9018 15.0063 55.9911 13.9171 57.0804 13.9171C58.442 13.9171 59.2589 15.0063 59.2589 16.0956C59.2589 17.1849 58.1696 18.2742 57.0804 18.2742Z" />
<path d="M82.1335 3.02441C80.2273 3.02441 78.8657 3.29674 77.7764 3.56906L91.6648 21.8146C92.754 21.5423 93.8433 21.27 93.8433 21.27V15.2789C93.8433 15.2789 97.6558 15.5512 97.6558 13.1003C97.3835 9.56013 86.2183 3.02441 82.1335 3.02441Z" />
<path d="M60.0759 3.56906C58.9866 3.29674 58.1696 3.02441 58.1696 3.02441C48.6384 3.02441 48.0938 10.9217 48.0938 10.9217H59.8036C59.8036 10.1048 60.0759 9.56013 61.1652 9.01549C60.3482 7.10924 60.0759 5.20299 60.0759 3.56906Z" />
<path d="M75.871 3.84131H62.5272H62.2549C62.2549 5.47524 62.5272 6.83685 63.0718 8.47078C64.4335 8.19846 66.3397 8.19846 69.0629 8.19846C75.5986 8.19846 79.9558 13.6449 79.9558 13.6449C79.9558 13.6449 85.6745 24.8101 87.0361 23.7208C87.8531 23.1761 88.6701 22.6315 89.7593 22.0869L75.871 3.84131Z" />
</svg>
