<svg width="100" height="25" viewBox="0 0 100 25"  xmlns="http://www.w3.org/2000/svg">
<path d="M52.8714 24.6283C52.7959 24.5527 52.5704 24.1209 52.3703 23.6686C52.0384 22.9182 52.0066 22.3989 52.0066 17.7324V12.6185L50.436 11.8929C49.5722 11.4938 48.2092 10.9796 47.4073 10.7502C45.9769 10.3411 45.7195 10.3319 33.8809 10.2687L21.8126 10.2043V9.30337C21.8126 8.80784 21.758 8.12918 21.6912 7.79522L21.5698 7.18803L18.1033 7.25038C16.1968 7.28467 12.7227 7.2958 10.3831 7.27513C6.44376 7.2403 6.13378 7.21341 6.1913 6.91136C6.24289 6.64036 6.52108 6.56942 7.83581 6.492C9.0765 6.41893 9.41829 6.33843 9.41856 6.11923C9.41886 5.8733 10.5739 5.84937 19.0173 5.92036C49.1163 6.17341 51.4474 6.16875 51.4474 5.85559C51.4474 5.59686 51.862 5.56009 54.7789 5.56009C58.1897 5.56009 59.4672 5.76558 59.9384 6.39008C60.0728 6.56827 60.6939 6.68045 61.8954 6.74357C62.8634 6.79443 64.0021 6.89231 64.4258 6.96109C64.9127 7.04014 65.2424 7.01114 65.3221 6.88226C65.4008 6.75491 66.2085 6.67838 67.474 6.67838C69.0263 6.67838 69.5652 6.61302 69.7794 6.39881C70.1422 6.03606 71.0097 6.04128 71.5352 6.40938C71.7631 6.56895 71.9495 6.64578 71.9495 6.5801C71.9495 6.51441 72.276 6.71934 72.6752 7.03548C73.0744 7.35163 73.4937 7.61029 73.6071 7.61029C73.7205 7.61029 73.8133 7.73256 73.8133 7.88201C73.8133 8.03145 74.1771 8.36694 74.6218 8.62754C75.351 9.05485 75.6253 9.10135 77.4175 9.10135H79.4048V8.2471C79.4048 7.18003 79.8227 7.20264 79.9723 8.27781C80.0454 8.80339 80.4113 9.4384 81.277 10.5427L82.4801 12.0772L89.6037 12.0803L96.7273 12.0834L96.6862 14.087C96.6496 15.8685 96.6017 16.1258 96.2543 16.4079C95.9287 16.6721 95.8431 17.0121 95.7415 18.4428C95.6745 19.3875 95.5789 20.2011 95.5291 20.2509C95.4793 20.3007 93.1519 19.5219 90.3572 18.5203C87.5624 17.5186 85.0972 16.6985 84.8789 16.6978C84.5757 16.6967 84.428 16.515 84.2527 15.9276C83.9745 14.9953 82.7517 13.7609 82.1063 13.7609C81.8581 13.7609 81.2295 13.9286 80.7094 14.1336C80.1893 14.3387 79.6496 14.5064 79.5102 14.5064C79.3707 14.5064 78.7504 13.7249 78.1317 12.7698L77.0067 11.0332L75.8729 10.718L74.7392 10.4028L73.7955 10.881C73.2765 11.144 72.771 11.3322 72.6721 11.2992C72.5733 11.2663 72.1759 10.6534 71.789 9.93735C71.2186 8.88151 70.991 8.62421 70.5852 8.57635C70.1665 8.52698 70.1022 8.44759 70.1918 8.09059C70.3837 7.32632 69.3692 6.72381 68.8182 7.27478C68.5092 7.58376 68.538 8.26318 68.8717 8.54017C69.0387 8.67881 69.3478 8.72024 69.6497 8.64446C70.0888 8.53427 70.1208 8.55472 69.9089 8.81003C69.7043 9.05658 69.0886 9.10132 65.9004 9.10132H62.1336L61.4034 10.7322L60.6733 12.363L60.5801 17.8613C60.4933 22.9786 60.4604 23.4048 60.1039 24.0119L59.7209 24.6642L56.3648 24.7149C54.5189 24.7428 52.9469 24.7038 52.8714 24.6283ZM56.5869 23.5566C56.6498 23.3061 56.6464 23.0126 56.5795 22.9042C56.5072 22.7872 55.7055 22.7072 54.6049 22.7072C52.623 22.7072 52.4769 22.7905 53.0422 23.5977C53.303 23.97 53.4913 24.0119 54.9025 24.0119C56.4121 24.0119 56.477 23.9944 56.5869 23.5566ZM58.6186 22.9255L60.013 22.9868L60.119 22.2413C60.1772 21.8313 60.2 19.4828 60.1696 17.0226L60.1142 12.5494L59.0657 12.4942C58.1974 12.4485 57.9954 12.4966 57.8898 12.7738C57.7876 13.0423 57.8088 13.0624 57.997 12.8756C58.1261 12.7475 58.5924 12.6426 59.0332 12.6426H59.8346V17.4886V22.3345H59.0332C58.5924 22.3345 58.1187 22.2297 57.9806 22.1015C57.7764 21.912 57.7495 21.9255 57.8365 22.1742C57.9154 22.4 57.8009 22.5083 57.3979 22.5889C56.9481 22.6788 56.8546 22.7886 56.8643 23.2151C56.8759 23.7231 56.8793 23.7246 57.0502 23.2982C57.214 22.8894 57.3054 22.8677 58.6186 22.9255ZM52.9385 17.4885C52.9385 13.3053 52.9002 12.6426 52.6589 12.6426C52.4176 12.6426 52.3793 13.3053 52.3793 17.4885C52.3793 21.6718 52.4176 22.3345 52.6589 22.3345C52.9002 22.3345 52.9385 21.6718 52.9385 17.4885ZM57.4116 20.1983C57.4116 19.9593 57.1012 19.9115 55.5478 19.9115H53.684V20.8434C53.684 21.356 53.7475 21.7753 53.8251 21.7753C53.9028 21.7753 53.9362 21.3979 53.8996 20.9366L53.8329 20.0979H55.4359C57.2488 20.0979 57.3974 20.2438 56.4797 21.123C56.1722 21.4176 55.9227 21.7478 55.9253 21.8568C55.9326 22.169 57.4116 20.5187 57.4116 20.1983ZM57.9237 15.3091C57.8912 14.0988 57.8645 15.0376 57.8643 17.3954C57.8642 19.7531 57.8908 20.7433 57.9235 19.5959C57.9561 18.4484 57.9562 16.5193 57.9237 15.3091ZM57.2253 19.1577C57.457 19.0011 57.3634 18.8405 56.6794 18.2203C55.8977 17.5116 55.7989 17.4748 54.8156 17.5268C53.7869 17.5812 53.7766 17.5876 53.7175 18.2052C53.6135 19.2909 53.7044 19.3527 55.4022 19.3495C56.2511 19.3481 57.0715 19.2616 57.2253 19.1577ZM53.8704 18.4205C53.8704 17.8633 53.8742 17.8613 54.9538 17.8613C55.9143 17.8613 56.098 17.9247 56.5729 18.4205L57.1086 18.9796H55.4895H53.8704V18.4205ZM95.0199 16.1336C95.0639 14.1282 95.0271 13.7361 94.7845 13.6432C94.1269 13.3908 93.9426 13.9078 93.9426 16.0051C93.9426 18.3239 94.0223 18.6485 94.572 18.5701C94.9485 18.5164 94.9702 18.3983 95.0199 16.1336ZM92.9734 17.824C93.2702 17.5272 93.2702 15.0269 92.9734 14.7301C92.8162 14.5729 91.764 14.5064 89.4321 14.5064H86.1145V15.0357C86.1145 15.5913 86.672 15.9975 87.4345 15.9975C87.6383 15.9975 87.9964 16.1228 88.2302 16.2761C88.6038 16.5208 88.6991 16.5215 89.0158 16.282C89.5713 15.8618 89.8174 15.9431 89.9885 16.6032C90.1214 17.1164 90.2339 17.2118 90.7241 17.2276C91.0423 17.2379 91.5822 17.4252 91.9237 17.6438C92.6531 18.1108 92.6817 18.1157 92.9734 17.824ZM92.1101 17.5438L91.706 17.209L92.3117 16.2833L92.9175 15.3576L92.9748 16.3591C93.047 17.621 92.7291 18.0567 92.1101 17.5438ZM90.3168 16.9692C90.1665 16.8189 90.1984 15.3799 90.3575 15.1311C90.5484 14.8326 92.5574 14.5982 92.7166 14.8558C92.7847 14.966 92.5485 15.4897 92.1918 16.0194C91.6755 16.786 91.4284 16.9916 90.9809 17.0268C90.6717 17.0512 90.3729 17.0252 90.3168 16.9692ZM88.1004 15.843C87.9308 15.6556 87.792 15.362 87.792 15.1907C87.792 14.932 87.9945 14.8792 88.986 14.8792C90.0883 14.8792 90.1725 14.9078 90.0826 15.252C90.0289 15.457 89.8374 15.6247 89.6569 15.6247C89.4763 15.6247 89.2243 15.7505 89.0966 15.9043C88.788 16.2762 88.475 16.257 88.1004 15.843ZM86.5339 15.5013C86.4057 15.4496 86.3009 15.2412 86.3009 15.0382C86.3009 14.7342 86.4075 14.6795 86.9066 14.7276C87.3709 14.7724 87.5263 14.8839 87.5719 15.2054C87.6195 15.54 87.5442 15.6217 87.1992 15.61C86.9614 15.6019 86.662 15.553 86.5339 15.5013ZM55.8316 16.3465C56.2906 15.9234 56.6661 15.5041 56.6661 15.4146C56.6661 15.3251 55.9951 15.252 55.1751 15.252H53.684V16.1839V17.1158H54.3405C54.8507 17.1158 55.1829 16.9444 55.8316 16.3465ZM53.8704 16.1839V15.4383L55.2217 15.443L56.5729 15.4477L55.788 16.1886C55.2278 16.7174 54.841 16.9294 54.4367 16.9294C53.9002 16.9294 53.8704 16.8901 53.8704 16.1839ZM56.6661 14.4306C56.6661 14.2864 56.2495 13.8196 55.7403 13.3932C54.9962 12.7703 54.6943 12.6296 54.2026 12.6769C53.6047 12.7345 53.5895 12.7579 53.5345 13.7143L53.4781 14.6928H55.0721C56.3179 14.6928 56.6661 14.6355 56.6661 14.4306ZM53.8704 13.7609C53.8704 13.0547 53.9003 13.0154 54.4367 13.0154C54.841 13.0154 55.2278 13.2274 55.788 13.7562L56.5729 14.4971L55.2217 14.5018L53.8704 14.5065V13.7609ZM79.7775 14.0405C79.7775 13.8867 79.6517 13.7609 79.4979 13.7609C79.2069 13.7609 79.1282 13.9813 79.3426 14.1958C79.5571 14.4102 79.7775 14.3315 79.7775 14.0405ZM92.7311 13.1086C92.7311 12.7569 92.5894 12.7328 90.2299 12.6836C87.7073 12.6309 87.2688 12.7274 87.4838 13.2877C87.582 13.5436 87.9556 13.5779 90.1645 13.5332C92.5895 13.4842 92.7311 13.4608 92.7311 13.1086ZM61.3041 10.2196L62.0067 8.63539L65.0275 8.58415L68.0482 8.5329L68.2322 8.04892C68.5189 7.29496 68.1783 7.05114 66.8384 7.05114C66.2051 7.05114 65.6014 7.13676 65.4968 7.24139C65.3725 7.36562 64.2892 7.38778 62.375 7.30525C59.8006 7.19424 59.4213 7.13726 59.2608 6.83735C58.8557 6.08047 58.147 5.93285 54.9183 5.93285C51.8645 5.93285 51.8452 5.93548 51.4807 6.39881C51.2108 6.74192 50.937 6.86476 50.4421 6.86476H49.77V8.43288V10.001L50.9086 10.9524L52.0473 11.9039L56.3243 11.8539L60.6014 11.8039L61.3041 10.2196ZM50.9271 10.5387C50.1519 9.74893 50.1427 9.72383 50.1427 8.39535V7.05114H50.7935C51.2424 7.05114 51.5165 6.93551 51.6771 6.67837C51.8948 6.32965 52.1117 6.30561 55.0401 6.30561C57.6077 6.30561 58.2529 6.35971 58.6297 6.60662C58.8824 6.77217 59.0891 7.02379 59.0891 7.16576C59.0891 7.36921 59.5014 7.4239 61.0351 7.4239C62.1314 7.4239 63.0314 7.50529 63.0963 7.61028C63.2464 7.85313 65.3692 7.85313 65.5193 7.61028C65.644 7.4085 67.8977 7.34831 68.091 7.5416C68.1557 7.60633 68.1248 7.81602 68.0223 8.00756C67.8521 8.32571 67.5742 8.35582 64.8079 8.35582H61.7799L61.1026 9.84687L60.4253 11.3379H56.0683H51.7114L50.9271 10.5387ZM31.5844 8.43569C31.7455 8.2746 31.8773 8.02898 31.8773 7.88986C31.8773 7.53489 31.3536 7.05114 30.9693 7.05114C30.2322 7.05114 29.8986 8.16185 30.526 8.52727C30.9861 8.79525 31.2474 8.77264 31.5844 8.43569ZM30.5204 8.11579C30.3726 7.73068 30.6612 7.37773 31.0609 7.45471C31.5561 7.55008 31.5196 8.24717 31.0157 8.31907C30.7981 8.35012 30.5752 8.25865 30.5204 8.11579ZM48.5455 8.31786C48.7906 7.96789 48.7957 7.85074 48.5804 7.52574C48.2427 7.0162 47.7708 6.94717 47.3331 7.34326C46.8939 7.7408 46.8839 7.94706 47.2827 8.38773C47.6967 8.84523 48.1954 8.81765 48.5455 8.31786ZM47.4146 8.07678C47.3502 7.90894 47.3836 7.68551 47.4888 7.58028C47.7927 7.27646 48.3721 7.48122 48.3721 7.89241C48.3721 8.36651 47.584 8.51826 47.4146 8.07678ZM45.9491 7.79667C45.9491 7.55452 45.0899 7.51052 39.5308 7.46801C35.7692 7.43925 33.0409 7.49038 32.9397 7.59156C32.4165 8.11481 33.1347 8.17337 39.4848 8.12524C45.0849 8.08279 45.9491 8.03886 45.9491 7.79667ZM29.2683 7.70348C29.2677 7.40542 23.0757 7.45567 22.976 7.75455C22.9135 7.94202 23.5674 7.98125 26.0828 7.94093C28.0487 7.90942 29.2685 7.81849 29.2683 7.70348ZM96.2595 20.7008C96.1308 20.6123 96.0888 19.8904 96.1411 18.6609C96.2156 16.9054 96.2564 16.7353 96.6665 16.4666C97.1062 16.1785 97.1111 16.1406 97.1111 12.9988C97.1111 11.1244 97.0304 9.67155 96.9142 9.45444C96.7241 9.09938 96.7746 9.08841 98.3586 9.14053L100 9.19454L99.9809 9.84688C99.8722 13.5444 99.6893 17.9914 99.6073 18.9266C99.5142 19.9888 99.4548 20.1165 98.8922 20.4642C98.2751 20.8456 96.6789 20.989 96.2595 20.7008ZM99.2904 16.9795C99.2432 16.7982 99.2014 16.9014 99.1976 17.209C99.194 17.5165 99.2325 17.6649 99.2835 17.5387C99.3345 17.4125 99.3374 17.1609 99.2904 16.9795ZM99.3477 15.7069C99.3477 15.3122 99.2722 15.0902 99.1613 15.1588C98.8523 15.3497 98.957 16.3703 99.2855 16.3703C99.3197 16.3703 99.3477 16.0717 99.3477 15.7069ZM99.5341 14.1337C99.5341 13.9407 99.4501 13.7311 99.3477 13.6677C99.2386 13.6003 99.1613 13.7937 99.1613 14.1337C99.1613 14.4736 99.2387 14.667 99.3477 14.5996C99.4502 14.5363 99.5341 14.3266 99.5341 14.1337ZM99.5341 12.6426C99.5341 12.3351 99.4501 12.0835 99.3477 12.0835C99.1404 12.0835 99.0904 12.8824 99.2856 13.0775C99.4962 13.2881 99.5341 13.2217 99.5341 12.6426ZM99.5341 11.1346C99.5341 11.0478 99.4082 11.0251 99.2545 11.0842C99.1007 11.1431 98.9749 11.3185 98.9749 11.4739C98.9749 11.7038 99.0268 11.7132 99.2545 11.5243C99.4082 11.3967 99.5341 11.2213 99.5341 11.1346ZM27.2142 19.0686C27.0354 18.8531 27.0013 17.96 27.0726 15.3599L27.1664 11.9351L26.5863 11.4147C26.0178 10.9047 25.9664 10.8954 24.0026 10.9473C22.2712 10.9931 21.999 10.9599 21.999 10.7031C21.999 10.4366 22.7085 10.406 28.8952 10.406C35.0819 10.406 35.7913 10.4366 35.7913 10.7031C35.7913 10.9609 35.5172 10.9921 33.7232 10.939L31.6552 10.8778L31.0964 11.5031C30.6611 11.9903 30.5641 12.2366 30.6573 12.6185C30.8463 13.3936 31.104 16.1551 31.1185 17.5612C31.1355 19.2102 30.9807 19.3386 28.9646 19.3464C27.83 19.3508 27.3906 19.2811 27.2142 19.0686ZM29.6559 18.6068C29.7527 18.6068 29.8271 17.3167 29.8271 15.638C29.8271 13.1876 29.7759 12.6181 29.5342 12.3763C29.0963 11.9385 28.5715 12.0216 28.2005 12.5876C27.9225 13.0117 27.8701 13.521 27.8701 15.7997V18.5078L28.4292 18.6279C28.7367 18.694 29.1001 18.7162 29.2366 18.6774C29.3731 18.6386 29.5618 18.6068 29.6559 18.6068ZM28.2104 18.1875C28.0004 17.8561 28.1483 13.1559 28.3775 12.8756C28.6999 12.4813 29.398 12.5949 29.5232 13.062C29.6694 13.6076 29.6678 14.9676 29.5188 16.8828C29.3997 18.4131 29.3966 18.4205 28.8786 18.4205C28.5923 18.4205 28.2916 18.3156 28.2104 18.1875ZM77.2239 18.5871C76.3137 18.3238 76.3391 18.1127 77.3103 17.8707C79.4639 17.334 79.5325 16.7759 77.7948 13.9326C76.6758 12.1016 76.4793 11.8784 75.7369 11.5949C74.9369 11.2893 74.8927 11.2924 73.9861 11.7171C73.4745 11.9567 72.9686 12.258 72.8618 12.3866C72.661 12.6286 72.1358 12.5363 72.1358 12.259C72.1358 12.1725 72.6833 11.7955 73.3525 11.4213C74.6165 10.7145 74.5654 10.7189 76.2711 11.1659C76.8825 11.3261 77.065 11.5323 77.9242 13.0338C78.4555 13.9621 79.0027 14.7648 79.1403 14.8176C79.2778 14.8704 80.0307 14.7235 80.8132 14.4912C82.1253 14.1017 82.2744 14.0913 82.7308 14.3576C83.2754 14.6755 84.0643 16.0365 84.0643 16.658C84.0643 17.0975 84.0636 17.0978 80.4376 18.1478C78.0175 18.8486 78.0927 18.8383 77.2239 18.5871ZM81.2618 16.0988C81.5437 15.7592 81.3606 15.4383 80.8848 15.4383C80.6583 15.4383 80.523 15.5661 80.523 15.78C80.523 16.3904 80.8889 16.5482 81.2618 16.0988ZM75.9744 17.3742C75.7854 16.8818 73.8172 13.7425 73.4093 13.2829C72.8967 12.7054 72.9829 12.505 73.9531 12.0189C74.7343 11.6274 74.9244 11.5999 75.57 11.7848C76.229 11.9736 76.4277 12.1958 77.5736 14.0254C78.2732 15.1424 78.8456 16.2509 78.8456 16.4886C78.8456 17.0626 78.1803 17.4745 77.034 17.6103C76.2434 17.7039 76.0876 17.6692 75.9744 17.3742ZM61.2585 15.6818C61.0675 15.4908 61.1204 14.3189 61.3681 13.2538C61.5381 12.5222 61.6816 12.2698 61.9272 12.2698C62.3864 12.2698 62.3567 13.0124 61.8642 13.8472C61.6118 14.275 61.5005 14.7158 61.5536 15.0775C61.6347 15.6303 61.4944 15.9177 61.2585 15.6818ZM67.5695 14.8379C67.2619 14.7289 66.7877 14.4839 66.5156 14.2935C66.2435 14.1031 65.8071 13.9473 65.5458 13.9473C65.0736 13.9473 65.0726 13.9439 65.3834 13.4024C65.6795 12.8864 65.6776 12.8371 65.3458 12.4705C64.9975 12.0857 64.9993 12.0835 65.6529 12.0835C66.2703 12.0835 66.3173 12.1267 66.4238 12.7932C66.5959 13.869 67.2491 14.373 68.5976 14.4706C70.0664 14.5768 70.272 14.3953 70.272 12.9925C70.272 12.3865 70.1888 11.8971 70.0856 11.8971C69.9831 11.8971 69.8993 12.2585 69.8993 12.7002C69.8993 13.1419 69.7749 13.6661 69.623 13.8651C69.3639 14.2043 69.3534 14.191 69.4538 13.6515C69.5364 13.2078 69.4542 12.952 69.094 12.5332L68.6271 11.9903H64.8833C62.8242 11.9903 61.1395 11.9672 61.1394 11.939C61.1393 11.9108 61.4339 11.3028 61.794 10.5877L62.4486 9.28772H66.0941C69.1382 9.28772 69.7871 9.24007 70.0284 8.99884C70.5177 8.50951 70.8713 8.76915 71.6257 10.1718C72.2727 11.3745 72.3211 11.5521 72.0707 11.8025C71.9162 11.957 71.6747 12.0835 71.5341 12.0835C71.0664 12.0835 70.8312 12.5216 70.8312 13.3929C70.8312 14.5863 70.31 15.071 69.0485 15.0509C68.5426 15.0428 67.877 14.9469 67.5695 14.8379ZM63.8184 13.6739C63.6205 13.1582 63.8419 13.0499 64.1767 13.4986C64.4689 13.8901 64.4741 13.9473 64.2175 13.9473C64.0557 13.9473 63.8761 13.8242 63.8184 13.6739ZM63.7486 12.5604C63.7486 12.4006 63.8325 12.2698 63.935 12.2698C64.0375 12.2698 64.1214 12.3488 64.1214 12.4452C64.1214 12.5417 64.0375 12.6724 63.935 12.7358C63.8325 12.7992 63.7486 12.7202 63.7486 12.5604ZM81.4982 10.3594C80.8667 9.58307 80.316 8.69095 80.2037 8.26262C80.0963 7.85258 79.9474 7.37032 79.873 7.19092C79.7456 6.88404 80.111 6.86476 86.0524 6.86476H92.3672L94.5527 8.93028C95.8648 10.1703 96.7383 11.1387 96.7383 11.3533C96.7383 11.6993 96.513 11.7107 89.6677 11.7107H82.5972L81.4982 10.3594ZM83.9914 11.0536C84.2807 10.612 84.2787 10.5595 83.9593 10.2067C83.5422 9.74574 82.9854 9.80389 82.6275 10.3458C82.3866 10.7104 82.3986 10.7906 82.7459 11.1379C83.2577 11.6497 83.6167 11.6254 83.9914 11.0536ZM94.5816 11.2314C94.7427 11.0703 94.8745 10.8247 94.8745 10.6856C94.8745 10.0337 93.8788 9.61242 93.4207 10.0705C92.9626 10.5286 93.3839 11.5243 94.0358 11.5243C94.1749 11.5243 94.4205 11.3925 94.5816 11.2314ZM17.9918 10.6134L17.0599 10.2819L17.0051 8.94609L16.9504 7.61028L18.9155 7.58232C19.9964 7.56695 20.9856 7.54599 21.1137 7.53572C21.4476 7.509 21.4065 9.60648 21.0593 10.3128C20.8133 10.8131 20.6865 10.8758 19.8541 10.9084C19.3421 10.9284 18.5046 10.7957 17.9918 10.6134ZM20.7742 9.18122C21.1657 8.78979 21.1432 8.48249 20.6936 8.07556C19.9352 7.38919 18.8894 8.52654 19.6133 9.25045C19.9229 9.56001 20.4254 9.53003 20.7742 9.18122ZM19.6862 8.94244C19.4778 8.60522 19.8001 8.14832 20.2055 8.20617C20.7478 8.28355 20.7428 8.98796 20.1994 9.0654C19.9784 9.0969 19.7475 9.04156 19.6862 8.94244ZM7.63156 9.80028C7.6164 9.05034 7.6069 9.03708 7.45311 9.55133C7.36377 9.85008 7.33399 10.1646 7.38694 10.2503C7.51125 10.4514 7.40569 10.4465 6.821 10.2243C6.39061 10.0606 6.3432 9.94439 6.34577 9.05936C6.35035 7.48907 6.27182 7.52514 9.83045 7.45849L12.9595 7.39988V8.85635V10.3128L12.3071 10.4419C11.9484 10.5128 10.7532 10.5757 9.6512 10.5817L7.64759 10.5924L7.63156 9.80028ZM95.9083 9.85838C95.2021 9.1327 95.1905 9.10159 95.6288 9.10727C96.3177 9.11617 96.776 9.54812 96.7056 10.1221L96.6452 10.6154L95.9083 9.85838ZM13.1641 9.13174C12.9852 7.5507 13.1011 7.36111 14.1509 7.51734C14.6232 7.58764 15.0209 7.65828 15.0347 7.67432C15.0484 7.69035 15.0943 8.26961 15.1367 8.96156L15.2137 10.2196H14.2505H13.2872L13.1641 9.13174ZM15.9339 9.19755C15.7862 8.01498 15.8991 7.56992 16.3073 7.72656C16.7071 7.87997 16.7263 10.2196 16.3278 10.2196C16.145 10.2196 16.0216 9.89931 15.9339 9.19755ZM5.23117 9.67274C4.95963 9.16535 4.99107 8.69247 5.32837 8.2109C5.83264 7.49096 6.06239 7.70794 6.075 8.91604C6.08493 9.86674 6.03729 10.0333 5.75539 10.0333C5.57319 10.0333 5.33729 9.87102 5.23117 9.67274ZM15.5368 8.82177C15.5377 8.1042 15.5713 7.83348 15.6117 8.22018C15.652 8.60688 15.6513 9.19399 15.6102 9.52486C15.5691 9.85573 15.536 9.53934 15.5368 8.82177ZM68.9151 8.11579C68.7673 7.73068 69.0559 7.37773 69.4556 7.45471C69.9508 7.55008 69.9144 8.24717 69.4104 8.31907C69.1928 8.35012 68.9699 8.25865 68.9151 8.11579ZM63.7486 6.58518C63.4924 6.43868 63.0907 6.31585 62.8561 6.31221C62.4403 6.30574 62.4308 6.26404 62.4833 4.67476L62.5372 3.04392L64.2949 2.98988L66.0526 2.93584L67.1372 4.00915C67.7337 4.59946 68.2204 5.0012 68.2187 4.9019C68.2173 4.8026 67.8249 4.34393 67.3474 3.88263C66.6487 3.20772 66.5446 3.03127 66.8146 2.97917C67.3447 2.87687 69.5265 5.13638 69.5265 5.78767C69.5265 6.19263 69.4395 6.3056 69.1277 6.3056C68.9083 6.3056 68.6174 6.15883 68.4813 5.97944C68.2455 5.6688 68.2334 5.6688 68.2277 5.97944C68.2228 6.26251 68.024 6.3056 66.7249 6.3056C65.5663 6.3056 65.2038 6.36878 65.1207 6.58518C64.9866 6.9347 64.3601 6.93471 63.7486 6.58518ZM63.935 6.09389C63.935 5.95019 64.2045 5.91911 64.7737 5.99714L65.6125 6.11209L65.5939 5.32354C65.579 4.69026 65.55 4.62673 65.4467 5.00093C65.3398 5.38818 65.1879 5.47645 64.5476 5.5235C63.87 5.57329 63.7673 5.52838 63.6951 5.15074C63.6488 4.90867 63.602 5.06692 63.5876 5.51348C63.5737 5.94915 63.6461 6.30561 63.7486 6.30561C63.8512 6.30561 63.935 6.21034 63.935 6.09389ZM63.0865 3.30757C63.0265 3.21047 62.8979 3.18013 62.8008 3.24014C62.7037 3.30015 62.6734 3.42869 62.7334 3.52579C62.7934 3.62289 62.9219 3.65324 63.019 3.59323C63.1161 3.53322 63.1465 3.40467 63.0865 3.30757ZM60.2074 6.13634C60.2074 5.71671 57.8933 5.18731 56.059 5.18731H54.2195L54.2779 4.58157L54.3363 3.97583L56.3564 3.92276C57.8613 3.88323 58.4977 3.79026 58.8519 3.55818C59.1872 3.33845 59.7453 3.24426 60.7458 3.23848L62.1644 3.23031L62.2185 4.76796L62.2727 6.30562H61.24C60.6721 6.30562 60.2074 6.22943 60.2074 6.13634ZM60.9529 5.93284C60.9529 5.83033 60.869 5.74646 60.7665 5.74646C60.664 5.74646 60.5801 5.83033 60.5801 5.93284C60.5801 6.03535 60.664 6.11923 60.7665 6.11923C60.869 6.11923 60.9529 6.03535 60.9529 5.93284ZM62.0712 5.96391C62.0712 5.72122 61.8496 5.55983 61.6694 5.67122C61.4766 5.79035 61.6428 6.11923 61.8958 6.11923C61.9923 6.11923 62.0712 6.04933 62.0712 5.96391ZM0.131782 5.81021C0.0643323 5.74276 0.0826055 5.59598 0.172386 5.48404C0.262169 5.3721 0.393929 5.00785 0.465185 4.67461C0.564223 4.21144 0.525386 4.0421 0.300325 3.95574C-0.548404 3.63005 0.35184 3.50988 3.64036 3.50988H7.27482V4.72136V5.93285H3.76462C1.83401 5.93285 0.199233 5.87766 0.131782 5.81021ZM1.83335 4.67477C1.79245 4.03732 1.69827 3.78945 1.49697 3.78945C1.29567 3.78945 1.20149 4.03732 1.16059 4.67477C1.10961 5.46911 1.14418 5.56008 1.49697 5.56008C1.84975 5.56008 1.88432 5.46911 1.83335 4.67477ZM3.31808 5.03588C3.35865 4.91415 3.25906 4.81455 3.09675 4.81455C2.93444 4.81455 2.80164 4.94735 2.80164 5.10966C2.80164 5.43879 3.20288 5.38147 3.31808 5.03588ZM4.43637 5.03588C4.47695 4.91415 4.37736 4.81455 4.21504 4.81455C4.05274 4.81455 3.91994 4.94735 3.91994 5.10966C3.91994 5.43879 4.32117 5.38147 4.43637 5.03588ZM5.59738 5.09412C5.59738 4.94036 5.47157 4.81455 5.31781 4.81455C5.02676 4.81455 4.94803 5.03498 5.16249 5.24944C5.37694 5.4639 5.59738 5.38517 5.59738 5.09412ZM2.98803 4.16221C2.98803 4.00845 2.86222 3.88264 2.70845 3.88264C2.4174 3.88264 2.33868 4.10307 2.55314 4.31753C2.76759 4.53199 2.98803 4.45326 2.98803 4.16221ZM3.91994 4.16221C3.91994 4.00845 3.79413 3.88264 3.64036 3.88264C3.34932 3.88264 3.27059 4.10307 3.48505 4.31753C3.6995 4.53199 3.91994 4.45326 3.91994 4.16221ZM5.03823 4.16221C5.03823 4.00845 4.91242 3.88264 4.75866 3.88264C4.46761 3.88264 4.38888 4.10307 4.60334 4.31753C4.8178 4.53199 5.03823 4.45326 5.03823 4.16221ZM6.11381 4.10397C6.15439 3.98224 6.05479 3.88264 5.89248 3.88264C5.73018 3.88264 5.59738 4.01544 5.59738 4.17775C5.59738 4.50688 5.99862 4.44956 6.11381 4.10397ZM7.83877 4.76796L7.84354 3.60307L8.55213 3.2769C8.94185 3.09751 9.33941 2.95073 9.4356 2.95073C9.53178 2.95073 9.62223 3.46185 9.63659 4.08654C9.66691 5.40585 9.31197 5.93285 8.39307 5.93285H7.83392L7.83877 4.76796ZM15.8457 5.46358C15.6752 5.25817 14.9749 5.18501 12.8008 5.14547L9.97736 5.09413L9.92145 3.91297C9.88783 3.20259 9.95263 2.62686 10.0841 2.4685C10.2585 2.25836 11.0277 2.2052 13.8943 2.2052C17.8155 2.2052 17.7122 2.23532 17.7122 1.09161C17.7122 0.526334 17.9846 0.34138 18.8169 0.34138C19.3768 0.34138 19.8706 0.777043 19.9787 1.36648C20.0254 1.62096 20.1942 1.73925 20.5105 1.73925C20.8957 1.73925 20.9837 1.63844 21.0317 1.14198L21.0895 0.544706H24.8933C27.2361 0.544706 28.7416 0.616522 28.8128 0.731667C28.885 0.848537 29.0095 0.853461 29.1447 0.744805C29.4734 0.480735 34.6684 0.478336 34.9863 0.742128C35.1845 0.906625 35.3003 0.906969 35.4637 0.743538C35.7462 0.461095 36.7734 0.466182 37.0587 0.751436C37.2327 0.925392 37.3321 0.925392 37.506 0.751436C37.7795 0.477952 41.01 0.439331 41.01 0.709543C41.01 0.827647 41.1775 0.827647 41.4881 0.709543C42.1225 0.468357 42.9367 0.47883 43.1893 0.731424C43.3366 0.8787 43.4983 0.8787 43.7735 0.731424C43.9828 0.619417 44.8213 0.527775 45.6369 0.527775H47.1198L47.196 1.18011L47.2721 1.83245L35.0549 1.86447L22.8377 1.8965L31.5977 2.05091C44.4294 2.27709 46.7879 2.3765 46.7879 2.6912C46.7879 2.83395 46.9556 2.95074 47.1606 2.95074C47.3656 2.95074 47.5334 3.02862 47.5334 3.12381C47.5334 3.219 47.6652 3.42868 47.8263 3.58977C48.0925 3.85603 47.9527 3.88218 46.2886 3.87748C44.5077 3.87247 44.4433 3.85729 43.9145 3.31833C43.6155 3.01365 43.3084 2.76436 43.2321 2.76436C43.1558 2.76436 42.8816 3.01598 42.6229 3.32351C42.0222 4.03738 41.644 4.02828 40.8734 3.28144C40.196 2.62485 39.7917 2.67998 39.4282 3.47854C39.1569 4.07437 38.4369 3.99049 37.6976 3.27691L37.07 2.67117L36.5265 3.27691C35.8356 4.04686 35.2484 4.06186 34.7025 3.32351C34.4751 3.01597 34.1804 2.76436 34.0476 2.76436C33.7317 2.76436 32.955 3.59361 33.1181 3.75669C33.1874 3.82597 32.9942 3.88265 32.6887 3.88265C32.315 3.88265 31.9582 3.69981 31.5977 3.32351C30.9764 2.67505 30.7468 2.63575 30.3219 3.1052C29.9171 3.55254 29.9327 3.69627 30.3862 3.69627C30.7022 3.69627 30.759 3.82053 30.759 4.51217C30.759 5.54406 30.4731 5.78367 29.329 5.71068L28.4292 5.65329L28.3712 4.73941C28.3339 4.15096 28.3967 3.77394 28.5477 3.68066C28.72 3.57412 28.6614 3.43537 28.3261 3.15628C28.0753 2.94754 27.8281 2.77643 27.7769 2.77603C27.7256 2.77561 27.4111 3.02326 27.0779 3.32634C26.5654 3.79263 26.4722 4.00683 26.4722 4.71875C26.4722 5.52932 26.4517 5.56009 25.913 5.56009C25.3663 5.56009 25.3539 5.53938 25.3539 4.62818C25.3539 4.03894 25.4344 3.69627 25.5728 3.69627C25.6932 3.69627 25.5947 3.48659 25.3539 3.23032C24.8151 2.6568 24.6512 2.65643 24.0026 3.22729C23.5708 3.60741 23.4901 3.8265 23.4901 4.61927C23.4901 5.49859 23.4596 5.56012 23.0241 5.56012C22.5918 5.56012 22.5582 5.49551 22.5582 4.66548C22.5582 4.17343 22.4575 3.6702 22.3345 3.54719C22.1606 3.37323 22.2824 3.32353 22.8827 3.32353C23.3071 3.32353 23.7063 3.23966 23.7697 3.13715C23.8444 3.01619 22.9425 2.95077 21.2002 2.95077C18.7682 2.95077 18.4843 2.98523 18.1841 3.31699C17.8568 3.67865 17.8779 3.68388 19.8759 3.73635L21.8992 3.78949L21.839 4.62821C21.8059 5.0895 21.7654 5.4763 21.7491 5.48776C21.7328 5.49922 20.4477 5.55849 18.8932 5.61948C16.5701 5.71063 16.0276 5.68285 15.8457 5.46358ZM17.6574 4.39519C17.613 4.16454 17.5766 4.35326 17.5766 4.81455C17.5766 5.27585 17.6129 5.46456 17.6574 5.23391C17.7018 5.00326 17.7018 4.62584 17.6574 4.39519ZM13.3634 3.32196L13.7672 2.57797H13.332C13.0388 2.57797 12.77 2.78292 12.5087 3.20571C12.0214 3.99419 12.0241 4.06938 12.5401 4.06749C12.8367 4.06643 13.0777 3.8482 13.3634 3.32196ZM14.7301 3.3235L15.1104 2.57797L14.6873 2.57938C14.3897 2.58036 14.138 2.80165 13.8392 3.32491L13.4143 4.06901H13.882C14.2401 4.06901 14.439 3.89419 14.7301 3.3235ZM16.1506 3.33744C16.5325 2.63375 16.534 2.60578 16.1946 2.51703C15.9371 2.44968 15.6921 2.64473 15.2777 3.24708L14.7122 4.06903L15.2337 4.06748C15.6477 4.06628 15.8367 3.91576 16.1506 3.33744ZM26.7863 3.10462C27.0236 2.88173 27.2177 2.65108 27.2177 2.59207C27.2177 2.53305 26.7984 2.48477 26.2858 2.48477C25.7733 2.48477 25.3539 2.5213 25.3539 2.56595C25.3539 2.68356 26.1468 3.50987 26.2597 3.50987C26.3121 3.50987 26.5491 3.32751 26.7863 3.10462ZM30.1998 2.59207C30.1998 2.53305 29.8224 2.48477 29.3611 2.48477C28.8998 2.48477 28.5224 2.5213 28.5224 2.56595C28.5224 2.61059 28.7052 2.84171 28.9286 3.07954L29.3349 3.51196L29.7674 3.10567C30.0052 2.8822 30.1998 2.65108 30.1998 2.59207ZM32.937 3.10462C33.1742 2.88173 33.3684 2.65108 33.3685 2.59207C33.3686 2.51006 32.0173 2.49106 31.5186 2.56606C31.4124 2.58204 32.289 3.50987 32.4103 3.50987C32.4627 3.50987 32.6997 3.32751 32.937 3.10462ZM36.3267 2.8862C36.5178 2.65594 36.4098 2.60511 35.6123 2.54986C35.0956 2.51406 34.6728 2.5213 34.6729 2.56595C34.673 2.61059 34.8523 2.838 35.0715 3.07129C35.4876 3.51424 35.8498 3.46084 36.3267 2.8862ZM39.1462 3.04392L39.5839 2.57796H38.587H37.5901L38.0279 3.04392C38.2687 3.30019 38.5203 3.50987 38.587 3.50987C38.6538 3.50987 38.9054 3.30019 39.1462 3.04392ZM42.3147 3.04392L42.7524 2.57796H41.7555H40.7586L41.1964 3.04392C41.4372 3.30019 41.6888 3.50987 41.7555 3.50987C41.8223 3.50987 42.0739 3.30019 42.3147 3.04392ZM18.9819 1.22399C19.0561 0.838814 18.5181 0.579272 18.2341 0.863246C17.9501 1.14722 18.2097 1.68527 18.5948 1.61109C18.7734 1.57671 18.9476 1.40251 18.9819 1.22399ZM30.9454 4.72136C30.9454 3.93441 31.0103 3.69626 31.2249 3.69626C31.3787 3.69626 31.5045 3.78013 31.5045 3.88264C31.5045 4.00433 34.6419 4.06902 40.5441 4.06902H49.5836V4.81455V5.56008H48.7772C47.9945 5.56008 47.973 5.54424 48.0495 5.023C48.0929 4.72761 48.0364 4.42911 47.9241 4.35967C47.7896 4.27654 47.7198 4.47597 47.72 4.94334L47.7202 5.65327L43.9457 5.59604C41.8698 5.56457 40.0916 5.45972 39.9942 5.36306C39.8943 5.26388 38.0634 5.18732 35.7913 5.18732C32.9086 5.18732 31.7019 5.12381 31.5418 4.96366C31.3961 4.81794 31.3181 4.80999 31.3181 4.94083C31.3181 5.46363 31.9273 5.55403 35.8058 5.60678L39.7985 5.66109L35.3719 5.70378L30.9454 5.74646V4.72136ZM23.8628 4.62817C23.8628 3.71697 23.8753 3.69626 24.422 3.69626C24.9687 3.69626 24.9811 3.71697 24.9811 4.62817C24.9811 5.53937 24.9687 5.56008 24.422 5.56008C23.8753 5.56008 23.8628 5.53937 23.8628 4.62817ZM26.845 4.62817C26.845 3.71697 26.8574 3.69626 27.4041 3.69626C27.9508 3.69626 27.9632 3.71697 27.9632 4.62817C27.9632 5.53937 27.9508 5.56008 27.4041 5.56008C26.8574 5.56008 26.845 5.53937 26.845 4.62817ZM49.77 4.45279C49.77 3.84377 49.8333 3.30632 49.9108 3.25844C49.9883 3.21057 50.2818 3.21539 50.5632 3.26917C51.0519 3.36259 51.0747 3.41582 51.0747 4.46351V5.56008H50.4223H49.77V4.45279ZM51.4474 4.42626C51.4474 3.45516 51.8881 3.51955 51.9712 4.50279C52.0152 5.02349 51.9595 5.18732 51.7382 5.18732C51.5222 5.18732 51.4474 4.99159 51.4474 4.42626ZM52.3793 4.62817C52.3793 4.08973 52.4104 4.06902 53.218 4.06902C54.0257 4.06902 54.0568 4.08973 54.0568 4.62817C54.0568 5.16661 54.0257 5.18732 53.218 5.18732C52.4104 5.18732 52.3793 5.16661 52.3793 4.62817ZM48.7915 3.7592C48.9196 3.7075 49.1293 3.7075 49.2574 3.7592C49.3856 3.81091 49.2807 3.85321 49.0244 3.85321C48.7682 3.85321 48.6633 3.81091 48.7915 3.7592ZM60.1616 2.71775C59.932 2.09351 60.215 2.01882 62.8094 2.01882C64.8674 2.01882 65.4267 2.07461 65.6125 2.29839C65.8158 2.5434 65.6357 2.57797 64.1552 2.57797C63.2261 2.57797 62.4141 2.66184 62.3508 2.76435C62.18 3.04073 60.2654 2.99998 60.1616 2.71775ZM60.487 1.45967C60.5503 1.35716 60.7901 1.27329 61.0198 1.27329C61.5238 1.27329 61.8848 0.946586 61.8848 0.490484C61.8848 0.245612 62.0288 0.154996 62.418 0.154996C62.7112 0.154996 63.3249 0.103756 63.7818 0.0411292C64.4211 -0.0464933 64.6848 -0.000468046 64.9261 0.240824C65.3107 0.625348 65.3504 1.64605 64.9808 1.64605C64.8385 1.64605 64.7336 1.50249 64.7479 1.32703C64.7622 1.15054 64.6161 0.975589 64.4209 0.935462C64.1415 0.878008 64.0894 0.944348 64.1705 1.25449C64.2697 1.6339 64.2124 1.64605 62.3223 1.64605C61.0694 1.64605 60.413 1.57939 60.487 1.45967Z" />
</svg>
