<svg width="100" height="29" viewBox="0 0 100 29"  xmlns="http://www.w3.org/2000/svg">
<path d="M58.4187 27.3979C57.854 26.5686 56.9592 25.2745 56.4301 24.522C52.1147 18.3844 51.5138 17.4071 51.5138 16.5254V15.6532H49.9535C48.9921 15.6532 48.2891 15.5506 48.1222 15.386C47.9051 15.1719 47.7964 15.1932 47.5749 15.4929C47.2295 15.9604 46.8495 15.9678 46.3512 15.5168C46.0375 15.2329 45.9035 15.2172 45.6426 15.4337C45.2996 15.7184 42.9051 15.7957 42.2691 15.5426C41.7494 15.3358 41.2343 15.5746 41.1011 16.0841C41.0394 16.3199 40.784 16.5547 40.5336 16.6057C39.2185 16.8739 37.5852 17.0085 34.2173 17.1262C32.0391 17.2023 30.4662 17.345 30.4272 17.4701C30.3905 17.5876 31.4692 18.43 32.8244 19.342C34.8538 20.7077 35.3903 20.9773 35.8664 20.8706C36.5261 20.7227 37.2653 19.9165 38.0676 18.4699C38.668 17.3874 39.3514 17.0012 40.2619 17.2297C41.058 17.4295 40.9753 17.9189 39.9142 19.287C39.4127 19.9336 38.5845 21.0878 38.0738 21.852C37.4455 22.7921 36.8884 23.3623 36.3507 23.6154C35.418 24.0546 34.0341 24.0934 33.5097 23.6952C33.1657 23.4339 33.1772 23.3795 33.6772 22.9098C33.9727 22.6323 34.1871 22.284 34.1538 22.1358C34.1204 21.9876 32.5084 20.7965 30.5714 19.4888L27.0497 17.1113L26.4476 17.7851L25.8455 18.459L24.7854 17.6974C23.9893 17.1254 23.5104 16.9357 22.8631 16.9357C22.036 16.9357 21.9839 16.9769 21.5813 17.951C20.9602 19.4537 20.8412 19.6076 20.2998 19.6076C19.8712 19.6076 19.7663 19.4374 19.5096 18.3251C19.3469 17.6197 19.2504 16.7781 19.2954 16.4548C19.3762 15.8735 19.3638 15.8669 18.1744 15.8669C17.5129 15.8669 16.8562 15.7515 16.7151 15.6104C16.5156 15.4109 16.4016 15.4109 16.2021 15.6104C15.8924 15.9202 14.7486 15.9539 14.7486 15.6532C14.7486 15.5356 14.6043 15.4394 14.428 15.4394C14.2517 15.4394 14.1074 15.5356 14.1074 15.6532C14.1074 15.9818 10.535 15.9303 10.4008 15.5998C10.3228 15.4076 10.2428 15.3993 10.1158 15.5703C10.0043 15.7205 8.92031 15.8198 7.17438 15.8397C4.49222 15.8702 4.07677 15.7811 4.06434 15.1722C4.06256 15.0841 9.4476 15.0119 16.0311 15.0119C26.1201 15.0119 28.0012 15.0587 28.0012 15.3097C28.0012 15.8094 28.5184 15.8669 33.0087 15.8669C37.0685 15.8669 37.3643 15.8402 37.7269 15.4394C38.0999 15.0273 38.3852 15.0119 45.6688 15.0119C50.563 15.0119 53.2239 15.0872 53.2239 15.2257C53.2239 15.3432 53.7048 15.4394 54.2926 15.4394C54.8804 15.4394 55.3614 15.5356 55.3614 15.6532C55.3614 15.7837 56.3501 15.8669 57.9002 15.8669C59.8962 15.8669 60.4959 15.7984 60.7051 15.5463C61.0446 15.1374 61.3464 15.135 61.3464 15.5414C61.3464 15.715 61.5862 16.0142 61.8792 16.2062C62.5951 16.6753 63.4187 16.4442 63.8723 15.6469C64.1672 15.1285 64.3723 15.0144 65.0104 15.0133C65.6573 15.0121 65.8109 15.0998 65.9194 15.5321C65.9912 15.8181 66.2384 16.112 66.4688 16.1852C67.0386 16.366 67.7589 15.9454 67.7589 15.4319C67.7589 15.0209 67.9567 15.0119 77.024 15.0119C87.7857 15.0119 86.9965 14.8372 86.9965 17.2197V18.6457H85.9278H84.859V19.3938V20.142H86.0347C87.174 20.142 87.2104 20.1601 87.2132 20.7298C87.2148 21.0531 87.273 21.5297 87.3425 21.7889C87.4664 22.2509 87.4353 22.2585 85.7814 22.1716C84.1623 22.0866 84.0638 22.1086 83.3542 22.7151C82.9475 23.0628 82.533 23.3474 82.4331 23.3477C82.3333 23.3479 81.5637 22.6332 80.7231 21.7592L79.1946 20.1702L80.1031 19.393C81.1852 18.4672 81.2682 17.8446 80.4237 16.9862L79.8359 16.3886L74.5674 16.5018C69.7789 16.6047 69.258 16.6522 68.8495 17.0223C68.0567 17.7407 68.269 18.5039 70.0382 21.2968C70.9391 22.719 71.8288 24.0435 72.0154 24.2402C72.4634 24.7126 73.5575 24.8028 74.2624 24.4255C74.814 24.1303 74.8644 24.1591 76.3166 25.6001C77.1353 26.4126 77.8052 27.1932 77.8052 27.3348C77.8052 27.4763 77.4467 27.8877 77.0084 28.2489L76.2116 28.9058H72.4614H68.7112L68.3541 28.2111C68.1578 27.829 67.9676 27.3654 67.9315 27.1808C67.8954 26.9963 66.9039 25.3277 65.7283 23.473L63.5908 20.1007L59.6403 20.2421C57.4676 20.3198 55.6568 20.4166 55.6163 20.457C55.5517 20.5216 57.1216 22.8685 59.6845 26.5386L60.4943 27.6983L64.0035 27.6445C67.3289 27.5936 67.5248 27.6133 67.7427 28.0205C67.8692 28.2568 67.9727 28.5527 67.9727 28.678C67.9727 28.8316 66.5843 28.9058 63.709 28.9058H59.4454L58.4187 27.3979ZM60.0215 18.2399C60.0569 17.4877 60.0037 16.79 59.9033 16.6896C59.8028 16.5891 58.8359 16.5697 57.7547 16.6464L55.7889 16.786V18.1077C55.7889 18.8347 55.8301 19.4695 55.8805 19.5185C55.9309 19.5675 56.8687 19.6076 57.9646 19.6076H59.957L60.0215 18.2399ZM76.6289 25.4351L74.9868 23.8826L76.8551 22.226C77.8827 21.3149 78.8455 20.5695 78.9947 20.5695C79.144 20.5695 79.9014 21.2668 80.6778 22.1192L82.0895 23.6689L80.9627 24.7051C80.3429 25.275 79.4838 26.0217 79.0535 26.3645L78.271 26.9876L76.6289 25.4351ZM29.4658 20.9381C26.3768 18.807 26.3391 18.7713 26.6582 18.2843C26.8361 18.0128 27.077 17.7907 27.1936 17.7907C27.4123 17.7907 32.5712 21.2519 33.1173 21.765C33.3778 22.0097 33.3804 22.1345 33.1346 22.5938C32.9755 22.8912 32.7894 23.1263 32.721 23.1164C32.6527 23.1064 31.1879 22.1262 29.4658 20.9381ZM87.7714 21.6115C87.497 20.2397 87.5521 20.142 88.5997 20.142C89.5536 20.142 89.5616 20.1359 89.5616 19.4055C89.5616 18.6787 89.5484 18.6683 88.5462 18.604L87.5309 18.5388L87.4116 17.007C87.346 16.1645 87.1659 15.3229 87.0114 15.1367C86.8569 14.9505 86.8144 14.8047 86.9169 14.8127C87.0195 14.8207 87.7046 15.5515 88.4394 16.4366C89.6776 17.9283 89.7753 18.1226 89.7753 19.094C89.7753 19.6704 89.8475 20.1413 89.9356 20.1406C90.0238 20.1398 90.5528 19.7476 91.1113 19.2689C92.6154 17.9797 92.5491 17.7251 89.9614 14.8514L87.7962 12.4469H85.3657H82.9353V13.5313C82.9353 14.4487 82.8777 14.6048 82.5612 14.5447C82.2793 14.4912 82.1711 14.2239 82.122 13.4603C82.0862 12.9029 81.9893 12.4469 81.9067 12.4469C81.8241 12.4469 81.7899 12.866 81.8306 13.3783C81.902 14.2767 81.8804 14.3145 81.2176 14.447C80.237 14.6431 75.0264 14.6175 75.0264 14.4166C75.0264 14.3242 75.6757 13.9179 76.4692 13.5136C77.6554 12.9093 78.2352 12.7556 79.729 12.6496L81.5458 12.5206L79.5457 12.4838C77.6075 12.4481 77.5001 12.4717 76.0737 13.2485C75.2641 13.6893 74.6011 14.1732 74.6003 14.3238C74.5996 14.54 73.499 14.5881 69.363 14.5524C64.1907 14.5078 64.1215 14.5012 63.6614 14.0115C62.9907 13.2976 62.3148 13.3946 61.1572 14.3707L60.1432 15.2257H57.966H55.7888V13.5157V11.8057H57.7126H59.6363V11.1542V10.5028L60.9723 10.5664L62.3082 10.63L62.3734 11.6454C62.4322 12.562 62.4893 12.6607 62.9612 12.6607C63.2487 12.6607 63.4839 12.7569 63.4839 12.8744C63.4839 13.0114 65.4789 13.0882 69.0414 13.0882C73.4406 13.0882 74.5989 13.0306 74.5989 12.8121C74.5989 12.6602 75.1301 12.2755 75.7793 11.9571C76.8102 11.4514 77.2161 11.3782 78.9856 11.3782C80.1937 11.3782 81.0115 11.2919 81.0115 11.1644C81.0115 11.0468 81.1557 10.9507 81.3321 10.9507C81.5084 10.9507 81.6527 11.0469 81.6527 11.1644C81.6527 11.4734 84.7786 11.432 85.284 11.1163C85.6149 10.9097 85.7585 10.9097 85.9652 11.1163C86.1092 11.2603 86.4001 11.3782 86.6117 11.3782C86.9521 11.3782 86.9965 11.1684 86.9965 9.56129C86.9965 7.87754 86.9647 7.7444 86.5623 7.7444C86.3235 7.7444 86.0727 7.88868 86.005 8.06502C85.8458 8.47996 85.5002 8.47996 85.5002 8.06502C85.5002 7.80517 85.1559 7.7444 83.6833 7.7444C82.2108 7.7444 81.8665 7.80517 81.8665 8.06502C81.8665 8.53474 81.5073 8.45632 81.377 7.95815C81.2742 7.56485 81.0855 7.53065 79.0186 7.53065C77.2375 7.53065 76.5626 7.44093 75.762 7.09777C74.5008 6.55715 74.3171 6.67943 75.3893 7.34595C76.0932 7.78358 76.5245 7.8609 78.6091 7.92316C80.7186 7.98616 81.0432 8.04562 81.2351 8.4041C81.4963 8.89212 82.0444 8.9415 82.2167 8.49253C82.393 8.03289 84.9017 8.05 85.6124 8.51568C86.0945 8.83156 86.1478 8.83156 86.2691 8.51568C86.5549 7.77074 86.7827 8.23984 86.7827 9.57337V10.9748L86.1503 10.6013C85.6469 10.3039 85.418 10.2763 85.0281 10.4658C84.1976 10.8695 82.1244 10.9643 81.7747 10.6146C81.4133 10.2532 80.8803 10.2167 80.6807 10.5396C80.5907 10.6851 79.7683 10.749 78.4438 10.7135L76.3491 10.6572L75.205 11.4452C74.2808 12.0817 73.866 12.2332 73.0474 12.2332H72.0339L72.0315 10.1491C72.0299 9.00286 71.9695 7.70432 71.8966 7.26346L71.7642 6.46188H73.1815C74.2989 6.46188 74.5989 6.39402 74.5989 6.14126C74.5989 5.87775 74.2202 5.82063 72.4736 5.82063H70.3484L70.2827 6.72907L70.217 7.63751L68.4535 7.6996L66.6901 7.76168V6.79116V5.82063H64.5527H62.4152V6.99626V8.17189H61.3464H60.2776V7.10314V6.03438H58.0333H55.7889V4.72836V3.42234L60.2242 3.5999C66.0473 3.83302 66.052 3.83282 66.4087 3.34521C66.6769 2.97853 66.9507 2.94083 68.9882 2.99004C70.2419 3.02032 71.3631 3.14055 71.4798 3.25723C71.5965 3.3739 72.4676 3.46937 73.4157 3.46937C75.344 3.46937 76.534 3.82139 78.7809 5.05643L80.1712 5.82063H84.0039C87.5743 5.82063 87.8517 5.84891 88.0578 6.23408C88.1795 6.46148 88.2791 6.70195 88.2791 6.76846C88.2791 6.83497 86.0908 6.88727 83.4162 6.88469L78.5534 6.87996L76.8468 5.81589L75.1402 4.75183H72.7697H70.3993L70.1749 3.95027L69.9505 3.1487L69.9234 4.16402L69.8964 5.17934L72.6218 5.17987L75.3471 5.18041L76.9502 6.24809L78.5534 7.31577L83.5298 7.3163C88.8132 7.31688 88.9852 7.28253 88.6087 6.30152C88.3971 5.75006 88.4339 5.71935 89.2234 5.78738C89.6208 5.82161 90.0094 5.74689 90.087 5.62135C90.2667 5.33053 98.1532 5.30653 98.4429 5.59592C98.5679 5.72072 98.6049 8.94817 98.5391 13.9857L98.4322 22.1726L97.0702 22.2369L95.7082 22.3012L95.8534 20.9452C95.9822 19.7423 95.949 19.5442 95.5589 19.1912C95.1589 18.8292 95.1191 18.547 95.1191 16.0721C95.1191 13.3975 95.1283 13.345 95.6594 12.997C96.1992 12.6433 96.1997 12.6397 96.1404 9.71271L96.081 6.78247L95.3671 6.71406C94.743 6.65426 94.6699 6.69812 94.7857 7.06281C94.8713 7.33263 94.8025 7.5243 94.5911 7.60546C94.3239 7.70799 94.2641 8.17936 94.2641 10.1832C94.2641 11.7703 94.349 12.6879 94.5047 12.7841C94.6715 12.8872 94.695 13.367 94.5812 14.3465C94.4509 15.4675 94.3 19.1138 94.2683 21.9054C94.2645 22.2447 93.9686 22.2794 91.0846 22.2794H87.905L87.7714 21.6115ZM93.7934 20.1954L93.857 18.8595H93.1484C92.6123 18.8595 92.1677 19.0975 91.3214 19.8379C90.6847 20.3948 90.2028 20.9971 90.2028 21.2359C90.2028 21.624 90.3354 21.6508 91.9663 21.5934L93.7297 21.5314L93.7934 20.1954ZM90.6303 21.1416C90.6303 20.7996 92.706 19.0732 93.1172 19.0732C93.3285 19.0732 93.4091 19.3979 93.4091 20.2488V21.4245H92.0197C91.0097 21.4245 90.6303 21.3472 90.6303 21.1416ZM93.7881 12.821C93.8448 9.13574 93.834 9.0269 93.414 9.0269C93.1241 9.0269 92.9816 8.88602 92.9816 8.5994C92.9816 8.36427 92.8404 8.17189 92.6678 8.17189C92.1479 8.17189 92.6329 9.12273 93.1954 9.20604C93.6708 9.27645 93.6798 9.32303 93.5475 11.0229C93.4727 11.9825 93.4111 13.5611 93.4104 14.531C93.4088 16.2178 93.3882 16.2943 92.9281 16.2912C92.5907 16.2888 92.0486 15.803 91.1113 14.6628L89.7753 13.0377V10.7117C89.7753 8.52815 89.8015 8.38565 90.2028 8.38565C90.4878 8.38565 90.6303 8.52815 90.6303 8.81315C90.6303 9.15922 90.7728 9.24065 91.3784 9.24065C92.034 9.24065 92.1266 9.17449 92.1266 8.70627C92.1266 8.41236 92.0304 8.17189 91.9128 8.17189C91.7953 8.17189 91.6991 8.36427 91.6991 8.5994C91.6991 8.84806 91.5566 9.0269 91.3584 9.0269C91.1711 9.0269 90.9675 8.83452 90.906 8.5994C90.822 8.27816 90.6144 8.17189 90.071 8.17189H89.3478L89.3478 10.6835L89.3478 13.195L90.8601 14.9708C92.2321 16.582 92.4353 16.7405 93.051 16.6809L93.7297 16.6151L93.7881 12.821ZM88.9203 9.44179C88.9203 8.3478 88.8424 7.76737 88.7066 7.85127C88.589 7.92393 88.4928 8.69911 88.4928 9.57389C88.4928 10.4917 88.5832 11.1644 88.7066 11.1644C88.8314 11.1644 88.9203 10.4477 88.9203 9.44179ZM74.1137 7.8026C74.0674 7.35911 74.0288 7.66958 74.0279 8.49252C74.0271 9.31546 74.0648 9.67831 74.112 9.29885C74.1592 8.9194 74.1601 8.24608 74.1137 7.8026ZM98.7529 20.0057C98.7529 18.7082 98.8165 14.8848 98.8944 11.5095C99.0342 5.44669 99.0413 5.37325 99.4822 5.43624C99.8886 5.4943 99.9341 5.66137 99.9912 7.30362C100.026 8.29561 99.9554 9.35368 99.8348 9.65488C99.7143 9.95609 99.5221 12.8385 99.4077 16.0603C99.2833 19.5646 99.11 22.0078 98.9763 22.1415C98.8209 22.297 98.7529 21.6469 98.7529 20.0057ZM85.2865 19.3938C85.2865 19.1313 85.6547 19.0732 87.3172 19.0732C88.9797 19.0732 89.3478 19.1313 89.3478 19.3938C89.3478 19.6563 88.9797 19.7145 87.3172 19.7145C85.6547 19.7145 85.2865 19.6563 85.2865 19.3938ZM90.1247 19.3916C90.0501 19.1973 89.9891 18.7661 89.9891 18.4336C89.9891 18.0053 89.577 17.3245 88.5765 16.0998L87.1639 14.3707H85.2633H83.3628V13.6226V12.8744L85.5537 12.8842L87.7447 12.894L89.8288 15.241C90.975 16.5319 91.9128 17.7103 91.9128 17.8598C91.9128 18.0092 91.541 18.4945 91.0866 18.9383C90.4 19.6087 90.2374 19.6853 90.1247 19.3916ZM61.9877 15.6532C61.4496 15.1152 61.4473 14.7528 61.979 14.2716C62.9419 13.4002 64.2407 14.6989 63.3692 15.6618C62.8881 16.1935 62.5257 16.1913 61.9877 15.6532ZM66.2478 15.7422C65.8681 15.2846 66.2501 14.6913 66.9243 14.6913C67.5059 14.6913 67.7254 15.2854 67.3229 15.7704C66.9877 16.1743 66.5979 16.1641 66.2478 15.7422ZM53.6514 13.4088V11.8057H54.5064H55.3614V13.4088V15.0119H54.5064H53.6514V13.4088ZM1.78019 14.6325C1.64255 14.5449 1.46923 14.1857 1.39503 13.8342L1.26011 13.195L1.59866 13.7829L1.93721 14.3707H4.60227C6.23648 14.3707 7.26734 14.4534 7.26734 14.5844C7.26734 14.834 2.16727 14.8787 1.78019 14.6325ZM7.29206 13.9916C7.0439 13.5052 6.92481 12.9538 6.992 12.6023C7.09688 12.0536 7.17094 12.0194 8.25414 12.0194C8.88703 12.0194 9.40485 11.9232 9.40485 11.8057C9.40485 11.6696 11.1149 11.5919 14.1074 11.5919C17.0999 11.5919 18.8099 11.6696 18.8099 11.8057C18.8099 11.9244 19.3799 12.0194 20.0924 12.0194C20.8378 12.0194 21.3749 11.9263 21.3749 11.7971C21.3749 11.5601 23.107 9.83275 23.2257 9.95139C23.2643 9.99006 23.008 10.3442 22.6561 10.7384C22.2178 11.2293 22.0162 11.6788 22.0162 12.1648V12.8744H14.5534H7.09071L7.46004 13.6337L7.82937 14.393L14.9069 14.3765C19.5267 14.3658 22.0314 14.4361 22.1198 14.5791C22.2112 14.7271 19.8931 14.7982 14.9793 14.7982H7.70353L7.29206 13.9916ZM22.3681 14.1532C22.1077 12.851 22.4456 11.5395 23.2621 10.6835C23.6826 10.2426 24.1222 9.8819 24.239 9.8819C24.3558 9.8819 24.1439 10.1991 23.7681 10.5868C22.7482 11.6391 22.8472 12.0194 24.1411 12.0194C24.7219 12.0194 25.2567 11.9232 25.3293 11.8057C25.4109 11.6737 27.2553 11.5919 30.1513 11.5919C33.1354 11.5919 34.8412 11.6697 34.8412 11.8057C34.8412 11.9244 35.4113 12.0194 36.1238 12.0194C37.2173 12.0194 37.4063 11.9626 37.4063 11.6338C37.4063 11.2438 38.6526 9.8819 39.0095 9.8819C39.1159 9.8819 38.8641 10.2426 38.4498 10.6835C37.8936 11.2755 37.7006 11.6666 37.7118 12.1797L37.7269 12.8744H30.0709H22.4149L22.562 13.3554C22.8888 14.4236 22.5641 14.3791 30.4012 14.4298L37.8011 14.4776L37.9456 13.0386C38.0772 11.7288 38.1673 11.5225 38.949 10.7408C39.4213 10.2684 39.9116 9.88191 40.0384 9.88191C40.1652 9.88191 39.9487 10.2122 39.5574 10.616C38.5917 11.6124 38.7717 12.0194 40.1783 12.0194C40.7698 12.0194 41.2538 11.9232 41.2538 11.8057C41.2538 11.6696 42.9638 11.5919 45.9563 11.5919C48.9488 11.5919 50.6588 11.6696 50.6588 11.8057C50.6588 11.9244 51.2288 12.0194 51.9413 12.0194C53.0814 12.0194 53.2239 12.0669 53.2239 12.4469C53.2239 12.8663 53.0814 12.8744 45.7297 12.8744H38.2355L38.3018 13.6346L38.3682 14.3947L45.796 14.3776C50.7332 14.3661 53.2239 14.4338 53.2239 14.5793C53.2239 14.7266 48.2015 14.7982 37.8605 14.7982H22.4971L22.3681 14.1532ZM1.19829 12.5363C1.12693 12.3504 1.06855 12.158 1.06855 12.1088C1.06855 12.0596 2.31899 12.0194 3.84731 12.0194C6.48358 12.0194 6.62608 12.0413 6.62608 12.4469C6.62608 12.8514 6.48358 12.8744 3.97706 12.8744C1.75868 12.8744 1.30695 12.8194 1.19829 12.5363ZM63.0391 12.0729C63.0295 11.9847 63.0055 11.5278 62.9856 11.0575L62.9495 10.2025H61.0258C59.1935 10.2025 59.0988 10.2254 59.0337 10.6835C58.9704 11.1294 58.8575 11.1644 57.484 11.1644H56.0026V8.92002V6.67563H57.8195H59.6364V7.63752V8.5994H61.3622H63.0881L63.0278 7.4772L62.9675 6.35501L64.3284 6.29049C65.2724 6.24574 65.7435 6.31123 65.8659 6.50424C66.0689 6.82435 66.114 11.3873 65.9192 11.8951C65.8196 12.1546 65.4718 12.2332 64.4229 12.2332C63.6713 12.2332 63.0486 12.161 63.0391 12.0729ZM66.6902 10.2109V8.17189H68.622H70.5537L70.4923 10.1491L70.4308 12.1263L68.5605 12.1881L66.6902 12.2498L66.6902 10.2109ZM71.1789 9.34752C71.1789 7.56627 71.2607 6.46188 71.3927 6.46188C71.5247 6.46188 71.6065 7.56627 71.6065 9.34752C71.6065 11.1288 71.5246 12.2332 71.3927 12.2332C71.2607 12.2332 71.1789 11.1288 71.1789 9.34752ZM1.14977 11.2815C0.898887 10.6277 1.31113 10.5232 4.1397 10.5232C6.29902 10.5232 7.07045 10.4486 7.38679 10.2093C7.615 10.0367 7.98956 9.89244 8.21916 9.8887C8.5614 9.88313 8.4862 10.0359 7.80171 10.7369L6.96682 11.5919H4.11785C1.82438 11.5919 1.24566 11.5314 1.14977 11.2815ZM8.44297 10.7369C8.90216 10.2667 9.37404 9.8819 9.49161 9.8819C9.60917 9.8819 9.32966 10.2667 8.87047 10.7369C8.41128 11.2072 7.93939 11.5919 7.82183 11.5919C7.70427 11.5919 7.98378 11.2072 8.44297 10.7369ZM9.40485 10.8017C9.81632 10.3157 10.2306 9.90996 10.3254 9.9C10.6083 9.87033 9.95659 10.6853 9.28335 11.2032C8.68976 11.6598 8.69617 11.6387 9.40485 10.8017ZM20.3064 10.8461C20.7178 10.3772 21.0783 9.95236 21.1077 9.90208C21.1371 9.8518 21.2075 9.85698 21.2641 9.91361C21.3207 9.97023 20.9602 10.3951 20.4628 10.8577L19.5586 11.6988L20.3064 10.8461ZM21.268 10.7369C21.7272 10.2667 22.1991 9.88191 22.3167 9.88191C22.4342 9.88191 22.1547 10.2667 21.6955 10.7369C21.2364 11.2072 20.7645 11.5919 20.6469 11.5919C20.5293 11.5919 20.8089 11.2072 21.268 10.7369ZM24.1823 10.755C24.578 10.2947 25.0416 9.90996 25.2124 9.90001C25.3859 9.88993 25.1546 10.2592 24.6881 10.7369C23.6145 11.8363 23.2413 11.8497 24.1823 10.755ZM24.5812 11.4287C24.5812 11.1704 26.049 9.78225 26.1818 9.91501C26.2427 9.97593 25.9075 10.382 25.4369 10.8175C24.9662 11.2529 24.5812 11.528 24.5812 11.4287ZM35.4825 11.4635C35.4825 11.1865 36.9381 9.77004 37.0785 9.91041C37.1369 9.9688 36.8017 10.3905 36.3336 10.8476C35.8655 11.3047 35.4825 11.5818 35.4825 11.4635ZM37.0074 10.755C37.4031 10.2947 37.8666 9.90996 38.0375 9.90001C38.211 9.88992 37.9797 10.2592 37.5131 10.7369C36.4396 11.8363 36.0663 11.8497 37.0074 10.755ZM39.33 11.4635C39.33 11.1865 40.7857 9.77004 40.926 9.91041C40.9844 9.9688 40.6492 10.3905 40.1811 10.8476C39.713 11.3047 39.33 11.5818 39.33 11.4635ZM40.9332 10.7369C41.3923 10.2667 41.8642 9.88191 41.9818 9.88191C42.0994 9.88191 41.8199 10.2667 41.3607 10.7369C40.9015 11.2072 40.4296 11.5919 40.312 11.5919C40.1945 11.5919 40.474 11.2072 40.9332 10.7369ZM51.7562 10.755C52.152 10.2947 52.6155 9.90996 52.7863 9.90001C52.9598 9.88993 52.7285 10.2592 52.262 10.7369C51.1884 11.8363 50.8152 11.8497 51.7562 10.755ZM52.1551 11.4461C52.1551 11.3352 52.4334 10.9778 52.7736 10.6519C53.3061 10.1416 53.3765 9.94308 53.2798 9.22249L53.1676 8.38566H54.1576H55.1476V9.88191V11.3782L54.4529 11.3805C54.0708 11.3817 53.3975 11.4425 52.9567 11.5153C52.503 11.5903 52.1551 11.5603 52.1551 11.4461ZM10.5805 10.5232C10.9184 10.1705 11.291 9.8819 11.4086 9.8819C11.5262 9.8819 11.3459 10.1705 11.008 10.5232C10.6701 10.8758 10.2974 11.1644 10.1799 11.1644C10.0623 11.1644 10.2426 10.8758 10.5805 10.5232ZM11.5795 10.535C11.853 10.1888 12.215 9.90024 12.3839 9.89373C12.5774 9.88627 12.4637 10.1193 12.0767 10.5232C11.2864 11.3481 10.9306 11.3565 11.5795 10.535ZM12.5042 10.5232C12.8421 10.1705 13.2148 9.8819 13.3324 9.8819C13.4499 9.8819 13.2696 10.1705 12.9317 10.5232C12.5938 10.8758 12.2212 11.1644 12.1036 11.1644C11.9861 11.1644 12.1663 10.8758 12.5042 10.5232ZM13.7171 10.535C13.9905 10.1888 14.3525 9.90024 14.5214 9.89373C14.7149 9.88627 14.6012 10.1193 14.2142 10.5232C13.424 11.3481 13.0681 11.3565 13.7171 10.535ZM14.6418 10.5232C14.9797 10.1705 15.3523 9.8819 15.4699 9.8819C15.5874 9.8819 15.4072 10.1705 15.0693 10.5232C14.7314 10.8758 14.3587 11.1644 14.2411 11.1644C14.1236 11.1644 14.3038 10.8758 14.6418 10.5232ZM15.6408 10.535C15.9143 10.1888 16.2762 9.90024 16.4452 9.89373C16.6387 9.88627 16.5249 10.1193 16.138 10.5232C15.3477 11.3481 14.9919 11.3565 15.6408 10.535ZM16.2449 11.0279C16.2449 10.7529 17.2764 9.77338 17.4174 9.91446C17.4755 9.97248 17.2354 10.2954 16.8839 10.6322C16.5324 10.9689 16.2449 11.147 16.2449 11.0279ZM17.6343 10.5232C17.9722 10.1705 18.3448 9.8819 18.4624 9.8819C18.5799 9.8819 18.3997 10.1705 18.0618 10.5232C17.7239 10.8758 17.3512 11.1644 17.2337 11.1644C17.1161 11.1644 17.2964 10.8758 17.6343 10.5232ZM18.6299 10.5232C18.8907 10.1705 19.2001 9.8819 19.3176 9.8819C19.435 9.8819 19.2547 10.1705 18.9168 10.5232C18.5789 10.8758 18.2694 11.1644 18.2291 11.1644C18.1888 11.1644 18.3692 10.8758 18.6299 10.5232ZM19.558 10.5232C19.8959 10.1705 20.2686 9.8819 20.3861 9.8819C20.5037 9.8819 20.3234 10.1705 19.9855 10.5232C19.6476 10.8758 19.275 11.1644 19.1574 11.1644C19.0399 11.1644 19.2201 10.8758 19.558 10.5232ZM26.3284 10.535C26.6018 10.1888 26.9638 9.90024 27.1328 9.89373C27.3262 9.88628 27.2125 10.1193 26.8256 10.5232C26.0353 11.3481 25.6794 11.3565 26.3284 10.535ZM26.9324 11.0279C26.9324 10.7529 27.9639 9.77338 28.105 9.91446C28.163 9.97248 27.9229 10.2954 27.5715 10.6322C27.22 10.9689 26.9324 11.147 26.9324 11.0279ZM28.3934 10.6676C28.6501 10.3944 28.7951 10.1058 28.7157 10.0264C28.6362 9.94691 28.7976 9.88191 29.0743 9.88191H29.5774L28.9631 10.5232C28.6252 10.8759 28.2538 11.1644 28.1377 11.1644C28.0216 11.1644 28.1367 10.9409 28.3934 10.6676ZM29.07 11.0279C29.07 10.7529 30.1014 9.77338 30.2425 9.91446C30.3005 9.97248 30.0604 10.2954 29.709 10.6322C29.3575 10.9689 29.07 11.147 29.07 11.0279ZM30.4593 10.5232C30.7972 10.1705 31.1699 9.88191 31.2875 9.88191C31.405 9.88191 31.2248 10.1705 30.8868 10.5232C30.549 10.8759 30.1763 11.1644 30.0587 11.1644C29.9412 11.1644 30.1214 10.8759 30.4593 10.5232ZM31.422 10.63C31.7155 10.2773 31.9797 9.9487 32.009 9.89972C32.0384 9.85073 32.1096 9.85775 32.1671 9.91531C32.2247 9.97286 31.9605 10.3015 31.5801 10.6456L30.8884 11.2713L31.422 10.63ZM32.3831 10.5232C32.721 10.1705 33.0937 9.88191 33.2112 9.88191C33.3288 9.88191 33.1485 10.1705 32.8106 10.5232C32.4727 10.8759 32.1001 11.1644 31.9825 11.1644C31.8649 11.1644 32.0452 10.8759 32.3831 10.5232ZM33.3458 10.63C33.6392 10.2773 33.9034 9.9487 33.9328 9.89972C33.9622 9.85073 34.0333 9.85775 34.0909 9.91531C34.1484 9.97286 33.8843 10.3015 33.5038 10.6456L32.8122 11.2713L33.3458 10.63ZM34.3069 10.5232C34.6448 10.1705 35.0174 9.88191 35.135 9.88191C35.2525 9.88191 35.0723 10.1705 34.7344 10.5232C34.3965 10.8759 34.0238 11.1644 33.9063 11.1644C33.7887 11.1644 33.969 10.8759 34.3069 10.5232ZM35.3065 10.5343C35.5796 10.1885 35.8775 9.90024 35.9684 9.89373C36.2366 9.87453 35.4864 10.9034 35.1334 11.0389C34.9225 11.1198 34.9827 10.9442 35.3065 10.5343ZM42.1096 10.63C42.403 10.2773 42.6672 9.9487 42.6966 9.89972C42.726 9.85074 42.7971 9.85775 42.8547 9.9153C42.9122 9.97285 42.6481 10.3015 42.2677 10.6456L41.576 11.2713L42.1096 10.63ZM43.0707 10.5232C43.4086 10.1705 43.7812 9.88191 43.8988 9.88191C44.0163 9.88191 43.8361 10.1705 43.4982 10.5232C43.1603 10.8758 42.7876 11.1644 42.6701 11.1644C42.5525 11.1644 42.7328 10.8758 43.0707 10.5232ZM44.0333 10.63C44.3268 10.2773 44.591 9.9487 44.6204 9.89972C44.6498 9.85073 44.7209 9.85775 44.7785 9.91531C44.836 9.97286 44.5718 10.3015 44.1914 10.6456L43.4997 11.2713L44.0333 10.63ZM44.9944 10.5232C45.3323 10.1705 45.705 9.88191 45.8225 9.88191C45.9401 9.88191 45.7598 10.1705 45.4219 10.5232C45.084 10.8758 44.7114 11.1644 44.5938 11.1644C44.4763 11.1644 44.6565 10.8758 44.9944 10.5232ZM45.9941 10.5343C46.2672 10.1885 46.565 9.90023 46.6559 9.89373C46.9242 9.87453 46.174 10.9034 45.8209 11.0389C45.61 11.1198 45.6703 10.9442 45.9941 10.5343ZM46.9182 10.5232C47.2561 10.1705 47.6287 9.88191 47.7463 9.88191C47.8639 9.88191 47.6836 10.1705 47.3457 10.5232C47.0078 10.8758 46.6351 11.1644 46.5176 11.1644C46.4 11.1644 46.5803 10.8758 46.9182 10.5232ZM48.0585 10.6676C48.3152 10.3944 48.4602 10.1058 48.3808 10.0264C48.3013 9.94691 48.4032 9.88191 48.6071 9.88191C48.94 9.88191 48.9312 9.94756 48.5213 10.5232C48.2702 10.8758 47.9583 11.1644 47.8283 11.1644C47.6982 11.1644 47.8018 10.9409 48.0585 10.6676ZM49.0557 10.5232C49.3936 10.1705 49.7663 9.88191 49.8838 9.88191C50.0014 9.88191 49.8211 10.1705 49.4832 10.5232C49.1453 10.8758 48.7727 11.1644 48.6551 11.1644C48.5375 11.1644 48.7178 10.8758 49.0557 10.5232ZM50.0548 10.535C50.3282 10.1888 50.6902 9.90024 50.8591 9.89373C51.0526 9.88628 50.9389 10.1193 50.552 10.5232C49.7617 11.3481 49.4058 11.3565 50.0548 10.535ZM50.9795 10.5232C51.3174 10.1705 51.69 9.88191 51.8076 9.88191C51.9251 9.88191 51.7449 10.1705 51.407 10.5232C51.0691 10.8758 50.6964 11.1644 50.5789 11.1644C50.4613 11.1644 50.6416 10.8758 50.9795 10.5232ZM0.365918 10.3289C0.000120625 9.70962 -0.115423 8.50711 0.129537 7.86875C0.292984 7.44281 0.982953 7.42677 1.14351 7.84517C1.24002 8.09669 1.8514 8.17164 4.19481 8.21924L7.12542 8.27876L7.32519 8.87894C7.48159 9.34885 7.4434 9.56924 7.14927 9.89426C6.81319 10.2656 6.47389 10.3094 3.93168 10.3094C1.63174 10.3094 1.05568 10.3703 0.910918 10.629C0.766951 10.8863 0.660593 10.8277 0.365918 10.3289ZM9.72547 9.24065C9.37897 8.68 10.0465 8.5994 15.0361 8.5994C20.0721 8.5994 20.2146 8.61116 20.2146 9.0269C20.2146 9.44264 20.0721 9.4544 15.0361 9.4544C11.8143 9.4544 9.80766 9.37363 9.72547 9.24065ZM25.0087 9.0269C25.0087 8.61103 25.1512 8.5994 30.2456 8.5994C35.34 8.5994 35.4825 8.61103 35.4825 9.0269C35.4825 9.44277 35.34 9.4544 30.2456 9.4544C25.1512 9.4544 25.0087 9.44277 25.0087 9.0269ZM40.185 9.0269C40.185 8.61103 40.3275 8.5994 45.4219 8.5994C50.5163 8.5994 50.6588 8.61103 50.6588 9.0269C50.6588 9.44277 50.5163 9.4544 45.4219 9.4544C40.3275 9.4544 40.185 9.44277 40.185 9.0269ZM36.0837 8.66713C36.238 8.60538 36.4223 8.61298 36.4934 8.684C36.5644 8.75504 36.4381 8.80555 36.2128 8.79627C35.9638 8.78597 35.9132 8.73536 36.0837 8.66713ZM38.6487 8.66713C38.803 8.60538 38.9874 8.61298 39.0584 8.684C39.1294 8.75504 39.0032 8.80555 38.7778 8.79627C38.5288 8.78597 38.4782 8.73536 38.6487 8.66713ZM7.57236 7.85586C7.34581 7.68446 7.25665 7.54265 7.37421 7.54071C7.69183 7.53546 8.23472 7.91702 8.10055 8.05119C8.03658 8.11515 7.7989 8.02725 7.57236 7.85586ZM8.55413 7.85643C8.38553 7.65329 8.36932 7.53064 8.51105 7.53064C8.76938 7.53064 9.07056 7.93617 8.92233 8.0844C8.86853 8.1382 8.70284 8.03562 8.55413 7.85643ZM9.49612 7.85586C9.13448 7.58226 9.12832 7.54341 9.44567 7.53744C9.64446 7.53376 9.87052 7.63323 9.94801 7.75861C10.1809 8.13537 9.9354 8.18819 9.49612 7.85586ZM10.4779 7.85643C10.3093 7.65329 10.2931 7.53064 10.4348 7.53064C10.6931 7.53064 10.9943 7.93617 10.8461 8.0844C10.7923 8.1382 10.6266 8.03562 10.4779 7.85643ZM11.4199 7.85586C11.0582 7.58226 11.0521 7.54341 11.3694 7.53744C11.5682 7.53376 11.7943 7.63323 11.8718 7.75861C12.1046 8.13537 11.8592 8.18819 11.4199 7.85586ZM13.3715 7.8338C13.0248 7.58027 13.014 7.53065 13.3058 7.53065C13.4977 7.53065 13.718 7.63324 13.7955 7.75862C14.0221 8.1252 13.8192 8.16117 13.3715 7.8338ZM15.2953 7.8338C14.9485 7.58027 14.9378 7.53065 15.2295 7.53065C15.4214 7.53065 15.6418 7.63324 15.7193 7.75862C15.9459 8.1252 15.743 8.16117 15.2953 7.8338ZM17.3179 7.85644C17.1493 7.6533 17.1331 7.53065 17.2749 7.53065C17.5332 7.53065 17.8344 7.93618 17.6861 8.08442C17.6323 8.13821 17.4666 8.03563 17.3179 7.85644ZM19.4554 7.85644C19.2868 7.6533 19.2706 7.53065 19.4124 7.53065C19.6707 7.53065 19.9719 7.93618 19.8236 8.08442C19.7698 8.13821 19.6042 8.03563 19.4554 7.85644ZM20.3974 7.85587C20.1709 7.68447 20.0817 7.54266 20.1993 7.54072C20.5169 7.53547 21.0598 7.91702 20.9256 8.05119C20.8617 8.11516 20.624 8.02726 20.3974 7.85587ZM21.3792 7.85644C21.2106 7.6533 21.1944 7.53065 21.3361 7.53065C21.5945 7.53065 21.8956 7.93618 21.7474 8.08442C21.6936 8.13821 21.5279 8.03563 21.3792 7.85644ZM22.3212 7.85587C21.9596 7.58227 21.9534 7.54342 22.2707 7.53745C22.4695 7.53377 22.6956 7.63324 22.7731 7.75862C23.0059 8.13538 22.7605 8.1882 22.3212 7.85587ZM23.303 7.85644C23.1344 7.6533 23.1182 7.53065 23.2599 7.53065C23.5182 7.53065 23.8194 7.93618 23.6712 8.08442C23.6174 8.13821 23.4517 8.03563 23.303 7.85644ZM24.245 7.85587C23.8833 7.58227 23.8772 7.54342 24.1945 7.53745C24.3933 7.53377 24.6194 7.63324 24.6968 7.75862C24.9297 8.13538 24.6842 8.1882 24.245 7.85587ZM26.1966 7.83381C25.8498 7.58028 25.8391 7.53066 26.1308 7.53066C26.3227 7.53066 26.5431 7.63325 26.6206 7.75863C26.8472 8.12522 26.6443 8.16118 26.1966 7.83381ZM28.1203 7.83381C27.7736 7.58028 27.7629 7.53066 28.0546 7.53066C28.2465 7.53066 28.4669 7.63325 28.5444 7.75863C28.7709 8.12522 28.568 8.16118 28.1203 7.83381ZM30.143 7.85645C29.9744 7.65331 29.9582 7.53067 30.0999 7.53067C30.3583 7.53067 30.6594 7.93619 30.5112 8.08443C30.4574 8.13822 30.2917 8.03564 30.143 7.85645ZM31.085 7.85588C30.8585 7.68449 30.7693 7.54267 30.8868 7.54073C31.2045 7.53548 31.7474 7.91704 31.6132 8.05121C31.5492 8.11517 31.3115 8.02727 31.085 7.85588ZM32.0668 7.85645C31.8982 7.65331 31.882 7.53067 32.0237 7.53067C32.282 7.53067 32.5832 7.93619 32.435 8.08443C32.3812 8.13822 32.2155 8.03564 32.0668 7.85645ZM33.0088 7.85588C32.6471 7.58228 32.641 7.54343 32.9583 7.53746C33.1571 7.53378 33.3832 7.63325 33.4606 7.75863C33.6935 8.13539 33.448 8.18821 33.0088 7.85588ZM33.9905 7.85645C33.8219 7.65331 33.8057 7.53067 33.9474 7.53067C34.2058 7.53067 34.507 7.93619 34.3587 8.08443C34.3049 8.13822 34.1392 8.03564 33.9905 7.85645ZM34.9325 7.85588C34.5709 7.58228 34.5647 7.54343 34.8821 7.53746C35.0809 7.53378 35.3069 7.63325 35.3844 7.75863C35.6173 8.13539 35.3718 8.18821 34.9325 7.85588ZM36.8841 7.83382C36.5374 7.58029 36.5266 7.53067 36.8184 7.53067C37.0103 7.53067 37.2307 7.63326 37.3082 7.75864C37.5347 8.12523 37.3318 8.16119 36.8841 7.83382ZM38.8079 7.83382C38.4612 7.58029 38.4504 7.53067 38.7422 7.53067C38.9341 7.53067 39.1544 7.63326 39.2319 7.75864C39.4585 8.12523 39.2556 8.16119 38.8079 7.83382ZM40.9454 7.83382C40.5987 7.58029 40.5879 7.53067 40.8797 7.53067C41.0716 7.53067 41.292 7.63326 41.3694 7.75864C41.596 8.12523 41.3931 8.16119 40.9454 7.83382ZM42.9681 7.85647C42.7995 7.65333 42.7833 7.53068 42.925 7.53068C43.1833 7.53068 43.4845 7.93621 43.3363 8.08444C43.2825 8.13824 43.1168 8.03566 42.9681 7.85647ZM45.1056 7.85647C44.937 7.65333 44.9208 7.53068 45.0625 7.53068C45.3208 7.53068 45.622 7.93621 45.4738 8.08444C45.42 8.13824 45.2543 8.03566 45.1056 7.85647ZM46.0476 7.85589C45.821 7.6845 45.7319 7.54269 45.8494 7.54075C46.1671 7.5355 46.7099 7.91705 46.5758 8.05122C46.5118 8.11519 46.2741 8.02728 46.0476 7.85589ZM47.0294 7.85647C46.8608 7.65333 46.8445 7.53068 46.9863 7.53068C47.2446 7.53068 47.5458 7.93621 47.3976 8.08444C47.3438 8.13824 47.1781 8.03566 47.0294 7.85647ZM47.9713 7.85589C47.6097 7.58228 47.6035 7.54342 47.9209 7.53745C48.1197 7.53378 48.3457 7.63325 48.4232 7.75863C48.6561 8.13538 48.4106 8.18822 47.9713 7.85589ZM48.9531 7.85647C48.7845 7.65333 48.7683 7.53068 48.91 7.53068C49.1684 7.53068 49.4695 7.93621 49.3213 8.08444C49.2675 8.13824 49.1018 8.03566 48.9531 7.85647ZM49.8951 7.85589C49.5335 7.5823 49.5273 7.54344 49.8447 7.53747C50.0434 7.5338 50.2695 7.63327 50.347 7.75865C50.5798 8.1354 50.3344 8.18823 49.8951 7.85589ZM51.8467 7.83383C51.5 7.58031 51.4892 7.53069 51.781 7.53069C51.9729 7.53069 52.1933 7.63328 52.2708 7.75866C52.4973 8.12524 52.2944 8.16121 51.8467 7.83383ZM53.7925 7.78235C53.2551 7.18852 53.3448 7.10318 54.5064 7.10318C55.4326 7.10318 55.5751 7.16018 55.5751 7.53068C55.5751 7.8456 55.4326 7.95819 55.034 7.95819C54.7364 7.95819 54.4376 7.8139 54.3699 7.63756C54.3022 7.4612 54.1492 7.31691 54.0298 7.31691C53.9062 7.31691 53.9292 7.45722 54.0832 7.64271C54.4774 8.11775 54.2117 8.24545 53.7925 7.78235ZM1.49605 7.63752C1.34267 7.45271 1.3219 7.31689 1.44701 7.31689C1.56639 7.31689 1.71943 7.46117 1.7871 7.63752C1.85477 7.81386 1.87684 7.95814 1.83615 7.95814C1.79545 7.95814 1.6424 7.81387 1.49605 7.63752ZM12.2905 7.74439C12.2178 7.62683 12.2546 7.53064 12.3721 7.53064C12.4897 7.53064 12.6453 7.62683 12.718 7.74439C12.7906 7.86195 12.7539 7.95814 12.6363 7.95814C12.5188 7.95814 12.3631 7.86196 12.2905 7.74439ZM14.2142 7.74439C14.1416 7.62683 14.1783 7.53064 14.2959 7.53064C14.4135 7.53064 14.5691 7.62683 14.6418 7.74439C14.7144 7.86195 14.6777 7.95814 14.5601 7.95814C14.4425 7.95814 14.2869 7.86196 14.2142 7.74439ZM16.138 7.74439C16.0653 7.62683 16.1021 7.53064 16.2197 7.53064C16.3372 7.53064 16.4929 7.62683 16.5655 7.74439C16.6382 7.86195 16.6014 7.95814 16.4839 7.95814C16.3663 7.95814 16.2107 7.86196 16.138 7.74439ZM18.2755 7.74439C18.2029 7.62683 18.2396 7.53064 18.3572 7.53064C18.4747 7.53064 18.6304 7.62683 18.703 7.74439C18.7757 7.86195 18.7389 7.95814 18.6214 7.95814C18.5038 7.95814 18.3482 7.86196 18.2755 7.74439ZM25.1156 7.74439C25.0429 7.62683 25.0796 7.53064 25.1972 7.53064C25.3148 7.53064 25.4704 7.62683 25.5431 7.74439C25.6157 7.86195 25.579 7.95814 25.4614 7.95814C25.3439 7.95814 25.1882 7.86196 25.1156 7.74439ZM27.0393 7.74439C26.9667 7.62683 27.0034 7.53064 27.121 7.53064C27.2385 7.53064 27.3942 7.62683 27.4668 7.74439C27.5395 7.86195 27.5027 7.95814 27.3852 7.95814C27.2676 7.95814 27.112 7.86196 27.0393 7.74439ZM28.9631 7.74439C28.8904 7.62683 28.9272 7.53064 29.0447 7.53064C29.1623 7.53064 29.3179 7.62683 29.3906 7.74439C29.4632 7.86195 29.4265 7.95814 29.3089 7.95814C29.1914 7.95814 29.0357 7.86196 28.9631 7.74439ZM35.8031 7.74439C35.7305 7.62683 35.7672 7.53064 35.8848 7.53064C36.0023 7.53064 36.158 7.62683 36.2306 7.74439C36.3033 7.86195 36.2665 7.95814 36.149 7.95814C36.0314 7.95814 35.8758 7.86196 35.8031 7.74439ZM37.7269 7.74439C37.6542 7.62683 37.691 7.53064 37.8085 7.53064C37.9261 7.53064 38.0817 7.62683 38.1544 7.74439C38.2271 7.86195 38.1903 7.95814 38.0727 7.95814C37.9552 7.95814 37.7995 7.86196 37.7269 7.74439ZM39.8644 7.74439C39.7917 7.62683 39.8285 7.53064 39.946 7.53064C40.0636 7.53064 40.2192 7.62683 40.2919 7.74439C40.3646 7.86195 40.3278 7.95814 40.2103 7.95814C40.0927 7.95814 39.9371 7.86196 39.8644 7.74439ZM41.7882 7.74439C41.7155 7.62683 41.7522 7.53064 41.8698 7.53064C41.9874 7.53064 42.143 7.62683 42.2157 7.74439C42.2883 7.86195 42.2516 7.95814 42.134 7.95814C42.0165 7.95814 41.8608 7.86196 41.7882 7.74439ZM43.9257 7.74439C43.853 7.62683 43.8898 7.53064 44.0073 7.53064C44.1249 7.53064 44.2805 7.62683 44.3532 7.74439C44.4258 7.86195 44.3891 7.95814 44.2715 7.95814C44.154 7.95814 43.9983 7.86196 43.9257 7.74439ZM50.7657 7.74439C50.6931 7.62683 50.7298 7.53064 50.8474 7.53064C50.9649 7.53064 51.1206 7.62683 51.1932 7.74439C51.2659 7.86195 51.2291 7.95814 51.1116 7.95814C50.994 7.95814 50.8384 7.86196 50.7657 7.74439ZM52.6895 7.74439C52.6168 7.62683 52.6536 7.53064 52.7711 7.53064C52.8887 7.53064 53.0443 7.62683 53.117 7.74439C53.1896 7.86195 53.1529 7.95814 53.0353 7.95814C52.9178 7.95814 52.7621 7.86196 52.6895 7.74439ZM1.14585 6.78251C0.821335 5.93685 1.15983 5.82063 3.94748 5.82063H6.62608V6.46188V7.10314H3.94748C1.76369 7.10314 1.24616 7.04391 1.14585 6.78251ZM9.51172 6.88939C9.43906 6.77182 8.85626 6.67563 8.2166 6.67563C7.19609 6.67563 7.05358 6.62326 7.05358 6.24813C7.05358 5.82877 7.19608 5.82063 14.5349 5.82063H22.0162V6.46188C22.0162 6.96064 21.9212 7.10314 21.5887 7.10314C21.3535 7.10314 21.1612 7.00695 21.1612 6.88939C21.1612 6.77064 20.5912 6.67563 19.8787 6.67563C19.1662 6.67563 18.5962 6.77064 18.5962 6.88939C18.5962 7.18002 9.69135 7.18002 9.51172 6.88939ZM22.6743 6.51532L22.6574 5.82063H30.1387H37.62V6.46188C37.62 6.81457 37.5238 7.10314 37.4063 7.10314C37.2887 7.10314 37.1925 7.00695 37.1925 6.88939C37.1925 6.77064 36.6225 6.67563 35.91 6.67563C35.1975 6.67563 34.6275 6.77064 34.6275 6.88939C34.6275 7.02526 32.9531 7.10314 30.0318 7.10314C27.1106 7.10314 25.4362 7.02526 25.4362 6.88939C25.4362 6.56795 22.9298 6.61874 22.799 6.94283C22.7397 7.08978 22.6836 6.89741 22.6743 6.51532ZM38.0475 6.46188V5.82063H45.6357H53.2239V6.46188C53.2239 6.88938 53.117 7.10314 52.9032 7.10314C52.7269 7.10314 52.5826 7.00695 52.5826 6.88938C52.5826 6.77063 52.0126 6.67563 51.3001 6.67563C50.5876 6.67563 50.0176 6.77063 50.0176 6.88938C50.0176 7.0251 48.3788 7.10314 45.5288 7.10314C42.6788 7.10314 41.04 7.0251 41.04 6.88938C41.04 6.77063 40.47 6.67563 39.7575 6.67563C39.045 6.67563 38.475 6.77063 38.475 6.88938C38.475 7.00695 38.3788 7.10314 38.2613 7.10314C38.1437 7.10314 38.0475 6.81457 38.0475 6.46188ZM53.6514 5.0725V3.46937H54.5064H55.3614V5.0725V6.67563H54.5064H53.6514V5.0725ZM1.07147 5.12594C1.07309 4.97899 1.13238 4.64233 1.20327 4.37781C1.32909 3.90834 1.40294 3.89687 4.29975 3.89687C5.93192 3.89687 7.26734 3.93061 7.26734 3.97185C7.26734 4.01309 7.16174 4.34975 7.03267 4.71998L6.79801 5.39313H3.93328C1.78244 5.39313 1.06928 5.32655 1.07147 5.12594ZM7.26734 5.27564C7.26734 5.21102 7.41409 4.87436 7.59345 4.52751L7.91957 3.89687H15.1857H22.4518L22.3113 4.48469C22.234 4.80799 22.1303 5.14464 22.0809 5.23282C21.9789 5.41456 7.26734 5.45708 7.26734 5.27564ZM22.6574 4.98311C22.6574 3.85259 22.3476 3.89687 30.2558 3.89687C34.682 3.89687 37.6448 3.97781 37.7208 4.10079C37.7901 4.21295 37.7854 4.54961 37.7103 4.84892L37.5737 5.39313H30.1155C22.9059 5.39313 22.6574 5.37947 22.6574 4.98311ZM38.0874 4.69844L38.1544 4.00375L44.5669 3.88839C48.0938 3.82494 51.0949 3.85677 51.236 3.95912C51.377 4.06148 51.858 4.11339 52.3047 4.07449C53.0819 4.0068 53.1199 4.0337 53.184 4.69844L53.2509 5.39313H45.6357H38.0204L38.0874 4.69844ZM31.7964 3.14874C31.9059 2.57616 32.0097 2.54942 33.8794 2.61235C34.4672 2.63214 34.9802 2.73687 35.0194 2.8451C35.1106 3.09694 36.1238 3.10424 36.1238 2.85302C36.1238 2.51543 36.9975 2.41454 37.1216 2.7378C37.1857 2.90502 37.4741 3.04184 37.7624 3.04184C38.0506 3.04184 38.2319 2.95357 38.1653 2.8457C38.0974 2.73594 38.716 2.61826 39.5698 2.57851C40.6483 2.52828 41.1254 2.58578 41.1975 2.77465C41.3373 3.14077 41.9036 3.11085 42.1921 2.72208C42.4028 2.43824 42.4982 2.43824 43.0417 2.72208C43.749 3.09149 44.2463 3.13525 44.2463 2.82809C44.2463 2.51525 47.0975 2.55852 47.4152 2.87617C47.6218 3.08279 47.7654 3.08279 48.0963 2.87617C48.3269 2.73216 48.6507 2.61433 48.8159 2.61433C48.9811 2.61433 49.1782 2.36736 49.254 2.0655C49.3863 1.53844 49.4478 1.51871 50.8047 1.5679C52.1724 1.61748 52.2458 1.59315 53.0948 0.809564L53.972 0L56.0769 0.206086C58.05 0.399269 58.3895 0.528495 58.6183 1.17366C58.65 1.26301 59.1085 1.4096 59.6371 1.49941C60.4064 1.63011 60.6119 1.75766 60.6666 2.13852C60.709 2.43405 60.8845 2.61433 61.1297 2.61433C61.3469 2.61433 61.565 2.73457 61.6145 2.88152C61.6848 3.09059 61.7723 3.09272 62.0164 2.89133C62.21 2.73166 62.9322 2.65051 63.9189 2.67758C65.2643 2.71449 65.5207 2.78087 65.5836 3.10852C65.6529 3.47017 65.4902 3.48788 63.1281 3.37571C55.388 3.00818 53.2239 3.00227 53.2239 3.34869C53.2239 3.60252 52.9921 3.68309 52.262 3.68309C51.5495 3.68309 51.3001 3.59997 51.3001 3.36247C51.3001 3.13799 51.0737 3.04184 50.5453 3.04184C50.0715 3.04184 49.7446 3.16122 49.6674 3.36247C49.5607 3.64038 48.3555 3.68309 40.6193 3.68309H31.6943L31.7964 3.14874Z" />
</svg>
