<svg width="100" height="39" viewBox="0 0 100 39"  xmlns="http://www.w3.org/2000/svg">
<path d="M50.8876 37.436C50.8876 37.0723 50.7888 36.5147 50.6679 36.1969C50.4527 35.6307 50.4684 35.619 51.4413 35.619C52.2751 35.619 52.459 35.7003 52.5888 36.1259C52.9171 37.2034 53.3336 37.4213 55.0644 37.4213C56.547 37.4213 56.7259 37.3715 57.0571 36.866C57.2572 36.5606 57.4209 36.1551 57.4209 35.9649C57.4209 35.6923 57.7075 35.619 58.7727 35.619C60.0333 35.619 60.4554 35.8384 59.8795 36.1944C59.7448 36.2776 59.6823 36.5284 59.7407 36.7517C59.8227 37.0653 59.5897 37.2645 58.7165 37.6274C57.7434 38.0318 57.1201 38.0972 54.2369 38.0972H50.8876V37.436ZM49.7612 34.372C49.7612 33.6544 49.8044 33.5987 50.197 33.8088C50.4571 33.948 52.5127 34.042 55.2974 34.042C59.4757 34.042 59.9933 34.0831 60.2613 34.4363C60.4259 34.6531 60.5638 34.9065 60.5678 34.9995C60.5721 35.0924 58.1418 35.1684 55.1681 35.1684H49.7612V34.372ZM50.362 33.4412C50.2794 33.3586 50.2118 32.7666 50.2118 32.1257C50.2118 31.0955 50.2784 30.93 50.7856 30.6989C51.6498 30.3051 51.7555 30.3641 51.8315 31.2822L51.9014 32.1271L54.1543 32.2315L56.4071 32.3358L54.1543 32.4567C52.0321 32.5706 51.8972 32.607 51.8294 33.0845C51.7746 33.4706 51.609 33.5914 51.1348 33.5914C50.7923 33.5914 50.4446 33.5239 50.362 33.4412ZM56.7451 31.0368C56.7451 28.5305 56.7557 28.4773 57.3083 28.2256L57.8715 27.9689V30.7802V33.5914H57.3083H56.7451V31.0368ZM58.3221 30.6784C58.3221 29.0405 58.4139 27.734 58.5289 27.734C58.6427 27.734 58.8992 27.6713 59.0989 27.5947C59.4235 27.4701 59.4553 27.7744 59.3989 30.4671C59.3376 33.3969 59.3221 33.4807 58.829 33.5508C58.3255 33.6223 58.3221 33.603 58.3221 30.6784ZM52.0141 33.1409C52.0141 33.0074 52.8401 32.9156 54.0417 32.9156C55.2432 32.9156 56.0692 33.0074 56.0692 33.1409C56.0692 33.2744 55.2432 33.3661 54.0417 33.3661C52.8401 33.3661 52.0141 33.2744 52.0141 33.1409ZM71.0626 33.0845C70.82 32.2963 71.0902 31.914 72.5527 30.9766C73.7113 30.2339 74.0921 29.8636 74.0921 29.4796C74.0921 28.9432 73.3606 27.425 72.2628 25.683L71.6091 24.6457L69.8888 24.5003C68.9425 24.4203 68.026 24.2367 67.8521 24.0923C67.6781 23.948 66.8567 23.8328 66.0266 23.8364C65.0401 23.8407 64.8545 23.8098 65.4906 23.7472L66.4638 23.6514L66.4067 22.4199C66.3602 21.4159 66.4301 21.1332 66.7853 20.8893C67.5045 20.3955 69.6974 19.6544 70.9191 19.4923C71.9507 19.3555 72.0645 19.3833 72.0645 19.7723C72.0645 20.0099 72.2552 20.5782 72.4881 21.0352C72.8451 21.7353 72.8628 21.9067 72.6008 22.1242C72.1468 22.501 72.1973 22.6434 73.1914 23.792C73.6873 24.3649 74.5046 25.6842 75.0078 26.7237C75.5624 27.8696 76.0945 28.6683 76.3591 28.7523C76.9447 28.9381 76.9388 30.0689 76.349 30.6586C75.9617 31.0458 71.6117 33.3661 71.2729 33.3661C71.2048 33.3661 71.1102 33.2394 71.0626 33.0845ZM76.4201 29.8907C76.6116 29.3917 76.0159 29.0058 75.6796 29.411C75.5286 29.593 75.4704 29.8477 75.5504 29.977C75.7605 30.3169 76.2762 30.2658 76.4201 29.8907ZM70.347 21.5301C70.424 21.3293 70.333 21.1273 70.1307 21.0496C69.71 20.8882 69.2496 21.2886 69.4616 21.6316C69.6827 21.9893 70.1932 21.9308 70.347 21.5301ZM52.2394 31.3386C52.2394 30.6651 52.2437 30.6627 53.5489 30.6627C54.7099 30.6627 54.9319 30.7394 55.506 31.3386L56.1535 32.0144H54.1964H52.2394V31.3386ZM55.2807 30.888C54.7168 30.2993 54.4715 30.2108 53.38 30.2018L52.1267 30.1914L54.1543 29.4149C55.2695 28.9878 56.2072 28.6376 56.2382 28.6367C56.2692 28.6358 56.2945 29.294 56.2945 30.0994C56.2945 30.9048 56.2121 31.5638 56.1113 31.5638C56.0106 31.5638 55.6369 31.2597 55.2807 30.888ZM70.8355 31.057C70.7869 30.9021 70.6266 30.3698 70.4795 29.8742C70.3324 29.3786 69.9698 28.5294 69.6739 27.9872C69.3779 27.445 69.1358 26.9776 69.1358 26.9486C69.1358 26.9196 69.7078 26.8368 70.407 26.7647C71.1061 26.6925 71.7844 26.5272 71.9143 26.3974C72.0789 26.2327 72.3761 26.5837 72.896 27.5567C73.9229 29.4787 73.8829 29.7372 72.4236 30.6101C71.0586 31.4265 70.9603 31.4542 70.8355 31.057ZM47.0049 30.9691C46.9444 30.8626 46.8282 30.4966 46.7467 30.1558C46.6171 29.6138 46.6648 29.5363 47.1277 29.5363C47.5315 29.5363 47.6525 29.6563 47.6389 30.0432C47.6279 30.3515 47.7534 30.5501 47.9589 30.5501C48.1645 30.5501 48.2898 30.3515 48.279 30.0432C48.2691 29.7644 48.3787 29.5363 48.5225 29.5363C48.6663 29.5363 49.5107 28.7867 50.399 27.8706C52.0587 26.159 52.3815 25.4028 51.5635 25.1432C51.1432 25.0098 51.1129 24.8023 51.1129 22.0587V19.1172L49.029 17.1252L46.9451 15.1331L42.4394 15.1338L37.9337 15.1344L37.3142 15.951C36.9734 16.4001 36.6946 17.0047 36.6946 17.2945C36.6946 17.8138 36.6601 17.8214 34.2994 17.8214C32.3001 17.8214 31.784 17.8956 31.1776 18.2704C30.5224 18.6754 30.4369 18.8555 30.3062 20.1058C30.2265 20.8682 30.1613 21.8827 30.1613 22.3602C30.1613 22.8376 30.06 23.2435 29.936 23.2621C29.8121 23.2806 29.604 23.306 29.4734 23.3184C29.3429 23.3309 28.9627 22.84 28.6286 22.2279C28.0567 21.18 27.9089 21.0711 26.1062 20.3696L24.1912 19.6244L19.2167 19.624L14.2422 19.6237L13.9471 20.175C13.6323 20.7632 13.1295 21.0576 12.794 20.8502C12.6812 20.7805 12.589 20.0706 12.589 19.2725V17.8214L17.0384 17.8294C20.4709 17.8355 21.6165 17.911 22.051 18.1594C22.3608 18.3365 22.7156 18.4807 22.8395 18.4799C23.5157 18.4756 21.35 17.6135 20.643 17.6056C19.8295 17.5965 19.7982 17.567 19.7982 16.8077C19.7982 16.374 19.6968 16.0192 19.5729 16.0192C19.449 16.0192 19.3476 16.374 19.3476 16.8077C19.3476 17.3584 19.2457 17.5962 19.0097 17.5962C18.7737 17.5962 18.6717 17.3584 18.6717 16.8077C18.6717 16.257 18.5698 16.0192 18.3338 16.0192C18.0978 16.0192 17.9959 16.257 17.9959 16.8077C17.9959 17.7918 17.599 17.8511 17.5033 16.8813C17.4013 15.8486 16.8695 15.771 16.8695 16.7889C16.8695 17.3563 16.769 17.5962 16.5315 17.5962C16.2955 17.5962 16.1936 17.3584 16.1936 16.8077C16.1936 16.257 16.0917 16.0192 15.8557 16.0192C15.6197 16.0192 15.5177 16.257 15.5177 16.8077C15.5177 17.2413 15.4164 17.5962 15.2925 17.5962C15.1685 17.5962 15.0672 17.2413 15.0672 16.8077C15.0672 16.257 14.9653 16.0192 14.7292 16.0192C14.4932 16.0192 14.3913 16.257 14.3913 16.8077C14.3913 17.3584 14.2894 17.5962 14.0534 17.5962C13.8159 17.5962 13.7154 17.3563 13.7154 16.7889C13.7154 16.2418 13.6247 16.0127 13.4338 16.0782C13.279 16.1313 13.1532 16.4945 13.1544 16.8854C13.1557 17.3079 13.0415 17.5962 12.8728 17.5962C12.6919 17.5962 12.589 17.2694 12.589 16.695V15.7939H16.9855H21.382L22.5863 16.4735L23.7906 17.1532L29.7357 17.0931L35.6808 17.033L35.7501 16.4698C35.7883 16.16 36.1796 15.5771 36.6198 15.1744L37.4202 14.4422H42.1412C44.9919 14.4422 47.0571 14.5364 47.3542 14.6799C47.8296 14.9095 47.8314 14.9057 47.409 14.5673C47.043 14.2741 46.1592 14.2169 41.9915 14.2169H37.0113L36.1771 15.0712C35.7183 15.5411 35.3429 16.0987 35.3429 16.3103C35.3429 16.6634 34.8525 16.695 29.3762 16.695H23.4095L22.3111 16.0192L21.2127 15.3433H16.9459C12.5314 15.3433 12.1384 15.4206 12.1384 16.2895C12.1384 16.5125 12.0371 16.695 11.9131 16.695C11.788 16.695 11.6879 16.0943 11.6879 15.3433V13.9916H23.8628H36.0377L35.9719 12.2637C35.892 10.1664 35.4555 9.76984 35.4555 11.7946V13.2031H33.6533H31.851V11.7946C31.851 10.5363 31.8029 10.3862 31.4004 10.3862C30.9979 10.3862 30.9498 10.5363 30.9498 11.7946V13.2031H29.3728H27.7958V11.7946C27.7958 10.5363 27.7478 10.3862 27.3452 10.3862C26.9427 10.3862 26.8947 10.5363 26.8947 11.7946V13.2031H25.3177H23.7407V11.7946C23.7407 10.5363 23.6926 10.3862 23.2901 10.3862C22.8876 10.3862 22.8395 10.5363 22.8395 11.7946V13.2031H21.2625H19.6855V11.7946C19.6855 10.5363 19.6375 10.3862 19.235 10.3862C18.8324 10.3862 18.7844 10.5363 18.7844 11.7946V13.2031L15.4206 13.2656C13.2574 13.3059 11.9427 13.4229 11.737 13.5937C11.4623 13.8217 11.4283 13.2834 11.4962 9.77608C11.5397 7.53041 11.6298 5.63858 11.6965 5.57202C11.7856 5.48308 35.2169 5.34713 37.8624 5.4202C38.1854 5.42911 38.2542 5.75698 38.3257 7.62721C38.3718 8.83531 38.546 10.1786 38.7127 10.6123C38.8794 11.0459 39.0479 11.5275 39.0872 11.6824C39.141 11.8946 40.1593 11.964 43.2208 11.964H47.2831V13.0904C47.2831 13.9415 47.3657 14.2168 47.621 14.2168C47.8068 14.2168 47.9589 14.4083 47.9589 14.6422C47.9589 14.8775 48.7615 15.8486 49.7545 16.815L51.5502 18.5624L51.6132 21.2896L51.6762 24.0168L53.0828 24.9413L54.4894 25.8659L57.3114 25.3025C58.8635 24.9926 60.1997 24.8055 60.2808 24.8866C60.362 24.9677 60.3346 25.3988 60.22 25.8446L60.0118 26.655L54.267 28.7926C48.4897 30.9423 47.208 31.3265 47.0049 30.9691ZM53.7171 26.1786C53.5236 25.8656 52.9869 25.8588 52.7965 26.1668C52.7165 26.2962 52.7779 26.5547 52.9328 26.7414C53.1792 27.0383 53.2554 27.0397 53.5421 26.7531C53.7222 26.5729 53.801 26.3144 53.7171 26.1786ZM59.6011 26.2469C59.7738 25.7966 59.2259 25.4238 58.8499 25.7358C58.509 26.0187 58.7061 26.6076 59.1418 26.6076C59.3182 26.6076 59.5249 26.4453 59.6011 26.2469ZM29.0026 18.6978C28.8345 18.5913 27.4297 18.5218 25.8809 18.5434L23.0648 18.5826L25.8068 18.7089C27.3149 18.7784 28.6216 18.9085 28.7106 18.998C28.7996 19.0876 28.9705 19.1003 29.0904 19.0262C29.2176 18.9476 29.1811 18.8109 29.0026 18.6978ZM20.1928 14.7237C20.2642 14.5088 19.6415 14.4421 17.5641 14.4421C15.2695 14.4421 14.8419 14.4963 14.8419 14.7872C14.8419 15.081 15.2323 15.1229 17.4706 15.0688C19.3265 15.024 20.1268 14.9225 20.1928 14.7237ZM26.2755 14.7237C26.3469 14.5088 25.7242 14.4421 23.6468 14.4421C21.3522 14.4421 20.9246 14.4963 20.9246 14.7872C20.9246 15.081 21.315 15.1229 23.5533 15.0688C25.4092 15.024 26.2095 14.9225 26.2755 14.7237ZM32.3583 14.7237C32.4296 14.5088 31.807 14.4421 29.7295 14.4421C27.4349 14.4421 27.0073 14.4963 27.0073 14.7872C27.0073 15.081 27.3978 15.1229 29.6361 15.0688C31.4919 15.024 32.2923 14.9225 32.3583 14.7237ZM34.8374 14.7237C34.9023 14.5259 34.6225 14.4421 33.8973 14.4421C32.9251 14.4421 32.6553 14.6081 33.0257 14.9785C33.2838 15.2367 34.7359 15.0325 34.8374 14.7237ZM14.6552 12.4923C15.1833 12.0144 15.1756 11.6814 14.625 11.1831C14.1169 10.7232 13.6271 10.8365 13.2744 11.4955C13.0767 11.865 13.1175 12.0419 13.485 12.4094C14.0369 12.9612 14.1297 12.9678 14.6552 12.4923ZM13.6404 12.2644C13.3103 11.9343 13.5003 11.2881 13.9274 11.2881C14.5025 11.2881 14.7238 11.6759 14.3831 12.0865C14.0857 12.4449 13.872 12.496 13.6404 12.2644ZM17.5601 12.6319C17.8074 12.4996 17.9959 12.1619 17.9959 11.8513C17.9959 11.3929 17.4575 10.8375 17.013 10.8375C16.7776 10.8375 16.1936 11.5601 16.1936 11.8513C16.1936 12.1425 16.7776 12.8651 17.013 12.8651C17.0742 12.8651 17.3205 12.7602 17.5601 12.6319ZM16.6586 12.094C16.3089 11.6726 16.5308 11.2881 17.1237 11.2881C17.4605 11.2881 17.5582 11.4136 17.5047 11.7774C17.4147 12.3887 17.0244 12.5348 16.6586 12.094ZM34.006 12.6319C34.9333 12.1356 34.2009 10.5983 33.2171 10.9758C32.6453 11.1953 32.499 12.2052 32.9872 12.5622C33.484 12.9255 33.4605 12.9239 34.006 12.6319ZM33.1045 12.094C32.7547 11.6726 32.9766 11.2881 33.5696 11.2881C33.9064 11.2881 34.0041 11.4136 33.9505 11.7774C33.8606 12.3887 33.4703 12.5348 33.1045 12.094ZM13.9172 9.95569C14.4333 9.62895 14.0256 9.03526 13.2852 9.03526C12.5013 9.03526 12.2126 9.37022 12.5972 9.83363C12.9035 10.2027 13.4477 10.253 13.9172 9.95569ZM19.9671 9.98096C20.122 9.92994 20.2487 9.69628 20.2487 9.46173C20.2487 9.06698 20.0476 9.03526 17.5453 9.03526C15.074 9.03526 14.8419 9.07072 14.8419 9.44828C14.8419 9.67544 14.9179 9.93771 15.0108 10.0311C15.1792 10.2003 19.4318 10.1573 19.9671 9.98096ZM25.9372 10.0172C26.1541 9.95606 26.3315 9.71011 26.3315 9.47065C26.3315 9.06451 26.1499 9.03526 23.628 9.03526C21.1567 9.03526 20.9246 9.07072 20.9246 9.44828C20.9246 9.67545 20.9823 9.91899 21.0528 9.98949C21.2105 10.1472 25.3919 10.1709 25.9372 10.0172ZM31.9635 10.0491C32.2114 9.97041 32.4142 9.71011 32.4142 9.47064C32.4142 9.0645 32.2326 9.03525 29.7108 9.03525C27.2394 9.03525 27.0073 9.07072 27.0073 9.44828C27.0073 9.67544 27.056 9.91001 27.1156 9.96953C27.2858 10.1398 31.4618 10.2083 31.9635 10.0491ZM34.8841 9.83362C35.2845 9.35119 34.9705 9.03525 34.0905 9.03525C33.489 9.03525 33.3153 9.12779 33.3153 9.44828C33.3153 9.67544 33.3829 9.92889 33.4655 10.0115C33.7336 10.2795 34.6047 10.1703 34.8841 9.83362ZM17.7471 8.17799C17.9072 7.87882 17.8331 7.53636 17.4668 6.8826L16.9689 5.9939L14.6784 5.92983C12.5332 5.86983 12.3715 5.89643 12.1292 6.34908C11.9031 6.77166 11.9781 6.94251 12.7261 7.70855L13.5816 8.58469H15.5555C17.2279 8.58469 17.5627 8.52256 17.7471 8.17799ZM13.0881 7.39565C12.3757 6.66067 12.3406 6.33183 12.9744 6.33183C13.145 6.33183 13.2548 6.50924 13.2184 6.72608C13.1606 7.0706 13.408 7.13453 15.1798 7.23297C16.7818 7.32197 17.2074 7.41654 17.2074 7.68354C17.2074 7.9482 16.8402 8.03553 15.5139 8.08632C13.8532 8.14992 13.8062 8.13653 13.0881 7.39565ZM24.0551 8.17799C24.2152 7.87882 24.1411 7.53636 23.7748 6.8826L23.2769 5.9939L20.9731 5.92968C18.6957 5.86621 18.6663 5.87207 18.4077 6.43959C18.1682 6.96528 18.2205 7.07997 19.0285 7.79903C19.8928 8.5683 19.9509 8.58434 21.8741 8.58451C23.5364 8.58466 23.8708 8.52232 24.0551 8.17799ZM19.3941 7.44604C18.6615 6.77973 18.6068 6.33183 19.2581 6.33183C19.4517 6.33183 19.5648 6.49789 19.5264 6.72608C19.4684 7.07165 19.6965 7.12852 21.3739 7.18665C22.4264 7.22313 23.3887 7.35407 23.5122 7.47764C23.9047 7.87004 23.1436 8.12738 21.6005 8.12406C20.2914 8.12128 20.0574 8.04933 19.3941 7.44604ZM30.1378 8.17799C30.298 7.87882 30.2239 7.53635 29.8576 6.8826L29.3597 5.9939L27.1168 5.92878C25.2026 5.8732 24.8322 5.92078 24.5889 6.25344C24.1862 6.80425 24.2074 6.86261 25.1421 7.77049C25.9755 8.5799 25.992 8.58469 27.9503 8.58469C29.6188 8.58469 29.9535 8.52246 30.1378 8.17799ZM25.4706 7.38712C24.7657 6.65989 24.7329 6.33183 25.3651 6.33183C25.5357 6.33183 25.6456 6.50924 25.6092 6.72608C25.5511 7.07165 25.7792 7.12852 27.4566 7.18665C28.5092 7.22313 29.4714 7.35407 29.595 7.47764C29.9868 7.86942 29.2278 8.12703 27.6711 8.13066C26.293 8.13392 26.1463 8.08432 25.4706 7.38712ZM36.0056 8.15872C36.1786 7.83555 36.1125 7.50977 35.7319 6.80886L35.2303 5.88497L32.929 5.88311C30.817 5.88141 30.6068 5.92036 30.3732 6.35683C30.1524 6.76949 30.2319 6.94831 30.9742 7.70854L31.8298 8.58467H33.8037C35.5091 8.58467 35.8086 8.52673 36.0056 8.15872ZM31.4508 7.51082C30.7699 6.80012 30.6604 6.33183 31.1751 6.33183C31.361 6.33183 31.513 6.53064 31.513 6.77363C31.513 7.17388 31.6984 7.22155 33.4843 7.28052C35.0574 7.33247 35.4555 7.41387 35.4555 7.68354C35.4555 7.94824 35.0881 8.03553 33.7599 8.08636C32.1517 8.1479 32.0327 8.11825 31.4508 7.51082ZM47.0578 28.8737C47.0578 28.7571 47.1592 28.5991 47.2831 28.5225C47.4213 28.4371 47.5084 26.6193 47.5084 23.8203V19.2574L46.881 18.6564C46.1699 17.9751 45.4174 17.8845 40.1302 17.8442C37.2831 17.8225 37.1452 17.8002 37.1452 17.3617C37.1452 17.1089 37.367 16.602 37.6381 16.2353L38.1311 15.5686H42.4304H46.7298L48.5834 17.4319L50.4371 19.2952V22.2394V25.1835L51.0328 25.455L51.6286 25.7264L50.9801 26.4486C48.7985 28.8779 48.5479 29.0857 47.7994 29.0857C47.3915 29.0857 47.0578 28.9903 47.0578 28.8737ZM75.8944 28.1902C75.8944 27.632 74.5041 25.0303 73.6642 24.0168C72.7495 22.913 72.5832 22.3417 73.1239 22.1616C73.7108 21.9662 76.7955 26.9276 76.7955 28.067C76.7955 28.2597 76.5982 28.4099 76.345 28.4099C76.0971 28.4099 75.8944 28.311 75.8944 28.1902ZM68.6844 25.8169C68.5535 25.4726 68.3856 25.0926 68.3113 24.9723C68.066 24.5754 71.4683 25.0282 71.7852 25.4346C72.1638 25.9203 71.8264 26.1016 70.1853 26.2945C68.9558 26.439 68.9161 26.4264 68.6844 25.8169ZM53.3095 24.442C52.539 23.8615 52.2394 23.4798 52.2394 23.0789C52.2394 22.6246 52.3223 22.5484 52.6899 22.6651C53.0945 22.7935 53.1405 22.7055 53.1405 21.8032C53.1405 20.562 53.2235 20.5248 55.9965 20.5248C57.8054 20.5248 58.2425 20.4518 58.7971 20.0568L59.4544 19.5888L58.9783 18.9203L58.5023 18.2517L55.2432 18.2845C53.4508 18.3025 51.9233 18.2563 51.8489 18.1819C51.7745 18.1075 51.832 18.0467 51.9765 18.0467C52.2869 18.0467 52.3323 17.2296 52.0322 17.0441C51.9183 16.9737 51.6793 17.0619 51.5011 17.2401C51.2193 17.5219 51.0386 17.4235 50.1137 16.4845C49.237 15.5945 49.1168 15.3794 49.4291 15.2595C49.6493 15.175 49.7539 14.9735 49.679 14.7781C49.5658 14.4831 50.8961 14.4421 60.582 14.4421H71.6139V15.3782C71.6139 16.26 71.5908 16.2933 71.2145 15.9528C70.8927 15.6616 70.2055 15.5844 67.6767 15.5558C63.8443 15.5124 63.7289 15.5859 63.7289 18.0716V19.6237H61.7013C59.8807 19.6237 59.6738 19.6661 59.6738 20.0393C59.6738 20.7172 58.9575 21.1668 57.7572 21.2424L56.6324 21.3133V22.2145V23.1156L58.3964 23.5369C59.3666 23.7686 60.0762 24.0407 59.9734 24.1416C59.8706 24.2425 58.8233 24.4863 57.6462 24.6835C56.4691 24.8806 55.2525 25.0884 54.9428 25.1451C54.5419 25.2186 54.0712 25.016 53.3095 24.442ZM61.1141 18.8168C61.3677 18.1557 61.2534 17.8129 60.6943 17.5582C60.2687 17.3643 60.0566 17.3719 59.7931 17.5906C59.443 17.8812 59.3251 18.7494 59.5987 19.0229C59.8941 19.3183 60.9782 19.1708 61.1141 18.8168ZM59.7465 18.3619C59.5888 17.9509 60.0466 17.5804 60.4982 17.7537C60.6643 17.8175 60.8002 18.0615 60.8002 18.2961C60.8002 18.8284 59.946 18.8817 59.7465 18.3619ZM59.8991 23.697C59.7132 23.5906 58.9736 23.3738 58.2555 23.2151C56.7832 22.8899 56.6432 22.7639 56.8477 21.9487C56.9777 21.4309 57.0752 21.384 57.7831 21.4989C58.8253 21.668 59.122 21.5304 59.6876 20.6151L60.1611 19.849H62.1703H64.1795L64.183 19.0042C64.1846 18.5395 64.2612 18.2768 64.3525 18.4203C64.4438 18.5638 64.8938 18.7516 65.3524 18.8377L66.1864 18.9941L65.7187 19.6266C65.4411 20.0022 65.222 20.6941 65.1795 21.3296C65.1321 22.0389 64.9514 22.5566 64.6437 22.8642C64.381 23.1269 64.1795 23.2089 64.1795 23.0531C64.1795 22.9016 64.2809 22.7777 64.4048 22.7777C64.7258 22.7777 64.6841 21.5796 64.3485 21.1599C63.9505 20.6621 63.1591 20.5207 61.6532 20.6781L60.3496 20.8143V21.8737C60.3496 23.3241 60.746 23.6355 62.7202 23.7359C64.2034 23.8114 64.1777 23.818 62.2646 23.8532C61.1494 23.8737 60.0849 23.8034 59.8991 23.697ZM93.7292 21.1639C92.5316 19.815 91.349 18.6661 91.1012 18.6107C90.8534 18.5553 89.0494 18.3583 87.0924 18.1729C85.1354 17.9874 83.4373 17.7758 83.3188 17.7026C83.2004 17.6294 83.1036 17.1036 83.1036 16.5342V15.4988L91.0397 15.6599C95.4045 15.7485 98.9972 15.8424 99.0234 15.8686C99.0786 15.9237 98.4178 23.3136 98.3534 23.3628C98.3297 23.3809 97.7695 23.4453 97.1085 23.506L95.9066 23.6164L93.7292 21.1639ZM95.9448 20.4031C95.9448 19.0007 95.2407 18.0467 94.2058 18.0467C93.013 18.0467 93.0629 18.5576 94.4025 20.0625C95.0649 20.8067 95.683 21.4179 95.7759 21.4207C95.8688 21.4237 95.9448 20.9657 95.9448 20.4031ZM98.72 23.172C98.7864 22.8932 98.9677 21.1167 99.123 19.2242C99.3062 16.9927 99.4901 15.8117 99.6464 15.8639C99.898 15.9479 99.8944 16.0767 99.5368 19.7363C99.2243 22.9346 99.0908 23.6788 98.8293 23.6788C98.7029 23.6788 98.6537 23.4507 98.72 23.172ZM52.2866 20.4685L52.352 18.6099L55.2807 18.5453C58.0673 18.4837 58.229 18.5047 58.6141 18.9773C58.9827 19.4298 58.9871 19.5059 58.6634 19.8305C58.3948 20.0999 57.6632 20.2144 55.6679 20.2996L53.0278 20.4122L52.9585 21.3697C52.9104 22.0345 52.7872 22.3271 52.5552 22.3271C52.2816 22.3271 52.233 21.9903 52.2866 20.4685ZM65.7565 20.4371C65.7565 20.265 65.9342 19.9047 66.1515 19.6365C66.4957 19.2114 66.7343 19.1575 68.0101 19.2172L69.4737 19.2858L67.9278 20.0179C66.2339 20.8201 65.7565 20.9123 65.7565 20.4371ZM69.5864 19.0381C69.5864 18.8848 69.533 18.6204 69.4678 18.4504C69.3899 18.2475 69.6412 18.0364 70.2 17.8353C71.8842 17.2291 72.0645 17.0074 72.0645 15.5426V14.2168H72.853H73.6415V11.4429C73.6415 8.69776 73.6348 8.66269 73.0097 8.06361C72.6434 7.71267 72.1226 7.45825 71.7706 7.45825C71.4348 7.45825 71.1636 7.33238 71.1638 7.17664C71.1641 6.9634 70.5265 6.91216 68.5373 6.9656C65.9204 7.03588 65.9066 7.03915 64.9653 7.81042L64.0205 8.58468L61.5655 8.58901L59.1106 8.59334L58.2568 10.0534L57.403 11.5134H54.0847H50.7664L50.0385 10.1895C49.6382 9.46127 49.3106 8.78774 49.3106 8.69272C49.3106 8.59771 50.626 8.57332 52.2337 8.63852C54.557 8.73275 55.2099 8.69316 55.4153 8.44561C55.6124 8.2082 56.4089 8.13414 58.7653 8.13414C61.4742 8.13414 61.903 8.08315 62.2297 7.72215C62.4347 7.49556 62.6025 7.24695 62.6025 7.16969C62.6025 7.09244 61.0058 6.98013 59.0543 6.92013C54.8191 6.78992 52.6543 6.59345 52.3633 6.31287C52.2456 6.1994 51.1557 6.10657 49.9414 6.10657C48.1291 6.10657 47.7336 6.04603 47.7336 5.76864C47.7336 5.54335 47.9589 5.43071 48.4095 5.43071C48.7812 5.43071 49.0854 5.53209 49.0854 5.65599C49.0854 5.7799 49.2374 5.88128 49.4233 5.88128C49.6091 5.88128 49.7612 5.7799 49.7612 5.65599C49.7612 5.30335 57.9288 5.35719 58.3052 5.71232C58.544 5.93761 58.6243 5.93761 58.7069 5.71232C58.8378 5.35545 66.883 5.30003 66.883 5.65599C66.883 5.7799 67.035 5.88128 67.2209 5.88128C67.4067 5.88128 67.5588 5.7799 67.5588 5.65599C67.5588 5.52583 68.2722 5.43071 69.2485 5.43071C70.9361 5.43071 70.9381 5.43145 70.9606 6.05025L70.983 6.66978L71.1385 6.10657C71.4088 5.12689 72.2851 5.25389 74.7249 6.62634C77.9953 8.466 78.2621 8.58095 79.5497 8.70515C80.2182 8.76962 81.0051 9.01475 81.3485 9.26546C81.9265 9.6875 82.3411 9.71114 89.1639 9.71114C94.6804 9.71114 96.4115 9.77713 96.5511 9.99275C96.6513 10.1476 96.7334 11.3135 96.7334 12.5835V14.8927L96.0012 14.8927C95.5005 14.8927 95.269 14.7859 95.269 14.5548C95.269 14.3689 95.1138 14.2169 94.924 14.2169C94.7343 14.2169 94.5207 14.3689 94.4493 14.5548C94.3656 14.7728 94.0171 14.8927 93.4667 14.8927C92.9164 14.8927 92.5678 14.7728 92.4841 14.5548C92.4128 14.3689 92.196 14.2169 92.0023 14.2169C91.8087 14.2169 91.5919 14.3689 91.5206 14.5548C91.4136 14.8336 90.822 14.8927 88.1413 14.8927C85.4606 14.8927 84.869 14.8336 84.762 14.5548C84.6906 14.3689 84.488 14.2169 84.3115 14.2169C84.135 14.2169 83.9322 14.3689 83.8609 14.5548C83.7571 14.8252 83.2632 14.8927 81.3898 14.8927C79.2036 14.8927 78.4406 15.12 79.499 15.4559C79.7468 15.5346 79.9495 15.7866 79.9495 16.0159C79.9495 16.2452 80.0072 16.5831 80.0777 16.7668C80.1731 17.0155 79.9719 17.1403 79.2892 17.2556C78.785 17.3408 78.3726 17.5029 78.3726 17.616C78.3726 17.729 77.156 17.8214 75.6691 17.8214C73.1654 17.8214 72.9284 17.8589 72.4605 18.3283C71.8628 18.928 69.5864 19.4902 69.5864 19.0381ZM78.1472 13.3354V12.0034L76.2886 10.9397C75.2664 10.3547 74.354 9.83294 74.2611 9.78028C74.1681 9.72761 74.0921 10.8057 74.0921 12.176V14.6674H76.1197H78.1472V13.3354ZM74.768 12.6425V10.8429L76.176 11.7024C77.5052 12.5138 77.5879 12.6146 77.6533 13.502L77.7226 14.4421H76.2453H74.768L74.768 12.6425ZM83.2864 10.6712C83.1733 10.0839 82.4277 10.0184 82.4277 10.5957C82.4277 10.9182 82.5724 11.0628 82.8948 11.0628C83.2172 11.0628 83.3385 10.9415 83.2864 10.6712ZM56.8393 10.7008C57.0772 10.6095 57.1956 10.2812 57.1956 9.71326C57.1956 8.96406 57.1217 8.84834 56.5761 8.74399C56.2354 8.67882 55.8045 8.7146 55.6187 8.82352C55.347 8.98269 55.3725 9.02289 55.7486 9.02839C56.1393 9.03413 56.2001 9.14674 56.1173 9.7111L56.0181 10.387H53.8041C52.5711 10.387 51.5284 10.4868 51.4509 10.6122C51.2984 10.859 56.2164 10.9398 56.8393 10.7008ZM66.4768 18.4996C65.104 18.3437 64.3755 18.0009 64.7086 17.6678C64.902 17.4744 68.7066 18.226 69.0119 18.5179C69.2531 18.7485 68.6287 18.744 66.4768 18.4996ZM64.183 17.1343C64.1778 15.8822 64.4007 15.7938 67.569 15.7938C70.0427 15.7938 70.4668 15.8481 70.7905 16.2058C70.9956 16.4324 71.1634 16.6734 71.1634 16.7413C71.1634 16.8092 70.6373 17.0911 69.9944 17.3677C69.0563 17.7712 68.6002 17.8403 67.6852 17.7175C64.7512 17.3237 64.5761 17.3189 64.3806 17.6276C64.2506 17.8328 64.1853 17.6699 64.183 17.1343ZM82.4331 17.2724C82.2721 16.8489 82.0328 16.7073 81.386 16.6529C80.701 16.5952 80.541 16.4896 80.5115 16.0754C80.4782 15.6086 80.5705 15.5685 81.6768 15.5685H82.8783V16.695C82.8783 17.9378 82.7496 18.1048 82.4331 17.2724ZM98.1977 12.4386C98.1977 10.5411 98.2693 9.9571 98.5136 9.86337C98.6874 9.7967 98.8901 9.80275 98.9642 9.8768C99.0383 9.95087 99.0988 11.1097 99.0988 12.4521C99.0988 14.7425 99.0711 14.8927 98.6483 14.8927C98.2253 14.8927 98.1977 14.7425 98.1977 12.4386ZM99.5072 12.9777C99.4839 11.9245 99.4585 10.7925 99.4509 10.4621C99.4431 10.1316 99.5635 9.81905 99.7184 9.76742C99.9329 9.69593 100 10.2956 100 12.2831C100 15.3407 99.5726 15.9431 99.5072 12.9777ZM0.491441 13.7564C0.557668 13.5031 0.46874 13.0215 0.293819 12.6862C-0.11045 11.9113 -0.107222 11.8511 0.363793 11.3801C0.57873 11.1651 0.726096 10.7719 0.691275 10.5062C0.629593 10.0355 0.705196 10.0217 3.62345 9.96989C5.27097 9.94066 7.55669 9.98393 8.70283 10.066L10.7867 10.2153V12.0708V13.9264L9.26605 14.07C8.42967 14.149 6.08614 14.2144 4.05819 14.2152C0.455118 14.2168 0.37377 14.2064 0.491441 13.7564ZM2.67643 13.4283C3.05924 12.9671 2.48185 12.9619 1.87467 13.4213C1.44594 13.7455 1.44676 13.7522 1.91667 13.7592C2.18029 13.7632 2.52218 13.6142 2.67643 13.4283ZM5.16939 13.5331C5.75835 13.2179 5.71759 12.9887 5.01567 12.6689C4.51509 12.4408 4.38076 12.4608 4.12492 12.8017C3.86896 13.1427 3.87938 13.2454 4.19425 13.4847C4.64147 13.8245 4.62624 13.8237 5.16939 13.5331ZM7.75687 13.3284C7.43071 12.968 7.28505 12.9377 6.93346 13.1573C6.28529 13.5621 6.41815 13.7663 7.32971 13.7663C8.13089 13.7663 8.14243 13.7545 7.75687 13.3284ZM2.26231 12.8276C3.37889 12.493 3.26453 12.1624 1.89887 11.7766C0.986555 11.519 0.771289 11.5197 0.509546 11.7815C0.246759 12.0443 0.252854 12.1669 0.549753 12.5908C0.953137 13.1667 1.07444 13.1835 2.26231 12.8276ZM7.63273 11.4008C7.63273 10.4308 7.60428 10.387 6.97529 10.387C6.61371 10.387 6.16131 10.447 5.96998 10.5205C5.65818 10.6401 5.65961 10.7112 5.98383 11.206C6.26684 11.638 7.20749 12.3464 7.57641 12.4055C7.60738 12.4105 7.63273 11.9583 7.63273 11.4008ZM5.15458 11.2779V10.3666L4.30976 10.5193C3.8451 10.6033 3.42724 10.7047 3.38117 10.7447C3.24394 10.8637 4.64859 12.1893 4.91196 12.1893C5.0454 12.1893 5.15458 11.7792 5.15458 11.2779ZM2.22586 11.0761C2.22586 10.7472 1.85463 10.596 1.4388 10.7555C1.13822 10.8709 1.12266 10.9389 1.36215 11.0907C1.76478 11.346 2.22586 11.3382 2.22586 11.0761ZM47.7336 12.6398V11.5134H43.4532H39.1728V9.83705C39.1728 8.91506 39.0714 8.09805 38.9475 8.02147C38.8236 7.94489 38.7222 7.73615 38.7222 7.5576C38.7222 7.28697 39.3968 7.23297 42.7773 7.23297H46.8325V8.02147C46.8325 8.80452 46.8394 8.80997 47.8353 8.80997H48.8381L49.6939 10.4433L50.5497 12.0766L54.0694 12.1385L57.589 12.2004L58.5589 10.5052L59.5289 8.80995H61.9934C64.4324 8.80995 64.4663 8.8026 65.2597 8.10606L66.0614 7.40216L69.0634 7.50397C71.8297 7.59779 72.1096 7.6473 72.6282 8.1345C73.1641 8.63799 73.191 8.78491 73.191 11.2147V13.7662H60.4623H47.7336V12.6398ZM72.3284 11.1406C72.8338 10.6831 72.8644 9.642 72.3864 9.16399C71.5905 8.3681 70.037 9.00193 70.037 10.1225C70.037 11.3276 71.4353 11.9488 72.3284 11.1406ZM70.5741 10.5128C70.3427 9.90977 70.5974 9.37423 71.1531 9.29547C71.8614 9.19507 72.3646 9.82633 72.0479 10.4181C71.7817 10.9154 70.7539 10.9814 70.5741 10.5128ZM96.9831 10.2917C97.1183 9.93953 97.7414 9.63024 97.9319 9.82078C98.0568 9.94569 97.3064 10.5925 97.022 10.6051C96.933 10.6091 96.9155 10.468 96.9831 10.2917ZM8.89346 8.51574C8.64612 8.33488 8.52102 8.00937 8.5688 7.67092C8.63846 7.17737 8.76906 7.11327 9.82926 7.05223L11.012 6.98414V7.89705C11.012 8.8043 11.0066 8.80997 10.1539 8.80997C9.68198 8.80997 9.11477 8.67757 8.89346 8.51574ZM47.0578 7.5709C47.0578 6.97847 46.9597 6.77695 46.6635 6.76051C46.4467 6.74846 44.6979 6.73825 42.7773 6.73778L39.2854 6.73693V6.19646V5.65596H43.1453C46.7077 5.65596 47.0136 5.688 47.1139 6.07163C47.2062 6.42445 47.5423 6.50931 49.3367 6.63285C54.8923 7.01533 55.1681 7.05376 55.1681 7.44539C55.1681 8.26563 54.7243 8.3594 50.8426 8.3594H47.0578V7.5709ZM39.8486 4.66775C39.8486 4.27436 40.8047 4.06105 43.1716 3.92635C44.7569 3.83613 45.0302 3.8727 45.0302 4.17506C45.0302 4.37002 45.1823 4.52954 45.3681 4.52954C45.554 4.52954 45.7061 4.42816 45.7061 4.30425C45.7061 3.94472 46.7709 4.04402 46.914 4.41689C46.9888 4.61196 47.3256 4.75482 47.7105 4.75482C48.0772 4.75482 48.5294 4.60276 48.7152 4.41689C49.095 4.03712 49.9865 3.95813 49.9865 4.30425C49.9865 4.42816 50.4427 4.52954 51.0003 4.52954C51.5579 4.52954 52.0141 4.42816 52.0141 4.30425C52.0141 4.18034 52.2675 4.07897 52.5773 4.07897C52.8871 4.07897 53.1405 4.18034 53.1405 4.30425C53.1405 4.42816 53.546 4.52954 54.0417 4.52954C54.5373 4.52954 54.9428 4.42816 54.9428 4.30425C54.9428 4.18034 55.1903 4.07897 55.4927 4.07897C55.7952 4.07897 56.1053 4.18034 56.1819 4.30425C56.3634 4.59805 58.0968 4.59805 58.0968 4.30425C58.0968 4.18034 58.3502 4.07897 58.66 4.07897C58.9698 4.07897 59.2232 4.18034 59.2232 4.30425C59.2232 4.59805 60.9566 4.59805 61.1382 4.30425C61.3194 4.01092 62.3772 4.01092 62.3772 4.30425C62.3772 4.59805 64.1106 4.59805 64.2922 4.30425C64.4734 4.01092 65.5312 4.01092 65.5312 4.30425C65.5312 4.42816 65.734 4.52954 65.9818 4.52954C66.3188 4.52954 66.4369 4.37342 66.4502 3.91C66.46 3.56926 66.5191 3.41719 66.5816 3.57207C66.6579 3.76123 67.2347 3.85368 68.3385 3.85368C69.5244 3.85368 70.0599 3.94774 70.2622 4.19161C70.4165 4.37747 70.6824 4.52954 70.853 4.52954C71.0237 4.52954 71.1634 4.63092 71.1634 4.75482C71.1634 4.90285 65.7941 4.98011 55.506 4.98011C42.3082 4.98011 39.8486 4.93104 39.8486 4.66775ZM70.5869 3.97349C70.3064 3.76134 69.609 3.64015 68.6422 3.63556C67.8132 3.63164 67.068 3.52027 66.9863 3.38812C66.7627 3.02621 66.9111 2.96622 68.4219 2.80832C69.5983 2.68536 69.8117 2.59583 69.8117 2.22509C69.8117 1.98421 70.1288 1.34548 70.5165 0.805688C71.1525 -0.0799526 71.2553 -0.141728 71.5698 0.172775C71.8589 0.461836 71.8696 0.599316 71.6327 0.978607C71.4726 1.23496 71.436 1.4969 71.5493 1.57469C71.8417 1.77543 71.8626 3.66671 71.5763 4.01176C71.2666 4.38491 71.1235 4.37938 70.5869 3.97349ZM39.9199 3.81302C39.6303 3.44689 39.6097 1.80896 39.8903 1.45191C40.0169 1.29073 40.0051 1.13433 39.8596 1.04437C39.507 0.826462 39.5743 0.0238166 39.9452 0.0238166C40.3601 0.0238166 40.9751 0.638738 40.9751 1.0537C40.9751 1.23071 41.0697 1.37553 41.1854 1.37553C41.3011 1.37553 41.4278 1.65432 41.467 1.99507C41.5335 2.57291 41.6179 2.61919 42.721 2.6827C43.7001 2.73907 43.9038 2.82305 43.9038 3.17037C43.9038 3.52429 43.6834 3.60545 42.4957 3.68901C41.7213 3.7435 40.8779 3.86057 40.6214 3.94918C40.332 4.04916 40.0659 3.9975 39.9199 3.81302ZM44.5796 3.40311C44.5796 3.2792 44.681 3.17782 44.8049 3.17782C44.9288 3.17782 45.0302 3.2792 45.0302 3.40311C45.0302 3.52701 44.9288 3.62839 44.8049 3.62839C44.681 3.62839 44.5796 3.52701 44.5796 3.40311Z" />
</svg>
