<svg width="100" height="20" viewBox="0 0 100 20"  xmlns="http://www.w3.org/2000/svg">
<path d="M79.1144 19.6908C78.8891 19.5173 78.8401 19.2273 78.8401 18.0662C78.8401 16.308 78.9262 16.21 80.41 16.2785C81.0546 16.3083 81.511 16.2609 81.5749 16.1575C81.6327 16.064 81.9907 15.9875 82.3705 15.9875C83.1473 15.9875 83.4422 15.6685 83.3561 14.9217C83.2896 14.3461 83.0117 14.4459 82.9154 15.08C82.8568 15.465 82.7576 15.5956 82.5235 15.5956C82.2847 15.5956 82.1914 15.465 82.1317 15.047L82.0533 14.4984L80.6793 14.4531C79.1781 14.4036 79.012 14.4974 79.2929 15.2363C79.423 15.5785 79.3785 15.7002 78.9858 16.0764C78.5392 16.5043 78.5266 16.5582 78.5266 18.0544V19.5925H77.5412H76.5559L76.6187 17.5728C76.7043 14.8269 76.7695 14.8903 73.8593 14.8903C71.3031 14.8903 71.0031 14.7741 71.0031 13.7842V13.1661H72.0219C73.0041 13.1661 73.0407 13.1802 73.0407 13.558V13.9498H79.0572H85.0736L85.3268 13.5635C85.5279 13.2565 85.5799 12.7466 85.5799 11.08C85.5799 8.42343 85.6063 8.45599 83.2533 8.21336L81.583 8.04114L84.9138 8.01744C87.7804 7.99704 88.2445 8.02649 88.2445 8.22884C88.2445 8.42738 88.6468 8.46761 90.8307 8.48746C92.2531 8.50039 93.4992 8.51802 93.5998 8.52665C93.7003 8.53527 93.812 8.45416 93.8479 8.3464C93.8985 8.19461 93.2924 8.15048 91.1572 8.15048C89.6414 8.15048 88.4012 8.08817 88.4012 8.01202C88.4012 7.75257 89.1048 7.68454 91.8103 7.6824L94.5141 7.68023V8.07207C94.5141 8.35943 94.5977 8.46393 94.8276 8.46393C95.0534 8.46393 95.141 8.56842 95.141 8.83749C95.141 9.07924 95.0304 9.23999 94.8276 9.29304C94.5463 9.36659 94.5141 9.50684 94.5141 10.6583C94.5141 11.8097 94.5462 11.95 94.8276 12.0235C95.2689 12.1389 95.263 12.8526 94.8206 12.8526C94.5232 12.8526 94.5035 12.934 94.5463 13.989L94.5923 15.1254H95.2192C95.8327 15.1254 95.8473 15.1124 95.8955 14.5267C95.9226 14.1974 95.8721 13.8404 95.7833 13.7333C95.6837 13.6133 95.6153 12.1305 95.6049 9.86497L95.5879 6.1912L96.775 6.14542L97.9622 6.09964V7.20341C97.9622 8.27627 97.9732 8.30718 98.354 8.30718H98.7459V11.2069V14.1066H98.2757H97.8054V16.1562V18.2058L94.7882 18.1546C90.952 18.0895 90.7521 18.0131 90.7521 16.6104V15.674H88.1992H85.6463L84.8736 16.4585C84.1188 17.2248 84.0994 17.2683 84.0393 18.3327C83.9854 19.2867 83.929 19.4543 83.5864 19.6787C83.1343 19.975 82.7493 19.7685 83.1436 19.4412C83.3201 19.2948 83.3854 18.9389 83.3854 18.1232V17.0058L84.2082 16.0364L85.0311 15.067L89.0672 15.057L93.1032 15.047V14.2633V13.4796H90.5954H88.0876V14.0282V14.5768H86.4494H84.8112L83.8716 15.6931C83.3548 16.307 82.9105 16.9595 82.8844 17.1429C82.8406 17.45 82.728 17.4801 81.4668 17.5218C80.1784 17.5643 80.0913 17.5889 80.0047 17.9338C79.954 18.1356 79.9357 18.5032 79.964 18.7507C80.015 19.1967 80.0264 19.2013 81.2693 19.279C82.2446 19.34 82.5233 19.4096 82.5233 19.5925C82.5233 19.9205 79.5249 20.007 79.1144 19.6908ZM94.1945 17.5662C94.386 17.2085 94.2723 16.8322 93.9335 16.7022C93.6012 16.5747 93.2602 16.8906 93.2602 17.3259C93.2602 17.8905 93.9289 18.0625 94.1945 17.5662ZM95.5201 17.7732C95.8383 17.6511 95.8482 16.8355 95.5329 16.7145C95.1328 16.561 94.8276 16.7849 94.8276 17.232C94.8276 17.8397 94.9986 17.9733 95.5201 17.7732ZM97.0875 17.7732C97.3923 17.6562 97.4131 17.0307 97.1202 16.7876C96.6571 16.4034 96.101 17.0055 96.4011 17.5662C96.5734 17.8883 96.6934 17.9244 97.0875 17.7732ZM94.2006 12.3824C94.2006 12.2962 94.0162 12.2257 93.7907 12.2257C93.3911 12.2257 93.3872 12.216 93.634 11.8394C93.9696 11.3272 93.9818 9.67806 93.6521 9.40439C93.5228 9.29707 93.4169 9.1121 93.4169 8.99335C93.4169 8.87459 93.3464 8.77743 93.2602 8.77743C93.0184 8.77743 93.0749 9.34227 93.3386 9.56113C93.493 9.68927 93.5737 10.039 93.5737 10.5799C93.5737 11.1209 93.493 11.4706 93.3386 11.5987C93.2093 11.7061 93.1035 11.9616 93.1035 12.1665C93.1035 12.4879 93.1789 12.5392 93.6521 12.5392C93.9538 12.5392 94.2006 12.4687 94.2006 12.3824ZM87.1345 12.0061C87.2511 11.8655 87.3004 11.2873 87.2712 10.3995L87.2258 9.01254H86.5988H85.9718L85.9261 10.4204C85.8874 11.6093 85.9222 11.8593 86.1519 12.027C86.5084 12.2877 86.9078 12.2792 87.1345 12.0061ZM86.2395 10.5408C86.2807 9.44577 86.3162 9.32602 86.5987 9.32602C86.8813 9.32602 86.9167 9.44577 86.958 10.5408C87.0037 11.7543 87.0034 11.7555 86.5987 11.7555C86.1941 11.7555 86.1937 11.7543 86.2395 10.5408ZM89.7246 11.8773C90.069 11.3857 90.0587 9.60693 89.7092 9.2208C89.3866 8.86434 88.9072 8.85326 88.5311 9.19357C88.3084 9.39513 88.2445 9.68444 88.2445 10.491C88.2445 11.6732 88.5191 12.2257 89.1066 12.2257C89.3154 12.2257 89.5884 12.0719 89.7246 11.8773ZM92.7027 11.8773C92.8583 11.6552 92.9467 11.1852 92.9467 10.5799C92.9467 9.49162 92.6555 8.93417 92.0869 8.93417C91.4293 8.93417 91.2226 9.31817 91.2226 10.5396C91.2226 11.3551 91.2919 11.729 91.482 11.9391C91.8347 12.3288 92.4068 12.2999 92.7027 11.8773ZM80.3135 18.7462C80.2644 18.6183 80.2489 18.3861 80.2789 18.2302C80.3261 17.9849 80.5023 17.9467 81.5853 17.9467H82.837V18.4169V18.8871L81.6199 18.933C80.6584 18.9692 80.384 18.9299 80.3135 18.7462ZM98.2759 16.4577V14.7335H98.6677H99.0595V11.2853V7.83699H98.6677C98.2972 7.83699 98.2759 7.78997 98.2759 6.97492C98.2759 6.03046 98.2774 6.02969 99.3036 6.2882L100 6.46355V12.3227V18.1818H99.1379H98.2759V16.4577ZM47.8549 15.2429C47.8012 15.0921 47.7288 14.9158 47.6939 14.8511C47.659 14.7864 48.3399 14.7335 49.2071 14.7335H50.7837V15.1254C50.7837 15.5144 50.7736 15.5172 49.3681 15.5172C48.1616 15.5172 47.9381 15.4767 47.8549 15.2429ZM52.257 15.3973C52.0873 15.284 51.7241 14.6799 51.7241 14.511C51.7241 14.4635 52.1453 14.212 52.6601 13.9521C53.3499 13.6039 53.8144 13.4796 54.4262 13.4796C55.0535 13.4796 55.3973 13.3838 55.833 13.0878L56.4097 12.6959H60.3122C64.0157 12.6959 64.2292 12.7119 64.4984 13.0094C64.729 13.2641 64.9812 13.3229 65.8441 13.3229C66.8261 13.3229 66.9099 13.3495 66.9562 13.6755C67.0018 13.9965 67.0908 14.0282 67.9467 14.0282C68.8026 14.0282 68.8916 13.9965 68.9372 13.6755C68.9781 13.3881 69.0867 13.3229 69.525 13.3229C69.9463 13.3229 70.0627 13.3865 70.0627 13.6168C70.0627 13.7784 70.1053 14.1237 70.1574 14.3841C70.2288 14.7413 70.1711 14.9387 69.9223 15.1874C69.595 15.5147 69.5267 15.5172 61.011 15.5148C56.2911 15.5135 52.3519 15.4606 52.257 15.3973ZM63.2941 13.5972L63.3437 13.1661H60.7422C58.5743 13.1661 58.1256 13.2053 58.0504 13.4013C58.0007 13.5306 58.0015 13.7439 58.0522 13.8754C58.1301 14.0785 58.5266 14.1079 60.6943 14.0713L63.2447 14.0282L63.2941 13.5972ZM45.4545 13.9589V12.8527H46.167H46.8795L46.8332 13.9107L46.7868 14.9686L46.1207 15.0168L45.4545 15.065L45.4545 13.9589ZM31.7583 14.5314C31.5563 14.3836 31.4955 14.162 31.5325 13.7085C31.5792 13.1351 31.6219 13.084 32.0925 13.0387L32.6019 12.9895V13.8615C32.6019 14.5983 32.5579 14.7335 32.3184 14.7335C32.1624 14.7335 31.9104 14.6426 31.7583 14.5314ZM32.9154 13.7931V13.0094H33.464H34.0125V13.7931V14.5768H33.464H32.9154V13.7931ZM34.326 13.7931C34.326 13.0617 34.3521 13.0094 34.7179 13.0094C35.0836 13.0094 35.1097 13.0617 35.1097 13.7931C35.1097 14.5246 35.0836 14.5768 34.7179 14.5768C34.3521 14.5768 34.326 14.5246 34.326 13.7931ZM35.4232 13.7822C35.4232 13.0599 35.4536 12.9922 35.7575 13.0377C36.0416 13.0803 36.0945 13.1995 36.1102 13.8324C36.1268 14.5056 36.0947 14.577 35.7759 14.5769C35.4565 14.5768 35.4232 14.5017 35.4232 13.7822ZM36.5204 13.7931C36.5204 13.1139 36.5622 13.0094 36.8339 13.0094C37.1055 13.0094 37.1473 13.1139 37.1473 13.7931C37.1473 14.4723 37.1055 14.5768 36.8339 14.5768C36.5622 14.5768 36.5204 14.4723 36.5204 13.7931ZM37.4608 13.7931C37.4608 13.0617 37.4869 13.0094 37.8527 13.0094C38.2184 13.0094 38.2445 13.0617 38.2445 13.7931C38.2445 14.5246 38.2184 14.5768 37.8527 14.5768C37.4869 14.5768 37.4608 14.5246 37.4608 13.7931ZM38.558 13.7931C38.558 13.1139 38.5998 13.0094 38.8715 13.0094C39.1432 13.0094 39.185 13.1139 39.185 13.7931C39.185 14.4723 39.1432 14.5768 38.8715 14.5768C38.5998 14.5768 38.558 14.4723 38.558 13.7931ZM39.6552 13.7931V13.1661H42.3198H44.9843V13.7931V14.4201H42.3198H39.6552V13.7931ZM47.3354 11.5204V8.77743H48.9498C49.9965 8.77743 50.6304 8.84357 50.7523 8.96552C51.0422 9.25538 50.9959 11.0441 50.692 11.2964C50.4412 11.5045 50.4475 12.1828 50.7096 13.2047C50.7973 13.5464 50.7436 13.6987 50.4492 13.944C50.1437 14.1985 49.8367 14.2538 48.7069 14.2581L47.3354 14.2633V11.5204ZM74.1516 12.7908C74.0322 12.6469 73.9855 11.9909 74.0149 10.8708L74.0596 9.16928L75.9739 9.12532L77.8882 9.08136L77.9332 10.6143L77.9781 12.1473L79.7002 12.1922C81.8072 12.2471 81.8182 12.2378 81.8182 10.3932V9.09092H83.2759C84.2006 9.09092 84.8023 9.15968 84.9217 9.279C85.1788 9.53611 85.1788 12.5642 84.9217 12.8213C84.626 13.117 74.3983 13.0881 74.1516 12.7908ZM76.0126 12.1549C76.2776 11.8355 76.1501 11.3636 75.7986 11.3636C75.3704 11.3636 75.1219 11.8221 75.3809 12.1342C75.6362 12.4417 75.7708 12.4461 76.0126 12.1549ZM75.5006 11.9687C75.3543 11.8225 75.5311 11.5987 75.7929 11.5987C75.9172 11.5987 76.0188 11.7045 76.0188 11.8339C76.0188 12.0699 75.6879 12.1561 75.5006 11.9687ZM83.678 12.1122C83.8596 11.7877 83.6357 11.2853 83.3095 11.2853C82.9801 11.2853 82.7567 11.7726 82.9342 12.1041C83.1235 12.4579 83.4824 12.4618 83.678 12.1122ZM83.0721 11.8339C83.0721 11.7045 83.1779 11.5987 83.3072 11.5987C83.4365 11.5987 83.5423 11.7045 83.5423 11.8339C83.5423 11.9632 83.4365 12.069 83.3072 12.069C83.1779 12.069 83.0721 11.9632 83.0721 11.8339ZM76.1475 10.2963C76.2323 9.856 75.8873 9.53661 75.5321 9.72668C75.1904 9.90955 75.1503 10.1973 75.4278 10.4748C75.6892 10.7362 76.0815 10.6389 76.1475 10.2963ZM75.5657 10.2871C75.4259 10.1187 75.4231 10.0306 75.5547 9.94924C75.8103 9.79125 76.1274 10.1422 75.9182 10.3515C75.8048 10.4648 75.6968 10.4451 75.5657 10.2871ZM83.6932 10.3557C83.8155 10.1273 83.7949 9.99281 83.6092 9.80712C83.4739 9.67182 83.338 9.56112 83.3072 9.56112C83.2764 9.56112 83.1405 9.67182 83.0052 9.80712C82.7216 10.0907 82.923 10.6583 83.3072 10.6583C83.4305 10.6583 83.6042 10.5221 83.6932 10.3557ZM83.1723 10.3928C82.985 10.2055 83.0711 9.87461 83.3072 9.87461C83.4365 9.87461 83.5423 9.97625 83.5423 10.1005C83.5423 10.3623 83.3186 10.5391 83.1723 10.3928ZM25.431 12.6725C25.1578 12.5321 25.0784 12.3554 25.0784 11.8883V11.2853L28.4091 11.2891L31.7398 11.293L32.4165 11.9316C32.7887 12.2828 33.0536 12.6098 33.0051 12.6584C32.8189 12.8445 25.7913 12.8577 25.431 12.6725ZM36.7506 12.7354L33.7676 12.6894L32.7829 11.8306L31.7982 10.9718H28.2228H24.6473L24.5494 10.482C24.4955 10.2126 24.4514 9.71884 24.4514 9.38479V8.77742H31.8089C36.5449 8.77742 39.201 8.83327 39.2633 8.93416C39.3166 9.02037 39.7087 9.0909 40.1346 9.0909H40.9091V9.6498C40.9091 10.6628 41.0941 10.815 42.3253 10.815C43.3543 10.815 43.4166 10.7948 43.4119 10.4624C43.4092 10.2684 43.3034 9.9728 43.1768 9.80546C43.0503 9.63812 42.9467 9.33836 42.9467 9.13932C42.9467 8.8149 43.0198 8.77742 43.652 8.77742H44.3574V9.8746V10.9718H44.96C45.7914 10.9718 46.0815 10.6109 46.0815 9.57706C46.0815 8.81485 46.1069 8.75923 46.4342 8.80571C46.7755 8.85418 46.7868 8.91127 46.7868 10.5799V12.3041L46.0548 12.3513C45.6522 12.3773 45.238 12.5008 45.1344 12.6256C44.937 12.8634 44.9942 12.8627 36.7506 12.7354ZM39.9615 11.0588C40.0649 10.9342 40.1264 10.6697 40.0982 10.471C40.0277 9.97318 39.2782 9.87777 39.0332 10.3354C38.6787 10.9979 39.4884 11.6288 39.9615 11.0588ZM39.3417 10.6583C39.3417 10.4563 39.4211 10.3452 39.5376 10.384C39.6454 10.4199 39.7335 10.5434 39.7335 10.6583C39.7335 10.7732 39.6454 10.8967 39.5376 10.9326C39.4211 10.9714 39.3417 10.8603 39.3417 10.6583ZM38.4013 10.1097V9.24765H36.5204C34.3566 9.24765 34.2762 9.31481 35.2063 10.3444L35.7732 10.9718H37.0872H38.4013V10.1097ZM35.683 10.1881L35.264 9.71787H36.6759H38.0878V10.1881V10.6583H37.0949C36.1893 10.6583 36.0651 10.617 35.683 10.1881ZM64.6149 12.6128C64.4975 12.4031 63.9182 12.3831 60.0224 12.4541C57.5704 12.4988 54.5063 12.5539 53.2132 12.5765L50.8621 12.6176L50.8115 12.1764C50.7837 11.9338 50.8774 11.5575 51.0198 11.3402C51.2133 11.0448 51.2656 10.6717 51.2271 9.86094L51.1755 8.77672L53.0172 8.77708L54.8589 8.77743L54.8606 9.75705C54.8623 10.6878 54.8941 10.7699 55.4994 11.4028L56.1364 12.069H59.953H63.7695L64.4066 11.4028L65.0436 10.7367L65.0454 8.58151L65.0472 6.42633H70.0136C74.8206 6.42633 74.9911 6.43675 75.3254 6.75086C75.6552 7.06066 75.8341 7.07465 79.2698 7.05923C82.1467 7.04632 82.9046 7.0863 83.0475 7.25853C83.1458 7.37703 83.1799 7.5204 83.1232 7.57712C83.0664 7.63384 79.2872 7.68025 74.7249 7.68025H66.4298L66.1356 8.03292C65.8909 8.32619 65.8413 8.64956 65.8413 9.95298C65.8413 11.8956 66.0316 12.2257 67.1513 12.2257C67.5481 12.2257 67.9953 12.289 68.145 12.3663C68.2947 12.4437 68.5935 12.58 68.809 12.6692C69.1065 12.7924 68.665 12.834 66.9751 12.8421C65.1322 12.8508 64.726 12.8114 64.6149 12.6128ZM52.9467 11.8809C53.198 11.6296 53.198 9.37355 52.9467 9.12226C52.683 8.8585 52.106 8.88815 51.8137 9.18048C51.509 9.48518 51.4636 11.589 51.7555 11.8809C51.9979 12.1233 52.7042 12.1233 52.9467 11.8809ZM51.9792 11.5158C51.9251 11.3749 51.8809 10.8799 51.8809 10.4159C51.8809 9.74816 51.9428 9.539 52.1779 9.4132C52.6526 9.15913 52.8434 9.55515 52.79 10.6838C52.7485 11.5591 52.7034 11.6828 52.4102 11.7246C52.214 11.7526 52.0372 11.667 51.9792 11.5158ZM73.2851 12.2991C73.0487 12.1203 72.4514 12.069 70.6056 12.069C67.6806 12.069 67.7116 12.0888 67.7116 10.2149V8.93417H69.5576C70.9607 8.93417 71.4857 8.87665 71.7459 8.69442C72.0538 8.47876 72.1478 8.47981 72.682 8.70486L73.2759 8.95505L72.884 9.17416C72.6097 9.32756 71.9162 9.39495 70.5721 9.39884C68.8166 9.40395 68.2546 9.53184 68.9 9.77947C69.0363 9.83179 69.8855 9.87461 70.7871 9.87461C72.117 9.87461 72.5422 9.81546 73.0407 9.56113C73.3787 9.38871 73.6933 9.24765 73.7398 9.24765C73.7864 9.24765 73.8244 9.98825 73.8244 10.8934C73.8244 11.7986 73.7716 12.5369 73.7069 12.5342C73.6422 12.5315 73.4524 12.4257 73.2851 12.2991ZM68.652 10.9027C68.652 10.4336 68.5815 10.0063 68.4953 9.95298C68.3974 9.89247 68.3386 10.2126 68.3386 10.8058C68.3386 11.3344 68.4081 11.7555 68.4953 11.7555C68.5815 11.7555 68.652 11.3717 68.652 10.9027ZM66.4036 11.6256C66.0076 11.188 66.0286 8.46037 66.4308 8.09639C66.6867 7.86481 67.3423 7.83699 72.5437 7.83699C76.3233 7.83699 78.3699 7.89205 78.3699 7.99373C78.3699 8.09346 77.1191 8.15047 74.9309 8.15047C72.8073 8.15047 71.4548 8.21042 71.395 8.30721C71.3374 8.40039 70.3484 8.46395 68.9563 8.46395H66.6144V8.93417C66.6144 9.2999 66.6841 9.40439 66.9279 9.40439C67.1817 9.40439 67.2414 9.50888 67.2414 9.95298C67.2414 10.3971 67.1817 10.5016 66.9279 10.5016C66.6857 10.5016 66.6144 10.6061 66.6144 10.9614C66.6144 11.3429 66.6858 11.4296 67.0334 11.4708C67.2638 11.4981 67.4813 11.6085 67.5167 11.7163C67.6189 12.0278 66.6998 11.9529 66.4036 11.6256ZM78.1225 11.7016C78.0781 11.5858 78.0626 10.9686 78.0883 10.3302L78.1348 9.16928H79.7806H81.4264L81.4716 10.5407L81.5169 11.9122H79.8601C78.6177 11.9122 78.1831 11.8595 78.1225 11.7016ZM55.8301 10.9251C55.396 10.4773 55.3292 10.2985 55.3292 9.58626V8.76424L56.5439 8.81002L57.7586 8.8558L57.81 9.40439C57.9001 10.3654 58.1564 10.5016 59.8746 10.5016C61.5927 10.5016 61.849 10.3654 61.9391 9.40439L61.9905 8.8558L63.2837 8.81028L64.5768 8.76475V9.52298C64.5768 10.1941 64.5085 10.3479 63.9824 10.8616L63.388 11.442H59.8595H56.331L55.8301 10.9251ZM0 8.8558V7.05329H4.31034H8.62069V8.8558V10.6583H4.31034H0V8.8558ZM3.41693 9.52978C3.52038 9.42633 3.60502 9.07102 3.60502 8.7402V8.13871L2.15517 8.18377C0.767511 8.2269 0.703092 8.24465 0.653154 8.59745C0.624458 8.80018 0.643432 9.13521 0.695327 9.34196C0.784784 9.69839 0.852881 9.71787 2.00926 9.71787C2.74884 9.71787 3.30287 9.64384 3.41693 9.52978ZM7.35827 9.493C7.46092 9.36932 7.52245 9.03429 7.49502 8.74849L7.44514 8.22884H6.03448H4.62382L4.57359 8.75317C4.48672 9.66003 4.56814 9.71787 5.932 9.71787C6.81761 9.71787 7.22495 9.65365 7.35827 9.493ZM44.6708 9.56113C44.6708 8.52074 44.6895 8.46395 45.0313 8.46395C45.55 8.46395 45.768 8.75457 45.768 9.44605C45.768 10.2543 45.5311 10.6583 45.0572 10.6583C44.6834 10.6583 44.6708 10.6228 44.6708 9.56113ZM9.09091 8.78356C9.09091 7.4483 9.13789 7.04274 9.28683 7.09212C9.60242 7.19675 9.64203 10.0826 9.33141 10.3404C9.11767 10.5177 9.09091 10.3445 9.09091 8.78356ZM41.4107 10.3135C41.3072 10.21 41.2226 9.82579 41.2226 9.4596V8.79381L40.3997 8.74644L39.5768 8.69906L39.5278 8.10549L39.4788 7.51192L41.0168 7.55691L42.5549 7.60189L42.6006 8.72453C42.6311 9.47049 42.7231 9.91081 42.8749 10.0368C43.0006 10.1411 43.1034 10.2884 43.1034 10.364C43.1034 10.5727 41.6257 10.5285 41.4107 10.3135ZM58.3127 9.88491C58.0263 9.34977 58.1259 9.24765 58.9342 9.24765C59.7605 9.24765 59.8898 9.39991 59.4997 9.91379C59.2185 10.2843 58.5173 10.2672 58.3127 9.88491ZM60.8438 9.75705C60.8793 9.44843 60.9936 9.31179 61.2461 9.27593C61.6805 9.21424 61.7158 9.56335 61.3121 9.92868C60.9063 10.2959 60.7868 10.2522 60.8438 9.75705ZM9.87461 8.93577V7.83699H17.0134H24.1523L24.1059 8.89498L24.0596 9.95298L16.9671 9.99376L9.87461 10.0345L9.87461 8.93577ZM60.0854 9.63274C60.0344 9.49971 60.0319 9.35158 60.0801 9.30356C60.2174 9.16631 60.5017 9.39912 60.5017 9.64875C60.5017 9.94951 60.2026 9.93801 60.0854 9.63274ZM58.1811 8.18965C58.227 7.47325 58.2484 7.44326 58.7461 7.39544C59.1182 7.35969 59.3025 7.24295 59.4026 6.97963C59.8029 5.92687 60.3448 6.43106 60.3448 7.85618V8.93417H59.2391H58.1333L58.1811 8.18965ZM60.6583 8.14006C60.6583 7.36622 60.6693 7.34721 61.0893 7.39554C61.4841 7.44097 61.5244 7.50785 61.5681 8.18965C61.6154 8.92579 61.6106 8.93417 61.1371 8.93417C60.6662 8.93417 60.6583 8.92108 60.6583 8.14006ZM73.511 8.68579C73.0242 8.48656 73.5893 8.46901 78.5266 8.53011C81.718 8.56961 84.258 8.6662 84.4827 8.75663C84.7566 8.86683 83.2466 8.9137 79.4671 8.91231C75.1369 8.91068 73.9503 8.86558 73.511 8.68579ZM24.4802 8.03292C24.5075 7.79585 24.6088 7.61647 24.7054 7.6343C24.802 7.65213 25.1659 7.42289 25.514 7.12489C26.0742 6.64541 26.249 6.58307 27.0337 6.58307C28.3125 6.58307 28.5266 6.74122 28.5266 7.68577V8.46395H26.4786H24.4306L24.4802 8.03292ZM27.5862 7.51698C27.5862 6.56093 27.0492 6.50058 26.3562 7.37875C25.8432 8.02894 25.9811 8.24656 26.8619 8.17651L27.5862 8.1189V7.51698ZM28.6834 7.53276C28.6834 6.95994 28.608 6.55277 28.4875 6.47477C28.3797 6.40503 27.8331 6.30616 27.2727 6.25507C26.7124 6.20399 28.0701 6.15108 30.29 6.13752L34.326 6.11286V7.2884V8.46395H31.5047H28.6834V7.53276ZM31.3197 7.01411C31.279 6.72784 31.1544 6.65201 30.6576 6.61135C29.7694 6.53866 29.3103 6.69027 29.3103 7.05628C29.3103 7.33427 29.4181 7.36677 30.3401 7.36677C31.3183 7.36677 31.3673 7.34913 31.3197 7.01411ZM33.8275 7.01411C33.7819 6.69313 33.6929 6.66144 32.837 6.66144C31.9811 6.66144 31.8921 6.69313 31.8465 7.01411C31.7988 7.34945 31.8476 7.36677 32.837 7.36677C33.8265 7.36677 33.8751 7.34945 33.8275 7.01411ZM34.6395 7.28656V6.10917L40.7132 6.1502L46.7868 6.19122L46.8332 7.34558L46.8797 8.49994L46.2847 8.39631C44.8702 8.14997 44.3574 8.12207 44.3574 8.29143C44.3574 8.39141 44.0608 8.46395 43.652 8.46395C42.9553 8.46395 42.9467 8.45752 42.9467 7.93455C42.9467 7.13115 42.716 7.03625 40.8862 7.08681L39.2633 7.13166L39.2151 7.79781L39.1669 8.46395H36.9032H34.6395L34.6395 7.28656ZM47.3354 7.28842V6.11287H48.0408H48.7461V6.98525C48.7461 7.46505 48.8191 7.99405 48.9083 8.16079C49.0597 8.44356 49.0122 8.46397 48.203 8.46397H47.3354V7.28842ZM50.8157 7.40598L50.8621 6.34798L52.8605 6.30412L54.8589 6.26025V7.36211V8.46397H52.8142H50.7694L50.8157 7.40598ZM55.3292 7.44517V6.42636H57.2884C58.4901 6.42636 59.2476 6.48696 59.2476 6.5831C59.2476 6.6693 58.9731 6.73984 58.6375 6.73984C57.9494 6.73984 57.837 6.89568 57.837 7.84983V8.46397H56.5831H55.3292V7.44517ZM61.9122 7.78999C61.9122 6.98112 61.707 6.73984 61.0188 6.73984C60.7343 6.73984 60.5016 6.6693 60.5016 6.5831C60.5016 6.48664 61.2853 6.42636 62.5392 6.42636H64.5768V7.44517V8.46397H63.2445H61.9122V7.78999ZM49.2162 7.91512C49.1301 7.68852 49.0596 7.04503 49.0596 6.48512C49.0596 5.56303 49.0079 5.39942 48.511 4.74865C48.2093 4.35346 47.9624 3.98206 47.9624 3.92328C47.9624 3.86449 48.1402 3.64931 48.3576 3.4451L48.7528 3.0738L49.6163 3.92654L50.4798 4.77928L50.4358 6.50406L50.3919 8.22884L49.8824 8.27796C49.4548 8.31918 49.3477 8.26087 49.2162 7.91512ZM49.9723 7.47136C50.0023 7.3167 49.9223 7.21006 49.7764 7.21006C49.631 7.21006 49.5298 7.34407 49.5298 7.5366C49.5298 7.91858 49.896 7.86459 49.9723 7.47136ZM83.1823 6.97002C83.0151 6.74028 82.7445 6.5831 82.5162 6.5831C82.0261 6.5831 82.0006 6.14868 82.4843 6.03854C82.8851 5.94728 87.7372 5.34164 88.7522 5.2562C89.1195 5.22527 89.6669 5.15237 89.9686 5.09417C90.5171 4.98839 90.5173 4.98852 91.0299 6.03049C91.3119 6.60365 91.5017 7.1388 91.4517 7.2197C91.4016 7.3006 90.9851 7.3668 90.526 7.3668C89.8085 7.3668 89.6551 7.31173 89.4344 6.97495C89.2224 6.65127 89.0526 6.5831 88.459 6.5831C87.7706 6.5831 87.7444 6.59965 87.8386 6.97495L87.937 7.3668L85.7004 7.36192C83.5055 7.35704 83.4587 7.34974 83.1823 6.97002ZM75.2351 6.34799C75.0885 6.17131 74.6942 6.11288 73.6485 6.11288C72.3615 6.11288 72.257 6.08933 72.257 5.7994C72.257 5.51224 72.3615 5.48592 73.5017 5.48592C74.1863 5.48592 74.79 5.41539 74.8433 5.32918C74.9074 5.22532 71.6317 5.17244 65.1346 5.17244C56.7459 5.17244 55.3292 5.14012 55.3292 4.94876C55.3292 4.76033 56.0144 4.72555 59.6787 4.72803C65.121 4.73167 65.2038 4.72943 65.2038 4.57451C65.2038 4.50427 64.9393 4.31516 64.616 4.15427L64.0282 3.86171L64.9413 3.73752C65.6796 3.6371 65.931 3.66348 66.2543 3.87533C66.5252 4.05282 67.102 4.15874 68.0426 4.20371C69.2559 4.26172 69.4442 4.2356 69.5359 3.99652C69.603 3.82162 69.547 3.67039 69.3805 3.57724C69.1723 3.4607 69.1546 3.36716 69.2923 3.10992C69.7132 2.32347 68.8411 0.940437 67.9244 0.940437C67.0284 0.940437 66.3649 1.8092 66.4984 2.80764L66.5736 3.3699H63.42C61.6856 3.3699 60.2488 3.317 60.2273 3.25235C60.2057 3.18769 60.1881 2.6058 60.1881 1.95924V0.783699H61.7282C63.1683 0.783699 63.2922 0.758262 63.6364 0.391849C63.9538 0.0539708 64.1411 0 64.996 0C65.9545 0 65.9875 0.0133051 65.9875 0.400041C65.9875 0.784152 66.0202 0.798195 66.8104 0.752705C67.5584 0.709638 67.6299 0.673245 67.5959 0.352664C67.5617 0.0290817 67.623 0 68.3404 0C68.9848 0 69.1223 0.0489326 69.1223 0.278255C69.1223 0.530949 69.2733 0.550918 70.7663 0.495651C72.0247 0.449071 72.5585 0.49411 73.0422 0.687616C73.3897 0.826669 73.8465 0.940439 74.0573 0.940439C74.6887 0.940439 74.9299 1.80072 74.667 3.1152C74.5785 3.55754 74.513 3.60502 73.991 3.60502C73.5537 3.60502 73.3035 3.71917 72.964 4.0736C72.7171 4.33132 72.5637 4.59087 72.6232 4.65037C72.6827 4.70988 73.3092 4.76351 74.0155 4.76956L75.2995 4.78056L75.8817 5.61212C76.3745 6.31618 76.4866 6.40293 76.6125 6.17789C76.7774 5.88323 77.116 6.00382 77.116 6.35721C77.116 6.68011 75.5042 6.6722 75.2351 6.34799ZM72.0374 3.05642C72.0494 2.32103 72.0391 2.27643 71.99 2.85189L71.9271 3.58779L71.2814 3.63559C70.9248 3.66198 70.6054 3.77525 70.5682 3.88856C70.5174 4.04287 70.6892 4.08172 71.2613 4.04529L72.022 3.99687L72.0374 3.05642ZM74.449 2.23354C74.4472 1.59383 74.4025 1.40052 74.2947 1.5674C74.1226 1.83364 74.0908 2.516 74.2331 2.88687C74.3989 3.31906 74.4515 3.16003 74.449 2.23354ZM55.3292 5.79937C55.3292 5.49634 55.4336 5.48589 58.4639 5.48589C61.4943 5.48589 61.5987 5.49634 61.5987 5.79937C61.5987 6.1024 61.4943 6.11285 58.4639 6.11285C55.4336 6.11285 55.3292 6.1024 55.3292 5.79937ZM61.9122 5.95611C61.9122 5.86991 62.0533 5.79937 62.2257 5.79937C62.3981 5.79937 62.5392 5.72884 62.5392 5.64263C62.5392 5.55643 62.6802 5.48589 62.8527 5.48589C63.0251 5.48589 63.1661 5.55643 63.1661 5.64263C63.1661 5.72884 63.3072 5.79937 63.4796 5.79937C63.652 5.79937 63.7931 5.72884 63.7931 5.64263C63.7931 5.55643 63.8989 5.48589 64.0282 5.48589C64.1575 5.48589 64.2633 5.55643 64.2633 5.64263C64.2633 5.72884 64.4044 5.79937 64.5768 5.79937C64.7492 5.79937 64.8903 5.72884 64.8903 5.64263C64.8903 5.55643 65.0666 5.48589 65.2821 5.48589C65.5695 5.48589 65.674 5.56949 65.674 5.79937C65.674 6.09544 65.5695 6.11285 63.7931 6.11285C62.6437 6.11285 61.9122 6.0519 61.9122 5.95611ZM66.1442 5.79937C66.1442 5.52769 66.2487 5.48589 66.9279 5.48589C67.6071 5.48589 67.7116 5.52769 67.7116 5.79937C67.7116 6.07105 67.6071 6.11285 66.9279 6.11285C66.2487 6.11285 66.1442 6.07106 66.1442 5.79937ZM68.1818 5.79937C68.1818 5.50331 68.2863 5.48589 70.0627 5.48589C71.8391 5.48589 71.9436 5.50331 71.9436 5.79937C71.9436 6.09544 71.8391 6.11285 70.0627 6.11285C68.2863 6.11285 68.1818 6.09543 68.1818 5.79937ZM58.53 3.23768C58.4856 3.12186 58.4702 2.50469 58.4958 1.86621L58.5424 0.705329L59.0518 0.656213L59.5612 0.607097V2.02769V3.44828H59.086C58.8247 3.44828 58.5745 3.35351 58.53 3.23768ZM67.2415 3.13494C66.8055 2.6989 66.8847 2.08062 67.4283 1.67655C67.824 1.38249 67.8747 1.3788 68.2393 1.61769C68.7988 1.98426 68.9042 2.46164 68.5353 2.95771C68.1406 3.48841 67.6607 3.55415 67.2415 3.13494Z" />
</svg>
