<svg width="100" height="20" viewBox="0 0 100 20"  xmlns="http://www.w3.org/2000/svg">
<path opacity="0.998" d="M63.1491 17.7719C62.4269 16.3836 62.3083 16.0143 62.5848 16.0143C62.668 16.0143 62.9452 16.4964 63.2007 17.0856L63.6653 18.1569L64.2243 17.3484C64.7075 16.6497 64.8661 16.5393 65.3926 16.5355C66.4282 16.5281 66.5698 16.3194 66.0618 15.549C65.8203 15.1826 65.5289 14.7066 65.4144 14.4912C65.2183 14.122 65.2394 14.0995 65.7816 14.0995C66.3063 14.0995 66.4231 14.2069 67.1091 15.3185C68.197 17.0814 68.4616 16.7171 67.4845 14.8017C67.2874 14.4155 67.1959 14.0995 67.2811 14.0995C67.4858 14.0995 68.3507 16.1053 68.3556 16.5915C68.3576 16.8006 68.5127 17.1675 68.6999 17.4068C68.8871 17.6462 69.042 18.0292 69.0442 18.258C69.0511 19.006 68.6259 19.136 66.1518 19.142L63.8648 19.1475L63.1491 17.7719ZM68.2647 18.1031C68.2647 17.6769 68.2342 17.6669 66.7828 17.6182L65.3009 17.5685L64.9851 18.1032L64.6693 18.6378L66.467 18.588C68.2553 18.5385 68.2647 18.536 68.2647 18.1031ZM37.4506 15.9708C37.3968 15.7554 37.3758 14.7958 37.4038 13.8384L37.4547 12.0977H39.1953H40.936L40.9869 13.8384C41.0643 16.4844 41.1508 16.3624 39.1953 16.3624C37.6323 16.3624 37.5433 16.3424 37.4506 15.9708ZM59.3561 15.6226C59.062 15.3115 58.2503 13.9603 57.5524 12.62C55.8153 9.28401 55.7703 9.22562 54.9367 9.22562C54.3359 9.22562 54.2522 9.17603 54.2522 8.81986C54.2522 8.20028 54.8518 7.98383 56.4051 8.04262L57.7675 8.09418L59.1866 10.8249C60.4527 13.2613 60.5816 13.5951 60.3824 13.9215C60.1962 14.2265 60.2054 14.3659 60.438 14.7596C60.6552 15.1274 60.6767 15.3376 60.5351 15.7101C60.2975 16.3351 60.0092 16.3137 59.3561 15.6226ZM61.0409 15.7767C61.0409 15.646 61.1976 15.3399 61.389 15.0964C61.8459 14.5156 61.83 13.9952 61.3455 13.6732C61.1301 13.5301 60.2881 12.1197 59.4743 10.539L57.9947 7.66505L56.4716 7.66203C55.1221 7.65932 54.9485 7.6233 54.9485 7.34568C54.9485 6.60596 54.0952 6.36996 53.6612 6.98965C53.4721 7.2596 53.4467 7.45471 53.5704 7.68592C53.7353 7.99413 53.5687 8.00714 49.4555 8.00714C45.4322 8.00714 45.1414 8.02854 44.726 8.35528C44.3016 8.68912 44.0199 8.70342 37.8664 8.70342H31.4493V7.74605V6.78867H36.2898H41.1303L41.6424 6.09651L42.1545 5.40435L46.1712 5.40017L50.188 5.39599L50.5968 5.83116L51.0056 6.26633H58.9521H66.8985L67.3074 5.83116C67.7688 5.34003 68.5397 5.25437 68.874 5.65709C69.2592 6.1213 70.5034 5.94537 74.3069 4.8889C76.345 4.3228 78.2989 3.78285 78.6488 3.68902L79.2851 3.51842L79.3504 4.20367C79.4013 4.73703 79.3032 5.06201 78.9079 5.66976C78.3128 6.5846 78.0589 6.57207 78.6003 5.65458C79.0087 4.96226 79.1044 3.82182 78.7524 3.84161C78.6327 3.84834 78.3781 3.92539 78.1867 4.01282C77.8732 4.15594 77.8819 4.16774 78.2737 4.13114C78.8792 4.07456 78.9324 4.66353 78.3985 5.51353C78.1685 5.8797 78.0136 6.27722 78.0545 6.39689C78.1123 6.56643 77.3161 6.61447 74.4484 6.61447C72.4243 6.61447 70.8083 6.54968 70.8572 6.47048C70.9061 6.39129 71.4204 6.18291 72 6.00741C72.5796 5.83192 73.0237 5.6582 72.9869 5.62136C72.8807 5.51518 71.26 5.93969 70.8758 6.17431C70.6528 6.31046 69.2784 6.43081 67.0542 6.50894C65.1438 6.57605 63.4988 6.69631 63.3987 6.77618C63.2987 6.85606 62.314 6.95764 61.2107 7.00191C60.1074 7.04619 59.025 7.17857 58.8054 7.29608C58.443 7.49004 58.4288 7.54472 58.6512 7.88893C58.7859 8.09749 59.699 9.61933 60.6803 11.2708C61.6616 12.9223 62.5049 14.2735 62.5544 14.2735C62.604 14.2735 62.7985 14.0777 62.9868 13.8383C63.3188 13.4162 63.3936 13.4031 65.471 13.4031C67.2727 13.4031 67.6508 13.3564 67.8518 13.1086C68.0141 12.9085 68.021 12.856 67.8731 12.9448C67.7194 13.0372 67.6555 12.9301 67.6555 12.5799C67.6555 12.2089 67.4672 11.9269 66.9063 11.4581C66.2656 10.9225 66.0605 10.5706 65.4898 9.02775C65.1227 8.03553 64.7857 7.1258 64.7408 7.00613C64.6837 6.85396 64.8757 6.78854 65.3795 6.78854C66.2468 6.78854 66.4027 7.05616 66.0891 8.00645C65.8787 8.64395 65.8991 8.73361 66.5111 9.86474C67.2612 11.2509 67.8842 11.8348 68.6129 11.8347C69.4452 11.8344 72.8685 10.6872 73.3298 10.2539C73.5703 10.0279 73.7479 9.66216 73.7479 9.3927C73.7479 8.77207 73.1291 8.00702 72.6272 8.00702C72.2976 8.00702 72.1615 8.18922 71.8471 9.05143C71.6377 9.62585 71.3922 10.0958 71.3016 10.0958C71.211 10.0958 71.1369 9.50836 71.1369 8.79033V7.48481H69.2435C67.7728 7.48481 67.3016 7.42652 67.1333 7.22371C66.9414 6.99241 67.5895 6.96573 72.8127 6.98996C76.0556 7.005 78.3172 7.06374 77.8385 7.12051L76.9682 7.22371L76.9137 7.98129C76.8747 8.52474 76.9483 8.83712 77.1739 9.08646C77.4797 9.42437 77.4743 9.44531 76.9817 9.83818C76.4834 10.2355 76.4799 10.2501 76.7756 10.7014C77.0692 11.1495 77.0658 11.1688 76.6306 11.5111C76.3854 11.704 76.1848 11.9387 76.1848 12.0328C76.1848 12.1268 76.5011 12.6694 76.8876 13.2386C77.3702 13.9494 77.7045 14.2735 77.955 14.2735C78.4317 14.2735 79.4457 13.6411 79.6845 13.1948C79.893 12.8053 80.1549 12.9512 80.264 13.5178C80.365 14.0424 80.2083 14.1968 78.7047 15.0537C77.033 16.0063 76.7978 16.0388 76.9462 15.2969C77.0327 14.8646 76.9278 14.5445 76.4326 13.7294C76.0904 13.166 75.6596 12.6243 75.4754 12.5257C75.2912 12.4271 75.1404 12.1632 75.1404 11.9392C75.1404 11.6538 74.9748 11.4517 74.587 11.2639C74.081 11.0188 73.9655 11.0225 73.238 11.3075C72.8004 11.4789 72.1682 11.6724 71.8331 11.7374C71.498 11.8024 70.5798 12.0276 69.7927 12.2377C68.5269 12.5757 68.3499 12.6724 68.261 13.0745C68.1119 13.7496 67.5102 13.9252 65.3409 13.9269L63.3908 13.9284L62.7189 14.9713C62.1526 15.8502 61.9678 16.0142 61.5439 16.0142C61.2349 16.0142 61.0409 15.9226 61.0409 15.7767ZM75.2552 5.04798C76.2492 4.76077 77.113 4.52578 77.1749 4.52578C77.2367 4.52578 77.2428 4.48125 77.1883 4.42683C77.0947 4.33325 73.4073 5.3305 73.2444 5.49347C73.0909 5.64698 73.4823 5.56026 75.2552 5.04798ZM87.4123 14.9887C86.7806 14.8927 86.7109 14.8305 86.6616 14.3189C86.6198 13.8859 86.7712 13.526 87.3143 12.7675C87.7054 12.2214 88.0215 11.5782 88.0215 11.3287C88.0215 11.0485 87.394 9.9375 86.366 8.39786L84.7106 5.91832H82.3744H80.0382L79.9828 4.30543L79.9273 2.69255L80.8847 2.69531C81.8205 2.69801 81.8434 2.68628 81.899 2.17586C81.9623 1.59459 82.2772 1.13409 82.2772 1.62273C82.2772 1.78763 82.6006 2.27328 82.9957 2.70196L83.7141 3.48137H85.8617C87.8311 3.48137 88.0247 3.51026 88.1956 3.82951C88.3704 4.15622 88.3279 4.17765 87.5054 4.17765C86.8424 4.17765 86.629 4.24122 86.629 4.43875C86.629 4.63774 86.8467 4.69985 87.5445 4.69985C88.2715 4.69985 88.5047 4.77154 88.6774 5.04799C88.9935 5.55416 91.0809 5.55416 91.7244 5.04799C92.1116 4.74345 92.4306 4.69985 94.2719 4.69985C96.0269 4.69985 96.3768 4.65644 96.3768 4.43875C96.3768 4.22 96.0084 4.17765 94.1055 4.17765H91.8342L91.5971 3.61365C91.4666 3.30345 91.3967 2.99013 91.4417 2.91738C91.4866 2.84463 92.8504 2.7851 94.4723 2.7851H97.4212V3.39434C97.4212 3.81984 97.4999 4.00358 97.6823 4.00358C97.8259 4.00358 97.9434 4.12108 97.9434 4.26468C97.9434 4.40829 97.8259 4.52578 97.6823 4.52578C97.4815 4.52578 97.4212 4.7493 97.4212 5.49302C97.4212 6.28246 97.2912 6.71265 96.7142 7.83335C96.0241 9.17372 96.0081 9.24486 96.0427 10.8179C96.0665 11.8997 96.0127 12.4512 95.8793 12.4957C95.77 12.5321 95.6805 12.6958 95.6805 12.8593C95.6805 13.2737 94.3335 14.5501 93.5538 14.8746C93.0641 15.0784 92.3227 15.1379 90.5076 15.1192C89.1881 15.1057 87.7952 15.0469 87.4123 14.9887ZM93.6159 13.6466L94.4701 13.0196L94.4225 10.0347L94.375 7.04977L91.1982 7.00233C87.4722 6.94668 87.548 6.89073 88.8918 8.70342L89.7622 9.87745V12.0755V14.2736H91.2619C92.71 14.2736 92.7912 14.252 93.6159 13.6466ZM90.1103 11.7586V9.59183L89.24 8.54601C88.7613 7.97081 88.3696 7.45759 88.3696 7.40553C88.3696 7.35346 89.6621 7.31087 91.2418 7.31087H94.1139V9.9736V12.6363L93.4538 13.2809C92.8081 13.9114 92.7645 13.9255 91.452 13.9255H90.1103V11.7586ZM85.4105 4.43874C85.4105 4.21908 85.0237 4.17764 82.9735 4.17764C80.9234 4.17764 80.5366 4.21909 80.5366 4.43874C80.5366 4.6584 80.9234 4.69984 82.9735 4.69984C85.0237 4.69984 85.4105 4.65839 85.4105 4.43874ZM60.5866 14.5476C60.4282 14.1349 60.6523 13.7181 60.9969 13.7844C61.1896 13.8215 61.302 14.0018 61.302 14.2736C61.302 14.7698 60.7526 14.9802 60.5866 14.5476ZM77.3575 13.541C76.2975 12.1042 76.3145 12.1631 76.8103 11.6456C77.2373 11.1999 77.2456 11.1547 76.9906 10.6615C76.7326 10.1627 76.7386 10.1375 77.1585 9.94615C77.3979 9.83707 77.6197 9.74783 77.6514 9.74783C77.6832 9.74783 78.0097 10.1982 78.3772 10.7487C78.7446 11.2992 79.1822 11.9084 79.3496 12.1024C79.7358 12.5501 79.6043 13.0808 78.9955 13.5309C78.1297 14.171 77.8237 14.1729 77.3575 13.541ZM61.1229 11.3726C60.2877 9.95243 59.4542 8.54051 59.2705 8.23504C58.9401 7.68568 58.9402 7.67762 59.281 7.49525C59.4705 7.39384 60.3944 7.30838 61.3341 7.30533C62.5599 7.30138 63.1382 7.22758 63.3806 7.04423C64.084 6.51223 64.2654 6.69802 65.0434 8.74693C65.6281 10.2866 65.9495 10.8739 66.5472 11.4945C67.0644 12.0314 67.3074 12.4349 67.3074 12.7565V13.2292H65.2284C63.3188 13.2292 63.1288 13.2587 62.8954 13.592C62.6541 13.9365 62.5646 13.8246 61.1229 11.3726ZM66.7852 12.8773C66.7852 12.5764 65.8809 11.3144 65.6653 11.3144C65.4985 11.3144 64.6963 12.6873 64.6963 12.9727C64.6963 13.0181 65.1663 13.0551 65.7407 13.0551C66.3356 13.0551 66.7852 12.9786 66.7852 12.8773ZM97.7155 13.4468C97.6381 13.3271 97.3443 13.2292 97.0628 13.2292H96.5508V11.0326V8.83599L97.2036 7.76881L97.8564 6.70163L97.906 8.38954C97.9804 10.9149 97.8757 13.6943 97.7155 13.4468ZM98.4529 8.93551C98.4459 6.36655 98.3816 3.85344 98.31 3.35081L98.1799 2.43696H98.8325C99.9136 2.43696 100.094 2.76858 99.963 4.5159C99.4528 11.3223 99.161 13.3783 98.6832 13.535C98.513 13.5908 98.4628 12.5897 98.4529 8.93551ZM37.6292 11.316C37.442 10.7263 37.6862 10.6182 39.2056 10.6182H40.6749V11.1404V11.6626H39.2071C37.8943 11.6626 37.7276 11.626 37.6292 11.316ZM19.0986 10.7487C19.1136 10.0249 19.527 8.09373 19.6575 8.13769C19.7286 8.16162 19.9329 8.18121 20.1115 8.18121C20.4 8.18121 20.4203 8.26387 20.2931 8.921C20.2144 9.32789 20.1466 9.9937 20.1424 10.4006C20.1352 11.1048 20.1098 11.1404 19.6126 11.1404C19.1847 11.1404 19.0919 11.0697 19.0986 10.7487ZM26.7697 10.6281C27.0865 10.1995 27.1312 9.97006 27.0428 9.22431C26.9426 8.37803 26.9568 8.33564 27.322 8.38759C27.6321 8.43169 27.7176 8.57424 27.7625 9.12199C27.8433 10.1092 27.6985 10.4966 27.1214 10.8375C26.405 11.2607 26.3334 11.2181 26.7697 10.6281ZM8.85522 10.5834C8.55452 10.2826 8.58703 8.6212 8.89868 8.36255C9.03747 8.24737 9.37042 8.17614 9.63858 8.20427C9.90673 8.2324 10.2292 8.19171 10.3552 8.11385C10.4812 8.03598 10.6066 7.9997 10.634 8.03323C10.6613 8.06675 10.6041 8.70124 10.5069 9.4432L10.3302 10.7922H9.69715C9.34898 10.7922 8.97011 10.6982 8.85522 10.5834ZM10.7352 10.2073C10.7352 8.98872 10.95 8.00714 11.2168 8.00714C11.4206 8.00714 11.4536 8.14858 11.3691 8.6599C11.3098 9.01891 11.2603 9.64556 11.2593 10.0524C11.2579 10.5931 11.1871 10.7922 10.9963 10.7922C10.816 10.7922 10.7352 10.6112 10.7352 10.2073ZM11.6708 9.55188C11.7342 8.86968 11.8284 8.24303 11.8801 8.15933C11.9319 8.07563 12.5027 8.00714 13.1488 8.00714H14.3233L14.1584 9.22562L13.9935 10.4441H13.1579C12.6983 10.4441 12.2739 10.5224 12.2147 10.6182C12.1556 10.7139 11.983 10.7922 11.8313 10.7922C11.5946 10.7922 11.5719 10.6163 11.6708 9.55188ZM20.6885 10.6175C20.4206 10.504 20.3132 10.3435 20.3692 10.1406C20.4157 9.97245 20.5043 9.46279 20.5661 9.00803L20.6784 8.18121H22.5224C24.2672 8.18121 24.3517 8.19761 24.0919 8.48583C23.6978 8.92314 23.569 9.60095 23.7763 10.1463C23.9521 10.6086 23.9422 10.6182 23.2881 10.6182C22.9209 10.6182 22.2766 10.6565 21.8563 10.7034C21.4361 10.7503 20.9105 10.7116 20.6885 10.6175ZM14.3906 10.0332C14.3906 9.7115 14.4404 9.08486 14.5013 8.64067L14.612 7.83307H15.3765H16.141L16.0348 9.00803C15.8891 10.621 15.8908 10.6182 15.0923 10.6182C14.4119 10.6182 14.3906 10.6004 14.3906 10.0332ZM24.6006 10.2998C23.9598 9.59181 24.4906 8.48583 25.4712 8.48583C25.9961 8.48583 26.5754 9.06667 26.5754 9.59304C26.5754 10.4524 25.188 10.949 24.6006 10.2998ZM28.3161 9.34747C28.3161 8.64858 28.232 7.99273 28.1293 7.89002C28.0266 7.78731 27.9679 7.43874 27.9988 7.11542L28.055 6.52756L29.404 6.47672L30.753 6.42587V8.14353C30.753 9.71392 30.7185 9.89365 30.3501 10.2397C30.0548 10.5171 29.7295 10.6182 29.1317 10.6182H28.3161V9.34747ZM16.2086 9.4432C16.3988 7.82245 16.3176 7.90016 17.7411 7.97554C18.4354 8.01232 19.0475 8.09321 19.1014 8.15532C19.1552 8.21743 19.1288 8.75781 19.0427 9.35617L18.886 10.4441H17.4886H16.0912L16.2086 9.4432ZM37.0398 10.0837C36.6226 9.82944 36.3966 9.77884 36.2652 9.91032C36.1523 10.0232 35.1719 10.096 33.7644 10.096H31.4493V9.66079V9.22562H38.1364C43.3232 9.22562 44.8432 9.1768 44.9113 9.00803C44.9596 8.88836 45.0053 9.08419 45.0129 9.4432L45.0266 10.096H43.93C43.3092 10.096 42.7427 10.0053 42.6245 9.88708C42.462 9.72461 42.3692 9.72461 42.2067 9.88708C42.0918 10.002 41.7831 10.096 41.5207 10.096C41.2583 10.096 40.9952 10.1743 40.936 10.27C40.8769 10.3658 40.1085 10.4438 39.2286 10.4434C37.9197 10.4429 37.5216 10.3775 37.0398 10.0837ZM45.4964 8.86988C45.4439 8.66907 45.4942 8.47259 45.6095 8.42836C45.7237 8.38453 47.6563 8.36973 49.9041 8.39549C53.8595 8.4408 53.9911 8.45353 53.9911 8.79045C53.9911 9.12768 53.8596 9.14004 49.7911 9.18515C45.6652 9.23089 45.5894 9.22532 45.4964 8.86988ZM26.2272 8.00714C26.0834 7.91418 24.5396 7.83721 22.7894 7.83574C20.7894 7.83404 19.6126 7.7686 19.6126 7.65901C19.6126 7.56327 19.721 7.48494 19.8534 7.48494C19.9859 7.48494 20.1352 7.32828 20.1853 7.1368C20.2728 6.80222 20.4227 6.78866 24.0351 6.78866H27.7939V7.48494C27.7939 8.17395 27.787 8.18118 27.1411 8.17854C26.7821 8.17707 26.3709 8.09995 26.2272 8.00714ZM53.9224 7.7681C53.6324 7.41867 53.8797 6.93447 54.3161 6.99705C54.7436 7.05832 54.9174 7.63544 54.574 7.85307C54.2513 8.05754 54.1519 8.04457 53.9224 7.7681ZM78.9106 6.09239C79.0803 5.80518 79.2732 5.57019 79.3393 5.57019C79.5165 5.57019 79.2932 6.33218 79.0722 6.48138C78.6767 6.74856 78.6132 6.59582 78.9106 6.09239ZM0.409837 6.12746C-0.0390183 5.63148 -0.130486 4.82452 0.191563 4.20175L0.474073 3.65544H4.91567H9.35726L9.30641 5.00447L9.25557 6.35349L4.97705 6.39999C1.01572 6.44303 0.677141 6.42283 0.409837 6.12746ZM5.86125 5.65722C5.86125 5.43802 5.4841 5.39612 3.51133 5.39612C1.53855 5.39612 1.16141 5.43803 1.16141 5.65722C1.16141 5.87642 1.53855 5.91832 3.51133 5.91832C5.4841 5.91832 5.86125 5.87642 5.86125 5.65722ZM5.86125 4.43874C5.86125 4.21955 5.4841 4.17764 3.51133 4.17764C1.53855 4.17764 1.16141 4.21955 1.16141 4.43874C1.16141 4.65794 1.53855 4.69985 3.51133 4.69985C5.4841 4.69985 5.86125 4.65794 5.86125 4.43874ZM21.1157 6.31896C20.9733 6.17657 23.9532 3.13323 24.235 3.13323C24.34 3.13323 24.6098 2.9374 24.8347 2.69806C25.0837 2.433 25.4358 2.26289 25.7354 2.26289C26.0059 2.26289 26.2272 2.18456 26.2272 2.08882C26.2272 1.99308 26.1051 1.91475 25.9559 1.91475C25.8066 1.91475 25.7329 1.83642 25.7921 1.74068C25.8625 1.62671 31.3413 1.56662 41.6612 1.56662C55.5999 1.56662 57.4111 1.59681 57.3225 1.82772C57.2341 2.05802 58.455 2.08882 67.6724 2.08882C74.9259 2.08882 78.2317 2.03037 78.4795 1.89776C78.91 1.66734 79.2587 1.94902 79.3474 2.5989C79.3991 2.97779 79.296 3.05622 78.3607 3.35029C77.3642 3.66357 76.756 3.67363 65.1066 3.56955C58.3913 3.50955 50.6757 3.5169 47.9609 3.5859L43.0248 3.71133L41.931 5.07593L40.8371 6.44053H35.9794C32.9287 6.44053 31.0817 6.37578 31.0141 6.26646C30.8738 6.03942 28.0212 6.03942 27.8809 6.26646C27.8161 6.37124 26.6185 6.44053 24.872 6.44053H21.9707L23.3592 5.04247L24.7477 3.6444L24.7999 4.6073L24.8521 5.57019H26.2359C27.0425 5.57019 27.6198 5.49757 27.6198 5.39612C27.6198 5.29941 27.1556 5.22205 26.5754 5.22205H25.531V4.60519V3.98832L26.7901 4.03946L28.0492 4.09061L27.9952 4.8304L27.9413 5.57019H29.2601C30.0233 5.57019 30.579 5.49685 30.579 5.39612C30.579 5.29776 30.0821 5.22205 29.4365 5.22205H28.294L28.3486 4.65633L28.4031 4.09061L29.7521 4.03977L31.1012 3.98893V4.77955V5.57018H32.4067C33.161 5.57018 33.7122 5.49669 33.7122 5.39612C33.7122 5.29792 33.219 5.22205 32.5807 5.22205H31.4493V4.61281V4.00357H32.7548H34.0603V4.78688V5.57018H35.3658C36.1201 5.57018 36.6713 5.49669 36.6713 5.39612C36.6713 5.29792 36.1782 5.22205 35.5399 5.22205H34.4085V4.60549V3.98893L35.7575 4.03977L37.1065 4.09061L37.1604 4.83754L37.2143 5.58446L38.5529 5.53381C39.8839 5.48344 39.8919 5.48029 39.9487 4.98344C39.9801 4.70859 39.964 4.31694 39.9128 4.1131C39.8198 3.74257 39.8179 3.74247 32.7334 3.74247C27.2191 3.74247 25.631 3.69421 25.5745 3.52489C25.4167 3.05162 24.8524 3.38343 23.2713 4.87919C21.6831 6.38167 21.3805 6.58378 21.1157 6.31896ZM34.9125 3.3222C35.0461 3.23759 35.1073 3.04297 35.0485 2.8897C34.9638 2.66888 34.6738 2.61103 33.6519 2.61103C32.3029 2.61103 31.7636 2.85566 32.1845 3.27663C32.4231 3.51525 34.5515 3.55081 34.9125 3.3222ZM38.6199 3.28638C38.725 3.22147 38.7628 3.04297 38.704 2.8897C38.6201 2.67117 38.3359 2.61103 37.3873 2.61103C36.722 2.61103 36.0537 2.65857 35.9023 2.71668C35.5736 2.84279 35.5386 3.24053 35.8445 3.37124C36.1453 3.49973 38.3856 3.43124 38.6199 3.28638ZM42.2234 3.32679C42.357 3.23966 42.4182 3.04296 42.3594 2.88969C42.2025 2.48074 39.4955 2.48074 39.3386 2.88969C39.2798 3.04296 39.3266 3.22707 39.4427 3.29882C39.752 3.48995 41.9394 3.51195 42.2234 3.32679ZM44.8194 3.00268C44.7753 2.77353 44.5894 2.69806 44.0692 2.69806C43.5491 2.69806 43.3632 2.77353 43.3191 3.00268C43.27 3.2575 43.3926 3.3073 44.0692 3.3073C44.7459 3.3073 44.8685 3.2575 44.8194 3.00268ZM9.77779 6.13324C9.68205 6.0629 9.60372 5.53537 9.60372 4.96095C9.60372 4.00644 9.72906 3.66531 10.0824 3.6581C10.1542 3.65665 10.213 4.24291 10.213 4.96095C10.213 6.22464 10.1464 6.40403 9.77779 6.13324ZM14.6006 5.00446L14.6517 3.74247L16.1748 3.69217L17.6979 3.64188V4.95416V6.26645H16.1237H14.5494L14.6006 5.00446ZM19.0904 6.10753L18.1331 6.00536V4.96095V3.91654L18.8823 3.86255C19.3927 3.82577 19.6662 3.71477 19.74 3.51441C19.9211 3.02289 20.155 2.9646 21.9575 2.96183L23.6932 2.95913L22.5668 4.098C21.5509 5.12507 21.4345 5.19769 21.3802 4.83779C21.3471 4.6183 21.2323 4.33204 21.1251 4.20166C20.3045 3.20341 18.6533 4.25406 19.2603 5.38821C19.4828 5.80404 20.2374 6.15709 20.5245 5.97968C20.6347 5.91154 20.6601 5.94658 20.5866 6.06547C20.5183 6.176 20.3692 6.25366 20.2551 6.23806C20.1411 6.22245 19.617 6.16374 19.0904 6.10753ZM10.5611 4.96095V3.80849L11.1931 3.86251L11.825 3.91654V4.96095V6.00536L11.1931 6.05939L10.5611 6.11342V4.96095ZM12.1277 4.96095V3.8295H12.7369H13.3462V4.96095V6.09239H12.7369H12.1277V4.96095ZM13.6943 4.96095C13.6943 4.07126 13.7501 3.8295 13.9554 3.8295C14.1607 3.8295 14.2165 4.07126 14.2165 4.96095C14.2165 5.85063 14.1607 6.09239 13.9554 6.09239C13.7501 6.09239 13.6943 5.85063 13.6943 4.96095ZM19.7267 5.42593C19.322 4.97874 19.3681 4.57996 19.8621 4.25631C20.4489 3.87183 21.0052 4.1724 21.0052 4.87391C21.0052 5.66398 20.2408 5.99402 19.7267 5.42593ZM50.0746 4.78688L49.1291 3.8295H55.7813H62.4334V4.78688V5.74425H56.7268H51.0201L50.0746 4.78688ZM62.7671 5.70074C62.7591 5.67681 62.733 5.48098 62.7091 5.26557C62.667 4.88569 62.7118 4.87391 64.2032 4.87391C65.0488 4.87391 65.7407 4.82022 65.7407 4.75458C65.7407 4.68895 65.5704 4.45396 65.3623 4.23238L64.9838 3.8295H70.4451C73.511 3.8295 75.8338 3.89525 75.741 3.97941C75.4876 4.20909 70.4027 5.57019 69.798 5.57019C69.5047 5.57019 69.1672 5.45269 69.048 5.30908C68.7121 4.90432 67.2648 4.96221 66.8722 5.39612C66.594 5.70349 66.336 5.74425 64.6693 5.74425C63.6311 5.74425 62.7751 5.72467 62.7671 5.70074ZM37.4001 4.65633C37.4535 4.10265 37.4746 4.08947 38.3913 4.0372C39.6293 3.96662 39.7652 4.0353 39.67 4.68372C39.5911 5.22164 39.5901 5.22205 38.4683 5.22205H37.3456L37.4001 4.65633ZM42.6929 4.8304C43.1548 4.01842 43.2154 4.00357 46.0654 4.00357H48.791L49.2913 4.52578L49.7916 5.04798H46.1804C43.3414 5.04798 42.5956 5.00145 42.6929 4.8304ZM88.7057 4.01419L88.3359 3.15448L86.1356 3.15645L83.9353 3.15843L83.2803 2.45626C82.8208 1.96365 82.6254 1.59625 82.6254 1.22516V0.69621H86.9558C91.8064 0.69621 91.8133 0.697922 91.5981 1.84505C91.5223 2.24905 91.3637 2.50587 91.1566 2.56003C90.8432 2.64199 90.8437 2.66858 91.1722 3.43508C91.6897 4.64233 91.5317 4.87385 90.1904 4.87385H89.0755L88.7057 4.01419ZM62.8417 4.30819C62.6587 4.01199 63.0245 3.8295 63.8015 3.8295C64.5248 3.8295 65.0445 4.04417 65.0445 4.343C65.0445 4.49 62.9335 4.45663 62.8417 4.30819ZM20.1663 2.21937C20.2195 1.84446 20.3022 1.8256 22.0996 1.77825C23.5279 1.74061 24.0356 1.78704 24.2207 1.97221C24.6972 2.44863 24.1554 2.61102 22.0897 2.61102C20.1369 2.61102 20.1114 2.60583 20.1663 2.21937ZM18.053 1.13981C17.9376 1.0008 17.8707 0.746224 17.9043 0.574084C17.9594 0.291478 18.1444 0.267218 19.8111 0.324116C21.0415 0.366123 21.6967 0.322605 21.7765 0.193565C21.8422 0.087104 22.2464 0 22.6746 0C23.2573 0 23.4812 0.0766024 23.565 0.304619C23.6266 0.472161 23.7808 0.67188 23.9077 0.74844C24.0346 0.825 24.1384 1.00124 24.1384 1.14009C24.1384 1.51405 18.3633 1.51378 18.053 1.13981ZM27.3255 1.10779C27.13 0.598254 27.5205 0.264248 28.3774 0.20805C29.0159 0.166175 29.1864 0.212062 29.1864 0.425635C29.1864 0.771161 29.4661 0.77765 29.5975 0.435175C29.6732 0.237869 29.9922 0.174072 30.903 0.174072C31.8899 0.174072 32.1297 0.229277 32.2264 0.478691C32.3389 0.768806 32.3552 0.768806 32.5688 0.478691C32.8484 0.0991144 33.7122 0.0662375 33.7122 0.435178C33.7122 0.773081 33.9936 0.773081 34.1233 0.435178C34.199 0.237872 34.518 0.174076 35.4288 0.174076C36.4157 0.174076 36.6555 0.22928 36.7522 0.478695C36.8647 0.768809 36.881 0.768809 37.0946 0.478695C37.3871 0.0815895 38.1651 0.0815895 38.3181 0.478695C38.4299 0.768809 38.4436 0.768809 38.6064 0.478695C38.8573 0.0318387 41.1047 0.0318387 41.278 0.478695C41.3904 0.768809 41.4067 0.768809 41.6204 0.478695C41.9128 0.0816592 42.6907 0.0816592 42.8446 0.478695C42.957 0.768809 42.9733 0.768809 43.187 0.478695C43.5135 0.0354414 45.6319 0.0354414 45.8037 0.478695C45.9162 0.768809 45.9325 0.768809 46.1462 0.478695C46.4386 0.0816592 47.2164 0.0816592 47.3703 0.478695C47.4828 0.768809 47.4991 0.768809 47.7128 0.478695C48.0284 0.0501854 50.1577 0.0340008 50.3207 0.458873C50.4219 0.722555 50.4533 0.722555 50.7447 0.458873C51.1574 0.0853332 51.7476 0.0954922 51.8961 0.478695C52.0086 0.768809 52.0249 0.768809 52.2386 0.478695C52.5461 0.0611632 54.6794 0.0351889 54.9094 0.446176C55.0475 0.692932 55.0827 0.692932 55.2875 0.446176C55.5907 0.0808901 56.2753 0.100515 56.4219 0.478695C56.5344 0.768809 56.5507 0.768809 56.7643 0.478695C57.089 0.0377874 59.2012 0.0377874 59.4656 0.478695C59.6397 0.768809 59.6571 0.768809 59.8311 0.478695C60.0677 0.0842625 60.7948 0.0842625 60.9477 0.478695C61.0601 0.768809 61.0765 0.768809 61.2901 0.478695C61.6148 0.0377874 63.727 0.0377874 63.9914 0.478695C64.1654 0.768809 64.1828 0.768809 64.3569 0.478695C64.5934 0.0842625 65.3205 0.0842625 65.4734 0.478695C65.5859 0.768809 65.6022 0.768809 65.8159 0.478695C66.1406 0.0377874 68.2527 0.0377874 68.5172 0.478695C68.6912 0.768809 68.7086 0.768809 68.8826 0.478695C69.1192 0.0842625 69.8463 0.0842625 69.9992 0.478695C70.1117 0.768809 70.128 0.768809 70.3417 0.478695C70.6478 0.0630651 73.0516 0.0244638 73.0516 0.435182C73.0516 0.773084 73.333 0.773084 73.4627 0.435182C73.5974 0.0842882 74.3792 0.101873 74.5162 0.458873C74.6174 0.722555 74.6488 0.722555 74.9402 0.458873C75.3594 0.0794839 77.4928 0.050792 77.6355 0.422622C77.688 0.559324 77.9503 0.696402 78.2184 0.727241C78.5155 0.761419 78.7284 0.902242 78.7636 1.08793C78.8185 1.37693 77.5039 1.39255 53.1281 1.39255C29.5014 1.39255 27.426 1.36964 27.3255 1.10779Z" />
</svg>
