<svg width="100" height="39" viewBox="0 0 100 39"  xmlns="http://www.w3.org/2000/svg">
<path d="M0.969967 37.6242C0.154885 37.1034 -0.132762 36.6394 0.055428 36.149C0.244915 35.6552 0.349973 35.677 1.60044 36.47C2.74658 37.1969 2.85015 37.3694 2.40671 37.8128C2.04239 38.1771 1.78185 38.1429 0.969967 37.6242ZM57.6047 37.5242C57.6841 37.4437 59.8637 35.9256 62.4482 34.1504C65.6125 31.977 67.1881 30.7562 67.2724 30.4124C67.3887 29.9379 67.5473 29.8972 69.5211 29.8356L71.6447 29.7693V30.7603C71.6447 31.5016 71.7609 31.824 72.1059 32.0394C72.5404 32.3108 72.5672 32.2698 72.5672 31.3338C72.5672 30.7873 72.4403 30.2132 72.2852 30.0581C72.0629 29.8358 72.9301 29.7893 76.379 29.8389L80.7549 29.9019L80.8265 30.7668L80.8981 31.6317H82.9317C84.4579 31.6317 85.0369 31.718 85.2524 31.9776C85.7528 32.5806 85.9443 32.3573 85.9443 31.1704V30.0172H90.2111H94.4779L94.4749 31.1127C94.4687 33.0482 95.546 32.8969 81.556 32.9271L69.078 32.954L65.8064 35.2335L62.5349 37.513L59.9978 37.5917C58.6025 37.635 57.5253 37.6045 57.6047 37.5242ZM54.3467 37.2085C53.2916 36.7303 52.6297 35.9688 51.2011 33.589C49.6368 30.9834 49.6086 30.9529 48.7537 30.9464C48.278 30.9428 47.8888 30.836 47.8888 30.7091C47.8888 30.5719 47.0186 30.4785 45.7393 30.4785C43.734 30.4785 43.5562 30.5172 43.0885 31.0551L42.5871 31.6317L34.9169 31.6308C25.8861 31.6298 26.5558 31.8155 24.4373 28.723C21.6795 24.6972 21.6046 24.6637 15.5737 24.7574L11.0507 24.8278L11.3958 24.3016C11.8672 23.583 11.5356 23.3308 11.0444 24.0345C10.8284 24.3439 10.3259 24.9085 9.92787 25.2891C9.5298 25.6696 9.13788 26.1717 9.05694 26.4047C8.92071 26.797 8.85713 26.7841 8.20065 26.2317C7.81062 25.9035 7.3368 25.635 7.1477 25.635C6.67501 25.635 6.93118 24.8961 7.90621 23.447C8.33185 22.8145 8.68152 22.0361 8.68325 21.7172C8.69076 20.3337 8.88885 20.0997 10.0524 20.0997C11.3553 20.0997 11.495 19.9944 11.1618 19.2632C10.9722 18.847 10.9762 18.6339 11.1773 18.4328C11.5155 18.0946 11.5402 14.7068 11.209 14.0879C11.0093 13.7148 11.047 13.6418 11.4396 13.6418C11.6978 13.6418 11.909 13.538 11.909 13.4111C11.909 13.2843 11.4028 13.1805 10.7841 13.1805C9.28749 13.1805 9.10494 12.9125 9.18849 10.8378L9.25668 9.14431L10.0909 9.07455C10.9121 9.00588 10.9273 8.98607 11.0691 7.80603C11.1483 7.14671 11.214 6.16778 11.2151 5.63064C11.2166 4.87061 11.4345 4.3243 12.1973 3.16742C13.107 1.78791 13.2398 1.67968 14.0425 1.66468C14.5181 1.65579 14.908 1.72636 14.9088 1.8215C14.9096 1.91664 15.221 2.17128 15.6007 2.38737C15.9805 2.60346 16.2912 2.94077 16.2912 3.13695C16.2912 3.45519 17.9428 3.49364 31.6151 3.49364C42.011 3.49364 46.9869 3.57106 47.0878 3.73438C47.1696 3.86679 47.1111 4.12626 46.9579 4.31098C46.719 4.59883 44.4984 4.64683 31.4212 4.64683H16.1634L15.4079 5.33681C14.7125 5.97202 14.658 6.12307 14.7223 7.23958L14.792 8.45237L30.8046 8.63992C46.3689 8.82222 46.8338 8.81512 47.4107 8.38637C48.2834 7.73767 48.349 6.41081 47.5495 5.57634C47.0669 5.07258 47.008 4.89926 47.2512 4.69747C47.4553 4.52809 50.3193 4.43086 56.0334 4.39936C63.4125 4.35866 64.5491 4.39848 64.7921 4.70603C64.9458 4.90041 66.6012 5.56033 68.4708 6.17251C71.7388 7.24257 71.8975 7.32371 72.579 8.2726L73.2878 9.25962H71.9337C71.1002 9.25962 70.4075 9.12944 70.1319 8.92099C69.6174 8.53182 68.5109 8.45772 68.3004 8.79834C68.215 8.93655 66.6785 9.02898 64.4661 9.02898C62.3734 9.02898 60.582 9.13191 60.3303 9.26662C60.0041 9.44118 59.7051 9.41058 59.2037 9.15129C58.3246 8.69673 56.4151 8.69904 55.3195 9.15603C54.3236 9.57142 53.0077 10.7602 52.7156 11.5084L52.513 12.0273L44.2619 12.0324C35.2896 12.038 35.446 12.0163 34.7612 13.3535L34.4955 13.8724H24.3434H14.1914L14.3494 11.8543C14.4363 10.7444 14.554 9.78434 14.611 9.72091C14.668 9.65749 15.3548 9.54358 16.1372 9.46779L17.5597 9.32998L16.1759 9.30214C14.167 9.26173 13.9864 9.46872 13.9775 11.8221C13.9725 13.1569 13.8651 13.896 13.6315 14.2048C13.4268 14.4754 13.2929 15.1665 13.2929 15.9521C13.2929 17.0123 13.3912 17.344 13.8267 17.7531C14.3331 18.2288 14.5693 18.2546 18.4259 18.2546C20.6618 18.2546 22.5499 18.3495 22.6216 18.4655C22.6933 18.5815 22.6292 18.7174 22.4791 18.7674C21.9041 18.9591 22.5876 19.4078 23.4546 19.4078C24.1088 19.4078 24.3636 19.3108 24.3636 19.0618C24.3636 18.672 24.7441 18.5889 24.8652 18.9523C24.9177 19.1095 28.6444 19.1872 35.9865 19.1842C45.9969 19.18 47.055 19.1439 47.3083 18.7975C47.5052 18.5283 47.6363 18.4938 47.7519 18.6809C47.8422 18.827 48.3769 18.9465 48.9403 18.9465C49.5272 18.9465 49.9646 19.0541 49.9646 19.1985C49.9646 19.3597 49.5077 19.422 48.6957 19.3715C47.4551 19.2942 47.0633 19.4493 47.7923 19.729C47.993 19.8061 48.979 19.869 49.9834 19.869C51.0472 19.869 51.8097 19.9653 51.8097 20.0997C51.8097 20.2471 49.7867 20.3303 46.2022 20.3303H40.5946L39.9317 21.0222C39.3222 21.6585 39.1424 21.7142 37.6975 21.7142C36.2116 21.7142 36.1262 21.6853 36.1262 21.1837C36.1262 20.3116 35.6914 20.0997 33.9026 20.0997C32.0832 20.0997 31.8617 20.2373 31.8602 21.3682L31.8593 22.0601L30.3025 22.1283L28.7457 22.1965V21.2498C28.7457 20.6611 28.6562 20.3584 28.5089 20.4494C28.3787 20.5299 28.2872 20.7177 28.3056 20.8667C28.3957 21.5963 28.2485 21.7142 27.2466 21.7142C25.8642 21.7142 25.9117 22.1311 27.3042 22.2205C28.2508 22.2812 28.4101 22.3637 28.4758 22.8277C28.5177 23.1229 29.322 24.4464 30.2633 25.7687C31.2045 27.091 31.9747 28.2286 31.9747 28.2967C31.9747 28.3649 31.0718 28.3907 29.9682 28.354L27.9618 28.2874L25.4562 25.0008L22.9507 21.7142H16.9224C12.2338 21.7142 10.9557 21.7757 11.171 21.9909C11.3232 22.1432 11.4509 22.4805 11.4547 22.7405C11.4611 23.1724 11.4821 23.1784 11.6968 22.8097C11.9095 22.4446 12.4171 22.4061 17.011 22.4061C21.6284 22.4061 22.0571 22.439 21.7277 22.7685C21.2927 23.2035 21.2772 23.379 21.642 23.7438C22.3777 24.4795 23.3215 23.6982 22.7678 22.8117C22.6072 22.5544 22.5862 22.3919 22.7197 22.4386C22.8497 22.4842 23.991 23.9744 25.2558 25.7504C27.0363 28.2505 27.4815 29.0209 27.228 29.1637C26.7994 29.4052 26.8094 30.1157 27.2465 30.4785C27.9467 31.0595 28.6646 29.7977 28.0076 29.1408C27.7924 28.9255 29.2275 28.864 34.4655 28.864C38.8016 28.864 41.2002 28.9461 41.2002 29.0946C41.2002 29.2215 41.0964 29.3253 40.9696 29.3253C40.6484 29.3253 40.6806 30.0972 41.0157 30.4323C41.382 30.7986 41.5559 30.7818 42.0005 30.3372C42.3309 30.0068 42.3345 29.9074 42.0333 29.4476L41.6941 28.93L44.8491 28.8935C48.3646 28.8529 48.3144 28.8751 49.175 26.9755C49.6763 25.8691 49.4642 25.054 48.5523 24.5825L47.8386 24.2134L48.4834 23.5404C49.1215 22.8744 49.1557 22.8673 51.7375 22.8673C54.2264 22.8673 54.6066 22.9604 54.1403 23.4555C54.0268 23.576 53.866 23.9978 53.7829 24.3929C53.6628 24.9639 53.7536 25.2559 54.2261 25.8174C54.553 26.2058 55.1335 26.5924 55.5161 26.6765C55.9402 26.7696 56.7741 27.4 57.6524 28.2913C58.5251 29.1769 59.3623 29.8108 59.7758 29.899C60.1514 29.9791 60.6143 30.1249 60.8046 30.223C61.193 30.4232 63.0173 32.9649 62.8637 33.0919C62.8094 33.1368 61.35 34.1239 59.6207 35.2856C56.9606 37.0723 56.3389 37.3951 55.5845 37.3814C55.094 37.3726 54.537 37.2947 54.3467 37.2085ZM57.7602 34.5839C57.9124 34.4316 58.0369 34.0891 58.0369 33.8228C58.0369 33.5564 57.9124 33.2139 57.7602 33.0616C57.1473 32.4487 55.9612 32.8941 55.9612 33.7371C55.9612 34.6189 57.1606 35.1835 57.7602 34.5839ZM56.5101 34.0644C56.3341 33.6058 56.5948 33.2462 57.1033 33.2462C57.6193 33.2462 57.8658 33.7863 57.5115 34.1406C57.1514 34.5007 56.6633 34.4636 56.5101 34.0644ZM52.7297 27.3678C53.4528 26.4967 52.1012 25.1452 51.2301 25.8682C50.8171 26.2109 50.7815 27.0517 51.1639 27.434C51.5462 27.8164 52.387 27.7808 52.7297 27.3678ZM51.3876 26.749C51.486 26.0547 52.3863 25.986 52.3863 26.6729C52.3863 26.9804 52.2071 27.1596 51.8489 27.2103C51.4017 27.2737 51.3243 27.1962 51.3876 26.749ZM10.6405 22.8674C10.6405 22.4168 10.5084 22.2755 10.0357 22.2206C9.33774 22.1397 8.97477 22.7347 9.40551 23.2537C9.8479 23.7867 10.6405 23.5388 10.6405 22.8674ZM19.2895 19.4897C17.357 19.3193 15.137 19.3063 15.1375 19.4655C15.1378 19.5606 16.2537 19.621 17.6174 19.5997C18.981 19.5783 19.7335 19.5289 19.2895 19.4897ZM14.2888 19.2575C14.5527 18.9937 13.2722 18.4852 12.344 18.4852C11.6015 18.4852 11.4478 18.5644 11.4478 18.9465C11.4478 19.3551 11.6015 19.4078 12.7932 19.4078C13.5331 19.4078 14.2062 19.3402 14.2888 19.2575ZM18.8943 18.7768C18.233 18.7303 17.0913 18.7299 16.3573 18.7758C15.6233 18.8217 16.1643 18.8597 17.5597 18.8602C18.9551 18.8608 19.5557 18.8232 18.8943 18.7768ZM23.1548 10.7617C22.8683 10.3193 22.5586 9.95599 22.4667 9.95442C22.3089 9.95166 21.5959 11.1675 21.5959 11.4393C21.5959 11.509 22.0639 11.566 22.6359 11.566H23.6759L23.1548 10.7617ZM2.34033 36.5874C1.96132 36.2777 1.33859 35.9003 0.956491 35.7486C0.574388 35.597 0.233569 35.454 0.199114 35.4309C0.0443373 35.327 3.88205 29.1266 4.16939 29.0163C4.34685 28.9482 4.91558 28.2688 5.43324 27.5065C6.3252 26.1931 6.40758 26.1324 7.00832 26.346C7.35697 26.47 7.86975 26.75 8.14785 26.9682L8.65348 27.3648L7.79553 28.7814L6.93758 30.198L5.96827 29.6256C5.43515 29.3108 4.86718 29.0996 4.70611 29.1563C4.54505 29.2129 4.77652 29.4232 5.22051 29.6234C5.66449 29.8236 6.28231 30.1921 6.59345 30.4422C7.10871 30.8564 7.13312 30.9554 6.86714 31.5526C6.47798 32.4264 3.35088 37.1693 3.1709 37.1587C3.09309 37.1542 2.71933 36.8971 2.34033 36.5874ZM94.9969 32.8713C94.6697 32.7296 94.6002 30.5452 94.9074 30.0608C95.0344 29.8606 95.4815 29.7826 96.2301 29.8301L97.361 29.9019L97.4297 31.3434C97.4912 32.6356 97.4524 32.7849 97.0549 32.7849C96.811 32.7849 96.313 32.8324 95.9483 32.8905C95.5836 32.9487 95.1555 32.94 94.9969 32.8713ZM62.2293 31.3707C61.2443 29.9858 61.238 29.9649 61.7103 29.634C62.1536 29.3235 62.1884 29.0739 62.1884 26.2114C62.1884 23.2806 62.1602 23.0909 61.6322 22.4766C61.103 21.861 60.9647 21.8257 58.7896 21.7515L56.5032 21.6735L56.6067 20.4253L56.7102 19.1771H54.9519H53.1935V18.1549V17.1326L54.3196 17.8904C54.939 18.3072 55.8662 18.7155 56.3799 18.7976C57.0421 18.9035 57.3579 19.0851 57.4647 19.4214C57.6875 20.1234 58.8419 19.9578 58.8502 19.2227C58.8535 18.9306 59.0092 18.5948 59.1962 18.4766C59.3831 18.3584 61.2226 18.2601 63.284 18.2581C66.8506 18.2547 67.0319 18.2764 67.0319 18.7055C67.0319 19.3081 70.2858 21.7784 71.7218 22.2659C72.5266 22.5392 73.6919 22.6367 76.1502 22.6367H79.4864V26.0963V29.5559H77.2934C75.2178 29.5559 75.1146 29.5331 75.3667 29.1294C75.7006 28.5948 75.4627 27.5786 74.9584 27.385C74.1222 27.0642 72.987 28.5261 73.7204 28.9793C74.4278 29.4165 73.6471 29.5559 70.4915 29.5559C67.6604 29.5559 67.0319 29.6153 67.0319 29.8827C67.0319 30.1355 63.5825 32.8062 63.2914 32.7787C63.2556 32.7753 62.7776 32.1418 62.2293 31.3707ZM66.1443 30.3055C66.3297 30.0835 66.603 29.6165 66.7517 29.2676C67.0103 28.6607 67.0926 28.6334 68.6574 28.6334C70.205 28.6334 70.2889 28.6064 70.2192 28.1323C70.1615 27.74 69.6076 27.3923 67.6661 26.5299L65.1868 25.4286V27.1858C65.1868 28.5257 65.0923 29.0474 64.7891 29.3824C64.41 29.8013 64.4181 29.8424 64.9621 30.2604C65.668 30.8028 65.7271 30.8051 66.1443 30.3055ZM65.1946 30.022C64.9386 29.8638 64.9548 29.755 65.2828 29.4269C65.5994 29.1103 65.6683 28.7155 65.6085 27.5604C65.5668 26.7546 65.5866 26.0956 65.6524 26.0958C65.7182 26.0961 66.5485 26.4201 67.4975 26.8158C70.3645 28.0112 70.5327 28.4027 68.1793 28.4027C66.5593 28.4027 66.559 28.4028 66.419 29.1028C66.2638 29.8792 65.6766 30.32 65.1946 30.022ZM70.2608 24.3972V22.2368L69.3302 21.6209C68.2952 20.9359 68.3983 20.9064 66.4201 22.4551C64.505 23.9544 64.5922 24.1624 67.6865 25.4751C69.039 26.0489 70.1715 26.5272 70.2032 26.538C70.2349 26.5488 70.2608 25.5854 70.2608 24.3972ZM67.4488 24.859C66.473 24.4548 65.6104 24.0598 65.5319 23.9813C65.4534 23.9028 66.0317 23.3442 66.8169 22.74L68.2447 21.6414L69.0221 22.06C69.7884 22.4727 69.7996 22.5014 69.7996 24.0569C69.7996 25.1766 69.7158 25.6291 69.5112 25.6145C69.3527 25.6032 68.4246 25.2632 67.4488 24.859ZM75.2888 24.6664C76.0343 23.9208 75.198 22.6601 74.1735 22.9853C73.6113 23.1637 73.3394 24.1381 73.7229 24.6002C74.0657 25.0132 74.9064 25.0487 75.2888 24.6664ZM74.1957 24.4905C73.7552 24.2183 74.0031 23.444 74.5308 23.444C74.8221 23.444 75.0144 23.6223 75.0588 23.9336C75.135 24.4675 74.6573 24.7758 74.1957 24.4905ZM66.5129 21.2991C67.0521 20.8626 67.4925 20.4401 67.4917 20.3602C67.4875 19.9455 65.9578 19.4078 64.7819 19.4078H63.4919L63.9645 19.9267C64.5991 20.6234 64.9561 21.3495 64.9561 21.9433C64.9561 22.5082 65.0861 22.4544 66.5129 21.2991ZM64.9276 20.6688L64.5532 19.8691H65.4183C65.8942 19.8691 66.4043 20.0146 66.5519 20.1925C66.766 20.4505 66.6828 20.6139 66.1409 20.9997C65.7673 21.2658 65.4256 21.4802 65.3818 21.476C65.338 21.4719 65.1336 21.1086 64.9276 20.6688ZM97.9376 25.3352V18.2546H98.6626H99.3876L99.2505 19.8114C99.175 20.6677 98.9384 23.7553 98.7245 26.6729C98.5107 29.5905 98.2462 32.0762 98.1367 32.1967C98.0245 32.3201 97.9376 29.3231 97.9376 25.3352ZM81.1957 30.5943C80.9142 29.4726 81.1539 29.3253 83.26 29.3253C85.3935 29.3253 85.6979 29.5238 85.2092 30.5965C84.9631 31.1367 84.8419 31.1704 83.144 31.1704C81.4128 31.1704 81.3345 31.1472 81.1957 30.5943ZM85.0218 30.4785C85.2591 30.035 85.1971 30.0172 83.4154 30.0172C82.0248 30.0172 81.5622 30.094 81.5622 30.3247C81.5622 30.849 81.8218 30.9398 83.3223 30.9398C84.5388 30.9398 84.815 30.8648 85.0218 30.4785ZM80.1325 26.2087C80.0723 23.3061 80.109 22.8804 80.409 23.0044C80.8244 23.1762 83.5123 23.1477 85.1947 22.9538L86.4056 22.8142V26.0697C86.4056 29.1385 86.3799 29.3253 85.9579 29.3253C85.7117 29.3253 85.4461 29.2215 85.3677 29.0946C85.1354 28.7187 81.4935 28.8082 80.972 29.2026C80.7258 29.3889 80.4518 29.5445 80.3632 29.5486C80.2745 29.5526 80.1707 28.0497 80.1325 26.2087ZM88.8711 29.384L86.8391 29.3069L86.8779 26.2601C86.8992 24.5844 86.8521 23.0577 86.7733 22.8674C86.6508 22.5715 86.9892 22.5254 89.1125 22.549L91.595 22.5767L89.3654 22.4336C85.9594 22.2151 86.3895 21.9431 90.1151 21.9594C92.3407 21.9693 93.2685 22.0431 92.9209 22.1827C92.6354 22.2975 92.2202 22.333 91.9984 22.2617C91.6693 22.1558 91.6567 22.1756 91.9302 22.3692C92.2769 22.6147 93.369 22.4954 94.0744 22.1349C94.45 21.9429 94.4778 22.1655 94.4745 25.3386C94.473 27.2142 94.3947 28.865 94.3015 29.0072C94.11 29.2994 92.4023 29.556 92.4023 29.2926C92.4023 29.1987 92.5061 29.0577 92.6329 28.9793C93.0528 28.7198 92.8723 27.9578 92.3024 27.5844C91.8523 27.2895 91.6416 27.2701 91.2372 27.4865C90.8128 27.7137 90.7522 27.8983 90.8539 28.6561C90.9202 29.151 90.9585 29.5346 90.9389 29.5085C90.9193 29.4824 89.9887 29.4264 88.8711 29.384ZM92.5011 24.5807C93.1977 23.8841 92.7969 22.8674 91.8256 22.8674C91.2074 22.8674 90.7877 23.287 90.7877 23.9053C90.7877 24.8765 91.8044 25.2773 92.5011 24.5807ZM91.2987 24.1957C90.9589 23.7863 91.3097 23.2621 91.8532 23.3668C92.3837 23.4689 92.4375 24.3312 91.9198 24.4309C91.7178 24.4698 91.4383 24.364 91.2987 24.1957ZM94.9392 25.5659C94.9392 22.9494 94.8551 21.7223 94.6625 21.5297C94.4544 21.3216 91.4587 21.2529 82.5979 21.2529H70.81L69.1594 20.042C68.2516 19.3761 67.5053 18.7014 67.501 18.5429C67.4948 18.3151 70.6135 18.2546 82.3471 18.2546H97.2011L97.2811 19.3917C97.3529 20.4157 97.3247 20.4961 96.9969 20.199C96.5529 19.7968 95.8208 19.7717 95.4467 20.1458C95.0909 20.5016 95.0909 21.3123 95.4467 21.668C95.7824 22.0038 96.7027 22.033 96.8997 21.7142C97.2648 21.1235 97.361 21.7006 97.361 24.4819C97.361 27.2631 97.2648 27.8403 96.8997 27.2495C96.6844 26.9012 95.7256 26.9731 95.403 27.3619C95.0137 27.831 95.2948 28.7994 95.8736 28.9831C96.1512 29.0712 96.5785 28.9803 96.911 28.7625C97.2219 28.5588 97.4763 28.4775 97.4763 28.5819C97.4763 29.0267 96.8557 29.3253 95.931 29.3253H94.9392L94.9392 25.5659ZM74.1128 28.9489C73.8145 28.6506 73.9472 27.9923 74.3356 27.8432C74.8217 27.6567 75.1721 27.9953 75.0656 28.5486C74.9809 28.9883 74.3974 29.2334 74.1128 28.9489ZM91.2394 28.7371C90.9943 28.4418 91.0094 28.3128 91.3265 27.9958C91.6819 27.6403 91.7382 27.6399 92.0878 27.9895C92.507 28.4087 92.3663 29.0947 91.8611 29.0947C91.6824 29.0947 91.4026 28.9337 91.2394 28.7371ZM95.7929 28.4876C95.7039 28.3986 95.6312 28.1356 95.6312 27.903C95.6312 27.6027 95.8029 27.4802 96.2238 27.4802C96.7058 27.4802 96.8027 27.5766 96.7427 27.9967C96.6698 28.508 96.1051 28.7998 95.7929 28.4876ZM30.6485 25.6456C29.602 24.1378 28.7457 22.8107 28.7457 22.6965C28.7457 22.5795 31.1171 22.4849 34.177 22.4799L39.6082 22.4709L40.2439 21.8619C40.8504 21.2808 40.9933 21.2529 43.3596 21.2529H45.8396L45.7687 22.2331C45.7097 23.0479 45.6102 23.2257 45.1788 23.287C44.8014 23.3406 44.6599 23.2445 44.6599 22.9349C44.6599 22.5773 44.5122 22.5233 43.7373 22.5972C42.5614 22.7093 42.5251 23.2206 43.6796 23.409C44.1553 23.4866 44.8281 23.6158 45.1746 23.6961C45.7159 23.8215 45.8401 23.7491 46.0565 23.1817C46.195 22.8185 46.2668 22.236 46.216 21.8871L46.1236 21.2529H48.9519H51.7802L52.2987 20.3303L52.8172 19.4077H54.5045H56.1918V20.3421C56.1918 21.1883 56.1172 21.3076 55.4004 21.6071C54.9651 21.789 54.5438 22.0432 54.4642 22.1719C54.3794 22.3091 53.1851 22.4061 51.5809 22.4061H48.8422L47.9918 23.4439L47.1413 24.4818H40.055C31.9874 24.4818 32.2022 24.4308 32.2089 26.3451C32.2129 27.4739 32.3338 27.7422 33.0126 28.1271L33.4738 28.3887L33.0126 28.3877C32.6843 28.387 32.0027 27.5967 30.6485 25.6456ZM46.4377 28.2467C46.1137 28.1588 46.0347 27.9268 46.0722 27.1731C46.0992 26.6299 45.9504 25.8856 45.73 25.4621L45.3399 24.7125H46.2799C48.3352 24.7125 49.2767 25.9107 48.4437 27.4663C48.003 28.2894 47.4245 28.5145 46.4377 28.2467ZM8.91074 28.0997C8.91074 27.8477 10.1161 25.8788 10.4299 25.6184C10.7389 25.362 10.7727 25.4912 10.7109 26.6918L10.6405 28.0568L9.77562 28.1283C9.29993 28.1677 8.91074 28.1548 8.91074 28.0997ZM6.46497 23.8915C6.25032 23.0363 6.50168 21.2291 6.86753 20.9973C7.03991 20.888 7.46636 20.7971 7.8152 20.7952C8.35495 20.7922 8.44946 20.8866 8.44946 21.429C8.44946 21.9724 7.02615 24.4819 6.71793 24.4819C6.66029 24.4819 6.54646 24.2162 6.46497 23.8915ZM80.0821 22.4934C79.5132 22.1779 78.9254 22.1435 76.2765 22.2706C74.4805 22.3567 72.8486 22.3277 72.4519 22.2027C71.9836 22.055 74.1802 21.9781 79.2494 21.9646C85.6439 21.9477 86.6723 21.9909 86.2839 22.2598C86.0069 22.4516 84.8368 22.6319 83.2919 22.7206C81.1928 22.8413 80.6388 22.802 80.0821 22.4934ZM95.7086 21.1221C95.6323 20.9233 95.6804 20.65 95.8157 20.5149C96.1744 20.1561 96.7844 20.471 96.7844 21.015C96.7844 21.5838 95.9189 21.67 95.7086 21.1221ZM51.2331 19.1771C51.3115 19.0503 51.603 18.9481 51.8809 18.95C52.2918 18.9529 52.3216 18.9954 52.0403 19.1771C51.5859 19.4708 51.0516 19.4708 51.2331 19.1771ZM33.8198 18.2608C33.8198 17.8119 33.9583 17.7933 37.2963 17.7933C40.483 17.7933 40.7663 17.827 40.6953 18.1969C40.6264 18.556 40.243 18.6076 37.2188 18.6644C33.9376 18.726 33.8198 18.712 33.8198 18.2608ZM22.9797 18.1393C22.9797 17.8436 22.3263 17.7933 18.4823 17.7933H13.9848V16.1788V14.5644H14.6498C15.1209 14.5644 15.35 14.6989 15.4355 15.0256C15.546 15.4484 15.7501 15.4869 17.8772 15.4869C20.1887 15.4869 20.2004 15.4898 20.7098 16.1788C21.1226 16.7372 21.3911 16.8708 22.1006 16.8708H22.9797V15.6022V14.3337L28.9187 14.333L34.8577 14.3324L35.319 13.6361L35.7802 12.9399L38.0866 13.0025L40.393 13.0652L40.459 15.3139L40.5251 17.5627H37.0355C33.74 17.5627 33.5393 17.5883 33.4254 18.0239C33.3255 18.4058 33.1108 18.4852 32.1784 18.4852L31.0521 18.4852V17.5434C31.0521 16.3418 30.5068 16.4214 30.404 17.6382C30.3346 18.4584 30.3036 18.4852 29.4237 18.4852H28.5151V17.5434C28.5151 16.3418 27.9697 16.4214 27.8669 17.6381C27.7978 18.4561 27.7645 18.4852 26.9 18.4852C26.0115 18.4852 26.004 18.4777 25.9337 17.505C25.8947 16.9659 25.759 16.5248 25.6321 16.5248C25.5053 16.5248 25.3696 16.9659 25.3305 17.505L25.2596 18.4852H24.1197C23.2602 18.4852 22.9797 18.4001 22.9797 18.1393ZM41.2003 17.4935C41.2003 16.948 41.0757 16.3772 40.9235 16.225C40.7082 16.0097 40.7082 15.9482 40.9235 15.9482C41.108 15.9482 41.2003 15.4869 41.2003 14.5644V13.1805H43.9598C47.1963 13.1805 47.1969 13.181 47.1969 15.5871C47.1969 16.9476 47.1501 17.1014 46.7356 17.1014C46.3607 17.1014 46.2743 16.9476 46.2743 16.2805C46.2743 15.792 46.1809 15.5174 46.0437 15.6022C45.9168 15.6806 45.813 16.05 45.813 16.4231C45.813 16.7962 45.7204 17.1014 45.6071 17.1014C45.3514 17.1014 45.1211 16.5279 45.1211 15.8909C45.1211 15.1236 44.9631 15.5095 44.7906 16.6978C44.6467 17.6893 44.6749 17.7933 45.0881 17.7933C45.7034 17.7933 46.2743 18.0272 46.2743 18.2793C46.2743 18.3925 45.1327 18.4852 43.7373 18.4852H41.2003V17.4935ZM47.8457 18.1969C47.5965 17.9984 47.5166 17.6573 47.5891 17.1014L47.6944 16.2942L48.9448 16.3731C50.0486 16.4429 50.1948 16.5105 50.1921 16.9497C50.1844 18.1648 49.948 18.4852 49.0592 18.4852C48.5908 18.4852 48.0448 18.3555 47.8457 18.1969ZM48.696 17.332C48.6176 17.2052 48.3978 17.1014 48.2075 17.1014C48.0173 17.1014 47.9257 17.2052 48.0041 17.332C48.0825 17.4589 48.3023 17.5627 48.4926 17.5627C48.6829 17.5627 48.7744 17.4589 48.696 17.332ZM51.3484 17.4473C51.3484 16.5632 51.4167 16.4095 51.8097 16.4095C52.2026 16.4095 52.271 16.5632 52.271 17.4473C52.271 18.3315 52.2026 18.4852 51.8097 18.4852C51.4167 18.4852 51.3484 18.3315 51.3484 17.4473ZM55.3846 17.6742C52.3465 16.0373 52.1872 11.95 55.0925 10.1831C57.821 8.52385 61.51 10.6132 61.4915 13.8074C61.4843 15.046 60.7667 16.4696 59.7642 17.2343C58.6886 18.0547 56.4989 18.2746 55.3846 17.6742ZM57.345 17.2167C57.345 16.8996 57.2412 16.6401 57.1144 16.6401C56.8567 16.6401 56.7982 17.4003 57.0375 17.6395C57.2917 17.8938 57.345 17.8205 57.345 17.2167ZM56.1612 16.9424C56.3352 16.6076 56.3451 16.3889 56.1905 16.2933C55.9372 16.1368 55.4835 17.0974 55.6654 17.405C55.7957 17.6254 55.8159 17.6066 56.1612 16.9424ZM58.6864 16.7544C58.5458 16.4458 58.3461 16.2456 58.2425 16.3096C58.139 16.3736 58.1694 16.6784 58.31 16.9871C58.4506 17.2957 58.6504 17.4959 58.7539 17.4319C58.8574 17.3679 58.827 17.063 58.6864 16.7544ZM54.9925 16.3633C55.1447 16.2111 55.2693 15.9356 55.2693 15.751C55.2693 15.4846 55.1742 15.5015 54.808 15.8329C54.3342 16.2617 54.2044 16.6401 54.5312 16.6401C54.6327 16.6401 54.8403 16.5156 54.9925 16.3633ZM60.1127 16.4377C60.1127 16.1428 59.4345 15.6269 59.267 15.7944C59.0995 15.9619 59.6154 16.6401 59.9103 16.6401C60.0216 16.6401 60.1127 16.549 60.1127 16.4377ZM58.5127 15.7398C59.3397 15.4479 59.7772 13.9939 59.3463 12.9691C58.9509 12.0287 57.2914 11.132 56.7611 11.5721C56.5703 11.7305 56.1825 11.8759 55.8994 11.8954C55.604 11.9156 55.413 12.061 55.4512 12.2365C55.4878 12.4047 55.3557 12.7897 55.1576 13.092C54.8904 13.4997 54.5866 13.6418 53.9818 13.6418C53.4471 13.6418 53.2203 13.7292 53.3232 13.8957C53.4122 14.0397 53.7663 14.0923 54.1417 14.0172C54.7247 13.9006 54.8544 13.9844 55.2326 14.7215C55.707 15.6463 57.014 16.4339 57.5757 16.1335C57.7659 16.0317 58.1876 15.8545 58.5127 15.7398ZM55.9456 15.0456C55.4288 14.5288 55.293 14.2075 55.3573 13.6547C55.6329 11.2879 58.6679 11.4043 59.1021 13.7984C59.1739 14.1944 59.0059 14.5535 58.5225 15.0368C57.6417 15.9176 56.8205 15.9204 55.9456 15.0456ZM56.8837 15.2563C56.8837 15.1294 56.7738 15.0256 56.6395 15.0256C56.5051 15.0256 56.4594 15.1294 56.5378 15.2563C56.6162 15.3831 56.7261 15.4869 56.782 15.4869C56.838 15.4869 56.8837 15.3831 56.8837 15.2563ZM58.0369 15.0256C58.0369 14.8988 57.9912 14.795 57.9352 14.795C57.8793 14.795 57.7694 14.8988 57.691 15.0256C57.6126 15.1525 57.6584 15.2563 57.7927 15.2563C57.927 15.2563 58.0369 15.1525 58.0369 15.0256ZM56.0446 14.449C55.9716 14.2588 55.8064 14.1031 55.6776 14.1031C55.5426 14.1031 55.5651 14.2496 55.7305 14.449C55.8885 14.6393 56.0536 14.795 56.0975 14.795C56.1414 14.795 56.1176 14.6393 56.0446 14.449ZM58.7289 14.2184C58.7289 14.0281 58.6881 13.8724 58.6382 13.8724C58.5884 13.8724 58.4878 14.0281 58.4148 14.2184C58.3418 14.4087 58.3826 14.5644 58.5055 14.5644C58.6283 14.5644 58.7289 14.4087 58.7289 14.2184ZM58.7289 13.1805C58.7289 13.0537 58.6189 12.9499 58.4846 12.9499C58.3503 12.9499 58.3045 13.0537 58.3829 13.1805C58.4613 13.3074 58.5712 13.4112 58.6272 13.4112C58.6831 13.4112 58.7289 13.3074 58.7289 13.1805ZM58.0334 12.4309C58.0423 11.9956 57.6694 12.3167 57.635 12.774C57.6044 13.1795 57.6426 13.2166 57.813 12.947C57.9323 12.7583 58.0315 12.5261 58.0334 12.4309ZM54.6772 14.77C54.6132 14.6664 54.3084 14.6968 53.9997 14.8374C53.6911 14.978 53.491 15.1778 53.5549 15.2813C53.6189 15.3848 53.9238 15.3545 54.2324 15.2138C54.541 15.0732 54.7412 14.8735 54.6772 14.77ZM61.0353 15.2607C61.0353 14.9972 59.9265 14.6737 59.7225 14.8777C59.6466 14.9536 59.833 15.1152 60.1369 15.2367C60.8651 15.528 61.0353 15.5325 61.0353 15.2607ZM61.2659 13.8724C61.2659 13.7456 61.0064 13.6418 60.6893 13.6418C60.3722 13.6418 60.1127 13.7456 60.1127 13.8724C60.1127 13.9993 60.3722 14.1031 60.6893 14.1031C61.0064 14.1031 61.2659 13.9993 61.2659 13.8724ZM54.7657 12.6121C54.3433 12.2593 53.6601 12.0628 53.5386 12.2593C53.3821 12.5125 54.3427 12.9663 54.6504 12.7844C54.7539 12.7231 54.8058 12.6456 54.7657 12.6121ZM60.7029 12.3806C61.0608 12.1099 61.0785 12.0405 60.791 12.0347C60.5933 12.0306 60.23 12.1797 59.9838 12.3659C59.6259 12.6367 59.6082 12.706 59.8956 12.7119C60.0934 12.7159 60.4566 12.5669 60.7029 12.3806ZM55.2693 11.5943C55.2693 11.2993 54.5911 10.7835 54.4236 10.951C54.2561 11.1185 54.7719 11.7967 55.0669 11.7967C55.1782 11.7967 55.2693 11.7056 55.2693 11.5943ZM59.8867 11.4451C60.0471 11.2518 60.1143 11.0294 60.0358 10.951C59.8683 10.7835 59.1901 11.2993 59.1901 11.5943C59.1901 11.912 59.566 11.8315 59.8867 11.4451ZM55.9867 10.3461C55.5876 9.94699 55.4358 10.3249 55.7594 10.912C56.0259 11.3955 56.0655 11.4068 56.1457 11.0226C56.1949 10.7871 56.1233 10.4827 55.9867 10.3461ZM58.7214 10.6575C58.867 10.3854 58.8764 10.1581 58.7454 10.0771C58.5195 9.93751 58.4312 10.0377 58.1951 10.7011C57.9998 11.2498 58.4232 11.2147 58.7214 10.6575ZM57.345 10.2839C57.345 9.94917 57.2452 9.7554 57.1144 9.83625C56.9875 9.91465 56.8837 10.1802 56.8837 10.4265C56.8837 10.6727 56.9875 10.8741 57.1144 10.8741C57.2412 10.8741 57.345 10.6085 57.345 10.2839ZM60.8046 17.6812C60.8046 17.6105 61.0841 17.1305 61.4257 16.6143C61.8699 15.9431 62.0746 15.2901 62.1447 14.3213C62.2641 12.6699 62.1396 12.1289 61.3832 11.0144C61.0608 10.5392 60.8567 10.0538 60.9297 9.93571C61.0031 9.81694 62.7884 9.72093 64.9236 9.72093C67.6629 9.72093 68.8668 9.63884 69.0673 9.43841C69.2902 9.21547 69.4452 9.21547 69.8022 9.43841C70.0539 9.59562 71.0171 9.72093 71.9739 9.72093C72.9195 9.72093 73.7573 9.82472 73.8357 9.95157C73.9141 10.0784 74.5263 10.1822 75.1961 10.1822C76.2943 10.1822 76.4862 10.2615 77.1485 10.9894L77.8831 11.7967H85.4805C92.4814 11.7967 93.0946 11.8284 93.2905 12.2003C93.4893 12.5776 93.6765 15.506 93.5928 16.9284L93.5554 17.5627H87.3715H81.1877L80.6761 16.8708C80.1891 16.2121 80.0837 16.1788 78.4848 16.1788C76.9195 16.1788 76.7599 16.226 76.1422 16.8708L75.4793 17.5627L71.1979 17.5611L66.9166 17.5596L66.5069 16.8399C66.1249 16.1688 66.0283 16.1278 65.0797 16.2348L64.0622 16.3495L64.413 15.8141C64.6155 15.505 64.7004 15.0793 64.6139 14.8067C64.4302 14.2278 63.4618 13.9467 62.9927 14.3361C62.604 14.6587 62.532 15.6174 62.8804 15.8327C63.0072 15.9111 63.111 16.0791 63.111 16.2059C63.111 16.3328 63.0223 16.3817 62.9139 16.3147C62.8055 16.2477 62.4682 16.4587 62.1643 16.7836C61.5998 17.3871 60.8046 17.9121 60.8046 17.6812ZM62.1879 17.5408C62.1915 16.6326 65.414 16.2332 65.8696 17.0845C66.0945 17.5046 66.0008 17.5329 64.1474 17.6034C63.0694 17.6444 62.1876 17.6163 62.1879 17.5408ZM76.4881 17.5408C76.4881 17.4653 76.6779 17.2318 76.9099 17.0218C77.5128 16.4762 79.5205 16.502 80.0273 17.0619C80.2372 17.2939 80.409 17.5274 80.409 17.5808C80.409 17.6343 79.5268 17.678 78.4485 17.678C77.3703 17.678 76.4881 17.6162 76.4881 17.5408ZM94.0641 15.1414C94.0472 13.8096 93.9222 12.5123 93.7863 12.2584C93.5618 11.8389 93.6104 11.7967 94.3175 11.7967C95.3139 11.7967 95.5869 12.3541 95.6324 14.4818C95.7003 17.6619 95.7251 17.5627 94.863 17.5627H94.0949L94.0641 15.1414ZM96.051 15.354C96.0917 14.1387 96.0192 12.8411 95.89 12.4705L95.6552 11.7967H97.5754C100.082 11.7967 100.126 11.851 99.9275 14.6779C99.8434 15.8749 99.7134 17.0137 99.6386 17.2085C99.5328 17.4842 99.112 17.5628 97.7399 17.5632L95.9771 17.5637L96.051 15.354ZM20.9128 15.9605C20.5147 15.4015 20.239 15.2686 19.3583 15.211C18.7463 15.1709 18.246 15.0144 18.1904 14.8455C18.1138 14.613 18.5038 14.5827 20.0175 14.7036C21.0759 14.7881 22.0716 14.9597 22.2302 15.085C22.3887 15.2103 22.5185 15.6114 22.5185 15.9764C22.5185 16.5256 22.4217 16.6401 21.9576 16.6401C21.5999 16.6401 21.2214 16.3939 20.9128 15.9605ZM63.0464 15.4205C62.8635 14.944 63.2206 14.5072 63.7152 14.6025C64.328 14.7205 64.2829 15.5831 63.6593 15.6721C63.39 15.7105 63.1142 15.5973 63.0464 15.4205ZM47.6582 14.7326C47.6582 13.7157 48.0841 13.3621 49.1989 13.4539C50.0352 13.5228 50.0835 13.5703 50.1515 14.3914L50.223 15.2563H49.3054C48.8007 15.2563 48.2236 15.3193 48.023 15.3963C47.7333 15.5074 47.6582 15.3707 47.6582 14.7326ZM48.8114 14.3453C48.8114 13.9967 48.4948 13.8873 48.1983 14.1333C47.7429 14.5113 47.8216 14.7694 48.3501 14.6312C48.6038 14.5648 48.8114 14.4362 48.8114 14.3453ZM15.8299 14.9663C15.8299 14.7615 16.1516 14.7029 16.9255 14.7666C17.7559 14.835 17.9094 14.9013 17.5597 15.0404C16.8299 15.3307 15.8299 15.2879 15.8299 14.9663ZM51.4745 14.4255C51.3022 13.5068 51.3962 13.2917 51.8877 13.4803C52.0685 13.5496 52.2597 13.9776 52.3127 14.4313C52.3895 15.0897 52.3304 15.2563 52.0197 15.2563C51.7553 15.2563 51.5804 14.9898 51.4745 14.4255ZM47.4349 13.2843C47.4194 12.7747 48.0206 12.4901 49.0305 12.5289L50.0799 12.5692L49.0562 12.6596C48.4544 12.7127 47.9108 12.91 47.7373 13.1382C47.575 13.3518 47.4389 13.4175 47.4349 13.2843ZM51.1754 12.5603C51.3974 12.5022 51.7607 12.5022 51.9827 12.5603C52.2046 12.6183 52.023 12.6657 51.579 12.6657C51.1351 12.6657 50.9534 12.6183 51.1754 12.5603ZM91.7103 11.2819C88.513 10.9457 81.5236 10.8204 81.2496 11.0944C81.1171 11.227 80.3739 11.3354 79.598 11.3354C78.2758 11.3354 78.1427 11.2848 77.4728 10.5282C76.838 9.8112 76.6308 9.72093 75.6199 9.72093H74.4817L72.3712 7.05024C70.3706 4.51841 69.8559 3.49367 70.5849 3.49367C70.7632 3.49367 72.813 3.8527 75.1401 4.29152C88.5809 6.82608 90.9103 7.21033 91.9594 7.06603L93.0249 6.9195L94.328 8.35952C95.6297 9.79788 95.7474 10.0711 95.4858 11.0471C95.3293 11.6309 95.1414 11.6426 91.7103 11.2819ZM94.1203 8.68123C92.5071 6.79298 92.1797 7.13759 93.7265 9.09568C94.6896 10.3148 95.0749 10.6629 95.1285 10.3624C95.1707 10.1259 94.7378 9.40403 94.1203 8.68123ZM20.2474 7.75562C21.1949 7.24092 23.889 7.20815 24.5879 7.70284C25.1439 8.09635 25.089 8.10623 22.3968 8.09722C19.8604 8.08876 19.6853 8.06091 20.2474 7.75562ZM47.3218 3.55133C47.235 3.32471 43.9528 3.26303 31.9819 3.26303C18.7163 3.26303 16.7525 3.21918 16.7525 2.92299C16.7525 2.73597 16.4411 2.42194 16.0606 2.22515C15.68 2.02836 15.3686 1.81811 15.3686 1.75795C15.3686 1.69778 24.9101 1.64855 36.5719 1.64855C57.5727 1.64855 57.7766 1.65299 57.9216 2.10983C58.0517 2.51967 58.2706 2.57111 59.8844 2.57111C61.3541 2.57111 61.8684 2.67015 62.5789 3.09005L63.457 3.60899L60.6893 3.66561C51.0611 3.86258 47.4291 3.83153 47.3218 3.55133ZM57.0085 2.35581C56.9073 2.19194 54.8824 2.10983 50.9427 2.10983C47.0722 2.10983 45.1071 2.18809 45.2554 2.33633C45.4369 2.5179 56.7583 2.81259 57.0798 2.64411C57.1242 2.62084 57.0921 2.4911 57.0085 2.35581ZM59.8821 2.10983C59.8821 1.98298 60.0377 1.87919 60.228 1.87919C60.4183 1.87919 60.574 1.98298 60.574 2.10983C60.574 2.23668 60.4183 2.34047 60.228 2.34047C60.0377 2.34047 59.8821 2.23668 59.8821 2.10983ZM11.9196 1.77657C11.7675 1.59327 11.6769 1.20407 11.7184 0.911667C11.7931 0.384663 11.8239 0.379848 15.2533 0.358767C17.1561 0.347067 18.8998 0.256114 19.1282 0.156642C19.77 -0.122886 24.6671 0.137473 24.7736 0.456784C24.8833 0.785859 25.6661 0.81358 25.8627 0.495357C26.0537 0.186439 31.744 0.186439 31.744 0.495357C31.744 0.863427 32.8342 0.761768 32.9806 0.380037C33.1743 -0.124731 38.2408 -0.124731 38.7456 0.380037C39.1409 0.775312 39.5858 0.836379 39.5858 0.495357C39.5858 0.18599 45.5065 0.18599 45.6977 0.495357C45.9162 0.848813 46.7335 0.769285 46.8828 0.380037C47.0773 -0.126679 52.3117 -0.126679 52.7322 0.380037C52.8901 0.570315 53.1496 0.725996 53.3088 0.725996C53.468 0.725996 53.7275 0.570315 53.8854 0.380037C54.1099 0.109533 54.7461 0.0340779 56.8024 0.0340779C59.3953 0.0340779 59.4353 0.0421822 59.6514 0.610677C59.772 0.927806 59.977 1.18728 60.107 1.18728C60.237 1.18728 60.3433 1.28016 60.3433 1.39369C60.3433 1.74657 58.4056 1.83622 58.1985 1.49293C58.0473 1.24242 53.8549 1.18728 34.9615 1.18728C22.2827 1.18728 11.9091 1.2703 11.9091 1.37179C11.9091 1.47327 12.0336 1.68084 12.1858 1.83306C12.338 1.98529 12.4026 2.10983 12.3294 2.10983C12.2561 2.10983 12.0717 1.95986 11.9196 1.77657Z" />
</svg>
