<svg width="100" height="26" viewBox="0 0 100 26"  xmlns="http://www.w3.org/2000/svg">
<path d="M74.4728 24.7722C74.4728 24.4191 74.5461 24.0848 74.6357 24.0295C75.007 23.8 74.7294 23.0316 73.4774 20.8221C72.7508 19.5397 71.9873 18.2654 71.7809 17.9903C71.351 17.4173 70.1044 16.9428 69.0292 16.9428C68.3059 16.9428 67.9564 16.7264 67.9564 16.2785C67.9564 15.819 68.4474 15.5619 69.488 15.4766L70.4815 15.3952L70.5285 13.9697L70.5756 12.5442H71.6321H72.6887L72.6694 14.3864C72.6489 16.3541 72.7954 16.951 73.5467 17.961C73.7633 18.2522 74.5351 19.5226 75.2617 20.784C76.683 23.2516 76.9038 23.4593 78.1068 23.4593C78.6166 23.4593 78.8453 23.5431 78.9965 23.7851C79.3634 24.3726 79.9693 24.1857 81.5471 22.9981C82.3603 22.386 83.6488 21.4481 84.4104 20.9138C85.9242 19.8519 86.1394 19.4502 85.6194 18.6567C85.354 18.2516 85.3571 18.2183 85.6949 17.8589C86.205 17.3158 86.3653 16.5809 86.3653 14.7853C86.3653 12.5348 86.3777 12.5442 83.4329 12.5442C82.0826 12.5442 81.1522 12.4803 81.1522 12.3876C81.1522 12.1231 80.4572 11.5667 80.1267 11.5667C79.9549 11.5667 79.6701 11.75 79.4939 11.974C79.2222 12.3195 79.0387 12.3813 78.2853 12.3813C77.4878 12.3813 77.3813 12.3397 77.2423 11.974C77.0895 11.5721 77.0627 11.5667 75.2099 11.5667C74.1421 11.5667 73.3324 11.5005 73.3324 11.4131C73.3324 11.3285 73.4953 11.1453 73.6945 11.0058C74.0083 10.786 74.974 10.7522 80.944 10.7522H87.8315V14.0104V17.2686H88.4017C88.7153 17.2686 88.9719 17.3116 88.9719 17.3642C88.9719 17.4167 88.8164 17.9948 88.6264 18.6488C88.2868 19.8177 88.2667 19.8446 87.4527 20.2232C86.4035 20.7111 84.1864 22.2746 82.0383 24.0414L80.3692 25.4142H77.421H74.4728L74.4728 24.7722ZM79.1973 23.4483C79.1973 23.3527 79.4538 23.0325 79.7674 22.7367C80.551 21.9977 80.5304 21.4743 79.686 20.6711C79.2943 20.2984 79.0343 19.9017 79.0343 19.6764C79.0343 19.4703 78.8511 19.104 78.6271 18.8625C78.348 18.5615 78.2198 18.237 78.2198 17.8314C78.2198 17.3441 78.0903 17.1137 77.4867 16.5271C77.0835 16.1352 76.7536 15.7019 76.7536 15.5641C76.7536 15.1108 76.4706 15.3031 76.3657 15.8276C76.1522 16.8951 75.6132 17.1047 75.6132 16.1202C75.6132 15.3436 75.2593 14.5828 74.7783 14.3254C74.5728 14.2154 74.1495 14.1848 73.7211 14.249L73.0066 14.3562V13.5393C73.0066 13.09 73.0917 12.5357 73.1957 12.3075C73.3811 11.9006 73.4184 11.8925 75.1231 11.8925C76.8106 11.8925 76.8678 11.9045 77.0794 12.2998C77.2763 12.6677 77.3961 12.7071 78.3171 12.7071C79.3099 12.7071 79.7173 12.5317 79.8837 12.0326C79.9712 11.7701 80.7637 11.9831 80.8862 12.3021C80.9391 12.4403 80.8382 12.6953 80.6598 12.8737C80.1516 13.3819 80.2324 14.2187 80.8389 14.729C81.1146 14.961 81.4395 15.1508 81.5611 15.1508C81.6826 15.1508 82.1631 15.7817 82.6288 16.5528C83.2679 17.6108 83.608 18.0101 84.0154 18.1803C84.3122 18.3043 84.6637 18.3641 84.7965 18.3132C85.112 18.1921 85.5928 18.9232 85.5227 19.4173C85.4515 19.9188 80.3062 23.5878 79.6453 23.6083C79.3989 23.616 79.1973 23.544 79.1973 23.4483ZM81.0981 18.9666C81.1523 18.8252 81.0768 18.5896 80.9301 18.4429C80.6832 18.196 80.6437 18.196 80.3968 18.4429C80.0637 18.776 80.2166 19.2236 80.6635 19.2236C80.8483 19.2236 81.0439 19.1079 81.0981 18.9666ZM80.4507 18.9565C80.3205 18.8263 80.4676 18.5719 80.6731 18.5719C80.7574 18.5719 80.8264 18.6819 80.8264 18.8163C80.8264 19.0682 80.6341 19.14 80.4507 18.9565ZM79.1973 15.5581C79.3591 15.3631 79.3591 15.2643 79.1973 15.0693C78.7902 14.5788 78.2098 14.9541 78.4416 15.5581C78.4932 15.6925 78.6387 15.8024 78.7649 15.8024C78.8912 15.8024 79.0857 15.6925 79.1973 15.5581ZM78.6498 15.5265C78.4663 15.343 78.538 15.1508 78.79 15.1508C78.9244 15.1508 79.0343 15.2198 79.0343 15.3041C79.0343 15.5095 78.7799 15.6566 78.6498 15.5265ZM7.5487 17.8877C7.42191 17.7609 7.35479 17.1168 7.35772 16.0549L7.36225 14.4177L8.70175 13.5616L10.0412 12.7054L10.1374 13.1685C10.2879 13.893 10.4227 14.0104 11.1041 14.0104C11.7783 14.0104 12.0776 13.7132 12.0776 13.0436C12.0776 12.8585 12.1176 12.7071 12.1665 12.7071C12.3998 12.7071 14.685 14.3709 14.6905 14.5448C14.7629 16.8336 14.727 17.591 14.535 17.8224C14.3496 18.0457 13.8466 18.0832 11.0314 18.0832C8.69189 18.0832 7.68783 18.0268 7.5487 17.8877ZM14.1637 16.8206L14.114 16.0468H11.0187H7.92339L7.87118 16.5918C7.77281 17.6187 7.69473 17.5945 11.104 17.5945H14.2133L14.1637 16.8206ZM14.1955 14.939C14.1955 14.4084 13.8137 14.3362 11.0061 14.3362C8.75475 14.3362 8.16916 14.3826 8.01077 14.5735C7.59449 15.075 8.00103 15.1508 11.1098 15.1508C13.533 15.1508 14.1955 15.1053 14.1955 14.939ZM97.5644 17.0096C97.3342 16.7794 97.4454 16.4907 97.957 15.9906C98.394 15.5634 98.4388 15.4502 98.2579 15.2321C98.1409 15.0912 97.898 14.9969 97.7181 15.0226C97.4421 15.062 97.3321 14.8787 97.013 13.8475C96.561 12.3865 96.5175 10.7961 96.8852 9.16793C97.1202 8.12753 97.1728 8.03841 97.5138 8.10361C98.0416 8.2045 98.236 7.65501 97.7798 7.35188C97.5948 7.22895 97.4434 6.96301 97.4434 6.76091C97.4434 6.5588 97.3342 6.30285 97.2008 6.19213C96.7664 5.83163 97.0982 5.7257 98.3819 5.81497C99.8785 5.91905 100.119 6.11197 99.9561 7.07759C99.8964 7.43101 99.7099 8.12061 99.5415 8.61003C99.1005 9.89184 99.1161 12.6122 99.5728 14.091C100.039 15.6001 99.9044 16.3954 99.1283 16.7196C98.3745 17.0346 97.7122 17.1574 97.5644 17.0096ZM88.1574 15.9653V14.9879H89.9494C91.0355 14.9879 91.7415 14.9237 91.7415 14.825C91.7415 14.6723 89.9017 14.5675 88.6869 14.6511L88.1574 14.6875V13.8573V13.027L88.7683 13.0626C89.9223 13.13 91.0898 13.0328 91.0898 12.8694C91.0898 12.7795 90.7416 12.7168 90.316 12.7303C89.8904 12.7437 89.2306 12.744 88.8498 12.7309L88.1574 12.7071V11.7611C88.1574 10.8806 88.1885 10.8028 88.6054 10.638C88.9386 10.5064 87.1046 10.4566 81.4498 10.4437L73.8462 10.4263L73.3449 10.8481C73.0404 11.1043 72.8437 11.424 72.8437 11.6627C72.8437 12.0449 72.8088 12.0554 71.5465 12.0554H70.2493L70.2025 13.5624L70.1556 15.0693L69.3801 15.119C68.4217 15.1805 68.3759 15.0869 68.5658 13.4554C68.645 12.775 68.6502 12.2184 68.5774 12.2184C68.5046 12.2184 68.4451 10.9336 68.4451 9.36338V6.50839L68.8831 6.34185C69.1526 6.2394 70.8922 6.19423 73.4039 6.22446L77.4867 6.27361L79.6106 7.12823C81.629 7.94044 81.766 8.02517 82.3711 8.83565C82.7213 9.30469 82.998 9.81782 82.9861 9.97594C82.9662 10.2402 83.1876 10.2634 85.7238 10.2634C87.4548 10.2634 88.4832 10.2027 88.4832 10.1005C88.4832 10.0073 87.9913 9.9376 87.3332 9.9376C86.608 9.9376 86.2204 9.87742 86.2839 9.77469C86.3393 9.68509 86.8568 9.61178 87.4339 9.61178H88.4832V9.13438C88.4832 8.76882 88.3973 8.64043 88.1167 8.58637C87.9151 8.54755 89.3159 8.50579 91.2297 8.49359L94.7092 8.4714L94.5869 8.91941C94.3732 9.70276 94.3817 12.5684 94.6027 14.2548C94.9108 16.6047 95.0374 16.4983 91.6388 16.7457C87.759 17.028 88.1574 17.1173 88.1574 15.9653ZM92.2302 14.825C92.2302 14.7354 92.1979 14.662 92.1584 14.662C92.1189 14.662 92.0413 14.7354 91.9859 14.825C91.9305 14.9146 91.9629 14.9879 92.0578 14.9879C92.1526 14.9879 92.2302 14.9146 92.2302 14.825ZM93.6964 14.7435C93.6964 14.6091 93.5864 14.4991 93.452 14.4991C93.3176 14.4991 93.2077 14.6091 93.2077 14.7435C93.2077 14.8779 93.3176 14.9879 93.452 14.9879C93.5864 14.9879 93.6964 14.8779 93.6964 14.7435ZM93.6964 12.9515C93.6964 12.7808 93.5244 12.7071 93.1262 12.7071C92.8126 12.7071 92.556 12.7854 92.556 12.881C92.556 12.9808 92.6949 13.0108 92.8818 12.9515C93.0688 12.8922 93.2077 12.9222 93.2077 13.022C93.2077 13.1176 93.3176 13.1959 93.452 13.1959C93.5864 13.1959 93.6964 13.0859 93.6964 12.9515ZM71.6219 10.5893C71.6219 10.3902 71.3506 10.3449 70.1579 10.3449C68.8811 10.3449 68.6867 10.3821 68.6378 10.6363C68.5866 10.902 68.7156 10.9235 70.1018 10.8806C71.3235 10.8429 71.6219 10.7857 71.6219 10.5893ZM73.288 10.5893C73.5158 10.4101 73.9079 10.2634 74.1594 10.2634C74.4108 10.2634 74.6637 10.1871 74.7214 10.0937C74.7918 9.97984 74.3795 9.93963 73.4684 9.97153C72.1217 10.0187 72.1102 10.0227 72.0591 10.4671C72.0143 10.8564 72.064 10.9151 72.4406 10.9151C72.6789 10.9151 73.0602 10.7685 73.288 10.5893ZM80.2562 10.1005C80.3216 9.99468 79.5008 9.93761 77.9132 9.93761C76.4598 9.93761 75.4287 10.0036 75.3688 10.1005C75.3034 10.2064 76.1242 10.2634 77.7118 10.2634C79.1652 10.2634 80.1963 10.1974 80.2562 10.1005ZM82.4555 10.1005C82.4555 10.0109 82.1256 9.93761 81.7224 9.93761C81.3192 9.93761 80.9893 10.0109 80.9893 10.1005C80.9893 10.1901 81.3192 10.2634 81.7224 10.2634C82.1256 10.2634 82.4555 10.1901 82.4555 10.1005ZM82.4139 9.54482C82.4584 9.50033 82.2663 9.15325 81.9871 8.77353C81.6227 8.27812 81.2261 7.98012 80.5827 7.71834C80.0764 7.51237 79.6861 7.4283 79.6861 7.52526C79.6861 7.86015 80.7368 9.60243 80.9833 9.67623C81.2677 9.76137 82.2914 9.66736 82.4139 9.54482ZM80.5691 8.70841C80.3305 8.30116 80.1743 7.92887 80.222 7.88111C80.376 7.72718 81.0882 8.21014 81.6332 8.83796L82.1635 9.44888H81.5833C81.067 9.44888 80.9552 9.36725 80.5691 8.70841ZM75.9173 8.25741C76.3755 7.44495 76.5787 6.92796 76.4789 6.82823C76.387 6.73627 75.054 6.69026 73.2392 6.71641C70.4898 6.75602 70.1579 6.78998 70.1757 7.02984C70.1866 7.1778 70.5898 7.81694 71.0717 8.45016L71.9477 9.60146L73.5736 9.56589L75.1995 9.53033L75.9173 8.25741ZM71.3368 8.24306C70.9112 7.67764 70.563 7.16782 70.563 7.11012C70.563 7.05242 71.8459 7.0052 73.4139 7.0052C74.982 7.0052 76.2649 7.04365 76.2649 7.09066C76.2649 7.13765 75.9651 7.65083 75.5987 8.23104L74.9324 9.28597L73.5215 9.27858L72.1107 9.2711L71.3368 8.24306ZM80.3377 9.52627C80.3377 9.47923 80.0802 8.92941 79.7655 8.30443L79.1932 7.16812L78.0956 7.16923L76.998 7.17033L76.3871 8.29217C76.0511 8.90917 75.7762 9.45851 75.7762 9.51291C75.7762 9.56732 76.8025 9.61183 78.0569 9.61183C79.3113 9.61183 80.3377 9.57331 80.3377 9.52627ZM76.2649 9.21534C76.2649 9.17649 76.4978 8.77001 76.7825 8.31206L77.3001 7.4794L78.1973 7.5274L79.0944 7.5754L79.4685 8.43069L79.8426 9.28598H78.0537C77.0699 9.28598 76.2649 9.25419 76.2649 9.21534ZM70.0693 8.31501C70.2687 8.18888 70.2249 8.06008 69.807 7.54367C69.1643 6.74957 68.709 6.7204 68.6373 7.46872C68.6086 7.76846 68.6246 8.11668 68.6729 8.24255C68.7723 8.50174 69.6981 8.54977 70.0693 8.31501ZM17.7796 16.1283C17.7796 16.0387 17.6782 15.9653 17.5542 15.9653C17.4303 15.9653 17.2938 15.7823 17.2511 15.5585C17.183 15.2023 17.3175 15.0592 18.3317 14.4088L19.4902 13.666L20.8749 13.7423C21.6365 13.7842 22.5346 13.8698 22.8706 13.9323C23.2778 14.0081 23.4815 13.9858 23.4815 13.8653C23.4815 13.7363 25.1377 13.6846 29.2649 13.6846H35.0482V13.216C35.0482 12.8266 35.2722 12.5653 36.3751 11.6684C37.6684 10.6166 38.4425 10.3134 38.7137 10.7522C38.847 10.9678 39.5619 10.9615 39.6965 10.7436C39.7673 10.6291 41.1822 10.5846 43.9489 10.6097L48.0953 10.6473L48.9603 11.3107C50.1056 12.189 50.2391 12.5225 50.0817 14.1127C49.9547 15.3946 49.9544 15.3952 49.4523 15.4442C49.176 15.4712 48.5636 15.341 48.0914 15.1549C47.3746 14.8723 46.7318 14.8004 44.1952 14.719C40.6837 14.6062 38.0994 14.8174 36.8202 15.3216C36.1354 15.5915 35.7409 15.6448 34.9696 15.5714C31.8187 15.2718 31.3013 15.2692 31.3013 15.553C31.3013 16.1184 30.8845 16.2912 29.5209 16.2912C28.7529 16.2912 28.2059 16.2234 28.2059 16.1283C28.2059 16.0387 28.0227 15.9654 27.7987 15.9654C27.5747 15.9654 27.3914 16.0387 27.3914 16.1283C27.3914 16.2179 27.2081 16.2912 26.9841 16.2912C26.7601 16.2912 26.5768 16.2179 26.5768 16.1283C26.5768 16.0387 26.3569 15.9654 26.0881 15.9654C25.8193 15.9654 25.5994 16.0387 25.5994 16.1283C25.5994 16.2233 25.0563 16.2912 24.2961 16.2912C23.5358 16.2912 22.9928 16.2233 22.9928 16.1283C22.9928 16.0387 22.8095 15.9654 22.5855 15.9654C22.3615 15.9654 22.1782 16.0387 22.1782 16.1283C22.1782 16.2179 21.9583 16.2912 21.6895 16.2912C21.4207 16.2912 21.2007 16.2179 21.2007 16.1283C21.2007 16.0387 21.0175 15.9654 20.7935 15.9654C20.5695 15.9654 20.3862 16.0387 20.3862 16.1283C20.3862 16.2233 19.8431 16.2912 19.0829 16.2912C18.3226 16.2912 17.7796 16.2233 17.7796 16.1283ZM36.4269 13.26C36.6289 13.058 36.6456 12.9467 36.5001 12.7713C36.3964 12.6464 36.2196 12.5442 36.1071 12.5442C35.9947 12.5442 35.8178 12.6464 35.7142 12.7713C35.5686 12.9467 35.5853 13.058 35.7873 13.26C35.9312 13.4039 36.0751 13.5217 36.1071 13.5217C36.1391 13.5217 36.283 13.4039 36.4269 13.26ZM35.894 13.0207C35.9261 12.9244 36.022 12.8456 36.1071 12.8456C36.1922 12.8456 36.2882 12.9244 36.3203 13.0207C36.3524 13.117 36.2565 13.1958 36.1071 13.1958C35.9578 13.1958 35.8619 13.117 35.894 13.0207ZM49.7085 13.2794C49.9792 12.9532 49.7989 12.5442 49.3844 12.5442C49.1996 12.5442 49.0058 12.6551 48.9538 12.7906C48.8602 13.0346 49.1471 13.5217 49.3844 13.5217C49.4521 13.5217 49.5979 13.4126 49.7085 13.2794ZM49.2215 12.9515C49.2215 12.8021 49.3003 12.7062 49.3966 12.7383C49.493 12.7704 49.5718 12.8664 49.5718 12.9515C49.5718 13.0366 49.493 13.1325 49.3966 13.1646C49.3003 13.1967 49.2215 13.1008 49.2215 12.9515ZM96.6181 15.1222C96.3618 14.4367 95.9921 13.8651 95.4579 13.3281L94.6739 12.5399V11.4017V10.2634H95.3255H95.9772V9.1483C95.9772 8.27488 95.9126 7.97473 95.6792 7.76356C95.2823 7.40438 94.8815 7.42233 94.7601 7.80471C94.7059 7.97564 94.5534 8.15696 94.4213 8.20765C94.2354 8.27899 94.2039 8.20903 94.2819 7.89839C94.4023 7.41859 93.9812 7.1765 93.5235 7.46235C93.3132 7.59371 93.2142 7.59498 93.1715 7.46688C93.1376 7.36513 92.5908 7.2682 91.8973 7.24098C91.2292 7.21476 90.0227 7.11859 89.2163 7.02726C87.6838 6.85368 86.3654 6.93731 86.3654 7.20809C86.3654 7.47377 83.6225 6.91374 83.3515 6.59273C83.1147 6.31222 81.2968 5.85576 80.8674 5.96898C80.6607 6.02347 80.3397 5.9598 80.1307 5.82287C79.8034 5.60841 78.8565 5.37405 78.0136 5.29888C77.8554 5.28477 77.6391 5.1864 77.533 5.08028C77.282 4.82924 76.9995 4.83532 76.7829 5.09643C76.5829 5.33732 76.6978 5.56511 77.1609 5.84577C77.4618 6.02819 77.4556 6.03512 77.0794 5.93654C76.2345 5.71516 75.8993 4.8405 76.4377 4.2625C76.7217 3.9577 76.943 3.90985 78.0691 3.90985C79.3724 3.90985 82.1297 4.469 82.1297 4.7333C82.1297 5.05774 85.3021 5.52226 89.868 5.86636C91.212 5.96765 92.7882 6.12643 93.3706 6.2192C93.953 6.31197 95.0742 6.42209 95.8622 6.46391C97.1093 6.53008 97.2839 6.57536 97.2098 6.81328C96.7951 8.14381 96.4335 9.91913 96.3551 11.0096C96.2708 12.1827 96.3163 12.5058 96.7736 13.9777C97.0559 14.8861 97.3299 15.7416 97.3825 15.8788C97.442 16.0338 97.3871 16.1282 97.2363 16.1282C97.0891 16.1282 96.8471 15.7345 96.6181 15.1222ZM61.6842 14.8693C57.968 14.1372 57.9079 14.131 54.3532 14.1115L50.7692 14.0919L50.7176 13.6439L50.6661 13.1959L53.65 13.1766C55.2912 13.166 56.8539 13.1056 57.1227 13.0424C57.3915 12.9792 56.1086 12.9329 54.2718 12.9395L50.9321 12.9515L50.8865 11.0723L50.8409 9.19318L51.3752 9.03594C51.9089 8.87888 51.9096 8.87732 51.9574 7.69759C52.0045 6.53537 52.0123 6.51641 52.4461 6.51214C52.711 6.50955 53.2724 6.21679 53.8521 5.77904L54.8173 5.05027H60.4545C66.7048 5.05027 66.7487 5.05729 66.8465 6.07059C66.8912 6.53379 66.9618 6.60415 67.4269 6.64899L67.9563 6.70003V10.0294V13.3588L67.5898 13.3675C66.1629 13.4018 63.9686 13.5452 63.9055 13.6083C63.8636 13.6502 64.7578 13.6846 65.8928 13.6846H67.9563V14.4177V15.1508L67.1825 15.1507C66.7569 15.1507 65.8341 15.0408 65.1318 14.9064C63.3452 14.5645 63.0228 14.6319 64.6981 14.997C65.4597 15.163 66.5044 15.3021 67.0196 15.3062C67.5348 15.3103 67.9563 15.387 67.9563 15.4766C67.9563 15.8433 65.3441 15.5904 61.6842 14.8693ZM58.7142 12.7632C58.6039 12.7185 58.384 12.7158 58.2255 12.7572C58.067 12.7985 58.1572 12.835 58.426 12.8383C58.6948 12.8416 58.8245 12.8078 58.7142 12.7632ZM58.7147 11.229C59.0487 10.9537 59.322 10.6605 59.322 10.5774C59.322 10.4943 58.5889 10.4263 57.6929 10.4263C55.8557 10.4263 55.6664 10.5783 56.5933 11.3087C57.3118 11.875 57.9606 11.8506 58.7147 11.229ZM62.5803 11.5008C62.5803 11.1948 61.2462 10.4263 60.715 10.4263C60.2116 10.4263 58.9962 11.1904 58.9962 11.5069C58.9962 11.6818 59.3813 11.7296 60.7882 11.7296C62.2187 11.7296 62.5803 11.6835 62.5803 11.5008ZM65.309 10.9255C65.6898 10.4833 66.0014 10.0435 66.0014 9.94811C66.0014 9.83403 65.2449 9.7747 63.7902 9.7747C61.8165 9.7747 61.5846 9.8038 61.6316 10.0454C61.696 10.3766 63.8292 11.7297 64.2867 11.7296C64.4799 11.7295 64.9037 11.3961 65.309 10.9255ZM59.322 8.81464C59.322 8.36581 59.3706 8.33403 60.3402 8.14899C60.9002 8.04212 62.1282 7.91529 63.069 7.86716C65.172 7.75957 65.3498 7.67953 65.3498 6.84032C65.3498 5.70104 65.2968 5.69086 59.632 5.74021L54.679 5.78337L54.632 7.30671C54.6017 8.28988 54.652 8.91088 54.7741 9.05801C54.919 9.23256 55.4739 9.28597 57.1427 9.28597H59.322L59.322 8.81464ZM55.1189 7.95009C54.7836 7.61476 54.8818 6.72701 55.2855 6.44425C55.7855 6.09405 56.1095 6.12635 56.5241 6.5677C56.9441 7.01475 56.9673 7.2945 56.6248 7.78351C56.342 8.18722 55.4542 8.28542 55.1189 7.95009ZM57.0087 7.95009C57.1162 7.84257 57.2042 7.52734 57.2042 7.24957C57.2042 6.97181 57.1162 6.65657 57.0087 6.54905C56.8566 6.397 57.664 6.35356 60.6416 6.35356C64.589 6.35356 64.861 6.39654 64.861 7.02036C64.861 7.41247 64.5338 7.49347 62.9335 7.49746C62.1399 7.4994 60.8827 7.64216 60.0634 7.82329C58.3834 8.19466 56.694 8.26479 57.0087 7.95009ZM62.9044 9.04367C63.1453 8.7534 63.0174 8.341 62.6419 8.19688C62.2561 8.04884 61.8899 8.5834 62.1036 8.98265C62.2992 9.34818 62.6307 9.37344 62.9044 9.04367ZM62.2544 8.71578C62.2544 8.54798 62.3612 8.46808 62.5395 8.50242C62.8829 8.56855 62.8613 8.85768 62.5074 8.93136C62.3598 8.96209 62.2544 8.87229 62.2544 8.71578ZM64.4335 8.92247C64.5702 8.70551 64.5489 8.57821 64.3414 8.37073C63.8534 7.8827 63.1253 8.52052 63.5653 9.05066C63.8186 9.35588 64.1956 9.30021 64.4335 8.92247ZM63.6708 8.85596C63.5187 8.70393 63.7025 8.47141 63.9746 8.47141C64.1037 8.47141 64.2094 8.58137 64.2094 8.71578C64.2094 8.96116 63.8655 9.05067 63.6708 8.85596ZM97.6063 15.4766C97.6063 15.387 97.7162 15.3137 97.8506 15.3137C97.985 15.3137 98.095 15.387 98.095 15.4766C98.095 15.5662 97.985 15.6395 97.8506 15.6395C97.7162 15.6395 97.6063 15.5662 97.6063 15.4766ZM15.6617 12.7402V10.3296L16.2795 9.72631L16.8973 9.12306H26.019H35.1408L36.0257 8.22704L36.9105 7.33103H42.4323H47.9541L48.9045 7.83761C50.35 8.60807 50.3811 8.66607 50.4144 10.6559C50.4409 12.237 50.2938 12.8607 50.0839 12.0578C50.0374 11.8799 49.5539 11.4034 49.0096 10.9989L48.02 10.2634L42.7152 10.2651L37.4104 10.2668L36.0664 11.3556C34.9608 12.2512 34.7224 12.5255 34.7224 12.9016V13.3588H26.9798H19.2373L17.8989 14.2548C17.0832 14.801 16.3851 15.1508 16.1112 15.1508H15.6617V12.7402ZM16.622 13.135C16.874 12.8315 16.6761 12.3813 16.2908 12.3813C15.8955 12.3813 15.7247 12.7977 15.9892 13.1165C16.2389 13.4173 16.3843 13.4215 16.622 13.135ZM31.2671 11.5391C31.2356 10.6547 31.1515 10.1856 31.0161 10.1408C30.866 10.0911 30.8125 10.3768 30.8125 11.2273V12.3813H29.5906H28.3688V11.3409C28.3688 10.3124 28.3633 10.2996 27.8863 10.2296C27.3069 10.1446 27.2284 10.296 27.2284 11.4986C27.2284 12.3315 27.2055 12.3813 26.8211 12.3813C26.4293 12.3813 26.4139 12.342 26.4139 11.3414C26.4139 10.3641 26.3896 10.2968 26.0104 10.2243C25.7885 10.1819 25.5686 10.1856 25.5217 10.2324C25.4748 10.2793 25.4364 10.782 25.4364 11.3495V12.3813H24.296H23.1556V11.3408C23.1556 10.3089 23.1516 10.2998 22.666 10.2285C22.3967 10.189 22.1401 10.1929 22.0958 10.2372C22.0515 10.2815 22.0153 10.782 22.0153 11.3495C22.0153 12.3415 21.9995 12.3813 21.608 12.3813C21.2153 12.3813 21.2007 12.3433 21.2007 11.3223C21.2007 10.5168 21.1454 10.2634 20.9697 10.2634C20.8426 10.2634 20.6226 10.2189 20.4809 10.1645C20.2609 10.0801 20.2232 10.2341 20.2232 11.2171V12.3686L18.8109 12.4157C17.861 12.4473 17.3765 12.5294 17.3311 12.6664C17.2778 12.8272 18.7414 12.87 24.289 12.87H31.3144L31.2671 11.5391ZM19.4731 11.7045C19.7892 11.2533 19.5484 10.7522 19.0156 10.7522C18.4493 10.7522 18.1764 11.154 18.4038 11.653C18.6308 12.1513 19.1429 12.1759 19.4731 11.7045ZM18.757 11.3224C18.757 11.188 18.867 11.078 19.0014 11.078C19.1358 11.078 19.2458 11.188 19.2458 11.3224C19.2458 11.4568 19.1358 11.5667 19.0014 11.5667C18.867 11.5667 18.757 11.4568 18.757 11.3224ZM24.8487 11.6889C25.1108 11.2709 24.7775 10.8336 24.1968 10.8336C23.8291 10.8336 23.7142 10.9159 23.6726 11.2091C23.5633 11.9799 24.4417 12.3382 24.8487 11.6889ZM24.0109 11.3631C24.0483 11.2511 24.1765 11.1595 24.296 11.1595C24.4155 11.1595 24.5438 11.2511 24.5811 11.3631C24.6215 11.4842 24.506 11.5667 24.296 11.5667C24.086 11.5667 23.9705 11.4842 24.0109 11.3631ZM30.0677 11.7995C30.537 11.3303 30.2588 10.7522 29.5638 10.7522C29.042 10.7522 28.8059 11.2576 29.1189 11.7045C29.4101 12.1203 29.7163 12.1509 30.0677 11.7995ZM29.3463 11.3224C29.3463 11.1546 29.4531 11.0747 29.6314 11.109C29.9748 11.1751 29.9531 11.4643 29.5993 11.5379C29.4517 11.5687 29.3463 11.4789 29.3463 11.3224ZM37.9806 8.70796C37.9806 8.55986 37.0974 7.83044 36.9114 7.82491C36.8162 7.82205 36.5276 8.03969 36.27 8.3085L35.8018 8.79723H36.8912C37.4904 8.79723 37.9806 8.75706 37.9806 8.70796ZM39.4534 8.44077C40.2353 7.86268 40.0839 7.65685 38.8766 7.65685C37.713 7.65685 37.585 7.79548 38.1719 8.42018C38.6122 8.88885 38.8423 8.89254 39.4534 8.44077ZM41.7276 8.64614C41.7276 8.45883 40.9313 7.81976 40.6979 7.81976C40.4908 7.81976 39.7726 8.47405 39.7726 8.66272C39.7726 8.7367 40.2125 8.79723 40.7501 8.79723C41.2877 8.79723 41.7276 8.72924 41.7276 8.64614ZM43.3036 8.37933C43.605 8.14949 43.8092 7.8929 43.7574 7.80914C43.7056 7.72538 43.1911 7.65685 42.614 7.65685C41.4284 7.65685 41.2564 7.87949 41.9939 8.45958C42.5419 8.89064 42.6413 8.88456 43.3036 8.37933ZM45.4745 8.68555C45.4745 8.51931 44.7881 7.81976 44.625 7.81976C44.4206 7.81976 43.5196 8.50871 43.5196 8.66496C43.5196 8.73771 43.9595 8.79723 44.4971 8.79723C45.0347 8.79723 45.4745 8.74698 45.4745 8.68555ZM47.1103 8.44077C47.8922 7.86268 47.7407 7.65685 46.5335 7.65685C45.3699 7.65685 45.2419 7.79548 45.8288 8.42018C46.2691 8.88885 46.4992 8.89254 47.1103 8.44077ZM49.3844 8.64614C49.3844 8.45883 48.5881 7.81976 48.3548 7.81976C48.1477 7.81976 47.4295 8.47405 47.4295 8.66272C47.4295 8.7367 47.8693 8.79723 48.4069 8.79723C48.9446 8.79723 49.3844 8.72924 49.3844 8.64614ZM10.5244 13.4759C10.4731 13.2715 10.4534 12.6377 10.4806 12.0674C10.5354 10.9167 10.8391 10.5085 11.3853 10.8514C11.598 10.985 11.6829 11.2937 11.7198 12.0674C11.7905 13.5505 11.6871 13.8475 11.1002 13.8475C10.7337 13.8475 10.5952 13.7581 10.5244 13.4759ZM11.4931 11.6823C11.7476 11.2788 11.2252 10.7714 10.864 11.0712C10.5606 11.323 10.5417 11.5947 10.809 11.862C11.0486 12.1017 11.2642 12.045 11.4931 11.6823ZM2.79167 13.1958C2.79167 12.8809 2.89907 12.8701 6.00918 12.8736L9.22669 12.8772L8.81941 13.1958C8.45155 13.4836 8.14014 13.5148 5.6019 13.518C2.89908 13.5215 2.79167 13.5092 2.79167 13.1958ZM13.0166 12.9089C12.2208 12.3903 12.0817 12.2266 12.0798 11.8066C12.0767 11.1003 11.6665 10.5893 11.1026 10.5893C10.4569 10.5893 10.1227 10.9802 10.1227 11.7355C10.1227 12.1959 10.0363 12.4161 9.80759 12.5385C9.61967 12.639 8.14005 12.7071 6.14208 12.7071H2.79167V10.9965V9.28597H9.49945H16.2072L15.853 9.66302C15.5349 10.0016 15.4988 10.2178 15.4988 11.7809V13.5217L14.725 13.5198C14.1083 13.5183 13.7613 13.3943 13.0166 12.9089ZM0.185088 12.7071C0.185088 12.3903 0.262323 12.3698 1.28474 12.4146C2.13219 12.4517 2.3844 12.5188 2.3844 12.7071C2.3844 12.8954 2.13219 12.9625 1.28474 12.9997C0.262324 13.0444 0.185088 13.0239 0.185088 12.7071ZM0.185088 10.8336V9.61179H1.32547H2.46585V10.8336V12.0555H1.32547H0.185088V10.8336ZM82.6184 8.76833C81.9082 7.80662 81.8294 7.75354 80.0933 7.06685C77.4057 6.00385 77.5037 6.05727 77.7335 5.78042C77.9717 5.49344 79.066 5.60725 79.6634 5.98112C79.8749 6.11353 80.4614 6.24229 80.9666 6.26725C82.1261 6.32454 82.7631 6.48904 83.2324 6.85227C83.4357 7.00963 83.9671 7.1886 84.4133 7.24997C84.8595 7.31134 85.2657 7.42799 85.3159 7.5092C85.4342 7.70061 86.3187 7.70122 86.4369 7.50994C86.5973 7.2504 88.3648 7.15699 89.6236 7.34153C90.2956 7.44004 91.2853 7.53296 91.8229 7.54801C92.8022 7.57542 93.2077 7.70551 93.2077 7.99226C93.2077 8.08197 92.0723 8.14556 90.4707 8.14556H87.7337L86.8198 8.96012L85.9059 9.77468L84.6287 9.76784L83.3515 9.76101L82.6184 8.76833ZM1.16256 8.70116C1.16256 8.41403 1.96813 7.99289 2.52653 7.98809C3.06911 7.98347 3.12901 8.01687 2.95459 8.22704C2.64246 8.60313 3.26362 8.54101 3.76914 8.14559C4.17059 7.83157 5.07244 7.69629 5.07244 7.95009C5.07244 8.02177 4.98447 8.1684 4.87694 8.27592C4.53404 8.61882 5.2195 8.50753 5.67963 8.14559C6.13674 7.78603 7.24491 7.66739 6.89705 8.01526C6.61581 8.2965 6.6561 8.47141 7.00213 8.47141C7.16745 8.47141 7.43539 8.32479 7.59757 8.14559C7.80981 7.91107 8.09933 7.81976 8.63077 7.81976H9.3691L8.90086 8.3085L8.43262 8.79723H4.79759C2.79832 8.79723 1.16256 8.754 1.16256 8.70116ZM9.14523 8.67057C9.14523 8.25446 9.69835 7.8179 10.2541 7.79535C10.7459 7.7754 10.774 7.75855 10.4078 7.70308C9.98271 7.63868 9.95979 7.59018 9.95979 6.7549C9.95979 5.96567 9.90922 5.83719 9.47105 5.51324C9.20225 5.3145 8.98232 5.09238 8.98232 5.01962C8.98232 4.94687 10.1919 4.88735 11.6704 4.88735H14.3584V6.84229V8.79723H11.7518C10.3182 8.79723 9.14523 8.74024 9.14523 8.67057ZM14.8471 7.6373C14.8471 6.62718 14.8711 6.55324 15.173 6.63218C15.4062 6.69318 15.4988 6.63717 15.4988 6.43501C15.4988 6.23285 15.4062 6.17685 15.173 6.23785C14.875 6.31578 14.8471 6.24281 14.8471 5.3836V4.44414L19.9381 4.3352C22.7382 4.27529 25.3957 4.18932 25.8437 4.14416C27.1281 4.0147 27.1399 4.04456 26.7298 6.36957C26.5338 7.48078 26.3275 8.43764 26.2715 8.49593C26.2154 8.55422 23.622 8.63019 20.5083 8.66477L14.8471 8.72763V7.6373ZM25.5179 7.3288C25.5179 6.9796 25.0445 7.03003 24.9758 7.38655C24.9339 7.60426 25.0002 7.67061 25.218 7.62869C25.3829 7.59692 25.5179 7.46197 25.5179 7.3288ZM26.3324 7.3288C26.3324 6.9796 25.859 7.03003 25.7904 7.38655C25.7485 7.60426 25.8148 7.67061 26.0325 7.62869C26.1975 7.59692 26.3324 7.46197 26.3324 7.3288ZM0.291793 8.3364C-0.111928 7.89029 -0.0913012 5.69219 0.320098 5.31988C0.721878 4.95627 0.875357 4.97842 1.33353 5.46612C1.66082 5.8145 1.68551 5.9059 1.48569 6.0294C1.32918 6.12613 1.11573 6.09069 0.864902 5.92635C0.654658 5.78859 0.450057 5.70846 0.410234 5.74828C0.370409 5.78811 0.523393 5.94227 0.750193 6.09088C1.30969 6.45747 1.31224 7.19548 0.7553 7.56041C0.531296 7.70719 0.348021 7.90421 0.348021 7.99825C0.348021 8.09229 0.539914 8.01829 0.774449 7.83381C1.21271 7.48907 1.4884 7.51158 1.4884 7.89209C1.4884 8.0716 0.83258 8.63432 0.62337 8.63432C0.589301 8.63432 0.440082 8.50026 0.291793 8.3364ZM26.8115 8.10486C26.954 7.43484 27.3913 5.17934 27.3913 5.1143C27.3913 5.07908 28.4177 5.05026 29.6721 5.05026H31.9529V5.95673C31.9529 6.84031 31.9313 6.88333 31.0976 7.66109L30.2423 8.45899L28.4879 8.46518C26.7526 8.47127 26.7343 8.46741 26.8115 8.10486ZM31.6971 6.17219C31.5583 5.94757 31.1383 6.00226 31.1383 6.24495C31.1383 6.36442 31.1865 6.5104 31.2455 6.56936C31.3928 6.71669 31.808 6.35158 31.6971 6.17219ZM30.8125 8.39331C30.8125 8.35035 31.1424 8.01112 31.5456 7.63946C32.2396 6.99971 32.2787 6.91707 32.2787 6.08844C32.2787 5.33725 32.3226 5.21318 32.5881 5.21318C32.8375 5.21318 32.9088 5.07118 32.9558 4.48085L33.014 3.74852L16.6403 3.70702L0.266545 3.66552V2.55535V1.44519L2.46585 1.44223L4.66516 1.43928L4.96525 1.94148C5.24072 2.40248 5.33684 2.44368 6.13675 2.44368C6.61602 2.44368 7.05346 2.37037 7.10884 2.28077C7.24149 2.06614 9.79688 2.06614 9.79688 2.28077C9.79688 2.37037 9.98016 2.44368 10.2042 2.44368C10.4282 2.44368 10.6114 2.37037 10.6114 2.28077C10.6114 2.05342 11.1988 2.07732 11.6124 2.3215C11.8883 2.48441 11.9721 2.48441 12.031 2.3215C12.1216 2.07148 14.6134 2.03437 14.7657 2.28077C14.8968 2.49289 15.6617 2.49289 15.6617 2.28077C15.6617 2.19117 15.845 2.11786 16.069 2.11786C16.293 2.11786 16.4763 2.19117 16.4763 2.28077C16.4763 2.49289 17.2412 2.49289 17.3723 2.28077C17.5036 2.06835 19.8476 2.06835 19.9789 2.28077C20.11 2.49289 20.8749 2.49289 20.8749 2.28077C20.8749 2.06866 21.6398 2.06866 21.7709 2.28077C21.902 2.49289 22.6669 2.49289 22.6669 2.28077C22.6669 2.18574 23.2099 2.11786 23.9702 2.11786C24.7305 2.11786 25.2735 2.18574 25.2735 2.28077C25.2735 2.49289 26.0384 2.49289 26.1695 2.28077C26.3006 2.06866 27.0655 2.06866 27.0655 2.28077C27.0655 2.37037 27.2488 2.44368 27.4728 2.44368C27.6968 2.44368 27.8801 2.37037 27.8801 2.28077C27.8801 2.06614 30.4355 2.06614 30.5681 2.28077C30.6992 2.49289 31.4641 2.49289 31.4641 2.28077C31.4641 2.19117 31.6474 2.11786 31.8714 2.11786C32.0954 2.11786 32.2787 2.19117 32.2787 2.28077C32.2787 2.49289 33.0436 2.49289 33.1747 2.28077C33.3074 2.06614 35.8628 2.06614 35.8628 2.28077C35.8628 2.37037 36.0417 2.44368 36.2604 2.44368C36.4791 2.44368 36.7034 2.37037 36.7588 2.28077C36.8141 2.19117 37.0384 2.11786 37.2571 2.11786C37.4758 2.11786 37.6548 2.19117 37.6548 2.28077C37.6548 2.37037 37.8381 2.44368 38.0621 2.44368C38.2861 2.44368 38.4693 2.37037 38.4693 2.28077C38.4693 2.18574 39.0124 2.11786 39.7726 2.11786C40.5329 2.11786 41.0759 2.18574 41.0759 2.28077C41.0759 2.37037 41.2959 2.44368 41.5647 2.44368C41.8335 2.44368 42.0534 2.37037 42.0534 2.28077C42.0534 2.19117 42.2367 2.11786 42.4607 2.11786C42.6847 2.11786 42.868 2.19117 42.868 2.28077C42.868 2.37037 43.0469 2.44368 43.2656 2.44368C43.4843 2.44368 43.7086 2.37037 43.764 2.28077C43.8193 2.19117 44.4468 2.11786 45.1583 2.11786C45.9122 2.11786 46.452 2.18584 46.452 2.28077C46.452 2.37037 46.6353 2.44368 46.8593 2.44368C47.0833 2.44368 47.2666 2.37037 47.2666 2.28077C47.2666 2.06866 48.0315 2.06866 48.1626 2.28077C48.2937 2.49289 49.0586 2.49289 49.0586 2.28077C49.0586 2.18592 49.5958 2.11786 50.3445 2.11786C51.6924 2.11786 51.8281 2.19358 51.8281 2.94574C51.8281 3.22171 51.9566 3.25969 52.9277 3.27064L54.0274 3.28303L53.4572 3.50261C53.0988 3.64062 52.1457 3.72679 50.8914 3.73458C49.6778 3.74212 48.8957 3.81082 48.8957 3.90989C48.8957 3.99949 48.5291 4.0728 48.0811 4.0728C47.6331 4.0728 47.2666 3.99949 47.2666 3.90989C47.2666 3.80933 46.4249 3.74698 45.0673 3.74698C43.7097 3.74698 42.868 3.80933 42.868 3.90989C42.868 4.11802 41.2842 4.12506 41.2117 3.91724C41.1811 3.82964 40.1256 3.7511 38.7952 3.73745L36.4329 3.7132L36.4065 5.55885L36.3801 7.4045L35.798 7.93796L35.2159 8.47142H33.0142C31.8033 8.47142 30.8125 8.43626 30.8125 8.39331ZM3.60623 2.85095C3.60623 2.46178 3.56279 2.44368 2.62876 2.44368C1.69474 2.44368 1.65129 2.46178 1.65129 2.85095C1.65129 3.24013 1.69473 3.25823 2.62876 3.25823C3.56279 3.25823 3.60623 3.24013 3.60623 2.85095ZM49.7348 7.7348L48.8633 7.0052H42.8518H36.8402V5.70191V4.39861H44.2527H51.6652V6.43501V8.47141L51.1357 8.4679C50.75 8.46531 50.3697 8.26636 49.7348 7.7348ZM38.1435 5.21317C38.1435 5.12357 38.0335 5.05026 37.8991 5.05026C37.7647 5.05026 37.6548 5.12357 37.6548 5.21317C37.6548 5.30277 37.7647 5.37608 37.8991 5.37608C38.0335 5.37608 38.1435 5.30277 38.1435 5.21317ZM39.2839 5.21317C39.2839 5.12357 39.2106 5.05026 39.121 5.05026C39.0314 5.05026 38.9581 5.12357 38.9581 5.21317C38.9581 5.30277 39.0314 5.37608 39.121 5.37608C39.2106 5.37608 39.2839 5.30277 39.2839 5.21317ZM93.6964 7.73831C93.6964 7.6039 93.7697 7.49394 93.8593 7.49394C93.9489 7.49394 94.0222 7.6039 94.0222 7.73831C94.0222 7.87271 93.9489 7.98267 93.8593 7.98267C93.7697 7.98267 93.6964 7.87271 93.6964 7.73831ZM97.3935 7.87849C97.2633 7.74834 97.4105 7.49394 97.6159 7.49394C97.7002 7.49394 97.7692 7.6039 97.7692 7.73831C97.7692 7.99023 97.577 8.06196 97.3935 7.87849ZM1.59699 7.54824C1.42399 7.37524 1.47137 6.19064 1.65129 6.19064C1.74089 6.19064 1.8142 6.52054 1.8142 6.92375C1.8142 7.66962 1.78947 7.74072 1.59699 7.54824ZM2.14003 6.84229V6.02773H2.71022H3.28041V6.84229V7.65685H2.71022H2.14003V6.84229ZM4.45259 6.88302C4.49497 6.22266 4.556 6.10155 4.8688 6.05713C5.20757 6.00902 5.23535 6.06766 5.23535 6.83096C5.23535 7.60802 5.21074 7.65685 4.81914 7.65685C4.42426 7.65685 4.40548 7.61722 4.45259 6.88302ZM6.37573 6.85363C6.37573 6.07657 6.40034 6.02774 6.79194 6.02774C7.18682 6.02774 7.2056 6.06737 7.15849 6.80157C7.11611 7.46194 7.05509 7.58304 6.74228 7.62746C6.40351 7.67557 6.37573 7.61693 6.37573 6.85363ZM8.33067 6.85313C8.33067 6.10138 8.35966 6.045 8.77868 5.98152C9.18423 5.92008 9.17509 5.91134 8.68219 5.88925C8.38272 5.87582 7.9513 5.71821 7.72348 5.53901C7.08028 5.03307 6.37241 5.1447 6.89705 5.66934C7.0491 5.82139 6.98231 5.86483 6.59648 5.86483C6.3073 5.86483 5.97743 5.72894 5.80554 5.53901C5.64336 5.3598 5.3274 5.21318 5.10339 5.21318C4.70644 5.21318 4.70359 5.22144 4.99098 5.539C5.28051 5.85893 5.27553 5.86483 4.71566 5.86483C4.35236 5.86483 4.03847 5.7466 3.8506 5.539C3.68842 5.3598 3.42048 5.21318 3.25516 5.21318C2.90913 5.21318 2.86884 5.38809 3.15008 5.66933C3.30213 5.82138 3.20257 5.86368 2.70207 5.85968C2.2585 5.85611 1.91938 5.73202 1.61057 5.46021C1.36416 5.24334 1.16256 5.02572 1.16256 4.97663C1.16256 4.92753 2.74951 4.88736 4.68911 4.88736H8.21566L8.92481 5.46845C9.58737 6.01137 9.63397 6.10235 9.63397 6.8532V7.65685H8.98232H8.33067V6.85313ZM67.3266 5.4343L67.3754 4.643L60.9841 4.60038L54.5928 4.55776L53.766 5.2113C53.23 5.63496 52.7725 5.86483 52.4651 5.86483C51.9982 5.86483 51.991 5.85105 51.991 4.95524C51.991 4.29902 52.0477 4.06506 52.1947 4.11532C52.3067 4.15365 52.906 4.01313 53.5265 3.80308C54.5847 3.44484 54.8947 3.42116 58.5243 3.42116C61.0883 3.42116 63.7309 3.53656 66.3562 3.76319C68.5355 3.95131 70.6485 4.12494 71.0517 4.14904C71.4549 4.17314 71.9681 4.239 72.1921 4.2954C72.4161 4.35179 73.2225 4.42966 73.9841 4.46844C74.7457 4.50722 75.4605 4.54403 75.5725 4.55024C75.6991 4.55726 75.7761 4.8047 75.7761 5.20421V5.84687L72.3143 5.92405C70.4102 5.9665 68.4981 6.05171 68.0652 6.11341L67.278 6.22559L67.3266 5.4343ZM76.9477 5.36388C76.9799 5.26756 77.0757 5.18875 77.1609 5.18875C77.246 5.18875 77.3419 5.26756 77.374 5.36388C77.4061 5.4602 77.3102 5.53901 77.1609 5.53901C77.0115 5.53901 76.9156 5.4602 76.9477 5.36388ZM69.1782 3.63797C68.9094 3.60487 68.3596 3.49911 67.9564 3.40296C67.4903 3.29181 64.923 3.23655 60.9084 3.25125C55.2477 3.27197 54.5832 3.24724 54.4932 3.01281C54.4332 2.85656 54.5297 2.62377 54.7328 2.43456C55.0066 2.1794 55.3096 2.11786 56.2917 2.11786C56.9622 2.11786 57.5561 2.19117 57.6115 2.28077C57.7425 2.49289 58.5075 2.49289 58.5075 2.28077C58.5075 2.19117 58.6908 2.11786 58.9148 2.11786C59.1388 2.11786 59.322 2.19117 59.322 2.28077C59.322 2.49289 60.087 2.49289 60.218 2.28077C60.3507 2.06614 62.9061 2.06614 62.9061 2.28077C62.9061 2.37037 63.0894 2.44368 63.3134 2.44368C63.5374 2.44368 63.7206 2.37037 63.7206 2.28077C63.7206 2.19117 63.9406 2.11786 64.2094 2.11786C64.6202 2.11786 64.6981 2.05387 64.6981 1.71631C64.6981 1.13853 65.1399 0.972824 66.9689 0.86464L68.5764 0.769563L68.8407 1.2808C68.9861 1.56198 69.1713 1.79204 69.2522 1.79204C69.5768 1.79204 69.9113 2.33539 69.9113 2.8626C69.9113 3.24032 69.9873 3.42115 70.146 3.42115C70.2752 3.42115 70.4261 3.49446 70.4815 3.58406C70.581 3.7451 70.1821 3.7616 69.1782 3.63797ZM68.4088 2.84172C68.8609 2.5251 68.8774 1.89853 68.4451 1.46621C68.0151 1.03626 67.7009 1.05518 67.2159 1.54026C66.7308 2.02535 66.7119 2.33955 67.1418 2.76951C67.5332 3.16092 67.9215 3.18305 68.4088 2.84172ZM67.4941 2.6264C67.3743 2.55044 67.3009 2.31331 67.3312 2.09944C67.4068 1.56436 68.2038 1.45149 68.3631 1.95329C68.548 2.53585 68.0094 2.95303 67.4941 2.6264ZM0.293696 1.03177C0.233964 0.972042 0.185088 0.715454 0.185088 0.461583V0H2.11388C4.02266 0 4.04463 0.00431331 4.23173 0.414945C4.33571 0.643164 4.42079 0.89975 4.42079 0.985136C4.42079 1.15996 0.46657 1.20465 0.293696 1.03177Z" />
</svg>
