<svg width="100" height="48" viewBox="0 0 100 48"  xmlns="http://www.w3.org/2000/svg">
<path d="M81.089 46.7524C80.098 46.0866 79.883 45.7096 79.7933 44.4795C79.7266 43.564 79.8336 43.0048 80.0756 43.0048C81.3965 43.0048 83.6421 43.9134 84.4783 44.7862L85.4517 45.8022H91.086C95.002 45.8022 96.8482 45.6742 97.1399 45.3826C97.3707 45.1518 97.5595 44.1564 97.5595 43.1706C97.5595 41.7117 97.7218 41.2258 98.4323 40.5584C98.9123 40.1074 99.4238 39.8568 99.5687 40.0016C99.7137 40.1464 99.8885 41.6973 99.957 43.4481C100.065 46.1973 99.996 46.694 99.4531 47.091C98.9757 47.44 96.8341 47.5506 90.5509 47.5506C82.5158 47.5506 82.2429 47.5276 81.089 46.7524ZM90.7497 45.1805C85.5848 45.0846 85.5 45.0703 84.5244 44.1314C83.9804 43.6079 82.8749 43.0156 82.0678 42.8152C80.8482 42.5123 80.5817 42.2922 80.4904 41.5128C80.43 40.997 80.524 40.3186 80.6993 40.0054C80.935 39.5843 80.4399 38.3997 78.7985 35.4571C77.5777 33.2687 76.579 31.1606 76.579 30.7725C76.579 30.3844 76.3971 30.0668 76.1749 30.0668C75.9526 30.0668 75.2518 29.6709 74.6174 29.1871C73.9831 28.7032 72.9761 28.2098 72.3798 28.0905C71.6135 27.9373 71.3536 27.7223 71.4935 27.3577C71.6443 26.9646 71.5449 26.9135 71.0755 27.143C70.7368 27.3087 66.0931 27.4883 60.7561 27.5423L51.0526 27.6403L51.0523 26.4933L51.0521 25.3462L59.3298 25.4462L67.6076 25.5462L69.5581 24.3467C74.0542 21.5818 84.5894 16.1875 84.8955 16.4936C85.0911 16.6893 86.0247 16.2902 87.2796 15.4745C89.9633 13.7299 92.7392 12.4792 93.574 12.6384C93.964 12.7128 94.2876 13.1178 94.3588 13.6208C94.4575 14.3179 93.8299 15.0948 90.9717 17.8133L87.4633 21.1501L87.6504 22.8984C87.7663 23.9817 88.0847 24.8631 88.4875 25.2154C89.2626 25.8933 89.0334 26.2204 87.7831 26.2204C87.1571 26.2204 86.3741 25.72 85.3208 24.6468C84.4715 23.7814 83.5845 23.0733 83.3499 23.0733C83.1152 23.0733 81.9825 23.6337 80.8326 24.3187C77.7192 26.1733 77.5346 28.0049 80.4121 28.491C81.6389 28.6983 81.9756 29.0302 84.2384 32.2627C85.603 34.2121 86.7195 36.1434 86.7195 36.5543C86.7195 36.9653 86.4048 37.5864 86.0202 37.9345C85.2116 38.6663 85.1064 40.4199 85.815 41.354C86.2343 41.9066 86.8283 41.9652 91.1365 41.8785L95.986 41.7809L96.0937 40.2895C96.1755 39.1574 96.4103 38.6613 97.0684 38.23C97.8801 37.6982 97.9673 37.7041 98.4357 38.3227C99.1228 39.2305 99.0871 39.4074 98.0839 40.0647C97.3164 40.5676 97.2097 40.887 97.2097 42.683C97.2097 44.2934 97.0796 44.787 96.5978 45.0031C96.2612 45.1541 93.6296 45.2339 90.7497 45.1805ZM86.603 40.6736C86.0956 40.1662 86.4151 38.8881 87.2441 38.1093C88.701 36.7406 88.4017 35.861 84.9535 31.3781C82.1801 27.7726 81.6665 27.2694 80.7595 27.2694C80.1148 27.2694 79.726 27.0882 79.726 26.7877C79.726 26.2167 80.1042 25.9001 82.0918 24.8074L83.5834 23.9874L85.1294 25.5047C86.6561 27.0031 86.6997 27.0196 88.6006 26.8234C90.0753 26.6712 90.6287 26.7488 90.9657 27.1549C91.331 27.595 91.2602 27.7968 90.5487 28.3436C90.0774 28.7058 89.5423 29.0057 89.3596 29.01C89.1769 29.0143 89.2018 29.1921 89.4148 29.4052C89.6983 29.6886 90.1432 29.6801 91.0727 29.3733C93.2909 28.6412 94.1319 29.462 92.2828 30.5543C90.8796 31.3832 91.4122 31.9193 93.1186 31.3956C94.0945 31.096 94.5308 31.0944 94.8255 31.389C95.1201 31.6836 94.9398 31.9451 94.1199 32.4119C92.4025 33.3897 92.9574 33.9972 95.0009 33.3764C95.6562 33.1774 95.8968 33.4061 96.7006 34.9924L97.637 36.8402L96.546 37.737C95.7302 38.4077 95.4559 38.9204 95.4583 39.7703L95.4605 40.9067H91.1479C88.7759 40.9067 86.7312 40.8018 86.603 40.6736ZM8.04254 26.0455L7.22128 25.1713H25.1157C34.9576 25.1713 43.0101 25.2259 43.0101 25.2927C43.0101 25.3594 42.7163 25.7528 42.3572 26.1669C41.7739 26.8394 41.348 26.9197 38.365 26.9197C36.0052 26.9197 34.9828 26.7915 34.8789 26.4826C34.7614 26.1329 34.4883 26.1329 33.5137 26.4826C31.9751 27.0346 31.0289 27.0373 30.483 26.4913C30.145 26.1533 29.9091 26.1538 29.3645 26.4939C28.5431 27.0069 17.903 27.0073 17.2439 26.4944C16.9867 26.2943 16.5636 26.3138 16.1304 26.5456C15.7461 26.7513 13.9539 26.9195 12.1477 26.9195C9.09698 26.9195 8.80548 26.8576 8.04254 26.0455ZM45.4578 25.3877C45.4578 25.3143 46.0086 24.8343 46.6817 24.3209L47.9056 23.3874V24.4542C47.9056 25.4403 47.813 25.521 46.6817 25.521C46.0086 25.521 45.4578 25.461 45.4578 25.3877ZM50.9762 23.8601C50.5742 23.0274 50.3059 22.8984 48.9757 22.8984H47.4394L45.763 19.3072C44.8409 17.3321 44.1758 15.4832 44.285 15.1986C44.4531 14.7605 45.844 14.6811 53.3423 14.6811C58.8709 14.6811 62.2822 14.5496 62.4171 14.3314C62.5447 14.125 64.6582 13.9817 67.5765 13.9817H72.5199L73.9946 15.6427L75.4694 17.3036L77.86 16.0798C80.2223 14.8704 80.2519 14.8376 80.361 13.3104C80.5374 10.8414 80.2797 10.4016 77.8324 8.99398C75.5984 7.70913 75.4994 7.68755 71.8364 7.68755C68.5838 7.68755 68.1388 7.61747 68.3242 7.13444C68.4409 6.83023 68.5364 6.35817 68.5364 6.08541C68.5364 5.68089 69.44 5.5895 73.4395 5.5895H78.3425L82.6961 8.12465C86.682 10.4457 87.9106 11.534 86.5447 11.534C85.5066 11.534 86.05 12.4597 87.5006 13.1622L88.981 13.8792L87.8676 14.455C86.5005 15.162 86.3699 15.1664 86.3699 14.5062C86.3699 13.6351 84.6643 13.8548 84.2426 14.7803C83.9942 15.3256 81.639 16.7615 76.8195 19.3062L69.7603 23.0335L69.6517 21.2229C69.574 19.9268 69.2845 19.0731 68.6328 18.2187L67.7224 17.025L62.0574 17.2572C57.2277 17.4552 56.3276 17.4113 55.9526 16.9594C55.6092 16.5456 54.6832 16.4294 51.729 16.4294C48.2153 16.4294 47.9064 16.4849 47.4009 17.2066C47.1015 17.634 46.8565 18.3071 46.8565 18.7023C46.8565 19.0976 47.1015 19.7706 47.4009 20.1981C47.9067 20.9202 48.2146 20.9752 51.7512 20.9752C53.9113 20.9752 55.6506 20.824 55.7733 20.6255C56.3192 19.7421 56.6474 20.4642 56.6474 22.5488V24.8217H54.044C51.5495 24.8217 51.421 24.7814 50.9762 23.8601ZM4.81408 23.8601C3.19428 22.0226 0.777649 15.0958 1.2903 13.7598C1.37614 13.5361 1.27828 13.2492 1.07286 13.1223C0.867433 12.9953 0.69935 12.586 0.69935 12.2127C0.69935 11.5525 1.07009 11.534 14.2784 11.534C21.7469 11.534 27.9411 11.4504 28.0432 11.3482C28.1454 11.2461 27.877 10.1839 27.4467 8.98792C27.0164 7.79191 26.555 6.45932 26.4214 6.02659L26.1785 5.23982L43.9481 5.27441C53.7214 5.29343 62.5439 5.41145 63.5537 5.53667L65.3896 5.76434L63.2735 8.47433L61.1574 11.1843H50.9027C41.9204 11.1843 40.5903 11.2539 40.1827 11.7449C39.7916 12.2162 39.8438 12.7987 40.51 15.3997C40.9459 17.1015 41.8295 19.7996 42.4736 21.3955L43.6445 24.2971L38.2148 24.3937C33.355 24.48 32.7356 24.425 32.3139 23.8691C31.8685 23.2821 31.8421 23.2816 31.8316 23.86C31.8212 24.4318 30.953 24.4719 18.587 24.4719C6.42231 24.4719 5.30996 24.4226 4.81408 23.8601ZM16.9307 22.1617C17.6989 21.8669 17.6319 21.3164 16.318 17.1288L15.166 13.4572L11.5681 13.2824C9.58928 13.1862 7.81148 13.2064 7.61744 13.3273C7.02762 13.6947 7.69045 17.7187 8.63503 19.5051C10.1106 22.2958 10.2429 22.3739 13.4881 22.3739C15.0773 22.3739 16.6265 22.2784 16.9307 22.1617ZM10.8831 19.7268C10.1412 18.7836 9.56921 16.1129 9.91572 15.2099C10.1731 14.5391 13.7392 14.4632 14.2268 15.1181C14.4058 15.3585 14.8386 16.4994 15.1888 17.6533C15.5389 18.8072 15.9006 19.948 15.9926 20.1884C16.1159 20.5106 15.559 20.6255 13.875 20.6255C11.8375 20.6255 11.5135 20.5282 10.8831 19.7268ZM28.7797 21.9368C29.324 21.5333 29.2681 21.1905 28.0533 17.4785L26.7374 13.4572L23.1286 13.2824C18.7227 13.0689 18.626 13.1403 19.2218 16.1698C19.6689 18.443 19.8519 18.8922 21.2149 21.0626L22.0383 22.3739H25.1142C27.0273 22.3739 28.413 22.2087 28.7797 21.9368ZM22.4189 19.6322C21.9691 19.0005 21.674 17.9503 21.6083 16.7474L21.505 14.8559L23.6592 14.7526L25.8133 14.6493L26.7188 17.4466C27.2169 18.9851 27.6244 20.3298 27.6244 20.4347C27.6244 20.5397 26.6123 20.6255 25.3753 20.6255C23.3035 20.6255 23.0705 20.5473 22.4189 19.6322ZM60.6811 9.74662C61.1473 8.2776 59.1434 7.54501 58.5917 8.98277C58.4773 9.28076 58.5631 9.74066 58.7823 10.0048C59.3794 10.7242 60.4155 10.5834 60.6811 9.74662ZM44.9419 23.7865C44.6666 23.341 45.0392 22.0243 45.4406 22.0243C45.5975 22.0243 45.8067 22.3332 45.9055 22.7107C46.1109 23.4963 45.313 24.387 44.9419 23.7865ZM66.2025 23.5498C65.8966 23.425 65.9189 23.0779 66.2899 22.19C66.9751 20.55 66.9246 20.1421 65.8828 18.904L64.9775 17.8281H66.1896C67.5928 17.8281 68.0719 18.2818 68.3529 19.8766C68.4969 20.6942 68.3333 21.4162 67.7818 22.3975C66.9963 23.7952 66.9272 23.8455 66.2025 23.5498ZM43.8406 21.1623C43.7124 20.8282 43.8417 20.3433 44.1383 20.0469C44.6045 19.5807 44.6835 19.6017 44.8494 20.2359C45.0935 21.1697 44.1692 22.0186 43.8406 21.1623ZM47.9755 19.8563C47.7447 19.6255 47.5559 19.1062 47.5559 18.7023C47.5559 17.3915 48.2274 17.1285 51.5597 17.1341C53.3002 17.1371 54.8931 17.2551 55.0994 17.3964C55.7827 17.8643 55.9025 18.7866 55.3774 19.5364C54.9136 20.1986 54.5215 20.2759 51.6273 20.2759C49.5796 20.2759 48.2413 20.1221 47.9755 19.8563ZM42.8369 18.8797C42.5527 18.42 42.9557 17.1288 43.3833 17.1288C43.8077 17.1288 43.8082 18.7748 43.384 19.0371C43.205 19.1477 42.9587 19.0769 42.8369 18.8797ZM41.3317 15.0971C40.7105 12.0898 40.5995 12.2333 43.5469 12.2333C46.0475 12.2333 46.1633 12.2679 45.8182 12.9127C45.5638 13.388 45.0089 13.6242 43.9701 13.6994C42.6162 13.7974 42.4945 13.8838 42.5866 14.6811C42.7106 15.7531 42.3946 17.1288 42.0244 17.1288C41.8742 17.1288 41.5625 16.2145 41.3317 15.0971ZM74.2494 14.5062L72.9341 12.9327H68.2875C65.7319 12.9327 63.641 12.8605 63.641 12.7723C63.641 12.684 64.293 11.7399 65.09 10.6742L66.539 8.73657H70.7092C74.8032 8.73657 74.9093 8.75663 76.5159 9.83427C78.568 11.2107 79.0267 11.779 79.0267 12.9453C79.0267 13.9593 78.4036 14.6422 76.6838 15.5131L75.5647 16.0797L74.2494 14.5062ZM60.8671 13.0558C63.4325 10.014 66.4384 5.91234 66.4384 5.4535C66.4384 4.87643 67.6489 4.65242 67.9689 5.17026C68.2785 5.67111 61.917 13.4477 61.0893 13.5803C60.3756 13.6946 60.3598 13.6573 60.8671 13.0558ZM47.381 12.9327C47.4999 12.7404 47.9905 12.583 48.4713 12.583C48.9651 12.583 49.2515 12.7352 49.1294 12.9327C49.0105 13.125 48.5199 13.2824 48.0391 13.2824C47.5454 13.2824 47.259 13.1302 47.381 12.9327ZM50.5281 12.9327C50.647 12.7404 51.2163 12.583 51.7933 12.583C52.4036 12.583 52.7519 12.7293 52.6262 12.9327C52.5073 13.125 51.938 13.2824 51.361 13.2824C50.7507 13.2824 50.4024 13.1361 50.5281 12.9327ZM53.85 12.9327C53.85 12.7404 54.3221 12.583 54.8991 12.583C55.476 12.583 55.9481 12.7404 55.9481 12.9327C55.9481 13.125 55.476 13.2824 54.8991 13.2824C54.3221 13.2824 53.85 13.125 53.85 12.9327ZM57.172 12.9327C57.2908 12.7404 57.8601 12.583 58.4371 12.583C59.0474 12.583 59.3957 12.7293 59.27 12.9327C59.1511 13.125 58.5818 13.2824 58.0049 13.2824C57.3946 13.2824 57.0462 13.1361 57.172 12.9327ZM0 9.08626V7.68755H9.63671C15.9721 7.68755 19.1994 7.56776 19.0573 7.33788C18.9224 7.11959 15.4987 6.9882 9.94512 6.9882C4.29455 6.9882 1.04903 6.86163 1.04903 6.64128C1.04903 6.45047 1.6391 6.0175 2.36031 5.67912C3.48958 5.14929 3.68666 4.88196 3.78012 3.75316L3.88865 2.44242H7.87837H11.8681L12.6653 3.83212L13.4625 5.22182L19.3924 5.31824L25.3224 5.41466L26.093 7.94981L26.8636 10.485H13.4318H0V9.08626ZM10.2312 4.71531C10.1848 4.52299 9.1227 4.31911 7.87087 4.26224C5.77655 4.1671 5.20302 4.38181 5.84271 5.0215C6.22273 5.40151 10.3275 5.11512 10.2312 4.71531ZM82.1738 6.99586C79.0821 5.06143 78.7049 4.9164 76.7315 4.90375L74.6111 4.89015L74.766 2.70468C74.9321 0.358831 75.1772 0.00836224 76.6574 4.28199e-05C77.3718 -0.00391445 77.7502 0.265768 78.1707 1.07885C78.5977 1.90459 79.4294 2.48555 81.6601 3.51612C84.3828 4.77402 84.6121 4.96224 84.918 6.19097C85.4104 8.16877 85.6113 9.08694 85.5504 9.08032C85.5202 9.07698 84.0008 8.13905 82.1738 6.99586ZM77.2783 1.89727C77.2783 1.62014 77.0423 1.39339 76.7538 1.39339C76.2271 1.39339 76.035 2.13156 76.4529 2.54947C76.7792 2.8758 77.2783 2.48145 77.2783 1.89727ZM26.4588 4.30736C25.9955 3.8441 26.241 3.21932 26.9602 3.03125C27.3647 2.92548 27.5911 2.67146 27.4641 2.46596C27.3062 2.21043 28.4012 2.09274 30.9366 2.09274C33.9058 2.09274 34.6797 2.19671 34.8411 2.61726C34.9518 2.90574 35.2665 3.14177 35.5405 3.14177C35.8144 3.14177 36.1291 2.90574 36.2398 2.61726C36.5109 1.9107 38.6834 1.92155 39.0807 2.63145C39.389 3.18231 40.5624 3.00299 40.5624 2.40501C40.5624 2.23326 42.1191 2.09274 44.0217 2.09274C46.7741 2.09274 47.5222 2.19992 47.6823 2.61725C47.9431 3.29692 49.2667 3.29692 49.5275 2.61725C49.7535 2.02815 52.1017 1.86866 52.1017 2.44242C52.1017 2.89722 53.3941 2.89722 53.6752 2.44242C53.7967 2.24581 55.4729 2.09274 57.5044 2.09274C61.0841 2.09274 61.1195 2.10093 61.3409 2.98301C61.4638 3.47266 61.4715 4.0234 61.3581 4.20688C61.1242 4.58541 26.8356 4.68412 26.4588 4.30736Z" />
</svg>
