<svg width="100" height="26" viewBox="0 0 100 26"  xmlns="http://www.w3.org/2000/svg">
<path d="M65.6803 0L64.8353 1.48946L62.8386 1.89095V2.9661H62.84V3.83322L63.3458 3.28854H66.0768V1.56262H67.1485V3.28854H71.541L73.3584 4.96834V5.34799C73.6746 5.34719 73.8056 5.34665 74.2602 5.34591C74.6778 5.34524 75.0985 5.34397 75.4224 5.3445C75.5844 5.34477 75.7223 5.34513 75.8235 5.34591C75.8741 5.3463 75.9152 5.34672 75.9466 5.34732C75.9559 5.34749 75.9616 5.34747 75.9681 5.34767L75.9661 4.90943L75.9627 4.88585H75.5165L74.8709 4.23993H73.2112L71.5741 2.83125H69.4612V2.01785L69.1238 1.93325L68.2258 0H65.6803ZM9.73768 1.16217V3.33812L9.09314 3.34335L8.8872 3.59159V3.87694L8.73395 4.20423V4.43687L8.15287 4.78532V9.94019H10.403C10.5427 9.9938 10.7188 10.0318 10.6797 10.1541L10.704 12.2351L10.6142 12.424L11.7919 12.425L11.8023 7.67684C11.8622 7.41894 12.0516 7.4206 12.2305 7.43137L37.8249 7.42613C38.1117 7.47935 38.1936 7.66065 38.3322 7.80648L40.5632 12.4541H40.5736V12.4416H45.6859V10.7383H41.7379L41.4654 10.4484L38.899 4.89623H30.4234L30.1595 4.56339H16.0648L15.8325 4.55299V4.17265H15.0191L14.8184 3.99305H14.4911L11.3537 1.16217L9.73768 1.16217ZM66.2551 1.73979V3.28854H66.9717V1.73979H66.2551ZM40.1878 2.38571C40.0986 2.38571 40.0269 2.45746 40.0269 2.54658C40.0269 2.6357 40.0986 2.70745 40.1878 2.70745H40.4006V2.93524C40.4006 2.99925 40.4524 3.05069 40.5164 3.05069H40.6846C40.7486 3.05069 40.8001 2.99926 40.8001 2.93524V2.70745H41.0642C41.1534 2.70745 41.2251 2.6357 41.2251 2.54658C41.2251 2.45746 41.1534 2.38571 41.0642 2.38571H40.1878ZM35.1099 2.38953C35.0207 2.38953 34.949 2.46128 34.949 2.5504C34.949 2.63953 35.0207 2.71128 35.1099 2.71128H35.3227V2.93907C35.3227 3.00308 35.3745 3.05452 35.4385 3.05452H35.6067C35.6707 3.05452 35.7221 3.00308 35.7221 2.93907V2.71128H35.9863C36.0755 2.71128 36.1472 2.63953 36.1472 2.55041C36.1472 2.46128 36.0755 2.38953 35.9863 2.38953L35.1099 2.38953ZM42.6317 2.39751C42.5426 2.39751 42.4708 2.46926 42.4708 2.55838C42.4708 2.64751 42.5426 2.71925 42.6317 2.71925H42.8446V2.94705C42.8446 3.01106 42.8964 3.0625 42.9604 3.0625H43.1286C43.1926 3.0625 43.244 3.01106 43.244 2.94705V2.71926H43.5082C43.5973 2.71926 43.6691 2.64751 43.6691 2.55838C43.6691 2.46926 43.5973 2.39751 43.5082 2.39751L42.6317 2.39751ZM52.7615 2.402C52.6724 2.402 52.6007 2.47375 52.6007 2.56288C52.6007 2.652 52.6724 2.72375 52.7615 2.72375H52.9744V2.95154C52.9744 3.01555 53.0262 3.06699 53.0902 3.06699H53.2584C53.3224 3.06699 53.3738 3.01555 53.3738 2.95154V2.72375H53.638C53.7271 2.72375 53.7989 2.652 53.7989 2.56288C53.7989 2.47375 53.7271 2.402 53.638 2.402L52.7615 2.402ZM55.2412 2.41206C55.1521 2.41206 55.0803 2.48381 55.0803 2.57293C55.0803 2.66206 55.1521 2.73381 55.2412 2.73381H55.4541V2.9616C55.4541 3.02561 55.5059 3.07705 55.5699 3.07705H55.738C55.802 3.07705 55.8535 3.02561 55.8535 2.9616V2.73381H56.1177C56.2068 2.73381 56.2785 2.66206 56.2785 2.57294C56.2785 2.48381 56.2068 2.41206 56.1177 2.41206L55.2412 2.41206ZM37.5868 2.41723C37.5015 2.42152 37.4342 2.49176 37.4342 2.5781C37.4342 2.66722 37.506 2.73897 37.5951 2.73897H37.808V2.96676C37.808 3.03077 37.8597 3.08222 37.9238 3.08222H38.0919C38.1559 3.08222 38.2074 3.03078 38.2074 2.96676V2.73898H38.4716C38.5607 2.73898 38.6324 2.66723 38.6324 2.5781C38.6324 2.48898 38.5607 2.41723 38.4716 2.41723H37.5951C37.5923 2.41723 37.5895 2.41709 37.5868 2.41723ZM45.1495 2.41723C45.0643 2.42152 44.997 2.49176 44.997 2.5781C44.997 2.66722 45.0687 2.73897 45.1578 2.73897H45.3707V2.96676C45.3707 3.03077 45.4225 3.08222 45.4865 3.08222H45.6547C45.7187 3.08222 45.7701 3.03078 45.7701 2.96676V2.73898H46.0343C46.1234 2.73898 46.1952 2.66723 46.1952 2.5781C46.1952 2.48898 46.1234 2.41723 46.0343 2.41723H45.1578C45.155 2.41723 45.1523 2.41709 45.1495 2.41723ZM57.8152 2.42313C57.726 2.42313 57.6543 2.49488 57.6543 2.584C57.6543 2.67313 57.726 2.74488 57.8152 2.74488H58.028V2.97267C58.028 3.03668 58.0798 3.08812 58.1438 3.08812H58.312C58.376 3.08812 58.4275 3.03668 58.4275 2.97267V2.74488H58.6916C58.7808 2.74488 58.8525 2.67313 58.8525 2.58401C58.8525 2.49489 58.7808 2.42314 58.6916 2.42314L57.8152 2.42313ZM60.3281 2.4287C60.239 2.4287 60.1672 2.50045 60.1672 2.58957C60.1672 2.6787 60.239 2.75045 60.3281 2.75045H60.541V2.97823C60.541 3.04225 60.5928 3.09369 60.6568 3.09369H60.8249C60.889 3.09369 60.9404 3.04225 60.9404 2.97823V2.75045H61.2046C61.2937 2.75045 61.3655 2.6787 61.3655 2.58958C61.3655 2.50045 61.2937 2.4287 61.2046 2.4287L60.3281 2.4287ZM47.5848 2.5771V2.93802H47.7107C47.7105 2.94191 47.7103 2.94587 47.7103 2.94981V3.53436C47.7103 3.66041 47.8117 3.7618 47.9378 3.7618H51.0051C51.1311 3.7618 51.2329 3.66041 51.2329 3.53436V2.94981C51.2329 2.94585 51.2327 2.94191 51.2325 2.93802H51.3858V2.5771H47.5848ZM30.9598 2.60934L30.3048 3.64461V3.77879C31.1862 3.76767 38.995 3.76805 46.6324 3.77081C46.9634 3.77093 47.2709 3.77102 47.6008 3.77116C47.5989 3.7603 47.5886 3.75343 47.5886 3.74204V3.02019C47.5886 3.01231 47.5961 3.00772 47.5969 3.00008H46.0201C46.0208 3.00693 46.0212 3.01386 46.0212 3.02089V3.17691C46.0212 3.2967 45.9246 3.39291 45.8048 3.39291H45.3586C45.2388 3.39291 45.1426 3.2967 45.1426 3.17691V3.02089C45.1426 3.01387 45.143 3.00693 45.1436 3.00008H43.5016C43.5023 3.00693 43.5027 3.01386 43.5027 3.02089V3.17691C43.5027 3.2967 43.4061 3.39291 43.2863 3.39291H42.8401C42.7203 3.39291 42.6241 3.2967 42.6241 3.17691V3.02089C42.6241 3.01387 42.6245 3.00693 42.6252 3.00008H40.9832C40.9839 3.00693 40.9843 3.01386 40.9843 3.02089V3.17691C40.9843 3.2967 40.8876 3.39291 40.7679 3.39291H40.3217C40.2019 3.39291 40.1057 3.2967 40.1057 3.17691V3.02089C40.1057 3.01387 40.106 3.00693 40.1067 3.00008H38.4647C38.4654 3.00693 38.4657 3.01386 38.4657 3.02089V3.17691C38.4657 3.2967 38.3691 3.39291 38.2493 3.39291H37.8031C37.6833 3.39291 37.5871 3.2967 37.5871 3.17691V3.02089C37.5871 3.01387 37.5885 3.00693 37.5892 3.00008H35.9472C35.9479 3.00693 35.9489 3.01386 35.9489 3.02089V3.17691C35.9489 3.2967 35.8524 3.39291 35.7326 3.39291H35.2863C35.1665 3.39291 35.0703 3.2967 35.0703 3.17691V3.02089C35.0703 3.01387 35.0707 3.00693 35.0714 3.00008H33.5812V2.60934H30.9598ZM48.4086 2.9616C48.4762 2.96163 48.541 2.98849 48.5887 3.03627C48.6365 3.08406 48.6634 3.14885 48.6634 3.21643C48.6634 3.284 48.6365 3.3488 48.5887 3.39658C48.541 3.44436 48.4762 3.47122 48.4086 3.47126C48.3751 3.47129 48.3419 3.46472 48.311 3.45193C48.28 3.43913 48.2519 3.42037 48.2282 3.3967C48.2045 3.37304 48.1857 3.34494 48.1729 3.31401C48.16 3.28307 48.1534 3.24992 48.1534 3.21643C48.1534 3.18294 48.16 3.14978 48.1729 3.11885C48.1857 3.08792 48.2045 3.05982 48.2282 3.03615C48.2519 3.01249 48.28 2.99372 48.311 2.98093C48.3419 2.96814 48.3751 2.96157 48.4086 2.9616ZM50.2756 2.9616C50.3432 2.96163 50.408 2.98849 50.4558 3.03627C50.5036 3.08406 50.5304 3.14885 50.5304 3.21643C50.5304 3.284 50.5036 3.3488 50.4558 3.39658C50.408 3.44436 50.3432 3.47122 50.2756 3.47126C50.208 3.47122 50.1433 3.44436 50.0955 3.39658C50.0477 3.3488 50.0208 3.284 50.0208 3.21643C50.0208 3.14885 50.0477 3.08406 50.0955 3.03628C50.1433 2.98849 50.208 2.96163 50.2756 2.9616ZM51.3542 3.00008C51.3551 3.00772 51.3629 3.01231 51.3629 3.02019V3.74204C51.3629 3.75411 51.3518 3.76143 51.3497 3.77289C57.0848 3.77564 61.7929 3.7788 61.7929 3.7788C61.7943 5.07391 61.7943 6.36924 61.7943 7.66437C62.0415 7.56144 62.2943 7.47266 62.5515 7.39844L62.9807 6.59477H63.5885L63.5802 6.32087L65.3921 6.32362L65.3894 6.59475H65.7704L66.3598 7.39357C69.3475 8.25038 71.4234 10.9601 71.4731 14.0677H72.0944V11.465H74.3387L74.5789 11.3253V10.9387L75.3653 10.1787H77.4958L77.1158 9.74082V8.94963H75.7886L75.5539 8.72669V8.42539H72.4404L68.791 5.55152H65.9625V5.96618L65.7261 6.16831L63.7658 6.17802L63.4992 5.96618V5.65241H62.5103V5.29981C62.4905 5.29464 62.4595 5.28655 62.4236 5.27658C62.3978 5.26942 62.3739 5.26243 62.3543 5.25543C62.3496 5.25369 62.3452 5.25127 62.3397 5.24886C62.337 5.24765 62.333 5.24718 62.3293 5.24503C62.3253 5.24295 62.3141 5.23362 62.3137 5.23324C62.3135 5.23305 62.2978 5.21746 62.2977 5.2173C62.2976 5.21721 62.2887 5.20177 62.2887 5.20169C62.2886 5.20161 62.282 5.1768 62.282 5.17672C62.282 5.17665 62.2833 5.14282 62.2833 5.14275C62.2834 5.14268 62.2975 5.11265 62.2976 5.11258C62.2976 5.11257 62.3002 5.11017 62.3016 5.10876C62.3029 5.09537 62.3043 5.07698 62.3056 5.05086C62.3076 4.98909 62.306 4.90291 62.3029 4.81648C62.2976 4.64362 62.287 4.46908 62.287 4.46908L62.2843 4.43129L62.6944 3.98958V3.00008H61.1856C61.1862 3.00693 61.1869 3.01386 61.1869 3.02089V3.17691C61.1869 3.29669 61.0903 3.39291 60.9706 3.39291H60.5243C60.4045 3.39291 60.3083 3.29669 60.3083 3.17691V3.02089C60.3083 3.01387 60.3087 3.00693 60.3097 3.00008H58.6677C58.6684 3.00693 58.6687 3.01386 58.6687 3.02089V3.17691C58.6687 3.29669 58.5722 3.39291 58.4524 3.39291H58.0062C57.8864 3.39291 57.7902 3.29669 57.7902 3.17691V3.02089C57.7902 3.01387 57.7905 3.00693 57.7912 3.00008H56.1492C56.15 3.00693 56.1506 3.01386 56.1506 3.02089V3.17691C56.1506 3.29669 56.0541 3.39291 55.9343 3.39291H55.4881C55.3683 3.39291 55.2721 3.29669 55.2721 3.17691V3.02089C55.2721 3.01387 55.2735 3.00693 55.2742 3.00008H53.6321C53.6329 3.00693 53.6342 3.01386 53.6342 3.02089V3.17691C53.6342 3.29669 53.5377 3.39291 53.4179 3.39291H52.9717C52.8519 3.39291 52.7557 3.29669 52.7557 3.17691V3.02089C52.7557 3.01387 52.7567 3.00693 52.7574 3.00008H51.3542ZM63.4232 3.46536L62.4652 4.49683C62.4672 4.52879 62.4758 4.6537 62.4808 4.81129C62.4835 4.8996 62.4841 4.98714 62.4821 5.05641C62.4815 5.0765 62.4794 5.09181 62.4781 5.10877C62.5044 5.11595 62.5313 5.12236 62.5502 5.12679H63.4985V4.10678L63.7179 3.90291L65.8148 3.90432L65.9618 4.1068V4.30928H69.1193L72.6481 7.30484H75.5532V7.30209L75.5565 7.30484H75.5659C75.566 7.30484 75.6144 7.31799 75.6145 7.31802C75.6146 7.31805 75.6352 7.33773 75.6353 7.33779C75.6354 7.3379 75.6484 7.35975 75.6485 7.35997C75.6485 7.36044 75.6532 7.37209 75.6538 7.37557C75.6545 7.3804 75.6552 7.38343 75.6558 7.38667L75.7314 7.44908V8.65077L75.8587 8.77247H82.3449L82.5051 8.61264V5.2922H82.6628L82.6715 5.26065L84.9514 5.88576H95.0206V4.93335L84.1866 4.72186L84.1409 4.9389L83.9113 4.94132L83.7629 4.70105L83.0234 4.70521L82.8979 4.54225H76.9976C76.9976 4.67632 76.9973 4.82173 76.9969 4.95102H77.1425L81.6598 4.95137L81.8668 5.17812V6.79795L81.6321 7.08987H76.9921V6.91305H81.5471L81.6886 6.73484V5.24746L81.5811 5.12958H77.1429L76.9966 5.12993L76.9893 7.60127L76.6592 7.85922H76.2057L75.9779 7.63386L75.9699 5.77515C75.9611 5.77492 75.9503 5.77467 75.9384 5.77448C75.9095 5.77395 75.8693 5.77347 75.8195 5.77307C75.7199 5.77233 75.5826 5.77059 75.4211 5.77032C75.0981 5.76986 74.6773 5.77106 74.26 5.77173C73.4254 5.77314 72.6048 5.77589 72.6048 5.77589L72.6041 5.61502L70.155 3.46542L63.4232 3.46536ZM70.4239 3.46536L72.6037 5.37712V5.34973C72.6037 5.34973 73.016 5.34879 73.1817 5.34832V5.04705L71.4717 3.46536H70.4239ZM36.6565 3.96671C35.1486 3.96674 33.7978 3.96716 32.8743 3.96845V4.15013C32.9732 4.19325 33.0381 4.28982 33.0407 4.39768C33.0407 4.55086 32.9165 4.67504 32.7633 4.67504C32.6101 4.67504 32.486 4.55086 32.486 4.39768C32.4948 4.29139 32.5638 4.1996 32.6635 4.16157V3.96845C32.4422 3.96877 31.8032 3.9684 31.615 3.9688V4.14112C31.7191 4.18386 31.787 4.2852 31.787 4.39768C31.787 4.55087 31.6628 4.67505 31.5096 4.67505C31.3564 4.67505 31.2323 4.55087 31.2323 4.39768C31.2323 4.2852 31.3002 4.18386 31.4042 4.14112V3.96915C30.842 3.97042 30.4595 3.97203 30.3045 3.97398V4.46145L30.5101 4.7194H40.824L41.3804 3.96704C39.8294 3.96704 38.1644 3.96669 36.6565 3.96671ZM61.6147 4.04056L54.5984 4.05061L54.459 4.10227L53.915 4.50446L53.6332 5.71413L51.1095 7.05346H48.5476V9.99252H53.5545L56.5202 7.90117H56.6235L59.9294 5.7169L61.6147 5.72106V4.04056ZM63.5917 4.19311V5.85627H65.8768V4.19311L63.5917 4.19311ZM53.8821 4.41153L51.9388 5.36291L51.6191 5.07479H42.8134L42.7818 5.0318V5.84518H51.2849L52.1288 6.41517L52.0896 6.47307L53.5874 5.67737L53.8821 4.41153ZM66.0911 4.48608V5.37331H67.6558V4.48608H66.0911ZM67.834 4.48608V5.37331H68.8523L72.5018 8.24718H73.0704V7.48165H72.5829L69.0555 4.48608H67.834ZM74.1209 4.57761H74.8192L75.1094 4.96974H74.1209V4.57761ZM39.0949 4.89623L41.6145 10.3489L41.8138 10.5611H45.6859V7.05727H45.6873C45.6871 7.056 45.6849 7.0562 45.6849 7.05486C45.6849 7.05412 45.6864 7.05422 45.6866 7.05345H41.3895L40.4676 4.89622L39.0949 4.89623ZM76.1432 4.90837V7.54475L76.2809 7.68239H76.6044L76.8207 7.53435V4.90837L76.1432 4.90837ZM97.634 4.9122L97.6764 18.9928H98.6586L99.3028 18.3486V17.4402L98.3944 16.4472V7.10927L100 6.17975V5.29217L99.5354 4.93333L97.634 4.9122ZM40.5373 4.92398L41.4241 7.00077H42.6927V4.92399L40.5373 4.92398ZM95.1991 4.93681V5.88576H96.1605V5.17604L96.1023 4.95449L95.1991 4.93681ZM62.4091 5.24364C62.3993 5.24605 62.382 5.25053 62.3772 5.25162C62.3785 5.25172 62.3805 5.25191 62.3826 5.25162C62.3846 5.25137 62.3922 5.25014 62.3919 5.25021C62.3915 5.25028 62.4093 5.2435 62.4091 5.24364ZM82.6822 5.44785V8.68612L82.4187 8.94961H77.2926V9.67528L77.7294 10.1787H82.9339L85.9738 9.40172H87.456L86.6995 7.2653L86.9724 7.26704L87.7563 9.40173H88.327L87.5704 7.26531L87.8433 7.26706L88.6272 9.40175H89.2145L88.458 7.26532L88.7309 7.26707L89.5148 9.40176H90.7813L90.0505 7.34022L93.4288 6.55666V6.0626H84.9268L82.6822 5.44785ZM2.25292 5.71065V6.6277H7.89977V5.71065H2.25292ZM59.8784 5.95265L56.6769 8.07937H56.5774L53.612 10.1693H48.5487V10.1877L47.9287 10.7383H45.8995V12.4417H57.5915C58.1528 10.2788 59.7048 8.50921 61.776 7.6706H61.6158V5.95265H59.8784ZM42.7818 6.02338V7.00075H48.444V6.98377H48.5476V7.00075H51.0963L51.9821 6.52992L51.2311 6.02338H42.7818ZM93.607 6.06256V6.69807L90.2838 7.46881L91.5365 10.999H92.0676L91.4737 9.34797L91.7434 9.07789H94.0879L94.0969 9.0803C94.162 9.09345 94.2407 9.10366 94.3132 9.15519C94.3857 9.20673 94.4319 9.30619 94.4259 9.43048L94.4272 9.42525C94.4272 9.42525 94.4293 9.85158 94.4299 10.2861C94.4305 10.5034 94.4303 10.7231 94.4299 10.8929C94.4299 10.9356 94.4296 10.9634 94.4293 10.999H95.0211V7.91949H94.0212C94.0114 7.91917 94.0037 7.9109 94.0042 7.90111V6.95494C94.0046 6.94569 94.0119 6.93826 94.0212 6.93795H95.6802C95.6894 6.93826 95.6969 6.94569 95.6972 6.95494V7.90111C95.6977 7.9109 95.69 7.91917 95.6802 7.91949H95.1979V19.062L96.1607 19.0509V6.06256H95.1993V6.9328H95.0211V6.06256L93.607 6.06256ZM96.5623 6.06913V7.64215H97.4908V6.06913H96.5623ZM14.3 6.16172C14.3016 6.16166 14.3033 6.16176 14.3049 6.16172C14.3081 6.16164 14.3113 6.16172 14.3146 6.16172H18.9043C19.1112 6.16172 19.2777 6.31512 19.2777 6.50565C19.2777 6.69619 19.1112 6.84959 18.9043 6.84959H14.3146C14.1076 6.84959 13.9412 6.69619 13.9412 6.50565C13.9412 6.31956 14.0998 6.16864 14.3 6.16172ZM22.732 6.16172C22.7336 6.16166 22.7352 6.16176 22.7368 6.16172C22.74 6.16164 22.7433 6.16172 22.7465 6.16172H27.3363C27.5432 6.16172 27.7097 6.31512 27.7097 6.50565C27.7097 6.69619 27.5432 6.84959 27.3363 6.84959H22.7465C22.5397 6.84959 22.3731 6.69619 22.3731 6.50565C22.3731 6.31956 22.5318 6.16864 22.732 6.16172ZM31.2194 6.16172C31.221 6.16166 31.2227 6.16176 31.2243 6.16172C31.2275 6.16164 31.2308 6.16172 31.234 6.16172H35.8237C36.0307 6.16172 36.1971 6.31512 36.1971 6.50565C36.1971 6.69619 36.0307 6.84959 35.8237 6.84959H31.234C31.0271 6.84959 30.8606 6.69619 30.8606 6.50565C30.8606 6.31956 31.0192 6.16864 31.2194 6.16172ZM83.9789 6.30595C83.9816 6.30588 83.9849 6.30595 83.9875 6.30595C84.1713 6.30595 84.3204 6.45497 84.3204 6.63879C84.3204 6.82261 84.1713 6.97163 83.9875 6.97163C83.8037 6.97163 83.6547 6.82261 83.6547 6.63879C83.6547 6.45784 83.799 6.31051 83.9789 6.30595ZM99.9157 6.47549L98.6585 7.17272L98.7009 16.426L99.3451 17.1021C99.5793 13.9158 100.084 12.9106 99.9157 6.47549ZM63.677 6.49838V8.8872H65.1227V6.49838H63.677ZM63.0342 6.68387L62.6705 7.3648L63.6104 7.36239L63.6077 6.68388L63.0342 6.68387ZM65.2448 6.68387V7.35891L66.2225 7.35616L65.7257 6.68389L65.2448 6.68387ZM2.43321 6.83711L2.44881 8.97076L3.35129 9.37884L3.38215 12.857L2.25396 13.3324L2.25295 16.0391H7.89981V11.9417C7.84394 11.9211 7.79469 11.9176 7.75245 11.9278C7.69763 11.9411 7.64958 11.9768 7.61065 12.0433L6.10108 14.5933L6.08825 14.6013C5.75252 14.8301 5.56687 14.8147 5.36085 14.8738L5.3581 14.8752H5.35569C4.8386 14.9807 4.65187 15.0101 4.48163 15.1072C4.37034 15.1956 4.28242 15.276 4.16856 15.3284C4.06262 15.3771 3.92749 15.3851 3.75944 15.3638C3.75508 15.3658 3.75035 15.3705 3.74661 15.3717C3.72905 15.3774 3.71711 15.3774 3.70466 15.377C3.67975 15.376 3.65382 15.3702 3.62457 15.3614C3.56606 15.3436 3.49418 15.311 3.4214 15.2591C3.27582 15.1553 3.12913 14.968 3.13467 14.6929C3.13983 14.4349 3.24692 14.2456 3.37944 14.1229C3.51197 14.0003 3.66503 13.941 3.78197 13.9315C4.39162 13.8822 4.80243 13.7399 5.04365 13.5987C5.16426 13.5281 5.24194 13.4573 5.2808 13.4035C5.30023 13.3766 5.30981 13.3548 5.31235 13.3421C5.3149 13.3295 5.31178 13.3295 5.31235 13.3303L5.28219 13.2856L5.31651 13.2437C6.36448 11.9937 6.68547 11.3074 6.91519 10.9387C7.03005 10.7544 7.13207 10.639 7.29241 10.5955C7.44027 10.5554 7.62102 10.5727 7.89984 10.6156V6.83717L2.43321 6.83711ZM60.8766 6.91547C60.8779 6.91541 60.88 6.9155 60.8813 6.91547C60.8847 6.91539 60.8873 6.91547 60.8903 6.91547C61.0831 6.91545 61.2394 7.07178 61.2394 7.2646C61.2394 7.45743 61.0831 7.61375 60.8903 7.61374C60.6975 7.61375 60.5411 7.45743 60.5412 7.2646C60.5411 7.07627 60.69 6.92251 60.8766 6.91547ZM94.0393 6.97337V7.88417H95.6616V6.97337H94.0393ZM45.8981 7.05345C45.8982 7.05419 45.8995 7.05408 45.8995 7.05486C45.8995 7.05621 45.8973 7.056 45.8971 7.05728H45.8991V8.04748L46.1831 8.1671L46.1911 9.67043L45.8998 9.79524L45.8992 10.5611H47.8608L48.3709 10.108V7.07288L48.444 7.145V7.05345H45.8981ZM63.5962 7.36896C61.9435 7.5694 60.4215 8.36803 59.3174 9.61401C58.2134 10.86 57.6037 12.4671 57.6037 14.1319C57.605 14.9837 57.7662 15.8278 58.0787 16.6202C58.2435 16.5115 58.4543 16.3618 58.6261 16.2385C58.3521 15.5289 58.2108 14.775 58.2094 14.0143C58.2094 12.5102 58.7556 11.0573 59.7464 9.92572C60.7373 8.79409 62.1053 8.06074 63.5962 7.86198V7.36896ZM65.2919 7.39497L65.2899 7.93549C68.3859 8.3342 70.6237 10.8928 70.6237 14.0143C70.6233 14.7694 70.4851 15.5181 70.216 16.2236L70.5187 16.5353L70.7929 16.53C71.0814 15.7634 71.2293 14.951 71.2294 14.1318C71.2293 10.676 68.7243 7.79716 65.2919 7.39497ZM73.3363 7.48164V8.24718H75.5289C75.5255 8.17981 75.5205 8.05845 75.5105 7.86961C75.5045 7.75191 75.4975 7.63384 75.4921 7.54613C75.4901 7.51926 75.4881 7.5019 75.4867 7.48164L73.3363 7.48164ZM12.6441 7.54197C12.4645 7.54043 12.1851 7.53573 12.1074 7.74826L12.1116 12.4243L14.6634 12.4267L14.6065 11.7462C14.701 11.7389 14.5218 11.7053 14.5022 11.7C14.4415 11.6775 14.4006 11.6366 14.352 11.6026C14.2928 11.1516 14.338 10.5969 14.3343 10.1669H16.1872V11.6529L15.9594 11.768C15.9544 11.8082 15.9367 11.9505 15.907 12.1338C15.9054 12.1436 15.9031 12.1513 15.9015 12.1612C15.9013 12.162 15.9016 12.163 15.9015 12.1639C15.9015 12.2552 15.9 12.346 15.8956 12.4281L19.9108 12.4323L19.7648 11.6816L19.4934 11.4889V10.2664L19.5103 10.2442C19.5373 10.2054 19.5648 10.1869 19.5759 10.1759L19.6008 10.1499H21.4249V11.4445L21.2009 11.6855L21.0338 12.4333L25.1204 12.4375L24.9734 11.6816L24.7037 11.4889V10.2664L24.7193 10.2442C24.7462 10.2054 24.7738 10.1869 24.7848 10.1759L24.8112 10.1499H26.6338V11.4445L26.4099 11.6855L26.2414 12.4385L30.3748 12.4427L30.2268 11.6816L29.957 11.4889V10.2664L29.9726 10.2442C29.9995 10.2054 30.0271 10.1869 30.0382 10.1759L30.0645 10.1499H31.8872V11.4445L31.6632 11.6855L31.4937 12.4437L35.5796 12.4479L35.4305 11.6816L35.1591 11.4889V10.2664L35.175 10.2442C35.2019 10.2054 35.2309 10.1869 35.2419 10.1759L35.2665 10.1499H37.0909V11.4445L36.8666 11.6855L36.696 12.4489L40.307 12.4527L38.1279 7.91326L37.6325 7.54194L12.6441 7.54197ZM0.486433 7.57457L0 8.00587V9.99876C0 10.0615 0.494408 10.4301 0.494408 10.4301H0.605354V7.57457H0.486433ZM0.782176 7.57457V10.4301H3.25213V9.54976L2.23593 8.96313V7.58219L2.23385 7.57456L0.782176 7.57457ZM41.9529 7.62623C41.9543 7.62617 41.9559 7.62627 41.9574 7.62623C41.9604 7.62615 41.9633 7.62623 41.9664 7.62623C42.1594 7.62623 42.3159 7.7827 42.3159 7.97571C42.3159 8.16872 42.1594 8.32519 41.9664 8.32519C41.7734 8.32519 41.6169 8.16872 41.6169 7.97571C41.6169 7.7872 41.7661 7.63329 41.9529 7.62623ZM96.5672 7.91954V9.08449H97.486V7.91954H96.5672ZM65.2094 8.66566V8.88651C65.2094 8.92206 65.1805 8.95082 65.145 8.95065H63.6603C63.6249 8.95063 63.5962 8.92193 63.5962 8.88651V8.66948C63.2944 8.7144 63.0011 8.78276 62.7183 8.87299L63.1139 9.67944C63.5274 9.55999 63.9645 9.49602 64.4165 9.49603C64.9198 9.49605 65.4044 9.57583 65.8588 9.72278L66.2111 8.90524C65.8902 8.79628 65.5555 8.71543 65.2094 8.66566ZM62.5491 8.9302C60.3647 9.7056 58.8448 11.7866 58.8449 14.1804C58.8449 14.4174 58.8605 14.6506 58.8893 14.8797L59.7723 14.7924C59.7462 14.592 59.7325 14.3876 59.7325 14.1801C59.7324 12.1082 61.0776 10.3506 62.9423 9.73283L62.5491 8.9302ZM66.3775 8.96487L66.028 9.78068C67.8209 10.4377 69.1003 12.1595 69.1002 14.1801C69.1002 14.3849 69.0868 14.5868 69.0613 14.7847L69.9399 14.9085C69.971 14.6702 69.9878 14.4272 69.9878 14.1804C69.9878 11.8203 68.5103 9.76574 66.3775 8.96487ZM9.70266 8.9687C9.70554 8.96863 9.70843 8.9687 9.71133 8.9687C9.89668 8.9687 10.0469 9.11896 10.0469 9.30431C10.0469 9.48966 9.89668 9.63993 9.71133 9.63993C9.52598 9.63993 9.37571 9.48966 9.37571 9.30431C9.37571 9.12186 9.52131 8.97329 9.70266 8.9687ZM71.1583 9.03458C71.1603 9.03453 71.1623 9.03458 71.1643 9.03458H71.8331C71.9638 9.03458 72.0692 9.13964 72.0692 9.27034V10.3965C72.0692 10.5272 71.9638 10.6322 71.8331 10.6322H71.1643C71.0336 10.6322 70.9282 10.5272 70.9282 10.3965V9.27034C70.9282 9.14168 71.0304 9.03779 71.1583 9.03458ZM71.2168 9.18366C71.1152 9.18876 71.0348 9.2724 71.0348 9.37539V10.2914C71.0348 10.3977 71.1206 10.4831 71.2269 10.4831H71.7709C71.8772 10.4831 71.963 10.3977 71.963 10.2914V9.37539C71.963 9.26907 71.8772 9.18366 71.7709 9.18366H71.2269C71.2235 9.18366 71.2201 9.1835 71.2168 9.18366ZM91.8169 9.25612L91.6793 9.39377L92.2559 10.999H94.2522C94.2524 10.9631 94.2527 10.9349 94.2529 10.8916C94.2529 10.7223 94.2522 10.5033 94.2515 10.2862C94.2502 9.85192 94.2488 9.42636 94.2488 9.42636V9.42394V9.42119C94.2529 9.33543 94.237 9.31925 94.2107 9.30054C94.1858 9.28281 94.1319 9.26906 94.0693 9.25616L91.8169 9.25612ZM85.996 9.57856L82.9561 10.3555H77.8102V11.4602H82.7463L83.4255 11.2112L83.3218 10.999H91.3156L90.8038 9.57856H85.996ZM64.1374 9.71205C64.1076 9.71446 64.0836 9.79276 64.0836 9.88956C64.0836 9.9879 64.1083 10.0671 64.1388 10.0671H64.6498C64.6803 10.0671 64.705 9.9879 64.705 9.88956C64.705 9.79122 64.6804 9.71205 64.6498 9.71205H64.1388C64.1383 9.71205 64.138 9.71201 64.1374 9.71205ZM62.8733 9.9062C62.8699 9.90639 62.8672 9.90721 62.865 9.90862L62.4201 10.1607C62.3936 10.1757 62.4111 10.2568 62.4597 10.3424C62.5082 10.4279 62.5687 10.4846 62.5952 10.4696L63.04 10.2175C63.0665 10.2025 63.049 10.1214 63.0005 10.0359C62.9566 9.95832 62.9027 9.90445 62.8733 9.9062ZM65.8175 9.98179C65.7881 9.98286 65.7397 10.0418 65.7035 10.1232C65.6635 10.2131 65.6538 10.2953 65.6816 10.3077L66.1486 10.5157C66.1765 10.5281 66.231 10.4658 66.271 10.376C66.311 10.2862 66.3206 10.2039 66.2929 10.1915L65.8258 9.98352C65.8232 9.98238 65.8205 9.98165 65.8175 9.98179ZM8.02734 10.1964V12.2708H10.4973V10.1964H8.02734ZM64.4165 10.2574C62.25 10.2574 60.4938 12.0136 60.4938 14.1801C60.494 16.3464 62.2502 18.1025 64.4165 18.1024C65.4875 18.1023 66.4584 17.6729 67.1662 16.977C67.2092 16.9348 67.0736 16.7528 67.1146 16.7086C67.467 16.3288 67.7507 15.8794 67.9314 15.3828C67.955 15.3181 68.1487 15.3911 68.1689 15.3249C68.2793 14.9627 68.3388 14.5784 68.3388 14.1801C68.3388 13.8314 68.2934 13.4934 68.2081 13.1715C68.193 13.1147 67.9715 13.1638 67.9539 13.1081C67.7174 12.3554 67.2546 11.7503 66.6524 11.2691C66.5861 11.2161 66.7287 11.0099 66.6591 10.9612C66.0236 10.5176 65.2504 10.2575 64.4165 10.2574ZM19.673 10.3281C19.6726 10.3286 19.672 10.3289 19.6715 10.3292V11.3974L19.8605 11.5309H21.1014L21.2466 11.3749V10.3282L19.673 10.3281ZM24.883 10.3281C24.8822 10.3288 24.8812 10.33 24.8805 10.3306V11.3974L25.0692 11.5309H26.31L26.4556 11.3749V10.3281L24.883 10.3281ZM30.1353 10.3281C30.1349 10.3286 30.1343 10.3289 30.1338 10.3292V11.3974L30.3225 11.5309H31.5633L31.7089 11.3749V10.3282L30.1353 10.3281ZM35.3387 10.3281C35.3383 10.3286 35.338 10.3289 35.3377 10.3292V11.3974L35.5263 11.5309H36.7671L36.9124 11.3749V10.3282L35.3387 10.3281ZM14.5125 10.3451C14.5156 10.6933 14.5173 10.9657 14.5178 11.3135C14.4867 11.4372 14.5392 11.4697 14.5809 11.5402C15.0111 11.5453 15.4502 11.5427 15.8835 11.5427L15.9067 11.5461L16.0103 11.5427V10.3451L14.5125 10.3451ZM75.4356 10.3555L74.7567 11.0146V11.4276L74.7006 11.4602H77.633V10.3555L75.4356 10.3555ZM64.4089 10.6052L64.7042 11.276C66.1972 11.4241 67.3347 12.6799 67.3347 14.1801C67.3342 14.5924 67.2463 15 67.0768 15.3759C67.1922 15.5549 67.4031 15.8797 67.4231 15.8918L66.7675 15.9057C66.2183 16.6547 65.3453 17.0976 64.4165 17.0983C63.479 17.0977 62.599 16.6468 62.0509 15.8862L61.2434 15.8918L61.6667 15.1551C61.5554 14.8421 61.4983 14.5123 61.4979 14.1801C61.4986 12.6874 62.6259 11.436 64.1103 11.2795C64.2196 11.0514 64.4089 10.6052 64.4089 10.6052ZM97.4131 10.6183C96.1794 10.9848 96.9952 11.7866 97.4443 12.4854C97.4278 11.8639 97.338 11.253 97.4131 10.6183ZM7.45321 10.7182C7.40418 10.7184 7.36331 10.7228 7.33047 10.7317C7.21431 10.7632 7.14348 10.8376 7.03404 11.0132C6.81727 11.3611 6.47234 12.0768 5.44091 13.3129C5.44352 13.3324 5.45508 13.3506 5.45131 13.3695C5.44325 13.4097 5.42412 13.4487 5.39618 13.4873C5.34031 13.5647 5.2472 13.6443 5.1143 13.7221C4.84851 13.8777 4.65293 14.1109 4.02668 14.1617C3.65491 14.1905 3.46254 14.4211 3.45911 14.6845C3.4416 15.2636 4.10974 15.2567 4.42643 14.9879C4.79701 14.8315 5.05347 14.751 5.33828 14.6932C5.56701 14.6275 5.69379 14.6921 5.99772 14.4886L7.48753 11.9712C7.5421 11.878 7.62344 11.8134 7.71809 11.7905C7.77565 11.7766 7.83811 11.8 7.89977 11.8179V11.2261L7.89006 10.7629C7.70771 10.7356 7.56106 10.7176 7.45321 10.7182ZM61.2594 10.9699C61.2502 10.9699 61.2432 10.9724 61.2389 10.9775L60.9099 11.3689C60.8903 11.3923 60.9348 11.462 61.0101 11.5253C61.0854 11.5886 61.1617 11.6207 61.1814 11.5974L61.5104 11.206C61.53 11.1827 61.4854 11.1129 61.4102 11.0496C61.3514 11.0002 61.2919 10.9697 61.2594 10.9699ZM67.4211 11.0417C67.3878 11.0438 67.3309 11.0736 67.2744 11.121C67.1991 11.1843 67.154 11.2541 67.1735 11.2774L67.5022 11.6692C67.5218 11.6925 67.5982 11.6603 67.6735 11.5971C67.7488 11.5339 67.794 11.4641 67.7744 11.4407L67.4457 11.0493C67.441 11.0434 67.4322 11.0409 67.4211 11.0417ZM41.1242 11.3208C41.1255 11.3207 41.1268 11.3208 41.1281 11.3208C41.1293 11.3207 41.1305 11.3208 41.1319 11.3208C41.1346 11.3207 41.1372 11.3208 41.1398 11.3208C41.3114 11.3208 41.4505 11.4598 41.4505 11.6314C41.4505 11.803 41.3114 11.9421 41.1398 11.9421C40.9683 11.9421 40.8292 11.803 40.8292 11.6314C40.8292 11.4652 40.96 11.329 41.1242 11.3208ZM53.9906 11.344C53.9915 11.3439 53.9925 11.344 53.9934 11.344L56.8416 11.3495C56.897 11.3497 57.0415 11.4431 57.0427 11.5603L57.043 11.5652V11.7181V11.9337H56.9414H53.8935H53.7923V11.7181V11.5652C53.7923 11.5636 53.7923 11.562 53.7923 11.5603C53.7935 11.445 53.9334 11.3469 53.9906 11.344ZM47.227 11.3495C47.2286 11.3495 47.2302 11.3495 47.2318 11.3495H53.1353C53.2426 11.3495 53.3291 11.4431 53.3315 11.5603L53.3318 11.5652V11.7181V11.9337H53.1353H47.2318H47.0356V11.7181V11.5652C47.0356 11.5636 47.0356 11.562 47.0356 11.5603C47.0379 11.445 47.122 11.3524 47.227 11.3495ZM95.0209 11.3579L83.5829 11.3735L84.2344 13.0065C86.6367 12.5524 87.0073 12.7871 88.8973 12.6587C89.3879 12.6565 89.5272 12.7948 89.6805 12.9274L89.6954 12.8532L90.1909 12.9565L90.2106 12.9919C90.7325 13.944 91.099 14.8177 91.4542 15.6834L91.4556 15.6862L91.4569 15.69C91.6502 16.268 91.5448 16.7263 91.5394 17.1933V17.2207L91.5249 17.2415C91.4341 17.3758 91.3711 17.5018 91.1539 17.7252L91.1499 17.729L91.1472 17.7317C90.5709 18.2119 89.7931 18.5759 89.0766 18.965L89.0726 18.9674L89.0686 18.9688C87.6587 19.5537 86.2486 20.1386 84.8387 20.7235L84.832 20.7259C83.5212 21.4072 82.2108 22.0882 80.9 22.7694L80.7693 24.0842L81.176 24.3695L81.5667 24.4964L85.6811 22.6529L87.4611 21.1267L92.5262 19.0933L95.0204 19.0642L95.0209 11.3579ZM83.4054 11.4081L82.7779 11.637H77.8102V11.8689L76.7278 13.4548V14.0677H79.7272L81.4503 13.6472L81.458 13.678C81.4958 13.6508 81.5245 13.6275 81.5689 13.5952C82.5895 13.3476 83.3972 13.1692 84.0576 13.0404L83.4054 11.4081ZM64.4165 11.5597C64.0724 11.5596 63.7316 11.6274 63.4137 11.7591C63.0957 11.8908 62.8069 12.0838 62.5635 12.3271C62.3202 12.5704 62.1272 12.8593 61.9955 13.1773C61.8638 13.4952 61.7961 13.836 61.7961 14.1801C61.7961 14.875 62.0722 15.5415 62.5637 16.0328C63.0551 16.5242 63.7216 16.8002 64.4165 16.8002C65.1114 16.8001 65.7778 16.5241 66.2691 16.0327C66.7605 15.5414 67.0365 14.875 67.0366 14.1801C67.0366 13.4851 66.7606 12.8187 66.2692 12.3272C65.7779 11.8358 65.1114 11.5597 64.4165 11.5597ZM74.5571 11.637V12.1248L75.2536 12.1304L75.4356 12.3391L75.4512 13.0034L75.2789 13.2308L74.5571 13.2388V14.0678H76.5507V13.3997L77.6331 11.8152V11.637L74.5571 11.637ZM96.5946 11.6522L96.5892 14.7293L96.773 14.851C96.7241 14.6298 97.2155 12.6264 97.2965 12.6483L96.5946 11.6522ZM97.2965 12.6483L97.3032 12.658C97.3012 12.6521 97.2994 12.6491 97.2965 12.6483ZM19.9521 11.7091L20.0908 12.4323L20.8514 12.433L21.0134 11.7091L19.9521 11.7091ZM25.161 11.7091L25.3021 12.4375L26.059 12.4386L26.2223 11.7091L25.161 11.7091ZM30.4144 11.7091L30.5565 12.4431L31.3113 12.4437L31.4757 11.7091L30.4144 11.7091ZM35.6178 11.7091L35.7596 12.4469H36.5144L36.6794 11.7091H35.6178ZM14.7667 11.7195L14.8991 12.4025L14.9005 12.4077L14.9016 12.4272L15.6654 12.4278C15.694 12.3357 15.7092 12.2284 15.7246 12.1428C15.7238 11.9321 15.7962 11.7843 15.7933 11.7223L14.7667 11.7195ZM84.5197 11.7323C84.5211 11.7323 84.5224 11.7323 84.5238 11.7323C84.5265 11.7322 84.5291 11.7323 84.5318 11.7323C84.705 11.7323 84.8455 11.8728 84.8455 12.0461C84.8455 12.2194 84.705 12.3598 84.5318 12.3599C84.3585 12.3598 84.218 12.2194 84.218 12.0461C84.218 11.8768 84.3521 11.7387 84.5197 11.7323ZM79.2792 11.7424C79.2819 11.7423 79.2853 11.7424 79.2879 11.7424C79.2939 11.7423 79.2997 11.7424 79.3055 11.7424C80.0591 11.7424 80.6702 12.3534 80.6702 13.107C80.67 13.1349 80.6688 13.1628 80.6668 13.1906L79.8791 13.1833V13.184V13.1847V13.1854V13.1861V13.1868V13.1875C79.879 13.4885 79.6348 13.7329 79.3337 13.7328C79.1085 13.7328 78.9063 13.5942 78.8251 13.384L78.1698 13.8622C78.0207 13.6385 77.941 13.3758 77.9407 13.107C77.9407 12.3622 78.5377 11.7564 79.2792 11.7424ZM91.5444 11.7538H94.0893L94.3958 12.0211V12.9565V13.063L94.2897 13.0432C93.5369 12.9005 93.1471 13.2572 93.037 13.6774C92.9272 14.0963 93.1095 14.572 93.582 14.7033H94.4731V16.6691H92.8051L92.1536 15.8512L91.2903 11.966L91.5444 11.7538ZM91.6086 11.9306L91.4869 12.0329L92.3176 15.7729L92.89 16.4923H94.2962V14.8804H93.5491L93.5373 14.8777C92.9649 14.7217 92.7341 14.1338 92.8654 13.633C92.9896 13.1588 93.4727 12.7925 94.2175 12.8834V12.1023L94.0223 11.9307L91.6086 11.9306ZM79.334 11.957C78.6906 11.957 78.1653 12.4823 78.1653 13.1257C78.1653 13.305 78.2058 13.4753 78.2786 13.6274L78.59 13.3878C78.5386 13.2816 78.5297 13.2523 78.5297 13.1257C78.5297 12.6792 78.8875 12.321 79.334 12.321C79.6704 12.321 79.9566 12.5243 80.0774 12.8154L80.4085 12.666C80.2292 12.2497 79.8144 11.957 79.334 11.957ZM72.2459 12.2267V13.1133H73.01L72.8225 12.8789L72.8265 12.4306L73.003 12.2267H72.2459ZM73.0932 12.2267V13.1133H73.5873V12.2267H73.0932ZM74.019 12.2267V13.1133H75.2349V12.2267L74.019 12.2267ZM3.29894 12.3051L2.25569 12.7287V13.2346L3.29894 12.8109V12.3051ZM8.02736 12.4569V15.8176H10.4973V12.4569H8.02736ZM60.2893 12.5322C60.2622 12.5328 60.2438 12.5393 60.2394 12.5519L60.0705 13.0345C60.0605 13.0633 60.1271 13.1126 60.2199 13.1451C60.3128 13.1776 60.3957 13.1805 60.4058 13.1517L60.5746 12.6691C60.5847 12.6403 60.518 12.591 60.4252 12.5585C60.373 12.5402 60.324 12.5314 60.2893 12.5322ZM68.4862 12.5353C68.4512 12.5361 68.4006 12.5492 68.3471 12.5728C68.2572 12.6124 68.1948 12.6669 68.2071 12.6948L68.4134 13.1625C68.4256 13.1904 68.5078 13.1807 68.5978 13.141C68.6878 13.1013 68.7505 13.0472 68.7382 13.0193L68.5316 12.5513C68.5269 12.5399 68.5101 12.5348 68.4862 12.5353ZM64.4165 12.5641C64.8451 12.5641 65.2561 12.7344 65.5592 13.0374C65.8622 13.3405 66.0325 13.7515 66.0325 14.1801C66.0325 14.6087 65.8622 15.0197 65.5592 15.3228C65.2561 15.6258 64.8451 15.7961 64.4165 15.7961C63.9879 15.7961 63.5769 15.6258 63.2738 15.3228C62.9708 15.0197 62.8005 14.6087 62.8005 14.1801C62.8005 13.7515 62.9708 13.3405 63.2738 13.0374C63.5769 12.7344 63.9879 12.5641 64.4165 12.5641ZM11.854 12.6033V13.521H14.3018V12.6033H13.5321L13.3185 13.123L12.8178 13.122L12.5706 12.6033L11.854 12.6033ZM16.536 12.6033V13.521H18.9837V12.6033H18.214L18.0005 13.123L17.4998 13.122L17.2526 12.6033L16.536 12.6033ZM21.2401 12.6033V13.521H23.6879V12.6033H22.9182L22.7046 13.123L22.204 13.122L21.9568 12.6033L21.2401 12.6033ZM25.8999 12.6033V13.521H28.3476V12.6033H27.5779L27.3644 13.123L26.8637 13.122L26.6165 12.6033L25.8999 12.6033ZM30.5915 12.6033V13.521H33.0393V12.6032H32.2696L32.056 13.1229L31.555 13.1219L31.3082 12.6033L30.5915 12.6033ZM35.3456 12.6033V13.521H37.7934V12.6033H37.0237L36.8101 13.123L36.3095 13.122L36.0623 12.6033L35.3456 12.6033ZM40.5948 12.6185L40.6049 13.3424L41.3562 13.5501V13.6184C41.3562 13.6184 41.3537 13.9882 41.3524 14.3576C41.3517 14.5423 41.3519 14.7269 41.3524 14.8645C41.3526 14.9333 41.3527 14.9905 41.3534 15.0295C41.3538 15.0491 41.3544 15.0642 41.3548 15.0729C41.355 15.0772 41.355 15.0807 41.3548 15.0795C41.3548 15.0788 41.3533 15.0698 41.3534 15.0704C41.3535 15.0706 41.3509 15.0623 41.351 15.0625C41.3511 15.0626 41.343 15.0468 41.343 15.0469C41.3431 15.0469 41.3076 15.0139 41.3077 15.0139C41.3077 15.014 41.2928 15.015 41.2817 15.0153C41.2991 15.033 41.3562 15.0913 41.3562 15.0913C41.3562 15.0913 41.3275 15.1582 41.3274 15.1582C41.3274 15.1582 41.3115 15.1699 41.3115 15.17C41.3115 15.17 41.2339 15.1726 41.229 15.1727C41.2355 15.1745 41.2644 15.1817 41.2643 15.1817C41.2643 15.1817 41.2789 15.1803 41.2789 15.1803C41.2787 15.1803 41.2873 15.1791 41.2879 15.1789C41.2874 15.1792 41.2865 15.18 41.2855 15.1803C41.2813 15.1816 41.2733 15.1838 41.2633 15.1869C41.2434 15.193 41.2138 15.202 41.178 15.2132C41.1064 15.2358 41.0105 15.2663 40.9135 15.2971C40.8071 15.331 40.7088 15.3623 40.634 15.3862L40.6462 16.2575H42.6838V12.6185L40.5948 12.6185ZM42.8605 12.6185V16.2576L43.1171 15.7632L46.3741 15.7802L46.4764 16.1948L46.6185 16.2576V12.6185L46.4798 12.6469L46.372 12.9007L43.0776 12.8931L42.8605 12.6185ZM46.8494 12.6185V13.6222H48.1139V13.9696H46.8494V14.9234H48.1139V15.2722H46.8494V16.2576H47.4666L48.8947 15.5801V13.3719L47.4902 12.6421L47.5023 12.6185H46.8494ZM47.8289 12.6185L49.0732 13.2634V15.6928L47.5058 16.4358H45.982V18.6232H47.7544L48.0081 18.4436L48.1014 18.4106H48.0747V18.4092V17.0151L49.6838 15.6706H52.2851C52.2767 15.6063 52.2723 15.5409 52.2723 15.4743C52.2725 14.6469 52.9433 13.9762 53.7708 13.9762C54.598 13.9764 55.2688 14.647 55.2689 15.4743C55.2689 15.9695 55.0285 16.4084 54.6584 16.6812L55.4416 16.7332L55.4191 17.0744L59.3545 22.7677H60.3555L61.43 24.0963L70.6971 24.1015L72.1727 22.7702V22.3309H72.1554V20.4611L71.5324 19.9754V18.9824L73.0534 15.6231L74.5956 14.8628H75.2612V15.3697L75.8895 15.9982V17.5775L75.7047 17.8521L75.843 18.0917H77.7433L77.7531 18.0799L77.1983 17.3255L77.2003 17.324L76.6928 17.0307V15.0427H75.2733L75.272 14.8659H75.2733L76.871 14.8541V14.8659H77.7856V16.8015L77.3786 17.2717L77.8691 17.9384L77.8705 17.9366L77.9606 18.0632L77.9898 18.1027L77.9891 18.1031L79.2331 19.8484L79.4865 19.9011L80.9444 21.9401V22.3308L80.9219 22.5586C82.2004 21.8943 83.4796 21.2305 84.7579 20.5661L84.7606 20.5637L84.7646 20.5623C86.1736 19.9778 87.5831 19.3935 88.992 18.809C88.9927 18.8088 88.9934 18.8091 88.9934 18.809C89.7148 18.4173 90.4818 18.0538 91.031 17.5969C91.2217 17.3995 91.2735 17.2981 91.3614 17.1656C91.37 16.6873 91.4622 16.2704 91.2893 15.7492C90.9394 14.8966 90.5762 14.0399 90.0706 13.1125L89.8262 13.0616L90.9741 15.8165C91.265 16.6984 90.6843 17.3341 90.0567 17.7335L85.8407 19.4975C85.1651 19.6893 84.7144 19.3989 84.2098 19.2202L81.3252 14.8267C81.1409 14.2508 81.1432 14.0338 81.2545 13.877L79.7484 14.2449H71.4703C71.4578 15.7852 70.9419 17.3125 70.0013 18.5323L68.0227 18.5545C65.118 20.8168 62.5573 19.9244 60.1787 18.2216H58.6334C57.8038 17.037 57.3579 15.6263 57.3561 14.18C57.3565 13.6546 57.4156 13.1308 57.5323 12.6185H56.1628V12.9357L54.4816 13.5622H52.9557L52.091 12.8151V12.6185L47.8289 12.6185ZM52.2678 12.6185V12.734L53.0226 13.3837H54.4483L55.9842 12.8127V12.6185H52.2678ZM93.9274 13.3483C93.93 13.3483 93.9321 13.3484 93.9343 13.3483C93.937 13.3483 93.939 13.3483 93.9416 13.3483C94.247 13.3484 94.4947 13.5962 94.4946 13.9017C94.4945 14.2071 94.2469 14.4546 93.9416 14.4547C93.6362 14.4546 93.3886 14.2071 93.3886 13.9017C93.3884 13.6009 93.6284 13.3559 93.9274 13.3483ZM40.6076 13.5265L40.6312 15.2008C40.7065 15.1768 40.7461 15.1641 40.8597 15.128C40.9568 15.0971 41.0523 15.0667 41.1242 15.0441C41.1454 15.0375 41.1589 15.0336 41.1752 15.0285C41.1744 14.9879 41.1744 14.9335 41.1741 14.8659C41.1736 14.7274 41.1734 14.5426 41.1741 14.3576C41.1753 14.0211 41.1789 13.7421 41.1794 13.684L40.6076 13.5265ZM11.854 13.5838V17.1611H14.3018V13.5838H13.5848V15.8908C13.5845 15.9086 13.5772 15.9255 13.5644 15.938C13.5517 15.9505 13.5346 15.9574 13.5168 15.9573H12.6389C12.6211 15.9575 12.6039 15.9506 12.5911 15.9381C12.5783 15.9256 12.5709 15.9086 12.5706 15.8908V13.5838H11.854ZM16.536 13.5838V17.1611H18.9837V13.5838H18.2667V15.8908C18.2664 15.9086 18.2591 15.9255 18.2464 15.938C18.2337 15.9505 18.2166 15.9574 18.1988 15.9573H17.3209C17.303 15.9575 17.2858 15.9506 17.273 15.9381C17.2602 15.9256 17.2529 15.9086 17.2526 15.8908V13.5838H16.536ZM21.2401 13.5838V17.1611H23.6879V13.5838H22.9709V15.8908C22.9706 15.9086 22.9633 15.9255 22.9506 15.938C22.9378 15.9505 22.9207 15.9574 22.9029 15.9573H22.0251C22.0072 15.9575 21.99 15.9506 21.9772 15.9381C21.9644 15.9256 21.9571 15.9086 21.9568 15.8908V13.5838H21.2401ZM25.8999 13.5838V17.1611H28.3476V13.5838H27.6306V15.8908C27.6304 15.9086 27.6231 15.9255 27.6103 15.938C27.5976 15.9505 27.5805 15.9574 27.5627 15.9573H26.6848C26.667 15.9575 26.6498 15.9506 26.637 15.9381C26.6242 15.9256 26.6168 15.9086 26.6165 15.8908V13.5838H25.8999ZM30.5915 13.5838V17.1611H33.0393V13.5838H32.3223V15.8908C32.322 15.9086 32.3147 15.9255 32.302 15.938C32.2893 15.9505 32.2722 15.9574 32.2544 15.9573H31.3765C31.3586 15.9575 31.3414 15.9506 31.3286 15.9381C31.3158 15.9256 31.3085 15.9086 31.3082 15.8908V13.5838H30.5915ZM35.3456 13.5838V17.1611H37.7934V13.5838H37.0764V15.8908C37.0761 15.9086 37.0688 15.9255 37.0561 15.938C37.0434 15.9505 37.0262 15.9574 37.0084 15.9573H36.1306C36.1127 15.9575 36.0955 15.9506 36.0827 15.9381C36.0699 15.9256 36.0626 15.9086 36.0623 15.8908V13.5838H35.3456ZM12.7069 13.6434V15.8224H13.4499V13.6434H12.7069ZM17.3889 13.6434V15.8224H18.1319V13.6434H17.3889ZM22.093 13.6434V15.8224H22.836V13.6434H22.093ZM26.7528 13.6434V15.8224H27.4958V13.6434H26.7528ZM31.4445 13.6434V15.8224H32.1874V13.6434H31.4445ZM36.1985 13.6434V15.8224H36.9415V13.6434H36.1985ZM60.041 14.1721C59.9427 14.1734 59.8638 14.1992 59.8642 14.2296L59.8711 14.7407C59.8715 14.7712 59.951 14.7947 60.0493 14.7934C60.1477 14.792 60.2266 14.7663 60.2262 14.7358L60.2192 14.2248C60.2188 14.1943 60.1394 14.1708 60.041 14.1721ZM68.6401 14.2719C68.5589 14.2744 68.4978 14.2945 68.4969 14.3212L68.4799 14.8322C68.4786 14.8627 68.5571 14.8896 68.6554 14.8929C68.7537 14.8962 68.8336 14.8745 68.8346 14.844L68.8516 14.333C68.853 14.3025 68.7745 14.2752 68.6762 14.2719C68.6639 14.2715 68.6516 14.2716 68.6401 14.2719ZM53.2129 14.4037C53.2033 14.4037 52.9993 14.8006 53.0715 14.8003C53.1437 14.8001 54.5627 14.7944 54.5627 14.7944C54.5672 14.7379 54.4967 14.5088 54.3918 14.4037L53.2129 14.4037ZM52.9744 14.8489C52.8233 14.8489 52.7106 14.982 52.6752 15.2296C52.7086 15.2244 52.7307 15.2705 52.7681 15.2705H54.7638C54.7712 15.2705 54.8709 15.1999 54.8782 15.2001C54.8413 14.9565 54.7063 14.8489 54.5568 14.8489L52.9744 14.8489ZM69.035 14.9615C68.8467 16.0824 68.2601 17.0681 67.4259 17.7685L68.0237 18.4259C68.2935 18.1963 68.5413 17.9416 68.7632 17.6652C68.7906 17.6311 68.496 17.3636 68.5226 17.3289C68.878 16.8642 69.1063 16.3862 69.3023 15.8228C69.33 15.7434 69.7331 15.852 69.7572 15.7711C69.8237 15.5477 69.8757 15.3182 69.9139 15.0839L69.035 14.9615ZM59.8001 14.9751L58.9149 15.0624C58.958 15.3328 59.02 15.5967 59.1004 15.8526C59.1187 15.9107 59.4007 15.788 59.4208 15.8453C59.6084 16.38 59.8754 16.783 60.2075 17.229C60.2307 17.2603 59.9915 17.5658 60.0154 17.5965C60.2279 17.8699 60.4658 18.1227 60.7247 18.352L61.3343 17.7064C60.542 17.0133 59.9853 16.0576 59.8001 14.9751ZM76.8706 15.0427V16.9284L77.2506 17.1486L77.6084 16.7346V15.0427L76.8706 15.0427ZM81.0689 15.457L82.7609 18.041L83.2903 20.1102L81.5592 21.3798L81.537 21.3826C81.4791 21.3906 81.4107 21.4077 81.3314 21.4034C81.2521 21.399 81.1616 21.3672 81.0849 21.2921L81.0809 21.2869L79.4638 19.1169L79.0443 18.9283L79.0376 17.8708L79.4058 17.8982C79.7968 17.6786 79.97 17.3951 80.0493 17.0609C80.1299 16.7213 80.1129 16.3321 80.1266 15.9445L80.1279 15.8893L80.9992 15.4896L81.0689 15.457ZM52.7681 15.5589C52.7302 15.5589 52.6878 15.6423 52.654 15.6369C52.6872 15.8902 52.821 15.9916 52.9744 15.9916H54.5568C54.6949 15.9916 54.7815 15.8825 54.8525 15.6369C54.8447 15.6372 54.7739 15.5589 54.7659 15.5589H52.7681ZM81.0034 15.6824L80.2996 16.0058C80.2896 16.3673 80.305 16.7456 80.2209 17.1014C80.1323 17.4752 79.926 17.8241 79.4807 18.0674L79.4585 18.0792L79.2161 18.0618L79.2215 18.8142L79.5779 18.974L81.2119 21.1663C81.2594 21.2117 81.2951 21.2227 81.3406 21.2252C81.382 21.2275 81.4353 21.2183 81.4938 21.2096L83.0883 20.0381L82.5956 18.1131L81.0034 15.6824ZM60.558 15.8252C60.5235 15.8268 60.468 15.8485 60.411 15.8848C60.328 15.9376 60.2743 16.0009 60.2907 16.0266L60.5653 16.4579C60.5816 16.4836 60.6615 16.4618 60.7445 16.4091C60.8275 16.3562 60.8812 16.293 60.8648 16.2672L60.5902 15.8359C60.5849 15.8279 60.5737 15.8244 60.558 15.8252ZM49.7479 15.8474L48.2515 17.0987V18.3576L48.367 18.3166H51.7155L52.1489 18.7077L52.1728 18.7455L53.3551 17.9925C53.4613 17.9248 53.604 17.9563 53.6716 18.0625L54.8054 19.8418C54.873 19.948 54.8412 20.0911 54.735 20.1587L53.5444 20.9173L53.9445 21.5507L54.8744 20.9714C54.9396 20.9308 55.0248 20.9506 55.0654 21.0158C55.106 21.081 55.0863 21.1662 55.021 21.2068L54.0925 21.7851L54.5734 22.5465L55.5345 21.9477C55.5997 21.9071 55.6849 21.9269 55.7255 21.9921C55.7662 22.0573 55.7464 22.1425 55.6812 22.1831L54.7215 22.7809L55.2523 23.6216L56.1225 23.0794C56.1877 23.0388 56.2729 23.0585 56.3136 23.1238C56.3542 23.189 56.3344 23.2742 56.2692 23.3148L55.4003 23.856L55.8247 24.5279L55.9939 24.6198L56.8104 24.1112C56.8756 24.0706 56.9608 24.0904 57.0014 24.1556C57.042 24.2208 57.0223 24.306 56.957 24.3466L56.274 24.772L57.3988 25.3836H70.9922L72.8422 23.6809L72.8315 22.7112L72.6734 22.637L72.6644 22.2903L72.4082 22.2906L72.4042 22.8488L70.7656 24.2797L61.3466 24.2745L60.2718 22.9459H59.2615L55.302 17.2162L52.9992 17.0633L53.0186 16.7706C52.6761 16.5715 52.4199 16.2405 52.3191 15.8474L49.7479 15.8474ZM68.04 15.9032C68.0289 15.9037 68.0206 15.9069 68.0164 15.9133L67.7328 16.339C67.7159 16.3644 67.7682 16.4287 67.85 16.4832C67.9318 16.5378 68.0113 16.5613 68.0282 16.536L68.3118 16.1102C68.3287 16.0848 68.2764 16.0205 68.1946 15.966C68.1332 15.925 68.0733 15.9017 68.04 15.9032ZM8.02736 16.0377V17.1801H10.4973V16.0377H8.02736ZM54.5474 16.0686C54.4752 16.0689 53.0566 16.0745 53.0566 16.0745C53.0521 16.131 53.1222 16.3605 53.2272 16.4656H54.406C54.4156 16.4656 54.6196 16.0683 54.5474 16.0686ZM69.4902 16.106C69.4568 16.108 69.3762 16.1904 69.2985 16.304L68.8346 16.9829C68.7489 17.1082 68.7003 17.2226 68.7257 17.2394L69.8848 18.0053C69.9102 18.0221 69.9999 17.9348 70.0855 17.8094L70.5494 17.1306C70.6351 17.0052 70.6837 16.8908 70.6583 16.874L69.4993 16.1081C69.4966 16.1066 69.4939 16.1058 69.4902 16.106ZM59.2602 16.1157C59.2568 16.1155 59.2539 16.1162 59.2516 16.1178L58.0922 16.8837C58.0668 16.9005 58.1154 17.0152 58.201 17.1406L58.6653 17.8195C58.751 17.9449 58.8403 18.0322 58.8657 18.0154L60.0247 17.2495C60.0502 17.2327 60.0019 17.1183 59.9162 16.9929L59.452 16.3141C59.3743 16.2004 59.2936 16.1177 59.2602 16.1157ZM40.6485 16.4357L40.6562 16.9752L42.7371 18.6231H45.6803V16.4358L40.6485 16.4357ZM49.1426 17.177C49.145 17.177 49.1474 17.177 49.1499 17.177C49.3058 17.1769 49.4323 17.3033 49.4324 17.4592C49.4325 17.6153 49.3059 17.7419 49.1499 17.7418C48.9938 17.7419 48.8672 17.6153 48.8673 17.4592C48.8674 17.3057 48.99 17.1808 49.1426 17.177ZM61.6352 17.3105C61.6044 17.3114 61.5481 17.3555 61.4972 17.4211C61.437 17.4988 61.408 17.5765 61.4321 17.5951L61.836 17.9082C61.8601 17.9269 61.9279 17.8795 61.9882 17.8018C62.0484 17.7241 62.0774 17.6464 62.0533 17.6277L61.6494 17.3147C61.6454 17.3118 61.6409 17.3103 61.6352 17.3105ZM66.9048 17.4138C66.9008 17.414 66.8969 17.4154 66.8938 17.4176L66.4794 17.7175C66.4548 17.7354 66.4815 17.814 66.5391 17.8937C66.5968 17.9733 66.6631 18.0228 66.6878 18.005L67.1021 17.7051C67.1268 17.6872 67.1001 17.6086 67.0425 17.5289C66.992 17.4592 66.9348 17.4125 66.9048 17.4138ZM61.4705 17.8212L60.8596 18.4682C61.8247 19.2695 63.0644 19.7514 64.4168 19.7513C65.7289 19.7512 66.9348 19.2975 67.8867 18.5385L67.2872 17.8805C66.4944 18.4966 65.4984 18.8637 64.4165 18.8638C63.3002 18.8638 62.2752 18.4731 61.4705 17.8212ZM53.4716 18.0674C53.4523 18.0688 53.4329 18.0751 53.4151 18.0864L52.2321 18.8398L53.4848 20.823L54.675 20.0648C54.7309 20.0291 54.7471 19.9577 54.7114 19.9018L53.5777 18.1225C53.5599 18.0945 53.5334 18.0766 53.5042 18.0701C53.4969 18.0685 53.4895 18.0675 53.482 18.0674C53.4792 18.0673 53.4762 18.0672 53.4733 18.0674C53.4726 18.0674 53.4723 18.0673 53.4716 18.0674ZM63.2235 18.1377C63.1943 18.1392 63.1538 18.2062 63.1295 18.2952C63.1036 18.39 63.1064 18.473 63.1356 18.481L63.6289 18.6155C63.6583 18.6235 63.7026 18.5537 63.7284 18.4588C63.7543 18.3639 63.7516 18.281 63.7224 18.273L63.229 18.1384C63.227 18.1379 63.2255 18.1376 63.2235 18.1377ZM65.3918 18.2099C65.3911 18.2099 65.3898 18.21 65.3891 18.2102L64.8867 18.3059C64.8568 18.3116 64.8475 18.3941 64.8659 18.4907C64.8843 18.5873 64.923 18.6604 64.953 18.6547L65.4553 18.559C65.4853 18.5533 65.4945 18.4708 65.4761 18.3742C65.4584 18.2806 65.4213 18.2091 65.3918 18.2099ZM91.6651 18.4144L91.7396 18.5756L85.5099 21.4467L85.4354 21.2855L91.6651 18.4144ZM62.7412 20.8955H71.0955L71.4173 21.2172L71.4395 22.3489L70.3522 23.4362H61.8758L61.4542 22.8925V22.3711L62.7412 20.8955ZM59.6534 21.4169C59.655 21.4169 59.6567 21.417 59.6582 21.4169C59.6615 21.4168 59.6647 21.4169 59.668 21.4169C59.8763 21.4169 60.0452 21.5858 60.0452 21.7941C60.0452 22.0025 59.8763 22.1714 59.668 22.1714C59.4596 22.1714 59.2907 22.0025 59.2907 21.7941C59.2907 21.5907 59.4518 21.4245 59.6534 21.4169ZM84.1339 21.6388C84.1365 21.6387 84.1399 21.6388 84.1428 21.6388C84.3328 21.6388 84.4868 21.7928 84.4868 21.9827C84.4868 22.1727 84.3328 22.3267 84.1428 22.3267C83.9529 22.3267 83.7989 22.1727 83.7989 21.9827C83.7989 21.7958 83.948 21.6435 84.1339 21.6388ZM59.8919 23.4029C59.8933 23.4028 59.8953 23.4029 59.8966 23.4029C59.9 23.4028 59.9034 23.4029 59.9064 23.4029C60.1178 23.4029 60.2891 23.5742 60.2891 23.7856C60.2891 23.997 60.1178 24.1684 59.9064 24.1684C59.695 24.1684 59.5236 23.997 59.5236 23.7856C59.5236 23.5792 59.6874 23.4106 59.8919 23.4029Z" />
</svg>
