<svg width="100" height="73" viewBox="0 0 100 73"  xmlns="http://www.w3.org/2000/svg">
<path d="M74.2408 71.8347C74.1211 71.641 73.404 69.0302 72.6473 66.033C71.6339 62.0188 71.4016 60.4553 71.7655 60.0971C72.1265 59.7417 72.4297 59.8414 72.8917 60.4673C73.4162 61.178 73.5239 61.2021 73.5239 60.6089C73.5239 60.1007 74.1939 59.757 75.8405 59.4204C92.2434 56.0677 92.9604 55.9558 93.3373 56.6901C94.275 58.5172 95.6462 63.4782 95.3054 63.811C95.0964 64.0151 92.344 65.3085 89.1889 66.6853C76.8182 72.0833 74.8199 72.7717 74.2408 71.8347ZM95.9831 62.1396C94.0834 57.1462 92.6583 51.9051 93.0844 51.479C93.8171 50.7463 94.626 50.9168 95.1611 51.9168C95.6845 52.8947 94.9838 54.3194 94.2135 53.8434C93.693 53.5217 93.7202 53.8295 94.3304 55.1688C94.61 55.7823 95.1873 56.3949 95.6135 56.5302C96.7155 56.88 97.0456 58.0688 96.2766 58.9186C95.4534 59.8282 95.8394 61.477 96.9587 61.8322C97.9671 62.1523 98.0406 62.7311 97.1176 63.0853C96.6593 63.2611 96.2939 62.9565 95.9831 62.1396ZM97.4884 61.516C96.2321 60.9019 95.8404 59.8305 96.5959 59.0749C97.7734 57.8975 99.6948 59.7072 98.6298 60.9905C98.0011 61.748 98.7332 61.7924 99.5256 61.0449C99.9975 60.5997 100.071 60.621 99.9082 61.1552C99.6538 61.9888 98.7358 62.1257 97.4884 61.516ZM99.3991 59.6108C99.2594 59.2467 99.3375 58.9488 99.5726 58.9488C99.8077 58.9488 100 59.2467 100 59.6108C100 59.9748 99.922 60.2727 99.8266 60.2727C99.7312 60.2727 99.5388 59.9748 99.3991 59.6108ZM71.5928 58.745C71.8928 57.9631 71.2152 58.1547 82.7187 55.598C90.586 53.8495 92.1973 53.6077 92.5185 54.1274C92.7299 54.4695 92.7623 54.8801 92.5904 55.0398C92.3048 55.3051 72.7548 59.3901 71.7708 59.3901C71.5367 59.3901 71.4566 59.0998 71.5928 58.745ZM97.6045 57.8142C96.7723 56.9819 96.7428 56.6461 97.4406 55.9482C98.2396 55.1492 98.5466 55.2946 99.0382 56.705C99.6785 58.5417 98.9194 59.129 97.6045 57.8142ZM72.2366 55.3084C72.0199 54.7364 72.0328 54.101 72.2671 53.8095C72.8074 53.1372 74.2579 53.5482 74.5865 54.4666C74.7305 54.8689 74.9625 55.4959 75.1022 55.86C75.3048 56.388 75.2713 56.4008 74.9364 55.9232C74.6431 55.5048 74.4258 55.4715 74.2149 55.8128C73.7084 56.6323 72.6346 56.3585 72.2366 55.3084ZM95.3982 55.6078C94.5466 54.7562 94.5279 54.3497 95.3107 53.7C96.5534 52.6687 98.3372 54.4526 97.3059 55.6953C96.6563 56.4781 96.2498 56.4594 95.3982 55.6078ZM75.2936 54.7624C74.521 53.8314 75.0711 52.7711 76.3268 52.7711C77.5077 52.7711 78.1569 54.1393 77.356 54.9402C76.693 55.6032 75.9373 55.538 75.2936 54.7624ZM78.6509 54.3049C77.7975 53.4515 77.7649 53.1192 78.4661 52.4181C79.2328 51.6513 80.047 51.7673 80.5544 52.7155C80.8925 53.3473 80.8044 53.7169 80.1811 54.2809C79.4293 54.9613 79.3092 54.9634 78.6509 54.3049ZM80.9078 54.4814C81.2071 54.1798 81.5631 54.0443 81.699 54.1801C81.8349 54.316 81.59 54.5627 81.1548 54.7284C80.5259 54.9679 80.4752 54.9172 80.9078 54.4814ZM98.0878 54.6833C97.926 54.5215 97.7936 54.1839 97.7936 53.9331C97.7936 53.6566 97.9992 53.6826 98.3158 53.9993C98.603 54.2865 98.7354 54.624 98.61 54.7494C98.4846 54.8748 98.2496 54.8451 98.0878 54.6833ZM81.7188 53.4015C80.8672 52.5499 80.8486 52.1434 81.6314 51.4937C82.874 50.4624 84.6579 52.2463 83.6266 53.4889C82.977 54.2717 82.5704 54.2531 81.7188 53.4015ZM83.8937 53.6536C84.0437 53.4109 84.3532 53.2124 84.5816 53.2124C84.81 53.2124 84.9968 53.4109 84.9968 53.6536C84.9968 53.8963 84.6873 54.0949 84.3089 54.0949C83.9305 54.0949 83.7437 53.8963 83.8937 53.6536ZM86.7619 53.2183C86.7619 52.6998 88.0188 52.3059 88.2873 52.7402C88.4137 52.9447 88.1222 53.2153 87.6395 53.3415C87.1568 53.4677 86.7619 53.4123 86.7619 53.2183ZM71.5519 52.6417C71.363 52.2066 71.3323 51.7267 71.4836 51.5753C71.9317 51.1272 72.293 51.7567 72.0867 52.6262C71.9039 53.3971 71.8801 53.3978 71.5519 52.6417ZM73.1708 52.6828C72.5134 52.0254 72.4954 51.3284 73.1198 50.704C73.787 50.0368 75.1651 50.4846 75.4177 51.4509C75.7946 52.8922 74.2352 53.7472 73.1708 52.6828ZM84.8865 52.7357C83.9602 52.1962 83.8901 51.3001 84.7203 50.6112C85.9629 49.5798 87.7468 51.3637 86.7155 52.6064C86.1236 53.3196 85.9144 53.3344 84.8865 52.7357ZM96.2807 52.5189C95.4137 51.6519 95.4096 51.2616 96.26 50.5559C97.0885 49.8683 97.2684 50.0338 97.6237 51.8104C97.9336 53.3601 97.4023 53.6404 96.2807 52.5189ZM90.0714 52.3298C90.2214 52.0871 90.7792 51.9025 91.311 51.9195C92.2431 51.9495 92.2461 51.9642 91.3952 52.3298C90.1806 52.8517 89.7489 52.8517 90.0714 52.3298ZM76.2597 51.8003C75.4519 50.9924 75.6255 50.2162 76.6894 49.8785C77.9112 49.4907 79.0767 50.8258 78.3163 51.742C77.7109 52.4715 76.9525 52.493 76.2597 51.8003ZM87.6144 51.3911C87.2226 50.659 87.2434 50.3692 87.7092 50.0741C89.2535 49.0955 90.9059 50.3966 89.8044 51.7238C89.0753 52.6023 88.1907 52.4679 87.6144 51.3911ZM79.0793 50.7294C78.7642 49.9082 79.524 48.7996 80.402 48.7996C81.297 48.7996 81.9763 50.3199 81.3578 50.9384C80.6213 51.6749 79.3991 51.5628 79.0793 50.7294ZM90.6097 50.5809C90.3402 49.5504 91.3271 48.5944 92.2822 48.9609C93.253 49.3334 93.62 50.5838 92.8937 51.0438C91.8597 51.6985 90.8484 51.4935 90.6097 50.5809ZM71.1481 50.3323C70.2767 49.4609 70.2543 49.0577 71.0409 48.4048C72.0031 47.6063 73.1503 48.3041 72.9961 49.5942C72.8306 50.9798 72.091 51.2752 71.1481 50.3323ZM82.6014 50.3126C81.7498 49.461 81.7311 49.0545 82.5139 48.4048C83.7566 47.3735 85.5405 49.1574 84.5092 50.4001C83.8595 51.1828 83.453 51.1642 82.6014 50.3126ZM94.6397 50.6877C93.6711 50.4609 93.3174 48.9605 94.0828 48.3253C95.3557 47.2688 97.2026 49.1968 95.9786 50.3043C95.642 50.6088 95.0395 50.7813 94.6397 50.6877ZM73.9698 49.4672C73.1972 48.5362 73.7473 47.4759 75.003 47.4759C76.1839 47.4759 76.8331 48.8441 76.0322 49.645C75.3692 50.308 74.6135 50.2428 73.9698 49.4672ZM85.6903 49.4301C84.8716 48.6114 84.83 48.2604 85.4753 47.6152C86.6205 46.47 88.6315 48.2722 87.598 49.5175C86.9484 50.3003 86.5419 50.2816 85.6903 49.4301ZM76.8159 48.3033C76.3109 46.7121 78.4301 45.9244 79.2242 47.4083C79.5242 47.9689 79.5016 48.382 79.1515 48.7321C78.3403 49.5433 77.1395 49.3228 76.8159 48.3033ZM88.5632 48.426C88.0585 47.483 88.7035 46.5933 89.8918 46.5933C90.8506 46.5933 91.3395 47.8487 90.6869 48.635C89.9859 49.4797 89.0794 49.3905 88.5632 48.426ZM69.833 47.3748C69.4386 45.9028 69.4858 45.7129 70.1802 45.9794C71.092 46.3293 71.3564 47.3355 70.6833 47.8942C70.2365 48.265 70.0392 48.1445 69.833 47.3748ZM79.9619 47.6406C79.6467 46.8193 80.4066 45.7108 81.2846 45.7108C82.1795 45.7108 82.8589 47.231 82.2403 47.8495C81.5038 48.586 80.2816 48.4739 79.9619 47.6406ZM91.4923 47.4921C91.2228 46.4615 92.2096 45.5055 93.1647 45.872C94.1355 46.2446 94.5026 47.495 93.7762 47.9549C92.7422 48.6096 91.7309 48.4047 91.4923 47.4921ZM72.0897 47.4405C71.1634 46.901 71.0933 46.0049 71.9235 45.3159C73.1688 44.2824 74.971 46.2935 73.8258 47.4386C73.2472 48.0173 73.0802 48.0174 72.0897 47.4405ZM83.4839 47.2237C82.6323 46.3721 82.6137 45.9656 83.3965 45.3159C84.6391 44.2846 86.423 46.0685 85.3917 47.3112C84.742 48.0939 84.3355 48.0753 83.4839 47.2237ZM94.9582 47.225C94.1761 46.4429 94.214 45.6537 95.047 45.3761C95.555 45.2068 96.3306 47.321 95.9135 47.7381C95.7919 47.8597 95.362 47.6288 94.9582 47.225ZM74.8523 46.3783C74.0797 45.4473 74.6299 44.387 75.8855 44.387C77.0665 44.387 77.7156 45.7552 76.9147 46.5561C76.2517 47.2191 75.496 47.154 74.8523 46.3783ZM86.5728 46.3411C85.7212 45.4895 85.7026 45.083 86.4854 44.4334C87.7306 43.3999 89.5329 45.4109 88.3877 46.5561C87.7424 47.2014 87.3915 47.1598 86.5728 46.3411ZM77.7555 45.4342C77.4404 44.613 78.2002 43.5044 79.0782 43.5044C79.9732 43.5044 80.6525 45.0246 80.034 45.6432C79.2975 46.3797 78.0753 46.2675 77.7555 45.4342ZM89.4457 45.3371C88.941 44.3941 89.586 43.5044 90.7744 43.5044C91.7331 43.5044 92.222 44.7598 91.5695 45.5461C90.8684 46.3908 89.9619 46.3016 89.4457 45.3371ZM69.8787 45.2139C68.9568 44.698 68.8877 43.798 69.7172 43.1096C70.5157 42.4468 71.7588 42.9517 71.7588 43.9389C71.7588 45.0852 70.8048 45.7322 69.8787 45.2139ZM80.8444 44.5517C80.5293 43.7304 81.2891 42.6219 82.1671 42.6219C83.1069 42.6219 83.9007 44.4127 83.167 44.8776C82.2153 45.4806 81.1431 45.3302 80.8444 44.5517ZM92.3174 44.5517C92.0022 43.7305 92.7621 42.6219 93.6401 42.6219C94.3592 42.6219 95.2915 44.2359 94.9198 44.8374C94.4873 45.5371 92.6167 45.3317 92.3174 44.5517ZM72.7296 44.2987C71.6652 43.2343 72.5202 41.6749 73.9615 42.0518C74.9278 42.3045 75.3756 43.6825 74.7084 44.3498C74.084 44.9741 73.387 44.9561 72.7296 44.2987ZM84.3665 44.1348C83.5149 43.2832 83.4962 42.8767 84.279 42.2271C85.5216 41.1958 87.3055 42.9796 86.2742 44.2223C85.6246 45.0051 85.2181 44.9864 84.3665 44.1348ZM75.7349 43.2894C75.0096 42.4155 75.4857 41.2981 76.5834 41.2981C77.708 41.2981 78.5387 42.7258 77.8276 43.4368C77.1357 44.1288 76.3877 44.0761 75.7349 43.2894ZM87.1983 43.0541C86.5909 41.9192 86.9753 41.2981 88.2852 41.2981C89.4804 41.2981 90.0936 42.4595 89.3631 43.3398C88.6443 44.2059 87.7517 44.0881 87.1983 43.0541ZM68.2155 41.9254C67.7013 40.5731 67.8865 40.1899 68.8715 40.5678C69.6317 40.8596 69.7955 42.4196 69.1103 42.8431C68.8672 42.9933 68.4645 42.5804 68.2155 41.9254ZM78.638 42.3453C78.3229 41.5241 79.0827 40.4156 79.9608 40.4156C80.8557 40.4156 81.535 41.9358 80.9165 42.5543C80.18 43.2908 78.9578 43.1787 78.638 42.3453ZM90.3282 42.2483C89.8236 41.3053 90.4686 40.4156 91.6569 40.4156C92.6156 40.4156 93.1045 41.671 92.452 42.4572C91.7509 43.302 90.8444 43.2127 90.3282 42.2483ZM70.7613 42.1251C69.8393 41.6091 69.7702 40.7091 70.5997 40.0207C71.3983 39.3579 72.6413 39.8629 72.6413 40.85C72.6413 41.9964 71.6874 42.6433 70.7613 42.1251ZM82.1026 41.9858C81.4299 41.4863 81.3475 41.1841 81.7189 40.578C82.3827 39.4942 83.0158 39.3801 83.8326 40.1969C84.4065 40.7708 84.437 41.0587 83.9984 41.7611C83.3553 42.7908 83.2099 42.8081 82.1026 41.9858ZM93.1971 41.4556C92.7767 40.36 93.2401 40.2104 93.802 41.2603C94.0731 41.7668 94.1104 42.1806 93.885 42.1806C93.6597 42.1806 93.3502 41.8544 93.1971 41.4556ZM73.8548 41.2627C72.4517 40.4455 73.2668 38.5505 74.8441 38.963C75.8103 39.2156 76.2582 40.5936 75.5909 41.2609C75.0123 41.8395 74.8453 41.8397 73.8548 41.2627ZM85.249 41.0459C84.3974 40.1943 84.3788 39.7878 85.1615 39.1382C86.4068 38.1047 88.2091 40.1157 87.0639 41.2609C86.4186 41.9062 86.0676 41.8646 85.249 41.0459ZM76.3746 39.9192C76.1879 39.3309 76.3001 38.8402 76.6758 38.6021C77.686 37.9621 78.7048 38.1659 78.9372 39.0545C79.3904 40.7876 76.9153 41.6228 76.3746 39.9192ZM88.0808 39.9651C87.474 38.8313 87.8577 38.2092 89.1635 38.2092C90.3065 38.2092 90.9378 39.5933 90.1528 40.3783C89.4191 41.112 88.608 40.9502 88.0808 39.9651ZM68.5549 39.9187C67.633 39.4028 67.5639 38.5027 68.3933 37.8143C69.1919 37.1516 70.435 37.6565 70.435 38.6436C70.435 39.79 69.481 40.437 68.5549 39.9187ZM79.5206 39.2564C79.2055 38.4352 79.9653 37.3267 80.8433 37.3267C81.7382 37.3267 82.4176 38.8469 81.7991 39.4654C81.0626 40.2019 79.8404 40.0898 79.5206 39.2564ZM91.051 39.1079C90.9264 38.6315 91.0707 38.0373 91.3715 37.7876C91.7725 37.4548 92.0549 37.6327 92.4292 38.454C93.0966 39.9189 93.0849 39.9743 92.1086 39.9743C91.6515 39.9743 91.1756 39.5844 91.051 39.1079ZM71.5122 38.897C70.8395 38.3974 70.7571 38.0952 71.1284 37.4891C72.1276 35.8579 73.8179 36.5362 73.3545 38.3825C73.0239 39.6999 72.7111 39.7872 71.5122 38.897ZM83.0328 38.8298C82.2105 38.0075 82.1825 37.6699 82.8787 36.9736C83.5766 36.2758 83.9124 36.3053 84.7447 37.1375C85.6452 38.0381 85.6191 38.3251 84.5773 38.9758C83.8773 39.4129 83.5887 39.3856 83.0328 38.8298ZM74.4111 37.9942C73.6384 37.0632 74.1886 36.0029 75.4443 36.0029C76.6252 36.0029 77.2744 37.3711 76.4734 38.172C75.8105 38.835 75.0548 38.7698 74.4111 37.9942ZM86.1315 37.957C85.2799 37.1054 85.2613 36.6989 86.0441 36.0493C87.2867 35.018 89.0706 36.8018 88.0393 38.0445C87.3896 38.8273 86.9831 38.8086 86.1315 37.957ZM66.7417 36.7751C66.3515 35.3191 66.3957 35.1203 67.1099 35.1203C68.0476 35.1203 68.7567 36.6221 68.1197 37.2591C67.3736 38.0052 67.0399 37.888 66.7417 36.7751ZM77.2572 36.8303C76.7521 35.2391 78.8713 34.4514 79.6654 35.9352C79.9655 36.4959 79.9428 36.9089 79.5927 37.2591C78.7815 38.0703 77.5807 37.8498 77.2572 36.8303ZM89.0565 37.2384C88.2487 36.4306 88.4223 35.6543 89.4862 35.3166C90.708 34.9288 91.8735 36.2639 91.1131 37.1801C90.5076 37.9097 89.7493 37.9312 89.0565 37.2384ZM69.4418 36.8323C68.5159 36.3141 68.4451 35.415 69.2759 34.7255C69.9716 34.1481 71.1438 34.4723 71.4743 35.3336C71.8314 36.2642 70.3623 37.3474 69.4418 36.8323ZM80.4031 36.1676C80.088 35.3464 80.8478 34.2378 81.7258 34.2378C82.6208 34.2378 83.3001 35.758 82.6816 36.3765C81.9451 37.113 80.7229 37.0009 80.4031 36.1676ZM72.531 35.9675C71.6047 35.428 71.5346 34.5319 72.3648 33.8429C73.6074 32.8116 75.3913 34.5955 74.36 35.8382C73.7681 36.5514 73.5589 36.5662 72.531 35.9675ZM83.9252 35.7507C83.0736 34.8991 83.055 34.4926 83.8377 33.8429C85.0804 32.8116 86.8643 34.5955 85.8329 35.8382C85.1833 36.6209 84.7768 36.6023 83.9252 35.7507ZM75.2936 34.9053C74.5199 33.9731 75.0717 32.914 76.331 32.914C77.5599 32.914 78.1893 34.0635 77.4489 34.9556C76.7944 35.7442 75.9739 35.7251 75.2936 34.9053ZM86.7468 34.6508C86.1317 33.5015 86.8651 32.4669 88.0714 32.7824C89.1373 33.0611 89.5721 34.1721 88.9219 34.9556C88.1988 35.8268 87.3095 35.7022 86.7468 34.6508ZM65.3972 33.954C64.9768 32.8584 65.4402 32.7088 66.0021 33.7587C66.2731 34.2652 66.3104 34.679 66.085 34.679C65.8598 34.679 65.5502 34.3528 65.3972 33.954ZM66.7764 34.4035C66.6043 34.2314 66.4636 33.7266 66.4636 33.2817C66.4636 32.8368 66.2533 32.4727 65.9962 32.4727C65.7392 32.4727 65.6648 32.2529 65.8308 31.9843C65.9968 31.7157 66.2567 31.6661 66.4084 31.874C66.5601 32.0819 67.1806 32.2521 67.7874 32.2521C68.6699 32.2521 68.8905 32.4727 68.8905 33.3552C68.8905 34.1295 68.622 34.4969 67.9898 34.5874C67.4945 34.6583 66.9484 34.5756 66.7764 34.4035ZM78.1968 33.9612C77.8817 33.14 78.6415 32.0314 79.5195 32.0314C80.4144 32.0314 81.0938 33.5516 80.4753 34.1702C79.7388 34.9067 78.5166 34.7946 78.1968 33.9612ZM70.32 33.7409C69.3981 33.225 69.329 32.325 70.1584 31.6366C70.957 30.9738 72.2001 31.4787 72.2001 32.4659C72.2001 33.6122 71.2461 34.2592 70.32 33.7409ZM81.2857 33.0787C80.9705 32.2575 81.7304 31.1489 82.6084 31.1489C83.5033 31.1489 84.1827 32.6691 83.5641 33.2876C82.8277 34.0241 81.6054 33.912 81.2857 33.0787ZM73.1708 32.8257C72.5134 32.1683 72.4954 31.4713 73.1198 30.8469C73.787 30.1797 75.1651 30.6275 75.4177 31.5938C75.7946 33.0351 74.2352 33.8901 73.1708 32.8257ZM84.8077 32.6618C83.9561 31.8102 83.9375 31.4037 84.7203 30.7541C85.9629 29.7228 87.7468 31.5066 86.7155 32.7493C86.0658 33.5321 85.6593 33.5134 84.8077 32.6618ZM40.231 32.5098C40.0935 32.2874 40.1811 31.5795 40.4256 30.9366C41.1717 28.9741 40.9669 26.3919 39.9874 25.4124C38.7535 24.1784 38.8862 23.6474 40.4287 23.6474C41.5466 23.6474 41.7525 23.4758 41.7525 22.5442C41.7525 21.6688 41.9749 21.441 42.8297 21.441C43.4221 21.441 44.0381 21.2285 44.1986 20.9688C44.3591 20.7091 44.9169 20.3246 45.4381 20.1143C46.1651 19.8209 45.8669 19.7254 44.1574 19.7039C42.9318 19.6887 41.7359 19.8691 41.4998 20.1052C41.2637 20.3413 37.9972 20.5895 34.2409 20.6568L27.4113 20.7791L26.4248 22.7351L25.4383 24.691L13.4074 24.591C1.96589 24.4959 1.33959 24.4475 0.624517 23.6041C0.020211 22.8913 -0.0320206 22.5079 0.358443 21.6509C0.718687 20.8602 0.710066 20.4229 0.325087 19.959C-0.0729835 19.4794 -0.0729835 19.0676 0.325087 18.1939C0.726544 17.3128 0.722558 16.9078 0.307509 16.4077C-0.0728778 15.9493 -0.0983804 15.5164 0.219984 14.9215C0.467063 14.4598 0.556968 13.6529 0.419774 13.1282L0.170329 12.1744H12.6918C24.9677 12.1744 25.2247 12.1927 25.7969 13.1089C26.2155 13.7792 26.2456 14.1785 25.9031 14.521C25.2172 15.2068 25.3146 15.7045 26.1347 15.7045C26.5837 15.7045 26.7506 15.4617 26.5898 15.0426C26.3684 14.4658 27.675 14.3807 36.7566 14.3807H47.1775L49.0623 12.8363L50.947 11.2918H62.9446C74.1993 11.2918 74.9221 11.3396 74.62 12.064C72.8688 16.262 73.0796 16.511 78.5289 16.6813L82.5699 16.8077L81.1025 17.6084C80.2954 18.0488 78.1674 18.6644 76.3736 18.9763C73.1723 19.533 73.094 19.5243 72.1379 18.5065C71.3518 17.6699 70.7098 17.4696 68.8136 17.4696H66.4636V15.6785C66.4636 13.2953 65.6 13.8483 65.5209 16.2821C65.4879 17.2993 65.377 17.7018 65.2746 17.1765C65.1124 16.3452 64.7448 16.2024 62.4353 16.0734C59.8885 15.9311 59.7899 15.9649 59.9729 16.918C60.1602 17.8939 60.0884 17.9109 55.7697 17.9109C50.9257 17.9109 48.5731 17.11 48.9691 15.5958C49.0911 15.1291 48.9251 14.822 48.5509 14.822C48.2095 14.822 47.9303 15.0143 47.9303 15.2494C47.9303 15.4845 47.6128 15.555 47.2247 15.406C46.6139 15.1717 46.5955 15.2576 47.0878 16.046C47.9947 17.4981 47.011 18.3193 44.7138 18.0276C43.6918 17.8978 42.5578 17.5703 42.1938 17.2997C41.6312 16.8815 41.6158 16.9152 42.0912 17.5241C42.3991 17.9185 43.6455 18.3725 44.8645 18.5342C46.3463 18.7307 46.9765 18.9929 46.7701 19.3269C46.5589 19.6686 46.7279 19.7215 47.3063 19.4948C47.7708 19.3127 50.7323 19.0531 53.8874 18.918L59.6239 18.6722L61.4993 20.7086C63.1191 22.4675 63.3747 23.0125 63.3747 24.707C63.3747 27.363 62.4502 31.1927 61.7436 31.4639C60.8363 31.812 61.0735 32.4149 62.0203 32.1673C62.489 32.0448 62.9779 31.6695 63.1068 31.3335C63.4359 30.4758 64.6985 31.0669 64.6985 32.0787C64.6985 32.878 64.1762 32.914 52.5896 32.914C45.7325 32.914 40.3724 32.7387 40.231 32.5098ZM61.0282 30.1561C62.1951 27.9687 62.0822 23.8413 60.7988 21.772L59.7725 20.1172H53.6089C46.6301 20.1172 45.2471 20.5248 44.448 22.8173C43.8183 24.6235 43.8203 27.8471 44.4519 29.0819C45.6214 31.3687 46.3536 31.5699 53.5452 31.5804L60.2631 31.5904L61.0282 30.1561ZM56.5925 28.391C56.4462 27.8449 56.3237 26.1385 56.3204 24.5989C56.3152 22.1788 56.1955 21.7686 55.4368 21.5702C54.1833 21.2424 54.8015 20.5585 56.3513 20.5585C57.3501 20.5585 57.7619 20.8265 58.0904 21.6904C58.678 23.2358 58.6325 26.8907 58.0086 28.2599C57.3768 29.6467 56.9399 29.6872 56.5925 28.391ZM11.2033 21.7051C11.7908 22.334 13.0701 22.0836 13.0701 21.3398C13.0701 21.0622 12.8405 21.0822 12.4667 21.3924C12.0086 21.7726 11.7339 21.7372 11.3255 21.2451C10.6065 20.3788 11.1849 19.5416 12.3009 19.8334C12.9848 20.0123 13.075 19.9456 12.6813 19.552C12.2877 19.1584 11.9467 19.1728 11.2419 19.6129C10.5795 20.0266 10.1834 20.0546 9.84089 19.7122C9.11727 18.9885 8.29886 19.138 7.79123 20.0865C7.44558 20.7324 7.50721 21.1103 8.04604 21.6492C8.66607 22.2692 8.87782 22.2806 9.70531 21.7384C10.495 21.221 10.7459 21.2154 11.2033 21.7051ZM8.2736 21.2897C7.66248 20.5533 8.39283 19.48 9.27473 19.8184C9.66327 19.9675 9.98117 20.3723 9.98117 20.718C9.98117 21.5713 8.82776 21.9574 8.2736 21.2897ZM20.4834 21.794C20.7746 21.5028 21.0129 20.8475 21.0129 20.3378C21.0129 19.8282 20.7746 19.1729 20.4834 18.8816C20.0715 18.4698 22.286 18.3521 30.4487 18.3521C38.6484 18.3521 40.9033 18.2315 40.7597 17.8005C40.4845 16.9751 6.38741 16.9985 6.11214 17.8243C5.95917 18.2833 7.17374 18.3726 12.1127 18.2656C17.7317 18.1439 18.2465 18.196 17.6732 18.8281C15.9289 20.7516 18.6519 23.6255 20.4834 21.794ZM18.1967 21.2094C17.6566 20.6693 17.5946 20.2914 17.9404 19.6453C18.4936 18.6116 19.3795 18.5506 20.161 19.4923C20.5712 19.9865 20.6101 20.3988 20.2939 20.9002C19.6469 21.9257 19.0074 22.0201 18.1967 21.2094ZM14.6495 20.8894C14.6282 20.2855 14.8738 19.8966 15.2764 19.8966C15.6821 19.8966 15.9241 20.2864 15.9017 20.904C15.8759 21.6138 16.0033 21.7732 16.333 21.4434C16.9233 20.8532 16.1616 19.5179 15.1174 19.3124C14.2958 19.1507 13.73 20.2245 14.1122 21.2204C14.4761 22.1689 14.69 22.0372 14.6495 20.8894ZM5.20279 17.6218C6.19235 16.7263 6.22546 15.9833 5.31633 15.0741C4.68595 14.4437 5.54843 14.3807 14.8036 14.3807C21.2966 14.3807 24.9843 14.2209 24.9843 13.9394C24.9843 13.6574 21.1141 13.4982 14.2562 13.4982H3.52811L2.56259 14.8041C1.40457 16.3704 1.39242 16.5121 2.32736 17.5452C3.23354 18.5465 4.15394 18.571 5.20279 17.6218ZM3.00912 17.3813C1.9226 16.2948 2.99231 14.5384 4.40938 15.0822C5.32967 15.4354 5.34405 17.292 4.42922 17.643C3.54053 17.984 3.62793 18.0001 3.00912 17.3813ZM45.5293 15.4979C46.6437 14.655 46.1609 14.6467 44.5609 15.4812C43.8657 15.8437 43.6065 16.1416 43.9848 16.1431C44.3632 16.1446 45.0582 15.8542 45.5293 15.4979ZM8.21609 15.2632C8.21609 15.0205 7.91824 14.822 7.55419 14.822C7.19015 14.822 6.89229 15.0205 6.89229 15.2632C6.89229 15.5059 7.19015 15.7045 7.55419 15.7045C7.91824 15.7045 8.21609 15.5059 8.21609 15.2632ZM51.8171 13.0238C51.7301 12.7629 51.4704 12.5494 51.2398 12.5494C51.0092 12.5494 50.7494 12.7629 50.6625 13.0238C50.5755 13.2847 50.8353 13.4982 51.2398 13.4982C51.6443 13.4982 51.9041 13.2847 51.8171 13.0238ZM70.9093 12.9355C70.8548 12.4079 70.2495 12.5101 70.0599 13.079C69.9628 13.3702 70.1217 13.5291 70.4129 13.432C70.7042 13.3349 70.9275 13.1115 70.9093 12.9355ZM76.1761 31.8164C75.4509 30.9425 75.927 29.8251 77.0246 29.8251C78.1493 29.8251 78.9799 31.2528 78.2689 31.9638C77.577 32.6558 76.829 32.6031 76.1761 31.8164ZM87.568 31.378C87.2937 30.7759 86.7206 30.1727 86.2945 30.0374C85.2744 29.7137 84.8537 28.5435 85.4843 27.7837C85.8974 27.286 85.7528 27.2249 84.6729 27.4409C83.0791 27.7596 82.3375 26.5588 83.4445 25.4519C84.4254 24.4709 85.3273 25.1925 86.4712 27.8733C86.9952 29.1012 87.7759 30.6383 88.2062 31.2892C88.6365 31.9402 88.7812 32.4727 88.5277 32.4727C88.2742 32.4727 87.8424 31.9801 87.568 31.378ZM68.3003 30.8629C69.2156 29.84 69.3812 29.0085 68.9332 27.6847C68.5199 26.463 69.0983 25.7071 70.1406 26.1071C70.9998 26.4368 71.1072 27.6526 70.3444 28.4154C70.0518 28.7079 69.8036 29.4923 69.7928 30.1584C69.7773 31.1075 69.5346 31.4032 68.6711 31.5249C67.6272 31.672 67.6077 31.6371 68.3003 30.8629ZM78.9765 30.9227C78.678 30.1447 79.5434 28.9426 80.402 28.9426C81.297 28.9426 81.9763 30.4628 81.3578 31.0813C80.6366 31.8025 79.2794 31.7121 78.9765 30.9227ZM64.7967 30.462C63.6072 29.6288 63.5258 28.0182 64.6229 27.0253C66.1526 25.6409 68.2286 26.6215 68.2286 28.7284C68.2286 29.6166 66.8319 31.1489 66.0223 31.1489C65.8876 31.1489 65.3361 30.8398 64.7967 30.462ZM71.2069 30.6545C70.281 30.1364 70.2102 29.2372 71.0409 28.5477C71.7367 27.9703 72.9088 28.2946 73.2393 29.1559C73.5964 30.0864 72.1274 31.1696 71.2069 30.6545ZM82.6223 30.4764C81.7689 29.623 81.7363 29.2907 82.4375 28.5896C83.2043 27.8228 84.0184 27.9388 84.5259 28.887C84.864 29.5188 84.7758 29.8884 84.1526 30.4524C83.4007 31.1328 83.2806 31.1346 82.6223 30.4764ZM74.2961 29.7898C72.8871 28.9691 73.71 27.078 75.2956 27.4927C76.3431 27.7666 76.7703 28.883 76.1251 29.6604C75.5331 30.3736 75.3239 30.3884 74.2961 29.7898ZM77.0587 28.7276C76.3334 27.8537 76.8095 26.7362 77.9072 26.7362C79.0318 26.7362 79.8625 28.164 79.1515 28.875C78.4595 29.5669 77.7115 29.5142 77.0587 28.7276ZM79.9619 27.7835C79.6467 26.9622 80.4066 25.8537 81.2846 25.8537C82.1795 25.8537 82.8589 27.3739 82.2403 27.9924C81.5038 28.7289 80.2816 28.6168 79.9619 27.7835ZM71.9534 27.424C71.2807 26.9244 71.1984 26.6223 71.5697 26.0161C72.5689 24.3849 74.2592 25.0633 73.7958 26.9095C73.4652 28.2269 73.1524 28.3143 71.9534 27.424ZM74.9359 26.648C74.2785 25.9906 74.2605 25.2935 74.8849 24.6692C75.5521 24.0019 76.9301 24.4498 77.1828 25.416C77.5597 26.8573 76.0003 27.7123 74.9359 26.648ZM64.1384 25.2484C64.3729 24.0216 63.302 21.722 61.6973 20.0069L60.562 18.7934H63.0715H65.581V22.2763C65.581 25.0452 65.4379 25.8142 64.883 26.0271C63.9068 26.4017 63.9161 26.4114 64.1384 25.2484ZM67.0151 26.0027C66.7118 25.8803 66.4636 25.3003 66.4636 24.7137C66.4636 23.9479 66.7079 23.6473 67.3306 23.6473C68.4441 23.6473 69.2679 25.0792 68.561 25.7861C68.0175 26.3296 67.8748 26.3496 67.0151 26.0027ZM77.6549 25.6331C77.263 24.6118 77.8142 23.6473 78.7897 23.6473C79.9144 23.6473 80.745 25.0751 80.034 25.7861C79.3149 26.5052 77.956 26.4178 77.6549 25.6331ZM69.7369 25.2102C69.0602 24.7076 68.9886 24.4216 69.3799 23.7835C70.0572 22.679 71.5055 22.7568 71.6698 23.9066C71.8653 25.2751 70.7956 25.9965 69.7369 25.2102ZM80.8444 24.6946C80.5293 23.8734 81.2891 22.7648 82.1671 22.7648C83.062 22.7648 83.7414 24.285 83.1229 24.9036C82.3864 25.64 81.1642 25.528 80.8444 24.6946ZM72.9723 24.4937C72.046 23.9552 71.9758 23.059 72.806 22.37C73.7682 21.5714 74.9154 22.2693 74.7612 23.5594C74.6068 24.852 74.0704 25.1322 72.9723 24.4937ZM84.3705 24.2818C83.5061 23.4174 83.4949 23.0207 84.3156 22.3396C85.179 21.623 85.7691 22.0644 85.7691 23.4267C85.7691 24.8549 85.2568 25.1681 84.3705 24.2818ZM75.8185 23.5591C75.161 22.9017 75.1431 22.2047 75.7674 21.5803C76.4347 20.9131 77.8127 21.3609 78.0653 22.3271C78.4422 23.7684 76.8828 24.6235 75.8185 23.5591ZM67.219 22.9004C66.3285 21.3928 66.4828 17.8379 67.376 19.2831C67.5745 19.6042 67.5608 20.0792 67.3455 20.3385C67.084 20.6537 67.3487 20.8049 68.143 20.7946C69.121 20.782 69.3318 20.9747 69.3318 21.8823C69.3318 22.6759 69.0649 23.0235 68.3806 23.121C67.8574 23.1956 67.3347 23.0963 67.219 22.9004ZM78.581 22.2685C78.0759 20.6772 80.1951 19.8896 80.9893 21.3734C81.2893 21.9341 81.2666 22.3471 80.9165 22.6972C80.1053 23.5084 78.9045 23.288 78.581 22.2685ZM70.7657 22.2705C69.8101 21.7357 69.775 20.8481 70.6797 20.0973C71.2513 19.6229 71.5113 19.6737 72.2397 20.402C73.0772 21.2396 73.0808 21.3059 72.3257 21.9893C71.754 22.5067 71.3256 22.5839 70.7657 22.2705ZM81.7269 21.6058C81.4118 20.7845 82.1716 19.676 83.0496 19.676C83.9446 19.676 84.6239 21.1962 84.0054 21.8147C83.2689 22.5512 82.0467 22.4391 81.7269 21.6058ZM73.818 21.5882C73.1784 20.9485 73.5888 20.5586 74.9017 20.5586C76.0764 20.5586 76.1985 20.6561 75.7302 21.2205C75.1506 21.9188 74.3103 22.0804 73.818 21.5882ZM84.8072 20.7009C84.4782 19.8435 85.5698 18.5501 86.2617 18.9777C86.5878 19.1793 86.5792 19.5942 86.2331 20.3537C85.6541 21.6245 85.2037 21.7342 84.8072 20.7009ZM76.8334 20.5585C76.6834 20.3159 76.7213 20.1146 76.9176 20.1112C77.114 20.1078 77.771 19.9742 78.3778 19.8141C79.3683 19.5527 79.4191 19.5984 78.8754 20.2614C78.1973 21.0881 77.2462 21.2265 76.8334 20.5585ZM67.9396 19.4363C67.5858 18.5141 67.7718 18.4208 69.4532 18.6768C70.623 18.8549 70.802 19.0132 70.3921 19.5071C69.7138 20.3244 68.2644 20.2826 67.9396 19.4363ZM79.7016 19.676C79.7016 19.4333 79.9832 19.2347 80.3274 19.2347C80.6716 19.2347 81.317 19.0983 81.7616 18.9315C82.4731 18.6645 82.4974 18.7174 81.9642 19.3727C81.3085 20.1789 79.7016 20.3943 79.7016 19.676ZM83.3421 19.361C82.562 19.0784 82.6581 18.3293 83.5627 17.6427C84.5575 16.8875 84.8488 16.8886 85.1405 17.6488C85.427 18.3956 84.1178 19.642 83.3421 19.361ZM47.5307 18.0212C47.8558 17.5965 48.1523 17.1919 48.1897 17.1221C48.3345 16.8514 50.5779 18.0733 50.5779 18.423C50.5779 18.6267 49.7593 18.7934 48.7588 18.7934C47.0953 18.7934 46.9902 18.7274 47.5307 18.0212ZM86.1525 18.1209C85.2799 17.2483 85.2572 16.8453 86.0441 16.1922C87.4288 15.043 89.0021 16.9029 87.6671 18.111C86.9296 18.7784 86.8108 18.7792 86.1525 18.1209ZM88.6095 16.2561C88.7867 15.326 90.7112 14.9547 91.2059 15.7552C91.735 16.6112 91.2719 17.0283 89.7924 17.0283C88.7637 17.0283 88.4956 16.8533 88.6095 16.2561ZM92.0571 16.1458C92.0571 15.3283 92.2743 15.0835 93.05 15.0264C93.952 14.9599 94.0355 15.3148 93.2927 16.0575C92.6484 16.7019 92.0571 16.7441 92.0571 16.1458ZM74.1295 15.4965C73.9925 15.1394 74.247 14.0969 74.695 13.1798L75.5096 11.5125H79.9223H84.3349L84.4763 12.9879C84.6642 14.9491 83.5619 16.1458 81.5675 16.1458C80.1864 16.1458 80.0695 16.0506 80.3477 15.1529C81.0937 12.7458 80.95 12.131 80.0898 14.0498L79.1502 16.1458H76.7644C75.0714 16.1458 74.3064 15.9573 74.1295 15.4965ZM78.5984 15.2633C78.765 14.9937 78.0882 14.822 76.8594 14.822C75.753 14.822 74.8477 15.0206 74.8477 15.2633C74.8477 15.506 75.6302 15.7045 76.5867 15.7045C77.5432 15.7045 78.4484 15.506 78.5984 15.2633ZM83.5848 14.7337C83.876 14.4425 84.1143 14.0595 84.1143 13.8827C84.1143 13.3646 82.7739 12.1732 82.2074 12.1878C81.9214 12.1951 82.0348 12.4036 82.4596 12.651C83.3177 13.1508 83.4804 14.175 82.7712 14.6133C82.5178 14.7699 82.0214 14.658 81.668 14.3647C81.3146 14.0714 81.0254 14.0212 81.0254 14.2532C81.0254 15.3262 82.6814 15.6371 83.5848 14.7337ZM79.424 13.1491C79.5426 12.9572 78.909 12.8693 78.0159 12.9539C75.2872 13.2125 74.9654 13.3933 77.1383 13.447C78.2768 13.4752 79.3053 13.3411 79.424 13.1491ZM86.9826 15.2633C86.8326 15.0206 87.1187 14.822 87.6184 14.822C88.1181 14.822 88.527 15.0206 88.527 15.2633C88.527 15.506 88.2409 15.7045 87.8911 15.7045C87.5414 15.7045 87.1326 15.506 86.9826 15.2633ZM26.1228 12.8283C25.5508 11.9553 25.5178 11.67 25.9687 11.497C26.2843 11.3759 31.7849 11.3298 38.1921 11.3946L49.8417 11.5125L48.09 12.726L46.3384 13.9395H36.5946H26.8509L26.1228 12.8283ZM85.344 12.6156L85.1497 11.2918H88.9564C92.8839 11.2918 93.8222 11.6493 93.8222 13.1452C93.8222 13.8536 93.3746 13.9395 89.6803 13.9395H85.5383L85.344 12.6156ZM87.2032 12.8363C87.2032 12.4722 87.0046 12.1744 86.7619 12.1744C86.5192 12.1744 86.3207 12.4722 86.3207 12.8363C86.3207 13.2003 86.5192 13.4982 86.7619 13.4982C87.0046 13.4982 87.2032 13.2003 87.2032 12.8363ZM88.8837 13.0238C88.7967 12.7629 88.5369 12.5495 88.3064 12.5495C88.0758 12.5495 87.816 12.7629 87.729 13.0238C87.6421 13.2847 87.9019 13.4982 88.3064 13.4982C88.7109 13.4982 88.9707 13.2847 88.8837 13.0238ZM0.522869 11.1548C0.665665 10.7827 0.578072 10.0963 0.328224 9.62946C-0.00179381 9.01281 0.0371977 8.54761 0.470787 7.92857C0.972671 7.21203 0.972052 6.94579 0.466951 6.25495C0.0271475 5.65349 -0.0110411 5.20411 0.324389 4.57736C0.576372 4.10653 0.668675 3.42457 0.529508 3.06191C0.0260034 1.7498 1.08347 0.701381 2.91041 0.701381C3.85834 0.701381 4.75388 0.507274 4.9005 0.270031C5.06345 0.00637756 7.26088 -0.0717402 10.5527 0.0690977C17.4448 0.363966 18.8066 0.580792 18.8066 1.38328C18.8066 1.73633 18.8562 2.17412 18.9169 2.35614C18.9776 2.53816 15.0558 2.79274 10.2019 2.92186L1.37648 3.15663L10.3351 3.25281L19.2938 3.34899L19.7553 4.6728C20.125 5.73359 20.4712 5.9966 21.4974 5.9966C22.9978 5.9966 22.952 6.15958 22.1161 3.79026C21.3497 1.61791 21.2662 0.533106 21.8955 0.922011C22.1382 1.07201 22.3368 1.55262 22.3368 1.99003C22.3368 2.60042 22.5933 2.7363 23.4399 2.57445C24.0467 2.45847 24.5431 2.43768 24.5431 2.52824C24.5431 2.6188 24.7278 3.33696 24.9536 4.12412C25.3144 5.38215 25.262 5.55533 24.5207 5.55533C23.9851 5.55533 23.5745 5.14535 23.3953 4.43161C23.2402 3.81356 23.0282 3.39299 22.9242 3.497C22.8202 3.60102 22.8655 4.20598 23.025 4.84136C23.2541 5.75431 23.5826 5.9966 24.5909 5.9966C26.0674 5.9966 26.077 5.95242 25.2212 3.10876C24.866 1.9287 24.6628 0.875861 24.7695 0.769126C24.9977 0.540907 25.2255 1.10271 25.9945 3.79026C26.4689 5.44847 26.76 5.79899 27.7592 5.91559C29.1754 6.08084 29.3035 5.32799 28.3292 2.56662C27.7238 0.850669 27.7357 0.784436 28.6815 0.60364C29.2198 0.500736 30.3953 0.502339 31.2937 0.607312C32.6119 0.761198 32.9272 0.98115 32.9272 1.74676C32.9272 2.26857 32.5301 2.94353 32.0447 3.24666C30.89 3.96778 30.9266 4.61419 32.1477 5.06591C33.0905 5.41465 33.0952 5.44147 32.2581 5.68219C31.7766 5.82062 30.1913 6.17938 28.7352 6.47945C25.37 7.17289 24.9844 7.49174 24.9844 9.58086V11.2919H13.3268C6.9152 11.2919 1.35296 11.4133 0.966317 11.5617C0.462492 11.755 0.336806 11.6397 0.522869 11.1548ZM7.82063 4.98336C7.25427 4.417 6.67993 4.85473 7.09923 5.53317C7.26165 5.79598 7.59669 5.88606 7.84377 5.73336C8.14515 5.54709 8.13754 5.30027 7.82063 4.98336ZM25.8668 9.40556V7.96056L29.6577 7.12943C32.6425 6.47501 33.5278 6.10203 33.8217 5.37523C34.0784 4.74042 34.2037 5.45121 34.223 7.65136L34.2509 10.8506H30.0589H25.8668L25.8668 9.40556ZM35.1335 8.07057C35.1335 6.49671 35.3632 5.06083 35.663 4.76105C36.0749 4.3492 36.0749 4.11386 35.663 3.70201C35.3718 3.41077 35.1335 2.61649 35.1335 1.93693C35.1335 0.99556 35.3436 0.701381 36.016 0.701381C36.8474 0.701381 36.8986 0.995561 36.8986 5.77597C36.8986 10.5564 36.8474 10.8506 36.016 10.8506C35.2269 10.8506 35.1335 10.5564 35.1335 8.07057ZM37.7811 5.77597C37.7811 1.11892 37.8535 0.650625 38.5533 0.785385C39.2328 0.916241 39.3255 1.5155 39.3255 5.77597C39.3255 10.0364 39.2328 10.6357 38.5533 10.7666C37.8536 10.9013 37.7811 10.433 37.7811 5.77597ZM40.1773 10.2676C40.0543 9.94692 40.0108 7.71299 40.0808 5.30329C40.1837 1.75956 40.3346 0.922016 40.87 0.922016C41.4117 0.922016 41.5545 1.82323 41.6567 5.88629C41.7638 10.1484 41.6838 10.8506 41.0912 10.8506C40.7116 10.8506 40.3003 10.5882 40.1773 10.2676ZM42.6351 5.99661C42.6351 1.43683 42.6885 1.14265 43.5176 1.14265C44.3466 1.14265 44.4001 1.43683 44.4001 5.99661C44.4001 10.5564 44.3466 10.8506 43.5176 10.8506C42.6885 10.8506 42.6351 10.5564 42.6351 5.99661ZM45.2827 8.20378C45.2827 6.345 45.4974 5.27756 45.9655 4.80947C46.5818 4.19321 46.5818 4.05308 45.9655 3.37212C45.0988 2.41445 45.0821 1.14265 45.9362 1.14265C46.8555 1.14265 47.1074 2.55655 46.9573 6.87426C46.8476 10.0296 46.7054 10.6434 46.0549 10.7677C45.3872 10.8953 45.2827 10.5482 45.2827 8.20378ZM47.7832 10.5564C47.4065 10.1797 47.3952 2.90772 47.7714 2.90772C47.9267 2.90772 48.3175 3.25522 48.6399 3.67994C49.4562 4.75525 49.4782 10.8506 48.6659 10.8506C48.3423 10.8506 47.945 10.7182 47.7832 10.5564ZM50.1366 7.54105C50.1366 4.52571 50.2151 4.23153 51.0192 4.23153C51.8232 4.23153 51.9017 4.52571 51.9017 7.54105C51.9017 10.5564 51.8232 10.8506 51.0192 10.8506C50.2151 10.8506 50.1366 10.5564 50.1366 7.54105ZM52.7842 7.5734C52.7842 4.50184 52.8572 4.23153 53.6861 4.23153C54.5233 4.23153 54.5787 4.4606 54.4583 7.42605C54.3516 10.0561 54.1922 10.6466 53.5565 10.7679C52.876 10.8978 52.7842 10.5181 52.7842 7.5734ZM55.2848 10.5564C55.123 10.3946 54.9906 8.90531 54.9906 7.24687C54.9906 4.52571 55.0767 4.23153 55.8731 4.23153C56.6772 4.23153 56.7556 4.52571 56.7556 7.54105C56.7556 10.0048 56.6053 10.8506 56.1673 10.8506C55.8437 10.8506 55.4465 10.7182 55.2848 10.5564ZM57.6382 7.54105C57.6382 4.52571 57.7166 4.23153 58.5207 4.23153C59.3248 4.23153 59.4033 4.52571 59.4033 7.54105C59.4033 10.5564 59.3248 10.8506 58.5207 10.8506C57.7166 10.8506 57.6382 10.5564 57.6382 7.54105ZM60.2858 7.57341C60.2858 4.50184 60.3588 4.23154 61.1877 4.23154C62.0249 4.23154 62.0802 4.4606 61.9599 7.42606C61.8531 10.0561 61.6938 10.6466 61.058 10.7679C60.3776 10.8978 60.2858 10.5181 60.2858 7.57341ZM62.7863 10.5564C62.1865 9.95659 62.4706 4.35747 63.1285 3.81144C63.4786 3.52095 63.8439 2.65271 63.9405 1.88202C64.037 1.11132 64.1478 2.81396 64.1866 5.66566C64.2419 9.72755 64.1298 10.8506 63.6689 10.8506C63.3453 10.8506 62.9481 10.7182 62.7863 10.5564ZM65.1398 5.77598C65.1398 0.995568 65.1909 0.701389 66.0223 0.701389C66.8537 0.701389 66.9048 0.995568 66.9048 5.77598C66.9048 10.5564 66.8537 10.8506 66.0223 10.8506C65.1909 10.8506 65.1398 10.5564 65.1398 5.77598ZM67.7874 5.77598C67.7874 1.11893 67.8598 0.650633 68.5596 0.785394C69.2391 0.916249 69.3318 1.51551 69.3318 5.77598C69.3318 10.0365 69.2391 10.6357 68.5596 10.7666C67.8598 10.9013 67.7874 10.433 67.7874 5.77598ZM70.1836 10.2676C70.0605 9.94693 70.0171 7.7153 70.0871 5.30841C70.1964 1.55115 70.3236 0.911346 70.9866 0.784463C71.6861 0.650606 71.7588 1.11775 71.7588 5.74362C71.7588 10.0355 71.6509 10.8506 71.083 10.8506C70.7114 10.8506 70.3066 10.5882 70.1836 10.2676ZM72.7372 5.89158C72.8457 1.57789 72.9624 0.913336 73.6342 0.784633C74.3337 0.650609 74.4064 1.11768 74.4064 5.74362C74.4064 10.5838 74.3595 10.8506 73.5094 10.8506C72.6534 10.8506 72.6181 10.6239 72.7372 5.89158ZM75.2889 5.77598C75.2889 1.11894 75.3614 0.650637 76.0612 0.785399C76.7406 0.916255 76.8334 1.51551 76.8334 5.77598C76.8334 10.0365 76.7406 10.6357 76.0612 10.7666C75.3614 10.9013 75.2889 10.433 75.2889 5.77598ZM77.6851 10.2676C77.5621 9.94693 77.5187 7.71531 77.5887 5.30842C77.6979 1.55116 77.8251 0.911352 78.4881 0.784467C79.1876 0.650611 79.2604 1.11775 79.2604 5.74363C79.2604 10.0355 79.1525 10.8506 78.5846 10.8506C78.2129 10.8506 77.8082 10.5882 77.6851 10.2676ZM80.1429 5.74363C80.1429 1.11769 80.2156 0.650619 80.9151 0.784639C81.5868 0.91334 81.7036 1.57789 81.8121 5.89158C81.9312 10.6239 81.8959 10.8506 81.0399 10.8506C80.1897 10.8506 80.1429 10.5838 80.1429 5.74363ZM82.7905 6.47024C82.7905 4.02547 82.9647 2.0252 83.1777 2.0252C84.215 2.0252 84.5863 3.44458 84.4638 6.94183C84.3555 10.0334 84.2117 10.6437 83.5627 10.7677C82.8686 10.9004 82.7905 10.4656 82.7905 6.47024ZM85.291 10.5564C84.8704 10.1357 84.9258 3.34901 85.3499 3.34901C86.3337 3.34901 86.762 4.64705 86.762 7.62931C86.762 10.0195 86.6102 10.8506 86.1736 10.8506C85.85 10.8506 85.4528 10.7182 85.291 10.5564ZM87.6445 7.98233C87.6445 6.40479 87.7275 5.11408 87.829 5.11408C89.0498 5.11408 89.4095 5.82793 89.4095 8.25017C89.4095 10.5564 89.3097 10.8506 88.527 10.8506C87.735 10.8506 87.6445 10.5564 87.6445 7.98233ZM90.2921 8.61418V6.37779L91.6159 7.32043C92.9865 8.29639 93.4701 9.70261 92.2778 9.24507C91.8481 9.08018 91.6159 9.25641 91.6159 9.7474C91.6159 10.2384 91.8481 10.4146 92.2778 10.2497C92.6418 10.11 92.9397 10.1881 92.9397 10.4232C92.9397 10.6582 92.344 10.8506 91.6159 10.8506C90.3191 10.8506 90.2921 10.8049 90.2921 8.61418ZM20.1194 4.42345C19.5071 2.81282 19.578 2.46646 20.5201 2.46646C21.287 2.46646 21.8736 3.55336 21.8894 5.00376C21.9004 6.0133 20.5563 5.57262 20.1194 4.42345ZM26.7385 4.42345C26.1469 2.86764 26.1966 2.46646 26.9809 2.46646C27.5859 2.46646 28.5145 4.08702 28.5145 5.1428C28.5145 6.04245 27.1428 5.48686 26.7385 4.42345ZM32.0446 4.23154C32.0446 3.98884 32.2549 3.79027 32.5119 3.79027C32.7689 3.79027 32.8565 3.98884 32.7065 4.23154C32.5565 4.47424 32.3462 4.67281 32.2392 4.67281C32.1322 4.67281 32.0446 4.47424 32.0446 4.23154ZM45.062 4.23154C44.912 3.98884 44.9996 3.79027 45.2566 3.79027C45.5136 3.79027 45.7239 3.98884 45.7239 4.23154C45.7239 4.47424 45.6364 4.67281 45.5293 4.67281C45.4223 4.67281 45.212 4.47424 45.062 4.23154ZM33.921 2.24583C33.9257 1.27504 34.0162 0.929854 34.1218 1.47875C34.2273 2.02765 34.2233 2.82194 34.1129 3.24383C34.0024 3.66572 33.916 3.21663 33.921 2.24583ZM48.9231 2.93264C48.3771 2.47709 47.9303 1.995 47.9303 1.86133C47.9303 1.72766 51.4053 1.61324 55.6525 1.60705C61.6589 1.59837 63.3747 1.72194 63.3747 2.16351C63.3747 3.5536 62.3091 3.79025 56.1158 3.77559C50.7115 3.76273 49.7886 3.65462 48.9231 2.93264Z" />
</svg>
