<svg width="100" height="24" viewBox="0 0 100 24"  xmlns="http://www.w3.org/2000/svg">
<path d="M96.1605 22.2998C96.3512 19.6356 96.5175 11.8539 96.3982 11.174L96.2706 10.4467L97.4444 10.5031L98.6182 10.5595L98.6777 11.6111C98.7104 12.1895 98.6022 13.3971 98.4373 14.2946C98.0633 16.3299 97.5687 20.9285 97.566 22.3956L97.5634 23.4978H96.8188H96.0741L96.1605 22.2998ZM97.8631 22.204C98.1322 18.463 98.3923 16.0944 98.7486 14.1397C98.9662 12.9461 99.1006 11.6446 99.0473 11.2475C98.9567 10.5721 98.9797 10.531 99.4026 10.6118C100.082 10.7417 100.181 11.6833 99.7041 13.4819C99.219 15.3116 98.5224 20.0086 98.5224 21.4497C98.5224 22.5829 98.2708 23.4978 97.9593 23.4978C97.8443 23.4978 97.8066 22.9903 97.8631 22.204ZM94.4956 23.0211C94.0203 22.8905 93.1147 22.7277 92.483 22.6593C91.8513 22.591 91.1188 22.4985 90.8552 22.4538C90.4356 22.3826 84.6236 21.751 81.9422 21.4852C81.4151 21.433 80.2076 21.299 79.2588 21.1875C77.9277 21.031 76.8794 21.0483 74.6697 21.2632C72.0947 21.5136 71.7597 21.5116 71.3495 21.2428C71.0739 21.0622 70.3591 19.8556 69.5431 18.1932C68.8005 16.6803 68.1166 15.3954 68.0234 15.3378C67.6331 15.0966 67.9234 12.5722 68.3414 12.5722C68.4778 12.5722 69.0389 12.9559 69.5884 13.4249C70.3464 14.0719 70.7085 14.2589 71.0895 14.1997C73.1269 13.8831 72.9701 13.9679 73.1993 13.0577C73.3166 12.5918 73.4126 11.8578 73.4126 11.4265C73.4126 10.7014 73.4486 10.6471 73.8901 10.7062C74.1859 10.7458 74.704 11.1676 75.2519 11.8149C75.7383 12.3895 76.7237 13.4672 77.4417 14.2098L78.7471 15.5599L83.7949 15.8967C86.5712 16.0819 89.3676 16.2827 90.0091 16.3428L91.1757 16.4522L93.0281 14.2148C94.6797 12.22 94.8805 11.8954 94.8805 11.2206C94.8805 10.7247 94.967 10.4637 95.1314 10.4637C95.9141 10.4637 96.4605 11.8561 95.8136 12.2023C95.5877 12.3232 95.4637 12.5861 95.4778 12.9143C95.4948 13.3123 95.5216 13.3445 95.5922 13.0513C95.6429 12.8405 95.7715 12.5817 95.8778 12.4763C96.008 12.3474 96.0327 13.3829 95.9535 15.639C95.8888 17.4839 95.842 19.6529 95.8497 20.4591C95.8643 21.992 95.6911 23.3229 95.4821 23.2823C95.4148 23.2692 94.9708 23.1517 94.4956 23.0211ZM95.4555 18.2266C95.4555 17.9429 95.3457 17.7474 95.1862 17.7474C94.9723 17.7474 94.9386 17.5008 95.0226 16.5495C95.0808 15.8906 95.2026 15.3225 95.2932 15.2872C95.5738 15.1777 95.2617 14.8723 94.8692 14.8723C94.5533 14.8723 94.4969 15.0099 94.4955 15.7828C94.4948 16.2835 94.4394 17.1461 94.3729 17.6995L94.2521 18.7058H94.8538C95.3679 18.7058 95.4555 18.636 95.4555 18.2266ZM87.4051 17.6303C87.4051 17.1317 87.1326 17.0753 83.7965 16.8834L81.8172 16.7695L81.8797 17.2106C81.9337 17.5917 82.1114 17.6812 83.1881 17.8696C83.8734 17.9895 85.1025 18.0824 85.9195 18.0762C87.3321 18.0654 87.4051 18.0435 87.4051 17.6303ZM84.0841 17.7518C83.4699 17.6701 82.8661 17.4958 82.7423 17.3642C82.5629 17.1736 82.9248 17.1518 84.5257 17.2564C85.6303 17.3286 86.572 17.4255 86.6182 17.4717C86.9204 17.774 85.463 17.935 84.0841 17.7518ZM64.3239 21.0539C64.2448 20.9748 64.1226 20.9062 64.0523 20.9015C63.6276 20.8726 61.9119 20.3372 61.9119 20.2335C61.9119 20.1648 61.4375 20.0024 60.8577 19.8727C60.2779 19.7429 59.8035 19.5516 59.8035 19.4475C59.8035 19.3434 59.7284 19.3046 59.6368 19.3613C59.4982 19.4469 57.1807 18.7823 56.9534 18.5918C56.9146 18.5592 57.0439 18.1398 57.241 17.6598C57.4734 17.0935 57.6896 16.8213 57.8566 16.8847C57.9981 16.9384 58.3242 17.0351 58.5812 17.0996C58.9507 17.1924 59.023 17.3025 58.9269 17.6259C58.8168 17.9965 58.8298 18.0045 59.0648 17.7114C59.2438 17.4882 59.4895 17.4211 59.8569 17.4952C60.2889 17.5823 60.3685 17.6796 60.2782 18.0104C60.175 18.3889 60.1865 18.3941 60.4376 18.0829C60.8121 17.6188 61.0044 17.6634 60.8508 18.1787C60.7236 18.6054 60.7257 18.6059 61.0452 18.2267C61.3464 17.8691 61.3604 17.8677 61.2523 18.2059C61.152 18.5197 61.1776 18.5342 61.4429 18.314C61.6239 18.1639 61.8024 18.1331 61.8786 18.239C61.9496 18.3376 62.1156 18.427 62.2474 18.4375C62.3791 18.448 62.6163 18.4696 62.7745 18.4854C62.9326 18.5012 63.0688 18.6651 63.0771 18.8496C63.0862 19.05 63.1312 19.0886 63.1889 18.9454C63.3063 18.6545 63.8287 18.6246 63.8287 18.9088C63.8287 19.0205 63.905 19.0647 63.9984 19.007C64.1354 18.9223 65.292 19.2084 65.5146 19.382C65.6085 19.4552 64.7203 21.1977 64.5892 21.1977C64.5223 21.1977 64.4029 21.133 64.3239 21.0539ZM58.4558 17.2683C58.4558 17.1628 58.3722 17.206 58.27 17.3641C58.1678 17.5222 58.0842 17.7379 58.0842 17.8433C58.0842 17.9487 58.1678 17.9056 58.27 17.7474C58.3722 17.5893 58.4558 17.3737 58.4558 17.2683ZM57.8259 17.1365C57.7648 16.9836 57.7193 17.029 57.7101 17.2523C57.7019 17.4543 57.7471 17.5676 57.8108 17.5039C57.8745 17.4402 57.8813 17.2748 57.8259 17.1365ZM65.5199 20.2673C65.7018 19.861 66.1023 19.3121 66.4099 19.0475C66.8882 18.6361 66.9693 18.4285 66.9693 17.6147C66.9693 16.2783 66.6068 15.5065 65.8694 15.273C62.0984 14.0789 58.7616 13.1382 58.5647 13.2138C57.8794 13.4767 56.5243 16.7891 57.102 16.7891C57.3414 16.7891 57.1665 17.3726 56.7743 17.8828L56.4491 18.3058L53.5306 17.3895C50.043 16.2947 49.532 15.9131 49.1975 14.1535L49.0791 13.5305H49.9369H50.7946V14.2718C50.7946 14.93 50.8847 15.0726 51.5993 15.5455C52.6428 16.2361 53.744 16.3541 54.6282 15.87C55.4505 15.4197 56.3653 14.0028 56.4547 13.0412C56.4912 12.6488 56.5976 12.2511 56.6913 12.1574C56.7905 12.0582 59.0543 12.6756 62.1181 13.6376C66.7616 15.0955 67.4362 15.358 67.9018 15.8876C68.4841 16.5498 68.5723 17.3083 68.2184 18.61C67.8933 19.8053 66.5676 21.006 65.5727 21.006C65.1983 21.006 65.197 20.9885 65.5199 20.2673ZM84.4994 15.5615L79.0061 15.1576L77.4073 13.4499C75.7747 11.706 74.7692 10.481 74.7597 10.2241C74.7568 10.145 79.1072 10.0803 84.4273 10.0803C93.7945 10.0803 94.1066 10.0921 94.2987 10.4511C94.4078 10.655 94.4971 10.9657 94.4971 11.1416C94.4971 11.3175 93.667 12.4876 92.6524 13.7419C91.2744 15.4455 90.7046 16.0152 90.4002 15.9939C90.1761 15.9783 87.5207 15.7837 84.4994 15.5615ZM66.6224 14.7478C66.2087 14.6037 65.8357 14.4514 65.7936 14.4093C65.7515 14.3672 65.9044 13.6385 66.1334 12.7899C66.3624 11.9413 66.5145 11.1416 66.4716 11.0127C66.4286 10.8838 66.1915 11.53 65.9446 12.4486C65.6977 13.3672 65.4233 14.1636 65.3347 14.2183C65.1121 14.3559 63.062 13.692 63.062 13.4823C63.062 13.3889 63.2816 12.4462 63.55 11.3874C63.8184 10.3286 64.0067 9.36836 63.9684 9.25361C63.9302 9.13885 63.6567 9.95874 63.3606 11.0756C63.0646 12.1924 62.7642 13.2004 62.6931 13.3155C62.6063 13.4559 61.4284 13.1564 59.1088 12.4038C57.2086 11.7874 55.1545 11.2206 54.5442 11.1443L53.4346 11.0057L53.5674 9.05605C53.7873 5.83028 53.9294 4.99486 54.2492 5.0472C54.4049 5.07268 55.1067 5.24519 55.8088 5.43055C57.03 5.75302 57.0898 5.7962 57.1927 6.42946C57.2518 6.79349 57.2639 7.7423 57.2197 8.53792C57.1487 9.81273 57.1588 9.8707 57.3044 9.02611C57.3954 8.499 57.4773 7.57175 57.4865 6.96557C57.4958 6.35939 57.5514 5.86343 57.6101 5.86343C57.6689 5.86343 58.1011 5.96017 58.5707 6.07841C59.6024 6.3382 59.706 6.61402 59.5574 8.70724C59.4949 9.5876 59.5143 9.94577 59.6057 9.60114C59.6895 9.28487 59.7683 8.44389 59.7808 7.73228C59.7933 7.02068 59.8682 6.44537 59.9472 6.45383C60.0263 6.46228 60.5223 6.6135 61.0494 6.78988L62.0078 7.11057L61.9868 8.73921C61.9743 9.70945 62.027 10.2129 62.1171 9.9845C62.2003 9.77365 62.2744 9.11955 62.2818 8.53094C62.2892 7.94233 62.3445 7.41155 62.4046 7.35144C62.5642 7.19187 65.3702 8.2499 65.5473 8.5364C65.6423 8.69015 65.7416 8.7083 65.8173 8.58578C65.9154 8.42704 67.7419 8.95108 68.0098 9.21482C68.0427 9.24731 67.9361 10.2963 67.7728 11.546C67.6095 12.7956 67.4531 14.0862 67.4253 14.414L67.3747 15.0099L66.6224 14.7478ZM64.475 11.9574C64.3156 11.6995 64.0507 12.2509 64.0415 12.8597C64.0367 13.1744 64.0873 13.1478 64.3241 12.7114C64.4827 12.4189 64.5506 12.0797 64.475 11.9574ZM60.8655 10.7512C61.0389 10.3295 61.091 10.0708 60.9813 10.1762C60.8716 10.2816 60.64 10.7129 60.4666 11.1346C60.2931 11.5563 60.241 11.815 60.3507 11.7096C60.4604 11.6042 60.6921 11.1729 60.8655 10.7512ZM62.4262 11.1945C62.365 11.0416 62.3196 11.087 62.3104 11.3103C62.3021 11.5123 62.3474 11.6255 62.4111 11.5618C62.4748 11.4982 62.4816 11.3328 62.4262 11.1945ZM58.4488 7.10933C58.4492 7.00391 58.3229 7.08508 58.1681 7.28973C58.0133 7.49437 57.8897 7.79626 57.8935 7.9606C57.9008 8.28588 58.4476 7.44784 58.4488 7.10933ZM53.2864 14.4247C53.2864 14.364 53.5021 13.9965 53.7656 13.6081C54.0721 13.1566 54.2448 12.6353 54.2448 12.162C54.2448 11.5053 54.2974 11.4221 54.7127 11.4221C55.3558 11.4221 55.4647 11.6895 55.1049 12.3852C54.8155 12.9449 53.2864 14.6598 53.2864 14.4247ZM69.6133 12.9645C69.0735 12.5379 68.5307 12.1888 68.4071 12.1888C68.244 12.1888 68.2174 11.8099 68.3103 10.8104C68.3808 10.0522 68.4609 9.40949 68.4883 9.38207C68.5157 9.35466 69.5419 9.60837 70.7688 9.94588C72.9288 10.5401 73.0022 10.5778 73.0883 11.1346C73.1372 11.4508 73.0361 12.1409 72.8636 12.668L72.55 13.6264L71.5723 13.6833C70.6796 13.7353 70.5094 13.6729 69.6133 12.9645ZM20.4219 13.1472C20.3938 13.0945 20.3174 12.827 20.252 12.5528C20.1345 12.0598 20.1171 12.0553 18.694 12.1466C17.7433 12.2076 17.1624 12.1622 16.9825 12.0129C16.7965 11.8585 16.6707 11.8506 16.5859 11.9878C16.4062 12.2785 13.8008 12.2513 13.8008 11.9588C13.8008 11.7799 13.7497 11.7799 13.5708 11.9588C13.2801 12.2495 12.2674 12.261 12.2674 11.9736C12.2674 11.8231 12.1953 11.8183 12.0274 11.9577C11.8724 12.0863 9.98749 12.1456 6.70829 12.1249L1.62926 12.093L1.56801 11.6617C1.49762 11.1661 0.247652 11.2221 13.2258 11.139C17.1791 11.1137 20.5646 11.0808 20.7491 11.0659C21.0376 11.0425 21.0846 10.8294 21.0846 9.54364C21.0846 8.63636 21.175 7.95812 21.3146 7.81854C21.4411 7.69203 21.9632 7.58853 22.4749 7.58853H23.4052L23.3732 9.55322C23.3549 10.6781 23.4339 11.7228 23.5581 11.9971C23.7527 12.427 23.7636 12.4003 23.6635 11.7386C23.6021 11.3329 23.6221 11.0444 23.7079 11.0975C23.7937 11.1505 23.8335 10.469 23.7963 9.58292L23.7287 7.97188H24.2276C24.7225 7.97188 24.7264 7.98378 24.7264 9.47336C24.7264 10.2992 24.7911 11.0385 24.8702 11.1164C24.9493 11.1942 25.1224 11.5321 25.255 11.8671L25.4961 12.4763L25.395 11.9013C25.1172 10.3195 25.0652 8.16078 25.2982 7.88002C25.6383 7.47014 27.327 7.47917 27.4853 7.89172C27.691 8.42798 27.6098 10.5705 27.3748 10.8055C27.25 10.9303 27.2083 11.0927 27.2821 11.1665C27.6201 11.5045 27.8524 10.7787 27.8113 9.51274L27.7676 8.16356H28.5471H29.3267V9.5053V10.847H28.7312C28.2651 10.847 28.1611 10.9134 28.2528 11.1524C28.3172 11.3203 28.4221 11.6653 28.4858 11.9191C28.5494 12.1728 28.6724 12.3805 28.7591 12.3805C28.8457 12.3805 28.8364 12.1007 28.7383 11.7588C28.6402 11.4169 28.5602 11.1365 28.5604 11.1358C28.5606 11.1351 28.8558 11.1136 29.2163 11.0879C29.8029 11.0462 29.8851 11.1014 29.9974 11.6128C30.0664 11.9272 30.2118 12.2393 30.3204 12.3064C30.4998 12.4173 30.4441 12.0827 30.1545 11.3097C30.1087 11.1875 30.3513 11.0911 30.742 11.0765C31.3315 11.0543 31.4217 11.1162 31.5319 11.6179C31.7057 12.4093 32.0101 12.5285 31.8848 11.756C31.789 11.166 31.8205 11.1201 32.3489 11.0798C32.8386 11.0425 32.9572 11.1347 33.22 11.7565L33.5242 12.4763L33.4262 11.8054C33.334 11.1745 33.3618 11.1323 33.8927 11.0961C34.3765 11.0632 34.5001 11.1591 34.7574 11.767L35.0577 12.4763L34.9497 11.7552C34.8586 11.146 34.8899 11.0525 35.1511 11.1527C35.3259 11.2198 35.4604 11.175 35.4604 11.0497C35.4604 10.6176 36.1137 11.1856 36.365 11.8361L36.6122 12.4763L36.5123 11.7868C36.4168 11.1274 36.4378 11.0965 36.9934 11.0807C37.4807 11.0669 37.6187 11.1703 37.8493 11.7223C38.1971 12.5546 38.365 12.5764 38.1305 11.7588C38.0324 11.4168 37.9522 11.1279 37.9522 11.1166C37.9522 11.1053 38.4697 11.0806 39.1023 11.0616L40.2523 11.0271L40.2523 12.1351L40.2523 13.243H30.3626C24.9232 13.243 20.4499 13.1999 20.4219 13.1472ZM21.9381 11.5375C21.8669 11.1578 21.7227 10.847 21.6177 10.847C21.5128 10.847 21.4796 10.9844 21.5441 11.1524C21.6085 11.3203 21.7143 11.6693 21.7793 11.928C21.958 12.6401 22.086 12.3255 21.9381 11.5375ZM27.1134 11.5375C27.0422 11.1578 26.898 10.847 26.793 10.847C26.6881 10.847 26.6549 10.9844 26.7194 11.1524C26.7838 11.3203 26.8896 11.6693 26.9546 11.928C27.1333 12.6401 27.2613 12.3255 27.1134 11.5375ZM22.4263 11.0387C22.4263 10.9333 22.34 10.847 22.2346 10.847C22.1292 10.847 22.0429 10.9333 22.0429 11.0387C22.0429 11.1441 22.1292 11.2304 22.2346 11.2304C22.34 11.2304 22.4263 11.1441 22.4263 11.0387ZM25.8765 11.0387C25.8765 10.9333 25.7902 10.847 25.6848 10.847C25.5794 10.847 25.4931 10.9333 25.4931 11.0387C25.4931 11.1441 25.5794 11.2304 25.6848 11.2304C25.7902 11.2304 25.8765 11.1441 25.8765 11.0387ZM22.9627 9.39269C22.9941 9.17262 22.8972 8.89081 22.7474 8.76643C22.1939 8.30713 21.4198 9.08126 21.8791 9.63469C22.204 10.0262 22.8942 9.87209 22.9627 9.39269ZM21.9433 9.49922C21.8689 9.37877 21.8982 9.19003 22.0084 9.0798C22.266 8.8222 22.8666 9.04688 22.7618 9.36165C22.6551 9.68207 22.1127 9.77324 21.9433 9.49922ZM26.9672 9.57509C27.0953 9.24135 26.8458 8.71028 26.508 8.59769C26.396 8.56035 26.1651 8.66902 25.995 8.83919C25.7603 9.07382 25.7334 9.23797 25.8836 9.51861C26.1252 9.97004 26.8022 10.0053 26.9672 9.57509ZM26.2 9.57321C25.9286 9.30188 26.0822 8.93029 26.4656 8.93029C26.7335 8.93029 26.8428 9.03438 26.801 9.24984C26.7326 9.60262 26.4054 9.77866 26.2 9.57321ZM48.8139 13.0194C48.7437 12.9491 48.6862 12.5179 48.6862 12.061V11.2304H50.4113C51.3601 11.2304 52.1364 11.2791 52.1364 11.3386C52.1364 11.3982 51.8776 11.6646 51.5613 11.9307C51.2451 12.1968 50.9863 12.5794 50.9863 12.7809C50.9863 13.0957 50.8427 13.1472 49.964 13.1472C49.4018 13.1472 48.8842 13.0897 48.8139 13.0194ZM41.2107 10.884L40.5399 10.7513V9.24858C40.5399 6.99469 40.5004 7.01353 45.2145 7.01353C49.3936 7.01353 49.8571 6.90138 49.814 5.90052C49.7967 5.49992 49.7706 5.47015 49.6975 5.76763C49.4911 6.60722 49.3792 6.63018 45.4905 6.63018C40.5164 6.63018 40.2523 6.76481 40.2523 9.30107V10.6554H34.9724H29.6925L29.7492 9.36159L29.8059 8.06776L33.8311 8.01969C37.6621 7.97395 37.8725 7.95211 38.1918 7.56718C38.577 7.10272 38.6289 6.10462 38.3048 5.39329L38.0823 4.90504H33.8962H29.7101V4.22634V3.54764L40.0127 3.61447L50.3154 3.6813L51.8488 4.17313L53.3823 4.66496L53.3669 5.50379C53.3362 7.17303 53.0593 10.4026 52.9287 10.6139C52.7745 10.8633 42.3238 11.1041 41.2107 10.884ZM39.6394 9.36159C39.6747 8.74848 39.6185 8.35528 39.4956 8.35528C39.3844 8.35528 39.2939 8.74202 39.2939 9.21783V10.0804H38.1439H36.9938V9.21783C36.9938 8.48306 36.937 8.35528 36.6105 8.35528C36.2839 8.35528 36.2271 8.48306 36.2271 9.21783C36.2271 9.95259 36.1703 10.0804 35.8437 10.0804C35.5172 10.0804 35.4604 9.95259 35.4604 9.21783C35.4604 8.48306 35.4036 8.35528 35.077 8.35528C34.7505 8.35528 34.6937 8.48306 34.6937 9.21783C34.6937 9.95259 34.6369 10.0804 34.3103 10.0804C33.9838 10.0804 33.927 9.95259 33.927 9.21783C33.927 8.48306 33.8702 8.35528 33.5436 8.35528C33.217 8.35528 33.1603 8.48306 33.1603 9.21783V10.0804H31.9144C31.1965 10.0804 30.6684 10.1631 30.6684 10.2756C30.6684 10.404 32.1943 10.4532 35.125 10.4193L39.5815 10.3679L39.6394 9.36159ZM51.8488 9.8019C51.8488 9.48081 51.5747 9.3881 49.7404 9.08877C47.4161 8.7095 46.5777 8.76694 46.5777 9.30543C46.5777 9.91832 47.0415 10.0655 49.1767 10.1303C51.941 10.2141 51.8488 10.2255 51.8488 9.8019ZM46.4432 9.95934C46.5097 9.89277 46.4795 9.68007 46.376 9.48669C46.0587 8.89381 46.9173 8.4786 48.1188 8.64385L49.095 8.77812L49.0343 8.03958L48.9737 7.30105L46.1434 7.24799C43.0905 7.19076 42.4403 7.33052 42.6169 8.00597C42.7133 8.37463 42.7021 8.37666 42.3467 8.05499C42.0405 7.77793 41.8915 7.75785 41.4921 7.93985C40.8805 8.21852 40.7185 8.63463 40.9897 9.23005C41.1469 9.57491 41.354 9.69702 41.7817 9.69702C42.1002 9.69702 42.3608 9.78328 42.3608 9.8887C42.3608 10.0979 46.2375 10.165 46.4432 9.95934ZM42.7437 9.66039C42.7439 9.58754 42.8369 9.4706 42.9503 9.40052C43.0637 9.33044 43.1284 8.91563 43.0941 8.47874L43.0317 7.68438H45.9042C48.4876 7.68438 48.7832 7.71814 48.8413 8.01982C48.897 8.30877 48.7487 8.35525 47.7715 8.35525C46.566 8.35525 45.8368 8.79673 46.0641 9.38902C46.1531 9.62083 45.8703 9.68114 44.4577 9.7316C43.5148 9.76528 42.7435 9.73322 42.7437 9.66039ZM41.2795 9.0247C41.2128 8.851 41.2842 8.58302 41.438 8.42918C41.8215 8.04565 42.3968 8.29379 42.323 8.81092C42.2503 9.32043 41.4555 9.48327 41.2795 9.0247ZM41.9774 8.73861C41.9774 8.63318 41.9394 8.54693 41.8929 8.54693C41.8464 8.54693 41.7551 8.63318 41.6899 8.73861C41.6248 8.84403 41.6628 8.93028 41.7744 8.93028C41.8861 8.93028 41.9774 8.84403 41.9774 8.73861ZM30.8601 9.12196C30.8601 8.70027 30.7739 8.35525 30.6684 8.35525C30.563 8.35525 30.4768 8.70027 30.4768 9.12196C30.4768 9.54365 30.563 9.88867 30.6684 9.88867C30.7739 9.88867 30.8601 9.54365 30.8601 9.12196ZM32.3299 9.39462C32.3937 9.22831 32.3048 8.95106 32.1322 8.77851C31.8417 8.48799 31.7953 8.48799 31.5048 8.77851C31.1129 9.17039 31.2928 9.697 31.8185 9.697C32.036 9.697 32.2661 9.56092 32.3299 9.39462ZM31.6268 9.12196C31.6268 9.01654 31.7131 8.93028 31.8185 8.93028C31.9239 8.93028 32.0102 9.01654 32.0102 9.12196C32.0102 9.22738 31.9239 9.31364 31.8185 9.31364C31.7131 9.31364 31.6268 9.22738 31.6268 9.12196ZM38.6553 9.39462C38.7191 9.22831 38.6301 8.95106 38.4576 8.77851C38.1671 8.48799 38.1207 8.48799 37.8302 8.77851C37.4383 9.17039 37.6181 9.697 38.1439 9.697C38.3613 9.697 38.5915 9.56092 38.6553 9.39462ZM37.7605 9.12196C37.7605 9.01654 37.8899 8.93028 38.048 8.93028C38.2062 8.93028 38.3356 9.01654 38.3356 9.12196C38.3356 9.22738 38.2062 9.31364 38.048 9.31364C37.8899 9.31364 37.7605 9.22738 37.7605 9.12196ZM52.8072 8.96223C52.8072 8.61555 52.4321 8.67884 52.3576 9.03808C52.3162 9.23794 52.3881 9.32557 52.5493 9.27183C52.6912 9.22454 52.8072 9.08522 52.8072 8.96223ZM53.0947 6.72599C53.0947 6.56786 52.9654 6.43847 52.8072 6.43847C52.6491 6.43847 52.5197 6.56786 52.5197 6.72599C52.5197 6.88412 52.6491 7.01351 52.8072 7.01351C52.9654 7.01351 53.0947 6.88412 53.0947 6.72599ZM45.0443 6.15096C45.0443 5.99282 44.9149 5.86344 44.7568 5.86344C44.5986 5.86344 44.4692 5.99282 44.4692 6.15096C44.4692 6.30909 44.5986 6.43847 44.7568 6.43847C44.9149 6.43847 45.0443 6.30909 45.0443 6.15096ZM48.9655 6.26004C49.1072 6.03068 48.7467 5.80342 48.4914 5.96121C48.277 6.0937 48.4177 6.43847 48.6862 6.43847C48.7791 6.43847 48.9048 6.35818 48.9655 6.26004ZM42.8919 6.01918C42.7734 5.66376 42.3608 5.60482 42.3608 5.94331C42.3608 6.11023 42.4974 6.2468 42.6643 6.2468C42.8312 6.2468 42.9336 6.14437 42.8919 6.01918ZM43.9043 5.95928C43.8893 5.67478 43.4605 5.72705 43.361 6.02551C43.3073 6.18673 43.3949 6.25858 43.5947 6.21718C43.7706 6.18076 43.9099 6.06471 43.9043 5.95928ZM35.4604 4.03118C35.4604 3.71489 35.1575 3.66146 34.9812 3.94665C34.8249 4.19957 35.0541 4.5585 35.282 4.41766C35.3801 4.35701 35.4604 4.18309 35.4604 4.03118ZM39.9105 3.91151C39.6177 3.61872 39.4017 3.83476 39.5641 4.25795C39.66 4.50782 39.7431 4.53258 39.9136 4.36206C40.0841 4.19153 40.0834 4.08438 39.9105 3.91151ZM49.2612 4.03118C49.2612 3.71489 48.9583 3.66146 48.782 3.94665C48.6257 4.19957 48.8549 4.5585 49.0828 4.41766C49.1809 4.35701 49.2612 4.18309 49.2612 4.03118ZM31.0518 4.14964C31.0518 3.8908 30.7024 3.71137 30.4736 3.85274C30.3665 3.91896 30.3285 4.05343 30.3891 4.15157C30.533 4.38439 31.0518 4.3829 31.0518 4.14964ZM44.617 4.10239C44.4985 3.74698 44.0859 3.68803 44.0859 4.02652C44.0859 4.19344 44.2225 4.33001 44.3894 4.33001C44.5563 4.33001 44.6587 4.22758 44.617 4.10239ZM0.127785 10.7193C-0.0761751 10.5153 -0.0198028 8.00675 0.191677 7.87604C0.313406 7.80081 0.383355 8.3213 0.383355 9.30231C0.383355 10.8515 0.364505 10.956 0.127785 10.7193ZM0.766711 9.43294C0.766711 7.76923 0.942304 7.5384 2.14221 7.62473L2.97101 7.68436L3.02668 9.26571L3.08235 10.847H1.92454H0.766717L0.766711 9.43294ZM2.45348 9.65865C2.79736 9.31476 2.73235 8.96991 2.27777 8.72663C1.74444 8.44119 1.24234 8.89014 1.4308 9.48393C1.57209 9.92911 2.09387 10.0183 2.45348 9.65865ZM1.66783 9.57582C1.366 9.27398 1.54515 8.90527 1.9647 8.96486C2.2019 8.99855 2.39597 9.15431 2.39597 9.311C2.39597 9.61553 1.89114 9.79913 1.66783 9.57582ZM3.4502 9.40946C3.4502 8.00383 3.46085 7.97188 3.92939 7.97188C4.39794 7.97188 4.40859 8.00383 4.40859 9.40946C4.40859 10.8151 4.39794 10.847 3.92939 10.847C3.46085 10.847 3.4502 10.8151 3.4502 9.40946ZM4.79194 9.43294C4.79194 7.76923 4.96754 7.5384 6.16744 7.62474L6.99624 7.68438L7.05191 9.26572L7.10758 10.8471H5.94977H4.79195L4.79194 9.43294ZM6.67005 9.39269C6.7015 9.17262 6.60461 8.89081 6.45475 8.76643C5.90132 8.30713 5.12719 9.08126 5.58649 9.63469C5.91144 10.0262 6.60156 9.87209 6.67005 9.39269ZM5.65073 9.49922C5.57629 9.37877 5.60559 9.19003 5.71582 9.0798C5.97342 8.8222 6.57399 9.04688 6.46919 9.36165C6.3625 9.68207 5.82009 9.77324 5.65073 9.49922ZM7.47543 9.40947C7.47543 8.00383 7.48608 7.97188 7.95463 7.97188C8.42317 7.97188 8.43382 8.00383 8.43382 9.40947C8.43382 10.8151 8.42317 10.847 7.95463 10.847C7.48608 10.847 7.47543 10.8151 7.47543 9.40947ZM8.95333 10.7276C8.72181 10.4961 8.80024 8.06549 9.04719 7.81854C9.1737 7.69203 9.68958 7.58853 10.1936 7.58853C11.2698 7.58853 11.3663 7.76951 11.2718 9.60913L11.2132 10.7512L10.1513 10.8075C9.5673 10.8384 9.02821 10.8025 8.95333 10.7276ZM10.6746 9.57509C10.8027 9.24135 10.5532 8.71028 10.2154 8.59769C10.1034 8.56035 9.87252 8.66903 9.70236 8.83919C9.46772 9.07382 9.44082 9.23797 9.59101 9.51862C9.83261 9.97004 10.5095 10.0053 10.6746 9.57509ZM9.90734 9.57321C9.63602 9.30189 9.78955 8.93029 10.173 8.93029C10.4409 8.93029 10.5502 9.03438 10.5084 9.24985C10.44 9.60262 10.1128 9.77866 9.90734 9.57321ZM11.5402 9.45741C11.5919 8.18222 11.632 8.0627 12.0278 8.00649C12.4424 7.94759 12.4591 8.00111 12.4591 9.39616C12.4591 10.8227 12.4509 10.8471 11.9715 10.8471C11.4888 10.8471 11.4844 10.8331 11.5402 9.45741ZM13.0741 9.27553L13.1299 7.68439H14.1841H15.2384V9.21781V10.7512L14.1283 10.809L13.0183 10.8667L13.0741 9.27553ZM14.739 9.62546C15.187 9.08568 14.4121 8.3108 13.8723 8.75878C13.5954 8.98864 13.5203 9.54427 13.7369 9.7609C13.9535 9.97752 14.5092 9.90243 14.739 9.62546ZM13.9326 9.57322C13.6613 9.30191 13.8148 8.93032 14.1982 8.93032C14.4662 8.93032 14.5754 9.03441 14.5336 9.24987C14.4652 9.60265 14.138 9.77866 13.9326 9.57322ZM15.7176 9.40949C15.7176 8.09969 15.7517 7.97191 16.1009 7.97191C16.4502 7.97191 16.4843 8.09969 16.4843 9.40949C16.4843 10.7193 16.4502 10.8471 16.1009 10.8471C15.7517 10.8471 15.7176 10.7193 15.7176 9.40949ZM17.0593 9.44252C17.0593 7.76841 17.2334 7.53831 18.4348 7.62475L19.2636 7.68439V9.21782V10.7512L18.1615 10.8087L17.0593 10.8662V9.44252ZM18.7461 9.65867C19.09 9.31478 19.025 8.96993 18.5704 8.72665C18.037 8.44122 17.5349 8.89016 17.7234 9.48395C17.8647 9.92913 18.3865 10.0183 18.7461 9.65867ZM17.9604 9.57584C17.6586 9.27401 17.8378 8.9053 18.2573 8.96488C18.4945 8.99857 18.6886 9.15433 18.6886 9.31102C18.6886 9.61555 18.1838 9.79916 17.9604 9.57584ZM19.7428 9.40949C19.7428 8.00385 19.7535 7.9719 20.222 7.9719C20.6905 7.9719 20.7012 8.00385 20.7012 9.40949C20.7012 10.8151 20.6905 10.8471 20.222 10.8471C19.7535 10.8471 19.7428 10.8151 19.7428 9.40949ZM27.424 7.50969C27.0362 7.04235 27.3661 6.82181 28.4531 6.82181C29.3704 6.82181 29.4824 6.86713 29.5593 7.26952C29.6393 7.6882 29.5806 7.71983 28.6538 7.75733C27.9673 7.7851 27.5895 7.70901 27.424 7.50969ZM30.0271 7.44476C29.9781 7.3657 31.6981 7.30101 33.8492 7.30101C36.0003 7.30101 37.7603 7.3657 37.7604 7.44476C37.7605 7.52383 36.0405 7.58852 33.9383 7.58852C31.836 7.58852 30.076 7.52383 30.0271 7.44476ZM34.3103 6.18928V5.09674H34.9812C35.6485 5.09674 35.6521 5.1013 35.6521 5.95929C35.6521 6.73155 35.6059 6.82184 35.2112 6.82184C34.9687 6.82184 34.6668 6.92534 34.5403 7.05185C34.3614 7.23075 34.3103 7.03904 34.3103 6.18928ZM36.0354 6.17441V5.09674L36.6584 5.09971C37.5574 5.10391 37.7985 5.32416 37.7268 6.07526C37.673 6.63906 37.5878 6.73471 37.0896 6.79091C36.7734 6.8266 36.4068 6.94498 36.275 7.05398C36.0883 7.20847 36.0354 7.01448 36.0354 6.17441ZM0.894496 6.69405C0.824217 6.62377 0.766711 5.89747 0.766711 5.08005V3.59383L1.9647 3.47571C2.62359 3.41075 3.42145 3.43165 3.73772 3.52216C4.31026 3.68602 4.31275 3.69289 4.31275 5.11052C4.31275 6.40653 4.27835 6.53432 3.92939 6.53432C3.58647 6.53432 3.5401 6.38776 3.48972 5.14465C3.41317 3.25576 3.06684 3.3735 3.06684 5.28841V6.82183H2.04456C1.48231 6.82183 0.964778 6.76434 0.894496 6.69405ZM2.56386 5.43577C2.72461 5.18049 2.69962 5.03072 2.45551 4.78661C1.8813 4.2124 1.02461 4.96285 1.54227 5.58659C1.84031 5.94571 2.28398 5.88021 2.56386 5.43577ZM1.59531 5.36491C1.44479 4.97265 1.91682 4.66648 2.24815 4.94146C2.43524 5.09673 2.44286 5.21229 2.27902 5.40969C1.99048 5.75737 1.73961 5.74094 1.59531 5.36491ZM4.87235 6.56323C4.81777 6.42099 4.79891 5.71109 4.83045 4.98569L4.88778 3.66676L5.84617 3.50567C6.37328 3.41707 7.17467 3.39961 7.62702 3.46687L8.44948 3.58916L8.39374 5.06174C8.34353 6.38796 8.29988 6.53433 7.95463 6.53433C7.61171 6.53433 7.56534 6.38777 7.51496 5.14466C7.43841 3.25577 7.09208 3.3735 7.09208 5.28842V6.82184H6.03184C5.31888 6.82184 4.93908 6.73713 4.87235 6.56323ZM6.58909 5.43577C6.74985 5.1805 6.72485 5.03072 6.48074 4.78661C5.90653 4.2124 5.04984 4.96285 5.5675 5.5866C5.86554 5.94571 6.30921 5.88021 6.58909 5.43577ZM5.75033 5.48409C5.49476 5.32248 5.49476 5.27034 5.75033 5.01477C6.10378 4.66132 6.62566 4.92058 6.45515 5.36491C6.3207 5.71528 6.15913 5.7426 5.75033 5.48409ZM9.0306 6.56052C8.88518 6.38531 8.82013 5.79442 8.85595 4.97404L8.91301 3.66676L9.8714 3.50567C10.3985 3.41707 11.1964 3.39908 11.6444 3.4657L12.4591 3.58681V5.08232C12.4591 6.51187 12.44 6.57687 12.0278 6.55608C11.6291 6.53597 11.5899 6.42553 11.5087 5.09674L11.421 3.65916L11.3171 5.19258L11.2131 6.726L10.2377 6.78287C9.56122 6.8223 9.19131 6.75417 9.0306 6.56052ZM10.6972 5.25695C10.7421 4.86857 10.6538 4.71378 10.3284 4.61051C9.75871 4.42969 9.31762 4.98257 9.60429 5.51821C9.89986 6.0705 10.6231 5.89762 10.6972 5.25695ZM9.83994 5.37137C9.68018 4.95506 10.0858 4.56354 10.3761 4.85384C10.6214 5.0992 10.4694 5.67177 10.1589 5.67177C10.0469 5.67177 9.90334 5.53659 9.83994 5.37137ZM13.1705 6.70267C13.0955 6.62765 13.0341 5.8987 13.0341 5.08278V3.59929L13.9888 3.46799C14.5138 3.39578 15.2901 3.39526 15.7139 3.46683L16.4843 3.59698V5.07277C16.4843 6.41114 16.4486 6.55124 16.1009 6.57743C15.7493 6.60392 15.7176 6.48815 15.7176 5.18064C15.7176 3.29195 15.3659 3.34167 15.2944 5.24047L15.2384 6.72597L14.2726 6.7825C13.7415 6.8136 13.2455 6.77766 13.1705 6.70267ZM14.749 5.58819C14.9214 5.38048 14.924 5.21299 14.7596 4.90575C14.5153 4.44933 14.0374 4.45929 13.7429 4.92693C13.2995 5.63115 14.2143 6.23243 14.749 5.58819ZM13.8652 5.37137C13.7054 4.95506 14.111 4.56354 14.4013 4.85384C14.6466 5.0992 14.4946 5.67177 14.1842 5.67177C14.0721 5.67177 13.9286 5.53659 13.8652 5.37137ZM17.1871 6.69406C17.1168 6.62378 17.0593 5.90139 17.0593 5.08875V3.61124L17.6583 3.49144C17.9878 3.42555 18.5053 3.37164 18.8084 3.37164H19.3595V5.09674V6.82184H18.3372C17.7749 6.82184 17.2574 6.76434 17.1871 6.69406ZM18.8565 5.43577C19.0172 5.1805 18.9922 5.03072 18.7481 4.78661C18.1739 4.2124 17.3172 4.96285 17.8349 5.5866C18.1329 5.94571 18.5766 5.88021 18.8565 5.43577ZM18.0656 5.5342C17.7404 5.41735 17.7622 4.97053 18.0995 4.8411C18.4902 4.69118 18.8623 5.1797 18.5472 5.4289C18.4141 5.53416 18.1974 5.58154 18.0656 5.5342ZM21.2123 6.69403C21.1421 6.62375 21.0846 5.93371 21.0846 5.16061C21.0846 3.3411 20.7353 3.32791 20.6617 5.14463C20.6113 6.38774 20.5649 6.5343 20.222 6.5343C19.8771 6.5343 19.8331 6.388 19.7831 5.07428L19.7276 3.61425L20.3342 3.49293C20.6678 3.4262 21.4907 3.37161 22.1627 3.37161H23.3847V5.09671V6.82181H22.3624C21.8002 6.82181 21.2826 6.76432 21.2123 6.69403ZM22.8817 5.43575C23.0425 5.18047 23.0175 5.0307 22.7733 4.78658C22.1991 4.21237 21.3425 4.96283 21.8601 5.58657C22.1582 5.94569 22.6018 5.88018 22.8817 5.43575ZM22.064 5.40966C21.8983 5.21 21.9175 5.08867 22.1445 4.90026C22.5109 4.59621 22.9197 4.9168 22.7453 5.37135C22.6033 5.74133 22.3511 5.75552 22.064 5.40966ZM25.3398 6.5918C25.0573 6.3093 25.0291 3.82749 25.3064 3.65609C25.4145 3.58926 25.9752 3.48584 26.5523 3.42628L27.6016 3.31798V4.7667C27.6016 5.5635 27.5492 6.35186 27.4853 6.51862C27.3432 6.88875 25.693 6.94503 25.3398 6.5918ZM26.9898 5.25693C27.0347 4.86854 26.9464 4.71375 26.621 4.61048C26.0513 4.42966 25.6102 4.98255 25.8969 5.51818C26.1925 6.07047 26.9157 5.89759 26.9898 5.25693ZM26.1325 5.37135C25.9728 4.95503 26.3784 4.56352 26.6687 4.85382C26.914 5.09917 26.762 5.67175 26.4515 5.67175C26.3395 5.67175 26.1959 5.53657 26.1325 5.37135ZM29.7101 6.18928C29.7101 5.2128 29.9585 5.09671 32.0485 5.09671H33.927V5.95926V6.82182H31.8185H29.7101V6.18928ZM0 5.19255C0 4.36195 0.0809303 3.75497 0.191678 3.75497C0.302425 3.75497 0.383356 4.36195 0.383356 5.19255C0.383356 6.02316 0.302425 6.63014 0.191678 6.63014C0.0809306 6.63014 0 6.02316 0 5.19255ZM23.877 6.48347C23.8171 6.42358 23.768 5.74203 23.768 4.96893C23.768 3.59117 23.7777 3.56329 24.2553 3.56329C24.7396 3.56329 24.7422 3.57207 24.6866 5.03107C24.6407 6.23359 24.5723 6.50729 24.3082 6.54561C24.1309 6.57134 23.9368 6.54339 23.877 6.48347ZM27.7933 5.09671V3.75497H28.56H29.3267V5.09671V6.43846H28.56H27.7933V5.09671ZM1.3782 2.8445C1.43754 2.5362 1.84569 2.50672 6.42379 2.48007C9.16336 2.46411 11.5286 2.51959 11.6798 2.60334C11.8311 2.68709 12.105 2.66182 12.2886 2.54718C12.5309 2.39585 12.7556 2.39948 13.1089 2.56044C13.4128 2.69893 13.6382 2.71291 13.7094 2.59767C13.8599 2.35414 15.8351 2.36006 16.2936 2.60542C16.5336 2.7339 16.6921 2.7339 16.7715 2.60542C16.9277 2.35272 18.8971 2.35744 19.3721 2.61165C19.6696 2.77087 19.7428 2.74706 19.7428 2.49111C19.7428 2.20532 19.947 2.18664 21.7072 2.31143C22.7876 2.38803 23.8319 2.53651 24.0279 2.6414C24.2707 2.77134 24.451 2.76537 24.5937 2.62266C24.8694 2.34697 26.5569 2.35357 27.0779 2.63239C27.3852 2.79682 27.5057 2.79682 27.5605 2.63239C27.6581 2.33968 28.4194 2.3529 28.7373 2.65283C28.9405 2.84451 29.0088 2.84451 29.0791 2.65283C29.1925 2.3437 31.05 2.3333 31.7189 2.63804C32.0963 2.81001 32.2651 2.81001 32.4371 2.63804C32.7295 2.3456 34.5504 2.3466 34.8431 2.63934C35.0169 2.81307 35.1751 2.80886 35.5258 2.62115C35.8988 2.42153 36.062 2.42399 36.4173 2.63461C36.7601 2.83782 36.8706 2.84167 36.939 2.6528C37.0054 2.46955 38.1892 2.4132 41.9729 2.4132C46.3072 2.4132 46.9344 2.45076 47.0364 2.7164C47.1004 2.88315 47.1527 3.05566 47.1527 3.09975C47.1527 3.14384 36.8389 3.17992 24.2332 3.17992C2.50823 3.17992 1.317 3.16246 1.3782 2.8445ZM38.7295 1.43995C38.9605 1.1155 39.333 0.775653 39.5572 0.684745C40.1731 0.434991 45.3307 -0.110204 45.8484 0.0197224C46.2322 0.116045 47.3444 1.51858 47.3444 1.90621C47.3444 1.97422 45.3115 2.02987 42.8269 2.02987H38.3094L38.7295 1.43995ZM40.3482 1.36162C40.3482 0.938753 39.7523 0.728169 39.4398 1.04062C39.1176 1.36279 39.4354 1.87197 39.916 1.80372C40.1988 1.76357 40.3482 1.61075 40.3482 1.36162ZM39.6082 1.51352C39.3923 1.29766 39.4767 1.07148 39.7731 1.07148C39.9313 1.07148 40.0607 1.15265 40.0607 1.25185C40.0607 1.49355 39.7613 1.66666 39.6082 1.51352ZM45.9649 0.760443C46.0367 0.257386 45.4656 -0.00702664 45.099 0.359537C44.9537 0.504924 44.8948 0.766655 44.9658 0.951748C45.145 1.41873 45.8913 1.27582 45.9649 0.760443ZM45.236 0.688128C45.236 0.582706 45.3653 0.496451 45.5235 0.496451C45.6816 0.496451 45.811 0.582706 45.811 0.688128C45.811 0.793551 45.6816 0.879806 45.5235 0.879806C45.3653 0.879806 45.236 0.793551 45.236 0.688128Z" />
</svg>
