<svg width="100" height="52" viewBox="0 0 100 52"  xmlns="http://www.w3.org/2000/svg">
<path d="M40.4926 51.3592C38.3331 50.5866 36.3716 49.2126 32.4633 45.7346C30.3543 43.8578 28.0194 41.9125 27.2746 41.4117C26.5299 40.9108 26.1127 40.437 26.3477 40.3587C26.6801 40.2479 26.6845 40.0475 26.3677 39.4555C26.1437 39.037 25.8105 38.6946 25.6272 38.6946C25.4438 38.6946 25.2938 38.2421 25.2938 37.6889C25.2938 35.8403 23.9115 32.8775 22.6996 32.1284C21.3438 31.2905 17.5967 31.1817 15.8096 31.9284C14.3807 32.5254 13.8927 33.3693 13.8927 35.2436C13.8927 36.3649 14.1115 36.8936 14.9026 37.6847C15.8592 38.6413 16.0665 38.6946 18.8262 38.6946H21.7398L21.703 39.74C21.6702 40.6715 21.5251 40.808 20.3706 40.9933L19.0751 41.2014V43.5676C19.0751 45.7264 18.9973 45.9849 18.189 46.5145C16.9281 47.3407 14.7409 47.1997 12.335 46.1371C9.91651 45.069 8.3896 43.7169 6.75337 41.1946C4.14957 37.1807 4.45851 29.7627 7.35915 26.6492C8.03654 25.9221 8.2261 25.9116 20.6228 25.9116C28.6344 25.9116 33.2768 25.7862 33.4128 25.5661C33.5302 25.3761 33.4617 25.2206 33.2604 25.2206C33.0543 25.2206 32.8945 24.5041 32.8944 23.5795L32.8942 21.9385H35.3992C37.6738 21.9385 37.9041 21.8749 37.9041 21.2475C37.9041 20.6288 37.6398 20.5459 35.3758 20.4545C33.5915 20.3826 32.8885 20.23 32.9872 19.9363C33.091 19.6272 35.3433 19.5149 41.7343 19.5C47.8908 19.4857 50.5651 19.3582 51.1262 19.0522C51.5576 18.8169 52.0629 18.7185 52.249 18.8335C52.4351 18.9485 52.5874 20.4327 52.5874 22.1316V25.2206L43.1728 25.2449C37.5943 25.2592 34.0398 25.3902 34.4493 25.5661C35.4528 25.9973 57.0787 25.9973 57.0787 25.5661C57.0787 25.3761 56.2236 25.2206 55.1785 25.2206H53.2783V23.8896V22.5587L55.5668 22.5197L57.8553 22.4807L57.6904 24.1961C57.5998 25.1396 57.6456 25.9116 57.7922 25.9116C57.9388 25.9116 58.3824 26.4352 58.778 27.0752C59.4485 28.1601 59.4971 28.7442 59.4971 35.7124C59.4971 41.8579 59.4119 43.186 59.0175 43.186C58.7537 43.186 57.3156 44.4481 55.8217 45.9907C52.8188 49.0917 51.4282 50.0967 48.7123 51.129C46.5965 51.9332 42.4234 52.05 40.4926 51.3592ZM49.1606 49.5931C50.8747 48.8965 56.0422 45.2234 56.0422 44.7015C56.0422 44.3053 55.3698 44.7197 54.1026 45.897C51.1655 48.6255 47.7433 50.0924 44.2956 50.1008C42.6417 50.105 42.1865 50.2006 42.5682 50.4644C43.3601 51.0116 46.783 50.5592 49.1606 49.5931ZM39.7755 49.2642C39.158 48.6616 36.0039 46.7489 36.0039 46.9771C36.0039 47.318 39.0741 49.4047 39.5756 49.4047C39.7647 49.4047 39.8547 49.3415 39.7755 49.2642ZM46.383 47.8327C46.7501 47.3903 46.7275 47.1971 46.2525 46.7222C45.7163 46.186 45.6389 46.186 45.1027 46.7222C44.6277 47.1971 44.6051 47.3903 44.9722 47.8327C45.2167 48.1273 45.5341 48.3683 45.6776 48.3683C45.8211 48.3683 46.1385 48.1273 46.383 47.8327ZM32.6881 43.5099C31.3765 42.1625 29.9925 40.8992 29.6124 40.7025C29.2324 40.5058 30.2348 41.679 31.8399 43.3095C33.4451 44.9401 34.8291 46.2034 34.9156 46.1169C35.0021 46.0305 33.9997 44.8573 32.6881 43.5099ZM15.7929 45.2589C15.2229 45.1138 14.3678 44.9791 13.8927 44.9596C13.2148 44.9316 13.1405 44.996 13.5472 45.2589C13.8323 45.4431 14.6874 45.5778 15.4474 45.5582C16.7787 45.5239 16.7913 45.5129 15.7929 45.2589ZM12.1626 44.6543C12.1612 44.5118 11.5393 44.0407 10.7807 43.6075C10.0221 43.1743 9.40139 42.9494 9.40139 43.1077C9.40139 43.2661 9.9844 43.7336 10.697 44.1466C12.1782 45.0051 12.1662 45.001 12.1626 44.6543ZM42.5682 44.4156C42.5682 44.3318 42.4127 44.1671 42.2227 44.0497C42.0327 43.9322 41.8772 44.0008 41.8772 44.202C41.8772 44.4033 42.0327 44.5679 42.2227 44.5679C42.4127 44.5679 42.5682 44.4994 42.5682 44.4156ZM17.8466 43.5626C18.1337 43.098 17.6864 42.1495 17.1802 42.1495C16.5723 42.1495 15.8582 43.0781 16.129 43.5163C16.4033 43.9601 17.5813 43.9918 17.8466 43.5626ZM48.3454 40.385C50.1549 39.509 51.4364 37.9113 52.1134 35.6872C52.9918 32.8016 51.9672 29.0985 50.0804 28.34C48.7255 27.7952 51.5156 27.9419 53.1056 28.499L54.4875 28.9832L53.6517 28.2948C52.8663 27.6478 52.3388 27.6095 44.8874 27.6588C37.7099 27.7062 36.7949 27.7793 35.2279 28.4305C33.205 29.2712 32.2068 30.643 32.2049 32.5849C32.203 34.4901 32.6327 35.0563 35.2329 36.5749C36.5126 37.3223 38.0646 38.5622 38.6819 39.3303C39.5026 40.3516 40.1987 40.8206 41.2726 41.0759C43.3198 41.5624 46.5686 41.2451 48.3454 40.385ZM6.67967 38.1159C6.37856 37.5981 6.31114 37.5832 6.30251 38.0324C6.29129 38.6143 6.65463 39.1381 6.89949 38.8933C6.98025 38.8125 6.88132 38.4627 6.67967 38.1159ZM55.3513 35.5852C55.3513 35.3952 55.2827 35.2397 55.1989 35.2397C55.1151 35.2397 54.9505 35.3952 54.833 35.5852C54.7156 35.7753 54.7841 35.9307 54.9854 35.9307C55.1866 35.9307 55.3513 35.7752 55.3513 35.5852ZM15.5246 31.0144C17.5568 30.0657 17.5052 30.0998 17.2659 29.8606C17.1577 29.7523 16.471 29.9795 15.74 30.3655C12.9088 31.8603 12.7613 32.3045 15.5246 31.0144ZM23.414 30.5647C23.0451 30.2857 22.5787 30.0624 22.3775 30.0684C22.1763 30.0744 22.3135 30.3077 22.6823 30.5867C23.0512 30.8656 23.5176 31.0889 23.7188 31.0829C23.92 31.0769 23.7828 30.8437 23.414 30.5647ZM19.2478 29.7119C19.3652 29.5219 19.2281 29.3665 18.9431 29.3665C18.6581 29.3665 18.3288 29.5219 18.2113 29.7119C18.0939 29.902 18.231 30.0574 18.516 30.0574C18.8011 30.0574 19.1304 29.902 19.2478 29.7119ZM21.4935 29.9051C21.4935 29.8213 21.338 29.6566 21.148 29.5392C20.958 29.4218 20.8025 29.4903 20.8025 29.6915C20.8025 29.8928 20.958 30.0574 21.148 30.0574C21.338 30.0574 21.4935 29.9889 21.4935 29.9051ZM10.7977 28.8309C11.1649 28.3885 11.1422 28.1953 10.6673 27.7204C10.131 27.1841 10.0537 27.1841 9.51744 27.7204C9.04251 28.1953 9.01982 28.3885 9.38699 28.8309C9.63145 29.1254 9.94887 29.3665 10.0924 29.3665C10.2358 29.3665 10.5533 29.1254 10.7977 28.8309ZM57.8627 28.9346C58.1078 28.2321 57.7413 27.639 57.0621 27.639C56.3004 27.639 55.9099 28.1778 56.1735 28.8648C56.4092 29.4789 57.6549 29.5304 57.8627 28.9346ZM25.2755 28.5248C25.829 27.8579 25.164 26.6026 24.2574 26.6026C23.3507 26.6026 22.6858 27.8579 23.2392 28.5248C23.4657 28.7977 23.9239 29.021 24.2574 29.021C24.5909 29.021 25.049 28.7977 25.2755 28.5248ZM32.3763 28.6755C32.4938 28.4855 32.4344 28.33 32.2444 28.33C32.0544 28.33 31.8028 28.4855 31.6854 28.6755C31.5679 28.8655 31.6273 29.021 31.8173 29.021C32.0073 29.021 32.2589 28.8655 32.3763 28.6755ZM33.5855 27.9845C33.5855 27.7945 33.517 27.639 33.4332 27.639C33.3494 27.639 33.1847 27.7945 33.0673 27.9845C32.9499 28.1745 33.0184 28.33 33.2197 28.33C33.4209 28.33 33.5855 28.1745 33.5855 27.9845ZM35.313 27.7715C35.313 27.6986 35.002 27.639 34.622 27.639C34.242 27.639 33.931 27.7799 33.931 27.9522C33.931 28.1244 34.242 28.184 34.622 28.0846C35.002 27.9852 35.313 27.8443 35.313 27.7715ZM39.6316 23.8386C39.6316 23.4407 39.0424 23.2803 37.0933 23.1477C34.5109 22.9719 34.0603 23.1225 34.4136 24.0432C34.7014 24.793 39.6316 24.5997 39.6316 23.8386ZM45.6776 23.867C45.6776 23.2868 45.3724 23.1901 43.2252 23.0897C40.7302 22.973 40.2836 23.1342 40.6266 24.0279C40.7696 24.4007 41.4433 24.5296 43.2483 24.5296C45.4126 24.5296 45.6776 24.4574 45.6776 23.867ZM51.7236 23.8386C51.7236 23.4407 51.1345 23.2803 49.1853 23.1477C46.5318 22.9671 46.2265 23.0664 46.5826 23.9945C46.8859 24.7848 51.7236 24.6382 51.7236 23.8386ZM43.9141 21.7953C44.1793 21.6274 44.3008 21.2411 44.1841 20.9369C44.018 20.5041 43.4561 20.3838 41.6002 20.3838C38.9621 20.3838 38.6354 20.5273 39.1376 21.4657C39.4138 21.9816 39.8796 22.1102 41.4575 22.1059C42.5434 22.1031 43.6489 21.9632 43.9141 21.7953ZM49.9962 21.2475C49.9962 20.6294 49.732 20.5458 47.4914 20.455C45.2355 20.3636 44.9866 20.418 44.9866 21.002C44.9866 22.0196 45.3225 22.1463 47.7359 22.039C49.7324 21.9502 49.9962 21.8578 49.9962 21.2475ZM67.7024 51.2395C66.9488 51.0426 66.9124 50.2408 67.6443 49.9599C67.9449 49.8446 71.2578 49.7502 75.0063 49.7502C80.1783 49.7502 81.9753 49.8625 82.4588 50.216C83.9083 51.276 82.7472 51.4785 75.4555 51.4376C71.5238 51.4155 68.035 51.3264 67.7024 51.2395ZM68.4798 47.3318C68.4798 45.8987 68.5857 45.6044 69.1017 45.6044C70.0708 45.6044 70.5527 46.3158 70.5527 47.7464C70.5527 48.9748 70.486 49.0593 69.5162 49.0593C68.5028 49.0593 68.4798 49.0209 68.4798 47.3318ZM71.0212 48.5359C70.9107 48.248 70.8984 47.7139 70.9938 47.349C71.276 46.2701 70.3214 45.2589 69.0208 45.2589C67.6052 45.2589 66.8064 44.4716 67.4433 43.7042C67.6799 43.4192 68.3745 43.186 68.9868 43.186C70.6972 43.186 71.2437 42.3219 71.2437 39.6175V37.3127H74.5258H77.808V39.5118C77.808 42.4542 78.5903 43.5314 80.7274 43.5314C82.5767 43.5314 83.4462 44.322 82.4369 45.086C82.0762 45.359 81.1258 45.5873 80.3249 45.5934C78.6893 45.6056 78.1534 46.1997 78.1534 48.0001V49.0593H74.6877C71.9106 49.0593 71.1821 48.9553 71.0212 48.5359ZM78.4989 48.1728C78.4989 46.7227 79.1037 45.9499 80.2385 45.9499C81.2222 45.9499 81.2628 46.0116 81.2628 47.5046V49.0593H79.8809C78.6277 49.0593 78.4989 48.9767 78.4989 48.1728ZM60.5336 35.5522C60.5336 28.1889 60.506 27.8798 59.7562 26.8286C59.2394 26.1041 58.921 25.0488 58.8061 23.68C58.6548 21.8767 58.5335 21.5977 57.8292 21.4328C57.0295 21.2455 57.0309 21.24 58.0743 20.4686C59.2366 19.6093 60.184 19.4815 60.803 20.1004C61.1161 20.4136 61.3945 20.4096 62.0041 20.0833C62.5879 19.7708 65.1382 19.6859 71.6559 19.762C78.5414 19.8424 80.437 19.7726 80.1678 19.4488C79.7159 18.9051 80.0988 18.3108 80.9008 18.3108C81.6656 18.3108 82.045 19.1179 81.5248 19.6381C81.255 19.9078 81.5051 19.9555 82.4155 19.8077C83.6314 19.6104 83.6812 19.6422 83.6812 20.6139C83.6812 21.8412 85.9013 24.1841 87.0643 24.1841C87.8219 24.1841 87.8271 24.2249 87.8271 30.2243V36.2645L78.9319 36.3567L70.0366 36.4489L70.141 37.6592C70.2407 38.814 70.1117 38.9686 67.3315 41.0277C64.5695 43.0734 64.3164 43.1859 62.4756 43.1859H60.5336V35.5522ZM67.127 40.1984C68.9983 38.7282 69.1708 38.4789 69.1708 37.2444V35.8961L66.2231 38.3783C64.6018 39.7436 63.3544 40.9396 63.451 41.0362C63.5476 41.1328 64.6019 40.3623 65.7941 39.3241C68.5809 36.897 68.8253 36.7588 68.8253 37.6098C68.8253 38.026 68.0486 38.9184 66.8387 39.8924C65.1662 41.2388 64.6747 41.4651 63.7293 41.324C63.1118 41.2319 62.6065 41.3022 62.6065 41.4803C62.6065 41.6583 63.1638 41.804 63.8449 41.804C64.7949 41.804 65.5591 41.4302 67.127 40.1984ZM65.0329 38.09C66.7082 36.6174 68.0803 35.3348 68.0821 35.2397C68.0862 35.0211 62.3145 29.9247 61.8872 29.7695C61.703 29.7027 61.57 31.9842 61.57 35.211C61.57 38.2671 61.6638 40.7676 61.7784 40.7676C61.8931 40.7676 63.3576 39.5627 65.0329 38.09ZM61.9155 35.233C61.9155 29.6294 61.5249 29.873 65.2791 33.1358C67.7405 35.2751 67.8124 34.9198 64.2856 38.0465L61.9155 40.1477V35.233ZM73.1222 33.3199C74.1792 32.074 75.044 30.9427 75.044 30.8059C75.044 30.6691 73.9558 29.4772 72.6256 28.1572L70.2072 25.7574V30.441C70.2072 36.595 70.2815 36.6684 73.1222 33.3199ZM70.6374 30.9388L70.7254 26.9834L72.5393 28.7677C73.5368 29.7491 74.3531 30.688 74.3531 30.8542C74.3531 31.281 71.2241 34.8943 70.8546 34.8943C70.6867 34.8943 70.589 33.1143 70.6374 30.9388ZM79.0982 35.3037C79.3964 35.1143 78.9557 34.4709 77.6326 33.1643C76.499 32.0447 75.6246 31.4284 75.4513 31.6266C73.5548 33.7968 72.6514 35.1944 73.0433 35.3517C73.7597 35.6392 78.6308 35.6006 79.0982 35.3037ZM76.1669 34.9655C74.7893 34.9097 73.6667 34.7542 73.6722 34.62C73.6779 34.4858 74.1581 33.8528 74.7395 33.2132L75.7967 32.0504L77.2289 33.386C78.0166 34.1205 78.7282 34.7604 78.8103 34.8079C79.1764 35.0197 78.5003 35.0601 76.1669 34.9655ZM82.2231 30.5748C82.2761 27.9451 82.1786 25.6527 82.0064 25.4805C81.7175 25.1916 76.7859 30.3902 76.7613 31.0097C76.7443 31.4369 81.4094 35.5733 81.7811 35.4606C81.9835 35.3992 82.1665 33.3758 82.2231 30.5748ZM79.2843 33.0805L77.153 30.9212L79.3671 28.5027L81.5811 26.0843L81.5947 30.662C81.6022 33.1798 81.5649 35.2397 81.5119 35.2397C81.4589 35.2397 80.4565 34.2681 79.2843 33.0805ZM84.6855 34.2897C84.9039 33.7671 85.542 32.5622 86.1035 31.6121L87.1243 29.8847L87.1309 32.3686L87.1375 34.8526L85.8419 34.9881L84.5464 35.1236L86.0147 35.1817L87.483 35.2398V32.0563C87.483 29.3289 87.4143 28.9454 87.0038 29.3788C86.2067 30.2202 83.5956 35.2398 83.955 35.2398C84.1391 35.2398 84.4671 34.8122 84.6855 34.2897ZM69.3394 33.9442C69.2757 33.6116 69.2117 31.5905 69.1972 29.4528L69.1708 25.5661H66.6497C64.1625 25.5661 64.1105 25.5847 62.7754 26.952L61.4221 28.3378L62.784 29.4568C63.533 30.0722 65.1598 31.4632 66.3992 32.548C68.7395 34.5965 69.5367 34.9751 69.3394 33.9442ZM66.7467 32.1956C65.6985 31.3046 64.2277 30.0726 63.4783 29.4578L62.1157 28.34L63.2926 27.1258C64.3934 25.99 64.6102 25.9116 66.6474 25.9116H68.8253V29.8847C68.8253 32.0699 68.7864 33.8483 68.7389 33.8367C68.6914 33.825 67.7949 33.0866 66.7467 32.1956ZM85.7765 30.1822C86.8517 28.4091 87.4816 26.9732 87.4816 26.2955V25.2206H85.2359H82.9903L83.0012 29.7983C83.0138 35.0346 82.848 35.0117 85.7765 30.1822ZM83.3358 29.3868V25.9116H85.2359C86.777 25.9116 87.1361 26.0201 87.1361 26.4858C87.1361 27.0961 84.177 32.3422 83.6485 32.6688C83.4697 32.7793 83.3358 31.3731 83.3358 29.3868ZM77.8079 28.071C78.8531 26.8139 79.76 25.6584 79.8233 25.503C79.8866 25.3477 77.9044 25.2206 75.4183 25.2206C72.9323 25.2206 70.8943 25.3372 70.8896 25.4797C70.881 25.7455 75.4238 30.2984 75.735 30.3357C75.83 30.347 76.7628 29.328 77.8079 28.071ZM73.7442 27.7864C72.7489 26.9158 71.9347 26.0601 71.9347 25.8848C71.9347 25.7095 73.5872 25.5661 75.6071 25.5661H79.2795L77.7383 27.3605C76.8906 28.3474 76.0523 29.2031 75.8754 29.2621C75.6984 29.3211 74.7394 28.657 73.7442 27.7864ZM84.3722 23.8922C84.3722 23.7316 84.07 23.3268 83.7007 22.9926C83.3314 22.6583 82.9816 22.0126 82.9234 21.5575L82.8175 20.7301L73.8348 20.5484C64.0004 20.3494 63.2177 20.4669 63.0186 22.1722C62.9448 22.8047 63.1518 23.2485 63.7001 23.6325C64.3771 24.1067 65.8839 24.1841 74.4299 24.1841C79.8982 24.1841 84.3722 24.0528 84.3722 23.8922ZM63.8404 22.9503C63.1697 22.2795 63.1588 21.9654 63.7884 21.4429C64.143 21.1486 66.8291 21.0544 73.462 21.1034L82.6448 21.1714V22.1307C82.6448 22.6584 82.8391 23.1685 83.0766 23.2644C83.3142 23.3602 79.2053 23.4509 73.9459 23.4659C65.6889 23.4895 64.3092 23.419 63.8404 22.9503ZM68.4798 42.0003C68.4798 41.4611 68.8511 40.8957 69.5162 40.4221L70.5527 39.684V40.8477C70.5527 42.1398 70.0425 42.8405 69.1017 42.8405C68.6733 42.8405 68.4798 42.579 68.4798 42.0003ZM78.6939 41.9621C78.297 41.3564 78.1506 40.5253 78.2223 39.2846L78.3262 37.4854L82.5584 37.3884C86.537 37.2972 86.7906 37.3312 86.7906 37.9556C86.7906 38.371 86.4758 38.6987 85.9498 38.8307C85.4874 38.9468 84.7822 39.5008 84.3827 40.0618C83.5715 41.2011 82.9277 41.145 82.3535 39.8848C81.7147 38.4828 81.2628 38.9201 81.2628 40.9403C81.2628 42.8044 81.2439 42.8405 80.2661 42.8405C79.5797 42.8405 79.0902 42.567 78.6939 41.9621ZM90.9365 40.5948C89.9978 39.6384 89.1026 39.0401 88.61 39.0401C87.8211 39.0401 87.8177 39.0239 88.379 37.9384C88.8831 36.9637 88.9319 35.5607 88.8027 25.76C88.6802 16.4692 88.5669 14.5036 88.0998 13.5689L87.543 12.4546L89.6716 12.6324C96.1324 13.1723 96.1164 13.1695 96.4792 13.8473C96.8123 14.4698 96.6955 14.5105 94.5763 14.5105H92.3184L92.3737 15.8061C92.4264 17.0426 92.4352 17.0517 92.5663 16.0058L92.7036 14.91L94.6703 15.1034C95.752 15.2098 96.7147 15.366 96.8097 15.4505C96.9048 15.535 97.0373 18.1565 97.1043 21.2761C97.2032 25.8751 97.1377 26.947 96.7588 26.9427C96.1424 26.9358 95.0929 26.2696 95.6869 26.2624C95.9244 26.2595 96.1187 26.1016 96.1187 25.9116C96.1187 25.7216 95.8855 25.5661 95.6005 25.5661C94.7239 25.5661 94.9973 26.9328 95.946 27.2935C97.138 27.7467 97.0293 28.33 95.7529 28.33C95.1363 28.33 94.7849 28.4739 94.9095 28.6755C95.0269 28.8655 95.5803 29.021 96.1391 29.021H97.1552L97.1309 32.9077C97.1153 35.401 97.0002 36.5467 96.8097 36.1035C96.5715 35.5492 96.508 35.6688 96.4885 36.7081C96.4659 37.9119 96.3908 38.0036 95.4277 38.0036C94.8577 38.0036 94.3913 37.874 94.3913 37.7156C94.3913 37.5572 93.7933 36.7799 93.0624 35.9882C92.1453 34.9948 91.4495 34.5488 90.8167 34.5488C89.912 34.5488 89.9 34.517 89.9 32.1304C89.9 30.8002 89.7833 29.7121 89.6408 29.7124C89.4983 29.7126 89.3817 30.9175 89.3817 32.3899V35.067L90.6487 35.2397C91.6216 35.3724 92.2563 35.8007 93.3828 37.0845C94.6126 38.486 95.0084 38.7332 95.8298 38.6126C96.6715 38.4891 96.8097 38.5846 96.8097 39.2898C96.8097 39.7414 96.5725 40.5696 96.2826 41.1302C95.8107 42.0426 95.5829 42.1495 94.1089 42.1495C92.6137 42.1495 92.322 42.0065 90.9365 40.5948ZM90.9365 28.6755C90.9365 28.4855 90.6151 28.33 90.2222 28.33C89.6652 28.33 89.5562 28.1779 89.7273 27.639C89.8531 27.2426 89.7894 26.948 89.5778 26.948C89.1763 26.948 89.0659 28.4172 89.4394 28.7906C89.7978 29.149 90.9365 29.0614 90.9365 28.6755ZM93.9635 28.4381C93.6332 28.3516 93.0113 28.3485 92.5816 28.4311C92.1518 28.5138 92.4221 28.5845 93.1822 28.5884C93.9422 28.5921 94.2938 28.5246 93.9635 28.4381ZM92.0593 26.7042C91.6318 26.6219 91.282 26.4098 91.282 26.233C91.282 26.0562 91.1314 25.9116 90.9473 25.9116C90.7633 25.9116 90.7022 26.1448 90.8115 26.4298C90.9265 26.7292 91.396 26.9282 91.9235 26.901C92.7374 26.859 92.7522 26.8377 92.0593 26.7042ZM91.5584 25.1515C91.7864 24.9235 91.9729 24.6014 91.9729 24.4359C91.9729 24.2703 91.7286 24.3791 91.43 24.6777C90.4915 25.6162 89.6154 25.3585 89.459 24.0978C89.3218 22.9923 89.3188 22.9949 89.2643 24.2705C89.213 25.4723 89.279 25.5661 90.1764 25.5661C90.7085 25.5661 91.3303 25.3795 91.5584 25.1515ZM94.3396 24.2705C94.2979 23.2284 94.2597 23.1608 94.1439 23.925C93.9698 25.0745 93.2537 25.1626 92.7401 24.0978C92.3659 23.3219 92.3652 23.3221 92.3418 24.2129C92.3131 25.3095 92.5489 25.5661 93.5852 25.5661C94.2956 25.5661 94.3852 25.4123 94.3396 24.2705ZM96.9815 41.5449C97.6843 39.8154 97.7681 38.3036 97.6921 28.7163C97.6468 22.9933 97.7234 18.3109 97.8623 18.3109C98.0013 18.3109 98.0933 18.0447 98.067 17.7195C97.991 16.7833 99.1463 16.7531 99.3427 17.6861C99.4625 18.2554 99.4949 18.1879 99.4557 17.4501C99.3993 16.3861 98.3439 15.7783 97.8737 16.539C97.7482 16.7421 97.4898 16.0577 97.2994 15.0183C96.9697 13.2187 96.9878 13.1285 97.6792 13.1285C99.0086 13.1285 99.5988 13.9111 99.8905 16.0608C100.081 17.4636 100.024 18.7141 99.7107 20.0244C99.3929 21.3529 99.249 24.7046 99.2405 30.981L99.2288 40.0236L98.3344 41.0865C97.3558 42.2496 96.5898 42.509 96.9815 41.5449ZM98.6005 35.8559C98.3526 35.608 98.1917 35.5876 98.1917 35.804C98.1917 36.2652 98.6003 36.6738 98.8309 36.4432C98.9291 36.345 98.8256 36.0807 98.6005 35.8559ZM98.7459 33.6059C98.3947 33.2547 98.105 33.7834 98.3931 34.2497C98.6108 34.6018 98.6922 34.6021 98.8092 34.2511C98.8892 34.011 98.8607 33.7207 98.7459 33.6059ZM98.8827 31.4394C98.8827 31.2494 98.718 31.0939 98.5168 31.0939C98.3156 31.0939 98.247 31.2494 98.3645 31.4394C98.4818 31.6294 98.6465 31.7849 98.7303 31.7849C98.8142 31.7849 98.8827 31.6294 98.8827 31.4394ZM98.6005 28.9461C98.3526 28.6982 98.1917 28.6778 98.1917 28.8943C98.1917 29.3554 98.6003 29.764 98.8309 29.5334C98.9291 29.4353 98.8256 29.171 98.6005 28.9461ZM98.6005 26.5277C98.3526 26.2798 98.1917 26.2594 98.1917 26.4759C98.1917 26.937 98.6003 27.3456 98.8309 27.115C98.9291 27.0169 98.8256 26.7526 98.6005 26.5277ZM98.7459 24.2777C98.3947 23.9265 98.105 24.4553 98.3931 24.9215C98.6108 25.2737 98.6922 25.274 98.8092 24.9229C98.8892 24.6829 98.8607 24.3925 98.7459 24.2777ZM98.7459 21.5138C98.3947 21.1626 98.105 21.6914 98.3931 22.1576C98.6108 22.5098 98.6922 22.5101 98.8092 22.159C98.8892 21.919 98.8607 21.6286 98.7459 21.5138ZM99.3589 19.6064C99.5486 18.8156 99.4733 18.6563 98.9097 18.6563C98.5372 18.6563 98.1375 18.81 98.0214 18.9979C97.9004 19.1937 98.0391 19.2516 98.3465 19.1336C98.7517 18.9782 98.8827 19.1621 98.8827 19.8862C98.8827 21.016 99.0434 20.9216 99.3589 19.6064ZM99.2282 15.0657C99.2282 14.1585 98.2848 13.5883 97.7194 14.1537C97.4739 14.3991 97.5999 14.5105 98.1226 14.5105C98.6524 14.5105 98.8827 14.7199 98.8827 15.2015C98.8827 15.5815 98.9604 15.8924 99.0554 15.8924C99.1505 15.8924 99.2282 15.5204 99.2282 15.0657ZM22.1844 39.5403C22.1844 39.1112 22.5417 39.0249 23.9711 39.1084C26.5301 39.258 26.6504 40.0766 24.1134 40.0766C22.6002 40.0766 22.1844 39.961 22.1844 39.5403ZM21.6691 35.9134C21.8132 35.061 21.7438 34.1166 21.4925 33.5101C20.9155 32.117 21.1521 31.6535 22.1011 32.3181C22.7289 32.7579 22.809 32.9908 22.519 33.5327C22.0105 34.4829 22.6723 35.5852 23.7513 35.5852C24.9062 35.5852 24.9785 36.9548 23.8255 36.9929C23.398 37.007 22.6845 37.0858 22.24 37.1681C21.4716 37.3104 21.4435 37.2487 21.6691 35.9134ZM9.63172 24.9903C9.26409 24.6226 9.3657 20.1011 9.74688 19.8655C9.96628 19.7299 10.0924 20.6681 10.0924 22.4363C10.0924 25.2286 10.0584 25.4169 9.63172 24.9903ZM10.4379 22.284V19.3473H13.3745H16.3111V22.284V25.2206H13.3745H10.4379V22.284ZM14.3863 23.6412C15.2088 22.8187 15.0586 21.5209 14.0655 20.8702C13.2654 20.346 13.1381 20.346 12.338 20.8702C11.342 21.5229 11.2204 22.64 12.0461 23.5523C12.7478 24.3277 13.6649 24.3626 14.3863 23.6412ZM12.1836 22.997C11.878 22.6287 11.8702 22.3171 12.1535 21.7878C12.8889 20.4136 14.8891 21.2956 14.4162 22.7856C14.1522 23.6175 12.8045 23.7451 12.1836 22.997ZM13.827 22.1976C13.7629 21.865 13.4816 21.593 13.2018 21.593C12.9219 21.593 12.6406 21.865 12.5766 22.1976C12.4949 22.6218 12.6814 22.8022 13.2018 22.8022C13.7221 22.8022 13.9087 22.6218 13.827 22.1976ZM18.3841 22.2839C18.3841 19.3819 18.3942 19.3473 19.2478 19.3473C20.1013 19.3473 20.1115 19.3819 20.1115 22.2839C20.1115 25.186 20.1013 25.2206 19.2478 25.2206C18.3942 25.2206 18.3841 25.186 18.3841 22.2839ZM22.1844 22.2839C22.1844 19.3819 22.1946 19.3473 23.0482 19.3473C23.9017 19.3473 23.9119 19.3819 23.9119 22.2839C23.9119 25.186 23.9017 25.2206 23.0482 25.2206C22.1946 25.2206 22.1844 25.186 22.1844 22.2839ZM25.9848 22.2839V19.3473H28.7487H31.5126V22.284V25.2206H28.7487H25.9848V22.2839ZM29.8436 23.7523C30.823 22.9632 30.8651 22.1233 29.9701 21.2283C28.9457 20.2039 28.6062 20.1808 27.7122 21.0747C26.8061 21.9809 26.836 22.9787 27.7891 23.6463C28.7182 24.297 29.1405 24.3188 29.8436 23.7523ZM27.7378 22.8499C27.2953 22.0231 28.0224 20.9498 28.9073 21.1235C29.7266 21.2845 30.2993 22.21 30.0237 22.928C29.7269 23.7015 28.165 23.6482 27.7378 22.8499ZM29.3739 22.1976C29.3099 21.865 29.0285 21.593 28.7487 21.593C28.4689 21.593 28.1875 21.865 28.1235 22.1976C28.0418 22.6218 28.2284 22.8022 28.7487 22.8022C29.2691 22.8022 29.4556 22.6218 29.3739 22.1976ZM32.1295 23.407C32.3073 20.1405 32.4446 19.8179 32.4973 22.5431C32.5258 24.0157 32.4325 25.2207 32.29 25.2208C32.1474 25.2209 32.0753 24.4047 32.1295 23.407ZM16.7899 22.3703C16.8211 20.3917 16.9382 19.8655 17.3476 19.8655C17.7513 19.8655 17.8883 20.4193 17.9673 22.3703C18.0593 24.64 18.007 24.8751 17.4096 24.8751C16.818 24.8751 16.7545 24.6183 16.7899 22.3703ZM20.5282 22.3703C20.6073 20.4193 20.7443 19.8655 21.148 19.8655C21.5516 19.8655 21.6886 20.4193 21.7677 22.3703C21.8626 24.7122 21.8223 24.8751 21.148 24.8751C20.4736 24.8751 20.4333 24.7122 20.5282 22.3703ZM24.3286 22.3703C24.4023 20.5507 24.5574 19.8655 24.8955 19.8655C25.2381 19.8655 25.3749 20.5267 25.4138 22.3705C25.4601 24.5688 25.3907 24.8754 24.8468 24.8753C24.2985 24.8751 24.2388 24.5865 24.3286 22.3703ZM4.35664 23.3533C4.2542 23.0864 4.22022 22.3479 4.28111 21.7122L4.39183 20.5565H6.6375H8.88317L8.98847 22.1976L9.09376 23.8386H6.81832C5.18295 23.8386 4.49049 23.7021 4.35664 23.3533ZM85.4765 22.6994C84.4314 21.6211 84.3722 21.4195 84.3722 18.936C84.3722 16.0466 84.4874 15.8924 86.6461 15.8924H87.8271V19.8655C87.8271 23.4643 87.7683 23.8386 87.2039 23.8386C86.8611 23.8386 86.0838 23.326 85.4765 22.6994ZM87.1361 21.593C87.4792 21.1795 87.4792 20.97 87.1361 20.5565C86.2728 19.5162 85.0421 20.3122 85.5336 21.593C85.643 21.878 85.9515 22.1112 86.2193 22.1112C86.487 22.1112 86.8996 21.878 87.1361 21.593ZM53.3101 20.8156C53.3367 20.1031 53.2524 19.2 53.1227 18.8089C52.9282 18.2225 53.2419 17.8487 54.9106 16.6782C56.0236 15.8974 57.6928 14.6318 58.62 13.8656L60.3058 12.4726L65.1701 12.3687C68.1379 12.3053 70.1334 12.3995 70.2883 12.6103C70.4279 12.8003 70.5445 13.5388 70.5474 14.2514L70.5527 15.5469H64.0639H57.5752L55.5239 17.6199C54.3957 18.76 53.6297 19.6928 53.8217 19.6928C54.0137 19.6928 54.8575 18.9932 55.6967 18.1381C56.5359 17.283 57.3168 16.5834 57.432 16.5834C57.607 16.5834 58.806 18.8043 58.806 19.1285C58.806 19.1852 58.1769 19.7372 57.408 20.3551C56.052 21.4448 55.9836 21.4613 55.1324 20.9036C54.6497 20.5873 54.1754 20.4079 54.0783 20.505C53.9813 20.602 54.228 20.885 54.6265 21.1339C55.6415 21.7678 55.529 22.1112 54.3064 22.1112C53.3207 22.1112 53.2644 22.0378 53.3101 20.8156ZM60.6594 19.5224C60.5397 19.2105 60.6075 18.7897 60.81 18.5872C61.3363 18.0609 62.3337 18.542 62.1962 19.2559C62.043 20.0512 60.936 20.2431 60.6594 19.5224ZM7.48977 18.9833C7.06472 18.2956 8.84562 16.9991 10.5178 16.7791C11.3289 16.6723 17.4796 16.1904 24.1859 15.7081L36.3793 14.8313L40.727 16.3983C43.1182 17.2602 45.3178 17.9654 45.6149 17.9654C46.0457 17.9654 46.0193 18.0681 45.4845 18.4726C44.4854 19.2283 37.3039 19.2174 36.6747 18.4592C36.3055 18.0143 35.7225 17.9534 33.4366 18.121C31.9034 18.2333 27.9282 18.3911 24.6028 18.4715C12.1621 18.7725 10.2345 18.8546 9.01345 19.1355C8.11239 19.3428 7.6856 19.3002 7.48977 18.9833ZM46.3686 18.8397C46.3686 18.7506 48.2279 17.2736 50.5003 15.5576L54.6321 12.4376H56.9122C58.2076 12.4376 59.1078 12.5745 58.9965 12.7545C58.6421 13.3279 53.5552 17.0266 51.7575 18.018C50.464 18.7313 49.5144 18.991 48.1824 18.9956C47.1848 18.9991 46.3686 18.9289 46.3686 18.8397ZM59.3767 18.5646C59.0521 18.3272 58.752 17.6677 58.7099 17.0991L58.6334 16.0652L71.3687 15.9745C82.9045 15.8924 84.084 15.9357 83.8926 16.4346C83.7764 16.7376 83.6812 17.4391 83.6812 17.9936C83.6812 18.7496 83.5189 19.0018 83.0326 19.0018C82.6758 19.0018 82.1903 18.7686 81.9538 18.4836C81.7172 18.1986 81.2508 17.9654 80.9173 17.9654C80.5838 17.9654 80.1174 18.1986 79.8809 18.4836C79.5202 18.9182 78.0982 19.0018 71.0709 19.0018C64.0437 19.0018 62.6217 18.9182 62.261 18.4836C61.7178 17.8291 61.2576 17.8283 60.5366 18.4808C60.0738 18.8997 59.8565 18.9154 59.3767 18.5646ZM3.23237 15.2838L0 12.2648L0.00352588 9.32817L0.00705131 6.39152L5.48154 4.42052L10.956 2.44951L32.8657 2.52033C49.3617 2.57366 54.8091 2.69207 54.9115 2.99956C54.9938 3.24636 54.595 3.45143 53.9038 3.51779C53.1663 3.58862 52.76 3.81167 52.76 4.14585C52.76 4.52241 53.185 4.67759 54.3147 4.71347L55.8694 4.76285L54.4875 4.52763L53.1055 4.29241L54.4246 4.11302C55.4619 3.97195 55.8151 4.06701 56.0778 4.55797C56.3492 5.06504 56.2799 5.18232 55.7088 5.18232C54.7648 5.18232 54.8197 5.5128 56.0443 7.20341C56.7719 8.20781 57.3349 8.63719 57.9241 8.63719C58.3868 8.63719 58.8614 8.79266 58.9788 8.98268C59.108 9.19172 58.6285 9.32817 57.7647 9.32817C56.6186 9.32817 56.359 9.44158 56.4487 9.90311C56.534 10.3424 56.9664 10.485 58.2817 10.5077C59.6314 10.531 60.0285 10.6679 60.1209 11.142C60.2253 11.6777 59.9201 11.7466 57.4423 11.7466H54.646L50.68 14.6812C48.4987 16.2952 46.7186 17.5001 46.7242 17.3587C46.7299 17.2173 47.8356 16.3243 49.1816 15.3742C50.5275 14.4241 52.1609 13.1804 52.8113 12.6103L53.9938 11.5738L51.4767 7.68807C50.0924 5.55089 48.8435 3.80186 48.7015 3.80133C48.5596 3.80081 47.8206 4.36309 47.0593 5.05087C45.9231 6.07734 45.5838 6.22558 45.1653 5.87831C44.8004 5.57541 44.7496 5.2796 44.9866 4.83683C45.3515 4.15497 44.6001 3.22591 43.9891 3.60352C43.8039 3.71798 43.5547 3.65363 43.4353 3.46051C43.2941 3.23197 38.3045 3.10939 29.1431 3.10939H15.0679L15.1996 4.23223L15.3313 5.35506H25.9267C37.574 5.35506 38.0769 5.43338 38.0769 7.24738C38.0769 8.0816 37.5509 8.70848 34.9708 10.9492C33.2625 12.4329 31.8631 13.7245 31.861 13.8195C31.8589 13.9145 32.7197 13.9386 33.774 13.873C35.6644 13.7553 35.7386 13.709 39.1664 10.5045C41.7458 8.09311 42.8776 7.25581 43.5552 7.25747C44.4171 7.25956 44.372 7.34206 42.753 8.72579C41.8096 9.53214 40.0217 11.0808 38.7799 12.1671C37.0601 13.6718 36.1929 14.1842 35.1402 14.318C32.2451 14.6859 9.66678 16.273 9.51321 16.1194C9.22176 15.828 11.1991 15.5927 19.2478 14.9612L27.194 14.3377L17.6184 14.2459L8.04278 14.1541L6.82191 12.5552C5.6012 10.9564 5.21625 9.08731 5.88932 8.02693C6.24362 7.46875 11.4718 5.25753 12.1826 5.36523C12.5767 5.42494 12.7181 5.13786 12.7181 4.27787C12.7181 3.39879 12.5695 3.10938 12.1181 3.10938C11.5693 3.10938 3.23955 6.04667 2.94059 6.34563C2.86946 6.41676 2.99541 6.87912 3.22048 7.3731C3.77292 8.58557 3.0912 9.44387 1.73395 9.24467C0.82404 9.11112 0.764203 9.17931 0.764203 10.3499C0.764203 11.4051 1.04388 11.8639 2.57801 13.3257C5.90534 16.4962 5.8826 16.4829 6.49434 15.6095C7.31602 14.4364 9.05591 14.8188 9.05591 16.1725C9.05591 16.4838 8.8257 16.3756 8.41874 15.8731C8.0111 15.3697 7.57552 15.1653 7.20954 15.3057C6.49128 15.5814 6.45959 16.8823 7.16454 17.1528C7.57097 17.3088 7.60082 17.4644 7.29498 17.8329C7.07684 18.0958 6.8008 18.309 6.68155 18.3068C6.56231 18.3045 5.01018 16.9442 3.23237 15.2838ZM34.2589 10.6414C38.9005 6.49108 39.0874 6.56427 23.8458 6.56427H11.4804L9.09088 7.63271C7.50073 8.34372 6.63908 8.93932 6.51518 9.41308C6.34237 10.0739 6.95349 11.6867 7.75944 12.6967C8.02292 13.0269 10.8555 13.1285 19.7907 13.1285H31.4774L34.2589 10.6414ZM8.3606 12.2596C7.51678 11.2429 8.45659 11.0326 13.4019 11.1318C17.9488 11.2231 18.2113 11.2661 18.2113 11.9193C18.2113 12.5717 17.9491 12.6156 13.511 12.7061C9.58147 12.7862 8.73686 12.713 8.3606 12.2596ZM18.7296 12.0921C18.7296 11.5546 18.9599 11.4011 19.766 11.4011C20.5722 11.4011 20.8025 11.5546 20.8025 12.0921C20.8025 12.6295 20.5722 12.783 19.766 12.783C18.9599 12.783 18.7296 12.6295 18.7296 12.0921ZM21.4935 12.0921C21.4935 11.4296 21.7238 11.4011 27.0679 11.4011H32.6423L31.7638 12.0921C30.9832 12.7061 30.3622 12.783 26.1894 12.783C21.7238 12.783 21.4935 12.7492 21.4935 12.0921ZM2.83713 8.46445C3.18026 8.051 3.18026 7.84144 2.83713 7.42799C1.97377 6.3877 0.743138 7.18365 1.23463 8.46445C1.344 8.74948 1.65254 8.98268 1.92026 8.98268C2.18799 8.98268 2.60058 8.74948 2.83713 8.46445ZM1.6855 8.40687C1.28797 8.00934 1.43391 7.60073 1.97341 7.60073C2.25844 7.60073 2.49164 7.83393 2.49164 8.11896C2.49164 8.65846 2.08303 8.8044 1.6855 8.40687ZM14.7565 4.48661C14.7565 3.87426 14.5459 3.59758 14.0231 3.52298C13.145 3.3977 12.6633 4.36083 13.2504 5.06818C13.8698 5.81457 14.7565 5.4722 14.7565 4.48661ZM13.5472 4.28981C13.5472 3.6797 14.291 3.78595 14.5045 4.42656C14.5797 4.65221 14.3951 4.83683 14.0943 4.83683C13.7934 4.83683 13.5472 4.59067 13.5472 4.28981ZM44.767 16.7585C44.6473 16.4466 44.715 16.0258 44.9175 15.8233C45.4439 15.2969 46.4413 15.7781 46.3038 16.492C46.1506 17.2873 45.0435 17.4792 44.767 16.7585ZM46.0231 16.4107C46.0231 16.1256 45.7899 15.8924 45.5049 15.8924C45.2198 15.8924 44.9866 16.1256 44.9866 16.4107C44.9866 16.6957 45.2198 16.9289 45.5049 16.9289C45.7899 16.9289 46.0231 16.6957 46.0231 16.4107ZM40.8408 15.6675C39.2256 15.0513 37.7769 14.4965 37.6215 14.4346C37.3909 14.3428 45.2131 7.2746 47.9274 5.12206C48.6422 4.55515 48.7044 4.6139 51.0332 8.05871C52.3403 9.99203 53.1555 11.3676 52.8448 11.1155C51.5977 10.1035 49.5661 11.4047 50.3796 12.6943C50.701 13.2038 50.4916 13.4964 49.0199 14.5945C47.0527 16.0622 46.9618 16.0889 46.3686 15.3742C45.7214 14.5944 45.0443 14.7466 44.3769 15.8219L43.7774 16.7878L40.8408 15.6675ZM7.06216 16.1731C7.27569 15.5325 8.01944 15.4263 8.01944 16.0364C8.01944 16.3372 7.77328 16.5834 7.47242 16.5834C7.17156 16.5834 6.98694 16.3988 7.06216 16.1731ZM3.25901 13.3784C1.93698 12.0445 1.10969 10.9183 1.10969 10.4526C1.10969 9.91969 1.26403 9.75457 1.63059 9.89523C1.91708 10.0052 2.54989 9.83407 3.03683 9.51502C3.76518 9.03778 3.90255 8.71164 3.81151 7.67579L3.70085 6.41666L7.15573 5.1293C9.05591 4.42126 10.9604 3.83259 11.3879 3.82116C13.0397 3.77698 12.0371 4.71346 9.26798 5.80125C7.67584 6.42668 6.08637 7.25532 5.73584 7.64265C4.7106 8.77552 4.91246 10.6377 6.26459 12.5205L7.43068 14.1442L6.60223 14.8341C6.14658 15.2135 5.69155 15.5291 5.59105 15.5355C5.49054 15.5417 4.44113 14.5711 3.25901 13.3784ZM71.2437 15.0719C71.2437 14.8106 71.1483 14.1199 71.0317 13.5369L70.8197 12.477L75.4367 12.3709C78.2424 12.3065 80.1532 12.4004 80.3074 12.6103C80.447 12.8003 80.5637 13.5388 80.5666 14.2514L80.5718 15.547H75.9078C72.1807 15.547 71.2437 15.4515 71.2437 15.0719ZM81.2581 14.9423C81.2553 14.6098 81.1596 13.9879 81.0451 13.5604C80.8403 12.7962 80.8896 12.783 83.9632 12.783C87.3441 12.783 87.0417 12.6143 87.6776 14.856C87.8639 15.5125 87.7087 15.5469 84.5682 15.5469C81.6524 15.5469 81.2623 15.4757 81.2581 14.9423ZM8.9005 14.884C8.73948 14.6235 10.0519 14.5105 13.2389 14.5105C15.7521 14.5105 17.7435 14.569 17.6643 14.6406C17.5851 14.7122 15.6328 14.8803 13.3259 15.0142C10.4448 15.1813 9.05908 15.1406 8.9005 14.884ZM33.0846 13.1959C38.6305 8.49696 39.1223 7.87481 38.3851 6.49094C37.5223 4.87134 37.4353 4.8594 26.4167 4.84781C17.3621 4.83829 15.9657 4.76759 15.9657 4.31859C15.9657 3.86661 17.727 3.80036 29.7449 3.80036H43.5241L43.6892 4.66408C43.8507 5.50874 43.8078 5.52792 41.743 5.53309C40.5817 5.53597 39.4146 5.67578 39.1494 5.84371C38.2751 6.3973 39.0026 7.20807 40.4749 7.32083L41.874 7.42798L38.5859 10.451C35.6965 13.1074 35.1437 13.474 34.0271 13.474C33.3282 13.474 32.9041 13.3489 33.0846 13.1959ZM50.7187 12.4885C50.3323 11.8634 50.9297 11.0165 51.6812 11.1237C52.6865 11.2671 52.6772 12.5729 51.6699 12.7164C51.2603 12.7748 50.8322 12.6722 50.7187 12.4885ZM52.2419 12.1125C52.2419 11.6459 51.6121 11.3225 51.1998 11.5773C51.0066 11.6967 50.9381 11.9391 51.0474 12.1159C51.3068 12.5356 52.2419 12.5329 52.2419 12.1125ZM57.3378 9.77532C57.7654 9.69298 58.465 9.69298 58.8925 9.77532C59.32 9.85766 58.9702 9.92504 58.1152 9.92504C57.2601 9.92504 56.9103 9.85767 57.3378 9.77532ZM56.6086 7.11495C55.6606 5.872 55.5174 5.52484 55.9559 5.53208C56.2875 5.53756 57.8685 7.9626 57.6698 8.16123C57.5877 8.24333 57.1102 7.77251 56.6086 7.11495ZM39.2897 6.57013C39.1686 6.3742 39.2883 6.12996 39.5556 6.02737C40.3904 5.70705 45.1652 6.02202 45.0757 6.39152C44.9621 6.86071 39.5721 7.0271 39.2897 6.57013ZM11.9972 1.73492C11.8626 1.51723 16.8665 1.36351 26.0554 1.30306C42.8409 1.19264 48.4415 1.30404 48.4415 1.74835C48.4415 2.19812 12.2752 2.1848 11.9972 1.73492ZM12.405 0.81553C11.816 0.226481 12.8584 0 16.1588 0C19.1349 0 19.766 0.0906729 19.766 0.518231C19.766 0.945447 19.139 1.03646 16.196 1.03646C14.2325 1.03646 12.5265 0.937042 12.405 0.81553ZM22.2604 0.629253C22.3429 0.378172 22.9203 0.122784 23.5436 0.0617218C24.3619 -0.0184407 24.6352 0.077576 24.5269 0.407209C24.4444 0.65829 23.8669 0.913678 23.2437 0.97474C22.4254 1.0549 22.1521 0.958885 22.2604 0.629253ZM27.0213 0.690978C27.0213 0.482467 28.4676 0.345491 30.6693 0.345491C33.0133 0.345491 34.241 0.468978 34.1038 0.690978C33.8205 1.14933 27.0213 1.14933 27.0213 0.690978ZM36.5222 0.690978C36.6396 0.500961 37.2707 0.345491 37.9245 0.345491C38.5784 0.345491 39.1133 0.500961 39.1133 0.690978C39.1133 0.880996 38.4823 1.03647 37.711 1.03647C36.8641 1.03647 36.3932 0.899629 36.5222 0.690978ZM41.2726 0.83493C41.5356 0.571941 48.0921 0.571941 48.3551 0.83493C48.466 0.945779 46.8724 1.03647 44.8139 1.03647C42.7554 1.03647 41.1618 0.94578 41.2726 0.83493Z" />
</svg>
