<svg width="100" height="31" viewBox="0 0 100 31"  xmlns="http://www.w3.org/2000/svg">
<path d="M61.895 30.6573C61.895 30.5583 62.4401 30.3054 63.1064 30.0954C63.7727 29.8853 64.3179 29.6129 64.3179 29.49C64.3179 28.6403 62.9908 27.8169 62.0157 28.0617C61.714 28.1374 61.3507 28.4212 61.2085 28.6923C60.9575 29.1706 60.9628 29.1738 61.3847 28.7999C61.8908 28.3512 62.5252 28.3096 63.322 28.6726C63.9859 28.9751 63.9456 29.3034 63.2003 29.6646C61.9021 30.2938 61.5656 30.2541 61.1158 29.419L60.6935 28.6347L61.2595 28.0687C61.9862 27.342 63.0967 27.0777 65.3742 27.0893L67.2014 27.0986L67.5184 26.3398C67.9652 25.2706 68.1526 25.2299 69.0404 26.0094C69.6392 26.5352 69.8246 26.8683 69.8246 27.419C69.8246 27.8157 69.6831 28.2576 69.5102 28.4011C69.2981 28.5771 69.2357 28.9075 69.3185 29.4174C69.5361 30.7586 69.3185 30.8373 65.3923 30.8373C63.4687 30.8373 61.895 30.7563 61.895 30.6573ZM68.8572 29.8634C68.9233 29.6911 68.8616 29.3336 68.7199 29.0689C68.4185 28.5058 67.9945 28.5468 65.9642 29.3352L64.6483 29.8461L65.9699 29.9743C68.3487 30.205 68.7318 30.1903 68.8572 29.8634ZM68.2276 27.258C68.1772 27.1066 68.0037 26.9827 67.8422 26.9827C67.6806 26.9827 67.5072 27.1066 67.4567 27.258C67.4021 27.4218 67.5583 27.5333 67.8422 27.5333C68.1261 27.5333 68.2822 27.4218 68.2276 27.258ZM60.3811 26.1523C59.383 24.3442 59.3449 24.2287 59.7474 24.2308C60.1529 24.2329 61.6881 27.1552 61.4695 27.5089C61.3455 27.7096 61.0095 27.2908 60.3811 26.1523ZM61.1219 25.7668C60.4258 24.3103 59.8539 23.6629 59.472 23.8989C59.1912 24.0725 58.3707 23.417 58.3707 23.0191C58.3707 22.6727 63.3068 17.7965 63.3958 18.0551C63.4337 18.1656 62.9629 18.8946 62.3495 19.6752C61.7361 20.4558 61.2342 21.1653 61.2342 21.252C61.2342 21.3386 61.7803 22.3376 62.4479 23.4718C63.1154 24.6061 63.7534 25.7755 63.8656 26.0706C64.0562 26.5719 64.0064 26.623 63.105 26.8499C62.5745 26.9835 62.0539 27.0928 61.9481 27.0928C61.8423 27.0928 61.4705 26.4961 61.1219 25.7668ZM64.1876 25.9364C63.9886 25.5427 63.3303 24.4059 62.7247 23.4101C61.9222 22.0907 61.66 21.4635 61.758 21.0973C61.9061 20.5437 63.7719 18.3265 63.9417 18.5024C64.0001 18.563 64.8378 20.1985 65.8031 22.1368C67.9119 26.3712 67.9058 26.6424 65.7002 26.6489C64.6216 26.652 64.5268 26.6074 64.1876 25.9364ZM78.2498 22.7505C78.0983 22.6956 77.9744 22.3433 77.9744 21.9674C77.9744 21.5916 77.7845 21.0795 77.5525 20.8294C76.9934 20.2269 74.0096 15.1763 74.0096 14.8325C74.0096 14.6846 74.1087 14.5023 74.2299 14.4275C74.351 14.3526 74.4533 13.529 74.4572 12.5973C74.4666 10.326 74.5833 10.2029 76.8236 10.1011C78.7217 10.0149 79.084 10.153 77.9744 10.5398C77.4039 10.7387 77.3136 10.8794 77.3136 11.5695C77.3136 12.1639 77.483 12.5382 77.9744 13.0296C78.3379 13.3931 78.6352 13.7152 78.6352 13.7455C78.6352 13.7757 78.3626 13.7618 78.0295 13.7146C77.6963 13.6673 77.2336 13.7697 77.0012 13.9421C76.5874 14.249 76.5893 14.2727 77.0893 15.0818C77.5717 15.8623 77.5804 15.9412 77.2466 16.5063C76.8995 17.0939 76.9153 17.1379 78.1259 18.9599C78.8039 19.9803 79.3864 20.8487 79.4202 20.8897C79.5545 21.0524 81.5274 19.7468 81.9401 19.2222C82.3455 18.7068 82.3798 18.6981 82.3798 19.1108C82.3798 19.3919 81.7858 20.0747 80.7828 20.9465C78.6271 22.8204 78.5649 22.8647 78.2498 22.7505ZM53.1139 19.1081C52.1487 17.2607 51.0081 15.1791 50.5792 14.4825C49.8147 13.241 49.7796 13.216 48.7986 13.216C48.2482 13.216 47.7979 13.1169 47.7979 12.9957C47.7979 12.8746 47.5501 12.7755 47.2472 12.7755C46.9444 12.7755 46.6966 12.8746 46.6966 12.9957C46.6966 13.12 46.0725 13.216 45.2648 13.216C44.4572 13.216 43.8331 13.12 43.8331 12.9957C43.8331 12.7092 43.0189 12.7092 42.8419 12.9957C42.6474 13.3105 40.2303 13.2697 39.9068 12.9462C39.6939 12.7333 39.5459 12.7333 39.205 12.9462C38.9673 13.0946 38.4874 13.216 38.1384 13.216C37.6405 13.216 37.3764 13.4087 36.9114 14.1112C36.5856 14.6036 36.2196 14.9734 36.0981 14.9329C35.9767 14.8924 35.6409 14.2777 35.3521 13.567C35.0632 12.8562 34.5593 11.9955 34.2324 11.6542L33.638 11.0338L42.8883 11.0208L52.1386 11.0079L54.1347 14.7001C55.2326 16.7308 56.3419 18.8028 56.5998 19.3046C57.4021 20.8656 57.88 20.766 60.2924 18.5348C62.2071 16.7641 62.9963 16.2205 62.9963 16.6727C62.9963 17.0196 58.0346 21.8064 57.6749 21.8064C57.4778 21.8064 57.2594 21.9551 57.1897 22.1368C57.1005 22.3693 56.7378 22.4672 55.9658 22.4672H54.8686L53.1139 19.1081ZM78.4584 18.7921C77.4558 17.274 77.3669 17.0465 77.6529 16.7304C78.0822 16.2561 78.0586 15.9373 77.5311 15.0838C77.1329 14.4395 77.1242 14.3526 77.4455 14.2293C77.6888 14.136 77.7667 14.1873 77.6889 14.3899C77.626 14.5537 77.657 14.821 77.7578 14.9839C77.9083 15.2275 78.0022 15.2293 78.2856 14.994C78.4753 14.8367 78.5761 14.62 78.5097 14.5126C78.4433 14.4052 78.5805 14.3173 78.8145 14.3173C79.2808 14.3173 80.6699 15.7224 81.6139 17.1489C82.1388 17.9421 82.1829 18.1341 81.962 18.6652C81.7607 19.1493 80.7492 19.947 79.7161 20.4365C79.6442 20.4706 79.0782 19.7306 78.4584 18.7921ZM80.1771 19.6037C80.1771 19.1477 79.6457 18.9959 79.4062 19.3835C79.2218 19.6818 79.4706 20.0443 79.8597 20.0443C80.0343 20.0443 80.1771 19.846 80.1771 19.6037ZM57.5388 19.8964C57.1588 19.7436 56.3379 18.1014 56.5058 17.8297C56.7614 17.4161 56.1583 16.0795 55.7161 16.0795C55.2197 16.0795 54.5319 14.8808 54.7307 14.3625C54.9094 13.8969 54.1811 12.5552 53.7497 12.5552C53.565 12.5552 53.1812 12.1165 52.8967 11.5802C52.4154 10.673 52.4028 10.5619 52.7146 9.98326C52.8989 9.6412 53.104 9.18787 53.1702 8.97587C53.2652 8.67203 53.5394 8.5904 54.465 8.5904H55.6393L56.5052 10.4076C57.5466 12.5933 57.4538 12.4442 57.6509 12.247C57.7397 12.1583 57.368 11.2472 56.8249 10.2222L55.8376 8.35876L54.3109 8.41953C52.8433 8.47792 52.7778 8.50429 52.6191 9.10009C52.2735 10.3978 52.5631 10.3525 44.6024 10.3525H37.2757L36.9149 9.80187L36.5541 9.2512H24.669H12.7839L10.0631 10.6829C7.64277 11.9565 7.20441 12.1147 6.09407 12.1147C4.39339 12.1147 4.44529 11.7574 6.43729 9.75198L8.02871 8.14987H11.0188C12.79 8.14987 14.1021 8.05674 14.2374 7.92142C14.3952 7.76366 14.6518 7.76366 15.0667 7.92142C15.4609 8.07129 20.9791 8.14987 31.1094 8.14987H46.5511L48.0005 6.76154C49.4223 5.39969 49.4698 5.37492 50.4962 5.46212C51.4577 5.54383 51.5427 5.59826 51.5454 6.13458C51.5472 6.45554 51.6082 6.94115 51.6813 7.21373C51.8127 7.70427 51.8544 7.70933 55.7532 7.70933C58.3788 7.70933 59.6923 7.63155 59.6923 7.47607C59.6923 7.34777 59.7914 7.30406 59.9126 7.37894C60.0472 7.46214 60.1328 7.12194 60.1328 6.50396C60.1328 5.74381 60.2285 5.45637 60.5183 5.3459C60.7303 5.26508 61.1505 4.97083 61.4522 4.69201C61.9494 4.23237 62.2063 4.18553 64.2055 4.18997C66.0544 4.19405 66.4993 4.26442 66.9611 4.6256C67.3551 4.93379 67.8612 5.05773 68.7399 5.06124C69.7687 5.06532 70.052 4.97676 70.4854 4.51547L71.0027 3.9648H76.666H82.3292L83.6516 5.37846L84.9741 6.79212L89.1994 6.81872C93.7623 6.84745 94.3981 6.73887 95.9041 5.6737C96.489 5.26003 97.0386 5.06613 97.6261 5.06613H98.4891L98.4477 6.66307C98.3974 8.60315 98.663 17.7127 98.7945 18.5575C98.8814 19.1157 98.8314 19.1632 98.1566 19.1632H97.4244L96.9595 16.4649C96.7038 14.9809 96.3739 12.7036 96.2264 11.4042C95.9769 9.20604 95.9864 9.01073 96.3619 8.5958C96.5838 8.35054 96.9979 8.14987 97.2819 8.14987C97.566 8.14987 97.7985 8.05075 97.7985 7.9296C97.7985 7.53202 96.8464 7.69925 96.3259 8.18826L95.8161 8.66719V8.18826C95.8161 7.92485 95.7169 7.70933 95.5958 7.70933C95.2589 7.70933 95.3264 8.7997 95.9233 12.9979C96.5967 17.735 96.5994 17.8416 96.0441 17.8416C95.8061 17.8416 95.5201 17.6681 95.4087 17.4561C95.0065 16.691 94.2869 13.6755 94.0318 11.6859C93.8885 10.5683 93.6614 9.61922 93.5271 9.57678C93.3929 9.53434 90.4245 9.43219 86.9307 9.34976L80.5784 9.19989L81.4137 8.34448C82.1762 7.56356 82.3506 7.48907 83.4157 7.48907C84.306 7.48907 84.5825 7.41077 84.5825 7.15867C84.5825 6.90654 84.3059 6.82827 83.4151 6.82827C82.773 6.82827 82.1351 6.9408 81.9976 7.07833C81.811 7.26491 81.5261 7.15306 80.8756 6.6378C80.0818 6.00911 79.862 5.9472 78.4241 5.9472C76.9479 5.9472 76.7109 6.01925 74.8016 7.04853C73.6779 7.65427 72.6961 8.14987 72.6197 8.14987C72.5432 8.14987 72.007 7.70551 71.428 7.1624L70.3753 6.17493L68.0384 6.17121L65.7016 6.16749L64.6522 7.09121C63.7345 7.89901 63.6545 8.03527 64.0154 8.17706C64.2424 8.26623 66.2122 8.35013 68.3929 8.3635C72.1838 8.38673 72.3287 8.40349 71.6969 8.7457C71.3213 8.94915 71.1555 9.14359 71.3128 9.19623C71.4649 9.24716 72.728 8.68566 74.1196 7.94843C76.6338 6.61653 76.6614 6.60807 78.4686 6.61535C79.9401 6.62124 80.3854 6.70448 80.8015 7.05119L81.3157 7.47969L80.4996 8.47559L79.6835 9.47149H77.2023C74.7407 9.47149 74.7179 9.47631 74.3156 10.0772C74.0355 10.4955 73.8843 11.2077 73.8269 12.3785L73.7438 14.0741L72.2666 14.9667C71.4541 15.4576 70.597 15.8602 70.362 15.8614C70.127 15.8625 68.9055 15.645 67.6476 15.3778L65.3605 14.8921L64.4995 15.3876C63.3149 16.0693 62.819 15.874 62.7331 14.6918C62.6684 13.8009 62.6406 13.7692 61.9816 13.8351C61.3714 13.896 61.2191 13.7818 60.5773 12.7816C59.8885 11.7082 59.8739 11.6414 60.2402 11.2368C60.6137 10.824 60.6605 10.8436 62.1951 12.0599C63.0598 12.7453 63.8968 13.484 64.0551 13.7016C64.2376 13.9524 64.626 14.0971 65.1165 14.0971C65.542 14.0971 66.8831 14.3488 68.0969 14.6565C69.3106 14.9642 70.4832 15.1589 70.7026 15.0893C70.922 15.0196 71.508 14.6682 72.0049 14.3082C72.9045 13.6566 72.9083 13.6476 72.9083 12.2073C72.9083 10.9623 72.856 10.7709 72.5325 10.8332C72.295 10.8789 72.0902 11.2254 71.9761 11.7744C71.8086 12.5805 71.2714 13.4363 70.9328 13.4363C70.853 13.4363 70.8307 12.8416 70.8833 12.1147L70.9789 10.7931L68.2541 10.7869C65.6098 10.781 65.5052 10.7625 64.7083 10.159L63.8872 9.53726L66.0299 9.39536C67.2084 9.31732 68.7178 9.23267 69.3841 9.20725C70.0504 9.18182 68.8114 9.10697 66.6307 9.04091C62.3653 8.91168 60.3069 9.1012 59.5387 9.69387C59.0967 10.0349 59.0831 10.1079 59.3822 10.5348C59.6727 10.9497 59.6714 11.0608 59.3702 11.5204C59.0491 12.0106 59.0756 12.1026 59.8636 13.2329C60.5396 14.2026 60.8298 14.4404 61.4058 14.4965C62.0662 14.5607 62.1153 14.6225 62.1153 15.3894C62.1153 16.0377 61.9552 16.3685 61.3641 16.9414L60.613 17.6694L59.5827 15.8832C59.0161 14.9008 58.4144 14.0971 58.2458 14.0971C58.0771 14.0971 57.732 13.691 57.4788 13.1946C57.2256 12.6983 56.9688 12.3418 56.9083 12.4024C56.7075 12.6031 57.7378 14.3659 58.1134 14.4641C58.3162 14.5171 58.8765 15.2969 59.3585 16.1968L60.2347 17.8332L59.1458 18.9387C58.5469 19.5468 58.0036 20.0364 57.9385 20.0269C57.8733 20.0173 57.6935 19.9586 57.5388 19.8964ZM51.7186 9.42742C52.1375 9.00859 52.0398 7.97551 51.5569 7.71708C50.6695 7.24218 49.7803 7.72022 49.7803 8.67222C49.7803 9.32239 50.1793 9.69174 50.8816 9.69174C51.1966 9.69174 51.5733 9.57279 51.7186 9.42742ZM78.9476 8.67697C79.1392 8.60343 79.296 8.45041 79.296 8.33692C79.296 8.0163 76.1546 8.20811 76.0464 8.53533C75.9803 8.73513 76.318 8.81067 77.2773 8.81067C78.0043 8.81067 78.756 8.75051 78.9476 8.67697ZM62.3355 7.67161C62.3355 7.21663 63.0483 6.608 63.5811 6.608C63.8652 6.608 64.0976 6.68327 64.0976 6.77528C64.0976 6.94539 63.3759 7.4771 62.776 7.74892C62.5268 7.86187 62.5567 7.90244 62.898 7.91412C63.1468 7.92264 63.6867 7.58268 64.0976 7.15867L64.8448 6.38774H63.9638C63.246 6.38774 62.9442 6.53063 62.3355 7.15867C61.7752 7.73672 61.6817 7.9296 61.9619 7.9296C62.1674 7.9296 62.3355 7.81351 62.3355 7.67161ZM73.7149 6.92912C74.2404 6.62114 74.6704 6.27422 74.6704 6.15818C74.6704 6.04214 74.1005 5.95503 73.4039 5.96459C72.1075 5.98239 72.0877 6.01959 73.2385 6.2763L73.899 6.42366L73.3486 6.72078C72.8482 6.99091 72.7433 6.96573 72.1947 6.44354C71.3742 5.66256 71.1296 6.00628 71.9193 6.83057C72.2663 7.19274 72.5973 7.48907 72.6548 7.48907C72.7124 7.48907 73.1894 7.23709 73.7149 6.92912ZM99.065 15.2185C98.8368 10.5308 98.8568 5.06613 99.102 5.06613C100.07 5.06613 100.202 5.87049 99.7525 9.03094C99.6233 9.93954 99.4529 12.4671 99.3739 14.6477L99.2301 18.6125L99.065 15.2185ZM25.4302 13.6826C25.3754 13.6279 25.3307 13.1536 25.3307 12.6286V11.6741H17.8652C11.4324 11.6741 10.3821 11.6284 10.2729 11.3437C10.1612 11.0526 11.5271 11.0133 21.7603 11.0133C33.136 11.0133 33.3802 11.0224 33.6497 11.4539C33.9199 11.8865 33.8697 11.8944 30.8662 11.8944C27.5706 11.8944 27.4912 11.9205 26.9741 13.1741C26.8129 13.565 26.5656 13.7368 26.1375 13.7555C25.8032 13.7702 25.4849 13.7374 25.4302 13.6826ZM92.9024 12.0773C92.4507 11.6327 91.3642 10.9102 90.4878 10.4718L88.8944 9.67466L91.0717 9.73826L93.2491 9.80186L93.5477 11.119C93.712 11.8435 93.8188 12.5373 93.785 12.6609C93.7512 12.7845 93.354 12.5219 92.9024 12.0773ZM61.9142 11.0161C60.3511 9.57964 60.3229 9.74813 62.1902 9.36596C62.5611 9.29005 63.0895 9.54562 64.0731 10.2766L65.4405 11.2927L64.9509 11.8138C64.1677 12.6475 63.498 12.4716 61.9142 11.0161ZM12.0045 10.0142C12.5381 9.76987 14.9616 9.70969 24.5912 9.70167C34.995 9.69304 36.5333 9.7339 36.6439 10.0221C36.7558 10.3136 35.2725 10.3504 24.0572 10.3346C13.0924 10.3192 11.4346 10.2751 12.0045 10.0142ZM65.0552 7.2688C65.7885 6.62491 65.8666 6.608 68.1054 6.608C70.3707 6.608 70.4118 6.61727 71.036 7.2688L71.6691 7.9296H67.9858H64.3026L65.0552 7.2688ZM0 7.47469C0 7.36431 0.39648 7.21061 0.881067 7.13312C1.69081 7.00364 1.76212 6.93656 1.76198 6.30452C1.76185 5.7261 1.6742 5.61175 1.21049 5.58498C0.461943 5.54179 0 5.34642 0 5.07305C0 4.74734 1.70005 4.79149 1.85391 5.1212C1.9567 5.34147 2.0081 5.34147 2.11089 5.1212C2.20737 4.91445 3.33215 4.84587 6.62636 4.84587H11.0133V6.28265V7.71943L5.50667 7.6974C2.35688 7.68479 0 7.58947 0 7.47469ZM11.4539 6.2776V4.84587H13.9869C15.3801 4.84587 16.5135 4.92021 16.5054 5.01107C16.4975 5.10193 15.8284 5.74433 15.0186 6.43863C13.6781 7.58806 13.4528 7.70136 12.5001 7.70516L11.4539 7.70931V6.2776ZM52.3346 7.30322C52.2056 7.09444 53.8001 6.608 54.6136 6.608C55.5063 6.608 55.044 6.19399 53.8539 5.92764C53.1868 5.77836 52.6878 5.60951 52.7449 5.55241C52.802 5.49531 53.5339 5.62631 54.3713 5.84351C55.8244 6.22039 55.9817 6.22101 57.8143 5.85706C58.8705 5.6473 59.784 5.52499 59.8443 5.58525C59.9704 5.71133 58.4449 6.16441 57.8881 6.16624C57.3614 6.16803 57.1867 6.55258 57.6521 6.68563C57.8656 6.74666 57.676 6.74453 57.2308 6.6809C56.5569 6.58458 54.327 6.9472 52.8275 7.39696C52.6257 7.45749 52.4039 7.41529 52.3346 7.30322ZM15.7491 6.38774C16.2223 5.90315 16.6389 5.50667 16.6748 5.50667C16.7108 5.50667 16.7403 5.90315 16.7403 6.38774V7.2688H15.8145H14.8887L15.7491 6.38774ZM17.8857 7.00448C17.4793 6.59814 17.5713 5.98948 18.0802 5.71713C18.4463 5.52122 18.6244 5.54883 18.9613 5.85365C19.4735 6.31726 19.4848 6.47522 19.0373 6.92267C18.6235 7.33655 18.2446 7.36347 17.8857 7.00448ZM18.8328 6.38774C18.8328 6.20933 18.6593 6.02996 18.4473 5.98913C18.1769 5.93705 18.0619 6.05598 18.0619 6.38774C18.0619 6.71949 18.1769 6.83842 18.4473 6.78634C18.6593 6.74551 18.8328 6.56614 18.8328 6.38774ZM20.6107 6.92267C20.4203 6.7323 20.2645 6.49158 20.2645 6.38774C20.2645 6.14304 20.9009 5.50667 21.1456 5.50667C21.3903 5.50667 22.0267 6.14304 22.0267 6.38774C22.0267 6.63243 21.3903 7.2688 21.1456 7.2688C21.0418 7.2688 20.801 7.11304 20.6107 6.92267ZM21.5861 6.38774C21.5861 6.09405 21.4393 5.9472 21.1456 5.9472C20.8519 5.9472 20.7051 6.09405 20.7051 6.38774C20.7051 6.68142 20.8519 6.82827 21.1456 6.82827C21.4393 6.82827 21.5861 6.68142 21.5861 6.38774ZM22.6809 6.38774L22.5773 5.39654L19.7585 5.2864L16.9397 5.17627L17.9318 4.20365C18.4774 3.66871 18.8727 3.14833 18.8103 3.04725C18.7478 2.94617 19.6005 2.86347 20.7051 2.86347C21.9879 2.86347 22.6643 2.7839 22.5773 2.6432C22.502 2.52135 21.5057 2.42293 20.3475 2.42293C18.2635 2.42293 18.2509 2.41961 17.6622 1.71996C16.7564 0.64354 16.8702 0.392993 18.2821 0.354778C19.2239 0.329287 19.6497 0.433275 20.1948 0.821795C20.7226 1.19806 21.2001 1.3216 22.1266 1.3216C23.3357 1.3216 23.3697 1.33911 24.0591 2.31716L24.7608 3.31272L34.6824 3.19738C40.1393 3.13394 51.422 3.00808 59.7551 2.91769L74.9061 2.75333L73.6869 1.54939C73.0164 0.887223 72.4678 0.267723 72.4678 0.172724C72.4678 0.077726 73.3375 0 74.4006 0H76.3335L77.9744 1.652L79.6154 3.304H75.2017H70.788L70.155 3.9648C69.629 4.51384 69.3483 4.6256 68.4959 4.6256C67.7496 4.6256 67.3612 4.50549 67.0712 4.18507C66.7142 3.79055 66.3928 3.74453 63.9946 3.74453H61.3166L60.6835 4.40533L60.0504 5.06613H54.4115H48.7725L47.6878 6.16747L46.603 7.2688H43.5356H40.4682L39.5124 6.38774C38.9867 5.90315 38.4257 5.50667 38.2659 5.50667C38.1061 5.50667 37.5881 5.90315 37.1149 6.38774C36.6418 6.87232 36.1066 7.2688 35.9257 7.2688C35.7098 7.2688 35.8388 7.01916 36.3008 6.54245C36.688 6.14295 37.0048 5.74647 37.0048 5.66138C37.0048 5.57629 36.311 5.50667 35.4629 5.50667C34.6149 5.50667 33.9211 5.57629 33.9211 5.66138C33.9211 5.74647 34.2379 6.14295 34.6251 6.54245C35.0871 7.01916 35.2161 7.2688 35.0002 7.2688C34.8193 7.2688 34.2841 6.87232 33.8109 6.38774C33.3378 5.90315 32.8422 5.50667 32.7096 5.50667C32.5771 5.50667 32.0815 5.90315 31.6083 6.38774C31.1101 6.89789 30.54 7.2688 30.254 7.2688C29.8211 7.2688 29.7519 7.13968 29.693 6.22254L29.6259 5.17627L26.2785 5.11553L22.9312 5.05479L22.8578 6.21686L22.7844 7.37894L22.6809 6.38774ZM41.6021 5.86633C42.2074 5.24182 42.2635 5.10264 41.9576 4.98526C41.4624 4.79524 38.9872 4.808 38.9872 5.00058C38.9872 5.2563 40.3764 6.608 40.6392 6.608C40.7734 6.608 41.2067 6.27425 41.6021 5.86633ZM40.0945 5.62316L39.5971 5.09364L40.7221 5.13495C41.341 5.15768 41.848 5.1943 41.849 5.21634C41.8499 5.23838 41.5675 5.45807 41.2213 5.70455L40.592 6.15268L40.0945 5.62316ZM22.1925 4.4604C22.2607 4.25454 21.8099 4.18507 20.406 4.18507C18.6663 4.18507 18.0743 4.34435 18.4432 4.71319C18.715 4.98503 22.0942 4.75719 22.1925 4.4604ZM26.7624 4.51547C26.7624 4.28101 23.7122 4.0828 23.1897 4.2833C23.0193 4.34871 22.9439 4.50592 23.0222 4.63266C23.2056 4.92937 26.7624 4.81792 26.7624 4.51547ZM31.1677 4.51547C31.1677 4.28101 28.1176 4.0828 27.5951 4.2833C27.4246 4.34871 27.3492 4.50592 27.4276 4.63266C27.6109 4.92937 31.1677 4.81792 31.1677 4.51547ZM36.1237 4.51547C36.1237 4.24952 35.7826 4.18507 34.3746 4.18507C32.7621 4.18507 32.1772 4.35013 32.532 4.70502C32.6095 4.78249 33.4493 4.84587 34.3983 4.84587C35.7852 4.84587 36.1237 4.78104 36.1237 4.51547ZM48.4587 3.48306C48.4587 3.38458 48.1613 3.304 47.7979 3.304C47.1831 3.304 47.1371 3.36061 47.1371 4.11615V4.92829L47.7979 4.29521C48.1613 3.94701 48.4587 3.58154 48.4587 3.48306ZM77.0384 2.03759C77.1588 1.67588 76.4686 1.41768 76.1726 1.7137C76.046 1.84037 76.0123 2.05726 76.0978 2.19567C76.2924 2.51057 76.9158 2.4058 77.0384 2.03759ZM75.2211 1.10134C75.2211 0.922935 75.0476 0.743565 74.8356 0.702736C74.5652 0.650655 74.4502 0.769587 74.4502 1.10134C74.4502 1.43309 74.5652 1.55202 74.8356 1.49994C75.0476 1.45911 75.2211 1.27974 75.2211 1.10134ZM24.8488 7.11834C25.0078 7.05471 25.1978 7.06254 25.271 7.13573C25.3442 7.20892 25.2141 7.26099 24.9819 7.25142C24.7253 7.24085 24.6731 7.18865 24.8488 7.11834ZM27.5421 6.94899C26.9589 6.24628 27.8194 5.14173 28.5061 5.71162C28.9204 6.0555 28.9584 6.63667 28.5906 7.00449C28.2375 7.35764 27.8649 7.33791 27.5421 6.94899ZM28.5797 6.44292C28.7001 6.08122 28.01 5.82302 27.7139 6.11903C27.5873 6.24571 27.5536 6.4626 27.6391 6.60101C27.8338 6.91591 28.4571 6.81114 28.5797 6.44292ZM31.9393 6.49718L32.6872 5.72556L33.4143 6.43026C33.8142 6.81784 34.1413 7.16507 34.1413 7.20188C34.1413 7.23868 33.4776 7.2688 32.6664 7.2688H31.1915L31.9393 6.49718ZM37.5563 6.6071L38.1903 5.9454L38.809 6.53818C39.1493 6.8642 39.4277 7.16197 39.4277 7.19988C39.4277 7.23778 38.864 7.2688 38.1751 7.2688H36.9224L37.5563 6.6071ZM34.9366 6.4146C34.7415 6.19903 34.5819 5.95611 34.5819 5.87479C34.5819 5.68338 35.4548 5.71142 35.9852 5.91987C36.3663 6.0696 36.3556 6.10919 35.8444 6.4442C35.3274 6.78291 35.2682 6.78097 34.9366 6.4146ZM84.4054 5.22008C83.7759 4.58263 83.2608 4.01464 83.2607 3.95788C83.2606 3.90112 86.241 3.88231 89.8836 3.9161C95.9053 3.97195 96.5003 4.0106 96.4365 4.34168C96.398 4.54196 95.9204 5.02136 95.3754 5.40699L94.3843 6.10815L89.9672 6.24361L85.55 6.37908L84.4054 5.22008ZM14.8863 4.43488C14.8214 4.32998 14.537 4.28839 14.2541 4.34245C13.5793 4.47146 13.0472 3.88295 13.426 3.42649C13.6204 3.19231 13.9749 3.1422 14.7707 3.23644C15.4389 3.31559 15.9664 3.26895 16.1528 3.11425C16.4631 2.8568 18.2821 2.82466 18.2821 3.07664C18.2821 3.15416 17.9553 3.53439 17.5558 3.9216C16.9763 4.48329 16.6449 4.62561 15.9168 4.62561C15.4148 4.62561 14.9511 4.53977 14.8863 4.43488ZM24.7083 2.57394C24.0453 1.86825 24.0988 1.76213 25.1173 1.76213C25.7034 1.76213 26.0484 1.87445 26.1321 2.09253C26.272 2.4571 27.3131 2.55419 27.3131 2.20267C27.3131 1.88529 29.8149 1.92917 30.138 2.25222C30.3509 2.46513 30.4989 2.46513 30.8399 2.25222C31.3569 1.92931 33.7008 1.88871 33.7008 2.20267C33.7008 2.32381 33.9486 2.42293 34.2515 2.42293C34.5543 2.42293 34.8021 2.32381 34.8021 2.20267C34.8021 2.07841 35.4262 1.9824 36.2339 1.9824C37.0415 1.9824 37.6656 2.07842 37.6656 2.20267C37.6656 2.32381 37.9134 2.42293 38.2163 2.42293C38.5191 2.42293 38.7669 2.31492 38.7669 2.1829C38.7669 2.02693 39.2877 1.9658 40.2537 2.00835C41.4367 2.06045 41.8736 1.98572 42.3916 1.64265C43.0207 1.22603 43.5427 1.21055 57.8508 1.18421L72.6589 1.15696L73.2653 1.78995L73.8718 2.42293L59.348 2.43076C47.1723 2.43733 44.7353 2.48945 44.2736 2.75335C43.8209 3.01215 42.0746 3.06953 34.4551 3.07595L25.1872 3.08377L24.7083 2.57394Z" />
</svg>
