<svg width="100" height="41" viewBox="0 0 100 41"  xmlns="http://www.w3.org/2000/svg">
<path opacity="0.997" d="M50.0253 38.6077C49.5604 37.7281 48.6348 35.9873 47.9684 34.7391L46.7569 32.4696L47.9523 31.0389L49.1478 29.6082L47.0245 25.7892L44.9012 21.9701L46.2345 21.8981C47.8058 21.8132 47.5226 21.5205 49.9878 25.7781L51.7845 28.8812L53.069 28.9503L54.3535 29.0194L55.697 31.4866C56.9163 33.7258 57.0522 34.1207 57.1671 35.7591L57.2938 37.5643L56.0348 38.755C54.8825 39.8448 54.6801 39.9459 53.6456 39.9483C53.024 39.9497 52.1453 40.0085 51.693 40.0789C50.8806 40.2053 50.8604 40.1875 50.0253 38.6077ZM53.5822 37.1548C54.777 35.9576 55.7192 34.8062 55.7934 34.4526C55.8644 34.1136 55.9724 33.5921 56.0333 33.2936C56.1018 32.9578 55.9239 32.4268 55.5668 31.9013L54.9896 31.0517L54.0759 31.4106C53.5366 31.6225 52.3586 32.5774 51.2006 33.7415L49.2389 35.7134L50.1116 37.4771C50.5915 38.4471 51.1003 39.2408 51.2422 39.2408C51.3841 39.2408 52.437 38.3021 53.5822 37.1548ZM51.0573 38.4771C50.9345 38.3156 50.5399 37.6689 50.1803 37.0401L49.5266 35.8967L51.256 34.1438C52.2071 33.1798 53.4024 32.1749 53.9122 31.9107L54.8389 31.4305L55.2633 31.9545C55.5324 32.287 55.6876 32.8667 55.6876 33.5402C55.6876 34.5574 55.6023 34.689 53.6478 36.6863C52.5259 37.8328 51.5343 38.7708 51.4443 38.7708C51.3543 38.7708 51.1801 38.6386 51.0573 38.4771ZM55.2665 37.9007C55.8781 37.3034 56.1575 36.8245 56.1575 36.3734C56.1575 36.0119 56.0782 35.7285 55.9813 35.7437C55.8844 35.7588 55.1796 36.4461 54.4151 37.271C53.038 38.7569 53.0313 38.7708 53.7002 38.7708C54.1618 38.7708 54.6573 38.4956 55.2665 37.9007ZM45.7336 30.4914C44.2687 27.8514 41.1192 22.0072 41.1192 21.929C41.1192 21.693 43.9163 21.8955 44.121 22.1464C44.2529 22.3079 45.304 24.0318 46.4569 25.9773L48.5531 29.5146L47.5518 30.739L46.5504 31.9635L45.7336 30.4914ZM69.2723 31.0754C68.2593 29.8908 63.6767 21.503 63.6767 20.8335C63.6767 20.4747 63.4338 20.0509 63.0594 19.7563C62.5589 19.3627 62.4956 19.2061 62.725 18.9298C63.1715 18.3917 65.1167 17.2347 66.101 16.9216C67.3384 16.528 66.9895 16.3149 65.6992 16.6762C65.063 16.8543 64.1622 17.4068 63.399 18.087C62.3875 18.9885 61.7515 19.325 60.1157 19.824C58.3554 20.3609 57.6695 20.4428 54.9335 20.4428H51.7801L51.3868 19.618L50.9935 18.7933L51.8719 18.9106C52.3551 18.9752 53.9135 19.1402 55.3351 19.2774L57.9198 19.5268L59.6565 18.8096C60.6116 18.4152 61.5335 17.9075 61.705 17.6815C62.4798 16.661 61.6476 14.3335 60.508 14.3335C59.9652 14.3335 59.9171 14.4187 59.9171 15.3802C59.9171 16.1883 59.7808 16.5632 59.319 17.025C58.5817 17.7623 58.358 17.7982 58.8464 17.1009C59.2279 16.5562 59.3052 15.7617 59.0641 14.8621C58.9276 14.3528 58.8236 14.3335 56.228 14.3335C54.1772 14.3335 53.5569 14.2633 53.6311 14.0397C53.7037 13.821 55.1334 13.7125 59.2314 13.6149C63.8743 13.5042 65.0278 13.4038 66.6139 12.9723C67.6478 12.691 69.1017 12.4592 69.8448 12.4573C71.1786 12.4538 71.1959 12.4624 71.1959 13.1324C71.1959 13.7308 71.0915 13.8308 70.3148 13.9764C68.6894 14.2811 67.9084 14.7409 67.5469 15.6061C67.0771 16.7304 67.3579 17.3356 68.9304 18.5879C71.0814 20.3009 74.9049 25.442 75.4554 27.3614C75.7361 28.3401 75.2667 28.9432 73.1481 30.3262C71.193 31.6025 69.9315 31.8464 69.2723 31.0754ZM72.0618 27.9463C73.1172 27.5464 73.7806 26.7875 73.7806 25.98C73.7806 25.1125 72.2346 22.6998 70.1948 20.3841C68.5396 18.5049 67.8202 18.3284 66.5488 19.4896C65.5895 20.3658 65.5715 21.1547 66.4844 22.3074C66.8655 22.7886 67.6178 24.0726 68.1562 25.1609C68.6946 26.2492 69.3528 27.3775 69.619 27.6683C70.1477 28.2458 71.0117 28.3442 72.0618 27.9463ZM69.9279 27.5189C69.7073 27.2752 69.1542 26.2971 68.6986 25.3454C68.243 24.3937 67.4554 23.0765 66.9484 22.4184C66.4413 21.7603 66.0265 21.0575 66.0265 20.8566C66.0265 20.4814 67.5172 19.0329 67.9034 19.0329C68.7904 19.0329 69.9193 20.2279 72.312 23.6997C73.6781 25.6818 73.7974 26.2344 73.017 26.9655C71.94 27.9743 70.5632 28.221 69.9279 27.5189ZM50.0144 25.2512L47.9834 21.8526L49.192 21.8569L50.4007 21.8611L52.1879 25.0879L53.9751 28.3146L53.3627 28.4631C53.026 28.5447 52.5918 28.6202 52.3979 28.6307C52.1852 28.6424 51.2402 27.3024 50.0144 25.2512ZM20.2227 19.7966C20.2505 17.2372 20.36 15.9057 20.5777 15.4794C20.7509 15.1404 20.8263 14.7967 20.7453 14.7157C20.6643 14.6347 18.4075 14.5684 15.7301 14.5684H10.8621L10.0124 15.509C9.1952 16.4135 9.1626 16.5172 9.1626 18.2112C9.1626 19.1801 9.07801 19.9728 8.97462 19.9728C8.44442 19.9728 8.2227 19.2802 8.2227 17.6238C8.2227 15.8671 8.23688 15.8248 9.11377 14.9686C9.67411 14.4214 10.2292 14.0985 10.6094 14.0985C10.9419 14.0985 11.4828 13.887 11.8114 13.6285C12.3899 13.1735 12.7647 13.1586 23.578 13.1586C32.0043 13.1586 34.7938 13.2278 34.9372 13.4406C35.0418 13.5957 36.0888 15.4726 37.264 17.6114C39.3044 21.3251 39.4685 21.8376 38.6202 21.849C38.4735 21.8509 37.5271 20.3987 36.517 18.6217C34.7937 15.59 34.0408 14.5876 33.4825 14.5815C33.3532 14.5801 33.4803 14.7616 33.7648 14.9849C34.183 15.3131 37.8295 21.4102 37.8295 21.7812C37.8295 21.8381 37.5188 21.6634 37.1389 21.3929C36.7591 21.1225 35.9162 19.9712 35.2657 18.8346C33.5045 15.7569 33.7277 15.8742 29.464 15.7855C27.003 15.7343 25.8458 15.7908 25.8458 15.9617C25.8458 16.4556 24.9824 16.2014 24.3235 15.5135L23.6531 14.8138L28.2153 14.7445L32.7776 14.6752L28.0193 14.6218C25.4023 14.5925 23.2611 14.631 23.2611 14.7073C23.2611 14.7837 23.6142 15.2587 24.0458 15.7629C24.4773 16.2671 24.9532 17.0892 25.1032 17.5899C25.4389 18.7105 25.4667 21.8527 25.1409 21.8527C25.0116 21.8527 24.9059 21.4485 24.9059 20.9546C24.9059 19.7161 24.2567 17.9238 23.6557 17.5028C22.8816 16.9606 21.7816 17.0644 21.1473 17.7395C20.6301 18.2901 20.5998 18.4837 20.6518 20.9117C20.6898 22.6912 20.6253 23.4975 20.4448 23.4975C20.2612 23.4975 20.1946 22.3878 20.2227 19.7966ZM21.8512 15.3713C21.8512 14.9563 21.3454 15.0286 21.2002 15.4643C21.149 15.6177 21.2746 15.7433 21.4792 15.7433C21.6838 15.7433 21.8512 15.5759 21.8512 15.3713ZM23.1446 15.5067C23.2251 15.3765 23.121 15.2049 22.9134 15.1252C22.4635 14.9525 22.2128 15.1428 22.429 15.4927C22.6241 15.8084 22.9542 15.8148 23.1446 15.5067ZM20.9624 20.8759C21.0271 18.3301 21.0461 18.2471 21.6745 17.7786C23.0165 16.7779 24.2764 18.0042 24.5648 20.5919L24.7255 22.0334L23.4646 22.5096C22.7711 22.7714 21.9095 23.0995 21.5498 23.2387L20.896 23.4917L20.9624 20.8759ZM41.582 21.207C42.9954 21.1502 43.6936 21.0172 43.9912 20.7479C44.3914 20.3857 44.3834 20.3232 43.8121 19.3484L43.2141 18.328L44.5751 18.3295C45.8403 18.3309 45.9643 18.3805 46.3364 19.0344C46.7364 19.7373 46.7385 19.7379 48.9422 19.7379C51.0024 19.7379 51.1632 19.7727 51.3847 20.2665C51.88 21.3712 51.8 21.3858 45.5054 21.3348C42.2529 21.3085 40.4874 21.2511 41.582 21.207ZM37.6133 17.4423C36.6543 15.6678 35.6691 13.9252 35.4238 13.5698L34.9778 12.9236H37.292H39.6063L40.5344 14.7447C41.0448 15.7462 41.4998 16.645 41.5454 16.7419C41.591 16.8389 41.0908 16.9182 40.4338 16.9182C39.4402 16.9182 39.2394 16.9893 39.2394 17.3411C39.2394 18.0598 39.7504 18.328 41.1193 18.328H42.4354L42.9521 19.3917C43.2364 19.9767 43.4689 20.5054 43.4689 20.5666C43.4689 20.6277 42.5437 20.6757 41.4129 20.6732L39.3568 20.6687L37.6133 17.4423ZM96.3382 20.4683C95.7604 20.3084 95.7469 20.2493 95.5158 16.8716C95.3216 14.034 95.2029 13.3518 94.8323 12.9446C94.4556 12.5306 94.4274 12.3561 94.6561 11.8542C95.0562 10.976 95.0052 8.81536 94.5759 8.45909C94.3536 8.27463 94.2234 8.25888 94.2234 8.41645C94.2234 8.55389 94.3292 8.73168 94.4584 8.81155C94.7969 9.02074 94.7321 11.0613 94.3661 11.7217C94.1307 12.1465 94.0088 12.2067 93.8629 11.9706C93.7477 11.7842 93.7814 11.6219 93.9469 11.5668C94.2869 11.4534 94.3268 8.92904 93.9885 8.92904C93.6092 8.92904 93.7192 8.28755 94.1252 8.13177C94.3296 8.05332 95.5221 7.98914 96.7751 7.98914C100.237 7.98914 100.076 7.72404 99.9492 13.2151C99.8919 15.7041 99.8394 18.3388 99.8325 19.0699C99.8215 20.2276 99.7544 20.4168 99.3126 20.5353C98.6567 20.7113 97.0883 20.6759 96.3382 20.4683ZM99.1579 18.328C99.1579 17.5557 98.9059 17.4297 98.453 17.9756C98.2196 18.2568 98.2196 18.3993 98.453 18.6805C98.9059 19.2263 99.1579 19.1003 99.1579 18.328ZM98.7889 16.8424C98.5396 16.1927 98.218 16.3962 98.218 17.2035C98.218 17.8829 98.2542 17.9225 98.5791 17.5977C98.7834 17.3934 98.8745 17.0654 98.7889 16.8424ZM99.1579 15.7433C99.1579 15.3556 99.0555 15.0384 98.9303 15.0384C98.8051 15.0384 98.757 14.8967 98.8235 14.7236C98.8899 14.5504 98.7755 14.2687 98.5693 14.0976C98.2347 13.8199 98.1998 13.898 98.2446 14.8236C98.2943 15.8515 98.5541 16.4482 98.9517 16.4482C99.0651 16.4482 99.1579 16.131 99.1579 15.7433ZM96.3382 11.0438C96.3382 10.7853 96.2387 10.5739 96.1171 10.5739C95.8017 10.5739 95.5794 11.0015 95.7508 11.2788C95.9963 11.6761 96.3382 11.5394 96.3382 11.0438ZM96.4265 9.97753C96.5064 9.76945 96.4131 9.5578 96.2066 9.47855C95.7468 9.30213 95.537 9.51427 95.7143 9.97629C95.8927 10.4411 96.2484 10.4417 96.4265 9.97753ZM9.39758 18.1968C9.39758 16.8179 9.47594 16.5581 10.1418 15.7295L10.8861 14.8034H15.6637C20.7044 14.8034 20.8637 14.841 20.1229 15.8541C19.906 16.1507 19.6635 16.2355 19.3625 16.12C18.6009 15.8278 11.7457 15.9221 11.3748 16.2299C11.1721 16.3982 11.0424 16.9492 11.0424 17.6427C11.0424 18.5097 10.9203 18.8934 10.5281 19.2588C9.62361 20.1015 9.39758 19.8892 9.39758 18.1968ZM46.9935 18.798C46.7817 18.4022 46.8148 18.328 47.2034 18.328C47.8055 18.328 48.4196 17.7039 48.2508 17.2638C48.16 17.0272 47.7686 16.9182 47.0103 16.9182H45.9025L44.8619 15.1158C43.5216 12.7941 43.5495 12.9236 44.3892 12.9236C45.0964 12.9236 45.1138 12.9503 45.1173 14.0397C45.1223 15.5695 45.3217 15.8246 46.3119 15.568C47.244 15.3265 47.5344 14.6044 46.779 14.4069C46.4248 14.3143 46.2886 14.0904 46.2886 13.6011C46.2886 12.9882 46.3642 12.9236 47.0821 12.9236C47.8042 12.9236 47.9191 13.024 48.3591 14.0397C48.625 14.6536 49.2454 16.0018 49.7377 17.0357C50.2299 18.0696 50.6686 18.9948 50.7125 19.0917C50.7564 19.1886 49.9941 19.2679 49.0187 19.2679C47.4855 19.2679 47.2109 19.2042 46.9935 18.798ZM49.4216 18.6977C49.4924 18.5133 49.3927 18.2316 49.2 18.0717C48.918 17.8376 48.7779 17.8528 48.4813 18.1494C48.2786 18.3521 48.1844 18.6338 48.2719 18.7754C48.5004 19.1451 49.2699 19.093 49.4216 18.6977ZM51.7738 18.1415C51.6832 17.7952 51.4576 17.6231 51.094 17.6231C50.64 17.6231 50.3104 17.1746 49.1083 14.9209C47.6992 12.2793 47.6488 12.2187 46.8603 12.2187H46.0536V13.6285C46.0536 14.7251 45.9753 15.0384 45.7012 15.0384C45.4291 15.0384 45.3479 14.73 45.3451 13.6873C45.3432 12.9442 45.2305 12.1776 45.0947 11.9837C44.9016 11.7078 44.8803 11.7461 44.9967 12.1599L45.1454 12.6886H39.7252C36.2683 12.6886 34.3049 12.6035 34.3049 12.4537C34.3049 12.3244 34.4635 12.2187 34.6574 12.2187C34.8512 12.2187 35.0098 12.0601 35.0098 11.8662C35.0098 11.6724 34.8512 11.5138 34.6574 11.5138C34.3783 11.5138 34.3049 11.178 34.3049 9.90152V8.28928L34.9511 8.40572C35.3065 8.46976 35.7294 8.62665 35.891 8.75436C36.1066 8.92486 36.1847 8.85403 36.1847 8.48786C36.1847 8.10875 36.0397 7.98914 35.58 7.98914C35.1308 7.98914 34.9956 7.88342 35.0541 7.57793C35.1218 7.22404 35.464 7.15744 37.5091 7.10009C39.7445 7.0374 39.8929 7.06235 40.0128 7.52095C40.1166 7.91781 40.0566 7.98186 39.6898 7.86547C39.3091 7.74463 39.2394 7.8404 39.2394 8.48421V9.24593L39.7832 8.73502L40.327 8.22411L53.8229 8.18651C61.2457 8.16582 66.9752 8.10626 66.5552 8.05414C65.9891 7.98389 65.7915 7.84162 65.7915 7.5043C65.7915 7.25402 65.6329 7.04924 65.439 7.04924C65.2432 7.04924 65.0866 7.25811 65.0866 7.51919C65.0866 7.77766 64.9808 7.98914 64.8516 7.98914C64.7224 7.98914 64.6166 7.77766 64.6166 7.51919C64.6166 7.25811 64.46 7.04924 64.2642 7.04924C64.0684 7.04924 63.9117 7.25811 63.9117 7.51919C63.9117 7.9828 63.7551 7.98914 52.3025 7.98914C40.8089 7.98914 40.6944 7.98442 40.8161 7.51919C40.936 7.06085 41.1366 7.04924 48.941 7.04924C56.2285 7.04924 56.9844 7.01253 57.407 6.63804C57.7471 6.33663 57.8985 6.30526 57.9738 6.52055C58.0509 6.741 59.143 6.81427 62.3517 6.81427C66.3676 6.81427 66.6519 6.84343 67.0384 7.2948C67.3903 7.70578 67.6781 7.76529 69.0267 7.706C70.3675 7.64706 70.6166 7.56878 70.6901 7.18335C70.772 6.75421 70.7551 6.75164 70.3716 7.1351C69.7274 7.7793 69.4388 7.4637 69.3631 6.03204C69.2851 4.55574 69.5066 4.39498 70.7948 4.99322C71.2798 5.21848 71.4277 5.45537 71.4291 6.00964C71.4308 6.8162 71.9563 7.37231 73.4117 8.10911L74.3351 8.57658L68.5947 8.72049C65.4375 8.79965 59.8672 8.87895 56.2163 8.89673L49.5783 8.92904V10.1039V11.2788L55.5114 11.284L61.4445 11.2893L60.857 11.7534C60.313 12.1832 59.9083 12.2162 55.38 12.2008C51.9945 12.1893 50.3895 12.268 50.1621 12.4567C49.6801 12.8567 49.3433 12.5309 49.3433 11.6644C49.3433 11.2456 49.2164 10.776 49.0613 10.6209C48.6691 10.2287 45.2026 10.2389 45.0509 10.6327C44.9658 10.8537 45.4394 10.9264 46.9643 10.9264C48.9073 10.9264 48.9879 10.9474 48.9207 11.4352C48.8816 11.7189 49.5895 13.3673 50.5208 15.1612C51.4395 16.9306 52.1277 18.4417 52.0503 18.5192C51.9728 18.5967 51.8483 18.4267 51.7738 18.1415ZM36.1847 11.8662C36.1847 11.6724 36.0261 11.5138 35.8322 11.5138C35.6384 11.5138 35.4798 11.6724 35.4798 11.8662C35.4798 12.0601 35.6384 12.2187 35.8322 12.2187C36.0261 12.2187 36.1847 12.0601 36.1847 11.8662ZM70.1385 5.87437C70.1385 5.44358 70.0063 5.04706 69.8448 4.99321C69.6412 4.92532 69.5511 5.19555 69.5511 5.87437C69.5511 6.55318 69.6412 6.8234 69.8448 6.75552C70.0064 6.70168 70.1385 6.30515 70.1385 5.87437ZM71.1959 6.22683C71.1959 6.03297 71.0902 5.87437 70.9609 5.87437C70.8317 5.87437 70.726 6.03297 70.726 6.22683C70.726 6.42068 70.8317 6.57929 70.9609 6.57929C71.0902 6.57929 71.1959 6.42068 71.1959 6.22683ZM39.6976 17.7523C39.5748 17.6296 39.4743 17.4445 39.4743 17.3411C39.4743 17.0752 47.6412 17.1054 47.8059 17.3719C47.8803 17.4922 47.8151 17.6685 47.661 17.7637C47.2428 18.0222 39.9571 18.0118 39.6976 17.7523ZM42.3614 16.6245C42.0438 16.2101 40.4142 13.2285 40.4142 13.0617C40.4142 12.9857 40.9694 12.9243 41.6479 12.9252L42.8815 12.9268L43.8214 14.6288C45.111 16.9641 45.1125 16.9182 43.7499 16.9182C43.0959 16.9182 42.488 16.7896 42.3614 16.6245ZM0.146695 16.1545C-0.105303 15.2142 -0.017013 13.6186 0.29231 13.5229C0.453856 13.4729 1.3262 13.38 2.23085 13.3163C3.1355 13.2527 3.6642 13.2543 3.40573 13.3198C2.50912 13.5474 2.47041 13.8634 3.33915 13.8634C3.80655 13.8634 4.2423 13.7313 4.30749 13.5697C4.37267 13.4082 4.43435 14.0426 4.44456 14.9796L4.46311 16.6831H2.37574C0.409697 16.6831 0.280144 16.6525 0.146695 16.1545ZM4.22814 16.2132C4.22814 16.084 3.85805 15.9783 3.40573 15.9783C2.9534 15.9783 2.58331 16.084 2.58331 16.2132C2.58331 16.3425 2.9534 16.4482 3.40573 16.4482C3.85805 16.4482 4.22814 16.3425 4.22814 16.2132ZM4.22814 15.0384C4.22814 14.9091 3.85805 14.8034 3.40573 14.8034C2.9534 14.8034 2.58331 14.9091 2.58331 15.0384C2.58331 15.1676 2.9534 15.2733 3.40573 15.2733C3.85805 15.2733 4.22814 15.1676 4.22814 15.0384ZM6.42788 16.0958C6.35349 15.9019 6.09246 15.7433 5.84782 15.7433C5.60317 15.7433 5.40301 15.6376 5.40301 15.5083C5.40301 15.3791 5.62073 15.2733 5.88683 15.2733C6.17012 15.2733 6.30635 15.1693 6.21552 15.0224C6.1302 14.8843 5.91249 14.8281 5.73171 14.8975C5.54405 14.9695 5.40301 14.8787 5.40301 14.6859C5.40301 14.4931 5.54405 14.4023 5.73171 14.4743C5.91249 14.5437 6.1302 14.4875 6.21552 14.3495C6.30635 14.2025 6.17012 14.0985 5.88683 14.0985C5.62073 14.0985 5.40301 13.9927 5.40301 13.8635C5.40301 13.7343 5.66736 13.6285 5.99045 13.6285C6.35596 13.6285 6.57788 13.4954 6.57788 13.2761C6.57788 12.9921 6.9434 12.9236 8.45768 12.9236C10.1808 12.9236 10.3375 12.9628 10.3375 13.3936C10.3375 13.7014 10.1808 13.8635 9.88326 13.8635C9.42405 13.8635 7.75276 15.6797 7.75276 16.1787C7.75276 16.5787 6.58514 16.5056 6.42788 16.0958ZM52.8057 13.958C52.7279 13.8801 52.1355 13.7988 51.4893 13.7773C50.1477 13.7326 49.8405 13.5405 50.1994 12.9711C50.4221 12.6178 51.0486 12.5638 55.5731 12.5077L60.6948 12.4443L62.4214 10.8041L64.1481 9.16401H68.7294H73.3107V10.2214C73.3107 11.2396 73.3368 11.2788 74.0156 11.2788C74.6157 11.2788 74.7205 11.3684 74.7205 11.8817C74.7205 13.0453 74.3398 13.3936 73.0674 13.3936C71.9797 13.3936 71.9008 13.3538 71.9008 12.8061C71.9008 12.4352 72.0335 12.2187 72.2607 12.2187C72.8255 12.2187 72.9772 11.4898 72.487 11.1313C72.0103 10.7827 71.4309 11.0727 71.4309 11.66C71.4309 11.8968 71.0681 11.9851 70.0798 11.9891C69.3367 11.992 67.4598 12.309 65.909 12.6934C62.4891 13.541 61.562 13.5901 61.562 12.9236C61.562 12.6625 61.4053 12.4537 61.2095 12.4537C61.0137 12.4537 60.857 12.6625 60.857 12.9236C60.857 13.3729 60.7004 13.3936 57.2922 13.3936C54.4508 13.3936 53.6481 13.4652 53.3373 13.7465C53.1228 13.9407 52.8835 14.0358 52.8057 13.958ZM66.2141 11.375C67.7653 10.6759 68.0659 10.4538 67.9678 10.079C67.8222 9.52224 67.4356 9.25702 67.2338 9.57554C67.1513 9.70575 66.2379 10.0663 65.2041 10.3767C63.5 10.8883 63.3173 11.0008 63.2499 11.5799C63.1867 12.1234 63.2626 12.2187 63.7588 12.2187C64.0796 12.2187 65.1844 11.839 66.2141 11.375ZM11.0424 13.1748C11.0424 12.642 11.0274 12.6396 8.17378 12.7226L5.30515 12.8061L5.14436 12.0208C4.88921 10.7747 5.15271 9.39899 5.64656 9.39899C5.99595 9.39899 6.04317 9.54843 5.93905 10.3247C5.87076 10.8338 5.88284 11.5211 5.96589 11.852C6.11375 12.4412 6.16032 12.4537 8.2076 12.4537C9.51446 12.4537 10.3305 12.3571 10.3841 12.1962C10.4446 12.0147 13.8504 11.9303 21.9175 11.9102L33.365 11.8817V10.1704V8.45909H31.6027C30.5845 8.45909 29.8404 8.5583 29.8404 8.69406C29.8404 8.8233 29.5823 8.92904 29.2668 8.92904C28.9513 8.92904 28.6279 8.8233 28.548 8.69406C28.4681 8.56483 28.0918 8.45909 27.7117 8.45909C27.3317 8.45909 27.0207 8.56483 27.0207 8.69406C27.0207 8.8233 26.7035 8.92904 26.3158 8.92904C25.928 8.92904 25.6108 8.8233 25.6108 8.69406C25.6108 8.56483 25.2999 8.45909 24.9198 8.45909C24.5397 8.45909 24.1634 8.56483 24.0835 8.69406C24.0036 8.8233 23.6802 8.92904 23.3647 8.92904C23.0492 8.92904 22.7911 8.8233 22.7911 8.69406C22.7911 8.56483 22.4802 8.45909 22.1001 8.45909C21.72 8.45909 21.3437 8.56483 21.2638 8.69406C21.1839 8.8233 20.8667 8.92904 20.5589 8.92904C20.251 8.92904 19.9338 8.8233 19.854 8.69406C19.7741 8.56483 19.3978 8.45909 19.0177 8.45909C18.6376 8.45909 18.3266 8.56483 18.3266 8.69406C18.3266 8.8233 18.0685 8.92904 17.753 8.92904C17.4376 8.92904 17.1141 8.8233 17.0343 8.69406C16.9487 8.55556 15.52 8.45761 13.5545 8.45549C11.3148 8.45308 10.3357 8.37711 10.5724 8.22411C10.7875 8.08512 15.3901 7.99493 22.3799 7.99274L33.8349 7.98918V10.3389V12.6887H22.9825C12.1635 12.6887 12.1284 12.6903 11.5862 13.1996L11.0424 13.7105V13.1748ZM1.0958 12.3552C0.908969 11.8683 1.2507 11.7038 2.79302 11.5379C4.24237 11.3821 4.5204 10.906 3.10225 11.0083C1.92292 11.0935 0.904833 10.7 1.08561 10.2289C1.19304 9.94895 1.62295 9.86908 3.01966 9.86959L4.81557 9.87025V11.2479V12.6255L3.02408 12.6686C1.61157 12.7025 1.20364 12.6362 1.0958 12.3552ZM6.34291 10.9411V9.89858L8.28153 9.90401L10.2202 9.90943L10.1377 10.9466C10.0596 11.9284 10.0169 11.9838 9.33751 11.9838C8.64396 11.9838 8.63359 11.9685 9.02931 11.5313C9.49771 11.0137 9.44653 10.3154 8.92764 10.144C8.62641 10.0445 8.6217 10.0839 8.89518 10.4152C9.31118 10.9192 9.07438 11.5138 8.45768 11.5138C7.84099 11.5138 7.6042 10.9192 8.02019 10.4152C8.29368 10.0839 8.28896 10.0445 7.98773 10.144C7.46884 10.3154 7.41767 11.0137 7.88607 11.5313C8.28403 11.971 8.26809 11.9838 7.31923 11.9838H6.3429L6.34291 10.9411ZM8.82279 11.0233C9.06494 10.6315 8.52033 10.1822 8.19618 10.5064C7.92504 10.7775 8.09474 11.2788 8.45768 11.2788C8.57166 11.2788 8.73596 11.1638 8.82279 11.0233ZM10.5725 10.2214V8.92904H13.6271H16.6818V10.2214V11.5138H13.6271H10.5725V10.2214ZM12.8753 10.3188C12.9742 9.46829 12.3811 9.01395 11.6229 9.3594C10.585 9.83228 11.0555 11.1307 12.2156 10.9952C12.6518 10.9442 12.823 10.7686 12.8753 10.3188ZM11.3554 10.4382C11.2771 10.2343 11.3862 9.8944 11.5977 9.68288C11.9538 9.32674 12.0108 9.32674 12.3669 9.68288C12.8473 10.1633 12.6268 10.8088 11.9823 10.8088C11.7157 10.8088 11.4336 10.642 11.3554 10.4382ZM12.3444 10.3233C12.5607 9.97335 12.31 9.7831 11.8601 9.95574C11.6524 10.0354 11.5484 10.2071 11.6288 10.3372C11.8193 10.6454 12.1493 10.639 12.3444 10.3233ZM16.2027 10.5909C16.7496 9.56898 15.5778 8.75372 14.7508 9.58074C14.3677 9.96383 14.3323 10.1353 14.5517 10.5452C14.8901 11.1775 15.8742 11.2047 16.2027 10.5909ZM14.86 10.5379C14.5236 10.2015 14.8967 9.39899 15.3894 9.39899C15.8822 9.39899 16.2553 10.2015 15.9189 10.5379C15.7698 10.6869 15.5316 10.8088 15.3894 10.8088C15.2473 10.8088 15.009 10.6869 14.86 10.5379ZM15.7419 10.2214C15.7419 10.0275 15.5833 9.86894 15.3894 9.86894C15.1956 9.86894 15.037 10.0275 15.037 10.2214C15.037 10.4153 15.1956 10.5739 15.3894 10.5739C15.5833 10.5739 15.7419 10.4153 15.7419 10.2214ZM18.5616 10.2378C18.5616 8.9913 18.5901 8.92905 19.1613 8.92905C19.7371 8.92905 19.7582 8.97817 19.69 10.1627C19.6281 11.2374 19.5509 11.406 19.0903 11.4714C18.5963 11.5415 18.5616 11.4606 18.5616 10.2378ZM21.3813 10.2214C21.3813 8.99953 21.4133 8.92904 21.9687 8.92904C22.5241 8.92904 22.5562 8.99953 22.5562 10.2214C22.5562 11.4433 22.5241 11.5138 21.9687 11.5138C21.4133 11.5138 21.3813 11.4433 21.3813 10.2214ZM24.4218 11.455C24.414 11.4227 24.3876 10.8411 24.3631 10.1625C24.322 9.02639 24.3603 8.92871 24.8472 8.92887C25.3313 8.92903 25.3758 9.03788 25.3758 10.2214C25.3758 11.3571 25.3189 11.5138 24.9059 11.5138C24.6474 11.5138 24.4296 11.4873 24.4218 11.455ZM27.2557 10.2214C27.2557 9.08569 27.3126 8.92904 27.7256 8.92904C28.1386 8.92904 28.1956 9.08569 28.1956 10.2214C28.1956 11.3571 28.1386 11.5138 27.7256 11.5138C27.3126 11.5138 27.2557 11.3571 27.2557 10.2214ZM30.3103 10.2331V8.92904H31.7325H33.1546L33.0836 10.1627L33.0125 11.3963L31.6614 11.4667L30.3103 11.5372L30.3103 10.2331ZM32.4157 10.7026C32.7976 10.2425 32.5165 9.45967 31.899 9.26367C31.202 9.04247 30.4469 9.95104 30.7919 10.5957C31.0754 11.1252 32.0137 11.187 32.4157 10.7026ZM31.0359 10.4812C30.826 10.2283 30.8501 10.0676 31.1414 9.77629C31.349 9.56874 31.604 9.39893 31.7082 9.39893C32.0686 9.39893 32.4326 10.0458 32.2865 10.4265C32.1068 10.895 31.4048 10.9256 31.0359 10.4812ZM31.9551 10.2213C31.9551 10.0275 31.7965 9.86888 31.6027 9.86888C31.4088 9.86888 31.2502 10.0275 31.2502 10.2213C31.2502 10.4152 31.4088 10.5738 31.6027 10.5738C31.7965 10.5738 31.9551 10.4152 31.9551 10.2213ZM17.0343 10.2213C17.0343 9.52512 17.1154 9.39893 17.5629 9.39893C18.0105 9.39893 18.0916 9.52512 18.0916 10.2213C18.0916 10.9176 18.0105 11.0438 17.5629 11.0438C17.1154 11.0438 17.0343 10.9176 17.0343 10.2213ZM19.9714 10.2213C19.9714 9.50075 20.0442 9.39893 20.5589 9.39893C21.0736 9.39893 21.1463 9.50075 21.1463 10.2213C21.1463 10.9419 21.0736 11.0438 20.5589 11.0438C20.0442 11.0438 19.9714 10.9419 19.9714 10.2213ZM23.0261 10.2213C23.0261 9.55558 23.1156 9.39893 23.4961 9.39893C23.8765 9.39893 23.966 9.55558 23.966 10.2213C23.966 10.8871 23.8765 11.0438 23.4961 11.0438C23.1156 11.0438 23.0261 10.8871 23.0261 10.2213ZM25.8458 10.2213C25.8458 9.50075 25.9185 9.39893 26.4332 9.39893C26.948 9.39893 27.0207 9.50075 27.0207 10.2213C27.0207 10.9419 26.948 11.0438 26.4332 11.0438C25.9185 11.0438 25.8458 10.9419 25.8458 10.2213ZM28.6655 10.2213C28.6655 9.50075 28.7382 9.39893 29.2529 9.39893C29.7676 9.39893 29.8404 9.50075 29.8404 10.2213C29.8404 10.9419 29.7677 11.0438 29.2529 11.0438C28.7382 11.0438 28.6655 10.9419 28.6655 10.2213ZM73.7023 10.8871C73.6162 10.801 73.5457 10.378 73.5457 9.94721V9.16401H83.5321C89.0246 9.16401 93.5978 9.13757 93.6947 9.10527C93.7916 9.07295 93.9035 9.49591 93.9432 10.0452L94.0155 11.0438H83.9372C78.3942 11.0438 73.7885 10.9733 73.7023 10.8871ZM50.0482 9.98642V9.16401H56.7911H63.5339L62.7368 9.98642L61.9397 10.8088H55.9939H50.0482V9.98642ZM5.75547 9.16401C5.44522 9.03069 6.01758 8.95645 7.43982 8.94555C8.62468 8.93647 9.76257 8.8644 9.96846 8.78539C10.2425 8.68025 10.3039 8.74324 10.1975 9.02036C10.0796 9.32766 9.69176 9.39587 8.13882 9.38247C7.08645 9.37339 6.01394 9.27508 5.75547 9.16401ZM5.21327 7.46778C5.27698 6.59362 5.35494 6.47379 5.87296 6.45377C9.81842 6.30129 9.78549 6.30525 8.92763 6.0865C8.4753 5.97116 7.76157 5.93391 7.34155 6.00371C6.75468 6.10125 6.57788 6.04658 6.57788 5.76753C6.57788 5.48145 6.86924 5.40442 7.95131 5.40442C9.56129 5.40442 10.1025 5.81993 10.1025 7.05599C10.1025 7.68978 10.1612 7.78941 10.3962 7.55433C10.6036 7.34686 10.6899 6.27984 10.6899 3.92397C10.6899 2.08888 10.7755 0.455263 10.88 0.293718C10.9973 0.112588 11.6097 0 12.4777 0H13.8853L14.7222 1.76231C15.4626 3.32147 15.6331 3.52462 16.2014 3.52462C16.5546 3.52462 17.1497 3.78761 17.5238 4.10904L18.2039 4.69346L26.1957 4.75522L34.1874 4.81699L33.2475 5.28694C32.3754 5.72301 31.7598 5.76179 24.7073 5.82496L17.107 5.89303L16.0773 4.9438C15.0644 4.01021 15.0184 3.99458 13.2799 3.99458H11.5124V4.81699V5.6394H13.9657C16.4477 5.6394 16.7784 5.74936 16.7931 6.5793C16.7979 6.85329 17.1802 6.94717 18.5103 7.00095C19.5215 7.04184 20.1645 7.16197 20.0825 7.29467C20.0022 7.42447 18.0412 7.52141 15.4343 7.52443C11.3206 7.52922 10.8734 7.56997 10.3375 7.98915C9.84678 8.37298 9.37055 8.44951 7.44553 8.45387L5.14101 8.45914L5.21327 7.46778ZM33.3062 7.56632C32.005 7.45483 32.2354 7.04924 33.6 7.04924C34.2462 7.04924 34.7748 7.14367 34.7748 7.25907C34.7748 7.55805 34.3201 7.65319 33.3062 7.56632ZM20.4414 7.28421C20.4414 7.14508 21.2983 7.04924 22.5423 7.04924C23.6978 7.04924 24.7085 7.15498 24.7884 7.28421C24.8814 7.4346 24.1251 7.51919 22.6875 7.51919C21.3467 7.51919 20.4414 7.42448 20.4414 7.28421ZM25.6108 7.28421C25.6108 7.1401 26.7465 7.04924 28.548 7.04924C30.3495 7.04924 31.4852 7.1401 31.4852 7.28421C31.4852 7.42833 30.3495 7.51919 28.548 7.51919C26.7465 7.51919 25.6108 7.42833 25.6108 7.28421ZM67.5949 7.22582C67.2704 6.98859 67.1872 6.66566 67.2441 5.86585C67.3175 4.83612 67.3351 4.81565 68.2122 4.74334L69.1055 4.66969L69.0346 6.0357C68.9743 7.19578 68.8925 7.41191 68.492 7.46933C68.2326 7.50651 67.8289 7.39693 67.5949 7.22582ZM68.6112 5.85479C68.6112 4.63052 68.0556 4.7117 67.9508 5.95128C67.8953 6.60773 67.9657 6.81427 68.2445 6.81427C68.5169 6.81427 68.6112 6.56751 68.6112 5.85479ZM17.2103 6.52056C17.2847 6.29691 19.1252 6.19881 24.9253 6.10935C29.2761 6.04225 32.7441 5.8911 33.0125 5.75689C33.3157 5.60529 37.2762 5.5636 44.1738 5.6394L54.8652 5.75689L54.8838 6.28558L54.9025 6.81427H44.6037C36.7624 6.81427 34.3189 6.74751 34.3636 6.53451C34.3959 6.38064 34.2373 6.21428 34.0112 6.16482C33.7557 6.10895 33.6 6.21489 33.6 6.44458C33.6 6.77383 32.6981 6.81427 25.3563 6.81427C18.8658 6.81427 17.1334 6.7518 17.2103 6.52056ZM55.5701 6.22684C55.5701 5.86132 55.7032 5.6394 55.9226 5.6394C56.1419 5.6394 56.275 5.86132 56.275 6.22684C56.275 6.59235 56.1419 6.81427 55.9226 6.81427C55.7032 6.81427 55.5701 6.59235 55.5701 6.22684ZM56.8539 6.4721C57.0101 6.28391 57.0697 6.01956 56.9863 5.88467C56.8951 5.73714 57.0907 5.6394 57.477 5.6394H58.1193L57.5674 6.22684C56.9856 6.84608 56.3671 7.05872 56.8539 6.4721ZM58.5073 6.13872C58.5073 5.77804 59.8835 5.6394 63.4637 5.6394C66.4675 5.6394 66.9328 5.68832 66.8164 5.99186C66.7033 6.28647 66.0102 6.34432 62.5942 6.34432C60.3464 6.34432 58.5073 6.2518 58.5073 6.13872ZM34.5986 5.00747C34.8248 4.94837 35.0098 4.80203 35.0098 4.68227C35.0098 4.35286 36.1299 4.42137 36.2519 4.75824C36.337 4.99322 36.4578 4.99322 36.8557 4.75824C37.1293 4.5967 38.086 4.46453 38.9816 4.46453C40.0703 4.46453 40.6457 4.56188 40.7177 4.75824C40.8039 4.99322 40.8877 4.99322 41.1368 4.75824C41.308 4.5967 41.7354 4.46453 42.0865 4.46453C42.4376 4.46453 42.7733 4.5967 42.8325 4.75824C42.9187 4.99322 43.0025 4.99322 43.2515 4.75824C43.6287 4.40242 46.9935 4.34959 46.9935 4.6995C46.9935 4.82873 47.1521 4.93447 47.346 4.93447C47.5398 4.93447 47.6984 4.84103 47.6984 4.72681C47.6984 4.38242 53.155 4.41104 53.3997 4.75672C53.5665 4.99248 53.6326 4.99279 53.7278 4.75824C53.8758 4.39338 55.4526 4.36598 55.4526 4.72826C55.4526 4.91229 55.5575 4.90493 55.7997 4.70392C56.0332 4.51014 56.8024 4.44304 58.1495 4.49892L60.1522 4.58199L60.1521 3.9547C60.1521 3.41061 60.3079 3.27564 61.327 2.93717C62.4297 2.57092 62.6054 2.39359 62.525 1.72816C62.4769 1.32969 63.7863 0.948461 64.5447 1.14014C65.0431 1.26611 65.3571 1.62051 65.8312 2.59193C66.1761 3.29876 66.5312 4.16785 66.6203 4.52325L66.7823 5.16943L50.4849 5.14218C41.5213 5.12718 34.3724 5.06658 34.5986 5.00747ZM65.5095 4.18255C66.3071 3.38498 65.3691 2.05623 64.3816 2.58473C63.9234 2.82998 63.7183 3.95784 64.0683 4.30787C64.3237 4.56318 65.2056 4.4865 65.5095 4.18255ZM64.3719 3.86529C64.1221 3.56439 64.1376 3.43303 64.4606 3.11002C64.8253 2.74531 64.8779 2.74531 65.2426 3.11002C65.5656 3.43303 65.581 3.56439 65.3313 3.86529C65.1651 4.06563 64.9492 4.22955 64.8516 4.22955C64.754 4.22955 64.5381 4.06563 64.3719 3.86529Z" />
</svg>
