<svg width="100" height="23" viewBox="0 0 100 23"  xmlns="http://www.w3.org/2000/svg">
<path d="M49.4704 22.8449C49.3357 22.6269 49.4709 22.1661 50.0378 20.9133L50.4751 19.9468L49.446 19.0107C47.8536 17.5622 47.7187 17.4895 47.2431 17.8226C47.0041 17.99 46.4816 18.1015 45.9363 18.1015C45.2907 18.1015 44.9983 18.1778 44.9264 18.3651C44.8413 18.587 44.2818 18.6287 41.3928 18.6287H37.9603V17.8379V17.047L39.8056 17.0431C40.8205 17.0411 43.3116 17.0392 45.3415 17.0392C47.3713 17.0392 50.5677 17.0407 52.4446 17.0431L55.8571 17.047L55.8046 17.7505C55.754 18.4295 55.6537 18.5338 52.931 20.7382C50.2292 22.9256 49.7141 23.2392 49.4704 22.8449ZM50.7895 21.7042C50.7895 21.5592 50.6709 21.4406 50.5259 21.4406C50.3809 21.4406 50.2623 21.5592 50.2623 21.7042C50.2623 21.8492 50.3809 21.9678 50.5259 21.9678C50.6709 21.9678 50.7895 21.8492 50.7895 21.7042ZM53.1992 19.5617C53.2819 19.3461 53.0273 19.0087 52.271 18.3318C51.1786 17.3542 50.7312 17.1932 50.5318 17.7061C50.4426 17.9354 50.6726 18.2473 51.4356 18.932C52.5 19.8872 53.0051 20.0675 53.1992 19.5617ZM51.7528 18.7869C50.839 18.0348 50.6217 17.75 50.9619 17.75C51.1957 17.75 52.8982 19.1792 52.8983 19.3756C52.8985 19.6405 52.6097 19.4921 51.7528 18.7869ZM55.0952 18.0328C55.0952 17.1179 53.9805 16.9366 53.8062 17.823C53.6921 18.4033 53.9242 18.6537 54.5228 18.596C55.0241 18.5477 55.0952 18.4777 55.0952 18.0328ZM54.1797 18.258C53.9012 17.9795 54.0976 17.5742 54.5111 17.5742C54.7652 17.5742 54.8412 17.6748 54.7998 17.9559C54.7337 18.4051 54.4601 18.5384 54.1797 18.258ZM44.1683 17.8101C44.2319 17.7465 44.1959 17.5883 44.0882 17.4586C43.9401 17.2801 43.2381 17.2228 41.2004 17.2228C38.624 17.2228 38.1312 17.3155 38.3997 17.75C38.52 17.9446 43.9769 18.0015 44.1683 17.8101ZM39.9374 17.6194C40.6865 17.5864 41.9123 17.5864 42.6614 17.6194C43.4105 17.6523 42.7976 17.6793 41.2994 17.6793C39.8012 17.6793 39.1883 17.6523 39.9374 17.6194ZM49.1272 17.5626C49.2889 17.3009 49.1013 17.1586 48.7649 17.2877C48.6096 17.3473 48.5318 17.4757 48.5919 17.573C48.7344 17.8035 48.9812 17.7987 49.1272 17.5626ZM77.3853 22.6808C77.0883 22.5002 76.7494 22.0879 76.6322 21.7647C76.5151 21.4414 75.9513 19.8163 75.3793 18.1532C74.4781 15.533 74.3665 15.0698 74.5431 14.6823C74.6551 14.4364 74.804 14.2352 74.8738 14.2352C75.0976 14.2352 75.2096 14.9997 75.0194 15.2288C74.804 15.4883 74.9606 15.8168 75.2997 15.8168C75.6423 15.8168 76.3253 17.9135 76.0792 18.2099C75.8613 18.4726 76.0108 18.8044 76.3469 18.8044C76.4733 18.8044 76.7725 19.3536 77.0117 20.0248C77.4088 21.1389 77.4224 21.2694 77.168 21.5238C76.9135 21.7783 76.9248 21.8118 77.2971 21.9092C77.6442 22 78.1559 22.7788 77.9823 22.9523C77.9511 22.9836 77.6823 22.8615 77.3853 22.6808ZM78.1995 22.5679C78.1011 22.309 78.0656 21.9553 78.1206 21.7819C78.1773 21.6032 78.1125 21.4039 77.9709 21.3218C77.571 21.0899 76.7817 18.7166 77.0239 18.4744C77.174 18.3243 77.131 18.2086 76.8528 18.0137C76.4477 17.73 75.7054 15.7726 75.855 15.3827C75.9061 15.2498 75.7835 14.9768 75.5827 14.776C75.0479 14.2411 75.1316 13.9347 75.9231 13.5309L76.6286 13.171L76.7728 13.5713C77.7639 16.3223 79.8512 22.663 79.7853 22.7223C79.7379 22.765 79.4019 22.8536 79.0388 22.9193C78.4357 23.0283 78.363 22.9979 78.1995 22.5679ZM59.4008 22.5664C58.4192 22.1412 57.8333 21.4613 57.0086 19.7899C56.2756 18.3042 56.0262 17.2228 56.4166 17.2228C56.5151 17.2228 56.9786 18.0334 57.4466 19.0242C58.5576 21.3763 59.3922 22.1436 60.84 22.1436C61.1356 22.1436 63.0547 21.7086 65.1047 21.177C67.1547 20.6454 68.9375 20.2104 69.0665 20.2104C69.6334 20.2104 68.9541 20.4309 66.6243 21.0029C65.0259 21.3954 63.7095 21.8376 62.9675 22.2314C61.6604 22.9251 60.484 23.0355 59.4008 22.5664ZM78.5608 17.9377C77.6691 15.3345 76.9938 13.1169 77.06 13.0098C77.1262 12.9026 77.3242 12.8606 77.5001 12.9164C77.8992 13.0431 79.8226 12.1213 79.7195 11.8526C79.6138 11.5771 81.4338 10.7199 82.1194 10.7224L82.6867 10.7244L84.4002 15.7831C85.3426 18.5653 86.1136 20.9279 86.1136 21.0332C86.1136 21.2319 84.9109 21.8781 84.7817 21.7489C84.7414 21.7086 84.1602 20.0608 83.4902 18.0872C82.8201 16.1136 82.143 14.1311 81.9855 13.6817C81.7915 13.1281 81.5751 12.831 81.3142 12.7602C80.7748 12.6138 78.1175 13.8093 77.8942 14.2988C77.759 14.5952 78.0116 15.518 79.0913 18.6726C79.8439 20.8716 80.3972 22.6708 80.3208 22.6708C80.2445 22.6708 79.4525 20.5409 78.5608 17.9377ZM63.5308 22.208C64.3564 21.7385 69.2424 20.5543 69.2424 20.8238C69.2424 20.9461 69.1435 21.1262 69.0227 21.2241C68.6208 21.5499 65.4098 22.3249 64.6403 22.2819C64.2234 22.2586 63.6846 22.3 63.4429 22.3737C63.071 22.4873 63.0845 22.4619 63.5308 22.208ZM79.442 18.8484C78.7468 16.8428 78.1644 15.0069 78.1477 14.7687C78.1232 14.4184 78.2854 14.2422 78.9961 13.8471C80.1502 13.2053 81.1543 12.8962 81.3733 13.1152C81.5617 13.3035 84.3593 21.3432 84.3509 21.6719C84.3407 22.0719 84.0031 21.2865 83.2213 19.0437C81.3565 13.6936 81.255 13.4463 80.9044 13.3932C80.4475 13.3241 78.5709 14.1695 78.4434 14.5018C78.3872 14.6482 78.9433 16.4687 79.6792 18.5475C80.415 20.6262 81.0171 22.3648 81.0171 22.411C81.0171 22.4573 80.9471 22.4951 80.8615 22.4951C80.7759 22.4951 80.1371 20.8541 79.442 18.8484ZM82.1632 22.0611C83.2761 21.7093 84.1159 21.5575 83.9169 21.7442C83.7374 21.9124 82.0362 22.3334 81.6628 22.302C81.5493 22.2924 81.7745 22.184 82.1632 22.0611ZM81.2807 21.8358C81.3774 21.7414 81.8519 21.5707 82.3352 21.4566C82.8185 21.3424 83.3622 21.2046 83.5435 21.1502C83.7404 21.0912 83.829 21.1227 83.7637 21.2284C83.7035 21.3257 83.2389 21.4992 82.7312 21.6141C82.2234 21.7289 81.6498 21.8643 81.4565 21.9151C81.226 21.9756 81.1655 21.9483 81.2807 21.8358ZM59.3829 21.3967C58.9479 21.1087 58.5148 20.4763 57.7881 19.0681C56.7351 17.0277 56.6732 16.8713 56.9188 16.8713C57.0035 16.8713 57.4506 17.659 57.9123 18.6217C59.4833 21.8973 59.6245 21.9348 65.1373 20.541C68.712 19.6372 69.7394 19.4465 69.4035 19.7492C69.3633 19.7855 67.6037 20.26 65.4935 20.8037C61.2209 21.9044 60.2865 21.9951 59.3829 21.3967ZM80.8414 21.2863C80.8414 21.1291 82.8583 20.5619 83.417 20.5619C84.0077 20.5619 83.3889 20.8652 82.2112 21.1528C80.8382 21.4881 80.8414 21.4878 80.8414 21.2863ZM86.386 20.7259C86.3349 20.5874 85.5432 18.2795 84.6264 15.5972L82.9597 10.7204H83.4822C83.7696 10.7204 84.0047 10.7522 84.0047 10.7912C84.0047 10.8301 84.7267 12.9727 85.6091 15.5526L87.2135 20.2432L86.8461 20.6105C86.552 20.9046 86.4603 20.9276 86.386 20.7259ZM48.4609 19.5721C47.7118 18.9498 47.0989 18.3728 47.0989 18.2899C47.0989 17.9927 47.6827 17.9227 48.0463 18.1763C48.2502 18.3184 48.798 18.7749 49.2637 19.1908C49.9678 19.8195 50.0862 20.0105 49.9666 20.3252C49.8311 20.682 49.7453 20.6391 48.4609 19.5721ZM80.6656 20.5899C80.6656 20.5086 81.0808 20.3487 81.5883 20.2346C82.0957 20.1204 82.6889 19.98 82.9064 19.9225C83.1238 19.865 83.3018 19.8967 83.3018 19.9928C83.3018 20.089 82.7912 20.296 82.1673 20.4527C80.8737 20.7776 80.6656 20.7966 80.6656 20.5899ZM64.114 19.877C64.235 18.6086 62.9647 14.8871 62.2368 14.3773C61.9172 14.1535 61.8913 14.0401 62.0406 13.5194C62.1353 13.1894 62.2133 12.6421 62.2139 12.3032L62.2149 11.6869L63.2242 11.6371C64.0331 11.5972 64.3135 11.5012 64.6361 11.1538C64.8574 10.9154 65.1172 10.7204 65.2133 10.7204C65.6149 10.7204 64.178 11.7491 63.7006 11.8034C63.2113 11.859 63.1678 11.9278 62.9966 12.9171C62.8168 13.9566 62.8223 13.9823 63.3862 14.7244C63.9912 15.5204 64.7428 17.6336 64.9966 19.2521C65.1594 20.2905 65.1622 20.2839 64.4931 20.4431C64.0707 20.5436 64.053 20.5168 64.114 19.877ZM80.419 19.8864C80.2777 19.6578 80.3642 19.6118 81.6089 19.2545C82.6086 18.9675 83.126 18.9824 83.126 19.2983C83.126 19.3826 82.7108 19.545 82.2034 19.6591C81.6959 19.7733 81.1117 19.9114 80.9052 19.966C80.6986 20.0207 80.4798 19.9848 80.419 19.8864ZM65.1498 18.9363C64.9989 17.5407 64.3872 15.7739 63.7027 14.7567C63.1389 13.919 63.1006 13.7802 63.2258 13.03C63.3409 12.3401 63.4292 12.2051 63.7978 12.1553C64.0376 12.1229 64.4315 11.9116 64.6731 11.6858C65.2326 11.1628 66.2837 10.9468 66.573 11.2954C66.7378 11.494 66.7046 11.6147 66.4119 11.8795C65.9303 12.3154 65.5518 13.0598 65.5518 13.5711C65.5518 13.7954 65.9141 14.5979 66.357 15.3544C67.2767 16.9256 68.0966 18.9678 67.8889 19.1704C67.7821 19.2746 65.5865 19.859 65.3019 19.859C65.2731 19.859 65.2046 19.4438 65.1498 18.9363ZM67.3166 19.0593C67.5033 18.8343 67.4918 18.736 67.2502 18.4944C66.9774 18.2216 66.9381 18.2216 66.6653 18.4944C66.4237 18.736 66.4122 18.8343 66.5989 19.0593C66.7233 19.2091 66.8847 19.3317 66.9577 19.3317C67.0307 19.3317 67.1922 19.2091 67.3166 19.0593ZM66.782 18.8045C66.782 18.7079 66.8611 18.6288 66.9577 18.6288C67.0544 18.6288 67.1335 18.7078 67.1335 18.8045C67.1335 18.9012 67.0544 18.9803 66.9577 18.9803C66.8611 18.9803 66.782 18.9012 66.782 18.8045ZM64.4095 13.0953C64.4095 12.6932 63.8195 12.5043 63.612 12.84C63.3947 13.1917 63.6296 13.5557 64.0364 13.4976C64.2736 13.4638 64.4095 13.3172 64.4095 13.0953ZM25.6584 19.3256C25.6584 19.1288 25.7833 18.7772 25.9361 18.544C26.0888 18.3109 26.1998 17.8194 26.1827 17.4518C26.1655 17.0842 26.1592 16.6846 26.1686 16.5638C26.1814 16.3983 26.8512 16.3441 28.8823 16.3441C31.3559 16.3441 31.6054 16.3732 31.8972 16.6956C32.1779 17.0058 32.4385 17.0471 34.115 17.0471C35.8349 17.0471 36.0326 17.0138 36.2029 16.6956C36.3354 16.4479 36.5709 16.3441 36.9999 16.3441H37.6088L37.5793 17.7061C37.563 18.4552 37.5195 18.7518 37.4824 18.3652C37.4454 17.9785 37.2854 17.5633 37.1269 17.4425C36.7655 17.1671 31.7748 17.1349 31.2706 17.4048C31.0222 17.5377 30.9306 17.7744 30.9306 18.2835V18.9802H29.0212C27.3778 18.9802 27.0494 19.0292 26.6649 19.3317C26.0862 19.7869 25.6584 19.7843 25.6584 19.3256ZM30.7226 17.3546L30.7782 16.8713H29.097C27.4529 16.8713 27.4158 16.8804 27.4158 17.2814C27.4158 17.507 27.4713 17.747 27.5393 17.815C27.6072 17.8829 28.3387 17.9158 29.1649 17.8882C30.6588 17.8382 30.6673 17.8353 30.7226 17.3546ZM27.5915 17.3107C27.5915 17.1115 27.8063 17.0471 28.4702 17.0471C29.1341 17.0471 29.3489 17.1115 29.3489 17.3107C29.3489 17.5099 29.1341 17.5743 28.4702 17.5743C27.8063 17.5743 27.5915 17.5099 27.5915 17.3107ZM29.5677 17.3546C29.679 17.0167 30.4034 16.968 30.4034 17.2985C30.4034 17.4779 30.2447 17.5743 29.9494 17.5743C29.6648 17.5743 29.5224 17.4924 29.5677 17.3546ZM26.8885 16.7731C26.8885 16.4831 26.6108 16.4341 26.4492 16.6956C26.3059 16.9275 26.516 17.2566 26.725 17.1275C26.8149 17.0718 26.8885 16.9124 26.8885 16.7731ZM68.1348 19.1211C68.2374 18.5844 67.6593 17.1234 66.682 15.45C65.7266 13.8139 65.6761 13.1635 66.4305 12.2142C67.0278 11.4626 67.041 11.4134 66.7381 11.0657C66.6173 10.927 66.7358 11.004 67.0017 11.2369C67.5915 11.7536 67.5922 11.7769 67.0456 12.5824C66.804 12.9385 66.6064 13.3967 66.6067 13.6007C66.6068 13.8047 67.0033 14.6781 67.4877 15.5416C68.3305 17.0442 69.1937 19.0875 69.0474 19.2338C69.0093 19.2719 68.7705 19.3553 68.5169 19.4189C68.1044 19.5225 68.0641 19.4911 68.1348 19.1211ZM86.2184 16.3881C85.6518 14.6724 84.954 12.6162 84.6678 11.8188L84.1472 10.3689H82.9293C81.885 10.3689 81.5355 10.4574 80.4786 10.9897C79.8007 11.3311 79.2915 11.6841 79.3472 11.7742C79.4029 11.8643 79.0561 12.1369 78.5766 12.3799C78.0312 12.6562 77.6807 12.7496 77.6406 12.6291C77.6023 12.5143 76.9941 12.7294 76.1334 13.1621C74.3284 14.0697 74.222 13.8681 76.0104 12.9291C76.7343 12.549 77.3265 12.1458 77.3265 12.0331C77.3265 11.7985 78.6985 11.1343 79.0274 11.2098C79.1474 11.2372 79.7264 11.017 80.3141 10.7204C81.3254 10.2099 81.4773 10.1837 83.1512 10.231L84.9197 10.281L86.3002 14.4973C87.5543 18.3277 87.8051 19.5075 87.365 19.5075C87.3009 19.5075 86.7849 18.1037 86.2184 16.3881ZM31.2821 18.3695V17.5743H34.192H37.1018L37.0478 18.3212L36.9937 19.0681L34.1379 19.1164L31.2821 19.1647V18.3695ZM80.076 18.8954C79.9305 18.516 82.3905 17.7645 82.6108 18.121C82.8128 18.4479 82.6738 18.5435 81.5173 18.8729C80.2976 19.2204 80.2013 19.2219 80.076 18.8954ZM79.7089 17.9759C79.6506 17.824 79.6257 17.677 79.6535 17.6492C79.7333 17.5694 82.1433 16.7079 82.1751 16.7477C82.1908 16.7674 82.2551 16.9511 82.3179 17.156C82.4115 17.4609 82.3437 17.5478 81.9444 17.6345C81.676 17.6928 81.0871 17.8556 80.6357 17.9963C79.9002 18.2255 79.8038 18.2233 79.7089 17.9759ZM92.3041 16.0859C90.4275 14.3782 90.1921 14.3608 88.6757 15.8169C87.561 16.8873 87.3438 17.0271 87.3438 16.6745C87.3438 16.5663 86.858 14.9846 86.2643 13.1597L85.1847 9.84166L83.1448 9.84459C81.2321 9.84751 81.048 9.87917 80.1914 10.3515C79.3522 10.8142 79.084 10.8603 79.084 10.5418C79.084 10.4759 79.4003 10.2794 79.7869 10.105C80.5848 9.74524 80.6067 9.7052 80.1823 9.38307C79.7446 9.05077 73.0618 9.03508 72.7874 9.36569C72.6452 9.53701 72.8375 9.89399 73.5686 10.8156C74.1019 11.488 74.6408 12.1432 74.7661 12.2715C74.9548 12.4647 75.2999 12.3513 76.7753 11.6108C77.7551 11.1192 78.5567 10.7558 78.5567 10.8034C78.5567 10.851 78.1613 11.0903 77.678 11.3352C77.1947 11.5801 76.7993 11.8587 76.7993 11.9544C76.7993 12.1427 73.517 13.8322 73.4079 13.7C73.3715 13.6559 72.7329 12.8092 71.9886 11.8185L70.6355 10.0171H68.1815C66.8114 10.0171 65.7276 9.94597 65.7276 9.85602C65.7276 9.76742 65.7869 9.66857 65.8594 9.63635C65.9319 9.60412 66.4556 9.04394 67.0232 8.39151L68.0551 7.20525L69.9229 7.21218L71.7907 7.21912L72.3674 8.0031L72.9441 8.78709H84.2677C97.1118 8.78709 95.8274 8.95611 96.0556 7.23581C96.1693 6.37873 96.2053 6.3267 96.6833 6.3267H97.1904L97.144 11.8186L97.0976 17.3106L95.428 17.3598L93.7585 17.4091L92.3041 16.0859ZM96.746 15.1139C96.746 14.985 96.6472 14.8467 96.5264 14.8064C96.3957 14.7628 96.3067 14.8874 96.3067 15.1139C96.3067 15.3404 96.3957 15.465 96.5264 15.4215C96.6472 15.3812 96.746 15.2428 96.746 15.1139ZM95.8485 15.0117C96.0551 14.4734 95.9663 10.0988 95.7443 9.87681C95.6283 9.76082 95.2426 9.66592 94.8871 9.66592C94.527 9.66592 94.1439 9.54918 94.022 9.40231C93.7205 9.03896 87.1432 9.00876 86.844 9.36938C86.7021 9.54027 86.8007 10.0526 87.224 11.3465C87.7585 12.9799 87.8235 13.0889 88.2287 13.0316C88.4669 12.9978 89.3167 12.9326 90.1169 12.8867L91.572 12.8032L93.0013 14.0464C94.2233 15.1093 94.5258 15.2897 95.0863 15.2897C95.522 15.2897 95.7776 15.1964 95.8485 15.0117ZM93.1661 13.8717L91.731 12.6296L90.1086 12.69C89.2163 12.7232 88.3753 12.7879 88.2398 12.8338C88.0615 12.8941 87.856 12.4805 87.4956 11.3355C87.2218 10.4655 86.9965 9.69447 86.995 9.62198C86.9934 9.54949 88.5248 9.49017 90.3978 9.49017C93.2105 9.49017 93.8414 9.53605 94.022 9.75379C94.1477 9.90517 94.5309 10.0174 94.9223 10.0174H95.6037V12.5657V15.1139H95.1025C94.734 15.1139 94.2213 14.785 93.1661 13.8717ZM94.9902 13.5297C95.1537 13.2652 94.9257 12.7007 94.6057 12.5779C93.7863 12.2635 93.171 13.1965 93.8403 13.7385C94.2318 14.0555 94.7201 13.9668 94.9902 13.5297ZM94.0404 13.5471C93.7081 13.3369 93.9397 12.7876 94.3291 12.8626C94.4985 12.8952 94.6371 13.0724 94.6371 13.2564C94.6371 13.6463 94.3886 13.7674 94.0404 13.5471ZM87.9466 13.6881C87.7969 13.4458 87.3438 13.5048 87.3438 13.7666C87.3438 13.8954 87.3959 14.0529 87.4595 14.1165C87.6184 14.2754 88.0662 13.8816 87.9466 13.6881ZM70.6465 9.22879C70.9118 8.90908 70.765 8.466 70.3448 8.31809C70.1734 8.25779 69.8222 8.01369 69.5642 7.77565C69.0216 7.27488 68.7784 7.36278 68.4354 8.18373C68.0945 8.99958 68.2609 9.28358 69.1258 9.36223C69.5282 9.39885 69.9862 9.44258 70.1435 9.45946C70.3008 9.47636 70.5272 9.37255 70.6465 9.22879ZM69.8904 9.20095C69.6417 8.95218 69.7824 8.61147 70.134 8.61147C70.3797 8.61147 70.4799 8.70691 70.4416 8.90446C70.3788 9.22791 70.0788 9.38931 69.8904 9.20095ZM68.5394 8.64507C68.5394 8.47022 68.6509 8.17471 68.7872 7.98836C69.029 7.65766 69.0435 7.65738 69.3966 7.97691C69.6771 8.23071 69.7187 8.37823 69.582 8.63361C69.3477 9.07145 68.5394 9.08034 68.5394 8.64507ZM96.8339 7.46915C96.8339 7.32416 96.7153 7.20554 96.5703 7.20554C96.4253 7.20554 96.3067 7.32416 96.3067 7.46915C96.3067 7.61414 96.4253 7.73276 96.5703 7.73276C96.7153 7.73276 96.8339 7.61414 96.8339 7.46915ZM79.3643 16.9393C79.3021 16.7776 79.2731 16.6329 79.2995 16.6177C79.3259 16.6025 79.8822 16.3833 80.5357 16.1306C81.6714 15.6913 81.7314 15.6853 81.8972 15.9952C82.0482 16.2773 81.9513 16.3634 81.1485 16.6608C79.5687 17.2458 79.4868 17.2586 79.3643 16.9393ZM97.5369 11.0719V4.89754L98.0202 4.95315L98.5035 5.00876V11.0719V17.135L98.0202 17.1906L97.5369 17.2462V11.0719ZM31.8972 16.3441C31.7223 16.1507 31.4925 15.9927 31.3867 15.9929C31.2638 15.9931 31.1942 15.5009 31.1942 14.6309V13.2686H30.4913H29.7883L29.736 14.4706C29.7072 15.1318 29.7599 15.7645 29.8531 15.8766C29.9803 16.0295 29.592 16.0655 28.298 16.0206C27.1873 15.9821 26.4339 16.0354 26.1814 16.1706C25.6208 16.4706 25.4885 16.167 25.4853 14.5733C25.4829 13.407 25.533 13.1946 25.8894 12.8598L26.2961 12.4777H35.7895C41.0109 12.4777 45.3383 12.5331 45.406 12.6008C45.4737 12.6685 44.638 13.6175 43.5489 14.7097L41.5688 16.6955H39.8068C38.2352 16.6955 38.0211 16.6576 37.8254 16.3441C37.6659 16.0888 37.4155 15.9926 36.9105 15.9926C36.3951 15.9926 36.1666 16.0835 36.0271 16.3441C35.8577 16.6606 35.6592 16.6955 34.0272 16.6955C32.4385 16.6955 32.1761 16.6523 31.8972 16.3441ZM43.9355 14.6745C45.7725 12.8323 46.0077 12.6535 46.5939 12.6535C47.0035 12.6535 47.2738 12.7492 47.3382 12.9171C47.4489 13.2056 48.2685 13.2693 48.6622 13.02C48.7972 12.9346 48.8589 12.7381 48.7996 12.5833C48.7069 12.342 48.8656 12.302 49.9163 12.302H51.141V12.9171C51.141 13.415 51.074 13.5322 50.7895 13.5322C50.474 13.5322 50.438 13.6493 50.438 14.6745C50.438 15.6997 50.4741 15.8168 50.7895 15.8168C51.0472 15.8168 51.141 15.934 51.141 16.2562V16.6955H46.5306H41.9202L43.9355 14.6745ZM49.7651 15.1745C50.1639 14.8136 50.1737 14.447 49.7957 14.0293C49.3863 13.577 46.1553 13.5531 45.6629 13.9988C45.2684 14.3557 45.2507 14.8222 45.6176 15.1892C46.0268 15.5983 49.3096 15.5867 49.7651 15.1745ZM45.6209 14.828C45.5069 14.5311 45.7878 14.0594 46.0785 14.0594C46.1702 14.0594 46.1183 14.1864 45.9631 14.3416C45.7452 14.5595 45.7272 14.6797 45.8842 14.8689C46.0082 15.0184 46.0179 15.1139 45.909 15.1139C45.8109 15.1139 45.6812 14.9852 45.6209 14.828ZM49.5438 14.8689C49.7008 14.6797 49.6828 14.5595 49.4649 14.3416C49.3097 14.1864 49.2577 14.0594 49.3495 14.0594C49.4412 14.0594 49.6064 14.168 49.7165 14.3007C49.9362 14.5654 49.8029 15.1139 49.519 15.1139C49.4101 15.1139 49.4198 15.0183 49.5438 14.8689ZM51.4494 16.2562C51.5392 15.7869 52.0197 15.6388 52.0197 16.0804C52.0197 16.3018 52.4016 16.344 54.4026 16.344C55.9464 16.344 56.7472 16.4059 56.6768 16.5198C56.6123 16.6241 55.5115 16.6955 53.9668 16.6955H51.3654L51.4494 16.2562ZM98.9055 12.961C98.8777 10.907 98.8775 8.3712 98.905 7.32584C98.9537 5.47654 98.9655 5.42668 99.3444 5.48054C99.6476 5.52368 99.7467 5.67199 99.7922 6.15101C99.8556 6.81781 99.5432 8.08417 99.3153 8.08417C99.1794 8.08417 99.1985 9.23313 99.3681 11.2475C99.4129 11.7791 99.4664 12.2537 99.4873 12.302C99.5416 12.4282 99.627 13.1395 99.7041 14.1072C99.7408 14.5685 99.8219 14.9969 99.8841 15.0592C100.1 15.2752 99.996 16.1446 99.7212 16.4194C99.0163 17.1243 98.9586 16.8806 98.9055 12.961ZM52.2833 15.9926C52.2235 15.8959 52.3063 15.8168 52.4672 15.8168C52.6281 15.8168 52.9947 15.6191 53.2819 15.3775C53.5691 15.1358 53.9166 14.9381 54.0542 14.9381C54.2389 14.9381 54.3043 14.6957 54.3043 14.0111C54.3043 13.091 54.3142 13.0742 55.6224 11.7748C56.3473 11.0547 56.9405 10.3693 56.9405 10.2518C56.9405 9.6371 56.4159 9.93328 54.9888 11.3538C53.6287 12.7076 53.4256 12.988 53.4256 13.5118C53.4256 14.0687 53.4025 14.094 53.1181 13.8497C52.9489 13.7045 52.6721 13.5365 52.503 13.4765C52.3056 13.4065 52.1954 13.1844 52.1954 12.8564C52.1954 12.4487 52.4823 12.0652 53.6124 10.9616L55.0294 9.57798L58.182 9.49011C59.9159 9.44179 61.3344 9.46156 61.3343 9.53405C61.3341 9.60653 61.2494 9.66586 61.146 9.66586C61.0427 9.66586 60.9833 9.84379 61.0142 10.0613C61.0664 10.4282 61.1587 10.4567 62.2982 10.4567C63.3602 10.4567 63.5346 10.4121 63.5896 10.1263C63.6246 9.94454 63.5537 9.73436 63.4322 9.65922C63.3088 9.58297 63.7285 9.49599 64.3818 9.46242C65.0257 9.42934 65.5524 9.42709 65.5522 9.45749C65.552 9.48787 65.2157 9.90303 64.8049 10.38L64.058 11.2474L61.1854 11.2474C58.7871 11.2475 58.2285 11.2973 57.8023 11.549L57.2919 11.8505V13.7985C57.2919 15.0793 57.2197 15.8188 57.081 15.9574C56.8166 16.2219 52.4448 16.2539 52.2833 15.9926ZM56.7567 15.7386C56.8726 15.599 56.9416 15.3024 56.91 15.0796C56.8657 14.767 56.7236 14.662 56.2874 14.6199C55.8061 14.5733 55.7055 14.6323 55.6088 15.0176C55.4099 15.8101 56.2562 16.3417 56.7567 15.7386ZM55.886 15.3084C55.886 14.9157 56.2923 14.7118 56.5538 14.9733C56.8153 15.2348 56.6114 15.6411 56.2187 15.6411C56.0094 15.6411 55.886 15.5177 55.886 15.3084ZM56.3741 14.1373C57.0913 13.635 56.6951 12.302 55.8287 12.302C54.9075 12.302 54.4741 13.6134 55.2221 14.1373C55.437 14.2878 55.6962 14.4109 55.7981 14.4109C55.9001 14.4109 56.1593 14.2878 56.3741 14.1373ZM55.2356 13.8397C54.9363 13.444 55.0145 12.8377 55.3909 12.6363C55.6535 12.4957 55.7199 12.4956 55.6332 12.6359C55.5652 12.7461 55.6361 12.8292 55.7981 12.8292C55.9601 12.8292 56.0311 12.7461 55.963 12.6359C55.8763 12.4956 55.9428 12.4957 56.2053 12.6362C56.8565 12.9848 56.549 14.0594 55.7981 14.0594C55.5802 14.0594 55.327 13.9605 55.2356 13.8397ZM56.0899 13.5082C55.8811 13.431 55.7103 13.321 55.7103 13.2639C55.7103 13.2067 55.7893 13.2088 55.886 13.2684C55.9827 13.3281 56.0617 13.2885 56.0617 13.1805C56.0617 13.0724 56.1408 13.0329 56.2375 13.0926C56.3341 13.1524 56.4132 13.1333 56.4132 13.0503C56.4132 12.9672 56.1364 12.8993 55.7981 12.8993C55.4598 12.8993 55.183 12.94 55.183 12.9898C55.183 13.2285 56.0035 13.8215 56.2217 13.7405C56.4006 13.6741 56.3639 13.6095 56.0899 13.5082ZM60.2796 9.92946C60.2796 9.72709 60.055 9.66585 59.313 9.66585C58.571 9.66585 58.3464 9.72708 58.3464 9.92946C58.3464 10.1318 58.571 10.1931 59.313 10.1931C60.055 10.1931 60.2796 10.1318 60.2796 9.92946ZM59.0054 9.8933C59.2229 9.85141 59.5788 9.85141 59.7963 9.8933C60.0137 9.9352 59.8358 9.96946 59.4008 9.96946C58.9659 9.96946 58.7879 9.93519 59.0054 9.8933ZM78.9938 15.9889C78.9329 15.8902 79.1654 15.6925 79.5107 15.5495C79.8559 15.4066 80.4273 15.1699 80.7805 15.0237C81.1336 14.8774 81.4597 14.7949 81.5052 14.8404C81.7406 15.0758 81.291 15.4465 80.357 15.7871C79.1531 16.2261 79.1415 16.2278 78.9938 15.9889ZM2.22607 15.8754C2.16163 15.811 2.10891 15.0992 2.10891 14.2937C2.10891 13.0621 2.1541 12.8292 2.39302 12.8292C2.6112 12.8292 2.64525 12.921 2.53974 13.2246C2.36281 13.7338 2.36281 15.0879 2.53974 15.5971C2.67057 15.9737 2.4871 16.1364 2.22607 15.8754ZM19.5369 15.7729C19.5122 15.5153 19.3257 15.4653 18.3889 15.4653H17.2705L16.9972 14.7184C16.847 14.3076 16.6776 13.7738 16.621 13.5322L16.5179 13.0928L16.7125 13.5322C17.1386 14.4941 17.1452 14.4988 18.1014 14.4988C19.0437 14.4988 19.1173 14.4506 19.4449 13.6201C19.5522 13.3482 19.5972 13.4388 19.6437 14.0201C19.6767 14.4335 19.6729 15.0661 19.6351 15.4261C19.5974 15.786 19.5532 15.942 19.5369 15.7729ZM29.8762 14.5866V13.5322H30.4034H30.9306V14.5866V15.6411H30.4034H29.8762V14.5866ZM50.6844 15.396C50.6327 15.2611 50.6153 14.8459 50.646 14.4733L50.7016 13.7958L51.7121 13.7431L52.7227 13.6904V14.6657V15.6411H51.7506C51.0812 15.6411 50.7492 15.5648 50.6844 15.396ZM5.1283 15.1372C4.98303 15.0451 4.91741 14.7344 4.95256 14.3051C5.00735 13.636 5.02588 13.6188 5.74975 13.5663C6.41784 13.5178 6.50194 13.5568 6.60357 13.9617C6.66558 14.2088 6.66669 14.6086 6.606 14.8502C6.51663 15.2063 6.38808 15.2891 5.92791 15.2869C5.61561 15.2854 5.25581 15.2181 5.1283 15.1372ZM7.02969 15.026C7.02969 14.8809 7.18529 14.7624 7.37566 14.7624C7.61098 14.7624 7.68928 14.8467 7.62047 15.026C7.56483 15.171 7.40915 15.2896 7.2745 15.2896C7.13985 15.2896 7.02969 15.171 7.02969 15.026ZM8.0239 15.0346C7.94639 14.8326 8.03514 14.7624 8.36792 14.7624C8.64855 14.7624 8.78902 14.8446 8.74326 14.982C8.63393 15.3104 8.14348 15.3462 8.0239 15.0346ZM9.07504 15.026C8.99927 14.8285 9.10344 14.7624 9.49008 14.7624C9.87672 14.7624 9.98088 14.8285 9.90512 15.026C9.84948 15.171 9.66271 15.2896 9.49008 15.2896C9.31744 15.2896 9.13068 15.171 9.07504 15.026ZM10.3102 15.1724C10.0722 14.9344 10.205 14.7624 10.6269 14.7624C10.9403 14.7624 11.0327 14.8355 10.9596 15.026C10.8546 15.2995 10.514 15.3763 10.3102 15.1724ZM11.3647 15.1724C11.1266 14.9344 11.2595 14.7624 11.6813 14.7624C11.9948 14.7624 12.0871 14.8355 12.014 15.026C11.9091 15.2995 11.5685 15.3763 11.3647 15.1724ZM12.4141 15.026C12.3413 14.8361 12.4328 14.7624 12.7413 14.7624C13.0498 14.7624 13.1413 14.8361 13.0685 15.026C13.0128 15.171 12.8656 15.2896 12.7413 15.2896C12.617 15.2896 12.4698 15.171 12.4141 15.026ZM13.4686 15.026C13.3928 14.8285 13.497 14.7624 13.8836 14.7624C14.2703 14.7624 14.3744 14.8285 14.2987 15.026C14.243 15.171 14.0563 15.2896 13.8836 15.2896C13.711 15.2896 13.5242 15.171 13.4686 15.026ZM14.5866 15.0176C14.5866 14.7958 14.7869 14.7553 15.671 14.7979C16.3425 14.8303 16.7831 14.9339 16.828 15.0699C16.8811 15.2308 16.5907 15.2896 15.7436 15.2896C14.8165 15.2896 14.5866 15.2356 14.5866 15.0176ZM78.7325 15.0876C78.7325 14.756 81.0609 13.8606 81.2344 14.1255C81.3165 14.2507 81.0429 14.4666 80.4871 14.7152C79.24 15.273 78.7325 15.3808 78.7325 15.0876ZM2.63614 14.323C2.63614 13.745 2.70099 13.5245 2.85581 13.5761C2.98062 13.6177 3.07549 13.9403 3.07549 14.323C3.07549 14.7057 2.98062 15.0283 2.85581 15.0699C2.70099 15.1215 2.63614 14.901 2.63614 14.323ZM52.9392 14.5866C52.9392 14.2483 52.9753 14.1099 53.0195 14.2791C53.0637 14.4482 53.0637 14.725 53.0195 14.8942C52.9753 15.0633 52.9392 14.9249 52.9392 14.5866ZM57.6136 14.4144C57.5766 14.0258 57.6077 13.7079 57.6827 13.7079C57.7578 13.7079 57.8192 13.789 57.8192 13.888C57.8192 13.9871 58.0366 14.1547 58.3025 14.2604C58.5742 14.3686 58.6896 14.4885 58.5661 14.5344C58.4452 14.5792 58.3464 14.6931 58.3464 14.7874C58.3464 14.8817 58.4452 14.902 58.5661 14.8324C58.6869 14.7629 58.7234 14.7744 58.6473 14.858C58.5712 14.9416 58.3226 15.0349 58.0949 15.0654C57.7285 15.1145 57.6733 15.0399 57.6136 14.4144ZM58.2607 14.4423C58.121 14.3027 57.8188 14.6197 57.9261 14.7933C57.9991 14.9114 58.0897 14.8934 58.1831 14.7423C58.2624 14.614 58.2973 14.479 58.2607 14.4423ZM60.5871 14.9829C59.2262 14.9372 58.8736 14.8725 58.8736 14.6682C58.8736 14.4617 59.1806 14.4109 60.4281 14.4109C61.7593 14.4109 62.0282 14.4614 62.3006 14.7624C62.4755 14.9557 62.5471 15.0973 62.4596 15.0771C62.3722 15.0569 61.5295 15.0145 60.5871 14.9829ZM3.3391 14.4109C3.3391 13.9255 3.38792 13.8837 3.9542 13.8837C4.52048 13.8837 4.5693 13.9255 4.5693 14.4109C4.5693 14.8963 4.52048 14.9381 3.9542 14.9381C3.38792 14.9381 3.3391 14.8963 3.3391 14.4109ZM53.2637 14.6599C53.2722 14.4551 53.3138 14.4135 53.3699 14.5537C53.4207 14.6805 53.4145 14.8321 53.3561 14.8905C53.2977 14.9489 53.2561 14.8451 53.2637 14.6599ZM53.748 13.8211C53.8052 12.9044 53.8437 12.8427 55.1978 11.4964C55.963 10.7358 56.589 10.1927 56.589 10.2895C56.589 10.3863 55.9958 11.0547 55.2709 11.7748C53.9975 13.0397 53.9528 13.1124 53.9528 13.9232C53.9528 14.3847 53.8935 14.7625 53.821 14.7626C53.7485 14.7627 53.7157 14.3391 53.748 13.8211ZM7.02969 14.4109C7.02969 14.2981 8.72853 14.2351 11.7747 14.2351C14.8209 14.2351 16.5198 14.2981 16.5198 14.4109C16.5198 14.5237 14.8209 14.5866 11.7747 14.5866C8.72853 14.5866 7.02969 14.5237 7.02969 14.4109ZM17.1 13.6432C17.0001 13.3177 16.9575 12.6444 17.0053 12.1471C17.1013 11.1475 17.3189 10.9926 18.4725 11.1028C19.0446 11.1574 19.0725 11.1942 19.1808 12.0384C19.2429 12.5217 19.2106 13.2136 19.1091 13.5761C18.9295 14.2173 18.9023 14.2351 18.1031 14.2351C17.3236 14.2351 17.2724 14.205 17.1 13.6432ZM18.3507 13.777C18.5036 13.7183 18.6287 13.4811 18.6287 13.2498C18.6287 12.9169 18.5359 12.8292 18.1838 12.8292C17.6661 12.8292 17.4392 13.2457 17.7518 13.6223C18.0008 13.9223 17.9836 13.9179 18.3507 13.777ZM17.9257 13.2686C17.9257 13.1075 18.0107 13.004 18.1146 13.0386C18.2185 13.0733 18.3035 13.1767 18.3035 13.2686C18.3035 13.3604 18.2185 13.4639 18.1146 13.4985C18.0107 13.5331 17.9257 13.4297 17.9257 13.2686ZM18.6287 12.0572C18.6287 11.5438 18.1339 11.3155 17.7826 11.6668C17.4257 12.0237 17.6503 12.4777 18.1838 12.4777C18.5359 12.4777 18.6287 12.39 18.6287 12.0572ZM17.9257 12.0384C17.9257 11.8773 18.0107 11.7738 18.1146 11.8085C18.2185 11.8431 18.3035 11.9466 18.3035 12.0384C18.3035 12.1302 18.2185 12.2337 18.1146 12.2683C18.0107 12.3029 17.9257 12.1995 17.9257 12.0384ZM7.02969 13.7079C7.02969 13.5146 7.13909 13.3565 7.2728 13.3565C7.40652 13.3565 7.55728 13.5146 7.60784 13.7079C7.67601 13.9687 7.61327 14.0594 7.36472 14.0594C7.14685 14.0594 7.02969 13.9365 7.02969 13.7079ZM8.03322 13.7079C8.08377 13.5146 8.22531 13.3565 8.34775 13.3565C8.47019 13.3565 8.61173 13.5146 8.66229 13.7079C8.73464 13.9846 8.66772 14.0594 8.34775 14.0594C8.02783 14.0594 7.96087 13.9846 8.03322 13.7079ZM9.08767 13.7079C9.13822 13.5146 9.28621 13.3565 9.41652 13.3565C9.54683 13.3565 9.7381 13.5146 9.84156 13.7079C10.0099 14.0224 9.97521 14.0594 9.51271 14.0594C9.08228 14.0594 9.01114 14.0006 9.08767 13.7079ZM10.2261 13.7539C10.3117 13.3095 10.8324 13.27 10.9447 13.6994C11.0209 13.9908 10.9558 14.0594 10.6031 14.0594C10.2837 14.0594 10.183 13.9778 10.2261 13.7539ZM11.3166 13.7814C11.3752 13.6285 11.4232 13.4704 11.4232 13.4299C11.4232 13.1783 11.9261 13.4201 12.0014 13.7079C12.0753 13.9906 12.0068 14.0594 11.6516 14.0594C11.321 14.0594 11.2367 13.9895 11.3166 13.7814ZM12.4268 13.7079C12.4773 13.5146 12.6189 13.3564 12.7413 13.3564C12.8637 13.3564 13.0053 13.5146 13.0558 13.7079C13.1282 13.9846 13.0613 14.0594 12.7413 14.0594C12.4214 14.0594 12.3544 13.9846 12.4268 13.7079ZM13.4812 13.7079C13.5318 13.5146 13.6798 13.3564 13.8101 13.3564C13.9404 13.3564 14.1317 13.5146 14.2351 13.7079C14.4034 14.0224 14.3688 14.0594 13.9063 14.0594C13.4758 14.0594 13.4047 14.0006 13.4812 13.7079ZM14.6192 13.7519C14.6629 13.5217 14.8815 13.4311 15.4881 13.3917C16.1809 13.3467 16.3121 13.3913 16.3927 13.6992C16.4792 14.03 16.4081 14.0594 15.5238 14.0594C14.7016 14.0594 14.5694 14.0145 14.6192 13.7519ZM60.3764 13.2742C60.5164 12.939 60.631 12.425 60.631 12.1319C60.631 11.6807 60.6983 11.599 61.0704 11.599C61.4571 11.599 61.5097 11.6743 61.5097 12.2276C61.5097 12.6881 61.3723 12.9937 60.996 13.37C60.3011 14.0649 60.0615 14.0279 60.3764 13.2742ZM80.3141 13.7079C80.4591 13.6142 80.6568 13.5376 80.7535 13.5376C80.8502 13.5376 80.8107 13.6142 80.6656 13.7079C80.5207 13.8016 80.3229 13.8783 80.2263 13.8783C80.1296 13.8783 80.1691 13.8016 80.3141 13.7079ZM51.461 12.8157C51.3934 12.1068 51.4115 12.0818 53.181 10.4432L54.9694 8.78715H59.7713H64.5732L65.3884 7.98418C66.1084 7.27504 66.2813 7.18776 66.8685 7.23727L67.5333 7.29334L66.702 8.21599L65.8707 9.13863H60.4864H55.1021L53.5609 10.6727C52.1668 12.0604 52.0197 12.2701 52.0197 12.8695C52.0197 13.8141 51.552 13.7691 51.461 12.8157ZM47.5675 12.7121C47.3156 12.4601 47.4737 12.302 47.9776 12.302C48.3291 12.302 48.5048 12.3899 48.5048 12.5656C48.5048 12.8316 47.7976 12.9421 47.5675 12.7121ZM71.0447 11.862C70.3074 10.9073 70.2879 10.8961 69.3703 10.8961C68.8096 10.8961 68.2853 11.0057 68.0464 11.173C67.6711 11.4359 67.6243 11.4215 67.1279 10.89C66.6702 10.4001 66.5278 10.3444 65.9904 10.4453C65.6068 10.5172 65.3761 10.4915 65.3761 10.3768C65.3761 10.2575 66.2625 10.1931 67.903 10.1931H70.43L71.4221 11.5112C72.1788 12.5165 72.3402 12.8291 72.1024 12.8286C71.9309 12.8282 71.455 12.3932 71.0447 11.862ZM20.8354 12.4338C20.7986 12.313 20.6825 11.9453 20.5773 11.6167C20.4681 11.2756 20.3861 9.63365 20.3861 7.78883C20.3861 5.07938 20.3436 4.54199 20.1225 4.45715C19.9775 4.40151 19.8589 4.16675 19.8589 3.93544C19.8589 3.54284 19.9231 3.51489 20.8254 3.51489H21.792V8.08418V12.6535H21.3472C21.1025 12.6535 20.8722 12.5546 20.8354 12.4338ZM21.6163 10.1827C21.6163 10.0918 21.4977 10.0173 21.3527 10.0173C21.0809 10.0173 21.0035 10.2247 21.2014 10.4226C21.3418 10.563 21.6163 10.4043 21.6163 10.1827ZM21.6163 6.94186C21.6163 6.79687 21.5419 6.67824 21.4509 6.67824C21.2293 6.67824 21.0706 6.95268 21.211 7.09309C21.4089 7.29101 21.6163 7.21363 21.6163 6.94186ZM22.1435 9.40225C22.1435 6.78564 22.1828 6.32676 22.4071 6.32676C22.6284 6.32676 22.6707 6.70662 22.6707 8.69101C22.6707 10.1198 22.752 11.2335 22.876 11.5058C23.0511 11.8902 23.0318 11.9939 22.7442 12.2115C22.5588 12.3518 22.3478 12.4691 22.2753 12.4721C22.2028 12.4751 22.1435 11.0938 22.1435 9.40225ZM74.1609 11.1257C73.7272 10.5753 73.269 9.9822 73.1427 9.80759C72.9234 9.50437 73.0718 9.49012 76.4482 9.49012C78.6927 9.49012 79.9449 9.5525 79.8778 9.66097C79.7668 9.84065 75.3256 12.1263 75.0875 12.1263C75.0115 12.1263 74.5946 11.676 74.1609 11.1257ZM75.53 10.974C76.0099 10.6378 76.0247 10.3418 75.5817 9.94087C74.8799 9.30582 73.9788 10.2069 74.6139 10.9086C74.9844 11.318 75.0338 11.3216 75.53 10.974ZM74.7544 10.6336C74.6936 10.475 74.728 10.2609 74.831 10.1579C75.0988 9.89018 75.6061 10.1349 75.5362 10.4981C75.4583 10.9026 74.8951 11.0003 74.7544 10.6336ZM23.1011 11.3411C22.9247 10.9189 22.8465 10.0548 22.8465 8.52918V6.32676H24.7706H26.6947L26.7496 8.83108C26.7797 10.2085 26.8713 11.4738 26.9532 11.643C27.09 11.9259 26.9523 11.9505 25.2288 11.9505H23.3558L23.1011 11.3411ZM27.1432 11.3411C26.9668 10.9189 26.8885 10.0548 26.8885 8.52918V6.32676H32.331C37.0966 6.32676 37.7609 6.35953 37.6724 6.59037C37.587 6.81283 37.0088 6.85398 33.9683 6.85398H30.3654L29.2421 7.74783L28.1187 8.64167V10.2961C28.1187 11.8471 28.0962 11.9505 27.7583 11.9505C27.5131 11.9505 27.3164 11.7556 27.1432 11.3411ZM27.7336 10.1799C27.6989 10.076 27.5955 9.99098 27.5036 9.99098C27.4118 9.99098 27.3084 10.076 27.2737 10.1799C27.2391 10.2838 27.3425 10.3688 27.5036 10.3688C27.6647 10.3688 27.7682 10.2838 27.7336 10.1799ZM29.1597 7.45345C29.8775 6.84952 29.8416 6.67824 28.9975 6.67824C28.3112 6.67824 28.2945 6.69288 28.2945 7.29334C28.2945 8.02802 28.444 8.05569 29.1597 7.45345ZM28.4702 7.29952C28.4702 7.14688 28.6229 7.02973 28.8217 7.02973C29.015 7.02973 29.1732 7.06649 29.1732 7.11141C29.1732 7.15635 29.015 7.27774 28.8217 7.38121C28.5412 7.53135 28.4702 7.51486 28.4702 7.29952ZM27.7673 6.84361C27.7673 6.75266 27.6486 6.67824 27.5036 6.67824C27.2319 6.67824 27.1545 6.88561 27.3524 7.08353C27.4928 7.22393 27.7673 7.06524 27.7673 6.84361ZM28.4702 10.314V8.67751L29.0359 8.24903C30.1132 7.43311 30.2854 7.32134 30.1649 7.51627C30.0862 7.64359 30.204 7.70033 30.5015 7.67846C30.8663 7.65165 31.1215 7.84904 31.7601 8.65189C32.4301 9.49435 32.5248 9.70261 32.3394 9.92602C32.2175 10.0729 31.9789 10.1931 31.8092 10.1931C31.4503 10.1931 30.0519 8.45874 30.0519 8.01364C30.0519 7.84771 29.9728 7.76082 29.8762 7.82056C29.7795 7.88031 29.7004 8.02451 29.7004 8.14103C29.7004 8.5177 31.4626 10.5446 31.7901 10.5446C32.1657 10.5446 32.688 10.0132 32.688 9.63104C32.688 9.2576 31.3099 7.55877 30.8591 7.37648C30.634 7.28546 31.5653 7.22342 33.2592 7.21661L36.0271 7.20544L35.6757 7.55693C35.4823 7.75025 35.3242 8.01119 35.3242 8.13681C35.3242 8.48956 36.9678 10.4469 37.3212 10.5149C37.692 10.5863 38.3118 10.0755 38.3118 9.6985C38.3118 9.31037 36.941 7.5607 36.4966 7.38155C36.2534 7.28351 37.1331 7.22368 38.9221 7.21658C41.511 7.20632 41.6987 7.2267 41.3385 7.47902C41.1237 7.62949 40.9479 7.89524 40.9479 8.06958C40.9479 8.5748 42.5608 10.5275 42.9856 10.5366C43.3858 10.5452 43.9355 10.0427 43.9355 9.66823C43.9355 9.31927 42.5117 7.54089 42.0982 7.37334C41.8615 7.27747 42.2174 7.22392 43.1399 7.21658C44.4566 7.20612 44.5174 7.22193 44.1504 7.47902C43.9356 7.62949 43.7598 7.89524 43.7598 8.06958C43.7598 8.5748 45.3727 10.5275 45.7975 10.5366C46.1977 10.5452 46.7474 10.0427 46.7474 9.66823C46.7474 9.31927 45.3236 7.54089 44.91 7.37334C44.6696 7.27592 44.9783 7.22404 45.8429 7.21658C47.1328 7.20548 47.1367 7.20688 48.0147 7.99628L48.8943 8.78712L51.5554 8.79559L54.2164 8.80405L52.5469 10.3752L50.8773 11.9464L39.6738 11.9484L28.4702 11.9504V10.314ZM35.1484 10.1931C35.3417 9.99976 35.4999 9.75584 35.4999 9.65101C35.4999 9.54619 35.1324 8.99261 34.6831 8.42082C34.0527 7.61841 33.76 7.38121 33.4002 7.38121C32.8564 7.38121 32.5123 7.66965 32.5123 8.12544C32.5123 8.57878 34.1172 10.5414 34.4894 10.5431C34.6586 10.5441 34.9551 10.3864 35.1484 10.1931ZM33.4981 9.2221C32.8318 8.40423 32.7225 8.17247 32.8714 7.89413C33.1824 7.31301 33.6642 7.50918 34.4358 8.53112C35.2175 9.56647 35.2935 10.0713 34.6811 10.159C34.4044 10.1987 34.0922 9.95144 33.4981 9.2221ZM34.8868 9.83836C35.0139 9.63274 33.6292 7.82056 33.345 7.82056C32.9304 7.82056 33.0648 8.24574 33.7525 9.10948C34.4856 10.0302 34.6879 10.1602 34.8868 9.83836ZM40.7722 10.1931C40.9655 9.99976 41.1237 9.75584 41.1237 9.65101C41.1237 9.54619 40.7561 8.99261 40.3069 8.42082C39.6765 7.61841 39.3838 7.38121 39.024 7.38121C38.4802 7.38121 38.136 7.66965 38.136 8.12544C38.136 8.57878 39.741 10.5414 40.1131 10.5431C40.2823 10.5441 40.5789 10.3864 40.7722 10.1931ZM39.4409 9.70007C38.3154 8.23871 38.2486 8.10842 38.4814 7.82791C38.8722 7.35711 39.2609 7.5287 40.0276 8.51032C40.8237 9.52963 40.9381 9.91607 40.4942 10.0864C40.024 10.2668 39.8196 10.1919 39.4409 9.70007ZM40.5058 9.84606C40.6283 9.64791 39.2366 7.82056 38.9632 7.82056C38.5525 7.82056 38.6887 8.26058 39.3637 9.1145C40.0786 10.0189 40.3081 10.1659 40.5058 9.84606ZM32.0778 9.83375C32.2003 9.63547 30.8473 7.73267 30.5838 7.73267C30.1585 7.73267 30.2765 8.16391 30.9435 9.04733C31.6872 10.0323 31.8747 10.1624 32.0778 9.83375ZM16.6955 10.2282C16.6955 9.61897 16.618 9.13861 16.5198 9.13861C16.4116 9.13861 16.344 8.25989 16.344 6.85396C16.344 5.44802 16.4116 4.56931 16.5198 4.56931C16.6164 4.56931 16.6955 4.3716 16.6955 4.12996C16.6955 3.69792 16.7189 3.6906 18.1014 3.6906C19.4572 3.6906 19.5074 3.70525 19.5074 4.10067C19.5074 4.3262 19.5649 4.56824 19.6352 4.63852C19.8078 4.81112 19.8157 8.96882 19.6436 9.07516C19.5687 9.12144 19.5074 9.645 19.5074 10.2386C19.5074 11.078 19.4605 11.2709 19.2965 11.1069C19.1805 10.9909 18.6427 10.896 18.1014 10.896C17.5602 10.896 17.0224 10.9909 16.9064 11.1069C16.7424 11.2709 16.6955 11.0757 16.6955 10.2282ZM36.3931 9.29075C35.6008 8.29569 35.508 7.68125 36.1366 7.59157C36.611 7.52387 38.0022 9.19783 37.9243 9.74266C37.8211 10.4644 37.176 10.2741 36.3931 9.29075ZM37.7016 9.83366C37.8192 9.64328 36.4463 7.73267 36.1919 7.73267C35.7825 7.73267 35.9088 8.1753 36.5672 9.04733C37.311 10.0324 37.4984 10.1624 37.7016 9.83366ZM42.0168 9.29075C41.22 8.28997 41.1313 7.68125 41.7691 7.59042C42.0568 7.54947 42.3312 7.77481 42.8821 8.50439C43.6552 9.52837 43.7336 10.0706 43.1213 10.1584C42.8515 10.1971 42.5497 9.96003 42.0168 9.29075ZM43.3183 9.84498C43.4317 9.66157 42.0597 7.73267 41.8159 7.73267C41.3934 7.73267 41.524 8.20293 42.1842 9.05865C42.9302 10.0256 43.1238 10.1598 43.3183 9.84498ZM44.8287 9.29075C44.0394 8.2994 43.944 7.68125 44.5666 7.59231C45.0136 7.52845 46.4591 9.29418 46.3648 9.78884C46.2373 10.4577 45.591 10.2482 44.8287 9.29075ZM46.1302 9.84498C46.2436 9.66157 44.8716 7.73267 44.6278 7.73267C44.2053 7.73267 44.3359 8.20293 44.9961 9.05865C45.7421 10.0256 45.9356 10.1598 46.1302 9.84498ZM61.1583 10.0361C61.1583 9.83858 61.6154 9.65431 61.7562 9.7951C61.9677 10.0067 61.8523 10.1931 61.5097 10.1931C61.3164 10.1931 61.1583 10.1224 61.1583 10.0361ZM62.2127 10.0173C62.2127 9.92068 62.45 9.8416 62.7399 9.8416C63.0299 9.8416 63.2672 9.92068 63.2672 10.0173C63.2672 10.114 63.0299 10.1931 62.7399 10.1931C62.45 10.1931 62.2127 10.114 62.2127 10.0173ZM48.4954 7.98277C48.1623 7.63701 47.6722 7.22454 47.4064 7.06617C47.1406 6.90779 46.9232 6.67663 46.9232 6.55248C46.9232 6.37426 47.9216 6.32676 51.6682 6.32676C55.5431 6.32676 56.4132 6.37041 56.4132 6.56488C56.4132 6.69585 55.983 7.20989 55.4572 7.70721L54.5011 8.61141H51.8011H49.101L48.4954 7.98277ZM56.026 7.81936C56.6774 7.23362 56.8831 6.93607 56.8153 6.67704C56.7255 6.33377 56.8155 6.32676 61.3135 6.32676H65.9033V6.71553C65.9033 6.93576 65.5827 7.43098 65.1637 7.85785L64.4242 8.61141H60.4352C56.5327 8.61141 56.4481 8.6038 56.538 8.25992C56.5988 8.02779 56.5435 7.90844 56.3751 7.90844C55.9914 7.90844 55.8654 8.11121 56.0848 8.37556C56.2417 8.56459 56.1678 8.61141 55.7128 8.61141H55.145L56.026 7.81936ZM64.3969 8.1595C64.7379 7.81856 64.7557 7.14128 64.4308 6.87164C64.2626 6.73207 63.1465 6.68514 60.7841 6.71831L57.3798 6.76613L57.3239 7.34878C57.223 8.3998 57.3412 8.43569 60.9036 8.43569C63.594 8.43569 64.166 8.39043 64.3969 8.1595ZM57.5494 7.89845C57.4131 7.67803 57.594 6.85399 57.7786 6.85399C57.8492 6.85399 57.907 7.13078 57.907 7.46908C57.907 8.08248 57.767 8.25058 57.5494 7.89845ZM61.4219 7.91558C63.9092 7.8259 64.058 7.80069 64.058 7.46905C64.058 7.13752 63.9084 7.11204 61.4219 7.02013L58.7857 6.92267L61.5097 6.93224L64.2337 6.94181L64.2888 7.51297L64.3439 8.08413L61.5648 8.04737L58.7857 8.0106L61.4219 7.91558ZM58.1706 7.55693C58.1706 7.36166 58.2878 7.20545 58.4343 7.20545C58.5807 7.20545 58.6979 7.36166 58.6979 7.55693C58.6979 7.7522 58.5807 7.90842 58.4343 7.90842C58.2878 7.90842 58.1706 7.7522 58.1706 7.55693ZM60.1558 7.42616C60.9093 7.39313 62.0956 7.39333 62.7919 7.42659C63.4883 7.45987 62.8717 7.48688 61.4219 7.48664C59.972 7.48639 59.4023 7.4592 60.1558 7.42616ZM65.7276 6.75572C65.7276 6.49738 65.3524 6.40902 65.1433 6.61811C64.9843 6.77704 65.3782 7.22487 65.5717 7.10527C65.6574 7.0523 65.7276 6.895 65.7276 6.75572ZM72.4774 7.73397L71.8063 6.85396H69.0305C66.6804 6.85396 66.2548 6.81356 66.2548 6.59035C66.2548 6.35828 67.8927 6.32674 79.9412 6.32674C91.8924 6.32674 93.6553 6.29331 93.8463 6.06312C93.992 5.88758 94.3863 5.79951 95.0266 5.79951H95.9882L95.866 6.68817C95.7987 7.17693 95.6868 7.78983 95.6172 8.05017L95.4906 8.52351L84.3195 8.56875L73.1485 8.61398L72.4774 7.73397ZM85.2349 8.1375L86.7287 7.99629V7.46906V6.94183L84.532 6.80943C83.3237 6.73661 80.8326 6.69707 78.9961 6.72156L75.657 6.76609L75.6007 7.35398C75.4907 8.50216 75.3307 8.46303 79.741 8.36638C81.9411 8.31815 84.4133 8.21517 85.2349 8.1375ZM75.9206 7.56611V7.0297H79.0564C83.5674 7.0297 86.4651 7.20647 86.4651 7.48165C86.4651 7.77677 84.9185 7.90245 79.9187 8.01362L75.9206 8.10253V7.56611ZM74.9194 7.99869C74.9385 7.90336 74.8156 7.7987 74.6465 7.76613C74.4541 7.72907 74.3389 7.8153 74.3389 7.99629C74.3389 8.30204 74.8583 8.30409 74.9194 7.99869ZM89.4527 7.90842C89.5864 7.65869 89.5864 7.45517 89.4527 7.20545C89.1208 6.58514 88.0468 6.85363 88.0468 7.55693C88.0468 8.26023 89.1208 8.52872 89.4527 7.90842ZM88.618 7.96057C88.2549 7.82594 88.3546 7.20545 88.7394 7.20545C88.927 7.20545 89.1341 7.29212 89.1996 7.39805C89.3506 7.64241 88.9098 8.06876 88.618 7.96057ZM95.2171 8.04901C95.7379 7.52821 95.2221 6.73523 94.4831 6.92069C93.9715 7.04907 93.7836 7.46296 94.0289 7.92114C94.2317 8.30013 94.8946 8.37147 95.2171 8.04901ZM94.3712 7.81779C94.1131 7.50677 94.2923 7.20545 94.7354 7.20545C94.9529 7.20545 95.0765 7.32598 95.0765 7.53813C95.0765 7.96343 94.6368 8.13778 94.3712 7.81779ZM74.9417 6.83405C74.792 6.59175 74.3389 6.65074 74.3389 6.91254C74.3389 7.04142 74.391 7.1989 74.4546 7.2625C74.6135 7.42143 75.0613 7.02757 74.9417 6.83405ZM5.70258 8.21185C5.65015 8.0752 5.63073 7.37767 5.65944 6.66178C5.71073 5.38249 5.72004 5.35919 6.20194 5.30387L6.69225 5.24758L6.64129 6.79767C6.59341 8.25437 6.56646 8.35116 6.19413 8.40403C5.97162 8.43561 5.75613 8.35137 5.70258 8.21185ZM9.04147 8.21135C8.98914 8.07501 8.96983 7.37773 8.99854 6.66184L9.05073 5.36022H9.57796H10.1052V6.85403V8.34784L9.6209 8.40354C9.32444 8.43766 9.0997 8.36308 9.04147 8.21135ZM3.78483e-06 7.91854C3.78483e-06 7.71429 0.11471 7.55695 0.263616 7.55695C0.621363 7.55695 0.596576 7.26449 0.219688 7.03859C-0.06896 6.86557 -0.0662603 6.83741 0.263616 6.58035C0.592978 6.32369 0.595743 6.29548 0.307553 6.13213C0.138401 6.03625 4.18323e-06 5.80357 4.18323e-06 5.61505C4.18323e-06 5.22925 0.408089 5.16889 1.13862 5.44663C1.58202 5.61521 1.59544 5.66302 1.54548 6.8965L1.49381 8.17205L0.746904 8.22608C0.0926932 8.27341 3.78483e-06 8.23526 3.78483e-06 7.91854ZM1.75742 6.85398V5.62379H3.51485H5.27227V6.85398V8.08418H3.51485H1.75742V6.85398ZM7.02969 6.85398V5.62379H7.9084H8.78711V6.85398V8.08418H7.9084H7.02969V6.85398ZM10.5445 6.85398C10.5445 5.91669 10.5836 5.79953 10.896 5.79953C11.2084 5.79953 11.2475 5.91669 11.2475 6.85398C11.2475 7.79127 11.2084 7.90844 10.896 7.90844C10.5836 7.90844 10.5445 7.79127 10.5445 6.85398ZM14.528 7.79127C14.4636 7.72684 14.4109 7.25233 14.4109 6.73682V5.79953H15.2017H15.9925V6.85398V7.90844H15.3189C14.9483 7.90844 14.5925 7.85572 14.528 7.79127ZM11.599 6.85398V5.97527H12.9171H14.2351V6.85398V7.73269H12.9171H11.599V6.85398ZM38.0725 6.59037C37.9843 6.36047 38.5213 6.32676 42.2715 6.32676C45.9767 6.32676 46.5717 6.36322 46.5717 6.59037C46.5717 6.98702 38.2247 6.98702 38.0725 6.59037ZM34.3137 5.84226L22.1435 5.79713L22.1445 4.17272L22.1455 2.54831H23.9458C25.7316 2.54831 25.7456 2.5518 25.6885 2.9588C25.6569 3.18457 25.768 3.52067 25.9354 3.7057C26.2275 4.02834 26.5911 4.04212 34.8119 4.04212H43.3838L43.4399 4.43754C43.4908 4.79585 43.6052 4.83778 44.6587 4.88438C45.6277 4.92723 45.8889 5.00766 46.2265 5.36698C46.4493 5.60412 46.5983 5.81824 46.5576 5.84278C46.517 5.86734 41.0072 5.86707 34.3137 5.84226ZM52.3712 5.79952C52.3712 5.68714 53.9235 5.62378 56.6768 5.62378C59.4301 5.62378 60.9825 5.68714 60.9825 5.79952C60.9825 5.9119 59.4301 5.97526 56.6768 5.97526C53.9235 5.97526 52.3712 5.9119 52.3712 5.79952ZM66.782 5.7596C66.782 5.68934 66.9797 5.50231 67.2214 5.34397C67.463 5.18564 67.6607 4.90703 67.6607 4.72483C67.6607 4.43491 67.8007 4.39355 68.7816 4.39355C69.7438 4.39355 69.9422 4.44953 70.1827 4.78897L70.463 5.18439L70.8035 4.78897L71.144 4.39355H77.2015H83.2589L83.5391 4.78897L83.8194 5.18439L84.1599 4.78897C84.4981 4.39632 84.5351 4.39355 89.4527 4.39355C94.3704 4.39355 94.4074 4.39649 94.7456 4.78897L95.0861 5.18439L95.3663 4.78897C95.584 4.4818 95.8183 4.39355 96.416 4.39355H97.1854V5.18439C97.1854 5.90136 97.1461 5.97523 96.7649 5.97523C96.5335 5.97523 96.2988 5.85661 96.2431 5.71162C96.1679 5.51571 95.8562 5.448 95.0293 5.448C94.4173 5.448 93.8385 5.5261 93.743 5.62155C93.5404 5.82421 66.782 5.96122 66.782 5.7596ZM46.5514 5.31621C46.2815 5.01803 46.139 4.68147 46.1793 4.4375L46.2446 4.04208H54.5766H62.9085L63.2636 3.34611C63.4589 2.96333 63.624 2.46905 63.6305 2.24772L63.6424 1.8453L63.8332 2.24072C64.0019 2.59062 64.1573 2.63676 65.1833 2.64148C66.0566 2.64544 66.2668 2.691 66.0351 2.82596C65.2683 3.27256 65.9985 4.46141 66.782 4.04208C67.2183 3.80856 67.245 3.07005 66.8259 2.82596C66.563 2.67282 66.5885 2.64605 67.0017 2.64148C67.474 2.63622 67.485 2.65927 67.485 3.65612C67.485 4.57916 67.4299 4.72947 66.9054 5.2378L66.3259 5.7995H63.7609C61.643 5.7995 61.1782 5.75357 61.0947 5.53589C61.0086 5.31152 60.3545 5.27227 56.7011 5.27227C53.0478 5.27227 52.3937 5.31153 52.3076 5.53589C52.224 5.75383 51.7544 5.7995 49.5977 5.7995H46.9889L46.5514 5.31621ZM43.7012 4.62788C43.6368 4.56345 43.584 4.40528 43.584 4.2764C43.584 4.10517 43.8916 4.04208 44.7264 4.04208C45.7515 4.04208 45.8687 4.07815 45.8687 4.39356C45.8687 4.70487 45.7515 4.74505 44.8435 4.74505C44.2797 4.74505 43.7657 4.69232 43.7012 4.62788ZM70.4396 4.44925C70.5665 4.39848 70.7181 4.40472 70.7765 4.46315C70.8349 4.52155 70.7311 4.56309 70.5458 4.55546C70.3411 4.54704 70.2994 4.50535 70.4396 4.44925ZM83.7961 4.44925C83.9229 4.39848 84.0745 4.40472 84.1329 4.46315C84.1913 4.52155 84.0875 4.56309 83.9022 4.55546C83.6975 4.54704 83.6558 4.50535 83.7961 4.44925ZM94.8678 4.44925C94.9947 4.39848 95.1462 4.40472 95.2046 4.46315C95.263 4.52155 95.1593 4.56309 94.974 4.55546C94.7693 4.54704 94.7276 4.50535 94.8678 4.44925ZM67.6607 3.76928C67.6607 3.55103 67.8425 3.5071 68.5695 3.5496C69.8713 3.62569 69.9325 4.04208 68.642 4.04208C67.8722 4.04208 67.6607 3.98327 67.6607 3.76928ZM34.7237 3.69059C27.7979 3.6198 26.1118 3.55741 26.0492 3.36961C25.9851 3.17715 26.0355 3.17638 26.3378 3.36512C26.6268 3.54559 26.7494 3.54843 26.9193 3.37858C27.1995 3.09838 27.8912 3.10122 27.9933 3.38307C28.0569 3.55881 28.1472 3.55881 28.4449 3.38307C28.8879 3.12152 31.1064 3.0849 31.1064 3.33913C31.1064 3.43579 31.2645 3.51487 31.4578 3.51487C31.6512 3.51487 31.8093 3.43579 31.8093 3.33913C31.8093 3.08371 32.6442 3.1232 32.7383 3.38307C32.802 3.55881 32.8923 3.55881 33.1899 3.38307C33.6329 3.12152 35.8514 3.0849 35.8514 3.33913C35.8514 3.43579 36.0096 3.51487 36.2029 3.51487C36.3962 3.51487 36.5544 3.43579 36.5544 3.33913C36.5544 3.09388 37.188 3.11966 37.6342 3.38307C37.9318 3.55881 38.0221 3.55881 38.0858 3.38307C38.1833 3.11375 40.5964 3.07152 40.5964 3.33913C40.5964 3.43579 40.7546 3.51487 40.9479 3.51487C41.1412 3.51487 41.2994 3.43579 41.2994 3.33913C41.2994 3.09514 41.9362 3.11906 42.3519 3.37869C42.6239 3.54856 42.742 3.54856 42.9118 3.37869C43.2321 3.05848 45.5172 3.08718 45.5172 3.41142C45.5172 3.76691 44.5737 3.79127 34.7237 3.69059ZM45.9294 3.64666C45.8846 3.57416 45.9713 3.51485 46.1219 3.51485C46.2726 3.51485 46.3959 3.43576 46.3959 3.33911C46.3959 3.09385 47.0296 3.11964 47.4757 3.38305C47.7734 3.55879 47.8637 3.55879 47.9273 3.38305C48.0335 3.08989 50.1426 3.08989 50.6391 3.38305C50.9367 3.55879 51.0271 3.55879 51.0907 3.38305C51.1344 3.26222 51.3229 3.16337 51.5095 3.16337C51.6961 3.16337 52.0161 3.26222 52.2208 3.38305C52.5184 3.55879 52.6087 3.55879 52.6724 3.38305C52.777 3.09428 55.0331 3.08376 55.3201 3.37068C55.4794 3.52998 55.63 3.52309 55.9703 3.341C56.3419 3.14211 56.4845 3.14211 56.8561 3.341C57.1964 3.5231 57.3471 3.52999 57.5064 3.37068C57.7815 3.09556 59.7962 3.10179 60.073 3.37861C60.2429 3.54848 60.361 3.54848 60.633 3.37861C61.0783 3.10055 61.6343 3.10278 61.7357 3.3831C61.7994 3.55884 61.8897 3.55884 62.1874 3.3831C62.6992 3.08087 63.1041 3.10161 62.9805 3.4237C62.8946 3.64769 61.7038 3.6906 54.4457 3.73125C49.8065 3.75726 45.9741 3.71917 45.9294 3.64666ZM66.0984 3.62603C65.9465 3.44297 65.964 3.33172 66.1722 3.15898C66.5081 2.88021 66.8829 3.17412 66.723 3.5909C66.5928 3.93012 66.3616 3.94314 66.0984 3.62603ZM17.7963 3.21299C18.0634 3.17259 18.4589 3.17369 18.675 3.21547C18.8912 3.25716 18.6726 3.29023 18.1893 3.28892C17.706 3.28745 17.5292 3.25337 17.7963 3.21299ZM42.3539 3.0005C42.3539 2.91093 42.2383 2.81208 42.097 2.78083C41.7464 2.70325 46.0324 0.520221 46.5277 0.524116C46.8933 0.527057 46.9232 0.606423 46.9232 1.57717C46.9232 2.58101 46.8984 2.6399 46.3597 2.91846C45.9712 3.11937 45.7757 3.14805 45.73 3.01084C45.6935 2.90141 45.4528 2.8027 45.195 2.79149C44.8974 2.77853 44.8386 2.74177 45.0339 2.69073C45.3798 2.60035 45.4505 2.17454 45.137 2.07005C45.0246 2.03259 44.5303 2.19772 44.0387 2.43704C42.2975 3.28454 42.3539 3.26569 42.3539 3.0005ZM46.2465 1.49381C46.2465 1.40198 46.1615 1.29851 46.0576 1.26388C45.9537 1.22926 45.8687 1.33271 45.8687 1.49381C45.8687 1.65491 45.9537 1.75837 46.0576 1.72374C46.1615 1.68912 46.2465 1.58563 46.2465 1.49381ZM67.7486 2.98762C67.8083 2.89096 68.0456 2.81187 68.2758 2.81187C68.5061 2.81187 68.7433 2.89096 68.803 2.98762C68.8678 3.09241 68.655 3.16336 68.2758 3.16336C67.8967 3.16336 67.6838 3.09241 67.7486 2.98762ZM47.2197 2.69837C47.1533 2.63192 47.0989 2.15577 47.0989 1.64026C47.0989 0.812525 47.141 0.702969 47.4592 0.702969C47.7862 0.702969 47.8145 0.794899 47.7667 1.6996C47.7179 2.62134 47.5144 2.99305 47.2197 2.69837ZM54.9028 2.56836C54.8514 2.43444 54.8341 1.9797 54.8644 1.55785C54.9097 0.926341 54.9815 0.790839 55.2709 0.790839C55.5598 0.790839 55.6321 0.926227 55.6771 1.55073C55.7468 2.52034 55.1735 3.27385 54.9028 2.56836ZM47.9776 1.66955V0.878712H51.3167H54.6558V1.66955V2.46039H51.3167H47.9776V1.66955ZM22.3193 1.14232C22.3193 0.0410039 22.335 0 22.7586 0C23.174 0 23.198 0.0527197 23.198 0.966583V1.93316H23.8027C24.1353 1.93316 24.4563 2.01224 24.516 2.1089C24.5842 2.21924 24.1957 2.28465 23.472 2.28465H22.3193V1.14232ZM64.1459 2.02103C64.1459 1.63276 67.3995 1.63276 67.5485 2.02103C67.6343 2.24449 67.3828 2.28465 65.8978 2.28465C64.4577 2.28465 64.1459 2.23772 64.1459 2.02103ZM64.1459 1.09839C64.146 0.827484 64.3449 0.790137 65.8155 0.784931C67.3025 0.779584 67.485 0.813278 67.485 1.09248C67.485 1.37126 67.3003 1.40593 65.8154 1.40593C64.3425 1.40593 64.1459 1.36972 64.1459 1.09839Z" />
</svg>
