<svg width="100" height="83" viewBox="0 0 100 83"  xmlns="http://www.w3.org/2000/svg">
<path d="M84.1561 81.7715C83.7136 81.4315 83.08 80.9944 82.7481 80.8001C82.2298 80.4967 82.2598 80.3303 82.9604 79.6209C83.7136 78.8581 83.8445 78.8428 84.6701 79.4211C85.2495 79.8269 85.564 80.4638 85.564 81.2312C85.564 82.5645 85.3133 82.6607 84.1561 81.7715ZM86.3686 81.2551C86.3686 80.2556 86.6886 80.0601 91.0033 78.4239C93.5524 77.4573 95.7411 76.7695 95.8672 76.8955C95.9932 77.0216 95.8537 77.6144 95.5569 78.2128C95.1154 79.1035 94.2326 79.5758 90.693 80.8148L86.3686 82.3287V81.2551ZM81.4071 79.2976C81.1789 78.9187 79.5299 73.3786 79.5299 72.991C79.5299 72.8335 79.9214 72.7625 80.3998 72.8332C81.597 73.0101 83.3166 77.8754 82.5516 78.9215C82.0121 79.6593 81.6889 79.7656 81.4071 79.2976ZM84.5198 78.4841C83.6867 77.7974 81.6495 72.9206 82.0347 72.5354C82.1442 72.4259 85.6955 71.179 89.9265 69.7645L97.6191 67.1927L98.1002 68.7984C98.5461 70.2867 98.4883 70.5928 97.3103 72.9816C96.2894 75.052 95.7512 75.6794 94.5742 76.1712C93.7683 76.5079 93.0715 76.7834 93.0256 76.7834C92.9798 76.7834 92.9566 76.3817 92.9742 75.8908C92.9937 75.3459 92.7315 74.9426 92.301 74.8554C91.3242 74.6576 90.8889 75.9662 91.7274 76.5794C92.2937 76.9935 91.9957 77.2183 89.6709 78.1304C86.5015 79.3739 85.6685 79.4311 84.5198 78.4841ZM87.4999 77.4815C87.6601 76.6502 86.4988 76.09 85.8859 76.7029C85.2729 77.3158 85.8331 78.4771 86.6645 78.317C87.0498 78.2428 87.4258 77.8669 87.4999 77.4815ZM90.3159 76.677C90.476 75.8457 89.3147 75.2855 88.7018 75.8984C88.0889 76.5113 88.649 77.6726 89.4804 77.5125C89.8657 77.4383 90.2417 77.0623 90.3159 76.677ZM96.4255 76.6108C96.4255 76.1685 98.626 71.6908 99.0952 71.1783C99.1829 71.0824 99.469 71.2182 99.7309 71.48C100.082 71.8309 100.089 72.0743 99.7572 72.4058C99.5098 72.6531 99.3897 73.4225 99.4902 74.1155C99.7204 75.7025 99.3173 76.3001 97.7047 76.7626C96.739 77.0396 96.4255 77.0023 96.4255 76.6108ZM81.0684 70.672C82.1946 68.8934 83.3297 68.5322 84.3503 69.6276C85.3244 70.6732 85.061 71.1468 84.0263 70.2104C83.0181 69.2979 82.7481 69.3693 82.7481 70.5481C82.7481 71.1012 82.6123 71.5672 82.4464 71.5837C82.2805 71.6001 81.7185 71.6924 81.1976 71.7887L80.2505 71.9638L81.0684 70.672ZM98.8737 69.1172C98.1469 67.4938 98.1241 66.2156 98.836 66.9931C99.3243 67.5266 100.151 70.3763 99.8921 70.6349C99.7633 70.7637 99.3051 70.0807 98.8737 69.1172ZM79.9858 69.824C80.1259 69.647 79.7272 67.8508 79.0998 65.8324C78.4724 63.8141 78.0516 62.0129 78.1648 61.8298C78.278 61.6467 79.0478 61.4969 79.8755 61.4969C80.7032 61.4969 81.5909 61.2864 81.8481 61.0291C82.2037 60.6736 82.3999 60.7943 82.6657 61.5319C82.858 62.0658 83.435 63.6792 83.9479 65.1174C85.2721 68.8308 85.4096 68.9343 87.9963 68.1662C90.4192 67.4466 90.9294 67.3882 90.6354 67.8638C90.5223 68.0468 89.3355 68.5279 87.998 68.9328C85.7316 69.619 85.5162 69.6238 84.8295 69.0023C83.7955 68.0666 81.9795 68.173 80.7626 69.2407C80.1953 69.7385 79.8457 70.001 79.9858 69.824ZM92.1751 67.2293C92.4726 65.9728 93.7795 64.7086 94.7604 64.7285C95.4373 64.7422 97.23 66.0415 97.23 66.5184C97.23 66.665 96.7562 66.4121 96.1771 65.9566C94.949 64.9906 94.4141 65.1733 94.4141 66.559C94.4141 67.2536 94.1048 67.6685 93.3822 67.9432C91.9307 68.4951 91.8822 68.4665 92.1751 67.2293ZM85.85 67.4028C85.5218 67.1415 84.8441 65.6604 84.3441 64.1117C83.844 62.5629 83.3594 61.09 83.2671 60.8385C83.1178 60.4317 87.4179 58.681 88.5663 58.681C89.2657 58.681 91.2051 64.3569 90.9363 65.6172C90.7472 66.5037 90.3743 66.8039 89.0376 67.1456C88.1228 67.3794 87.1656 67.6399 86.9105 67.7244C86.6555 67.8089 86.1782 67.6642 85.85 67.4028ZM97.3105 65.8415C96.5511 65.0821 96.7462 64.6432 97.6323 65.1174C98.0748 65.3542 98.4369 65.7226 98.4369 65.9361C98.4369 66.4688 97.8921 66.4231 97.3105 65.8415ZM91.239 62.5453C90.8121 61.4156 90.2682 59.988 90.0303 59.3729C89.636 58.354 89.6929 58.2184 90.6703 57.8468C93.028 56.9504 93.1966 57.0659 94.2356 60.2901C94.7704 61.9494 95.2103 63.4055 95.2133 63.5257C95.2162 63.646 94.4978 63.9367 93.6168 64.1719L92.015 64.5994L91.239 62.5453ZM72.3303 61.0361C71.7949 59.6507 72.9492 58.6408 75.3615 58.3844C76.4372 58.27 77.5889 57.9476 77.9208 57.668C78.2527 57.3883 79.3141 57.0299 80.2795 56.8715C81.2449 56.7131 82.6318 56.1783 83.3615 55.6831C84.7867 54.716 87.0188 54.0418 90.1131 53.6438C91.2311 53.5 92.1404 53.1524 92.2681 52.8198C92.781 51.483 97.4194 52.7743 97.149 54.1787C97.0745 54.5655 96.3256 55.0789 95.4143 55.3678C94.5323 55.6474 93.4486 56.0467 93.0061 56.255C92.5636 56.4633 90.0293 57.2962 87.3743 58.1058C84.7193 58.9153 82.0944 59.8075 81.5413 60.0883C80.5163 60.6086 76.9179 61.4433 74.2023 61.7906C72.9031 61.9568 72.6461 61.8532 72.3303 61.0361ZM72.2809 57.2633C72.001 56.9261 71.8431 56.5877 71.9299 56.5114C72.0167 56.4351 73.898 55.8501 76.1105 55.2114C79.4894 54.2361 80.1532 53.9109 80.2577 53.1795C80.326 52.7006 79.1791 48.3923 77.7089 43.6056C76.2386 38.8189 75.1387 34.6343 75.2644 34.3066C75.449 33.8256 76.2419 33.7328 79.3747 33.8258L83.2562 33.941L86.0609 42.0601C87.8098 47.1228 89.1039 50.2706 89.4987 50.4221C89.8469 50.5556 91.015 50.3474 92.0945 49.9592C93.8043 49.3443 94.1053 49.3295 94.4306 49.8439C95.0307 50.7927 94.9152 50.9284 92.9345 51.6034C90.6871 52.3691 88.9431 52.4281 88.5256 51.7525C88.3583 51.4819 87.1055 47.7256 85.7414 43.4053L83.2614 35.5502L80.5304 35.4298C79.0284 35.3637 77.6477 35.4613 77.4622 35.6467C77.2767 35.8322 78.2132 39.7783 79.5431 44.416C80.8731 49.0536 81.912 53.2889 81.8518 53.8277C81.759 54.6588 81.1671 55.0402 77.9497 56.3419C73.7475 58.0422 73.0247 58.1596 72.2809 57.2633ZM72.2206 54.0548C72.5716 53.2804 73.0021 52.6469 73.1773 52.6469C73.8445 52.6469 73.4058 51.0267 70.9446 44.4002C68.4554 37.6984 68.371 37.5428 66.7263 36.6263C65.7233 36.0673 65.048 35.3992 65.048 34.9658C65.048 34.567 64.761 34.0025 64.4103 33.7115C63.9506 33.33 63.8492 32.839 64.047 31.9525C64.1979 31.2762 64.4086 29.4104 64.5153 27.8063C64.6825 25.2913 64.6183 24.8898 64.0488 24.8898C63.6438 24.8898 63.4331 25.1622 63.5041 25.5938C63.5678 25.981 63.4461 26.5693 63.2337 26.9012C63.0212 27.2331 62.5296 28.398 62.1412 29.49C61.4531 31.4244 60.8874 32.1121 59.9739 32.1246C59.4336 32.1321 59.5025 31.1267 60.1475 29.5904C60.6711 28.3433 60.7394 27.1754 60.3694 25.795C60.1352 24.921 59.9629 24.8898 55.3711 24.8898H50.6153L50.3628 26.5995C50.2238 27.5398 50.1675 29.3953 50.2375 30.7228L50.3649 33.1365L56.7475 33.1559C62.5319 33.1736 63.1823 33.2469 63.6868 33.9368C64.9631 35.6823 64.6863 35.7512 56.399 35.7512C46.5941 35.7512 46.9472 35.9577 46.9421 30.2199C46.9401 28.0627 46.8244 25.3473 46.6849 24.1857L46.4312 22.0738H49.8887C52.9447 22.0738 53.5235 22.1945 54.8727 23.1132C56.5958 24.2867 58.3196 24.2489 60.1627 22.9973C61.5228 22.0737 66.252 21.7057 80.2339 21.4357C88.8599 21.2691 90.7936 21.1298 90.7936 20.6751C90.7936 20.3689 91.2009 20.0605 91.6987 19.9898C93.031 19.8006 92.955 17.9893 91.5982 17.591C90.8138 17.3608 90.9467 17.3125 92.2016 17.3717L93.8107 17.4476V19.6603V21.8728L90.7936 22.1101C87.0983 22.4007 85.564 23.0582 85.564 24.351V25.2921H79.0034C71.0641 25.2921 70.9853 25.3265 71.1599 28.7062C71.3144 31.6949 71.1381 31.6355 80.0122 31.6884L86.7298 31.7285L87.9053 34.2428C88.5518 35.6256 89.7461 38.7123 90.5591 41.1022C91.3722 43.492 92.3905 46.0264 92.822 46.734C93.2535 47.4417 93.6072 48.23 93.608 48.4857C93.6104 49.0646 90.2579 50.2457 89.6607 49.8766C89.42 49.7279 88.0168 46.0815 86.5426 41.7736C85.0683 37.4657 83.6798 33.7148 83.457 33.4382C83.19 33.1069 82.0052 32.9516 79.9835 32.983C76.144 33.0425 74.5428 33.3758 74.3994 34.1453C74.3378 34.4755 75.5482 38.8186 77.0891 43.7968C79.2564 50.7991 79.7815 52.9538 79.4085 53.3152C78.8162 53.8893 73.7522 55.4628 72.4967 55.4628C71.5985 55.4628 71.5937 55.4382 72.2206 54.0548ZM70.881 33.103C70.881 32.4604 70.5458 32.3138 68.8696 32.2232L66.8582 32.1144L68.4673 33.0881C70.3031 34.1989 70.881 34.2024 70.881 33.103ZM83.7405 53.7531C83.4032 52.8565 78.3231 36.8422 78.3231 36.6754C78.3231 36.5865 79.2576 36.5685 80.3998 36.6354L82.4766 36.757L84.8146 44.4002C86.1004 48.604 87.1572 52.2651 87.1628 52.5359C87.1733 53.0302 85.179 54.256 84.3645 54.256C84.1254 54.256 83.8445 54.0297 83.7405 53.7531ZM0.533016 30.8737C0.394733 30.1823 0.281593 29.4582 0.281593 29.2646C0.281593 29.071 2.18234 28.9126 4.50549 28.9126H8.72938V27.9069C8.72938 26.9174 8.78162 26.9012 11.9686 26.9012H15.2078L15.0862 29.0132L14.9647 31.1251L12.551 31.2478C11.2235 31.3152 9.96538 31.5415 9.75519 31.7506C9.545 31.9597 7.4406 32.1308 5.07874 32.1308H0.784446L0.533016 30.8737ZM26.8318 31.748C26.8318 31.5126 24.7384 31.3043 21.7028 31.2377L16.5738 31.1251L16.4522 29.0132L16.3306 26.9012H21.38H26.4295V28.108V29.3149H36.1096H45.7897L45.6637 30.6223L45.5376 31.9297L36.1847 32.0376C30.217 32.1065 26.8318 32.0017 26.8318 31.748ZM72.5571 30.6558C72.1819 30.2806 72.2331 27.612 72.6274 26.9906C72.8737 26.6026 74.4186 26.504 78.9292 26.5884L84.9048 26.7001L86.0583 28.812L87.2119 30.924H80.0186C76.0623 30.924 72.7046 30.8033 72.5571 30.6558ZM0.265273 23.7836C0.256302 21.4051 0.225528 18.0109 0.196899 16.2409L0.144856 13.0227L9.06329 12.9144L17.9817 12.8062V15.4287V18.0511H15.7834C13.0239 18.0511 12.7521 18.4816 12.7521 22.852V26.0967H10.5396C8.44779 26.0967 8.32711 26.1515 8.32711 27.1023V28.108H4.30435H0.281597L0.265273 23.7836ZM5.71232 26.0967C5.71232 25.3594 5.47025 25.0566 4.80539 24.9622C3.81696 24.8218 3.25557 25.6845 3.6561 26.7283C3.80148 27.1072 4.26141 27.3084 4.80539 27.2311C5.47025 27.1367 5.71232 26.8339 5.71232 26.0967ZM5.71232 14.833C5.71232 14.0957 5.47025 13.7929 4.80539 13.6985C4.26141 13.6212 3.80148 13.8225 3.6561 14.2013C3.25557 15.2451 3.81696 16.1078 4.80539 15.9674C5.47025 15.873 5.71232 15.5702 5.71232 14.833ZM8.93052 14.833C8.93052 14.0957 8.68846 13.7929 8.0236 13.6985C7.47961 13.6212 7.01969 13.8225 6.8743 14.2013C6.47377 15.2451 7.03517 16.1078 8.0236 15.9674C8.68846 15.873 8.93052 15.5702 8.93052 14.833ZM12.1487 14.833C12.1487 14.0957 11.9067 13.7929 11.2418 13.6985C10.6978 13.6212 10.2379 13.8225 10.0925 14.2013C9.69198 15.2451 10.2534 16.1078 11.2418 15.9674C11.9067 15.873 12.1487 15.5702 12.1487 14.833ZM26.8318 27.1024V26.0967H21.6452C15.8893 26.0967 15.9703 26.1366 15.9703 23.2971C15.9703 22.4573 16.218 21.5646 16.5207 21.3134C16.9139 20.9871 21.1343 20.8869 31.3043 20.9624L45.5376 21.0682L45.5885 24.5881L45.6394 28.108H44.4823C43.2282 28.108 42.8643 27.1641 43.9567 26.7449C44.3356 26.5995 44.5368 26.1396 44.4596 25.5956C44.2694 24.2566 42.4471 24.3328 42.0972 25.6944L41.8388 26.7001L41.6768 25.6944C41.5551 24.9387 41.2693 24.6887 40.5273 24.6887C39.811 24.6887 39.4688 24.9649 39.2813 25.6944L39.0229 26.7001L38.8609 25.6944C38.7392 24.9387 38.4534 24.6887 37.7114 24.6887C36.9951 24.6887 36.6529 24.9649 36.4654 25.6944L36.207 26.7001L36.045 25.6944C35.9233 24.9387 35.6375 24.6887 34.8955 24.6887C34.1792 24.6887 33.8369 24.9649 33.6495 25.6944L33.3911 26.7001L33.2291 25.6944C33.1074 24.9387 32.8216 24.6887 32.0796 24.6887C31.3633 24.6887 31.021 24.9649 30.8336 25.6944L30.5752 26.7001L30.4132 25.6944C30.2906 24.933 30.0069 24.6887 29.2455 24.6887C27.9047 24.6887 27.5397 26.4438 28.8114 26.7763C30.2266 27.1464 29.8138 28.108 28.2398 28.108C27.0062 28.108 26.8318 27.9835 26.8318 27.1024ZM32.0931 27.4711C32.1126 27.0025 32.2078 26.9072 32.3362 27.2281C32.4524 27.5185 32.4381 27.8654 32.3044 27.9991C32.1707 28.1328 32.0757 27.8952 32.0931 27.4711ZM34.9091 27.4711C34.9285 27.0025 35.0237 26.9072 35.1521 27.2281C35.2683 27.5185 35.254 27.8654 35.1203 27.9991C34.9867 28.1328 34.8916 27.8952 34.9091 27.4711ZM37.725 27.4711C37.7444 27.0025 37.8396 26.9072 37.968 27.2281C38.0842 27.5185 38.0699 27.8654 37.9363 27.9991C37.8026 28.1328 37.7075 27.8952 37.725 27.4711ZM40.5409 27.4711C40.5604 27.0025 40.6555 26.9072 40.784 27.2281C40.9002 27.5185 40.8859 27.8654 40.7522 27.9991C40.6185 28.1328 40.5235 27.8952 40.5409 27.4711ZM13.959 22.5057V18.8557H16.7125C20.192 18.8557 20.7976 18.3113 20.7976 15.1834C20.7976 13.9729 20.5804 12.7653 20.3149 12.4998C19.9395 12.1243 22.3366 12.017 31.1021 12.017H42.3719L46.0802 14.6318L49.7885 17.2466H55.608H61.4275L61.4053 19.1574C61.3862 20.8041 61.2092 21.206 60.1251 22.0648C58.3686 23.4562 56.1998 23.4161 54.6843 21.9642C53.5993 20.9247 53.3357 20.8671 49.6628 20.8671C47.5124 20.8671 45.6756 20.6879 45.5377 20.4648C45.3796 20.2089 40.1236 20.0625 31.0944 20.0625C14.8308 20.0625 15.7087 19.8587 15.4919 23.684C15.3945 25.4031 15.2122 25.9174 14.663 26.0218C14.0345 26.1413 13.959 25.7647 13.959 22.5057ZM58.784 21.844C60.0039 20.6241 59.121 18.4534 57.4047 18.4534C56.4449 18.4534 55.3934 19.505 55.3934 20.4648C55.3934 21.4247 56.4449 22.4762 57.4047 22.4762C57.8156 22.4762 58.4363 22.1917 58.784 21.844ZM56.5834 21.048C56.1559 20.5329 56.1823 20.308 56.7353 19.755C57.3597 19.1306 57.4498 19.1306 58.0742 19.755C58.6272 20.308 58.6536 20.5329 58.2261 21.048C57.9414 21.391 57.5718 21.6716 57.4047 21.6716C57.2377 21.6716 56.8681 21.391 56.5834 21.048ZM29.0008 18.9261C29.1887 18.622 25.4216 13.6261 25.0044 13.6261C24.628 13.6261 21.6022 16.552 21.6022 16.916C21.6022 17.1252 21.919 17.7321 22.3062 18.2645C22.9353 19.1297 23.318 19.234 25.9029 19.2453C27.4939 19.2523 28.888 19.1086 29.0008 18.9261ZM22.9838 17.6062C22.8325 17.3614 23.2433 16.6267 23.8966 15.9734L25.0844 14.7856L26.1649 16.4184L27.2455 18.0512H25.2521C24.1558 18.0512 23.135 17.8509 22.9838 17.6062ZM45.0031 18.5922C45.4077 18.2261 45.7317 17.7282 45.7231 17.486C45.7078 17.0538 42.6049 14.5859 41.6157 14.2191C41.1158 14.0337 38.0955 17.9822 38.0955 18.8212C38.0955 19.579 44.1339 19.3788 45.0031 18.5922ZM39.3187 18.3529C39.3277 18.0763 39.8621 17.2336 40.5063 16.4802L41.6776 15.1105L43.1048 16.199C44.7329 17.4408 44.8519 17.8516 43.7538 18.4393C42.6273 19.0422 39.2984 18.9773 39.3187 18.3529ZM35.9061 16.6341C36.6877 15.4123 37.2179 14.2356 37.0842 14.0194C36.7176 13.4261 35.4433 13.5475 34.8773 14.2295C34.2185 15.0234 33.2085 14.9922 31.7091 14.1316C30.864 13.6466 30.3583 13.5592 30.0693 13.8482C29.4975 14.42 32.7604 18.8557 33.7528 18.8557C34.201 18.8557 35.0363 17.9939 35.9061 16.6341ZM32.3127 16.3917C30.7392 14.5534 30.6605 13.9674 32.1249 14.9931C33.2766 15.7998 34.23 15.814 34.8773 15.0341C35.1527 14.7022 35.6377 14.4307 35.955 14.4307C36.4234 14.4307 36.3953 14.6626 35.8052 15.6645C35.4055 16.3431 34.7831 17.1663 34.4222 17.4939C33.8327 18.0289 33.6181 17.9167 32.3127 16.3917ZM34.2955 13.9933C34.7101 13.3226 33.7777 12.5534 33.2228 13.1083C32.7586 13.5725 33.0491 14.4307 33.6705 14.4307C33.8656 14.4307 34.1469 14.2339 34.2955 13.9933ZM62.232 19.258V17.2466H64.2434C65.9866 17.2466 66.2548 17.3539 66.2548 18.0512C66.2548 18.6641 66.523 18.8557 67.3812 18.8557C68.6749 18.8557 69.473 19.5004 69.473 20.5453C69.473 21.1889 69.0707 21.2694 65.8525 21.2694H62.232V19.258ZM70.0248 20.1631C69.9426 19.8865 69.7905 19.3887 69.6868 19.0568C69.5736 18.6946 69.0108 18.4534 68.2788 18.4534C67.463 18.4534 67.0593 18.2537 67.0593 17.85C67.0593 17.3278 68.6014 17.2466 78.5242 17.2466H89.9891V18.842V20.4374L80.0817 20.5517C72.4239 20.64 70.1405 20.5518 70.0248 20.1631ZM76.3117 19.258C76.3117 19.0367 75.7837 18.8557 75.1384 18.8557C74.4931 18.8557 73.8994 18.6586 73.8191 18.4177C73.7321 18.1567 73.2716 18.3138 72.6793 18.8066L71.6855 19.6335L73.9986 19.6469C75.2814 19.6543 76.3117 19.4811 76.3117 19.258ZM18.9657 17.6138C18.5512 16.9431 19.4836 16.1739 20.0385 16.7288C20.5027 17.193 20.2122 18.0512 19.5908 18.0512C19.3957 18.0512 19.1144 17.8544 18.9657 17.6138ZM46.283 13.7934L42.7217 11.1448L28.5415 11.2993L14.3612 11.4538V10.5286V9.60336H33.045H51.7288L51.8514 11.5142L51.974 13.425H57.4047H62.8355L62.9581 11.5142L63.0807 9.60336H77.1383H91.1959V13.0227V16.4421H70.5201H49.8443L46.283 13.7934ZM80.3344 14.2295C80.3344 13.8977 80.0629 13.6261 79.731 13.6261C79.3992 13.6261 79.1276 13.8977 79.1276 14.2295C79.1276 14.5614 79.3992 14.833 79.731 14.833C80.0629 14.833 80.3344 14.5614 80.3344 14.2295ZM81.9436 14.2295C81.9436 13.8977 81.672 13.6261 81.3401 13.6261C81.0083 13.6261 80.7367 13.8977 80.7367 14.2295C80.7367 14.5614 81.0083 14.833 81.3401 14.833C81.672 14.833 81.9436 14.5614 81.9436 14.2295ZM83.5527 14.2295C83.5527 13.8977 83.2811 13.6261 82.9492 13.6261C82.6174 13.6261 82.3458 13.8977 82.3458 14.2295C82.3458 14.5614 82.6174 14.833 82.9492 14.833C83.2811 14.833 83.5527 14.5614 83.5527 14.2295ZM85.1618 14.2295C85.1618 13.8977 84.8902 13.6261 84.5583 13.6261C84.2265 13.6261 83.9549 13.8977 83.9549 14.2295C83.9549 14.5614 84.2265 14.833 84.5583 14.833C84.8902 14.833 85.1618 14.5614 85.1618 14.2295ZM86.7709 14.2295C86.7709 13.8977 86.4993 13.6261 86.1674 13.6261C85.8356 13.6261 85.564 13.8977 85.564 14.2295C85.564 14.5614 85.8356 14.833 86.1674 14.833C86.4993 14.833 86.7709 14.5614 86.7709 14.2295ZM81.139 12.6204C81.139 12.2886 80.8675 12.017 80.5356 12.017C80.2037 12.017 79.9322 12.2886 79.9322 12.6204C79.9322 12.9523 80.2037 13.2238 80.5356 13.2238C80.8675 13.2238 81.139 12.9523 81.139 12.6204ZM82.7481 12.6204C82.7481 12.2886 82.4766 12.017 82.1447 12.017C81.8128 12.017 81.5413 12.2886 81.5413 12.6204C81.5413 12.9523 81.8128 13.2238 82.1447 13.2238C82.4766 13.2238 82.7481 12.9523 82.7481 12.6204ZM84.3572 12.6204C84.3572 12.2886 84.0857 12.017 83.7538 12.017C83.4219 12.017 83.1504 12.2886 83.1504 12.6204C83.1504 12.9523 83.4219 13.2238 83.7538 13.2238C84.0857 13.2238 84.3572 12.9523 84.3572 12.6204ZM85.9663 12.6204C85.9663 12.2886 85.6948 12.017 85.3629 12.017C85.031 12.017 84.7595 12.2886 84.7595 12.6204C84.7595 12.9523 85.031 13.2238 85.3629 13.2238C85.6948 13.2238 85.9663 12.9523 85.9663 12.6204ZM80.3344 11.0113C80.3344 10.6795 80.0629 10.4079 79.731 10.4079C79.3992 10.4079 79.1276 10.6795 79.1276 11.0113C79.1276 11.3432 79.3992 11.6147 79.731 11.6147C80.0629 11.6147 80.3344 11.3432 80.3344 11.0113ZM81.9436 11.0113C81.9436 10.6795 81.672 10.4079 81.3401 10.4079C81.0083 10.4079 80.7367 10.6795 80.7367 11.0113C80.7367 11.3432 81.0083 11.6147 81.3401 11.6147C81.672 11.6147 81.9436 11.3432 81.9436 11.0113ZM83.5527 11.0113C83.5527 10.6795 83.2811 10.4079 82.9492 10.4079C82.6174 10.4079 82.3458 10.6795 82.3458 11.0113C82.3458 11.3432 82.6174 11.6147 82.9492 11.6147C83.2811 11.6147 83.5527 11.3432 83.5527 11.0113ZM85.1618 11.0113C85.1618 10.6795 84.8902 10.4079 84.5583 10.4079C84.2265 10.4079 83.9549 10.6795 83.9549 11.0113C83.9549 11.3432 84.2265 11.6147 84.5583 11.6147C84.8902 11.6147 85.1618 11.3432 85.1618 11.0113ZM86.7709 11.0113C86.7709 10.6795 86.4993 10.4079 86.1674 10.4079C85.8356 10.4079 85.564 10.6795 85.564 11.0113C85.564 11.3432 85.8356 11.6147 86.1674 11.6147C86.4993 11.6147 86.7709 11.3432 86.7709 11.0113ZM18.9657 14.3956C18.5512 13.7249 19.4836 12.9557 20.0385 13.5106C20.5027 13.9748 20.2122 14.833 19.5908 14.833C19.3957 14.833 19.1144 14.6362 18.9657 14.3956ZM52.8456 12.9557C52.6981 12.8082 52.5774 12.0841 52.5774 11.3466V10.0056H57.4047H62.232V11.132C62.232 11.7515 62.0148 12.4756 61.7493 12.7411C61.234 13.2565 53.3367 13.4468 52.8456 12.9557ZM0.170595 9.50652C0.26442 8.56825 0.402881 7.73888 0.478279 7.66349C0.553677 7.58809 7.32867 7.65831 15.5338 7.81944C27.6621 8.05767 30.4523 8.21428 30.4523 8.65679C30.4523 9.09664 28.8698 9.20109 22.2056 9.20109H13.959V10.2068V11.2125H6.97948H0L0.170595 9.50652ZM3.70094 9.60337C3.70094 8.86611 3.45887 8.56331 2.79402 8.4689C1.80558 8.32854 1.24419 9.19123 1.64472 10.235C1.7901 10.6139 2.25003 10.8151 2.79402 10.7378C3.45887 10.6434 3.70094 10.3406 3.70094 9.60337ZM6.91914 9.60337C6.91914 8.86611 6.67708 8.56331 6.01222 8.4689C5.02379 8.32853 4.46239 9.19123 4.86293 10.235C5.00831 10.6139 5.46823 10.8151 6.01222 10.7378C6.67708 10.6434 6.91914 10.3406 6.91914 9.60337ZM10.1373 9.60337C10.1373 8.86611 9.89528 8.56331 9.23043 8.4689C8.68644 8.39164 8.22652 8.59287 8.08113 8.97174C7.6806 10.0155 8.24199 10.8782 9.23043 10.7378C9.89528 10.6434 10.1373 10.3406 10.1373 9.60337ZM13.3556 9.60337C13.3556 8.86611 13.1135 8.56331 12.4486 8.4689C11.4602 8.32854 10.8988 9.19123 11.2993 10.235C11.4447 10.6139 11.9046 10.8151 12.4486 10.7378C13.1135 10.6434 13.3556 10.3406 13.3556 9.60337ZM62.9025 8.53064C62.0036 7.63171 62.8552 7.26884 66.5061 6.99512C70.316 6.70947 70.3945 6.72155 71.4248 7.75183L72.4718 8.79882H69.7893C68.3139 8.79882 66.995 8.61779 66.8582 8.39654C66.7215 8.17529 66.2582 7.99427 65.8288 7.99427C65.3993 7.99427 65.048 8.17529 65.048 8.39654C65.048 8.84399 63.3236 8.95177 62.9025 8.53064ZM72.2889 7.59199C71.1242 6.61158 70.5131 6.40493 68.7521 6.39598L66.6232 6.38518L66.7407 3.26754L66.8582 0.149905L71.6316 0.0361636C75.7858 -0.0628294 76.4713 0.0132383 76.917 0.622725C77.1986 1.00789 77.3292 1.58307 77.2073 1.90089C77.0853 2.21872 77.2497 2.67886 77.5725 2.92343C77.8953 3.168 78.4123 4.00169 78.7213 4.77607C79.0303 5.55045 79.4512 6.29887 79.6567 6.43922C79.8621 6.57957 79.9577 6.91219 79.8689 7.17838C79.7802 7.44458 78.8983 6.21344 77.9091 4.44253C76.9199 2.67162 76.0452 1.28807 75.9653 1.36797C75.8853 1.44787 76.6547 3.0446 77.6749 4.91625C78.6952 6.78791 79.5299 8.42716 79.5299 8.55904C79.5299 8.69092 78.2175 8.79396 76.6134 8.78801C73.9795 8.77828 73.5605 8.66237 72.2889 7.59199ZM76.1105 6.78744C76.1105 6.05018 75.8685 5.74738 75.2036 5.65297C74.2152 5.5126 73.6538 6.3753 74.0543 7.41907C74.1997 7.79793 74.6596 7.99916 75.2036 7.92191C75.8685 7.8275 76.1105 7.5247 76.1105 6.78744ZM73.4958 5.64064C73.4958 5.4524 73.297 4.72831 73.0541 4.03153C72.6956 3.00304 72.3928 2.76468 71.445 2.76468C70.3512 2.76468 70.2776 2.86612 70.2776 4.37378V5.98288H71.8867C72.7717 5.98288 73.4958 5.82887 73.4958 5.64064Z" />
</svg>
