<svg width="100" height="20" viewBox="0 0 100 20"  xmlns="http://www.w3.org/2000/svg">
<path d="M83.3 19.4938C83.166 19.3599 83.1088 18.4777 83.1088 16.5465V13.7903H84.0965C84.8156 13.7903 85.4438 13.6546 86.4066 13.2912L87.729 12.7921V11.1404V9.48875H85.4985H83.2681V8.4259C83.2681 7.66049 83.1943 7.28153 83.0044 7.07172C82.7547 6.79582 82.7653 6.78035 83.2036 6.78008C83.6557 6.77981 83.6664 6.79907 83.6664 7.6165V8.45319L85.2445 8.49909C86.7742 8.54357 86.8365 8.53166 87.2758 8.11082C87.5635 7.83517 87.729 7.51303 87.729 7.22851V6.78037H92.2695H96.81V11.4802V16.18H94.0185H91.2271L91.0456 16.5783C90.9048 16.8874 90.745 16.9766 90.3321 16.9766C89.8882 16.9766 89.7992 17.036 89.7947 17.3351C89.7916 17.5322 89.4315 18.1416 88.9941 18.6893L88.199 19.685H85.845C84.2266 19.685 83.4314 19.6253 83.3 19.4938ZM88.3565 18.1832C88.5907 17.901 88.5184 16.2131 88.263 16.0011C88.1622 15.9175 87.4093 15.8697 86.59 15.895L85.1002 15.9411L85.0525 17.042C85.0191 17.8151 85.0665 18.1821 85.2118 18.2743C85.5848 18.5109 88.1461 18.4367 88.3565 18.1832ZM85.1799 17.3749V16.658H86.6934H88.2069V17.3749V18.0918H86.6934H85.1799V17.3749ZM83.985 16.3394C83.985 16.2103 83.8596 16.0806 83.7062 16.0511C83.5106 16.0134 83.4274 16.0994 83.4274 16.3394C83.4274 16.5793 83.5106 16.6653 83.7062 16.6277C83.8596 16.5981 83.985 16.4684 83.985 16.3394ZM90.6763 16.3394C90.6763 16.2103 90.5508 16.0806 90.3975 16.0511C90.2019 16.0134 90.1187 16.0994 90.1187 16.3394C90.1187 16.5793 90.2019 16.6653 90.3975 16.6277C90.5508 16.5981 90.6763 16.4684 90.6763 16.3394ZM95.9795 15.4078C96.1377 15.3074 96.1845 14.3735 96.1845 11.3209C96.1845 8.26831 96.1377 7.33434 95.9795 7.23398C95.7445 7.08487 89.2672 7.05402 88.7247 7.19941L88.3662 7.29547V11.3262C88.3662 14.4017 88.4134 15.3759 88.5654 15.4373C88.9027 15.5734 95.7615 15.5461 95.9795 15.4078ZM88.5971 15.0215C88.5544 14.9101 88.5387 13.1716 88.5623 11.1581L88.6052 7.49729L92.3094 7.45452L96.0135 7.41176V11.3179V15.2241H92.3442C89.5224 15.2241 88.6569 15.1773 88.5971 15.0215ZM94.7494 14.8999C94.9188 14.8092 95.0575 14.6745 95.0575 14.6007C95.0575 14.5268 94.5848 13.9558 94.007 13.3317C93.1103 12.3632 92.879 12.1971 92.4268 12.1971C91.9727 12.1971 91.7477 12.3608 90.8514 13.3428C89.8678 14.4205 89.8212 14.5055 90.0666 14.7766C90.2926 15.0263 90.6021 15.0648 92.3843 15.0648C93.5156 15.0648 94.5799 14.9906 94.7494 14.8999ZM90.3577 12.9937L91.1423 12.1971H90.3119H89.4814V12.9937C89.4814 13.4318 89.502 13.7903 89.5273 13.7903C89.5525 13.7903 89.9261 13.4318 90.3577 12.9937ZM95.3761 12.9937V12.1971H94.6444H93.9126L94.5796 12.9937C94.9464 13.4318 95.2757 13.7903 95.3113 13.7903C95.3469 13.7903 95.3761 13.4318 95.3761 12.9937ZM90.4219 9.96669C90.0525 9.52857 89.6897 9.17011 89.6158 9.17011C89.5419 9.17011 89.4814 9.52857 89.4814 9.96669V10.7633H90.2875H91.0936L90.4219 9.96669ZM94.0297 9.56554C95.0744 8.39829 95.0944 8.35975 94.8159 8.05203C94.5586 7.76763 94.3215 7.73626 92.4288 7.73626C90.5465 7.73626 90.298 7.76872 90.0458 8.04743C89.7728 8.34906 89.7973 8.39543 90.8446 9.56094C92.3204 11.2034 92.5635 11.2038 94.0297 9.56554ZM95.3761 9.93352V9.10377L94.6592 9.80738C94.2649 10.1944 93.9423 10.5678 93.9423 10.6371C93.9423 10.7065 94.2649 10.7633 94.6592 10.7633H95.3761V9.93352ZM87.8086 8.69216C87.8086 8.56313 87.6832 8.43339 87.5298 8.40386C87.3342 8.36619 87.251 8.45221 87.251 8.69216C87.251 8.93212 87.3342 9.01814 87.5298 8.98047C87.6832 8.95094 87.8086 8.8212 87.8086 8.69216ZM74.3464 19.0593C74.3464 18.7452 74.4835 18.4851 74.7662 18.2627C75.1373 17.9708 75.4051 17.9325 77.0762 17.9325H78.9666V15.8742V13.8159L79.7788 13.5461C80.7079 13.2375 81.0029 12.7566 81.1526 11.3068C81.2895 9.9804 81.1117 9.39122 80.436 8.9321C79.8624 8.54233 79.78 8.53285 76.9659 8.53285C74.0971 8.53285 74.0815 8.53091 73.7091 8.13456C73.5033 7.9155 73.3833 7.7273 73.4424 7.71635C73.5015 7.7054 73.6394 7.68747 73.7489 7.67652C74.0526 7.64615 73.9862 7.19037 73.6693 7.12933C73.4701 7.09097 73.3905 7.17854 73.3905 7.43575C73.3905 7.78629 73.3775 7.78342 72.9016 7.32795L72.4126 6.86002L77.2429 6.76294C81.6569 6.67422 82.1076 6.68959 82.4715 6.94124L82.8698 7.21663L82.8307 12.6941C82.7927 18.0157 82.7815 18.1908 82.4357 18.8486L82.0799 19.5257H78.2131H74.3464L74.3464 19.0593ZM75.9395 18.5698C75.9395 18.2399 75.5552 18.1301 75.3819 18.4105C75.2486 18.6262 75.4286 18.8884 75.71 18.8884C75.8362 18.8884 75.9395 18.745 75.9395 18.5698ZM82.1529 18.5698C82.1529 18.2399 81.7685 18.1301 81.5953 18.4105C81.4619 18.6262 81.6418 18.8884 81.9233 18.8884C82.0496 18.8884 82.1529 18.745 82.1529 18.5698ZM82.4715 15.7817V13.7903H81.8129C81.4507 13.7903 80.8857 13.8708 80.5574 13.9691C80.0068 14.1341 79.9528 14.2039 79.8618 14.8676C79.7311 15.8208 79.7358 17.5334 79.8695 17.667C79.9279 17.7254 80.5373 17.7732 81.2237 17.7732H82.4717L82.4715 15.7817ZM80.0818 15.9731V14.4916L80.6109 14.3002C80.9019 14.195 81.3679 14.1089 81.6464 14.1089H82.1529V15.7817V17.4546H81.1173H80.0818V15.9731ZM78.8869 7.41763V7.01934L76.6133 6.97512C74.6935 6.93777 74.3252 6.96877 74.2464 7.17426C74.195 7.30812 74.195 7.52715 74.2464 7.661C74.3252 7.86651 74.6935 7.89749 76.6133 7.86015L78.8869 7.81592V7.41763ZM74.5057 7.33797C74.5057 7.13781 74.842 7.099 76.5768 7.099C78.3116 7.099 78.6479 7.13781 78.6479 7.33797C78.6479 7.53814 78.3116 7.57695 76.5768 7.57695C74.842 7.57695 74.5057 7.53814 74.5057 7.33797ZM81.197 7.32093C81.197 7.03178 80.7785 7.03294 80.6674 7.3224C80.6202 7.44527 80.6196 7.58371 80.6658 7.63006C80.8121 7.77639 81.197 7.55244 81.197 7.32093ZM92.1367 17.9856C92.0783 17.9272 92.0305 17.5687 92.0305 17.189V16.4987H94.0219H96.0134V17.2952V18.0918H94.1282C93.0913 18.0918 92.1951 18.044 92.1367 17.9856ZM97.0091 17.9752L96.332 17.9142V17.2064C96.332 16.5081 96.339 16.4987 96.8724 16.4987C97.3592 16.4987 97.4394 16.5656 97.6834 17.1753C97.8323 17.5474 98.0372 17.9048 98.1388 17.9694C98.3273 18.0894 98.2794 18.0896 97.0091 17.9752ZM91.5526 17.3047C91.5526 16.9593 91.6243 16.6325 91.7119 16.5783C91.8092 16.5182 91.8712 16.7625 91.8712 17.2062C91.8712 17.6057 91.7995 17.9325 91.7119 17.9325C91.6242 17.9325 91.5526 17.65 91.5526 17.3047ZM91.2741 17.2156C91.2756 16.8651 91.3085 16.7405 91.3466 16.9386C91.3847 17.1368 91.3833 17.4236 91.3435 17.5759C91.3036 17.7282 91.2724 17.5661 91.2741 17.2156ZM98.0306 17.3351C97.9088 17.0941 97.656 16.4486 97.4689 15.9006C97.147 14.9579 97.1286 14.6048 97.1286 9.3483C97.1286 4.59084 97.1631 3.76371 97.3689 3.59297C97.7034 3.31533 98.974 3.48222 99.4967 3.87247L99.9167 4.18593L99.9583 10.436L100 16.6861L99.4565 17.2297C98.7923 17.8939 98.3303 17.928 98.0306 17.3351ZM99.2529 16.112C99.3647 15.8207 98.9587 15.4789 98.6442 15.5996C98.396 15.6948 98.3215 16.0452 98.5094 16.2331C98.698 16.4217 99.1631 16.346 99.2529 16.112ZM98.6489 16.0317C98.5311 15.8411 98.8308 15.6522 99.043 15.7833C99.2212 15.8935 99.1042 16.18 98.8811 16.18C98.8038 16.18 98.6993 16.1133 98.6489 16.0317ZM99.0086 11.8466C99.4896 11.3656 99.0008 10.6026 98.4133 10.9171C98.0116 11.1322 97.9846 11.6451 98.3633 11.8657C98.7253 12.0765 98.7803 12.0749 99.0086 11.8466ZM98.3204 11.5548C98.2585 11.4547 98.2829 11.2978 98.3744 11.2062C98.5885 10.9921 99.0877 11.1788 99.0006 11.4405C98.9119 11.7068 98.4611 11.7826 98.3204 11.5548ZM99.0145 6.16247C99.1317 6.08818 99.2034 5.85628 99.1739 5.64713C99.0999 5.12387 98.3204 5.01349 98.1647 5.50422C97.9839 6.07391 98.5106 6.48189 99.0145 6.16247ZM98.3897 5.8879C98.2481 5.71734 98.2419 5.60334 98.3674 5.47793C98.5874 5.25794 99.0405 5.42274 99.0405 5.72276C99.0405 6.05475 98.6173 6.16213 98.3897 5.8879ZM74.1955 16.0217C73.3495 14.6702 73.1472 14.4417 72.8566 14.5098C72.6683 14.5539 72.4124 14.5238 72.2879 14.4427C72.0949 14.3172 72.101 14.2351 72.3295 13.8864C72.5911 13.4871 72.5858 13.4669 72.1063 13.0397C71.8361 12.7989 71.2902 12.0807 70.8931 11.4437L70.1712 10.2853L68.5547 10.2863C66.7641 10.2872 65.8261 10.4771 65.6756 10.8691C65.5546 11.1846 65.865 11.5457 67.0178 12.4307C68.0118 13.1938 69.0232 13.4282 70.0865 13.1419C70.6963 12.9776 70.7168 12.9507 70.6315 12.4249C70.5827 12.1244 70.5683 11.8785 70.5995 11.8785C70.7806 11.8785 71.3381 13.0387 71.2157 13.1611C70.7693 13.6075 68.1342 14.1793 68.1324 13.8302C68.1321 13.7644 67.6884 13.3523 67.1465 12.9143C66.6045 12.4762 65.7474 11.5442 65.2418 10.8431C64.7362 10.142 64.212 9.44297 64.077 9.28963C63.942 9.13628 63.8315 8.86744 63.8315 8.69219C63.8315 8.41604 63.9377 8.37356 64.6281 8.37356C65.2122 8.37356 65.5096 8.45853 65.7433 8.69219C66.0316 8.98048 66.2743 9.01082 68.2924 9.01082H70.5228V8.56426C70.5228 8.02483 71.3975 6.78039 71.7767 6.78039C72.1812 6.78039 73.6428 8.36394 73.8898 9.06978C74.033 9.47898 74.3271 9.83877 74.7644 10.1396C75.1267 10.3889 75.7841 11.0793 76.2252 11.6738C77.1806 12.9615 77.6223 13.3939 78.2098 13.6164L78.6479 13.7824V15.6982V17.6139H76.92H75.1921L74.1955 16.0217ZM72.0762 7.45755C72.1633 7.19593 71.6641 7.00917 71.45 7.22328C71.3584 7.3149 71.334 7.47178 71.3959 7.57189C71.5367 7.79965 71.9875 7.72387 72.0762 7.45755ZM55.1328 15.3197C54.6185 14.8054 54.5911 14.7209 54.5911 13.6469C54.5911 12.7687 54.6424 12.5158 54.8205 12.5158C54.9705 12.5158 55.067 12.7224 55.0993 13.1132L55.1487 13.7106L56.2789 13.7569C57.1297 13.7918 57.4579 13.7444 57.6064 13.5654C57.9022 13.2091 57.6684 12.7048 57.1724 12.6291C56.9356 12.593 58.2217 12.5528 60.0304 12.5396L63.319 12.5158L64.2125 13.267L65.106 14.0183V14.9398V15.8614H60.3903H55.6745L55.1328 15.3197ZM65.2628 14.8657L65.2602 13.8699L64.2671 13.0367L63.2739 12.2034L58.8842 12.2003L54.4946 12.1972L54.1354 11.082L53.7762 9.96676H50.8397H47.9031L47.3198 9.08815L46.7364 8.20955L42.121 8.25174L37.5057 8.29393L37.0406 9.80744C36.7848 10.6399 36.4658 11.6973 36.3317 12.1574C36.1213 12.8793 36.0332 12.9938 35.6882 12.9938C35.2076 12.9938 35.1956 13.0706 36.1724 9.8871L36.8567 7.65667L41.7819 7.61463L46.707 7.57258L47.3433 8.60469L47.9795 9.6368L55.9454 9.64493L63.9112 9.65306L65.0117 11.1243C65.6169 11.9334 66.537 12.9467 67.0562 13.376C67.9625 14.1252 67.996 14.1794 67.8932 14.7272C67.6936 15.7912 67.5995 15.8615 66.375 15.8615H65.2653L65.2628 14.8657ZM55.3877 13.081C55.3877 12.5412 55.4128 12.5158 55.9453 12.5158C56.252 12.5158 56.5029 12.5875 56.5029 12.6751C56.5029 12.7627 56.723 12.8344 56.992 12.8344C57.408 12.8344 57.4734 12.8879 57.4301 13.1929C57.3844 13.5148 57.2778 13.5561 56.3835 13.5987L55.3877 13.6462V13.081ZM83.5867 11.6395V9.80738H85.4985H87.4103V11.2161V12.6247L86.331 13.0482C85.6513 13.3149 84.9434 13.4717 84.4192 13.4717H83.5867V11.6395ZM69.0163 12.1573C69.062 10.7812 69.0682 10.7633 69.4999 10.7633C69.8783 10.7633 69.9027 10.8043 69.8086 11.2811C69.5503 12.5887 68.9809 13.2183 69.0163 12.1573ZM36.9732 11.9183C37.1939 11.2166 37.8629 8.94924 37.8629 8.90306C37.8629 8.87469 39.8243 8.85148 42.2216 8.85148H46.5802L47.162 9.72772L47.7438 10.604H50.6706H53.5974L53.7756 11.3118C53.8737 11.7011 53.9539 12.0595 53.9539 12.1084C53.9539 12.1572 50.1135 12.1971 45.4197 12.1971C37.3647 12.1971 36.8905 12.1815 36.9732 11.9183ZM35.3766 10.7284C35.4801 10.2111 35.7213 9.84307 35.8636 9.98542C35.9878 10.1096 35.5939 11.2412 35.4265 11.2412C35.3398 11.2412 35.3182 11.0202 35.3766 10.7284ZM49.0151 8.69216C49.0151 8.37353 49.0947 8.21421 49.254 8.21421C49.4134 8.21421 49.493 8.37353 49.493 8.69216C49.493 9.0108 49.4134 9.17011 49.254 9.17011C49.0947 9.17011 49.0151 9.0108 49.0151 8.69216ZM47.8202 8.69216C47.5368 8.37905 47.5419 8.37353 48.1141 8.37353C48.5902 8.37353 48.6964 8.43165 48.6964 8.69216C48.6964 8.89566 48.5902 9.0108 48.4025 9.0108C48.2408 9.0108 47.9788 8.86741 47.8202 8.69216ZM49.8116 8.69216C49.8116 8.38603 49.9179 8.37353 52.52 8.37353C55.1222 8.37353 55.2284 8.38602 55.2284 8.69216C55.2284 8.9983 55.1222 9.0108 52.52 9.0108C49.9179 9.0108 49.8116 8.9983 49.8116 8.69216ZM55.547 8.61251C55.547 8.23192 55.5895 8.21421 56.5029 8.21421C57.4164 8.21421 57.4588 8.23192 57.4588 8.61251C57.4588 8.9931 57.4164 9.0108 56.5029 9.0108C55.5895 9.0108 55.547 8.99309 55.547 8.61251ZM58.0961 8.61251C58.0961 8.27617 58.1705 8.21421 58.5741 8.21421C58.9777 8.21421 59.052 8.27617 59.052 8.61251C59.052 8.94884 58.9776 9.0108 58.5741 9.0108C58.1705 9.0108 58.0961 8.94884 58.0961 8.61251ZM59.53 8.61251C59.53 8.32043 59.6149 8.21421 59.8486 8.21421C60.0822 8.21421 60.1672 8.32043 60.1672 8.61251C60.1672 8.90459 60.0822 9.0108 59.8486 9.0108C59.6149 9.0108 59.53 8.90459 59.53 8.61251ZM60.6452 8.59546C60.6452 8.25957 60.6985 8.20349 60.924 8.3023C61.0773 8.36949 61.7225 8.45669 62.3578 8.49607C63.2036 8.5485 63.5129 8.62699 63.5129 8.78923C63.5129 8.96203 63.1972 9.01079 62.079 9.01079H60.6452V8.59546ZM66.2611 8.6897C66.0639 8.60908 65.9026 8.43327 65.9026 8.29901C65.9026 8.10028 66.1692 8.04873 67.3365 8.02171C70.4419 7.94982 70.2749 7.92983 70.2752 8.37353L70.2755 8.77182L68.4476 8.80406C67.4421 8.82179 66.4582 8.77033 66.2611 8.6897ZM23.6838 6.16529V3.79774L24.5202 3.69727C24.9802 3.64201 30.0704 3.59618 35.8316 3.59542L46.3067 3.59403V5.42617V7.25831H45.6694H45.0322V5.66514V4.07198H43.4195C41.908 4.07198 41.8203 4.08947 42.0217 4.35078C42.1399 4.50413 42.6863 5.17779 43.2361 5.84781C43.7858 6.51783 44.2356 7.10929 44.2356 7.16217C44.2356 7.21504 44.0678 7.25831 43.8627 7.25831C43.5953 7.25831 43.2021 6.92033 42.4726 6.06343C41.9131 5.40625 41.4178 4.87235 41.3718 4.87699C41.3258 4.88163 40.8641 5.41932 40.3456 6.07186C39.5547 7.06741 39.3273 7.25831 38.9321 7.25831C38.3925 7.25831 38.3558 7.33183 39.6721 5.77885C40.1019 5.27183 40.4181 4.82154 40.3747 4.7782C40.3314 4.73487 39.3887 4.71954 38.2798 4.74415L36.2637 4.7889L37.3174 5.98378L38.3711 7.17865L37.9179 7.23334C37.5281 7.28039 37.3084 7.11753 36.3494 6.07081L35.2342 4.85356L34.2385 6.04999C33.6908 6.70803 33.2427 7.28495 33.2427 7.33203C33.2427 7.37911 33.9888 7.41764 34.9007 7.41764H36.5586L36.3874 7.97524L36.2163 8.53285H29.95H23.6838V6.16529ZM27.1462 6.04538C27.9144 5.1154 28.5668 4.29094 28.596 4.21324C28.6252 4.13555 27.9621 4.07199 27.1223 4.07199H25.5956V5.60041C25.5956 6.99484 25.5676 7.13613 25.2769 7.21215C24.8182 7.33212 24.8775 7.73626 25.3539 7.73626C25.6627 7.73626 26.0564 7.36483 27.1462 6.04538ZM30.2823 6.18293C29.6841 5.50384 29.1764 4.9213 29.1541 4.88839C29.1114 4.82523 28.6233 5.38346 27.6133 6.65093L27.0023 7.41763H29.1862H31.37L30.2823 6.18293ZM33.2473 5.98378L34.2428 4.78891L33.1852 4.74181C32.6035 4.7159 31.6629 4.7159 31.095 4.74181L30.0625 4.78891L31.1224 6.02272C31.7054 6.70131 32.198 7.239 32.2171 7.21759C32.2361 7.19618 32.6997 6.64097 33.2473 5.98378ZM83.9054 7.49729V6.78037H85.6578H87.4103V7.23362C87.4103 8.02159 87.0088 8.21421 85.3665 8.21421H83.9054V7.49729ZM63.8315 6.48226V4.86857H55.2284H46.6253V3.83019V2.7918L59.198 2.83446L71.7708 2.87711L72.2555 3.23558C72.6992 3.56363 72.9142 3.59404 74.7907 3.59404C76.8146 3.59404 76.8409 3.59868 76.8284 3.9525C76.8162 4.29892 76.8706 4.31249 78.4488 4.35636L80.0818 4.40176V3.9979C80.0818 3.61947 80.132 3.59404 80.8783 3.59404C81.5808 3.59404 81.6749 3.63347 81.6749 3.92792C81.6749 4.11155 81.7949 4.46482 81.9414 4.71295L82.2079 5.1641L85.6854 5.07125L89.1628 4.9784V5.72006V6.46173H80.3341H71.5055L71.0171 7.07831L70.5288 7.69488L68.7335 7.79827C67.7461 7.85513 66.2392 7.94537 65.3848 7.9988L63.8315 8.09594V6.48226ZM65.1745 7.62832C65.3064 7.2846 64.9226 6.89779 64.5801 7.02923C64.3584 7.11432 64.3177 7.38731 64.4569 7.85575C64.5074 8.02548 65.0934 7.83974 65.1745 7.62832ZM69.7869 6.93968C70.2153 6.46553 70.4851 6.30242 70.841 6.30242C71.2182 6.30242 71.3194 6.23284 71.3194 5.97331C71.3194 5.7923 71.2452 5.50553 71.1544 5.33605C71.0047 5.05631 70.8036 5.02789 68.9741 5.02789C67.1241 5.02789 66.9284 5.05632 66.59 5.37429C66.3076 5.63956 66.2212 5.89331 66.2212 6.45764C66.2212 6.86296 66.3073 7.28062 66.4124 7.38577C66.53 7.50332 67.1058 7.57695 67.9074 7.57695H69.2112L69.7869 6.93968ZM66.6461 6.99278C66.4267 6.77336 66.5481 5.8664 66.8312 5.61018C67.0651 5.39856 67.4676 5.34651 68.8705 5.34651C70.0175 5.34651 70.6841 5.41223 70.8096 5.53769C71.1007 5.8288 71.0396 5.98378 70.6337 5.98378C70.4234 5.98378 70.0359 6.22187 69.7262 6.54139C69.2014 7.0828 69.1504 7.09899 67.969 7.09899C67.2998 7.09899 66.7045 7.0512 66.6461 6.99278ZM75.9395 5.95649C75.9395 5.21955 75.53 5.02788 73.9553 5.02788C72.3633 5.02788 72.116 5.1393 72.116 5.85633V6.30241H74.0277C75.8836 6.30241 75.9395 6.29229 75.9395 5.95649ZM72.4346 5.85633C72.4346 5.33057 72.7775 5.1872 74.0349 5.1872C75.0374 5.1872 75.3023 5.24181 75.5322 5.49579C76.0018 6.01476 75.7017 6.1431 74.0183 6.1431C72.5994 6.1431 72.4346 6.11324 72.4346 5.85633ZM80.5597 5.95649C80.5597 5.22225 80.1487 5.02788 78.5959 5.02788C77.0218 5.02788 76.5768 5.22643 76.5768 5.92881C76.5768 6.30081 76.5853 6.30241 78.5683 6.30241C80.5059 6.30241 80.5597 6.29306 80.5597 5.95649ZM76.8954 5.92881C76.8954 5.43245 77.4578 5.1872 78.5959 5.1872C79.4765 5.1872 79.7697 5.24903 79.9774 5.47855C80.5018 6.05795 80.3212 6.1431 78.5683 6.1431C77.2732 6.1431 76.8954 6.09471 76.8954 5.92881ZM72.0363 4.63177C72.0363 4.2803 71.541 4.10527 71.2813 4.36497C71.0135 4.63274 71.2776 5.05596 71.6771 4.99923C71.9121 4.96586 72.0363 4.83884 72.0363 4.63177ZM76.6565 4.62961C76.6565 4.39594 76.5502 4.31097 76.2582 4.31097C75.8874 4.31097 75.732 4.57743 75.9044 4.91752C76.0401 5.18515 76.6565 4.94918 76.6565 4.62961ZM47.8503 4.35079C48.0862 4.03506 48.0059 3.68313 47.6838 3.6211C47.279 3.54316 47.0499 3.81223 47.1778 4.21526C47.2963 4.58862 47.6234 4.65453 47.8503 4.35079ZM49.412 4.06941C49.4111 3.78856 49.3128 3.65969 49.0738 3.62544C48.6702 3.56762 48.4486 4.01239 48.7189 4.33798C49.0046 4.68221 49.4136 4.52373 49.412 4.06941ZM46.8826 7.5029C46.7318 7.27276 46.6253 6.77816 46.6253 6.30802V5.50584H47.8999H49.1744V6.70071V7.89558H48.1572C47.2518 7.89558 47.1116 7.8524 46.8826 7.5029ZM49.493 6.70071C49.493 6.01034 49.5603 5.50584 49.6523 5.50584C49.7444 5.50584 49.8116 6.01034 49.8116 6.70071C49.8116 7.39108 49.7444 7.89558 49.6523 7.89558C49.5603 7.89558 49.493 7.39108 49.493 6.70071ZM50.1303 6.69676V5.49794L52.7192 5.54171L55.3081 5.58549L55.3549 6.74053L55.4017 7.89557H52.766H50.1303V6.69676ZM60.5257 7.78314C60.1951 7.71946 60.1672 7.62832 60.1672 6.60996V5.50583H61.84H63.5129V6.7007V7.89558L62.1985 7.87388C61.4756 7.86195 60.7228 7.82111 60.5257 7.78314ZM55.7064 6.6327C55.7064 5.60363 55.7346 5.50581 56.0323 5.50581C56.333 5.50581 56.3545 5.58867 56.3111 6.57954C56.2727 7.45308 56.212 7.66319 55.9852 7.70644C55.7409 7.75301 55.7064 7.61998 55.7064 6.6327ZM57.4588 6.62102C57.4588 5.73593 57.5081 5.50581 57.6978 5.50581C57.8875 5.50581 57.9368 5.73593 57.9368 6.62102C57.9368 7.50611 57.8875 7.73624 57.6978 7.73624C57.5081 7.73624 57.4588 7.50611 57.4588 6.62102ZM58.2554 6.62102C58.2554 5.61202 58.2858 5.50581 58.5741 5.50581C58.8623 5.50581 58.8927 5.61202 58.8927 6.62102C58.8927 7.63003 58.8623 7.73624 58.5741 7.73624C58.2858 7.73624 58.2554 7.63003 58.2554 6.62102ZM59.3706 6.62102C59.3706 5.73593 59.4199 5.50581 59.6096 5.50581C59.7993 5.50581 59.8486 5.73593 59.8486 6.62102C59.8486 7.50611 59.7993 7.73624 59.6096 7.73624C59.4199 7.73624 59.3706 7.50611 59.3706 6.62102ZM56.8216 6.54136C56.8216 5.9572 56.891 5.50581 56.9809 5.50581C57.0708 5.50581 57.1402 5.9572 57.1402 6.54136C57.1402 7.12552 57.0708 7.57692 56.9809 7.57692C56.891 7.57692 56.8216 7.12552 56.8216 6.54136ZM0.0013087 6.06054C-0.00680023 4.77865 0.0127945 4.69844 0.354864 4.61258C1.07507 4.43182 1.2965 4.58675 1.34879 5.30804C1.39427 5.93532 1.43073 5.98376 1.85741 5.98376C2.28426 5.98376 2.32054 5.93546 2.36603 5.30666C2.40987 4.70079 2.46111 4.62426 2.85314 4.57916C3.27523 4.53059 3.29126 4.55572 3.29126 5.26587V6.00299L3.8887 5.95354C4.46861 5.90554 4.48757 5.88424 4.53512 5.227C4.57842 4.62859 4.62934 4.5499 4.97324 4.5499C5.32822 4.5499 5.36237 4.61281 5.36237 5.26683C5.36237 5.97996 5.36532 5.98375 5.91998 5.98375C6.47464 5.98375 6.47759 5.97995 6.47759 5.26683C6.47759 4.5537 6.48053 4.5499 7.0352 4.5499H7.5928V5.98375V7.4176H3.80134H0.00988455L0.0013087 6.06054ZM7.94429 6.11599C7.97448 5.3791 8.06177 4.95032 8.19024 4.90784C8.33784 4.85904 8.38939 5.15471 8.38939 6.05014C8.38939 7.03308 8.34354 7.25829 8.14343 7.25829C7.94022 7.25829 7.90561 7.05978 7.94429 6.11599ZM8.86734 6.06342V5.02786H16.1162H23.3651V6.06342V7.09898H16.1162H8.86734V6.06342ZM89.4814 5.72315V4.98457L91.3272 5.09824C93.4029 5.22606 93.783 5.08714 93.783 4.20063V3.7414L95.2567 3.7872L96.7303 3.833L96.7766 5.14737L96.8228 6.46173H96.0198H95.2168V5.90412V5.34651H92.6677H90.1186V5.90412C90.1186 6.35551 90.0579 6.46173 89.8 6.46173C89.5272 6.46173 89.4814 6.35552 89.4814 5.72315ZM90.5577 5.90413L90.6338 5.50584H92.6863H94.7389V5.90413V6.30242H92.6102H90.4815L90.5577 5.90413ZM82.2811 4.48007C82.0974 4.2827 81.9936 3.92654 81.9936 3.49337C81.9936 2.31558 81.9763 2.31916 87.6449 2.32186C93.3904 2.32457 93.3586 2.31814 93.4339 3.49523C93.5167 4.78961 93.4567 4.81214 90.3538 4.65098C88.8578 4.57328 86.5781 4.57328 85.1334 4.65098C82.7039 4.78164 82.5536 4.77263 82.2811 4.48007ZM83.8735 4.35876C84.1395 4.09272 84.112 3.67237 83.8124 3.42364C83.3157 3.01145 82.6934 3.81035 83.1152 4.31862C83.3486 4.59993 83.6181 4.61419 83.8735 4.35876ZM83.1853 4.06693C83.1234 3.96682 83.1478 3.80994 83.2395 3.71832C83.4536 3.50421 83.9527 3.69097 83.8656 3.95258C83.7769 4.21891 83.3261 4.29469 83.1853 4.06693ZM92.3764 4.28627C92.5367 4.14125 92.6678 3.96714 92.6678 3.89936C92.6678 3.73276 92.2007 3.27541 92.0305 3.27541C91.8535 3.27541 91.3932 3.73569 91.3932 3.91267C91.3932 4.0678 91.8444 4.54994 91.9895 4.54994C92.0421 4.54994 92.2162 4.43129 92.3764 4.28627ZM91.7119 3.91267C91.7119 3.70025 91.8181 3.59404 92.0305 3.59404C92.2429 3.59404 92.3491 3.70025 92.3491 3.91267C92.3491 4.12509 92.2429 4.2313 92.0305 4.2313C91.8181 4.2313 91.7119 4.12509 91.7119 3.91267ZM77.0673 3.81974C77.0751 3.63414 77.1127 3.59639 77.1636 3.72348C77.2096 3.83849 77.2039 3.9759 77.151 4.02884C77.0981 4.08178 77.0604 3.98768 77.0673 3.81974ZM77.5327 3.83301C77.5327 3.70158 77.6044 3.59404 77.692 3.59404C77.7796 3.59404 77.8513 3.70158 77.8513 3.83301C77.8513 3.96445 77.7796 4.07199 77.692 4.07199C77.6044 4.07199 77.5327 3.96445 77.5327 3.83301ZM78.17 3.83301C78.17 3.70158 78.2775 3.59404 78.409 3.59404C78.5404 3.59404 78.6479 3.70158 78.6479 3.83301C78.6479 3.96445 78.5404 4.07199 78.409 4.07199C78.2775 4.07199 78.17 3.96445 78.17 3.83301ZM78.9666 3.91267C78.9666 3.82505 79.1816 3.75335 79.4445 3.75335C79.7074 3.75335 79.9224 3.82505 79.9224 3.91267C79.9224 4.00029 79.7074 4.07199 79.4445 4.07199C79.1816 4.07199 78.9666 4.00029 78.9666 3.91267ZM72.5193 2.84065C72.4352 2.50563 72.4879 2.34301 72.7488 2.13173C73.2718 1.7082 73.7763 1.96915 73.8382 2.69521C73.8875 3.27306 73.8851 3.2754 73.2581 3.2754C72.7053 3.2754 72.6151 3.22236 72.5193 2.84065ZM48.3231 2.51311C46.8408 2.47419 46.6089 2.43274 46.6901 2.22128C46.7421 2.08572 46.7846 1.65806 46.7846 1.27092C46.7846 0.72093 46.8425 0.567026 47.0494 0.567026C47.4052 0.567026 48.7244 1.34608 48.9843 1.70965C49.0988 1.86982 49.2969 2.00087 49.4246 2.00087C49.5522 2.00087 49.7946 2.08705 49.9633 2.19237C50.2059 2.34389 50.3558 2.33791 50.6813 2.16373C50.9973 1.99461 51.1362 1.98715 51.2806 2.13154C51.5277 2.37864 51.9979 2.37208 52.0824 2.12035C52.1346 1.96483 52.2422 1.97073 52.5736 2.14727C52.9401 2.34249 53.0559 2.34249 53.4223 2.14727C53.7537 1.97073 53.8614 1.96483 53.9136 2.12035C53.9985 2.37336 54.3472 2.37502 54.7486 2.1243C54.9952 1.97031 55.1023 1.97031 55.2563 2.1243C55.4909 2.35895 56.025 2.38385 56.025 2.16014C56.025 2.07252 56.1684 2.00082 56.3436 2.00082C56.5189 2.00082 56.6623 2.07252 56.6623 2.16014C56.6623 2.37989 57.0763 2.35977 57.4818 2.12031C57.7516 1.96099 57.8335 1.96099 57.8912 2.12031C57.9835 2.3751 58.4524 2.37739 58.7055 2.12426C58.8595 1.97026 58.9665 1.97026 59.2131 2.12426C59.5908 2.36013 60.0079 2.37894 60.0079 2.1601C60.0079 2.07248 60.1513 2.00078 60.3265 2.00078C60.5018 2.00078 60.6452 2.07248 60.6452 2.1601C60.6452 2.38046 61.1777 2.36042 61.4067 2.13146C61.5511 1.98706 61.6864 1.99262 61.9907 2.15548C62.3162 2.32969 62.4313 2.33051 62.6366 2.16012C62.8419 1.98977 62.9566 1.99029 63.2793 2.16299C63.6079 2.33884 63.7416 2.33625 64.0965 2.14717C64.4279 1.97063 64.5356 1.96473 64.5878 2.12025C64.7203 2.51485 65.2324 2.33071 66.5536 1.41341C67.0715 1.05388 67.2803 0.801594 67.2706 0.547254C67.2593 0.254561 67.3722 0.163899 67.8827 0.0555983C68.2765 -0.0279438 68.5689 -0.0168402 68.6713 0.0855476C68.7821 0.196319 68.7283 0.248285 68.503 0.248285C67.8248 0.248285 67.596 1.062 68.1723 1.42492C68.3773 1.55404 68.5314 1.54968 68.7577 1.40836C69.0275 1.23985 69.1043 1.28349 69.3901 1.76798C69.6453 2.2005 69.8176 2.3194 70.1894 2.3194C70.45 2.3194 70.6965 2.37317 70.7371 2.43888C70.8062 2.55069 52.1121 2.61262 48.3231 2.51311ZM68.0439 1.02969C67.9846 0.933655 68.052 0.739061 68.1938 0.597257C68.4314 0.3597 68.4719 0.3597 68.7095 0.597257C69.0106 0.898381 68.8807 1.20429 68.4517 1.20429C68.2868 1.20429 68.1033 1.12572 68.0439 1.02969Z" />
</svg>
