<svg width="100" height="29" viewBox="0 0 100 29"  xmlns="http://www.w3.org/2000/svg">
<path d="M79.6997 28.841C78.9111 28.5592 78.6504 27.4537 79.3639 27.4169C79.6888 27.4001 79.7125 27.3729 79.4598 27.3069C79.2752 27.2586 79.124 27.1462 79.124 27.057C79.124 26.9678 79.075 26.7672 79.0152 26.6111C78.9301 26.3895 79.1993 26.275 80.2443 26.0882C80.9802 25.9567 81.7263 25.9044 81.9024 25.972C82.3476 26.1428 82.19 26.7097 81.6168 26.9998C81.3539 27.1328 81.2524 27.2429 81.3913 27.2444C82.3244 27.2548 82.6992 26.3089 81.9543 25.8235C81.5743 25.5758 81.3618 25.5772 80.1794 25.8354C78.555 26.19 77.7809 26.002 77.7809 25.2529C77.7809 24.9951 77.7284 24.6476 77.6644 24.4807C77.5835 24.2699 77.6589 24.1771 77.9104 24.1771C78.1098 24.1771 78.728 24.0591 79.2843 23.9148C80.2143 23.6735 80.3297 23.6812 80.7173 24.0101L81.1388 24.3678L80.6004 24.8481C80.247 25.1634 80.1609 25.3284 80.3497 25.3284C80.6628 25.3284 81.2348 24.6217 81.2348 24.2348C81.2348 24.1024 81.0315 23.8609 80.783 23.6981C80.3716 23.4286 80.187 23.4366 78.7203 23.7883C76.8967 24.2254 76.8215 24.2348 76.8215 24.0251C76.8215 23.9414 77.1967 23.7726 77.6554 23.6499C78.5714 23.4049 79.6997 22.4804 79.6997 21.9747C79.6997 21.7978 79.448 21.4015 79.1404 21.0938C78.4932 20.4466 78.0137 20.4697 76.2699 21.2319C75.3531 21.6326 74.9479 21.6827 72.6189 21.6827C69.2589 21.6827 69.1462 21.6201 69.1462 19.753V18.4207H71.652C73.3005 18.4207 74.1165 18.4874 74.0372 18.6157C73.971 18.7229 73.8446 18.7661 73.7563 18.7116C73.6682 18.6571 73.3754 18.9888 73.1059 19.4488C72.6884 20.1611 71.8921 20.9151 71.5573 20.9151C71.5039 20.9151 71.6736 20.6009 71.9343 20.2168C72.1949 19.8327 72.4082 19.3058 72.4082 19.046C72.4082 18.5749 72.4045 18.574 71.017 18.7105C70.2519 18.7858 69.6093 18.8616 69.589 18.8788C69.5687 18.8961 69.5313 19.3119 69.5059 19.8027C69.4352 21.1692 69.6369 21.2989 71.8325 21.2989C74.0001 21.2989 74.1923 21.181 74.1135 19.8999C74.0673 19.1491 74.1532 18.9478 74.8951 18.0679C75.882 16.8976 76.4416 16.6963 78.7129 16.6948C80.1678 16.6938 80.3029 16.7249 80.1707 17.0295C79.8993 17.655 79.8537 18.567 80.0733 18.9773C80.1935 19.2019 80.6551 19.6134 81.0991 19.8916C82.1126 20.5268 85.0174 23.332 85.378 24.0237C85.5265 24.3087 85.6481 24.8095 85.6481 25.1366C85.6481 26.2699 85.2263 26.7066 83.0074 27.8709C81.036 28.9053 80.4008 29.0916 79.6997 28.841ZM80.7551 27.4391C81.1251 27.2801 81.1237 27.2737 80.7184 27.2607C80.4872 27.2533 80.2446 27.3336 80.1794 27.4391C80.0392 27.6661 80.2269 27.6661 80.7551 27.4391ZM79.6038 25.5203C79.8568 25.4116 79.8895 25.3518 79.6997 25.3449C79.5414 25.3391 79.2824 25.418 79.124 25.5203C78.7733 25.747 79.0763 25.747 79.6038 25.5203ZM45.7563 27.1993C45.6668 26.9618 45.5326 26.4869 45.458 26.1439L45.3223 25.5203H46.9931H48.6639L48.535 26.3263C48.3532 27.4628 48.1496 27.631 46.9556 27.631C46.0567 27.631 45.8973 27.5737 45.7563 27.1993ZM45.4807 25.0086C45.4104 24.9383 45.3528 24.6361 45.3528 24.337V23.7934H46.9838H48.6148V24.465V25.1366H47.1117C46.285 25.1366 45.5511 25.079 45.4807 25.0086ZM59.4294 24.8797C59.4974 24.6857 59.5559 22.3841 59.5593 19.7651L59.565 15.0033L64.1636 14.9772L68.7621 14.951V16.5053C68.7621 17.4926 68.6921 18.0163 68.5702 17.941C68.4646 17.8757 68.3783 17.442 68.3783 16.977C68.3783 16.3376 68.2879 16.0832 68.0071 15.933C67.5843 15.7066 60.7315 15.6601 60.3882 15.8812C60.2679 15.9587 60.1383 16.4713 60.1004 17.0203C60.0625 17.5692 60.0904 17.9578 60.1625 17.8837C60.2346 17.8097 60.3209 17.4037 60.3544 16.9816L60.4151 16.214H64.2528H68.0904L68.1483 17.1102C68.1801 17.6031 68.3312 18.1101 68.4841 18.237C68.7011 18.4172 68.762 19.0245 68.762 21.0106C68.762 24.0097 68.6531 24.6949 68.1319 24.9738C67.7928 25.1553 67.7644 25.1364 67.904 24.8231C68.088 24.4101 68.3769 19.2161 68.2362 18.8495C68.1635 18.6599 67.2525 18.6166 64.1828 18.6567L60.2233 18.7085L60.1273 21.6281C60.0439 24.1677 59.9841 24.5922 59.6683 24.8901C59.3196 25.219 59.3106 25.2187 59.4294 24.8797ZM60.2568 24.5799C60.3238 24.3056 60.4733 24.0178 60.589 23.9402C60.7339 23.8431 60.7247 23.7983 60.5595 23.7963C60.3042 23.7933 60.2282 23.1813 60.4549 22.9545C60.6441 22.7653 60.6621 21.2989 60.4752 21.2989C60.3058 21.2989 60.3691 20.6098 60.5557 20.4233C60.6207 20.3583 60.6259 20.0107 60.5676 19.6508C60.4558 18.962 60.7529 18.7349 60.9845 19.3321C61.1084 19.6519 61.1264 19.6519 61.3619 19.3321C61.5765 19.0408 61.9563 18.9963 64.2325 18.9963C66.487 18.9963 66.8727 19.0406 66.9765 19.3111C67.0869 19.5987 67.1183 19.5971 67.3415 19.2919C67.4758 19.1082 67.6778 19.0148 67.7903 19.0844C68.0466 19.2428 68.061 19.9557 67.8079 19.9557C67.701 19.9557 67.6718 20.2108 67.7398 20.5508C67.8204 20.954 67.7725 21.2062 67.5911 21.3329C67.3849 21.477 67.3785 21.5424 67.5632 21.6173C67.8475 21.7327 67.8888 22.4502 67.6112 22.4502C67.5057 22.4502 67.4193 22.5366 67.4193 22.6421C67.4193 22.7476 67.5483 22.834 67.706 22.834C68.0567 22.834 67.9819 23.6378 67.6199 23.7585C67.4234 23.824 67.4239 23.8695 67.6221 23.9921C67.8168 24.1124 67.7988 24.2508 67.536 24.6518L67.2036 25.1592L63.6692 25.1189L60.1349 25.0786L60.2568 24.5799ZM58.5849 23.8414C58.5806 23.3401 58.5701 22.3687 58.5617 21.6827C58.5217 18.4513 58.5849 17.6532 58.8805 17.6532C59.126 17.6532 59.1684 18.1755 59.1684 21.203C59.1684 24.2304 59.126 24.7528 58.8805 24.7528C58.6662 24.7528 58.5907 24.5201 58.5849 23.8414ZM76.2458 23.1255C76.2458 22.7177 76.1013 22.3057 75.8809 22.0853C75.5223 21.7267 75.5303 21.715 76.3433 21.4045C77.7259 20.8765 78.5057 20.817 78.9365 21.2069C79.9074 22.0856 78.9708 23.1545 76.7735 23.6756C76.2741 23.794 76.2458 23.7645 76.2458 23.1255ZM45.4221 23.1215C45.2875 22.7709 45.4132 21.9587 45.5927 22.0185C45.6718 22.0449 46.3897 22.0665 47.1879 22.0665H48.6391L48.579 22.675L48.5189 23.2836L47.0203 23.3323C45.9028 23.3686 45.4963 23.315 45.4221 23.1215ZM92.22 22.3257C91.8913 22.1896 91.9192 21.5896 92.2873 20.8778C92.5233 20.4214 92.5645 20.0034 92.4649 19.0738C92.348 17.9819 92.2619 17.7976 91.5815 17.1829L90.8277 16.5019H87.9501C85.0724 16.5019 85.0724 16.5019 85.4561 16.1181C85.7907 15.7836 85.8399 15.4785 85.8399 13.7402C85.8399 12.1225 85.8956 11.7245 86.1351 11.6327C86.5356 11.479 89.1172 13.3606 88.9835 13.7088C88.9287 13.8517 88.9828 14.0297 89.1033 14.1043C89.3819 14.2764 94.8178 14.3038 94.9877 14.134C95.0572 14.0644 95.7923 14.0075 96.621 14.0075H98.1278L98.0761 18.1809L98.0244 22.3543L95.2421 22.3897C93.7118 22.4092 92.3519 22.3803 92.22 22.3257ZM97.9285 18.4207V15.1587H96.8156C96.2035 15.1587 95.5991 15.2624 95.4724 15.389C95.2245 15.6369 95.1302 21.315 95.3701 21.5548C95.4404 21.6252 96.0449 21.6827 96.7133 21.6827H97.9285V18.4207ZM95.562 21.3629C95.3229 21.1239 95.4166 15.8285 95.6643 15.5809C95.7909 15.4542 96.309 15.3506 96.8156 15.3506H97.7366V18.4207V21.4909H96.7133C96.1504 21.4909 95.6323 21.4333 95.562 21.3629ZM94.0909 19.1883C94.0909 19.0827 94.0045 18.9964 93.899 18.9964C93.7934 18.9964 93.7071 19.0827 93.7071 19.1883C93.7071 19.2938 93.7934 19.3801 93.899 19.3801C94.0045 19.3801 94.0909 19.2938 94.0909 19.1883ZM93.7966 16.6175C93.6206 16.079 93.3774 15.575 93.2561 15.4975C93.1348 15.4199 91.7576 15.3552 90.1957 15.3536C88.03 15.3513 87.2216 15.2811 86.7898 15.0579C86.1692 14.7369 86.027 14.8712 86.5595 15.2754C86.8036 15.4607 87.6904 15.532 89.8078 15.5364C93.4112 15.5439 93.2828 15.4631 93.6279 17.941L93.7615 18.9004L93.939 18.2485C94.0704 17.766 94.0333 17.3421 93.7966 16.6175ZM97.9285 14.7843C97.9285 14.6744 96.2426 14.5991 93.6979 14.5953L89.4673 14.589L88.661 14.0453C87.3959 13.1923 86.4156 12.623 86.4156 12.7413C86.4156 12.8008 87.1272 13.3259 87.9969 13.9082L89.5782 14.9669H93.7534C96.2674 14.9669 97.9285 14.8942 97.9285 14.7843ZM98.3772 22.0416C98.4441 21.7914 98.5001 19.1453 98.5015 16.1612L98.5046 10.7356L99.1282 11.0551C100.017 11.5106 100.071 11.6473 99.9547 13.144C99.8972 13.8827 99.7636 15.696 99.6579 17.1735C99.345 21.5473 99.2961 21.8148 98.7429 22.1772C98.2644 22.4907 98.2576 22.4884 98.3772 22.0416ZM45.433 21.5068C45.3889 21.4629 45.3528 21.2791 45.3528 21.0985C45.3528 20.9179 45.1585 20.6346 44.9211 20.4689C44.5184 20.1881 44.6483 20.1671 46.8515 20.1577L49.2136 20.1476L49.1541 20.8549L49.0945 21.5622L47.3038 21.5745C46.3189 21.5812 45.4771 21.5508 45.433 21.5068ZM28.4 19.4827C27.5934 18.8716 28.2281 18.8044 34.8106 18.8044C41.513 18.8044 41.79 18.8366 41.093 19.5336C40.8146 19.812 39.9801 19.8408 39.9801 19.572C39.9801 19.4664 39.7693 19.3801 39.5117 19.3801C39.2541 19.3801 38.99 19.4664 38.9248 19.572C38.8595 19.6775 38.5954 19.7639 38.3378 19.7639C38.0802 19.7639 37.8694 19.6775 37.8694 19.572C37.8694 19.4664 37.6586 19.3801 37.401 19.3801C37.1434 19.3801 36.8793 19.4664 36.8141 19.572C36.7488 19.6775 36.4847 19.7639 36.2271 19.7639C35.9695 19.7639 35.7587 19.6775 35.7587 19.572C35.7587 19.4664 35.5479 19.3801 35.2903 19.3801C35.0327 19.3801 34.7686 19.4664 34.7034 19.572C34.6381 19.6775 34.374 19.7639 34.1164 19.7639C33.8588 19.7639 33.648 19.6775 33.648 19.572C33.648 19.4664 33.3941 19.3801 33.0837 19.3801C32.7733 19.3801 32.466 19.4664 32.4008 19.572C32.3355 19.6775 32.0714 19.7639 31.8138 19.7639C31.5562 19.7639 31.3454 19.6775 31.3454 19.572C31.3454 19.4664 31.1346 19.3801 30.877 19.3801C30.6194 19.3801 30.3553 19.4664 30.2901 19.572C30.115 19.8552 28.8103 19.7936 28.4 19.4827ZM43.2406 19.3772C42.9336 18.8037 43.2779 18.7441 46.3375 18.8418C48.97 18.9258 49.3673 19.0274 49.3794 19.6199C49.381 19.6991 48.047 19.7639 46.4149 19.7639C43.6366 19.7639 43.4343 19.7392 43.2406 19.3772ZM28.4672 18.0503C28.4672 17.6132 28.371 17.4743 28.0355 17.4266C27.619 17.3675 27.6037 17.2939 27.6037 15.3506V13.3358L28.4966 13.2781L29.3896 13.2203L29.5215 14.0014C29.5941 14.4309 29.5935 15.2182 29.5202 15.7508C29.3985 16.6357 29.4225 16.7286 29.7983 16.8269C30.3491 16.9709 30.1954 17.3503 29.5556 17.426C29.1301 17.4764 29.0428 17.5826 29.0428 18.0497C29.0428 18.4221 28.9454 18.6126 28.755 18.6126C28.5646 18.6126 28.4672 18.4222 28.4672 18.0503ZM29.6185 18.3371C29.6185 18.1856 30.1797 17.5659 30.8657 16.9599C31.9387 16.012 32.1129 15.7672 32.1129 15.2078C32.1129 14.6116 32.1568 14.5626 32.6406 14.6183L33.1683 14.679L33.2017 16.6458L33.235 18.6126H31.4267C29.9835 18.6126 29.6185 18.557 29.6185 18.3371ZM33.584 18.4846C33.4219 18.3225 33.4186 16.6373 33.5782 15.4733C33.6958 14.6148 33.7232 14.583 34.3457 14.583C34.9784 14.583 34.9912 14.5994 34.9912 15.4081C34.9912 15.8619 34.8854 16.339 34.7561 16.4683C34.5707 16.6537 34.5707 16.7827 34.7561 17.0797C34.8854 17.2867 34.9912 17.7163 34.9912 18.0343C34.9912 18.5617 34.935 18.6126 34.3516 18.6126C33.9998 18.6126 33.6544 18.555 33.584 18.4846ZM35.311 18.4846C35.1078 18.2814 35.162 17.6816 35.4211 17.2668C35.5856 17.0033 35.6004 16.7819 35.4691 16.5498C35.3645 16.3651 35.3056 15.8471 35.338 15.3985C35.3952 14.6085 35.4176 14.583 36.0576 14.583H36.7181V16.5978V18.6126H36.0785C35.7267 18.6126 35.3813 18.555 35.311 18.4846ZM37.1019 16.5978V14.583H37.7735H38.4451V16.2943C38.4451 17.2355 38.4975 18.1421 38.5615 18.309C38.6561 18.5555 38.5297 18.6126 37.8899 18.6126H37.1019V16.5978ZM38.8288 16.5978V14.583H39.5026H40.1763L40.1364 16.1661C40.1144 17.0367 40.1624 17.9434 40.2431 18.1808C40.3793 18.5818 40.3342 18.6126 39.6093 18.6126H38.8288L38.8288 16.5978ZM40.5558 17.9794C40.5558 17.6311 40.6576 17.2443 40.7821 17.1198C40.9561 16.9458 40.9527 16.789 40.7675 16.443C40.6349 16.1953 40.5546 15.6971 40.5891 15.3358C40.647 14.7286 40.706 14.6745 41.3712 14.6194L42.0908 14.5599V16.5862V18.6126H41.3233C40.5829 18.6126 40.5558 18.5902 40.5558 17.9794ZM42.4746 16.5978V14.583H43.1462H43.8178V16.2943C43.8178 17.2355 43.8702 18.1421 43.9342 18.309C44.0288 18.5555 43.9024 18.6126 43.2626 18.6126H42.4746V16.5978ZM44.2835 18.3575C44.2297 18.2173 44.2108 17.3322 44.2416 16.3907L44.2975 14.679H44.9691C45.6088 14.679 45.6435 14.7137 45.701 15.4119C45.7342 15.8151 45.6598 16.2673 45.5356 16.4169C45.4102 16.568 45.3721 16.8392 45.45 17.0271C45.527 17.2131 45.625 17.646 45.6678 17.9889C45.7428 18.5902 45.7211 18.6126 45.0635 18.6126C44.6731 18.6126 44.3395 18.5035 44.2835 18.3575ZM46.0564 18.4846C45.8542 18.2825 45.9076 17.2694 46.1203 17.2694C46.3634 17.2694 46.3714 16.6382 46.1314 16.3963C46.032 16.2961 46.0002 15.8471 46.0607 15.3985C46.1656 14.6223 46.202 14.583 46.8172 14.583H47.4635V16.5978V18.6126H46.8239C46.4721 18.6126 46.1267 18.555 46.0564 18.4846ZM47.8473 16.5978V14.583H48.5065H49.1658L49.2261 16.5982L49.2864 18.6134L48.5668 18.613L47.8473 18.6126L47.8473 16.5978ZM49.5742 16.5978V14.583H50.3417H51.1093V15.3632C51.1093 15.7923 51.0149 16.3196 50.8996 16.5351C50.748 16.8184 50.748 16.9849 50.8996 17.1365C51.0149 17.2518 51.1093 17.6311 51.1093 17.9794C51.1093 18.5902 51.0821 18.6126 50.3417 18.6126H49.5742V16.5978ZM51.3796 18.1313C51.3094 17.8519 51.3434 17.5341 51.4554 17.4221C51.5816 17.296 51.6166 16.7202 51.5479 15.9011C51.4427 14.6469 51.4573 14.583 51.849 14.583C52.241 14.583 52.2606 14.6699 52.2606 16.4059C52.2606 17.4085 52.2822 18.2936 52.3085 18.3727C52.3349 18.4519 52.1653 18.5438 51.9316 18.5771C51.6084 18.623 51.4762 18.5162 51.3796 18.1313ZM52.6443 16.9182V15.2237L53.4792 14.6242C54.2168 14.0945 54.4884 14.018 55.8084 13.968C57.162 13.9168 57.3178 13.8704 57.4634 13.4753C57.594 13.1211 57.4936 12.8945 56.9302 12.2709C56.5486 11.8484 56.2817 11.4574 56.3372 11.4019C56.3927 11.3463 56.8927 11.8235 57.4482 12.4623L58.4583 13.6236H63.3112C66.3395 13.6236 68.2087 13.6958 68.2827 13.8155C68.3604 13.9412 66.9636 14.0074 64.2347 14.0074C60.0859 14.0074 60.0653 14.0094 59.4391 14.4871C58.6939 15.0555 58.5501 15.0694 57.8664 14.6385C57.3551 14.3164 57.3511 14.3173 57.6521 14.6865C58.1414 15.2869 58.2344 15.7472 58.0063 16.4385C57.5875 17.7076 56.0346 18.0365 55.1142 17.0512C54.8049 16.7201 54.5245 16.4826 54.491 16.5235C54.4575 16.5644 54.1873 17.0511 53.8905 17.6052C53.5396 18.2603 53.2273 18.6126 52.9976 18.6126C52.6812 18.6126 52.6443 18.4359 52.6443 16.9182ZM57.5601 16.3981C57.9677 15.776 57.6796 15.0339 56.9605 14.8534C55.994 14.6109 55.3051 15.8732 56.016 16.5841C56.4757 17.0438 57.1937 16.9573 57.5601 16.3981ZM56.0849 16.198C55.7471 15.791 56.0733 15.2739 56.7167 15.1963C57.2526 15.1316 57.5258 15.5497 57.3369 16.1451C57.1969 16.5862 56.4338 16.6184 56.0849 16.198ZM56.9535 15.9395C57.0954 15.7099 56.7344 15.4824 56.4788 15.6403C56.2643 15.773 56.4051 16.1181 56.6739 16.1181C56.7669 16.1181 56.8928 16.0377 56.9535 15.9395ZM69.2226 18.0053C69.1466 17.8824 69.0439 17.1485 68.9942 16.3743C68.9038 14.9669 68.9039 14.9668 69.3975 14.9668C69.6689 14.9668 69.9527 15.0666 70.0281 15.1885C70.1292 15.3521 71.5404 15.3796 75.4121 15.2935C79.7089 15.198 80.6591 15.2231 80.6591 15.4321C80.6591 15.5725 80.797 15.8018 80.9655 15.9417C81.2438 16.1726 81.2394 16.2088 80.9176 16.3354C80.7227 16.4121 79.5331 16.481 78.274 16.4884L75.9849 16.5019L75.1808 17.3653L74.3767 18.2288H71.8687C70.1674 18.2288 69.3163 18.1569 69.2226 18.0053ZM73.6554 16.214C73.6554 15.7349 73.5785 15.6384 73.1966 15.6384C72.5824 15.6384 72.2458 16.1709 72.5944 16.591C72.7374 16.7632 73.0346 16.8784 73.2549 16.8469C73.5593 16.8034 73.6554 16.6515 73.6554 16.214ZM7.19865 17.1032C6.92274 16.1823 6.90988 14.4902 7.17503 13.9948C7.28694 13.7857 7.57528 13.6236 7.83545 13.6236C8.29096 13.6236 8.29567 13.6423 8.18211 14.9969C8.09696 16.0126 8.12484 16.3344 8.28922 16.2328C8.41145 16.1572 8.51277 15.6472 8.51439 15.0994C8.51597 14.5516 8.60103 13.9738 8.70333 13.8155C8.80564 13.6572 8.8936 13.5709 8.89881 13.6236C8.91495 13.7871 8.92392 17.1539 8.90912 17.5092C8.89836 17.7684 8.72684 17.845 8.15802 17.845C7.46851 17.845 7.40654 17.7971 7.19865 17.1032ZM10.2384 17.477C10.2384 17.3801 10.186 17.1642 10.1219 16.9973C10.0249 16.7444 10.1725 16.6937 11.0059 16.6937C11.8164 16.6937 11.9854 16.7484 11.8959 16.9816C11.8352 17.1399 11.8706 17.2694 11.9746 17.2694C12.0877 17.2694 12.1431 16.633 12.1125 15.6864L12.0613 14.1033L17.386 14.0523L22.7107 14.0013V15.1525V16.3037L17.5779 16.3548L12.445 16.4059L12.3849 17.0295C12.3252 17.6493 12.3183 17.6531 11.2816 17.6531C10.7078 17.6531 10.2384 17.5739 10.2384 17.477ZM25.5135 16.774C25.4495 16.6071 25.3971 14.9665 25.3971 13.1282C25.3971 10.2853 25.4401 9.78599 25.6849 9.78599C25.9295 9.78599 25.9727 10.2778 25.9727 13.0606C25.9727 14.9509 26.0567 16.4921 26.1714 16.7064C26.3358 17.0137 26.3063 17.0775 26 17.0775C25.7965 17.0775 25.5776 16.9409 25.5135 16.774ZM26.445 16.6703C26.3739 16.4463 26.3073 15.259 26.2971 14.0319L26.2784 11.8007L26.7972 11.74L27.3159 11.6793V14.3784C27.3159 16.9182 27.294 17.0775 26.9451 17.0775C26.7356 17.0775 26.518 16.9003 26.445 16.6703ZM81.9063 16.6937C81.5663 16.318 81.5712 16.31 82.1409 16.31C82.8325 16.31 83.3412 16.7726 82.855 16.9592C82.3869 17.1388 82.2827 17.1096 81.9063 16.6937ZM23.2221 16.7417C23.1199 16.5724 23.0178 14.9093 23.063 14.1513C23.0929 13.6502 23.1428 13.6236 24.0539 13.6236H25.0133V14.655C25.0133 15.2222 25.0673 15.9562 25.1332 16.286L25.2532 16.8856H24.2811C23.7465 16.8856 23.2699 16.8209 23.2221 16.7417ZM58.2843 16.5821C58.3484 16.4152 58.4008 16.0266 58.4008 15.7186C58.4008 15.2866 58.4885 15.1587 58.7846 15.1587C59.1115 15.1587 59.1683 15.2866 59.1683 16.0222C59.1683 16.8247 59.1331 16.8856 58.6681 16.8856C58.2908 16.8856 58.1965 16.811 58.2843 16.5821ZM83.8828 14.0077C83.9339 11.4518 83.9769 11.1285 84.2665 11.1233C84.5438 11.1184 84.5495 11.0931 84.3049 10.9547C84.1466 10.8651 83.8012 10.7325 83.5373 10.6601C83.171 10.5595 83.1257 10.576 83.3455 10.7299C83.561 10.8808 83.3561 10.9321 82.5299 10.9343C81.5536 10.937 81.4266 10.8931 81.4266 10.5535C81.4266 10.1214 81.5707 10.0881 82.2776 10.3569C82.5483 10.4598 82.7698 10.4772 82.7698 10.3954C82.7698 10.2388 81.6549 9.78599 81.2691 9.78599C81.1385 9.78599 81.0429 10.0698 81.0429 10.4576C81.0429 11.0972 81.0749 11.1292 81.7145 11.1292H82.386V13.5337C82.386 15.5829 82.3396 15.9561 82.0721 16.0587C81.3249 16.3454 81.1432 15.8951 81.0429 13.5074L80.9469 11.2251L79.2565 11.1695L77.566 11.1139L78.354 10.1727C79.0299 9.36551 79.2569 9.22114 79.9485 9.15852L80.755 9.08551L79.8584 9.05199C78.9942 9.01968 78.9293 9.05651 78.0602 10.0738L77.1586 11.1292H71.5214C67.8481 11.1292 65.8842 11.1968 65.8842 11.3233C65.8842 11.451 68.4179 11.5134 73.2943 11.5059C77.3699 11.4996 80.744 11.5339 80.7924 11.5823C80.8408 11.6307 80.8194 12.3688 80.745 13.2226L80.6096 14.7749H79.1184H77.6272L77.457 14.0554L77.2869 13.3358L67.8553 13.2399L58.4237 13.1439L57.7257 12.3284L57.0278 11.5129L59.6811 11.4916C61.1404 11.4799 62.9173 11.4876 63.6296 11.5089C64.4599 11.5336 64.9248 11.4723 64.9248 11.3383C64.9248 11.2123 64.4974 11.1292 63.8491 11.1292C62.973 11.1292 62.6437 11.0312 62.0742 10.6015L61.375 10.0738L56.2422 10.1279L51.1093 10.182V10.7813C51.1093 11.3497 51.1274 11.3642 51.4602 11.063C51.7682 10.7842 52.4352 10.7454 56.9175 10.7454C60.1148 10.7454 62.0683 10.8172 62.1425 10.9373C62.2614 11.1296 58.9789 11.2255 54.8056 11.1515C53.3476 11.1256 52.6924 11.1937 52.2632 11.4157C51.9452 11.5801 51.685 11.7584 51.685 11.8118C51.685 11.8653 51.9006 11.796 52.1642 11.6578C52.5109 11.4762 53.0897 11.4414 54.2568 11.5322C55.6079 11.6372 55.9822 11.7431 56.5598 12.1837C57.659 13.0221 57.4907 13.2399 55.7433 13.2399C54.3735 13.2399 54.1649 13.2921 53.4407 13.8167C52.6558 14.3853 52.6443 14.3874 52.6385 13.9606C52.6334 13.5743 52.6117 13.5638 52.4371 13.8635C52.2547 14.1767 51.5507 14.1993 41.9854 14.1993H31.7292V15.033C31.7292 16.032 31.307 16.5019 30.4092 16.5019H29.791L29.8261 14.727C29.8454 13.7508 29.9021 12.8441 29.9522 12.7122C30.0223 12.5277 31.3679 12.4723 35.7837 12.4723H41.5241L41.2097 12.9521L40.8954 13.4318H37.1758C34.824 13.4318 33.4562 13.5023 33.4562 13.6236C33.4562 13.8271 40.1297 13.8989 40.8583 13.7033C41.0774 13.6444 41.4061 13.3434 41.5887 13.0343L41.9207 12.4723H46.4077C50.9798 12.4723 51.1251 12.4503 51.2324 11.7421C51.262 11.5471 51.21 11.5417 50.998 11.7176C50.7677 11.9087 50.7256 11.7619 50.7256 10.7689C50.7256 9.89898 50.7941 9.59412 50.9899 9.59412C51.1353 9.59412 51.3617 9.4646 51.4931 9.30629C51.6912 9.06755 52.4038 9.01847 55.6719 9.01847H59.6118L60.2662 9.51755C60.6261 9.79205 60.962 9.97515 61.0127 9.92444C61.0634 9.87373 60.7416 9.56504 60.2975 9.23848L59.4901 8.64472L55.5875 8.76612L51.685 8.88753V7.43924V5.99098L54.3713 5.9661C56.9462 5.94225 57.0577 5.9573 57.0577 6.32854C57.0577 6.66915 57.1824 6.71586 58.0922 6.71586C59.0385 6.71586 59.1371 6.75721 59.2484 7.20045C59.5435 8.37637 60.9241 8.83222 61.8898 8.07259C62.3167 7.73679 62.8362 7.68954 67.4803 7.56415C70.2962 7.48812 72.6001 7.3525 72.6001 7.26277C72.6001 7.02979 76.9648 7.05761 77.1093 7.29151C77.1745 7.39705 77.3578 7.48339 77.5166 7.48339C77.7266 7.48339 77.7889 7.31363 77.7451 6.85978L77.685 6.23616L76.054 6.21968L74.423 6.2032L76.054 6.31563C79.2043 6.53278 77.1846 6.75125 72.1581 6.73706C69.3935 6.72924 66.6134 6.78904 65.9802 6.86992C64.5245 7.05585 62.5825 6.89066 62.4775 6.57196C62.4156 6.38419 63.683 6.32249 68.3148 6.28778C74.1816 6.24383 74.1926 6.243 69.632 6.18827C66.9164 6.15568 64.9547 6.05492 64.842 5.94224C64.7155 5.8157 66.9118 5.76841 71.36 5.8019L78.0688 5.85241L78.1283 6.6788C78.1876 7.5018 78.1907 7.50495 78.881 7.44633C79.8212 7.36649 79.9602 6.90776 79.0442 6.90776C78.3909 6.90776 78.3566 6.87539 78.3566 6.25899V5.61022L76.4858 5.46887C75.4568 5.39112 71.7223 5.33857 68.1869 5.35208C64.6514 5.36559 61.4134 5.36701 60.9913 5.35526C60.5692 5.34348 59.8244 5.41362 59.3362 5.51112C58.848 5.60862 57.2137 5.64899 55.7044 5.60082C53.3245 5.52486 53.0078 5.47844 53.3187 5.2511C53.5159 5.10692 54.0061 4.98896 54.408 4.98896C54.9298 4.98896 55.1389 4.9066 55.1389 4.70113C55.1389 4.48451 55.3711 4.41331 56.0778 4.41331C56.7895 4.41331 57.0513 4.33207 57.1598 4.07752C57.4255 3.45388 57.3816 3.03601 57.0269 2.81452C56.795 2.66966 56.6739 2.36702 56.6739 1.93196C56.6739 1.33044 56.6976 1.30214 56.9319 1.62267C57.1409 1.9085 57.3618 1.95611 58.0952 1.87345C58.8819 1.78477 58.9825 1.81249 58.8633 2.08498C58.5945 2.69952 58.5539 3.65557 58.7848 3.93381C58.9138 4.08932 58.9704 4.34441 58.9104 4.50067C58.7504 4.91757 59.1876 5.10087 59.4585 4.73046C59.8091 4.25103 61.3061 4.29721 61.6183 4.79708C61.8686 5.19787 62.7043 5.322 62.9101 4.98897C63.0645 4.73913 63.9654 4.73913 63.9654 4.98897C63.9654 5.24775 64.6037 5.23151 65.2053 4.95742C65.5868 4.78358 65.7989 4.78924 66.1608 4.98292C66.4353 5.12985 66.7688 5.17002 66.9746 5.08096C67.4509 4.87492 79.1395 4.81697 79.5424 5.01864C79.7198 5.10739 79.8925 5.37088 79.9262 5.60416C79.9738 5.93332 80.5247 6.30186 82.3861 7.24975C83.7053 7.92154 84.8572 8.60057 84.9458 8.75871C85.0852 9.00733 85.0281 9.00541 84.5236 8.74453C83.6518 8.2937 83.5483 8.38038 84.3268 8.90936C84.8635 9.27408 85.0171 9.51012 85.0308 9.99101C85.0405 10.3293 85.1401 10.6979 85.2523 10.8101C85.5009 11.0587 85.5143 10.2684 85.2818 9.06645C85.1615 8.44478 85.1832 8.25096 85.3731 8.25096C85.7036 8.25096 85.8127 8.67334 85.8657 10.1581C85.8947 10.9729 85.8325 11.4195 85.683 11.4693C85.5274 11.5212 85.4562 12.1902 85.4562 13.602V15.6591L84.8235 16.2724C84.4755 16.6097 84.1085 16.8858 84.008 16.8859C83.8978 16.8861 83.848 15.7433 83.8828 14.0077ZM32.8805 13.6236C32.8805 13.5181 32.7941 13.4317 32.6886 13.4317C32.5831 13.4317 32.4967 13.5181 32.4967 13.6236C32.4967 13.7292 32.5831 13.8155 32.6886 13.8155C32.7941 13.8155 32.8805 13.7292 32.8805 13.6236ZM48.7587 12.7238C48.574 12.6756 48.2718 12.6756 48.0871 12.7238C47.9024 12.7721 48.0536 12.8116 48.4229 12.8116C48.7923 12.8116 48.9434 12.7721 48.7587 12.7238ZM51.8768 12.2805C52.4572 11.9738 52.864 11.7188 52.7806 11.7139C52.6973 11.7088 52.2655 11.8935 51.8212 12.1242C51.3769 12.3548 50.6679 12.6031 50.2458 12.6758L49.4783 12.8081L50.1499 12.823C50.5457 12.8319 51.2548 12.609 51.8768 12.2805ZM80.2753 12.3969C80.2753 12.1444 80.1674 11.8997 80.0355 11.8531C79.6509 11.7174 78.1646 11.9204 78.1646 12.1087C78.1646 12.2032 77.3875 12.2805 76.4377 12.2805C74.1559 12.2805 74.1948 12.6314 76.4857 12.7131C77.4619 12.748 78.7139 12.7944 79.2679 12.8163C80.2136 12.8537 80.2753 12.828 80.2753 12.3969ZM78.3565 12.3875C78.3565 12.1604 78.5677 12.0886 79.236 12.0886C80.3685 12.0886 80.302 12.5429 79.1571 12.6273C78.535 12.6732 78.3565 12.6197 78.3565 12.3875ZM67.4041 9.73802C67.3958 9.18396 67.3454 8.83857 67.2922 8.97049C67.2389 9.10241 66.922 9.19741 66.5878 9.18159C66.0076 9.15414 66.004 9.14923 66.5078 9.07291C66.798 9.02894 67.0355 8.91236 67.0355 8.81383C67.0355 8.7133 66.0674 8.6347 64.8288 8.6347H62.6222V9.37873C62.6222 9.80601 62.7447 10.2245 62.91 10.3616C63.158 10.5674 63.1978 10.4909 63.1978 9.80949V9.01846H64.541H65.8842V9.77C65.8842 10.5645 66.0322 10.7056 66.8916 10.7303C67.404 10.745 67.4188 10.7163 67.4041 9.73802ZM66.172 10.1698C66.2372 10.0642 66.5014 9.97787 66.759 9.97787C67.0166 9.97787 67.2274 10.0642 67.2274 10.1698C67.2274 10.2753 66.9632 10.3616 66.6404 10.3616C66.298 10.3616 66.1028 10.2817 66.172 10.1698ZM66.172 9.59411C66.2372 9.48857 66.5014 9.40223 66.759 9.40223C67.0166 9.40223 67.2274 9.48857 67.2274 9.59411C67.2274 9.69964 66.9632 9.78599 66.6404 9.78599C66.298 9.78599 66.1028 9.70606 66.172 9.59411ZM84.3049 9.87464C84.3049 9.81787 83.6066 9.45673 82.7532 9.07211C81.2862 8.41098 81.2058 8.34329 81.2808 7.83216C81.3245 7.53481 81.2888 7.29152 81.2015 7.29152C81.1143 7.29152 81.0429 7.57523 81.0429 7.92199C81.0429 8.52725 81.1062 8.58041 82.6259 9.25156C84.4695 10.0657 84.3049 10.0046 84.3049 9.87464ZM68.3787 8.34687C68.3787 8.18857 68.2542 8.05905 68.1022 8.05905C67.7816 8.05905 67.5652 8.33292 67.7443 8.51199C67.9736 8.74132 68.3787 8.63589 68.3787 8.34687ZM78.2228 8.3495C78.2436 8.24541 78.1095 8.13115 77.9248 8.09558C77.7148 8.05514 77.589 8.14924 77.589 8.34688C77.589 8.68071 78.1561 8.68306 78.2228 8.3495ZM56.7698 7.29151C56.7698 7.06901 56.4692 6.99066 55.4456 6.94629C54.1307 6.88929 53.6294 7.05919 53.8862 7.47475C53.9711 7.61214 54.5232 7.67092 55.395 7.63538C56.4642 7.59178 56.7698 7.51535 56.7698 7.29151ZM83.0097 16.3208C82.6335 16.007 82.5782 15.7793 82.5796 14.5523C82.5826 12.1787 82.7666 11.1291 83.1803 11.1291C83.512 11.1291 83.5373 11.3265 83.5373 13.9114C83.5373 15.4417 83.5157 16.6909 83.4894 16.6873C83.463 16.6839 83.2471 16.5189 83.0097 16.3208ZM9.18446 15.599C9.21359 15.093 9.24678 14.5279 9.25822 14.3432C9.26964 14.1585 9.36946 14.0074 9.48003 14.0074C9.75677 14.0074 9.63087 16.3543 9.34915 16.4473C9.20249 16.4956 9.14876 16.2189 9.18446 15.599ZM9.98255 16.3739C9.82403 16.2154 9.81972 15.0207 9.97561 14.4391C10.072 14.0793 10.2235 14.0076 10.8844 14.0089L11.6775 14.0105L11.7007 15.2562L11.7238 16.5019H10.9172C10.4735 16.5019 10.0529 16.4443 9.98255 16.3739ZM69.6563 14.4435C69.1781 14.0453 68.7814 13.6548 68.7747 13.5757C68.7681 13.4965 70.6172 13.4317 72.8842 13.4317C77.0029 13.4317 77.0061 13.4321 77.1002 13.8635C77.3839 15.1638 77.6553 15.0573 73.9134 15.1151L70.5257 15.1674L69.6563 14.4435ZM94.195 14.0207C94.0531 13.791 94.4141 13.5635 94.6696 13.7215C94.8842 13.8541 94.7434 14.1993 94.4746 14.1993C94.3816 14.1993 94.2557 14.1189 94.195 14.0207ZM89.2938 13.7036C89.2938 13.5365 89.3963 13.4339 89.5217 13.4757C89.8775 13.5943 89.9365 14.0074 89.5976 14.0074C89.4305 14.0074 89.2938 13.8707 89.2938 13.7036ZM90.0613 13.5277C89.93 13.3694 89.7216 13.2399 89.5983 13.2399C89.475 13.2399 88.6666 12.7205 87.8019 12.0858C86.1757 10.8922 86.0911 10.7578 85.9915 9.21034L85.9359 8.34687L89.4857 8.41019L93.0355 8.4735L94.8584 9.21377C95.861 9.62092 96.9806 10.0289 97.3465 10.1204C97.9209 10.2641 98.0337 10.3901 98.1736 11.0438C98.2626 11.4601 98.2809 12.2541 98.2141 12.8081L98.0927 13.8155H96.6648C95.861 13.8155 95.0703 13.7115 94.8557 13.5775C94.5523 13.388 94.3968 13.388 94.0934 13.5775C93.5194 13.936 90.3679 13.897 90.0613 13.5277ZM10.0465 13.1544C10.0465 12.7308 9.95796 12.6796 9.13507 12.6268L8.22363 12.5683V11.3211V10.0738L9.13507 10.0153C9.63636 9.98318 10.0465 9.87524 10.0465 9.77549C10.0465 9.67574 10.427 9.59412 10.892 9.59412C11.6682 9.59412 11.73 9.6295 11.6453 10.0259C11.5554 10.4468 11.5606 10.4483 11.8551 10.0851C12.0278 9.8722 12.1706 9.29686 12.1885 8.74195L12.2198 7.77124L12.3324 8.82659L12.445 9.88194L13.7882 9.97788L15.1314 10.0738L15.1466 11.369L15.1619 12.6642H13.9541C12.9711 12.6642 12.7107 12.7309 12.5545 13.0228C12.4489 13.22 12.4171 13.4358 12.4838 13.5025C12.5504 13.5691 12.5133 13.6236 12.4012 13.6236C12.2892 13.6236 12.165 13.2822 12.1251 12.8648L12.0528 12.106L12.9205 12.0493L13.7882 11.9926L13.8126 11.2251C13.8324 10.6051 13.8209 10.5774 13.7525 11.0812L13.668 11.7048H12.241C11.0728 11.7048 10.7449 11.774 10.4326 12.0862C10.052 12.4669 10.0522 12.4676 10.5286 12.4282C10.7911 12.4064 11.0059 12.278 11.0059 12.1427C11.0059 12.0074 11.1354 11.8967 11.2937 11.8967C11.4521 11.8967 11.5816 12.0154 11.5816 12.1605C11.5816 12.3056 11.6355 12.6942 11.7015 13.024L11.8214 13.6236H10.934C10.1206 13.6236 10.0465 13.5845 10.0465 13.1544ZM9.98171 10.5055C9.92848 10.3736 9.88493 10.4816 9.88493 10.7454C9.88493 11.0092 9.92848 11.1172 9.98171 10.9852C10.0349 10.8533 10.0349 10.6375 9.98171 10.5055ZM15.6178 12.8687C15.3634 12.3933 15.358 9.84648 15.6111 9.69005C15.7166 9.62482 15.803 9.40482 15.803 9.20116C15.803 8.93061 15.3906 8.62353 14.2722 8.06119C13.4303 7.63787 12.5236 7.29152 12.2574 7.29152C11.7981 7.29152 11.7735 7.34584 11.7735 8.3579V9.42429L10.958 9.36528L10.1425 9.30628L10.0849 8.20296L10.0274 7.09964L20.4466 7.13825C26.1771 7.1595 30.1875 7.20646 29.3585 7.24263C28.0544 7.29953 27.838 7.35897 27.7531 7.68372C27.6699 8.00196 27.4852 8.05905 26.539 8.05905C25.5915 8.05905 25.4046 8.0011 25.3012 7.67528C25.192 7.33139 25.0108 7.29152 23.5575 7.29152C21.9991 7.29152 21.8662 7.3272 20.1645 8.20296C19.0633 8.76965 18.0305 9.157 17.434 9.22704C16.4822 9.33878 16.4808 9.33992 17.2614 9.37095L18.0483 9.40223L18.063 10.7934C18.0711 11.5585 18.1683 12.422 18.2788 12.7122L18.4799 13.2399H17.1482C16.028 13.2399 15.7849 13.1809 15.6178 12.8687ZM0.532967 12.7726C0.327014 12.622 0.146376 12.1313 0.0619261 11.493C-0.0558285 10.6029 -0.0217212 10.4067 0.304939 10.0954C0.598045 9.81599 0.719492 9.78909 0.836079 9.97773C0.936595 10.1404 1.17083 10.1767 1.53531 10.0862C2.38927 9.87423 5.50174 9.57623 5.77335 9.68045C5.94345 9.74573 6.01698 10.2592 6.01698 11.3817V12.9895L3.442 13.0032C1.64102 13.0128 0.766615 12.9435 0.532967 12.7726ZM2.27528 12.4723C2.346 12.3579 2.1136 12.2805 1.69963 12.2805C1.28567 12.2805 1.05327 12.3579 1.12399 12.4723C1.18921 12.5779 1.44825 12.6642 1.69963 12.6642C1.95101 12.6642 2.21006 12.5779 2.27528 12.4723ZM4.07417 12.1605C4.69017 12.0373 4.90942 11.7048 4.37466 11.7048C4.21013 11.7048 4.13203 11.6134 4.2011 11.5016C4.27018 11.3898 4.53033 11.3251 4.77922 11.3577C5.02812 11.3903 5.23574 11.3306 5.2406 11.2251C5.25241 10.9691 5.16981 10.9782 3.66643 11.3991C2.32403 11.775 2.06107 12.0021 2.80296 12.145C3.04041 12.1908 3.28866 12.24 3.35462 12.2543C3.42058 12.2687 3.74438 12.2265 4.07417 12.1605ZM1.79662 11.2519L2.41738 10.9909L1.78697 10.7711C1.26138 10.5879 1.09877 10.6037 0.809004 10.8659C0.141867 11.4697 0.731068 11.7 1.79662 11.2519ZM4.89163 10.2732L5.53728 9.99289L4.76975 9.98805C3.80388 9.98185 3.11123 10.1619 3.24817 10.3835C3.40626 10.6393 4.16593 10.5883 4.89163 10.2732ZM6.31258 11.9885C6.17174 10.8612 6.31592 9.78599 6.60787 9.78599C6.70502 9.78599 6.78451 10.5199 6.78451 11.417C6.78451 13.2591 6.51249 13.5884 6.31258 11.9885ZM7.16827 11.417C7.16827 9.27452 7.56089 9.26365 7.61189 11.4047C7.63733 12.4727 7.57723 12.9432 7.40813 12.9998C7.22852 13.0598 7.16827 12.6622 7.16827 11.417ZM27.5078 12.2805C27.5078 11.7176 27.5291 11.7048 28.4672 11.7048C28.9949 11.7048 29.4266 11.6185 29.4266 11.5129C29.4266 11.401 28.787 11.321 27.8915 11.321H26.3565V10.5535V9.78599L27.5557 9.75025C28.6851 9.71658 28.6599 9.70819 27.124 9.60634C25.5179 9.49983 25.4921 9.49011 25.4323 8.9705L25.3716 8.44282H27.6869H30.0022V7.96312C30.0022 7.50063 30.047 7.48341 31.2495 7.48341C31.9968 7.48341 32.4967 7.40223 32.4967 7.28087C32.4967 7.08429 38.0005 7.12806 47.2004 7.39781L50.6791 7.4998L50.8055 8.29027C50.8799 8.75586 50.85 9.16257 50.7328 9.27986C50.6232 9.38938 50.5336 10.1138 50.5336 10.8898V12.3005L49.5262 12.2425L48.5189 12.1845L48.4081 10.9373L48.2973 9.69007L48.2642 10.7934C48.2448 11.4385 48.1446 11.8967 48.0228 11.8967C47.8878 11.8967 47.8372 11.4578 47.8789 10.6491C47.9143 9.96287 47.8785 9.40162 47.7993 9.40184C47.7201 9.40207 47.6554 10.0562 47.6554 10.8554C47.6554 12.1358 47.6154 12.301 47.3196 12.2449C47.0553 12.1947 46.9602 11.9159 46.873 10.9356L46.7622 9.69007L46.7291 10.7934C46.6866 12.2082 46.368 12.2288 46.282 10.8223C46.2099 9.64352 46.3252 9.29253 46.7332 9.4491C46.9218 9.52147 46.9985 9.40199 46.9924 9.04532L46.9838 8.53877H41.8989H36.8141L36.8293 8.9705C36.8422 9.33527 36.738 9.407 36.1577 9.43295L35.4709 9.46366L36.0945 9.54105L36.7181 9.61843V10.7576C36.7181 11.3841 36.7181 11.9615 36.7181 12.0406C36.7181 12.1198 36.2648 12.1845 35.7107 12.1845H34.7034L34.6782 11.0332C34.6559 10.0161 34.71 9.8352 35.1422 9.48089C35.8815 8.87481 35.6083 8.40397 34.5612 8.47968L33.7439 8.53878L33.8109 10.4096C33.8724 12.1275 33.8488 12.28 33.5231 12.2744C32.7503 12.2611 32.4728 11.8099 32.5345 10.6667C32.5665 10.0743 32.679 9.58457 32.7845 9.57829C33.1335 9.55752 33.3048 9.01068 33.0561 8.71111C32.8981 8.52067 32.5534 8.44321 32.0336 8.48131C31.3966 8.52799 31.2495 8.61076 31.2495 8.92254C31.2495 9.19855 31.3976 9.32335 31.7772 9.36702C32.3 9.42718 32.3048 9.44071 32.3048 10.8541V12.2805H31.1326H29.9603L30.0333 10.8358C30.0924 9.6635 30.0548 9.40114 29.8336 9.44461C29.6192 9.48676 29.5697 9.85613 29.6016 11.1772L29.6422 12.8561H28.575C27.5171 12.8561 27.5078 12.8511 27.5078 12.2805ZM31.5904 10.3295C31.2427 9.98171 31.1256 9.9541 30.8762 10.1611C30.4788 10.4909 30.4977 11.0644 30.9137 11.3012C31.1667 11.4453 31.3428 11.4003 31.6279 11.1189C32.0045 10.7472 32.0043 10.7434 31.5904 10.3295ZM30.8554 10.9206C30.6576 10.6006 31.1024 10.2337 31.3671 10.4984C31.5885 10.7198 31.4499 11.1292 31.1535 11.1292C31.0605 11.1292 30.9263 11.0353 30.8554 10.9206ZM32.824 10.3137C32.7783 10.0762 32.7409 10.2705 32.7409 10.7454C32.7409 11.2203 32.7783 11.4146 32.824 11.1771C32.8698 10.9397 32.8698 10.5511 32.824 10.3137ZM36.3344 10.7621C36.3344 10.5677 36.2001 10.2972 36.0361 10.1611C35.7868 9.95422 35.6705 9.9808 35.3286 10.3227C34.9324 10.7189 34.9305 10.744 35.2673 11.1162C35.536 11.4132 35.6969 11.4568 35.9747 11.3081C36.1725 11.2023 36.3344 10.9566 36.3344 10.7621ZM35.4605 10.9206C35.2628 10.6006 35.7075 10.2337 35.9722 10.4984C36.1937 10.7198 36.0551 11.1292 35.7587 11.1292C35.6656 11.1292 35.5315 11.0353 35.4605 10.9206ZM49.9196 11.2827C50.2383 10.964 50.2075 10.4565 49.8516 10.1611C49.6032 9.95491 49.4909 9.97594 49.18 10.2868C48.8366 10.6303 48.8306 10.6941 49.1054 11.0865C49.4457 11.5724 49.5941 11.6081 49.9196 11.2827ZM49.2761 10.9206C49.0783 10.6006 49.5231 10.2337 49.7878 10.4984C50.0092 10.7198 49.8706 11.1292 49.5742 11.1292C49.4811 11.1292 49.347 11.0353 49.2761 10.9206ZM40.9395 7.86717C40.9395 7.76163 40.8532 7.67528 40.7476 7.67528C40.6421 7.67528 40.5558 7.76163 40.5558 7.86717C40.5558 7.9727 40.6421 8.05905 40.7476 8.05905C40.8532 8.05905 40.9395 7.9727 40.9395 7.86717ZM47.8953 7.72441C47.0246 7.68885 45.5999 7.68885 44.7292 7.72441C43.8585 7.75997 44.5709 7.78906 46.3122 7.78906C48.0536 7.78906 48.7659 7.75997 47.8953 7.72441ZM18.7977 12.3607C18.7336 12.1938 18.6812 11.5462 18.6812 10.9216V9.78599H21.8473C25.0022 9.78599 25.0133 9.78756 25.015 10.2177C25.0159 10.4552 25.0711 11.1028 25.1376 11.6568L25.2586 12.6642H22.0864C19.3707 12.6642 18.8974 12.6205 18.7977 12.3607ZM37.7571 12.0191C37.7019 11.8754 37.683 11.2573 37.7151 10.6455C37.7616 9.75933 37.8417 9.52335 38.1093 9.4847C38.4032 9.44223 38.4451 9.61334 38.4451 10.8583C38.4451 12.0075 38.3887 12.2805 38.1512 12.2805C37.9896 12.2805 37.8122 12.1629 37.7571 12.0191ZM39.3078 12.0406C39.2612 11.9087 39.1935 11.3258 39.1574 10.7454L39.0917 9.69005L39.0562 10.7934C39.0363 11.4119 38.9324 11.8967 38.8197 11.8967C38.6949 11.8967 38.6403 11.4418 38.6758 10.6974L38.7329 9.49817H40.0406H41.3483L41.3838 10.8895L41.4192 12.2808L40.4058 12.2806C39.7683 12.2805 39.361 12.1915 39.3078 12.0406ZM40.9395 10.7454C40.9395 10.1965 40.2769 9.90043 39.8975 10.2798C39.7319 10.4454 39.5964 10.655 39.5964 10.7454C39.5964 10.8359 39.7319 11.0454 39.8975 11.211C40.2769 11.5904 40.9395 11.2943 40.9395 10.7454ZM39.9801 10.7454C39.9801 10.4564 40.0803 10.3528 40.3159 10.3982C40.5006 10.4337 40.6517 10.59 40.6517 10.7454C40.6517 10.9008 40.5006 11.0571 40.3159 11.0926C40.0803 11.138 39.9801 11.0344 39.9801 10.7454ZM42.3223 10.8914C42.3687 9.74769 42.438 9.49092 42.7144 9.43817C43.0103 9.38171 43.0502 9.54681 43.0502 10.8273C43.0502 12.1629 43.0185 12.2805 42.6581 12.2805C42.294 12.2805 42.2699 12.1809 42.3223 10.8914ZM43.9168 12.0507C43.8681 11.9132 43.7987 11.3259 43.7626 10.7454L43.6969 9.69006L43.6614 10.7934C43.6418 11.4002 43.5395 11.8967 43.434 11.8967C43.2143 11.8967 43.1757 9.99006 43.389 9.67096C43.4665 9.55492 44.0912 9.44308 44.7772 9.42243L46.0244 9.38487L45.9959 10.7847L45.9674 12.1845L44.9864 12.2426C44.3107 12.2826 43.9778 12.2229 43.9168 12.0507ZM45.5447 10.7454C45.5447 10.2628 44.97 9.95063 44.5324 10.1956C43.7866 10.6129 44.4499 11.7016 45.2039 11.298C45.3914 11.1977 45.5447 10.9491 45.5447 10.7454ZM44.4893 10.9373C44.3287 10.6774 44.5455 10.3616 44.8844 10.3616C45.0365 10.3616 45.1609 10.5343 45.1609 10.7454C45.1609 11.1427 44.698 11.2749 44.4893 10.9373ZM34.0318 10.7774C34.0318 9.70839 34.1386 9.32751 34.3943 9.48464C34.5799 9.59864 34.401 11.8967 34.2066 11.8967C34.1105 11.8967 34.0318 11.393 34.0318 10.7774ZM37.1019 10.7567C37.1019 10.1297 37.1882 9.56339 37.2938 9.49817C37.4142 9.42371 37.4856 9.84796 37.4856 10.6381C37.4856 11.3493 37.4022 11.8967 37.2938 11.8967C37.1874 11.8967 37.1019 11.3888 37.1019 10.7567ZM41.7071 10.7567C41.7071 10.1297 41.7934 9.56339 41.8989 9.49817C42.0194 9.42371 42.0908 9.84796 42.0908 10.6381C42.0908 11.3493 42.0074 11.8967 41.8989 11.8967C41.7925 11.8967 41.7071 11.3888 41.7071 10.7567ZM1.36384 9.65891C1.49576 9.60568 1.71163 9.60568 1.84355 9.65891C1.97547 9.71214 1.86753 9.75569 1.6037 9.75569C1.33986 9.75569 1.23193 9.71214 1.36384 9.65891ZM60.2496 7.66136C59.6773 7.21125 59.6038 6.61761 60.0427 5.99104C60.6499 5.12407 62.2384 5.70778 62.2384 6.79789C62.2384 7.26537 61.4535 8.05905 60.9912 8.05905C60.8614 8.05905 60.5276 7.88009 60.2496 7.66136ZM61.5406 6.81101C61.5953 6.66858 61.5112 6.44522 61.3539 6.31465C60.9336 5.9658 60.3371 6.56233 60.6859 6.98266C60.9489 7.29948 61.3869 7.2115 61.5406 6.81101ZM31.1176 7.16044C31.2561 7.10501 31.4216 7.11183 31.4853 7.17559C31.5491 7.23936 31.4358 7.2847 31.2335 7.27637C31.01 7.26722 30.9645 7.2217 31.1176 7.16044ZM68.0429 7.14889C68.8608 7.11291 70.1991 7.11291 71.017 7.14889C71.8349 7.18486 71.1657 7.21429 69.53 7.21429C67.8942 7.21429 67.225 7.18486 68.0429 7.14889ZM9.66274 6.53692C9.66274 6.19921 10.3482 6.16873 16.8583 6.21701C20.5565 6.24445 23.4822 6.1899 23.6129 6.09109C23.755 5.98365 24.1046 6.01122 24.5242 6.16295C25.0539 6.35448 25.2561 6.35799 25.4353 6.17873C25.728 5.88607 26.5782 5.88275 27.2126 6.17176C27.5959 6.3464 27.807 6.33951 28.1794 6.14021C28.5518 5.94092 28.7629 5.93403 29.1462 6.10867C29.7477 6.38276 30.386 6.399 30.386 6.14021C30.386 5.89038 31.287 5.89038 31.4414 6.14021C31.5066 6.24575 31.7707 6.33209 32.0283 6.33209C32.2859 6.33209 32.4967 6.24575 32.4967 6.14021C32.4967 5.89038 33.3977 5.89038 33.5521 6.14021C33.6898 6.36299 34.6074 6.40297 34.6074 6.18619C34.6074 5.99023 42.3135 6.00374 42.6185 6.20023C42.7504 6.28521 42.8583 6.436 42.8583 6.53531C42.8583 6.64674 36.5038 6.71586 26.2605 6.71586C16.1228 6.71586 9.66274 6.64622 9.66274 6.53692ZM57.4414 6.23617C57.4414 6.02297 57.6652 5.94834 58.3049 5.94834C58.9445 5.94834 59.1683 6.02297 59.1683 6.23617C59.1683 6.44937 58.9445 6.52399 58.3049 6.52399C57.6652 6.52399 57.4414 6.44937 57.4414 6.23617ZM62.7661 6.00142C63.1091 5.95885 63.6704 5.95885 64.0134 6.00142C64.3563 6.04399 64.0757 6.07881 63.3897 6.07881C62.7038 6.07881 62.4231 6.04399 62.7661 6.00142ZM59.1127 1.58303C59.1724 0.9762 59.231 0.469353 59.2428 0.4567C59.2546 0.444045 60.9696 0.376343 63.0539 0.306246C66.1488 0.202162 66.8436 0.225727 66.8436 0.434786C66.8436 1.03071 66.3795 1.15129 64.086 1.15129C62.1703 1.15129 61.7262 1.09554 61.4109 0.815499C61.0429 0.488698 61.0399 0.491267 61.298 0.91144C61.5512 1.32359 61.6769 1.34318 64.0691 1.34318C66.6556 1.34318 67.0355 1.23997 67.0355 0.53727C67.0355 0.347307 67.1218 0.191882 67.2274 0.191882C67.3329 0.191882 67.4193 0.40775 67.4193 0.671588C67.4193 0.935426 67.341 1.15129 67.2453 1.15129C67.1497 1.15129 67.1111 1.3024 67.1595 1.48709C67.2412 1.79873 67.0142 1.81882 64.0031 1.76639L60.7587 1.70991L60.4388 2.19813C60.2176 2.53569 59.9469 2.68635 59.5615 2.68635H59.0042L59.1127 1.58303ZM61.2271 1.22725C61.1633 1.16348 60.9978 1.15667 60.8593 1.2121C60.7062 1.27335 60.7517 1.31882 60.9752 1.32802C61.1775 1.33635 61.2908 1.291 61.2271 1.22725ZM67.4902 2.06273C67.5538 1.82528 67.6071 1.26402 67.6085 0.815499C67.6107 0.219697 67.6887 0 67.899 0C68.1253 0 68.1868 0.266503 68.1868 1.24723C68.1868 2.38945 68.1525 2.49447 67.7806 2.49447C67.4531 2.49447 67.3969 2.41092 67.4902 2.06273ZM57.2495 1.47765C57.2495 1.30573 57.458 1.25269 57.9211 1.30676C58.2905 1.34988 58.5927 1.46206 58.5927 1.55605C58.5927 1.65004 58.2905 1.72694 57.9211 1.72694C57.4982 1.72694 57.2495 1.63463 57.2495 1.47765ZM56.6739 0.666838C56.6739 0.311328 57.5251 -0.039548 58.1976 0.0387668C58.5386 0.0784725 58.7074 0.227871 58.7499 0.527676C58.8072 0.931063 58.7411 0.959411 57.7426 0.959411C56.9128 0.959411 56.6739 0.893995 56.6739 0.666838Z" />
</svg>
