<svg width="100" height="100" viewBox="0 0 100 100"  xmlns="http://www.w3.org/2000/svg">
<path d="M45.9671 40.981L23.7939 62.4067L37.1643 75.86L58.2579 55.4309L58.3409 52.5243L45.9671 40.981Z" />
<path d="M56.372 19.668C54.189 22.4875 51.6868 23.8744 48.6221 20.9615L11.1553 57.8387L41.2223 88.02L79.3746 51.7471C75.9261 48.3993 78.2024 44.8571 80.3291 43.3413L73.1283 36.0668C65.9411 42.9287 56.5569 34.2375 64.2803 27.2188L56.372 19.668ZM45.803 37.9905L60.2487 51.7287L60.3667 56.6631L37.2276 78.6229L21.1383 62.4156L45.803 37.9905Z" />
<path d="M72.2813 2.76399L57.487 17.5812L53.8848 14.3338L66.7653 1.53223C68.7963 1.60789 70.6741 1.95057 72.2813 2.76399Z" />
<path d="M97.2807 27.5776L82.6084 41.9857L86.1678 45.3628L98.519 33.0648C98.443 31.0444 98.0984 29.1765 97.2807 27.5776Z" />
<path d="M67.1592 27.0503L73.3906 33.5812L85.7286 21.2286C88.9374 16.4182 82.9469 11.6397 79.0195 15.1727L67.1592 27.0503Z" />
<path d="M58.0693 18.2735L59.6551 19.7947C63.1469 16.6398 67.0135 20.505 64.134 24.2221L66.0306 26.0664L77.7171 13.9359C83.144 8.338 92.5037 17.2601 87.0964 22.2785L74.7012 34.4625L75.9358 35.6631C79.3054 32.8189 83.4965 36.5089 80.5812 40.1295L82.0469 41.4538L96.9444 26.5878C96.2758 18.8616 89.2128 6.80715 73.5006 3.1167L58.0693 18.2735Z" />
<path d="M9.51135 60.3037L0 70.7548L3.95047 85.4548L14.9138 96.3591L29.7133 100L39.6963 90.3671L9.51135 60.3037ZM11.5198 66.5169C11.521 66.5169 11.5223 66.5169 11.5236 66.5169C12.052 66.5008 12.5678 66.6829 12.9733 67.0286C13.3788 67.3744 13.6458 67.8596 13.7236 68.3926L13.7387 68.5511C13.7818 69.1261 13.6016 69.6955 13.237 70.1366C12.8724 70.5777 12.3526 70.8552 11.7892 70.9095C11.2258 70.9634 10.6642 70.7898 10.2252 70.4259C9.78622 70.062 9.50487 69.5369 9.44179 68.9638C9.37841 68.3907 9.53828 67.8152 9.887 67.361C10.2357 66.9068 10.7454 66.6103 11.3065 66.5353C11.3774 66.5254 11.4482 66.5195 11.5198 66.5169ZM5.62353 71.7498C5.62478 71.7498 5.62607 71.7498 5.62733 71.7498C6.15575 71.7337 6.67159 71.9158 7.07708 72.2615C7.48258 72.6073 7.74953 73.0925 7.82736 73.6255L7.84244 73.784C7.88553 74.359 7.70538 74.9284 7.3408 75.3695C6.97622 75.8106 6.45634 76.0881 5.893 76.1424C5.32905 76.1963 4.76697 76.0221 4.32785 75.6574C3.88874 75.2927 3.60777 74.7668 3.54557 74.193C3.4832 73.6205 3.64353 73.046 3.99216 72.5926C4.34079 72.1393 4.84992 71.8432 5.41025 71.7682C5.48114 71.7583 5.55202 71.7524 5.62353 71.7498ZM13.5134 73.8245C14.0418 73.8084 14.5577 73.9905 14.9632 74.3363C15.3687 74.682 15.6356 75.1673 15.7134 75.7002L15.7323 75.8587C15.7754 76.4344 15.5948 77.0042 15.2294 77.4454C14.8641 77.8866 14.3432 78.1638 13.7792 78.2172C13.2164 78.27 12.6557 78.0959 12.2175 77.7321C11.7793 77.3683 11.4985 76.8439 11.4355 76.2714C11.3721 75.6983 11.5319 75.1228 11.8807 74.6686C12.2294 74.2145 12.7391 73.918 13.3001 73.8429C13.371 73.833 13.4419 73.8272 13.5134 73.8245ZM20.9869 76.8168C20.9881 76.8168 20.9894 76.8168 20.9907 76.8168C21.5191 76.8008 22.0349 76.9829 22.4404 77.3286C22.8459 77.6743 23.1129 78.1596 23.1907 78.6926L23.2058 78.851C23.2479 79.4255 23.0674 79.9939 22.7029 80.4341C22.3384 80.8744 21.819 81.1515 21.2564 81.2058C20.693 81.2597 20.1314 81.0861 19.6924 80.7222C19.2533 80.3583 18.972 79.8332 18.9089 79.2601C18.8466 78.6876 19.0069 78.113 19.3555 77.6597C19.7041 77.2063 20.2133 76.9103 20.7736 76.8353C20.8445 76.8254 20.9154 76.8195 20.9869 76.8168ZM8.28051 78.8916C8.28177 78.8916 8.28306 78.8916 8.28431 78.8916C8.81273 78.8755 9.32858 79.0576 9.73407 79.4033C10.1396 79.7491 10.4065 80.2344 10.4843 80.7673L10.4994 80.9258C10.5425 81.5008 10.3624 82.0702 9.99779 82.5113C9.63321 82.9524 9.11333 83.2299 8.54999 83.2843C7.9866 83.3381 7.42489 83.1645 6.98588 82.8006C6.54686 82.4367 6.26563 81.9116 6.20255 81.3385C6.13917 80.7654 6.29904 80.1899 6.64776 79.7357C6.99649 79.2815 7.50621 78.985 8.06724 78.91C8.13813 78.9001 8.209 78.8942 8.28051 78.8916ZM15.7577 81.3827C16.2861 81.3667 16.8019 81.5488 17.2074 81.8945C17.6129 82.2402 17.8799 82.7255 17.9577 83.2585L17.9766 83.4169C18.0196 83.9926 17.839 84.5624 17.4737 85.0036C17.1083 85.4448 16.5875 85.722 16.0235 85.7754C15.4601 85.8293 14.8985 85.6556 14.4595 85.2917C14.0204 84.9278 13.7391 84.4028 13.676 83.8297C13.6127 83.256 13.7731 82.68 14.1226 82.2257C14.4721 81.7714 14.9827 81.4753 15.5444 81.4011C15.6153 81.3913 15.6862 81.3854 15.7577 81.3827ZM24.0566 84.0839C24.6253 84.0668 25.1805 84.2588 25.6171 84.6235C26.0538 84.9881 26.3417 85.5002 26.4261 86.0628L26.445 86.2323C26.4912 86.8399 26.297 87.4415 25.9041 87.9074C25.5113 88.3733 24.9512 88.6663 24.3445 88.7234C23.7371 88.7803 23.1317 88.5963 22.6588 88.2109C22.1859 87.8256 21.8834 87.2697 21.8165 86.6634C21.7496 86.0586 21.9224 85.4517 22.2979 84.9729C22.6733 84.494 23.2216 84.1815 23.8249 84.1022C23.9019 84.0921 23.9789 84.0863 24.0566 84.0839ZM31.2869 87.0726C31.8153 87.0565 32.3311 87.2386 32.7366 87.5844C33.1421 87.9301 33.4091 88.4154 33.4869 88.9483L33.5058 89.1068C33.5478 89.6818 33.3667 90.2508 33.0015 90.6912C32.6362 91.1315 32.116 91.4081 31.5526 91.4616C30.9893 91.5155 30.4277 91.3418 29.9886 90.9779C29.5496 90.614 29.2683 90.089 29.2052 89.5158C29.1429 88.9428 29.3038 88.3677 29.6532 87.9143C30.0026 87.4608 30.5126 87.1652 31.0736 87.091C31.1445 87.0811 31.2153 87.0753 31.2869 87.0726ZM18.8274 89.5232C18.8286 89.5232 18.8299 89.5232 18.8312 89.5232C19.3596 89.5071 19.8755 89.6893 20.2809 90.035C20.6864 90.3807 20.9534 90.866 21.0312 91.3989L21.0463 91.5574C21.0884 92.1319 20.9078 92.7002 20.5433 93.1405C20.1788 93.5808 19.6595 93.8578 19.0969 93.9122C18.5335 93.9661 17.9718 93.7924 17.5328 93.4285C17.0937 93.0646 16.8125 92.5396 16.7494 91.9664C16.686 91.3934 16.8459 90.8178 17.1946 90.3636C17.5434 89.9095 18.0531 89.613 18.6141 89.5379C18.6851 89.5293 18.7559 89.5246 18.8274 89.5232ZM26.5514 91.9296C26.5527 91.9296 26.554 91.9296 26.5552 91.9296C27.083 91.9145 27.598 92.097 28.0027 92.4426C28.4074 92.7883 28.6738 93.273 28.7516 93.8053L28.7705 93.9638C28.8135 94.5395 28.6328 95.1093 28.2675 95.5505C27.9021 95.9917 27.3814 96.2689 26.8174 96.3223C26.2546 96.3751 25.6939 96.201 25.2557 95.8372C24.8175 95.4734 24.5367 94.949 24.4736 94.3765C24.4102 93.8034 24.5701 93.2279 24.9188 92.7737C25.2675 92.3196 25.7773 92.0231 26.3383 91.948C26.4092 91.9381 26.4799 91.9323 26.5514 91.9296Z" />
<path d="M3.19824 87.1128L12.9976 96.8706" stroke="white"/>
<path d="M61.1214 37.2578L54.9297 43.0171L63.6647 51.4447L69.8565 45.6854L61.1214 37.2578Z" />
<path d="M76.2812 35.9476C79.6666 32.9951 82.7975 37.0882 80.195 39.7706L76.2812 35.9476Z" />
<path d="M81.6077 44.4077L84.4347 47.0293L81.1862 50.2925C78.8557 48.0194 79.3378 46.4754 81.6077 44.4077Z" />
<path d="M55.2911 18.9744L52.6694 16.1475L49.4062 19.396C51.6794 21.7266 53.2234 21.2443 55.2911 18.9744Z" />
<path d="M65.5704 28.499C59.8766 34.2249 66.5536 40.2766 71.8659 34.878L65.5704 28.499Z" />
<path d="M60.0059 20.0648C63.3913 17.1123 66.4514 21.2053 63.8489 23.8878L60.0059 20.0648Z" />
</svg>
