<svg width="100" height="20" viewBox="0 0 100 20"  xmlns="http://www.w3.org/2000/svg">
<path d="M74.2634 3.72021H71.9322L67.0391 11.1985H69.3702L74.2634 3.72021Z" />
<path d="M77.7488 3.72021H75.4176L70.5244 11.1754H72.8556L77.7488 3.72021Z" />
<path d="M81.28 3.72021H78.9488L74.2402 11.0831H76.5714L81.28 3.72021Z" />
<path d="M84.9494 3.72021H82.6182L77.8174 10.9677H80.1486L84.9494 3.72021Z" />
<path d="M88.5046 3.72021H86.1734L81.4648 10.9907H83.796L88.5046 3.72021Z" />
<path d="M92.2433 3.72021L89.9121 3.7204L85.3535 10.8067H87.6847L92.2433 3.72021Z" />
<path d="M25.6635 2.73291L20.6367 5.50779C20.1303 5.84713 20.3176 6.21607 20.6367 6.29113C26.6994 8.29357 33.417 8.69525 40.2542 8.80456C40.758 8.80906 41.0319 8.5464 41.0375 8.24945C41.0703 6.12873 42.0277 4.42834 42.9962 2.73291H25.6635ZM25.9037 3.38436H42.0135C41.1499 4.66245 40.6229 6.07473 40.5937 7.67342C40.5887 7.89727 40.3443 8.0952 39.8951 8.09199C33.7977 8.00958 27.3336 7.57608 21.9269 6.06656C21.6424 6.00998 21.4754 5.73171 21.9269 5.4759L25.9037 3.38436Z" />
<path d="M22.3886 1.38916H18.5572L0 9.46753C12.9451 15.3007 25.8618 17.5578 40.0225 19.1154C42.0386 17.5604 43.9861 16.177 45.5158 15.8379C43.3959 14.4978 42.3968 10.9109 39.4686 10.9447C30.9508 10.5336 22.3605 10.2974 15.2796 6.42083L2.40043 9.14439L15.1873 5.95921L22.3886 1.38916Z" />
<path d="M51.2436 0.000943799C49.8044 -0.0122668 48.4156 0.111738 47.2243 0.465694C44.5117 1.52176 41.4068 1.40155 38.3611 1.45831H23.7971L16.0186 6.07459C22.8814 8.87477 30.39 10.4195 38.8186 10.1753C40.7147 10.0779 42.134 10.6644 43.0292 12.0031C44.4336 14.174 46.7044 15.9275 47.9255 16.4097C50.1372 17.1598 52.2671 17.0102 54.356 16.4097C55.1031 16.1732 58.223 15.1883 59.6436 14.4185C60.8679 13.6852 61.9605 13.3035 62.9078 13.3086L93.1339 12.2316C94.0184 12.2191 94.8855 12.1326 95.556 11.2214L99.4334 5.77428C99.9196 4.92797 100.328 4.0819 99.6181 3.23559C99.1775 2.76002 98.7367 2.44203 98.0023 2.40443L71.6899 1.85064L60.7957 1.25035C58.9268 0.96531 54.9215 0.0347024 51.2436 0.000943799ZM49.5201 1.26663C49.7207 1.26837 49.9246 1.27825 50.1324 1.29653L55.718 1.61976C57.8453 1.8097 59.7946 2.28888 60.8881 4.15878C62.1336 3.48323 63.7508 6.82386 62.2039 7.39011C62.726 9.691 61.9646 11.2583 60.3343 12.3293L54.056 15.4686C51.3027 16.8715 48.5901 16.2821 46.9934 14.8683L44.5467 12.3755C41.4528 9.07611 42.5958 5.05775 44.5467 3.18941C45.9152 2.02917 47.469 1.30094 49.3205 1.2676C49.3866 1.26638 49.4532 1.26599 49.5201 1.26663ZM25.664 2.21075H42.5396C43.5758 2.18594 44.241 2.75078 43.3229 3.58175C42.1037 4.90936 41.8527 6.68046 41.6582 8.47773C41.5962 9.22509 40.7849 9.42017 40.0916 9.39163C33.4055 9.00313 26.6548 9.29809 20.1731 6.74364C18.982 6.21775 19.2203 5.63696 20.2887 5.02417L25.664 2.21075ZM68.9629 2.92864L94.3418 3.09208C95.1577 3.08565 99.3656 3.37113 97.8342 5.93174L94.4235 10.6812C94.1399 11.0163 93.7413 11.2149 93.0033 11.236L70.6601 11.8237C70.6228 12.3468 70.7916 12.7538 69.8117 12.8518L66.9883 12.8854C66.1623 12.8974 65.9249 12.3014 65.8947 11.8237H64.3931C62.5278 11.8665 62.4221 11.0748 63.2019 9.96302L67.0859 3.95714C67.5089 3.15828 68.194 2.94902 68.9629 2.92864Z" />
<path d="M70.5818 3.72021H68.2506L63.3574 11.337H65.6886L70.5818 3.72021Z" />
<path d="M95.6003 3.71839C95.5854 3.71857 95.5704 3.71897 95.5555 3.71968H93.7174L89.1387 10.6903H92.3703C93.1414 10.5766 93.9118 10.4609 94.4705 9.58238L97.1248 5.68166C97.7398 4.80094 96.5458 3.70669 95.6003 3.71839ZM96.2751 4.55288C96.682 4.55481 96.8526 5.05325 96.294 5.75114L93.8935 9.23626C93.2374 10.0423 92.2822 9.38207 92.9012 8.56688L95.3937 5.15084C95.7015 4.72975 96.0309 4.55189 96.2751 4.55288Z" />
<path d="M66.6583 11.8237H69.9474C69.9696 12.0596 69.9298 12.287 69.5435 12.3293H67.0738C66.7524 12.314 66.6543 12.0993 66.6583 11.8237Z" />
<path d="M61.1182 4.6663C61.5491 4.49246 62.4983 6.25813 62.1107 6.60511C61.8944 5.9261 61.5496 5.28382 61.1182 4.6663Z" />
<path d="M59.9048 4.65858L60.2965 4.46273C58.6499 2.23959 56.4495 2.20049 54.2636 2.10432H49.1395C47.6725 2.03396 45.9944 2.5633 44.9159 3.78924C43.2696 5.62442 43.3249 9.40169 44.3389 10.7366C45.5942 12.5993 47.2154 14.0438 49.1167 15.1682C50.0858 15.6313 52.3933 15.5091 53.2482 15.1682L59.9648 11.7522C61.5011 10.8216 61.7825 9.28027 61.6497 7.57453L61.1419 7.87458C61.4481 9.32601 61.1184 10.6529 59.8494 11.5445L53.2482 14.9605C52.3666 15.3116 50.3156 15.4594 49.2552 14.9605C47.3988 13.8838 45.9127 12.5305 44.7082 10.6674C43.8474 9.45841 43.5566 6.25316 45.1929 4.15853C46.2397 2.83308 47.5704 2.324 49.1395 2.28897H54.2636C56.3452 2.4352 58.5125 2.53455 59.9048 4.65858Z" />
<path d="M49.6039 2.56447C47.906 2.53985 46.5625 3.41253 45.6892 4.33211C44.753 5.33846 44.3507 7.71962 44.5793 8.6411C45.6249 11.9296 47.3079 12.7393 48.8554 13.9942C50.104 14.9155 52.2991 14.7627 53.4089 14.2553L59.0069 11.497C60.258 10.7625 60.835 9.61486 60.737 8.05344L60.0679 8.0697C60.0137 7.06597 59.7114 6.07612 58.8763 5.11577L59.464 4.77294C58.5377 3.48626 56.6498 2.80536 55.3513 2.76544L49.7693 2.56977C49.7139 2.5672 49.6587 2.56512 49.6039 2.56447ZM49.3936 3.37404L55.1175 3.62785C56.9952 3.72351 58.7295 4.79456 59.4338 6.88209C60.4193 9.38828 59.0796 10.8879 57.5412 11.5216L54.4022 13.0219C52.3951 14.0428 51.3006 13.8743 49.6012 13.1604C47.0032 12.0515 45.8272 9.42705 45.7929 7.89764C45.9202 5.06433 47.1739 3.62261 49.3936 3.37404Z" />
</svg>
