<svg width="100" height="28" viewBox="0 0 100 28"  xmlns="http://www.w3.org/2000/svg">
<path d="M72.7132 27.565C72.561 27.5036 72.4942 27.0016 72.4942 25.9213C72.4942 24.5894 72.4436 24.3189 72.1423 24.0381C71.8714 23.7858 71.8162 23.5814 71.9023 23.1507C72.0315 22.5047 71.9979 22.502 74.1135 23.3325C74.8596 23.6255 75.5706 23.8265 75.6935 23.7794C75.9004 23.7 80.2028 13.7195 80.2028 13.3191C80.2028 13.2172 79.7608 13.1397 79.1802 13.1397H78.1576L76.1701 17.79L74.1825 22.4402L73.1193 22.3889L72.0562 22.3375V21.4649C72.0562 20.6609 72.0893 20.5919 72.4776 20.5889C72.8606 20.5859 73.0443 20.2362 74.4923 16.7536L76.0857 12.9216L78.5257 12.9519C80.9322 12.9817 80.9786 12.9897 81.8983 13.5398C83.1268 14.2747 83.1078 14.5504 81.8771 13.8462C80.9922 13.3399 80.9117 13.3232 80.7589 13.6144C80.0748 14.9177 76.0142 24.7622 76.102 24.9043C76.1632 25.0034 76.5108 25.2154 76.8745 25.3754C77.464 25.6347 77.5186 25.7112 77.3782 26.0805C77.2551 26.4047 77.1242 26.4763 76.7766 26.4099C76.4014 26.3382 76.2786 26.4303 75.9864 27.003L75.6405 27.681L74.2863 27.6672C73.5415 27.6597 72.8336 27.6136 72.7132 27.565ZM75.4444 26.534C75.5562 26.2886 75.6477 26.0595 75.6477 26.0249C75.6477 25.9369 73.3651 24.8779 73.1753 24.8779C73.0897 24.8779 73.0197 25.3509 73.0197 25.9291V26.9803H74.1304C75.1506 26.9803 75.2576 26.9439 75.4444 26.534ZM77.0055 25.1043C76.6441 24.9591 76.3485 24.7621 76.3485 24.6663C76.3485 24.5706 77.2111 22.4306 78.2654 19.9109C80.6252 14.2712 80.8929 13.6653 81.0248 13.6653C81.0825 13.6653 81.4721 13.882 81.8906 14.1467C82.4452 14.4976 82.6252 14.7114 82.5542 14.9351C82.4334 15.3157 82.5472 15.3207 83.0997 14.9591C83.6453 14.6016 83.6627 14.8826 83.126 15.3867C82.892 15.6067 82.4938 15.7677 82.184 15.7677C81.5669 15.7677 81.8299 15.2521 79.3234 21.374C78.4357 23.542 77.6988 25.3276 77.6859 25.342C77.673 25.3564 77.3668 25.2494 77.0055 25.1043ZM74.5089 23.1259C74.1235 22.9475 73.9369 22.7957 74.0943 22.7885C74.2897 22.7797 74.6842 22.0671 75.3382 20.5418C76.2261 18.471 76.333 18.3038 76.804 18.2507C77.5454 18.1672 77.7641 17.87 77.0843 17.87C76.4681 17.87 76.4394 17.8293 76.705 17.3329C76.8308 17.098 77.0726 16.9941 77.4934 16.9941C77.8273 16.9941 78.1004 16.9152 78.1004 16.8189C78.1004 16.7225 77.8639 16.6437 77.5749 16.6437C76.9776 16.6437 76.9772 16.643 77.2526 16.0387C77.3995 15.7163 77.591 15.5925 77.943 15.5925C78.2109 15.5925 78.4789 15.5136 78.5384 15.4173C78.6016 15.3152 78.4247 15.2421 78.1145 15.2421C77.6105 15.2421 77.5929 15.219 77.7819 14.8041C77.9368 14.4642 78.1125 14.3661 78.5666 14.3661C78.8883 14.3661 79.1516 14.2873 79.1516 14.1909C79.1516 14.0945 78.9545 14.0157 78.7136 14.0157C78.4411 14.0157 78.2756 13.9164 78.2756 13.7529C78.2756 13.5631 78.4703 13.4901 78.9764 13.4901C79.4148 13.4901 79.6772 13.571 79.6772 13.7059C79.6772 13.9675 76.0559 22.5252 75.7095 23.0821C75.4214 23.5455 75.4157 23.5457 74.5089 23.1259ZM69.2148 22.311C69.0974 22.2634 68.9545 21.9345 68.8972 21.5802C68.8399 21.2259 68.4343 20.1325 67.9958 19.1504C67.319 17.6346 67.119 17.3372 66.6719 17.1813C66.2774 17.0438 66.1671 16.9143 66.2322 16.6651C66.2821 16.4746 66.1502 16.1207 65.9235 15.8363L65.5278 15.3401L64.5462 15.9919C63.6242 16.604 63.4818 16.6436 62.2041 16.6433L60.8436 16.6429L59.3686 14.6723C58.5573 13.5885 57.695 12.4849 57.4524 12.2199L57.0113 11.7382H59.7493C61.3856 11.7382 62.5309 11.8087 62.5956 11.9134C62.7323 12.1346 63.9587 12.1436 64.1811 11.925C64.4353 11.6752 67.3569 11.5281 72.6166 11.5005C76.1669 11.4818 77.4377 11.4195 77.601 11.2564C77.9199 10.9376 79.7542 10.9707 80.0276 11.3002C80.1911 11.4971 80.6297 11.563 81.7781 11.563H83.3105L83.4191 12.22C83.5497 13.0104 83.5647 14.0157 83.4457 14.0157C83.3985 14.0157 82.8064 13.6609 82.13 13.2273L80.9 12.4389H78.3848H75.8696L75.4853 13.3587C75.2739 13.8646 74.5467 15.6339 73.8692 17.2905C72.7395 20.053 72.5989 20.3071 72.1716 20.3565C71.7347 20.407 71.7025 20.473 71.6532 21.4178L71.6007 22.4251L70.5145 22.4113C69.917 22.4038 69.3322 22.3585 69.2148 22.311ZM70.4637 21.4394C70.5906 21.1087 70.2855 20.6732 69.9269 20.6732C69.6286 20.6732 69.4404 21.0999 69.5792 21.4616C69.7139 21.8127 70.3263 21.7973 70.4637 21.4394ZM72.0149 16.105C72.2849 15.982 72.7126 15.3439 73.2495 14.2631C73.7013 13.3536 74.0709 12.5317 74.0709 12.4366C74.0709 12.333 73.2679 12.2637 72.0661 12.2637C70.193 12.2637 70.0434 12.2893 69.7885 12.6531C69.6385 12.8673 69.5167 13.2023 69.5177 13.3977C69.5203 13.9005 71.1928 16.2624 71.5661 16.2906C71.5857 16.2921 71.7876 16.2085 72.0149 16.105ZM63.8323 15.4939C64.065 15.3065 64.1054 15.192 63.9602 15.1312C63.8299 15.0766 63.7858 14.8536 63.8458 14.5532C63.9045 14.2599 63.8254 13.8357 63.6482 13.4929L63.3527 12.9216L61.5726 13.047C60.5935 13.1159 59.7628 13.2011 59.7267 13.2364C59.6905 13.2716 60.0725 13.8556 60.5754 14.5341L61.49 15.7677H62.4911C63.137 15.7677 63.6128 15.6705 63.8323 15.4939ZM92.6893 21.6806C92.7361 21.5601 94.006 18.5697 95.5112 15.0351C97.0165 11.5006 98.248 8.485 98.248 8.33385C98.248 8.15947 98.4039 8.05903 98.6746 8.05903C99.2403 8.05903 100 8.35619 100 8.5775C100 8.6747 98.8962 11.2629 97.5472 14.3291C96.1982 17.3953 95.0945 19.9588 95.0945 20.0258C95.0945 20.0928 95.193 20.148 95.3135 20.1486C95.8329 20.1509 96.8194 20.5251 96.9068 20.753C96.9592 20.8895 96.8431 21.2033 96.6488 21.4504C96.3095 21.8817 96.2221 21.8996 94.4498 21.8996C93.0448 21.8996 92.6246 21.8473 92.6893 21.6806ZM88.1334 21.3302C87.7706 20.8665 87.7511 20.2526 88.0821 19.7171C88.4355 19.1452 90.0638 15.2211 90.8262 13.104C91.0794 12.401 91.4626 11.662 91.6778 11.4618C91.893 11.2616 92.1624 10.8151 92.2764 10.4697L92.4837 9.84157L94.0632 10.3713C95.3438 10.8008 95.6221 10.9554 95.5338 11.1882C95.4738 11.3461 94.8972 12.7092 94.2523 14.2171L93.0798 16.9589L92.2038 17.073C91.6256 17.1483 91.2342 17.3085 91.0524 17.5443C90.9009 17.7408 90.5075 17.9566 90.1783 18.024C89.6546 18.1311 89.5663 18.2278 89.474 18.796C89.4159 19.1533 89.2377 19.5901 89.0779 19.7666C88.6305 20.261 88.7029 20.6408 89.2254 20.5409C89.5811 20.4729 89.6634 20.5269 89.6634 20.8279C89.6634 21.0949 89.553 21.1995 89.2692 21.2015C88.9505 21.2037 88.9253 21.2366 89.1378 21.374C89.3384 21.5036 89.2709 21.5444 88.8527 21.5465C88.5513 21.5479 88.2276 21.4506 88.1334 21.3302ZM93.3253 14.1491C93.9366 12.6807 94.4706 11.3912 94.512 11.2834C94.6082 11.0325 93.5472 10.5813 93.3591 10.7931C93.1461 11.0331 91.4376 15.4575 91.4043 15.8553C91.3391 16.6354 91.4172 16.8189 91.8146 16.8189C92.164 16.8189 92.3525 16.4858 93.3253 14.1491ZM89.751 21.374C89.9437 21.2912 90.3443 21.2179 90.6411 21.2111C91.0719 21.2012 91.2928 21.0428 91.7361 20.4255C92.0415 20.0003 92.2913 19.5217 92.2913 19.3621C92.2913 19.2025 92.5274 18.7289 92.8158 18.3097C93.1043 17.8904 93.9402 16.1812 94.6735 14.5114C95.4068 12.8416 96.0376 11.4244 96.0752 11.3622C96.1129 11.3 95.9976 11.0685 95.8189 10.8479C95.5008 10.455 95.5027 10.4278 95.9103 9.53745C96.1393 9.03737 96.2802 8.50737 96.2235 8.35966C96.0653 7.94719 95.1445 7.64374 94.1841 7.68756C93.3309 7.72649 93.3183 7.71953 93.3738 7.23758C93.4109 6.91543 93.5484 6.72559 93.776 6.68235C94.3014 6.58254 97.2012 7.5646 97.3827 7.90382C97.6192 8.34557 97.3229 9.14697 94.6816 15.2105C93.3669 18.2283 92.2913 20.7618 92.2913 20.8404C92.2913 21.209 91.376 21.5485 90.4142 21.5368C89.6859 21.528 89.4992 21.4822 89.751 21.374ZM89.7398 20.4179C89.3858 20.0326 89.3849 20.0118 89.696 19.4317C89.8708 19.1058 90.0139 18.7373 90.0139 18.613C90.0139 18.4886 90.2557 18.3385 90.5513 18.2794C90.8469 18.2203 91.2107 17.9857 91.3598 17.7582C91.5677 17.4409 91.7895 17.3444 92.3115 17.3444C92.6859 17.3444 92.9922 17.4078 92.9922 17.4853C92.9922 17.5627 92.728 17.8822 92.405 18.1952C91.9603 18.6262 91.8383 18.8712 91.9022 19.2052C91.9652 19.5351 91.8398 19.7973 91.4038 20.2472C90.7384 20.9337 90.259 20.9829 89.7398 20.4179ZM87.9793 17.5634C89.3026 13.1277 89.6793 11.7112 89.7117 11.0491L89.751 10.249L87.5321 10.0932C86.3117 10.0075 85.1882 9.98527 85.0355 10.0439C84.7999 10.1343 84.7579 10.5335 84.7579 12.6844C84.7579 15.0953 84.7402 15.2241 84.3943 15.3339C84.1943 15.3973 83.985 15.4035 83.9291 15.3476C83.8731 15.2917 83.765 14.0962 83.6888 12.6909C83.6126 11.2856 83.4577 9.84589 83.3446 9.4916C83.1454 8.86785 81.48 6.48228 81.2437 6.48228C81.1795 6.48228 80.8271 6.72058 80.4606 7.01183C79.2996 7.93446 78.3966 7.95997 78.31 7.0726C78.257 6.52993 78.6659 6.12166 78.8936 6.48993C79.0595 6.75836 79.4789 6.68507 80.0056 6.29563C80.4561 5.96261 80.6544 5.9423 82.4951 6.04073C85.709 6.2126 90.3481 6.23108 91.722 6.07748L92.9921 5.93546V6.76048C92.9921 7.40277 92.8219 7.89987 92.2233 9.00484C91.8004 9.78548 91.0849 11.4491 90.6332 12.7017C89.2797 16.4556 88.6218 17.87 88.2292 17.87C87.986 17.87 87.9141 17.7818 87.9793 17.5634ZM87.2545 17.4036C87.134 17.355 87.0355 17.2191 87.0355 17.1015C87.0355 16.984 86.5638 16.5552 85.9874 16.1487L84.9393 15.4096L85.0483 14.3184C85.1083 13.7183 85.1765 13.2038 85.1998 13.1749C85.2232 13.1461 85.7397 13.4371 86.3477 13.8215C86.9556 14.2059 87.5071 14.487 87.5731 14.4462C87.6391 14.4054 87.7803 14.0261 87.8867 13.6033C87.9932 13.1804 88.1296 12.706 88.1898 12.5491C88.2861 12.2983 88.1061 12.2637 86.7038 12.2637C85.2251 12.2637 85.1083 12.2381 85.1083 11.9134C85.1083 11.5824 85.2251 11.563 87.2107 11.563C88.7758 11.563 89.313 11.6189 89.313 11.782C89.313 11.9024 88.9873 13.0653 88.5891 14.3661C88.191 15.6669 87.8271 16.9086 87.7803 17.1255C87.6935 17.5283 87.6372 17.5581 87.2545 17.4036ZM57.3729 15.0208L56.0045 14.3313L51.6323 14.3292L47.2601 14.3271L47.3254 13.6896L47.3908 13.0521L52.2912 13.0056L57.1917 12.9591L58.3672 14.3634C59.3764 15.569 59.486 15.7636 59.142 15.739C58.9216 15.7232 58.1255 15.4001 57.3729 15.0208ZM6.04463 14.4328C5.97582 14.364 5.91953 13.373 5.91953 12.2305V10.1533L5.50473 10.4251C5.16864 10.6453 4.61182 10.6876 2.57019 10.6481C0.202604 10.6023 0.0474712 10.5782 0.0012028 10.249C-0.02588 10.0563 0.40773 8.75544 0.964783 7.35825L1.97761 4.8179L3.05775 4.76613C3.73504 4.73366 4.21677 4.61932 4.34938 4.45953C4.49703 4.28162 4.92573 4.20471 5.76982 4.20471H6.97878L6.69347 4.6865L6.40816 5.16829L6.79164 4.6865C7.1436 4.24431 7.27473 4.20471 8.38689 4.20471C9.23858 4.20471 9.59916 4.26978 9.60037 4.42371C9.6013 4.54416 9.18742 5.54319 8.68059 6.64377L7.75909 8.64484L7.65405 7.69495C7.56575 6.89637 7.6054 6.68238 7.90294 6.35156C8.44484 5.74905 8.09091 5.65135 7.47071 6.23224L6.9232 6.74506L7.03789 6.26327C7.12417 5.90084 7.08748 5.78148 6.88978 5.78148C6.74524 5.78148 6.57752 5.97858 6.51706 6.21947C6.39909 6.68951 6.1729 6.7946 6.04571 6.43847C6.00268 6.31802 5.90448 6.27827 5.82745 6.35013C5.75043 6.42199 5.78186 6.68808 5.8973 6.94143C6.08165 7.34604 6.18205 7.38993 6.72273 7.30219L7.33827 7.20229L7.23552 10.828L7.13277 14.4537L6.65125 14.5058C6.38641 14.5345 6.11343 14.5016 6.04463 14.4328ZM5.74433 9.6358C5.74433 9.53944 5.42054 9.4606 5.0248 9.4606C4.51949 9.4606 4.33122 9.3954 4.39242 9.24161C4.44035 9.12116 4.80685 8.20467 5.20686 7.20497C5.60687 6.20526 5.89343 5.34659 5.84365 5.29681C5.6487 5.10186 4.09735 9.20013 4.23263 9.55268C4.34572 9.84738 5.74433 9.92428 5.74433 9.6358ZM3.876 7.48965C4.42495 6.12019 4.45669 5.95668 4.17352 5.95668C3.94121 5.95668 3.70579 6.33069 3.29206 7.35704C2.97714 8.13829 2.77734 8.88708 2.84012 9.0507C3.00551 9.4817 3.18729 9.20777 3.876 7.48965ZM2.62722 7.52759C2.8894 6.81732 3.06282 6.19512 3.01261 6.14491C2.9624 6.0947 2.7153 6.16977 2.46351 6.31174C1.86967 6.64656 1.17922 8.53499 1.56206 8.77724C1.97838 9.04067 2.1377 8.85376 2.62722 7.52759ZM6.9707 7.97144C6.9707 7.6884 6.18525 7.59563 6.02222 7.85941C5.88376 8.08345 6.10087 8.23424 6.56191 8.23424C6.80848 8.23424 6.9707 8.12995 6.9707 7.97144ZM39.82 12.4322C36.4256 9.94171 36.1037 9.62394 36.3276 8.98371C36.5478 8.35379 37.2819 8.23646 37.7947 8.74921C38.1165 9.07107 38.3699 9.11022 40.131 9.11022H42.1064L43.4041 10.4167L44.7018 11.7231L45.7648 11.7744L46.8279 11.8258L46.8793 13.096L46.9308 14.3661L44.6894 14.3632L42.4479 14.3603L39.82 12.4322ZM45.1635 13.0896C45.1635 12.5739 44.9813 12.3629 43.4167 11.0676L41.67 9.62147L40.2194 9.67244C38.8345 9.7211 38.7689 9.74177 38.7689 10.129C38.7689 10.4439 39.2389 10.883 40.8712 12.0926L42.9736 13.6507L44.0685 13.658L45.1635 13.6653V13.0896ZM41.0137 11.7819C39.9357 10.9489 39.0928 10.2041 39.1406 10.1268C39.1884 10.0495 39.7823 9.9862 40.4603 9.9862H41.6932L43.1651 11.2564C44.1974 12.1471 44.6372 12.6443 44.6375 12.9207C44.6378 13.2756 44.5548 13.314 43.8058 13.3057C43.0339 13.2971 42.8316 13.1867 41.0137 11.7819ZM47.2659 12.1731V11.732L51.5807 11.7789C55.8364 11.8251 55.8992 11.8312 56.1572 12.22L56.4188 12.6142H51.8424H47.2659V12.1731ZM56.5513 12.1761C56.2431 11.8481 56.2066 11.7381 56.406 11.7381C56.6663 11.7381 57.2521 12.2632 57.2521 12.4965C57.2521 12.7384 56.9496 12.6001 56.5513 12.1761ZM43.64 10.2928L42.388 9.02258L42.6557 8.36559L42.9234 7.70861H47.1948H51.4662L52.0838 8.93498C52.6577 10.0746 52.7415 10.1612 53.2686 10.1598C53.7864 10.1584 53.8967 10.0519 54.5365 8.93498L55.2373 7.71168L59.4187 7.71017C64.0613 7.70846 63.7049 7.59943 63.1951 8.86537C62.7781 9.90091 62.9454 9.98619 65.3932 9.98619H67.5887V10.7142V11.4422L65.0483 11.3268C63.3889 11.2513 62.508 11.2723 62.508 11.3871C62.508 11.5024 59.4759 11.563 53.7 11.563H44.892L43.64 10.2928ZM46.9002 10.4464C47.1901 10.0251 47.3778 9.63089 47.3174 9.57045C47.142 9.39505 44.4627 9.44355 44.4627 9.62214C44.4627 9.79819 46.05 11.2096 46.2501 11.2114C46.3177 11.212 46.6103 10.8678 46.9002 10.4464ZM45.5813 10.4818C45.3034 10.2726 45.001 10.0361 44.9095 9.9562C44.818 9.87634 45.2766 9.81099 45.9288 9.81099H47.1145L46.7403 10.3366C46.2936 10.964 46.2322 10.9716 45.5813 10.4818ZM49.816 11.0215C49.9309 10.8356 48.7344 9.46057 48.4578 9.46057C48.2373 9.46057 47.2622 10.8897 47.367 11.0592C47.5044 11.2815 49.676 11.2481 49.816 11.0215ZM47.7954 10.7307C47.7974 10.6585 47.952 10.4023 48.1387 10.1614L48.4781 9.72337L49.0512 10.2928L49.6243 10.8621H48.7079C48.2039 10.8621 47.7932 10.803 47.7954 10.7307ZM51.537 10.5803C52.3462 9.56627 52.2654 9.38162 50.9865 9.32076C49.6111 9.25531 49.4511 9.51036 50.2415 10.5083C50.5483 10.8956 50.8518 11.2125 50.9159 11.2125C50.9801 11.2125 51.2596 10.928 51.537 10.5803ZM50.4369 10.3228C50.2176 10.0262 50.0761 9.74556 50.1224 9.69925C50.1687 9.65294 50.5712 9.63942 51.0168 9.66922L51.8271 9.72339L51.4298 10.2898C51.2114 10.6013 50.9883 10.8575 50.9342 10.8591C50.88 10.8608 50.6563 10.6195 50.4369 10.3228ZM67.939 10.5305C67.939 10.0702 67.849 9.8139 67.6619 9.74213C67.5095 9.68365 66.4452 9.63579 65.2968 9.63579C62.9485 9.63579 62.9375 9.62794 63.5627 8.40244L63.9167 7.70863H65.8207H67.7247L68.463 6.53111C69.0657 5.56983 69.1656 5.29636 69.0067 5.04194C68.8244 4.74998 68.9395 4.73029 70.8283 4.73029C72.5634 4.73029 72.8445 4.76955 72.8445 5.01183C72.8445 5.19429 72.9402 5.25665 73.1164 5.18903C73.4299 5.06875 73.3898 5.14891 72.547 6.32798C71.837 7.32143 71.8246 7.53343 72.4766 7.53343C72.9213 7.53343 73.0971 7.71056 73.8857 8.95254C74.3812 9.73305 74.9106 10.5608 75.0621 10.7921L75.3376 11.2126H71.6383H67.939V10.5305ZM70.567 7.41034C70.567 7.23037 69.4815 5.95667 69.3281 5.95667C69.1878 5.95667 68.2894 7.23054 68.2894 7.42951C68.2894 7.47254 68.419 7.53323 68.5773 7.56439C68.9761 7.64285 70.567 7.51967 70.567 7.41034ZM68.9902 6.83265C69.1961 6.54357 69.3932 6.30706 69.4282 6.30706C69.4632 6.30706 69.6604 6.54357 69.8662 6.83265L70.2405 7.35824H69.4282H68.616L68.9902 6.83265ZM72.0232 6.8297C72.2941 6.44675 72.4668 6.05424 72.407 5.95746C72.2552 5.71184 70.3918 5.72958 70.3918 5.97664C70.3918 6.30483 71.1451 7.5337 71.3438 7.52972C71.4465 7.5277 71.7522 7.21265 72.0232 6.8297ZM71.0137 6.78286C70.6039 6.15743 70.7038 6.02822 71.5174 6.13186L72.2051 6.21946L71.7616 6.73345L71.3181 7.24745L71.0137 6.78286ZM74.5965 9.23575C73.5255 7.63405 73.1951 7.26054 72.8095 7.21604L72.3364 7.16145L73.1479 6.03346C73.5942 5.41307 74.0599 4.90548 74.1828 4.90548C74.3058 4.90548 75.2375 5.27159 76.2534 5.71906L78.1004 6.53264V7.27916V8.02568L78.845 7.93868C79.259 7.89031 79.9225 7.62546 80.3393 7.34216C80.7517 7.06193 81.1487 6.83265 81.2217 6.83265C81.4107 6.83265 82.5503 8.39223 82.9874 9.24899C83.1903 9.64677 83.3563 10.2513 83.3563 10.5924V11.2126H81.8886C80.7977 11.2126 80.3649 11.1451 80.2028 10.9498C80.0455 10.7603 79.6294 10.687 78.7109 10.687C77.7403 10.687 77.4131 10.7495 77.3363 10.9498C77.2706 11.1209 77.0044 11.2105 76.573 11.2067C75.9257 11.201 75.8804 11.1558 74.5965 9.23575ZM76.8927 9.63579C76.9836 9.63579 77.1369 9.42805 77.2335 9.17415C77.454 8.59394 77.0447 7.88382 76.4896 7.88382C76.0137 7.88382 75.4725 8.36442 75.4725 8.78696C75.4725 9.22484 76.1376 9.86215 76.464 9.73693C76.6089 9.6813 76.8019 9.63579 76.8927 9.63579ZM76.0742 9.2111C75.7253 8.95593 75.8308 8.46259 76.2705 8.29388C76.6331 8.15472 77.0937 8.6153 76.9546 8.97795C76.8017 9.3763 76.4335 9.47381 76.0742 9.2111ZM76.6655 8.8036C76.5944 8.43432 76.2835 8.4576 76.2042 8.83815C76.1712 8.99687 76.2677 9.1102 76.4361 9.1102C76.6165 9.1102 76.7024 8.99537 76.6655 8.8036ZM85.1083 10.7746V10.3366H87.2983H89.4882V10.7746V11.2126H87.2983H85.1083V10.7746ZM91.6883 10.7746C91.7432 10.4855 92.0775 9.76492 92.4311 9.1733C93.0682 8.10751 93.0827 8.09661 94.0208 7.98637C95.0391 7.86668 95.7953 8.16364 95.7953 8.68322C95.7953 9.03758 95.1258 10.3366 94.9432 10.3366C94.8638 10.3366 94.3407 10.1789 93.7805 9.98618C93.2204 9.79346 92.666 9.63579 92.5486 9.63579C92.4312 9.63579 92.1671 10.0103 91.9618 10.468C91.6876 11.0791 91.615 11.1606 91.6883 10.7746ZM11.92 10.3773C7.81677 10.332 7.67149 10.3185 7.67149 9.98308C7.67149 9.79208 7.73334 9.6358 7.80891 9.6358C7.88449 9.6358 8.0809 9.40799 8.24538 9.12956C8.53081 8.64636 9.36225 8.35983 9.92989 8.54904C10.2143 8.64383 10.1673 8.93502 9.86761 8.93502C9.658 8.93502 9.24826 9.42505 9.24826 9.67573C9.24826 9.71035 9.9986 9.75784 10.9157 9.78126L12.5831 9.82383L13.1494 9.22548C13.7268 8.6155 14.7447 8.2652 14.9543 8.60437C15.0167 8.70527 14.9015 8.90425 14.6983 9.04655C14.2943 9.32954 14.199 9.81259 14.548 9.80832C14.898 9.80399 15.1482 9.57851 15.2834 9.14561C15.4584 8.58506 15.1076 8.23423 14.372 8.23423C13.8963 8.23423 13.6263 8.37297 13.1788 8.84742C12.6331 9.42607 12.5363 9.46061 11.4611 9.46061H10.3216L10.2667 8.89122C10.2152 8.35691 10.166 8.31852 9.46818 8.268C8.8421 8.22269 8.65149 8.29195 8.26261 8.706L7.80071 9.19781L8.06704 8.67222C8.21352 8.38315 8.45444 7.8556 8.6024 7.49988C8.85925 6.8824 8.89442 6.8618 9.37934 7.04484C10.1969 7.35343 10.7646 7.09622 11.3954 6.13143L11.9638 5.26219L13.2385 5.25901L14.5131 5.25589L14.2459 5.77278C13.886 6.46858 13.9093 6.78329 14.3376 7.01249C15.0349 7.38569 15.5972 7.14851 16.3214 6.17567L17.0061 5.2559H18.139C19.1519 5.2559 19.2578 5.28839 19.1389 5.5625C19.0657 5.73112 18.9702 6.12175 18.9267 6.43056C18.8579 6.91881 18.9071 7.00697 19.3038 7.10654C20.1014 7.30672 20.6076 7.04728 21.2064 6.13143C21.6985 5.37883 21.8532 5.26178 22.3588 5.25905C22.68 5.25733 22.916 5.31503 22.8834 5.3873C22.8507 5.45957 22.6063 5.9326 22.3402 6.43848L21.8565 7.35826H19.7509C18.1349 7.35826 17.548 7.42206 17.2266 7.63261C16.734 7.95537 16.4313 8.72389 16.4313 9.65162C16.4313 10.017 16.3722 10.3403 16.2999 10.3701C16.2276 10.3998 14.2567 10.4031 11.92 10.3773ZM16.7129 10.0166C16.6637 9.93697 16.6682 9.70045 16.723 9.49101C16.8217 9.11346 16.8583 9.11021 21.016 9.11021H25.2094L25.3926 8.58462C25.4933 8.29555 25.6706 8.05903 25.7864 8.05903C26.0962 8.05903 26.4175 8.43371 26.4175 8.79486C26.4175 9.08223 26.618 9.11021 28.6761 9.11021H30.9346L31.0464 8.66472C31.1079 8.4197 31.2752 8.17436 31.4181 8.11953C31.7573 7.98935 32.199 8.36361 32.199 8.78127C32.199 9.08223 32.3559 9.11021 34.0429 9.11021C35.861 9.11021 35.8892 9.11645 36.0576 9.55961C36.1516 9.80678 36.2285 10.0433 36.2285 10.0852C36.2285 10.2295 16.8023 10.1612 16.7129 10.0166ZM26.2423 8.67222C26.2423 8.52623 26.0866 8.40943 25.8919 8.40943C25.6973 8.40943 25.5415 8.52623 25.5415 8.67222C25.5415 8.81822 25.6973 8.93502 25.8919 8.93502C26.0866 8.93502 26.2423 8.81822 26.2423 8.67222ZM31.8486 8.67222C31.8486 8.52769 31.7303 8.40943 31.5858 8.40943C31.4413 8.40943 31.323 8.52769 31.323 8.67222C31.323 8.81676 31.4413 8.93502 31.5858 8.93502C31.7303 8.93502 31.8486 8.81676 31.8486 8.67222ZM52.9214 9.592C52.8285 9.47156 52.4977 8.91969 52.1863 8.36563L51.6201 7.35825H36.9883H22.3565L22.9575 6.26327L23.5584 5.16829H44.5662C59.9297 5.16829 65.6304 5.11516 65.7842 4.97051C65.8999 4.86173 66.5443 4.76756 67.2162 4.76123C68.9361 4.74505 69.0784 4.96725 68.1827 6.27055L67.4953 7.27065L61.1911 7.31736L54.8869 7.36407L54.2197 8.58753C53.5642 9.78938 53.2569 10.0271 52.9214 9.592ZM29.057 7.00169C29.4672 6.78213 29.4912 6.42747 29.1209 6.05714C28.9133 5.84959 28.763 5.82655 28.5077 5.96319C27.974 6.2488 28.0734 7.02186 28.6628 7.16922C28.6932 7.17677 28.8706 7.10144 29.057 7.00169ZM28.5298 6.83878C28.2336 6.65571 28.4169 6.13187 28.7772 6.13187C28.9259 6.13187 29.0455 6.28336 29.0455 6.47193C29.0455 6.88916 28.8436 7.03275 28.5298 6.83878ZM35.0769 6.90809C35.4533 6.53164 35.1397 5.95668 34.558 5.95668C34.3205 5.95668 34.1261 5.98965 34.1261 6.02994C34.1261 6.07024 34.0822 6.21775 34.0285 6.35774C33.9315 6.61044 34.3639 7.18305 34.6517 7.18305C34.7343 7.18305 34.9256 7.05932 35.0769 6.90809ZM34.4061 6.87899C34.3485 6.82139 34.3013 6.62394 34.3013 6.44022C34.3013 6.02852 34.8841 6.08631 34.9649 6.50603C35.0199 6.79164 34.5994 7.0723 34.4061 6.87899ZM43.6618 6.90775C43.9759 6.59367 43.9731 6.60472 43.8308 6.2338C43.682 5.84599 42.9356 5.88695 42.7173 6.29491C42.5806 6.55021 42.6037 6.70054 42.8112 6.90809C43.1566 7.2535 43.3161 7.25344 43.6618 6.90775ZM43.0711 6.83879C42.7749 6.65571 42.9582 6.13188 43.3185 6.13188C43.4672 6.13188 43.5868 6.28336 43.5868 6.47193C43.5868 6.88917 43.3849 7.03275 43.0711 6.83879ZM51.9892 6.92868C52.354 6.4891 52.1372 6.04428 51.5582 6.04428C51.1962 6.04428 51.0189 6.14033 50.9767 6.35929C50.9072 6.72049 51.2337 7.18306 51.5582 7.18306C51.6791 7.18306 51.8731 7.06859 51.9892 6.92868ZM51.2806 6.72723C51.1249 6.53966 51.1181 6.4143 51.256 6.27639C51.498 6.03447 51.9962 6.2157 51.9962 6.54563C51.9962 6.9107 51.5309 7.02878 51.2806 6.72723ZM61.5211 6.62011L61.8483 6.21948L60.5138 6.1683C59.7798 6.14016 59.1792 6.04161 59.1792 5.94931C59.1792 5.85175 58.3069 5.78148 57.0956 5.78148C55.3573 5.78148 54.9944 5.8274 54.9057 6.05861C54.732 6.51128 54.7841 6.97319 55.0183 7.05716C55.1388 7.10033 56.5776 7.1098 58.2157 7.07821C61.072 7.0231 61.2074 7.00433 61.5211 6.62011ZM55.1813 6.43847C55.2344 6.06505 55.3259 6.04165 56.919 5.99445C58.2607 5.95471 58.6459 5.99895 58.8238 6.21345C58.9781 6.39928 59.3648 6.48227 60.0767 6.48227C60.6464 6.48227 61.1064 6.56054 61.1064 6.65747C61.1064 6.76742 59.9928 6.83266 58.1159 6.83266H55.1254L55.1813 6.43847ZM16.7873 8.80362C16.7971 8.57186 17.2082 8.12239 17.6024 7.91246C18.1233 7.63501 42.3604 7.61827 42.3604 7.89537C42.3604 7.99806 42.2788 8.23457 42.179 8.42095C42.0169 8.72391 41.7969 8.75983 40.1038 8.75983C38.4325 8.75983 38.1727 8.71867 37.8929 8.40944C37.7185 8.21672 37.3571 8.05905 37.0899 8.05905C36.616 8.05905 36.0533 8.44624 36.0533 8.77235C36.0533 8.86191 35.2438 8.93503 34.2522 8.93503H32.451L32.2526 8.40944C32.1226 8.06493 31.9326 7.88385 31.7011 7.88385C31.2915 7.88385 30.7974 8.32175 30.7974 8.68475C30.7974 8.88775 30.4003 8.93503 28.6951 8.93503C26.7874 8.93503 26.5927 8.90583 26.5927 8.61967C26.5927 7.78616 25.6627 7.64226 25.2268 8.40833L24.9283 8.93281L21.3806 8.93402C18.3434 8.93495 17.8329 8.89732 17.8329 8.67234C17.8329 8.52634 17.6772 8.40954 17.4825 8.40954C17.2878 8.40954 17.1321 8.52634 17.1321 8.67234C17.1321 8.81687 17.0533 8.93513 16.9569 8.93513C16.8605 8.93513 16.7842 8.87589 16.7873 8.80362ZM9.3017 6.71923C9.24078 6.56048 9.28944 6.186 9.40982 5.88705C9.53021 5.58809 9.66838 5.18582 9.71686 4.9931C9.92378 4.17052 9.93819 4.1528 10.2139 4.38163C10.3573 4.50064 10.4746 4.74604 10.4746 4.92695C10.4746 5.18948 10.6055 5.25589 11.1229 5.25589C11.784 5.25589 11.7604 5.51288 11.0878 5.63689C10.8491 5.68092 10.7374 5.83984 10.7374 6.13568C10.7374 6.37449 10.6736 6.66842 10.5957 6.78886C10.3849 7.11458 9.43377 7.0634 9.3017 6.71923ZM14.3444 6.76365C14.1886 6.57591 14.2114 6.37335 14.443 5.88767C14.7385 5.268 14.764 5.25589 15.7733 5.25589C16.4147 5.25589 16.7616 5.32189 16.6941 5.43109C16.6345 5.52745 16.3835 5.60629 16.1363 5.60629C15.7309 5.60629 15.697 5.65757 15.7912 6.12842C15.8716 6.53062 15.8189 6.6916 15.5618 6.82921C15.0947 7.07918 14.5834 7.05164 14.3444 6.76365ZM19.3659 6.88709C18.9887 6.78852 18.9767 6.44933 19.3265 5.77278C19.5737 5.29487 19.667 5.25589 20.5633 5.25589C21.1649 5.25589 21.4916 5.32235 21.4244 5.43109C21.3649 5.52745 21.1715 5.60629 20.9948 5.60629C20.6183 5.60629 20.3712 6.11234 20.6242 6.36531C20.7405 6.48164 20.6985 6.61655 20.4985 6.76843C20.1925 7.00093 19.9134 7.03017 19.3659 6.88709ZM51.4706 4.5656C51.4706 4.28947 52.3518 4.21821 55.6753 4.22559C59.0419 4.23305 60.2304 4.31637 60.2304 4.5449C60.2304 4.6187 58.2595 4.68907 55.8505 4.70127C53.3518 4.71393 51.4706 4.65566 51.4706 4.5656ZM62.4204 3.85432L61.5576 2.97834H67.201C70.305 2.97834 72.8445 3.02167 72.8445 3.07464C72.8445 3.12761 72.7243 3.40354 72.5773 3.68783C72.3761 4.0769 72.1864 4.20472 71.8103 4.20472C71.5355 4.20472 71.2125 4.08646 71.0926 3.94192C70.914 3.72677 70.3225 3.67913 67.83 3.67913C66.1555 3.67913 64.7855 3.74831 64.7855 3.83287C64.7855 3.91743 64.9038 4.08476 65.0483 4.20472C65.5199 4.5961 65.3281 4.7303 64.2971 4.7303C63.3122 4.7303 63.2585 4.70521 62.4204 3.85432ZM60.4056 3.1367C60.4056 3.03108 60.5295 2.51863 60.6808 1.99792L60.9561 1.05118H65.5284H70.1007L71.032 0.525589C71.7806 0.10307 72.1699 0 73.0171 0C73.6328 0 74.0709 0.0760828 74.0709 0.18299C74.0709 0.283635 73.9431 0.874922 73.7868 1.49696L73.5027 2.62795H67.3983C61.4732 2.62795 61.2884 2.63824 61.1064 2.97834C60.9082 3.34875 60.4056 3.46231 60.4056 3.1367Z" />
</svg>
