<svg width="100" height="33" viewBox="0 0 100 33"  xmlns="http://www.w3.org/2000/svg">
<path d="M54.1116 31.9265C50.3125 31.4243 50.4163 31.4516 50.4163 30.9556C50.4163 30.6763 50.5066 30.5489 50.7037 30.5503C51.2147 30.5541 58.8214 31.3436 58.8754 31.3984C58.9041 31.4276 58.8886 31.6547 58.8409 31.9031C58.7591 32.3291 58.7062 32.3537 57.911 32.336C57.4473 32.3257 55.7376 32.1414 54.1116 31.9265ZM55.6719 30.6835C54.1814 30.5321 52.5018 30.3601 51.9393 30.3013L50.9167 30.1944L51.0055 29.1806C51.1765 27.2293 50.803 27.4277 54.3056 27.4277C57.2982 27.4277 57.3839 27.418 58.0883 27.0053L58.8091 26.5829L58.6998 28.2781C58.6397 29.2105 58.5435 30.1951 58.4862 30.4661L58.3818 30.9588L55.6719 30.6835ZM59.5819 26.8939C59.5236 26.1005 59.6373 25.7945 59.9928 25.7878C60.0659 25.7865 60.071 25.8738 60.0042 25.9819C59.9374 26.09 59.9016 26.5335 59.9246 26.9673C59.9817 28.0424 59.6613 27.9738 59.5819 26.8939ZM47.8038 22.6876C46.1845 20.2613 44.7366 18.2288 44.5862 18.1711C44.4357 18.1134 44.0515 18.0661 43.7324 18.0661C42.9446 18.0661 41.6482 17.3298 41.1626 16.6067C40.7102 15.9329 40.4686 15.1099 40.7232 15.1099C40.8197 15.1099 40.8905 14.6578 40.8905 14.0423V12.9748H44.2502H47.6099L47.6581 14.1655L47.7064 15.3562L49.5951 15.4008C51.1328 15.437 51.522 15.4963 51.6892 15.7196C51.8377 15.918 51.8945 16.9196 51.8945 19.3437V22.6935L52.484 23.7477C53.3211 25.2447 53.4212 25.2926 55.7085 25.2926H57.6428V20.2159C57.6428 15.6438 57.6746 15.0368 57.963 14.1101C58.1392 13.5441 58.2457 13.0202 58.1997 12.9458C58.1537 12.8714 55.647 12.8105 52.6292 12.8105H47.1422L46.3568 11.8365C45.5891 10.8845 45.5527 10.8623 44.7501 10.8569C44.2985 10.8538 43.7442 10.9569 43.5183 11.086C43.2431 11.2433 42.587 11.3227 41.5286 11.3266C40.1362 11.3317 39.894 11.2888 39.4813 10.9642C39.0566 10.6301 38.7977 10.5904 36.6872 10.5359L34.3613 10.4757L33.7053 11.0683L33.0494 11.6609H29.8256C28.0526 11.6609 26.6019 11.6243 26.6019 11.5796C26.6019 11.4021 30.2554 5.51464 30.739 4.9129L31.2555 4.27017H42.8175C54.0542 4.27017 55.015 4.30912 55.015 4.76471C55.015 4.93282 56.8414 7.57165 57.3725 8.17081L57.7 8.54034H66.0475H74.395V10.1198C74.395 11.6884 74.3925 11.6982 74.0255 11.5633C73.8222 11.4885 71.6974 11.4028 69.3036 11.3727L64.9513 11.318L62.4878 12.3304C59.6468 13.498 58.9616 14.0485 58.6304 15.4292C58.4614 16.1337 58.4768 16.3233 58.7541 16.9502C59.1353 17.812 59.9029 18.4942 60.7297 18.7061C61.0643 18.7919 62.5481 19.0233 64.0269 19.2204C66.0606 19.4915 66.8108 19.5355 67.1063 19.4008C67.3212 19.3029 67.497 19.1489 67.497 19.0586C67.497 18.9558 67.3411 18.9654 67.0804 19.0842C66.7501 19.2347 66.0283 19.1919 63.5984 18.8778C60.2589 18.4462 59.8742 18.3047 59.1512 17.241C58.8326 16.7722 58.7756 16.5156 58.8325 15.8062C58.9502 14.3396 59.4244 13.9272 62.4982 12.6178L65.1156 11.5029L69.2215 11.5034C72.9371 11.5039 73.3643 11.5323 73.7154 11.8023L74.1034 12.1007L73.6564 12.4523C73.4105 12.6457 72.7925 13.0087 72.283 13.2589C71.3727 13.7059 71.2883 13.7157 67.4149 13.8198C65.247 13.878 62.8744 13.9335 62.1425 13.9429C60.4358 13.9651 59.8121 14.326 59.4861 15.4803C59.2886 16.1796 59.2987 16.3249 59.5904 16.9843C59.7949 17.4466 60.0987 17.8102 60.4189 17.9758C60.6969 18.1196 62.2 18.4136 63.7591 18.6292C66.4571 19.0022 66.6135 19.0075 67.0043 18.7383C67.2301 18.5828 67.5482 18.1875 67.7112 17.8598C67.9636 17.3526 67.9798 17.1592 67.8205 16.5566C67.7177 16.1673 67.418 15.5099 67.1547 15.0955C66.8913 14.6811 66.6758 14.3024 66.6758 14.2539C66.6758 14.2054 67.729 14.1298 69.0162 14.0859C71.4669 14.0023 72.0274 13.8584 73.3685 12.9683C73.6621 12.7734 73.9023 12.6908 73.9023 12.7847C73.9023 12.8786 73.8235 13.0041 73.7272 13.0636C73.6309 13.1231 73.3353 13.4711 73.0702 13.837C72.6928 14.358 72.5884 14.6771 72.5884 15.3095C72.5884 15.7535 72.6682 16.266 72.7657 16.4482C72.9028 16.7043 72.8841 16.8446 72.6836 17.0662C72.5409 17.2239 72.4237 17.4579 72.4231 17.5863C72.4225 17.7487 72.2077 17.8254 71.7174 17.8384C70.8251 17.862 69.4679 18.4472 69.4679 18.8084C69.4679 18.9558 70.2254 20.3004 71.1513 21.7963C72.3504 23.7337 72.9624 24.5707 73.2783 24.7055L73.7219 24.8948L73.1438 25.3561C72.8259 25.6098 72.5457 25.7917 72.5212 25.7603C72.0886 25.206 68.9269 19.6939 68.8996 19.4464C68.8459 18.9591 68.6696 18.7231 68.3592 18.7231C68.1292 18.7231 68.1344 18.7546 68.3956 18.9457C68.8653 19.2891 68.6054 19.6168 67.5571 20.0029L66.599 20.3559L63.8352 19.9284C60.0255 19.3391 60.2706 19.1647 60.2706 22.4656C60.2706 24.2959 60.2098 25.1433 60.0653 25.3283C59.9524 25.4729 59.2257 25.9304 58.4505 26.3452L57.0409 27.0992H53.8943H50.7478L47.8038 22.6876ZM50.4008 22.7656C50.529 22.6112 50.5751 21.7785 50.5441 20.1788L50.4984 17.8198L48.4044 17.7738C47.0145 17.7433 46.3104 17.7862 46.3104 17.9013C46.3104 18.1338 49.2353 22.5273 49.5636 22.788C49.8999 23.055 50.1665 23.0479 50.4008 22.7656ZM57.7249 9.69001V9.11518L55.1972 9.15625C53.807 9.17883 52.5743 9.1973 52.458 9.1973C51.9888 9.1973 51.7172 9.72183 51.8819 10.3097C51.8888 10.3344 53.2063 10.3344 54.8097 10.3097L57.7249 10.2648V9.69001ZM51.388 6.3869C51.2204 6.15098 50.8666 5.72602 50.6017 5.44254C50.1387 4.94687 50.0693 4.92712 48.7902 4.92712C47.2362 4.92712 47.1636 5.03543 47.9668 6.15391L48.4736 6.85957L50.0832 6.83771L51.6928 6.81586L51.388 6.3869ZM73.0605 26.5776L72.6907 26.0583L73.4197 25.4072C74.1694 24.7375 76.1761 23.078 76.6975 22.6963C76.9598 22.5044 77.0118 22.5444 77.1861 23.0727C77.2934 23.3978 77.3426 23.7644 77.2953 23.8875C77.1804 24.187 74.4391 26.5753 73.876 26.8664C73.4519 27.0857 73.4124 27.0717 73.0605 26.5776ZM49.5488 26.4883C49.1657 26.4305 48.798 25.9774 47.2698 23.6799C46.2676 22.1731 45.3695 20.8664 45.2741 20.776C45.036 20.5509 45.4519 21.2102 47.2368 23.888C48.0766 25.1479 48.7422 26.2002 48.716 26.2265C48.6897 26.2527 48.0624 26.1859 47.3218 26.0779C46.3454 25.9356 45.8924 25.7895 45.6733 25.5461C45.1794 24.9974 41.219 19.2179 41.219 19.0458C41.219 18.9586 41.157 18.8873 41.0811 18.8873C40.9033 18.8873 40.5621 18.1396 40.5621 17.75C40.5621 17.5847 40.6654 17.3636 40.7918 17.2587C40.9731 17.1082 41.2414 17.2075 42.0646 17.7298C42.8897 18.2531 43.2651 18.3918 43.8604 18.393L44.613 18.3947L47.2272 22.2781C49.8332 26.1491 50.1482 26.6286 50.0549 26.582C50.0279 26.5684 49.8001 26.5262 49.5488 26.4883ZM44.3972 19.2933C44.3078 19.0606 43.8373 18.7231 43.6021 18.7231C43.5153 18.7231 44.3553 19.5243 44.4575 19.5391C44.4773 19.5419 44.4501 19.4313 44.3972 19.2933ZM43.0698 18.6153C42.9586 18.5704 42.7369 18.5676 42.5771 18.6092C42.4173 18.6509 42.5083 18.6877 42.7793 18.691C43.0503 18.6943 43.181 18.6603 43.0698 18.6153ZM53.4193 24.7588C53.3325 24.6459 52.9909 24.1004 52.6601 23.5466L52.0587 22.5397V19.0966C52.0587 14.8562 52.2109 15.1097 49.6643 15.1102L47.8706 15.1105L47.9257 14.0427L47.9808 12.9748H52.976C55.7234 12.9748 57.9712 13.0394 57.9712 13.1184C57.9712 13.1973 57.8604 13.5762 57.7249 13.9602C57.526 14.524 57.4785 15.6508 57.4785 19.8113V24.9641H55.5278C54.1608 24.9641 53.5298 24.9027 53.4193 24.7588ZM71.3698 21.6776C70.4046 20.1411 69.6558 18.8177 69.7058 18.7367C69.845 18.5114 71.2688 18.0661 71.8499 18.0661C72.1751 18.0661 72.4939 18.2032 72.7093 18.4357C73.3506 19.1276 75.5446 22.3757 75.5446 22.633C75.5446 23.0378 73.9611 24.4714 73.5141 24.4714C73.1886 24.4714 72.8373 24.0137 71.3698 21.6776ZM36.1896 23.3972C36.802 21.8011 36.7327 19.9828 36.0101 18.6883C35.4528 17.6901 34.3001 16.8117 33.3663 16.6737C33.0333 16.6245 32.4344 16.5082 32.0354 16.4152C31.5943 16.3124 28.5719 16.25 24.3235 16.2561C18.2401 16.2648 17.2857 16.2996 16.9404 16.5259C16.7223 16.6688 16.5083 16.9217 16.4648 17.088C16.4209 17.2561 16.1751 17.4367 15.9116 17.4946C15.3098 17.6267 15.2718 17.6893 14.7712 19.3749C14.3739 20.7124 14.3321 20.7783 13.8511 20.8257C13.3473 20.8753 13.3472 20.8752 13.2408 19.8572C13.1823 19.2973 13.1344 18.3605 13.1344 17.7756C13.1344 16.8488 13.1027 16.7383 12.888 16.9165C12.6805 17.0887 12.6417 17.0579 12.6417 16.7211C12.6417 16.4673 12.4617 16.1882 12.149 15.957C11.666 15.5999 11.6563 15.564 11.6563 14.1371C11.6563 12.9947 11.6032 12.6611 11.4099 12.5869C11.2473 12.5245 11.1635 12.2673 11.1635 11.8303V11.1681H11.885C12.3749 11.1681 12.6369 11.2473 12.7011 11.4145C12.783 11.628 13.6959 11.6609 19.5345 11.6609C24.067 11.6609 26.2734 11.7165 26.2734 11.8307C26.2734 11.9432 27.4989 11.9947 29.8964 11.983C32.1342 11.9721 33.5963 12.0292 33.7205 12.1322C33.8448 12.2354 34.0133 12.2419 34.1623 12.1492C34.3659 12.0225 34.3693 11.9448 34.1844 11.6465C34.0466 11.4244 34.0232 11.236 34.1212 11.1381C34.2067 11.0525 35.3227 10.9832 36.601 10.984C38.6817 10.9854 38.9749 11.0209 39.3995 11.3232C39.8061 11.6128 40.1157 11.66 41.5728 11.655C42.7354 11.651 43.4016 11.5751 43.6826 11.4145C43.9084 11.2854 44.3645 11.1772 44.6963 11.174C45.2043 11.169 45.3919 11.2763 45.887 11.8547C46.2102 12.2322 46.4746 12.6018 46.4746 12.6758C46.4746 12.7499 45.1812 12.8105 43.6004 12.8105H40.7263V13.8781C40.7263 14.4803 40.6547 14.9456 40.5621 14.9456C40.3013 14.9456 40.371 15.6398 40.6918 16.238C40.9837 16.7822 40.9828 16.7895 40.5707 17.2393C40.2136 17.629 40.0866 17.6726 39.6619 17.5508C38.8394 17.3149 38.3324 17.389 37.8761 17.8119C37.5082 18.1529 37.4415 18.3525 37.4415 19.1133C37.4415 19.6075 37.5278 20.3857 37.6333 20.8427C37.8145 21.6276 37.7984 21.7256 37.3413 22.6207C36.9877 23.3133 36.7532 23.583 36.4695 23.6236C36.1601 23.6678 36.1033 23.622 36.1896 23.3972ZM14.4483 15.931C14.4483 15.5 13.8515 15.1839 13.5345 15.447C12.9833 15.9045 13.5271 16.741 14.1566 16.404C14.317 16.3182 14.4483 16.1053 14.4483 15.931ZM32.925 15.931C32.925 15.4409 32.3576 15.28 32.0283 15.6768C31.8564 15.8839 31.8564 15.9782 32.0283 16.1853C32.3576 16.5821 32.925 16.4212 32.925 15.931ZM15.5713 14.1444C15.8632 13.9594 15.7532 13.3005 15.3927 13.0745C14.8657 12.7442 14.2651 13.4103 14.5114 14.0519C14.6109 14.3113 15.2236 14.3648 15.5713 14.1444ZM14.8521 13.785C14.701 13.5404 14.8762 13.4075 15.1907 13.5281C15.3358 13.5838 15.4085 13.7038 15.3523 13.7948C15.2192 14.0102 14.9885 14.0057 14.8521 13.785ZM32.5144 13.9602C32.6393 13.7268 32.6393 13.5366 32.5144 13.3032C32.2042 12.7235 31.2005 12.9745 31.2005 13.6317C31.2005 14.289 32.2042 14.5399 32.5144 13.9602ZM31.6932 13.7275C31.6932 13.5845 31.8102 13.4675 31.9533 13.4675C32.0963 13.4675 32.1841 13.5552 32.1483 13.6625C32.0468 13.967 31.6932 14.0175 31.6932 13.7275ZM39.5807 14.0374C39.9024 13.6497 39.5348 12.9748 39.0018 12.9748C38.4688 12.9748 38.1012 13.6497 38.4229 14.0374C38.5376 14.1756 38.7981 14.2887 39.0018 14.2887C39.2055 14.2887 39.466 14.1756 39.5807 14.0374ZM38.8376 13.7959C38.772 13.6899 38.7923 13.5292 38.8826 13.4389C38.9921 13.3294 39.0866 13.3389 39.166 13.4675C39.2316 13.5736 39.2113 13.7343 39.121 13.8246C39.0115 13.9341 38.917 13.9245 38.8376 13.7959ZM35.3523 23.3184C34.9997 23.1765 34.9956 23.1489 35.2291 22.487C36.077 20.0839 34.5953 17.5689 32.2983 17.5123C31.5691 17.4943 31.3324 17.5737 30.649 18.0657C29.7157 18.7375 30.2665 18.7257 22.7678 18.2348C19.011 17.9889 17.9715 17.8714 17.7456 17.6669C17.589 17.5252 17.3003 17.4092 17.1042 17.4092C16.6284 17.4092 16.647 16.9899 17.1371 16.6688C17.7021 16.2986 31.1971 16.4002 32.8878 16.7874C35.1201 17.2986 36.1296 18.475 36.2593 20.7165C36.3287 21.9156 36.0755 23.5018 35.8189 23.4756C35.7629 23.4698 35.5529 23.3991 35.3523 23.3184ZM97.9203 16.0542L97.9631 8.78671L98.3736 8.73126C98.8581 8.66582 99.4729 8.13648 99.6269 7.65213C99.7348 7.31289 99.7378 7.31271 99.8645 7.63704C100.042 8.09107 100.046 8.93511 99.8715 9.12339C99.4576 9.57 98.8899 14.2068 98.7766 18.0661C98.7514 18.9243 98.6763 20.4578 98.6097 21.4741C98.5017 23.1227 98.4558 23.3217 98.1831 23.3217C97.8891 23.3217 97.8792 23.046 97.9203 16.0542ZM75.6495 22.9111C75.7015 22.7756 75.856 22.6648 75.9929 22.6648C76.1955 22.6648 76.2038 22.7106 76.0374 22.9111C75.9249 23.0466 75.7704 23.1575 75.6939 23.1575C75.6175 23.1575 75.5975 23.0466 75.6495 22.9111ZM96.418 22.3349C96.1102 22.2624 95.788 22.0773 95.702 21.9237C95.616 21.77 95.3505 21.4378 95.112 21.1853C94.4493 20.484 83.3758 12.0238 82.8676 11.8306C82.6221 11.7372 81.9087 11.6609 81.2823 11.6609C80.6558 11.6609 80.1433 11.5969 80.1433 11.5187C80.1433 11.4406 80.452 10.9971 80.8293 10.5333L81.5153 9.69001H85.5449H89.5745L90.2781 8.99954C90.8266 8.46118 91.0252 8.35263 91.1794 8.50682C91.3199 8.64736 92.2945 8.70459 94.5469 8.70459H97.7167V15.6026V22.5005L97.3472 22.4837C97.1439 22.4744 96.7258 22.4075 96.418 22.3349ZM95.6942 17.8733C96.058 17.5315 96.0743 17.4127 96.0743 15.1126C96.0743 13.4369 96.0121 12.6309 95.869 12.451C95.7561 12.3091 95.187 11.8515 94.6044 11.4342L93.545 10.6754H90.3753C87.4245 10.6754 87.1828 10.6981 86.877 11.0039C86.6964 11.1846 86.5486 11.4303 86.5486 11.5499C86.5486 11.776 93.6563 17.6094 94.4126 18.004C95.0052 18.3132 95.2528 18.288 95.6942 17.8733ZM75.6734 22.0489C75.3177 21.641 72.975 18.3175 72.76 17.9157C72.6148 17.6445 72.6457 17.5161 72.9226 17.2391L73.2645 16.8973L74.6959 18.8367C76.8185 21.7124 76.8972 21.8345 76.7969 22.0958C76.6698 22.427 75.978 22.3982 75.6734 22.0489ZM65.7414 17.3558C65.7491 16.5319 65.6485 16.1037 65.2438 15.239L64.7365 14.155L65.4811 14.0958C66.1238 14.0447 66.2615 14.0914 66.4885 14.4378C66.8498 14.9893 66.796 16.5153 66.3822 17.4508C65.8929 18.5568 65.7303 18.5327 65.7414 17.3558ZM75.0519 11.6609C75.0519 11.4802 74.978 11.3324 74.8877 11.3324C74.7974 11.3324 74.7235 11.0687 74.7235 10.7465C74.7235 10.2153 74.758 10.171 75.093 10.2722C75.6767 10.4486 75.8072 10.6445 75.5816 11.0058C75.4709 11.183 75.3804 11.4767 75.3804 11.6586C75.3804 11.8405 75.3065 11.9893 75.2162 11.9893C75.1258 11.9893 75.0519 11.8415 75.0519 11.6609ZM77.2548 11.8388C77.2175 11.8012 77.187 9.86109 77.187 7.52755V3.28475H78.7327C79.9063 3.28475 80.5289 3.3724 81.3194 3.64893C82.3307 4.00266 82.6127 4.01562 91.1472 4.10058L99.9339 4.18806L99.9828 5.02796C100.019 5.65221 99.9226 6.11466 99.6066 6.829C98.8809 8.47002 99.1558 8.37611 95.0769 8.37611H91.5025L91.1638 7.82813C90.6974 7.07343 89.1316 5.61986 88.6605 5.50419C88.4474 5.45188 86.6841 5.42998 84.742 5.45552L81.2109 5.50196L81.1288 6.32314C81.0836 6.7748 80.9201 7.33031 80.7655 7.55761C80.2951 8.24898 79.9794 9.35345 79.9739 10.3266C79.9669 11.6059 79.7891 11.7822 78.4388 11.8506C77.8249 11.8817 77.2921 11.8764 77.2548 11.8388ZM0.0950735 11.4011C-0.0339017 11.065 -0.0307083 6.92995 0.0988995 6.44632L0.197934 6.07679H5.27014H10.3424V8.86883V11.6609H5.26856C0.793429 11.6609 0.183001 11.6302 0.0950735 11.4011ZM2.21259 8.86883V6.65162H1.802H1.3914L1.34503 8.69548C1.31953 9.8196 1.33767 10.841 1.38536 10.9653C1.43312 11.0897 1.63832 11.1676 1.84232 11.1386C2.20564 11.087 2.21259 11.0444 2.21259 8.86883ZM13.0757 11.0879C13.0125 10.9232 12.7575 10.8397 12.3184 10.8397H11.6562V8.97614V7.1126L12.239 6.51257C12.5595 6.18256 12.9623 5.91255 13.1341 5.91255C13.306 5.91255 13.509 5.80099 13.5853 5.66464C13.7066 5.44788 14.7465 5.42209 21.8608 5.45934L29.9976 5.50196L28.235 8.37611L26.4724 11.2503L19.8217 11.2932C14.0132 11.3306 13.1589 11.3047 13.0757 11.0879ZM16.1155 10.1651C16.7502 9.71312 16.7182 8.97628 16.0463 8.57066C15.6345 8.32208 15.5488 8.31979 15.143 8.54651C14.8034 8.73627 14.6824 8.94267 14.6443 9.39762C14.6011 9.91191 14.6602 10.0341 15.0549 10.2481C15.6357 10.563 15.5468 10.57 16.1155 10.1651ZM15.0486 9.88238C14.6673 9.46113 14.7101 9.08429 15.1737 8.78056C15.5065 8.5625 15.6259 8.555 15.9128 8.73416C16.3564 9.0112 16.3711 9.78051 15.9372 10.0127C15.4975 10.248 15.3614 10.2281 15.0486 9.88238ZM18.7342 10.1715C19.0332 9.95864 19.2112 9.68522 19.2112 9.43887C19.2112 9.02829 18.6426 8.37611 18.2846 8.37611C17.9409 8.37611 17.2416 8.74479 17.2221 8.93625C17.1642 9.50688 17.3088 9.97051 17.6226 10.2201C18.0799 10.5839 18.16 10.5804 18.7342 10.1715ZM17.6788 9.94447C17.3016 9.65857 17.3744 9.06273 17.8228 8.76664C18.1087 8.57782 18.2129 8.58253 18.5208 8.7982C18.9701 9.1129 18.9945 9.78288 18.565 10.0127C18.1579 10.2306 18.0449 10.2219 17.6788 9.94447ZM21.2053 10.225C21.6152 9.98284 21.6823 9.85085 21.6412 9.36789C21.6051 8.94333 21.4769 8.73257 21.141 8.54551C20.079 7.95412 19.168 9.4089 20.1276 10.1637C20.6592 10.5818 20.6063 10.5788 21.2053 10.225ZM20.3198 10.0053C19.9232 9.77433 19.9495 8.99959 20.3627 8.74153C20.6356 8.57112 20.7642 8.58182 21.1018 8.80304C21.6083 9.13494 21.626 9.59046 21.1455 9.92706C20.721 10.2244 20.6994 10.2264 20.3198 10.0053ZM23.8255 10.1715C24.5011 9.69052 24.48 9.01342 23.7756 8.56743C23.2775 8.25207 23.2235 8.24863 22.7901 8.5046C22.1843 8.86248 22.1341 9.84058 22.7012 10.2362C23.1877 10.5756 23.2643 10.5711 23.8255 10.1715ZM22.7581 9.96823C22.3848 9.69528 22.4671 9.06187 22.9141 8.76664C23.2001 8.57782 23.3042 8.58253 23.6121 8.7982C24.0614 9.1129 24.0858 9.78288 23.6564 10.0127C23.2435 10.2337 23.1122 10.2272 22.7581 9.96823ZM26.4624 10.1651C27.4701 9.44755 26.6234 8.05523 25.4699 8.533C25.0269 8.7165 24.9595 8.82596 24.9595 9.36143C24.9595 9.8154 25.0571 10.0465 25.329 10.2362C25.8165 10.5762 25.8916 10.5715 26.4624 10.1651ZM25.398 9.94447C25.0207 9.65857 25.0936 9.06273 25.5419 8.76664C25.8279 8.57782 25.932 8.58253 26.2399 8.7982C26.6892 9.1129 26.7136 9.78288 26.2842 10.0127C25.877 10.2306 25.764 10.2219 25.398 9.94447ZM17.0842 7.46859C17.7809 7.10834 17.7497 6.48621 17.0175 6.13705C16.5068 5.8935 16.4342 5.89508 16.0321 6.1586C15.4482 6.54118 15.4562 7.13907 16.0496 7.46099C16.6101 7.76507 16.5123 7.76436 17.0842 7.46859ZM16.3781 7.28192C16.491 7.23635 16.6758 7.23635 16.7887 7.28192C16.9016 7.32748 16.8092 7.36476 16.5834 7.36476C16.3575 7.36476 16.2652 7.32748 16.3781 7.28192ZM19.614 7.52856C19.9362 7.38179 20.0324 7.21642 20.0324 6.80942C20.0324 6.38379 19.9417 6.24331 19.5666 6.08795C18.5134 5.65171 17.6846 6.80891 18.5953 7.44416C19.0503 7.76153 19.0947 7.76521 19.614 7.52856ZM19.0059 7.28192C19.1188 7.23635 19.3036 7.23635 19.4165 7.28192C19.5294 7.32748 19.437 7.36476 19.2112 7.36476C18.9853 7.36476 18.893 7.32748 19.0059 7.28192ZM22.2553 7.45392C22.7892 7.1041 22.7798 6.52143 22.2345 6.16412C21.8779 5.93049 21.7312 5.91732 21.3312 6.08304C20.4865 6.4329 20.7732 7.6263 21.7216 7.70805C21.7925 7.71417 22.0327 7.5998 22.2553 7.45392ZM21.4694 7.28192C21.5823 7.23635 21.7671 7.23635 21.88 7.28192C21.9929 7.32748 21.9006 7.36476 21.6747 7.36476C21.4489 7.36476 21.3565 7.32748 21.4694 7.28192ZM24.8034 7.46859C25.469 7.12437 25.4652 6.50534 24.7953 6.15891C24.3501 5.92868 24.2551 5.92868 23.8099 6.15891C23.1571 6.49649 23.1374 7.11846 23.7688 7.46099C24.3293 7.76507 24.2315 7.76436 24.8034 7.46859ZM24.0972 7.28192C24.2102 7.23635 24.3949 7.23635 24.5078 7.28192C24.6207 7.32748 24.5284 7.36476 24.3025 7.36476C24.0767 7.36476 23.9843 7.32748 24.0972 7.28192ZM27.3332 7.52856C27.6553 7.38179 27.7515 7.21642 27.7515 6.80942C27.7515 6.37722 27.6619 6.24374 27.2598 6.07719C26.2618 5.66382 25.4484 6.84003 26.3144 7.44416C26.7694 7.76153 26.8138 7.76521 27.3332 7.52856ZM26.725 7.28192C26.838 7.23635 27.0227 7.23635 27.1356 7.28192C27.2485 7.32748 27.1562 7.36476 26.9303 7.36476C26.7045 7.36476 26.6121 7.32748 26.725 7.28192ZM80.314 10.0185C80.311 9.2852 80.9083 7.71054 81.2761 7.48324C81.3757 7.42167 81.4572 7.00613 81.4572 6.55981C81.4572 5.8037 81.4852 5.74831 81.8678 5.74831C82.1233 5.74831 82.2784 5.84138 82.2784 5.99467C82.2784 6.20406 82.7003 6.24102 85.0905 6.24102C87.5716 6.24102 87.8786 6.21202 87.6982 5.99467C87.5245 5.7854 87.5648 5.7484 87.9655 5.74893C88.225 5.74927 88.659 5.88579 88.93 6.05231C89.5688 6.44483 90.8187 7.70173 90.8187 7.95151C90.8187 8.05804 90.5309 8.42631 90.179 8.76988L89.5393 9.39455L85.5393 9.3922L81.5393 9.38985L80.9283 10.0736L80.3173 10.7574L80.314 10.0185ZM10.6161 10.4017C10.5559 10.3415 10.5066 9.60242 10.5066 8.75933V7.22645H10.9993H11.492V8.86883C11.492 10.4799 11.4847 10.5112 11.1088 10.5112C10.898 10.5112 10.6763 10.4619 10.6161 10.4017ZM74.833 9.74476C74.6537 9.56552 74.7052 6.73374 74.8877 6.73374C74.9857 6.73374 75.0519 7.36331 75.0519 8.29399C75.0519 9.85467 75.0377 9.94944 74.833 9.74476ZM75.3804 8.21187V6.71485L76.0784 6.76536L76.7764 6.81586V8.21188V9.6079L76.0784 9.6584L75.3804 9.7089V8.21187ZM56.6902 6.74239C56.1302 5.93417 55.6719 5.23309 55.6719 5.18444C55.6719 5.13579 58.0185 5.07646 60.8864 5.05261L66.101 5.00925L66.15 3.78258C66.2043 2.42218 66.4087 2.03704 67.7873 0.69801C68.3648 0.137094 68.6229 8.40631e-07 69.1018 8.40631e-07C69.5654 8.40631e-07 69.654 0.0438004 69.5007 0.197086C69.0941 0.603706 69.2692 0.864198 69.8731 0.750917C70.3528 0.660926 70.5757 0.735703 71.2875 1.22535C71.7523 1.54505 72.3036 1.80661 72.5128 1.80661C72.7219 1.80661 73.0277 1.97529 73.1923 2.18145C73.6846 2.79781 74.6262 3.28475 75.3259 3.28475C75.6811 3.28475 76.0603 3.37344 76.1687 3.48184C76.4114 3.72448 76.4314 5.64745 76.1958 6.08759C76.0627 6.33618 75.8484 6.40526 75.2104 6.40526H74.395V7.30857V8.21188H66.0518H57.7086L56.6902 6.74239ZM67.9897 5.40412C67.9897 5.21481 68.1152 4.84755 68.2685 4.58798C68.624 3.98626 68.4303 3.77043 67.9993 4.28797C67.661 4.69414 67.5356 5.74831 67.8255 5.74831C67.9158 5.74831 67.9897 5.59342 67.9897 5.40412ZM71.5297 4.74858C71.7418 4.40538 71.3475 4.30163 70.1659 4.38975C69.3124 4.4534 68.9752 4.54207 68.9752 4.70284C68.9752 4.98406 71.3578 5.02672 71.5297 4.74858ZM67.2128 4.55759C67.3293 4.22364 67.1551 3.9417 66.8322 3.9417C66.4701 3.9417 66.2844 4.1978 66.4098 4.5244C66.5218 4.81633 67.114 4.84081 67.2128 4.55759ZM71.7343 3.41614C72.195 2.95545 71.848 2.13509 71.1924 2.13509C70.7521 2.13509 70.4533 2.43392 70.4533 2.87416C70.4533 3.31439 70.7521 3.61322 71.1924 3.61322C71.382 3.61322 71.6259 3.52454 71.7343 3.41614ZM71.023 2.94803C70.867 2.69551 71.0807 2.53259 71.2915 2.74339C71.4095 2.86134 71.4123 2.95321 71.3001 3.02253C71.2081 3.07937 71.0835 3.04584 71.023 2.94803ZM67.0794 2.96762C67.2009 2.7711 66.8919 2.57637 66.6731 2.71157C66.4895 2.82509 66.6101 3.12051 66.8401 3.12051C66.9197 3.12051 67.0274 3.05171 67.0794 2.96762ZM68.7171 2.20548C69.0631 1.85947 69.0421 1.5451 68.6467 1.14966C68.2513 0.754259 68.1675 0.747835 67.6978 1.07686C67.3007 1.355 67.2163 1.9529 67.5299 2.26648C67.8062 2.54285 68.4108 2.51178 68.7171 2.20548ZM13.8873 4.80395C13.8376 4.64587 13.7815 3.73467 13.7626 2.77907C13.7205 0.652153 13.9255 0 14.6361 0H15.1125L15.0678 1.1086L15.0231 2.21721L15.5361 2.26712C15.9603 2.3084 16.1735 2.49956 16.7679 3.37181C17.3438 4.2169 17.573 4.42737 17.9208 4.4305C18.1595 4.43268 18.3974 4.32355 18.4494 4.18806C18.5047 4.04404 18.7508 3.9417 19.0418 3.9417C19.3749 3.9417 19.5397 4.02325 19.5397 4.18806C19.5397 4.35229 19.7039 4.43441 20.0324 4.43441C20.3609 4.43441 20.5251 4.35229 20.5251 4.18806C20.5251 3.85627 21.4426 3.85627 21.5699 4.18806C21.6926 4.50781 22.4781 4.50781 22.6008 4.18806C22.7281 3.85627 23.6456 3.85627 23.6456 4.18806C23.6456 4.35027 23.8079 4.43441 24.1207 4.43441C24.3916 4.43441 24.6365 4.32848 24.6904 4.18806C24.7692 3.98282 25.2381 3.9417 27.5 3.9417H30.2151V4.51653V5.09136H22.0964C14.5082 5.09136 13.9718 5.07258 13.8873 4.80395ZM14.6946 4.43216C14.6946 4.08012 14.2174 4.13097 14.1482 4.49039C14.1059 4.70988 14.1728 4.77677 14.3923 4.7345C14.5586 4.70247 14.6946 4.56642 14.6946 4.43216ZM15.5667 4.47547C15.5 4.12929 15.2085 4.15111 15.1343 4.50786C15.1033 4.65665 15.1938 4.76289 15.3516 4.76289C15.5208 4.76289 15.6013 4.65525 15.5667 4.47547ZM55.3741 4.39335C55.4193 3.92401 55.49 3.85337 55.9593 3.80812C56.3559 3.76989 56.4931 3.82267 56.4931 4.01341C56.4931 4.35447 57.4075 4.36358 57.5379 4.02382C57.5932 3.8798 57.8393 3.77746 58.1303 3.77746C58.4634 3.77746 58.6282 3.85901 58.6282 4.02382C58.6282 4.18805 58.7924 4.27017 59.1209 4.27017C59.4494 4.27017 59.6136 4.18805 59.6136 4.02382C59.6136 3.85901 59.7784 3.77746 60.1115 3.77746C60.4025 3.77746 60.6486 3.8798 60.7039 4.02382C60.7578 4.16424 61.0027 4.27017 61.2736 4.27017C61.5864 4.27017 61.7487 4.18603 61.7487 4.02382C61.7487 3.68988 62.7108 3.68988 62.839 4.02382C62.8928 4.16424 63.1378 4.27017 63.4086 4.27017C63.7215 4.27017 63.8838 4.18603 63.8838 4.02382C63.8838 3.68988 64.8459 3.68988 64.9741 4.02382C65.0261 4.15931 65.2455 4.27017 65.4616 4.27017C65.7451 4.27017 65.8546 4.36168 65.8546 4.59865C65.8546 4.92029 65.7451 4.92712 60.5886 4.92712H55.3226L55.3741 4.39335ZM31.529 3.85958C31.6414 3.72409 31.8376 3.61323 31.9648 3.61323C32.0921 3.61323 32.2388 3.50237 32.2908 3.36687C32.3435 3.22946 32.5877 3.12051 32.8429 3.12051C33.0981 3.12051 33.3423 3.22946 33.395 3.36687C33.447 3.50237 33.6789 3.61323 33.9104 3.61323C34.1419 3.61323 34.3739 3.50237 34.4259 3.36687C34.5491 3.04564 35.4068 3.04564 35.5301 3.36687C35.5821 3.50237 35.814 3.61323 36.0455 3.61323C36.277 3.61323 36.509 3.50237 36.561 3.36687C36.6842 3.04564 37.5419 3.04564 37.6652 3.36687C37.7879 3.68663 38.5733 3.68663 38.696 3.36687C38.7488 3.22946 38.9929 3.12051 39.2482 3.12051C39.5034 3.12051 39.7475 3.22946 39.8003 3.36687C39.8733 3.55717 40.1909 3.61323 41.1963 3.61323C42.2016 3.61323 42.5193 3.55717 42.5923 3.36687C42.6476 3.22286 42.8937 3.12051 43.1847 3.12051C43.5178 3.12051 43.6826 3.20206 43.6826 3.36687C43.6826 3.69866 44.6001 3.69866 44.7274 3.36687C44.8517 3.04295 45.7527 3.04295 45.877 3.36687C45.9997 3.68663 46.7852 3.68663 46.9079 3.36687C47.0312 3.04564 47.8889 3.04564 48.0121 3.36687C48.1348 3.6865 48.8749 3.6865 48.9976 3.36687C49.1219 3.04295 50.0229 3.04295 50.1472 3.36687C50.2233 3.56502 50.5923 3.61323 52.0334 3.61323C53.4256 3.61323 53.8707 3.66815 54.0295 3.85958C54.2109 4.07817 52.9426 4.10594 42.7793 4.10594C32.6159 4.10594 31.3476 4.07817 31.529 3.85958Z" />
</svg>
