<svg width="100" height="57" viewBox="0 0 100 57"  xmlns="http://www.w3.org/2000/svg">
<path d="M78.3977 55.4416C77.1657 54.5982 76.9147 54.1962 76.9226 53.0796C76.9281 52.3054 77.3001 51.979 79.1053 51.1645C81.111 50.2594 81.4193 50.2176 83.0438 50.6301C84.3458 50.9607 84.9986 51.3813 85.5424 52.2401C86.3852 53.5713 87.4613 53.9056 90.5065 53.7824C93.4581 53.663 93.7717 53.3333 94.0505 50.0571C94.2664 47.5194 94.4271 47.103 96.0155 44.9626C96.967 43.6806 97.8309 42.4207 97.9355 42.1629C98.0792 41.8083 98.2221 41.8305 98.5216 42.254C99.2049 43.2203 98.984 43.7338 96.9692 45.8622L95.0094 47.9326L94.8227 51.906L94.6361 55.8793L86.9835 55.9799C80.2673 56.0682 79.2168 56.0023 78.3977 55.4416ZM95.196 51.9702V48.6211L97.3425 46.2373L99.4889 43.8535L99.7919 45.2002C99.9585 45.9409 100.043 48.1999 99.9785 50.2201C99.8729 53.5573 99.7816 53.9585 98.981 54.6063C98.4513 55.0349 97.5205 55.3194 96.6479 55.3194H95.196L95.196 51.9702ZM97.3611 52.6316C97.6075 52.3853 97.8091 51.2041 97.8091 50.0069C97.8091 48.3312 97.6678 47.7758 97.1952 47.5945C96.248 47.231 95.5693 48.5115 95.5693 50.6623C95.5693 51.7181 95.6813 52.6939 95.8182 52.8307C96.2005 53.2131 96.8655 53.1273 97.3611 52.6316ZM86.0679 51.6119C85.4891 50.7766 84.8284 50.0808 84.5997 50.0655C83.4555 49.9892 82.322 49.6604 81.8485 49.2674C80.9237 48.4998 78.771 43.8106 78.771 42.5636V41.3613L79.8923 43.1294C80.509 44.1018 81.4442 45.7472 81.9705 46.7859C82.4968 47.8245 83.0024 48.5994 83.0939 48.5078C83.4118 48.1899 82.0402 45.4139 80.4102 43.0761C79.2297 41.3829 78.771 40.3576 78.771 39.4119C78.771 38.6896 78.5914 37.763 78.3718 37.3528C78.0751 36.7984 78.0991 36.4541 78.4651 36.0118C78.8176 35.586 78.9576 34.0269 78.9576 30.5296C78.9576 26.8189 79.07 25.6648 79.4243 25.7357C79.6809 25.787 79.8915 25.619 79.8923 25.3624C79.8931 24.9589 83.2906 21.9901 84.6577 21.1978C84.9184 21.0467 85.7267 21.1195 86.454 21.3595C88.0488 21.8859 88.4767 22.8319 88.4767 25.8321C88.4767 27.9671 88.5308 28.0847 90.4806 30.194C92.5978 32.4844 97.4358 39.9745 97.4358 40.962C97.4358 41.7781 96.6273 43.2259 94.8527 45.5878C93.4488 47.4563 93.3295 47.7979 93.3295 49.952C93.3295 51.2373 93.2036 52.3624 93.0496 52.4522C92.8956 52.542 91.4985 52.7313 89.945 52.873L87.1203 53.1305L86.0679 51.6119ZM91.2248 50.6532C91.5524 49.7995 91.0934 48.9734 90.2915 48.9734C89.8964 48.9734 89.4765 49.2253 89.3583 49.5333C89.0307 50.387 89.4896 51.2131 90.2915 51.2131C90.6866 51.2131 91.1066 50.9612 91.2248 50.6532ZM87.7301 50.6989C87.7301 50.6214 87.4361 50.3274 87.0769 50.0456C86.4848 49.5813 86.4716 49.5945 86.9359 50.1866C87.4236 50.8084 87.7301 51.0061 87.7301 50.6989ZM86.0948 44.4488C85.5907 43.3443 85.1645 42.7414 85.1476 43.1088C85.113 43.8647 86.5684 46.8998 86.8368 46.6314C86.9328 46.5355 86.5989 45.5533 86.0948 44.4488ZM83.7589 43.9339C83.6407 43.6259 83.3734 43.3739 83.1649 43.3739C82.9464 43.3739 82.9827 43.6111 83.2506 43.9339C83.5061 44.2418 83.7734 44.4938 83.8445 44.4938C83.9156 44.4938 83.877 44.2418 83.7589 43.9339ZM86.4468 42.2032C85.8618 40.7411 82.2395 35.1614 81.8754 35.1614C81.7862 35.1614 81.7899 35.2874 81.8835 35.4414C84.9735 40.5271 85.8222 41.9993 86.2251 42.9719C86.4923 43.6168 86.7932 44.062 86.8939 43.9613C86.9947 43.8606 86.7934 43.0694 86.4468 42.2032ZM92.3418 43.2051C92.8851 42.7016 93.3292 41.9037 93.3288 41.432C93.3284 40.9602 91.7721 37.9705 89.8704 34.7881C86.5259 29.1914 86.3695 28.9984 85.0917 28.8906C83.3708 28.7453 81.7574 29.9495 81.7574 31.3792C81.7574 32.3647 88.0693 43.238 88.9879 43.8348C89.8375 44.3869 91.3789 44.0975 92.3418 43.2051ZM95.196 43.9917C95.196 43.9209 94.8356 43.5429 94.3951 43.1518C93.5985 42.4445 93.5966 42.4452 94.035 43.2806C94.3988 43.974 95.196 44.4623 95.196 43.9917ZM83.2506 39.8276C82.0908 38.1419 81.1939 37.4128 82.2173 38.9877C82.5175 39.4496 82.9972 40.2056 83.2833 40.6675C83.5694 41.1295 83.9391 41.5074 84.1049 41.5074C84.2707 41.5074 83.8862 40.7515 83.2506 39.8276ZM94.0761 38.3344C93.8593 37.7642 93.5964 37.3832 93.4918 37.4878C93.3872 37.5924 93.5032 38.1204 93.7495 38.6611C94.3314 39.9381 94.5882 39.6813 94.0761 38.3344ZM91.0728 33.1253C90.174 31.7998 89.3831 30.7709 89.3153 30.8387C89.2475 30.9066 89.8933 32.0806 90.7504 33.4476C91.6076 34.8147 92.3985 35.8437 92.5079 35.7342C92.6174 35.6247 91.9716 34.4507 91.0728 33.1253ZM83.3794 27.1195C83.2578 26.8026 83.0783 26.6235 82.9804 26.7213C82.8826 26.8192 82.9132 27.0784 83.0486 27.2974C83.4167 27.893 83.6318 27.7772 83.3794 27.1195ZM85.2732 26.7223C86.0201 26.4357 86.037 25.3178 85.3037 24.7091C84.2335 23.8209 83.0757 25.5049 84.0718 26.501C84.5953 27.0244 84.5214 27.0108 85.2732 26.7223ZM59.0036 37.5783C57.8839 36.8649 56.724 36.2813 56.426 36.2813C55.9803 36.2813 55.9937 36.1603 56.5021 35.5986C57.3375 34.6755 57.3888 27.1954 56.5731 25.2431L56.0264 23.9345L60.9926 23.9842C65.8486 24.0328 66.0097 24.0083 68.2481 22.8784C70.3882 21.798 70.8011 21.7228 74.5889 21.7228H78.6405L80.8038 20.043C81.9936 19.119 83.1773 18.3631 83.4342 18.3631C84.1003 18.3631 89.5906 22.0033 89.7685 22.5628C89.8501 22.8194 89.9848 24.4127 90.068 26.1035C90.2061 28.9134 90.1712 29.1092 89.6616 28.3817C89.3443 27.9288 89.0279 26.3979 88.9272 24.8288C88.7742 22.4446 88.624 21.9725 87.8166 21.3373C86.0249 19.9281 84.5229 20.3236 81.0741 23.1131L77.9706 25.6234L78.0908 30.4244C78.2067 35.0502 78.1799 35.2507 77.3551 35.9195C76.8843 36.3013 75.7084 36.7311 74.742 36.8745C73.7756 37.018 72.4 37.5311 71.6851 38.0149C70.4889 38.8242 70.0125 38.8936 65.7123 38.8848L61.0395 38.8753L59.0036 37.5783ZM70.9778 35.0132C73.4183 33.3697 73.9293 32.5897 74.1843 30.1192C74.4174 27.8607 73.9763 26.9453 72.6593 26.9544C71.9213 26.9595 71.9312 26.9932 72.7983 27.4296C73.8742 27.971 74.2741 29.9899 73.4921 30.9322C72.7582 31.8165 68.8012 34.4148 68.1884 34.4148C67.7254 34.4148 67.7406 34.1493 68.2897 32.6417C68.645 31.6664 68.9228 30.1966 68.9071 29.3753C68.8819 28.0512 69.0055 27.8325 69.9986 27.4439C70.9566 27.069 70.4673 27.0016 66.6129 26.9773C62.252 26.9498 62.0812 26.979 61.2934 27.885C60.609 28.6721 60.4795 29.2771 60.4795 31.6872C60.4795 34.1162 60.6033 34.6851 61.2912 35.4173C62.0276 36.2012 62.4272 36.2813 65.5988 36.2813C68.9556 36.2813 69.1697 36.2308 70.9778 35.0132ZM72.425 29.6887C72.425 28.9672 72.2303 28.8154 71.3051 28.8154C70.3243 28.8154 70.1852 28.9467 70.1852 29.8731C70.1852 31.2544 70.4431 31.465 71.529 30.9703C72.1031 30.7087 72.425 30.2483 72.425 29.6887ZM60.2918 28.0721C60.6258 27.02 60.2316 26.5756 58.9643 26.5756C58.063 26.5756 57.8665 26.7316 57.8665 27.4466C57.8665 28.5364 58.1404 28.8154 59.2101 28.8154C59.7268 28.8154 60.1477 28.5262 60.2918 28.0721ZM77.5765 25.7544C77.8228 25.508 78.0244 24.8697 78.0244 24.3358C78.0244 22.3678 75.9001 21.7497 74.8171 23.4026C74.2506 24.2671 74.2506 24.4046 74.8171 25.2691C75.4723 26.2691 76.824 26.5068 77.5765 25.7544ZM75.4969 25.0187C74.8361 24.3578 74.9316 23.6725 75.7454 23.2369C76.2672 22.9577 76.5692 22.9985 76.8962 23.3925C77.8726 24.569 76.5658 26.0876 75.4969 25.0187ZM13.206 35.7214C13.0878 35.4134 12.7751 35.1614 12.511 35.1614C12.054 35.1614 11.5778 34.3809 11.5778 33.632C11.5778 33.422 15.8369 33.3228 22.2949 33.3825L33.012 33.4816L33.2613 34.7011C33.5561 36.1436 33.0734 36.5941 32.1391 35.7485C31.5405 35.2069 31.4194 35.203 30.997 35.7119C30.3626 36.4763 28.5203 36.4488 28.2216 35.6705C28.0046 35.105 27.9372 35.105 27.3124 35.6705C26.4138 36.4837 24.7917 36.4595 24.4713 35.628C24.2316 35.0059 24.2022 35.0059 23.8529 35.628C23.4226 36.3946 21.0668 36.5387 20.8013 35.8147C20.6644 35.4414 20.5313 35.4414 20.1356 35.8147C19.8636 36.0713 19.1006 36.2813 18.4402 36.2813C17.7798 36.2813 17.1625 36.0713 17.0683 35.8147C16.9315 35.4414 16.7983 35.4414 16.4026 35.8147C15.7018 36.4758 13.4705 36.4107 13.206 35.7214ZM34.1468 35.8832C33.7391 35.2234 34.2066 35.0691 36.6838 35.0458C39.107 35.023 40.1259 35.3185 39.7457 35.9338C39.4469 36.4172 34.449 36.372 34.1468 35.8832ZM40.4929 35.8832C40.0691 35.1975 40.6027 35.0472 43.2852 35.0967C44.7163 35.1232 45.9887 34.9805 46.1128 34.7798C46.2528 34.5533 45.1615 34.4136 43.2366 34.4116L40.1349 34.4086L38.4551 31.821C37.5312 30.3978 36.6335 29.2233 36.4603 29.2111C36.2871 29.1989 36.0576 29.5247 35.9502 29.9353C35.7615 30.657 35.4419 30.6819 26.3728 30.6798L16.9906 30.6778L14.8441 27.8976C13.6636 26.3684 12.6977 25.0479 12.6977 24.9631C12.6977 24.6601 27.455 24.8055 28.047 25.1144C28.3793 25.2877 28.7712 25.3095 28.9179 25.1627C29.0646 25.016 31.7887 24.8731 34.9716 24.8453C38.6628 24.813 40.9094 24.6441 41.1747 24.3787C41.4483 24.1051 43.788 23.9627 48.0074 23.9627C56.4407 23.9627 56.1413 23.7516 56.3092 29.814C56.4219 33.8807 56.3667 34.3227 55.6289 35.2606L54.8259 36.2814H47.7824C43.1965 36.2814 40.6531 36.1424 40.4929 35.8832ZM54.3202 34.7881C54.1933 34.5828 53.0495 34.4174 51.7784 34.4205C50.1485 34.4246 49.6323 34.5329 50.0272 34.7881C50.7826 35.2763 54.6218 35.2763 54.3202 34.7881ZM53.8781 31.3675C55.8249 30.3306 56.2019 28.2368 54.7104 26.7453C53.5581 25.5929 52.227 25.5782 50.9191 26.7032C50.1929 27.3278 49.9028 27.9307 49.9028 28.8154C49.9028 29.7 50.1929 30.303 50.9191 30.9276C52.0581 31.9073 52.6885 32.001 53.8781 31.3675ZM51.2283 30.2152C50.3193 29.1093 50.7198 27.1349 51.9311 26.7504C52.9894 26.4145 54.5068 27.5104 54.5068 28.6107C54.5068 30.3009 52.219 31.4206 51.2283 30.2152ZM53.372 29.3932C54.0394 28.5891 53.4923 27.2533 52.5531 27.3938C51.4431 27.5597 50.8779 28.6011 51.4945 29.344C52.1059 30.0808 52.7866 30.0987 53.372 29.3932ZM22.0301 29.7129C22.0301 29.2977 20.7507 27.3222 20.4818 27.3222C20.1975 27.3222 18.6704 29.3376 18.6704 29.7129C18.6704 29.8352 19.4263 29.9353 20.3502 29.9353C21.2741 29.9353 22.0301 29.8352 22.0301 29.7129ZM5.10047 31.6843C1.7554 28.072 1.49881 27.685 1.49881 26.252V24.7091H6.63911H11.7794L14.2959 28.0688L16.8124 31.4285H27.0242H37.236L38.2241 32.9216L39.2123 34.4148H36.6374C34.3766 34.4148 34.0388 34.3238 33.8674 33.6682C33.6778 32.9435 33.3582 32.9216 22.9404 32.9216C12.3978 32.9216 12.2201 32.909 12.8545 32.2081C13.8395 31.1196 13.4978 29.4731 12.192 29.0164C11.276 28.6961 11.027 28.7664 10.4188 29.5175C9.50501 30.6461 9.52595 30.9037 10.6205 31.9982C11.1205 32.4983 11.3681 33.0072 11.1707 33.1292C10.9733 33.2512 10.8581 33.8004 10.9148 34.3495C11.0046 35.2199 10.8693 35.3625 9.85999 35.4609C8.81715 35.5625 8.34436 35.1874 5.10047 31.6843ZM10.6029 31.268C10.2313 30.2994 10.7522 29.4989 11.6694 29.6291C12.2864 29.7167 12.511 29.9977 12.511 30.6819C12.511 31.366 12.2864 31.647 11.6694 31.7346C11.1646 31.8063 10.7379 31.6196 10.6029 31.268ZM0.937106 23.1226C-0.0803636 20.2448 -0.313863 15.3767 0.565572 15.3767C0.87354 15.3767 1.12552 15.2088 1.12552 15.0034C1.12552 14.7981 0.87354 14.6302 0.565572 14.6302C-0.211473 14.6302 -0.181447 11.5987 0.616292 9.50982L1.22695 7.91083H6.62896C11.6252 7.91083 12.0112 7.9599 11.7676 8.5641C11.6228 8.9234 11.4178 9.82424 11.3121 10.566C11.1351 11.8084 11.2114 11.9465 12.2821 12.3197C13.4091 12.7126 13.4443 12.7927 13.4443 14.9709C13.4443 17.3718 12.9814 17.9898 11.1833 17.9898C10.5766 17.9898 10.464 18.1099 10.7454 18.4564C10.9539 18.7131 11.1978 19.679 11.2876 20.6029C11.3774 21.5268 11.5813 22.5767 11.7409 22.936C12.0098 23.5416 11.6324 23.5892 6.56653 23.5892C2.53183 23.5892 1.05892 23.4672 0.937106 23.1226ZM7.25759 21.4499C5.42821 21.3196 5.33617 21.2582 4.5512 19.6424C3.91662 18.3363 3.73859 17.2925 3.73859 14.8782C3.73859 10.88 4.06691 10.3975 6.66594 10.5766C8.23917 10.685 8.59029 10.6036 8.5042 10.1506C8.42948 9.75745 7.82489 9.55739 6.47449 9.47897C4.67095 9.37424 4.49101 9.44617 3.58494 10.6341C2.7405 11.7412 2.6187 12.2601 2.6187 14.7504C2.6187 17.0921 2.79889 17.9674 3.6297 19.6614L4.6407 21.7228L6.89604 21.6537L9.15137 21.5847L7.25759 21.4499ZM9.52467 18.7364C9.65156 18.5311 9.57747 18.3631 9.36005 18.3631C9.14262 18.3631 8.96472 18.5311 8.96472 18.7364C8.96472 18.9417 9.03881 19.1097 9.12934 19.1097C9.21988 19.1097 9.39778 18.9417 9.52467 18.7364ZM7.84484 17.6165C7.84484 17.4112 7.67686 17.2432 7.47154 17.2432C7.26623 17.2432 7.09825 16.6373 7.09825 15.8967C7.09825 14.8533 7.22424 14.5986 7.65819 14.7651C8.28741 15.0066 8.36758 14.6976 7.8768 13.9225C7.18419 12.8287 6.35165 13.7859 6.35165 15.6761C6.35165 16.6749 6.46364 17.6041 6.60052 17.741C6.9822 18.1226 7.84484 18.0364 7.84484 17.6165ZM12.1473 22.4879C11.4534 21.1459 11.3884 18.7521 12.0444 18.6978C12.3011 18.6765 13.7709 18.6882 15.3108 18.7236C16.8506 18.7591 18.5304 18.6191 19.0437 18.4126C19.7828 18.1152 19.3168 18.0324 16.8039 18.0143L13.6309 17.9916L13.7512 15.0502L13.8715 12.1089L12.739 11.7141L11.6065 11.3193L12.1872 9.61507L12.7679 7.91082L25.8914 7.92949L39.015 7.94815L36.1499 9.41314C34.5741 10.2189 33.1783 11.0504 33.0482 11.261C32.9181 11.4715 31.1837 11.6787 29.194 11.7213L25.5764 11.7987L29.0294 11.9219L32.4823 12.0451V15.0175V17.9898H27.0073C23.9961 17.9898 21.6124 18.0699 21.7102 18.1677C21.952 18.4095 25.6442 18.6635 29.4971 18.7035L32.6712 18.7364L35.4698 20.8122C37.0091 21.9539 38.428 23.0458 38.6231 23.2387C38.8443 23.4573 34.0369 23.5892 25.8473 23.5892H12.7169L12.1473 22.4879ZM23.7949 11.7447C23.0204 11.6638 21.8445 11.6652 21.1818 11.7476C20.5191 11.8301 21.1528 11.8962 22.59 11.8945C24.0272 11.8928 24.5694 11.8255 23.7949 11.7447ZM64.9591 20.7895V17.9898H66.079C66.6949 17.9898 67.1989 17.8176 67.1989 17.6072C67.1989 17.3967 66.6949 17.1238 66.079 17.0006C65.0426 16.7933 64.9591 16.6567 64.9591 15.1682C64.9591 13.6911 65.0429 13.5502 65.9856 13.4417C66.5502 13.3768 67.0122 13.1556 67.0122 12.9503C67.0122 12.745 66.5502 12.5239 65.9856 12.4589C64.9944 12.3449 64.9591 12.2647 64.9591 10.1258C64.9591 8.4373 65.0881 7.91083 65.5017 7.91083C65.8001 7.91083 67.7127 8.91873 69.7519 10.1506C71.791 11.3825 73.5726 12.3904 73.7108 12.3904C74.3756 12.3904 73.267 11.5751 70.1022 9.73635L66.6389 7.72418L72.7983 7.6176C76.186 7.55898 79.2936 7.59839 79.7043 7.70516C80.1602 7.82373 81.293 9.34064 82.6145 11.6022L84.7782 15.3051L89.9256 15.1013C93.3786 14.9646 95.3083 15.0341 95.7878 15.3124C96.3979 15.6666 96.2802 15.729 94.9834 15.7387C93.8369 15.7472 93.2651 15.979 92.6527 16.6833C92.2065 17.1966 91.6078 17.6165 91.3223 17.6165C91.0369 17.6165 90.2227 18.2592 89.5131 19.0447L88.2227 20.473L86.0166 18.8714C83.4658 17.0195 83.0514 17.0421 80.7392 19.1584L79.161 20.6029H75.2331H71.3051V19.371C71.3051 17.925 71.8673 17.2432 73.0596 17.2432C73.5318 17.2432 73.9182 17.1043 73.9182 16.9346C73.9182 16.7648 73.41 16.7005 72.7888 16.7917C71.4094 16.9941 70.5585 18.122 70.5585 19.748C70.5585 20.8824 70.3782 21.0576 67.9548 22.278C66.5227 22.9992 65.2628 23.5892 65.155 23.5892C65.0473 23.5892 64.9591 22.3294 64.9591 20.7895ZM77.9852 19.717C78.5586 19.0259 78.1553 18.1123 77.1587 17.845C76.0863 17.5574 73.0165 17.5562 72.2689 17.8431C71.6817 18.0684 71.452 19.5055 71.9273 19.9807C72.4206 20.4741 77.5419 20.2511 77.9852 19.717ZM73.4367 19.1097C73.2661 18.4572 73.4253 18.3631 74.6997 18.3631C75.9091 18.3631 76.1579 18.4905 76.1579 19.1097C76.1579 19.7092 75.9091 19.8563 74.895 19.8563C73.9459 19.8563 73.5834 19.6707 73.4367 19.1097ZM87.3568 16.6612C87.3568 16.0453 86.7668 15.9412 86.4236 16.4966C86.1191 16.9892 86.5655 17.6882 87.0093 17.4139C87.2004 17.2958 87.3568 16.9571 87.3568 16.6612ZM80.7633 15.3767C80.8693 15.3767 81.0187 15.6707 81.0953 16.03C81.1916 16.4817 81.2992 16.3666 81.4441 15.6572C81.5594 15.0928 81.4535 14.3571 81.2085 14.0222C80.8207 13.4918 80.6591 13.6134 79.9538 14.9665C78.966 16.8616 78.934 17.3384 79.8698 16.2167C80.2552 15.7547 80.6573 15.3767 80.7633 15.3767ZM76.5312 15.75C76.5312 15.3353 76.2824 15.0034 75.9713 15.0034C75.6633 15.0034 75.4088 14.7095 75.4056 14.3502C75.401 13.7919 75.3473 13.7783 75.0381 14.2569C74.5108 15.0727 74.5853 15.7571 75.1765 15.5302C75.458 15.4222 75.7887 15.5955 75.9114 15.9152C76.2217 16.7238 76.5312 16.6413 76.5312 15.75ZM78.4152 15.4051C78.8474 16.1043 79.1506 15.704 79.2486 14.3048C79.2989 13.5879 79.5007 13.1953 79.7667 13.2968C80.25 13.4813 80.6375 12.7223 80.6375 11.5912C80.6375 11.175 80.4681 10.9578 80.249 11.0932C80.0353 11.2253 79.9702 11.6971 80.1043 12.1418C80.2952 12.7748 80.2481 12.8554 79.8874 12.5129C79.634 12.2723 79.1951 12.1643 78.9122 12.2728C78.5754 12.4021 78.3977 12.1986 78.3977 11.6837C78.3977 10.7359 78.1187 10.6962 77.2139 11.515C76.4307 12.2238 76.3099 13.1343 76.9979 13.1427C77.3358 13.1468 77.3226 13.2383 76.95 13.4742C76.6671 13.6535 76.5527 13.9896 76.6958 14.2212C76.839 14.4528 77.1261 14.5372 77.334 14.4088C77.5443 14.2788 77.6793 14.4829 77.6385 14.8693C77.5276 15.9188 77.7135 16.4048 77.9189 15.6025C78.0612 15.0466 78.1675 15.0043 78.4152 15.4051ZM77.784 13.7965C77.3976 13.1713 78.0383 12.9909 78.611 13.5636C79.1206 14.0732 79.118 14.1324 78.5857 14.1324C78.2589 14.1324 77.8982 13.9813 77.784 13.7965ZM76.1579 12.7942C76.1579 12.4004 76.2599 11.8124 76.3845 11.4877C76.5092 11.1629 76.4436 10.8972 76.2387 10.8972C76.0339 10.8972 75.7977 11.4851 75.7138 12.2037C75.6299 12.9223 75.6955 13.5103 75.8596 13.5103C76.0237 13.5103 76.1579 13.188 76.1579 12.7942ZM37.8951 21.5134C33.8708 18.4901 33.6022 18.0725 33.6022 14.837V12.0171H37.3509H41.0996L40.9905 14.9101L40.8815 17.8032L37.9885 17.9122C34.1685 18.0561 34.2455 18.7364 38.0818 18.7364H41.0682V20.9762C41.0682 22.5244 40.9241 23.2129 40.6015 23.206C40.3449 23.2005 39.127 22.4389 37.8951 21.5134ZM42.188 20.9762V19.1097H43.6695C44.7975 19.1097 45.1023 19.2365 44.9471 19.641C44.5522 20.67 47.0351 21.3178 49.175 20.7441C49.6301 20.6221 50.1034 20.2044 50.2267 19.816C50.4334 19.1648 50.8845 19.1097 56.012 19.1097C61.1911 19.1097 61.6006 19.161 61.9727 19.8563C62.2064 20.2929 62.7543 20.6029 63.2924 20.6029C64.0659 20.6029 64.2125 20.7813 64.2125 21.7228V22.8427H53.2003H42.188V20.9762ZM89.2796 21.2307C88.8457 20.7079 89.4977 19.3935 90.6558 18.4564C91.3119 17.9256 95.9426 17.8088 95.9426 18.3232C95.9426 18.7545 95.002 19.1097 93.86 19.1097C93.3539 19.1097 92.324 19.6829 91.5122 20.4162C89.878 21.8927 89.8404 21.9064 89.2796 21.2307ZM42.188 15.9367V13.137L49.1873 13.0618C53.037 13.0205 54.9026 12.9298 53.3332 12.8602C50.8718 12.7511 50.4535 12.6332 50.2885 12.0021C50.1225 11.3675 49.7662 11.2705 47.6008 11.2705C45.4185 11.2705 45.08 11.3644 44.9093 12.0171C44.7639 12.5731 44.4001 12.7637 43.4842 12.7637H42.2544L42.1279 10.5232L42.0014 8.28276L53.1069 8.28343L64.2125 8.28412V9.544C64.2125 10.6325 64.0668 10.833 63.1411 11.0181C62.4972 11.1469 61.992 11.5296 61.875 11.9771C61.7173 12.58 61.2994 12.7482 59.68 12.8604C58.2553 12.959 58.6196 13.0187 60.9461 13.0679L64.2125 13.137V15.9367V18.7364H53.2003H42.188L42.188 15.9367ZM96.1809 17.8032C96.0448 17.4483 95.4718 17.2432 94.6167 17.2432C92.7628 17.2432 93.1166 16.3479 95.0334 16.1889C95.8361 16.1222 96.6082 15.8811 96.7492 15.6529C97.0952 15.0931 98.1824 15.9944 98.1824 16.841C98.1824 18.128 96.5979 18.8897 96.1809 17.8032ZM83.8677 12.7373C83.2831 11.6966 82.8632 10.7874 82.9344 10.7169C83.3834 10.2726 88.968 8.31297 89.264 8.49592C89.6901 8.75928 89.4716 9.5631 88.18 12.4837C87.3205 14.4272 87.122 14.6301 86.0806 14.6298C85.0871 14.6294 84.7856 14.3716 83.8677 12.7373ZM86.9611 11.9449C87.6963 10.6307 87.3284 10.3264 85.8983 11.0659C85.1791 11.4378 84.7438 11.9506 84.7438 12.4259C84.7438 13.5385 86.2527 13.2112 86.9611 11.9449ZM33.9755 11.4319C33.9755 11.3153 35.5294 10.4922 37.4285 9.60282L40.8815 7.9857L40.9997 9.29406C41.2038 11.5538 41.064 11.6438 37.3469 11.6438C35.4926 11.6438 33.9755 11.5484 33.9755 11.4319ZM1.12552 6.80493C1.12552 6.60731 1.84838 5.55741 2.73188 4.47183C4.25637 2.59863 4.4371 2.49229 6.27818 2.38521L8.21813 2.27238V4.71831V7.16424H4.67182C2.64849 7.16424 1.12552 7.00993 1.12552 6.80493ZM6.68568 5.53172C7.61262 4.41484 6.08183 3.00784 5.05592 4.03375C4.36793 4.72174 4.34539 5.00865 4.93313 5.5964C5.52357 6.18683 6.16153 6.16329 6.68568 5.53172ZM8.96472 4.83119L9.15137 2.49804L16.3373 2.39666C23.1394 2.30069 23.5233 2.33249 23.5233 2.99207C23.5233 3.37531 23.8305 3.96687 24.2059 4.30666C24.8222 4.86442 26.7269 4.92446 43.8039 4.92446H62.7193V6.0284V7.13234L42.748 7.15437C22.9645 7.17618 22.7767 7.16931 22.7767 6.42372C22.7767 5.45045 22.0191 5.4459 21.7649 6.41768C21.5793 7.12762 21.2557 7.16427 15.1739 7.16432L8.77808 7.16438L8.96472 4.83119ZM63.9152 5.11111L64.0258 3.61793H71.6784H79.331L79.446 5.00325L79.5609 6.38857L71.6828 6.49644L63.8047 6.6043L63.9152 5.11111ZM80.2599 4.92446L80.0776 3.24463H71.6324C65.0296 3.24463 63.2264 3.14284 63.3665 2.77801C63.495 2.44353 64.7186 2.3114 67.6876 2.3114C71.8155 2.3114 71.8335 2.30745 73.0258 1.1519C74.1679 0.0449857 74.3605 -0.00722504 77.274 0.000602548C78.9525 0.00512152 80.4031 0.08606 80.4975 0.18049C80.5919 0.27492 80.6182 1.7589 80.5557 3.47824C80.4692 5.86476 80.3992 6.20689 80.2599 4.92446ZM79.1443 1.75145C79.1443 1.44348 78.8923 1.19151 78.5844 1.19151C78.0014 1.19151 77.8438 1.633 78.2733 2.06253C78.7028 2.49206 79.1443 2.33438 79.1443 1.75145ZM24.3445 3.72992C23.6972 3.08262 23.7944 2.3114 24.5233 2.3114C24.868 2.3114 25.7354 2.52137 26.4507 2.77801C27.4912 3.15131 27.7827 3.15131 27.9082 2.77801C28.0953 2.22123 29.3552 2.15497 29.6826 2.68469C29.8095 2.89 30.3234 3.05798 30.8245 3.05798C31.3257 3.05798 31.7358 2.89 31.7358 2.68469C31.7358 2.00814 33.1276 2.296 33.65 3.08058L34.1622 3.84977L34.9865 3.08058C35.9587 2.17336 36.7972 2.09023 37.0969 2.87133C37.3771 3.60155 38.2481 3.58494 38.998 2.83507C39.6344 2.19865 40.7663 2.37914 40.605 3.09133C40.4382 3.82788 41.8418 3.78145 42.486 3.02911C43.2501 2.13673 43.9045 2.11461 44.3924 2.96465C44.7495 3.58681 44.8229 3.58681 45.9343 2.96465C47.4078 2.13983 47.7875 2.14256 47.7875 2.97804C47.7875 3.87076 49.3106 3.87595 49.9551 2.98537C50.5481 2.16594 51.3638 2.11124 51.6554 2.87133C51.7736 3.1793 52.2775 3.43127 52.7753 3.43127C53.2731 3.43127 53.777 3.1793 53.8952 2.87133C54.1652 2.16761 55.2534 2.13272 55.2534 2.82779C55.2534 3.68647 56.7213 3.8349 57.2257 3.02722C57.7993 2.10878 58.4819 2.11535 58.9789 3.04408C59.4066 3.84323 60.3451 3.72383 61.1149 2.77235C61.7032 2.04506 62.7193 2.45492 62.7193 3.41956C62.7193 4.17182 62.5681 4.17786 43.7559 4.17786C29.5043 4.17786 24.6812 4.06657 24.3445 3.72992Z" />
</svg>
