<svg width="371" height="79" viewBox="0 0 371 79" fill="none" xmlns="http://www.w3.org/2000/svg">
<path d="M11.1762 52.4227C13.2355 53.142 15.5439 53.1926 17.6664 52.7563C21.9744 51.8699 25.3697 50.4514 28.147 48.7916C28.8808 48.3525 29.3733 47.6076 29.4912 46.7607C29.915 43.7101 30.6773 36.1677 28.421 33.0457C26.9186 30.9663 24.7961 29.7982 22.3074 29.3043C20.2765 28.902 18.4162 28.5108 16.6613 27.5384C16.2944 27.3352 16.4248 26.7782 16.8437 26.7692C19.0106 26.722 21.1816 26.6908 23.3201 27.0182C25.8996 27.4135 28.4716 28.3804 30.3159 30.2262C30.54 29.4646 30.5823 28.6503 30.4442 27.8686C30.3998 27.6182 30.687 27.4447 30.8895 27.5987C32.0708 28.4977 32.9225 29.8114 33.4358 31.2139C34.0337 32.8487 34.2085 34.6078 34.2626 36.3474C34.7038 35.9777 35.0818 35.5324 35.378 35.0385C35.5306 34.7833 35.9127 34.8332 35.9752 35.1238C36.0764 35.5962 36.2055 36.0755 36.2297 36.3841C36.3012 37.3094 36.3109 38.2396 36.2582 39.1662C36.1624 40.8455 35.8656 42.5234 35.4147 44.143C35.4147 44.143 42.2642 35.4727 38.8253 26.3981C35.3863 17.3234 27.3805 12.4681 27.3805 12.4681C27.3805 12.4681 24.6927 9 23.508 9C22.3233 9 22.872 15.8197 22.872 15.8211C22.915 16.3593 21.6568 17.4504 21.3266 17.8554C20.583 18.7683 19.7639 19.62 18.8823 20.4003C16.8312 22.2149 14.5097 23.3503 12.1001 24.5877C11.8379 24.7223 11.5493 24.8888 11.4772 25.1738C11.4196 25.4 11.5181 25.6351 11.6277 25.8411C13.4977 29.346 18.8455 30.4343 22.41 30.5605C22.6438 30.5688 22.3414 31.8936 22.3164 31.9685C21.783 33.5979 20.4277 34.7548 19.1792 35.8271C16.1723 38.4102 12.6196 40.3835 10.0386 43.4431C9.19657 44.4412 8.46411 45.5649 8.13117 46.8273C7.79823 48.0897 7.90435 49.5095 8.63057 50.5943C9.22154 51.478 10.1718 52.0724 11.1762 52.4227ZM21.7157 22.1219C22.4822 22.1219 23.103 22.4583 23.103 22.8731C23.103 23.2879 22.4822 23.6243 21.7157 23.6243C20.9493 23.6243 20.3285 23.2879 20.3285 22.8731C20.3285 22.4583 20.95 22.1219 21.7157 22.1219Z" fill="#E30B5C"/>
<path d="M55.9931 57.3229C55.9931 51.02 51.2134 46.3055 44.9895 46.0558C43.9997 46.0162 43.0072 46.0766 42.0278 46.2264C37.9507 46.85 34.3057 48.9509 30.7696 50.9527C27.1163 53.0204 23.5109 54.9043 19.3741 55.8296C15.6161 56.6702 11.5168 56.9463 8.42325 54.2516C7.95575 53.8444 7.52987 53.3894 7.15531 52.8949C6.97358 52.6549 6.61221 51.8371 6.20436 51.9231C5.92275 51.9841 6.00598 52.7776 6.03095 53.1487C6.39788 58.5298 8.44822 64.2064 13.3348 67.0392C15.9678 68.5651 19.0821 69.2019 22.1167 68.9751C28.0811 68.5297 33.6294 65.2586 39.2672 63.4871C42.292 62.5362 45.439 61.7018 48.5936 62.5827C51.848 63.492 51.9687 65.9564 51.6101 67.6593C51.5116 68.1268 52.0936 68.4333 52.4106 68.0754C56.3233 63.6571 55.9931 57.3229 55.9931 57.3229ZM45.8357 53.6544C44.1163 53.5739 42.3891 53.7709 40.7134 54.1843C39.0286 54.5817 37.3874 55.2032 35.7456 55.8719C34.1073 56.553 32.4745 57.3077 30.7696 57.943C32.1895 56.8097 33.6814 55.788 35.2761 54.9008C36.8672 54.0109 38.5798 53.2923 40.3874 52.8359C42.2005 52.4135 44.101 52.2602 45.9564 52.5779C47.8049 52.8817 49.5785 53.662 50.9366 54.88C49.2692 54.1566 47.5559 53.7452 45.8357 53.6544Z" fill="#E30B5C"/>
<path d="M87.5152 22.0142C91.1676 22.0142 94.1142 23.0654 96.3547 25.1678C98.5953 27.2703 99.7156 30.071 99.7156 33.57C99.7156 37.069 98.6106 39.862 96.4008 41.9491C94.1909 44.0362 91.229 45.0798 87.5152 45.0798H78.7217V54.4718C78.7217 54.9015 78.5606 55.2775 78.2383 55.5997C77.916 55.922 77.54 56.0832 77.1103 56.0832H73.6114C73.1817 56.0832 72.8057 55.922 72.4834 55.5997C72.1611 55.2775 72 54.9015 72 54.4718V40.1996C72 39.7699 72.1611 39.394 72.4834 39.0717C72.8057 38.7494 73.1817 38.5883 73.6114 38.5883H87.239C89.2954 38.5883 90.7686 38.1432 91.6587 37.2531C92.5488 36.4551 92.9939 35.2428 92.9939 33.616C92.9939 31.9893 92.5335 30.7386 91.6127 29.8638C90.6919 28.9891 89.234 28.5517 87.239 28.5517H73.6114C73.1817 28.5517 72.8057 28.3906 72.4834 28.0683C72.1611 27.746 72 27.3701 72 26.9404V23.6255C72 23.1958 72.1611 22.8199 72.4834 22.4976C72.8057 22.1753 73.1817 22.0142 73.6114 22.0142H87.5152ZM109.522 22.0142C109.952 22.0142 110.328 22.1753 110.65 22.4976C110.972 22.8199 111.133 23.1958 111.133 23.6255V54.4718C111.133 54.9015 110.972 55.2775 110.65 55.5997C110.328 55.922 109.952 56.0832 109.522 56.0832H106.023C105.593 56.0832 105.217 55.922 104.895 55.5997C104.573 55.2775 104.412 54.9015 104.412 54.4718V23.6255C104.412 23.1958 104.573 22.8199 104.895 22.4976C105.217 22.1753 105.593 22.0142 106.023 22.0142H109.522ZM126.326 49.4996C126.787 49.4996 127.17 49.6607 127.477 49.983C127.784 50.3052 127.938 50.6812 127.938 51.1109V54.4718C127.938 54.9015 127.784 55.2775 127.477 55.5997C127.17 55.922 126.787 56.0832 126.326 56.0832H115.599C115.139 56.0832 114.755 55.922 114.448 55.5997C114.141 55.2775 113.988 54.9015 113.988 54.4718V51.1109C113.988 50.6812 114.141 50.3052 114.448 49.983C114.755 49.6607 115.139 49.4996 115.599 49.4996H126.326ZM162.697 53.9193C162.912 54.4104 162.858 54.9092 162.536 55.4156C162.214 55.922 161.776 56.1752 161.224 56.1752H130.562C130.286 56.1752 130.025 56.1062 129.779 55.9681C129.534 55.8299 129.349 55.6535 129.227 55.4386C128.889 54.9475 128.843 54.4411 129.089 53.9193L130.516 50.5585C130.639 50.2515 130.838 50.006 131.114 49.8218C131.391 49.6377 131.682 49.5456 131.989 49.5456H153.443L145.893 31.4982L139.724 46.2308C139.601 46.5377 139.409 46.7756 139.148 46.9444C138.887 47.1132 138.588 47.1976 138.25 47.1976H134.383C133.8 47.1976 133.34 46.9521 133.002 46.461C132.879 46.2461 132.802 46.0006 132.772 45.7243C132.741 45.4481 132.772 45.1872 132.864 44.9417L142.21 23.027C142.333 22.7201 142.524 22.4746 142.785 22.2904C143.046 22.1062 143.345 22.0142 143.683 22.0142H148.103C148.44 22.0142 148.74 22.1062 149.001 22.2904C149.261 22.4746 149.453 22.7201 149.576 23.027L162.697 53.9193ZM195.799 22.8889C195.953 23.1651 196.022 23.4567 196.007 23.7637C195.991 24.0706 195.891 24.3468 195.707 24.5924L182.954 43.008V54.8401C182.954 55.2698 182.793 55.6458 182.471 55.9681C182.149 56.2903 181.773 56.4515 181.343 56.4515H177.798C177.338 56.4515 176.946 56.2903 176.624 55.9681C176.302 55.6458 176.141 55.2698 176.141 54.8401V41.3506C176.141 41.0437 176.248 40.7368 176.463 40.4298L188.755 22.7048C188.909 22.4899 189.101 22.3211 189.331 22.1983C189.561 22.0756 189.814 22.0142 190.09 22.0142H194.372C194.679 22.0142 194.963 22.0909 195.224 22.2444C195.485 22.3978 195.677 22.6127 195.799 22.8889ZM176.417 33.0175C176.294 33.2938 176.102 33.5086 175.841 33.6621C175.58 33.8155 175.297 33.8923 174.99 33.8923H170.708C170.156 33.8923 169.695 33.6621 169.327 33.2017L163.342 24.5924C163.188 24.3468 163.104 24.0706 163.089 23.7637C163.073 23.4567 163.127 23.1651 163.25 22.8889C163.372 22.6127 163.564 22.3978 163.825 22.2444C164.086 22.0909 164.37 22.0142 164.677 22.0142H169.005C169.526 22.0142 169.971 22.2444 170.34 22.7048L176.325 31.3141C176.478 31.5596 176.563 31.8359 176.578 32.1428C176.593 32.4497 176.54 32.7413 176.417 33.0175ZM222.272 39.0947C223.592 39.9234 224.597 40.9363 225.287 42.1333C225.978 43.3303 226.323 44.6654 226.323 46.1387C226.323 49.607 225.004 52.2619 222.364 54.1035C220.584 55.3926 218.174 56.2059 215.136 56.5435H214.952C214.522 56.5435 214.169 56.4054 213.893 56.1292C213.524 55.7916 213.34 55.3926 213.34 54.9322V51.6174C213.34 51.2183 213.478 50.8654 213.755 50.5585C214.031 50.2515 214.368 50.0674 214.767 50.006C216.21 49.8525 217.33 49.5149 218.128 48.9931C218.742 48.6248 219.157 48.1491 219.371 47.5659C219.494 47.2283 219.556 46.7986 219.556 46.2768C219.556 45.9392 219.494 45.6476 219.371 45.4021C219.249 45.1565 219.034 44.9263 218.727 44.7115C217.837 44.0976 216.686 43.5758 215.274 43.1461L214.537 42.9159C213.003 42.4863 211.591 42.1333 210.302 41.857C210.025 41.7957 209.58 41.6882 208.967 41.5348L208.46 41.3967C207.355 41.1204 206.189 40.7368 204.961 40.2457C203.15 39.4784 201.662 38.5115 200.495 37.3452C199.145 35.9947 198.47 34.2145 198.47 32.0047C198.47 28.9661 199.636 26.4953 201.969 24.5924C203.565 23.2419 205.805 22.3825 208.69 22.0142C209.181 21.9528 209.603 22.0909 209.956 22.4285C210.309 22.7661 210.486 23.1651 210.486 23.6255V26.9404C210.486 27.3394 210.363 27.6923 210.118 27.9993C209.872 28.3062 209.557 28.4827 209.174 28.5287C208.79 28.5747 208.399 28.6592 208 28.7819C207.11 29.1195 206.48 29.4495 206.112 29.7718C205.744 30.094 205.483 30.424 205.329 30.7616C205.176 31.2834 205.099 31.7745 205.099 32.2349C205.099 32.4804 205.237 32.7413 205.514 33.0175C205.943 33.4472 206.573 33.8309 207.401 34.1685C207.77 34.322 208.414 34.5522 209.335 34.8591L215.09 36.2863L215.366 36.3784C216.809 36.7774 217.852 37.0843 218.497 37.2992C219.939 37.7903 221.198 38.3888 222.272 39.0947ZM214.583 28.6898C214.215 28.5978 213.916 28.4059 213.686 28.1144C213.455 27.8228 213.34 27.4775 213.34 27.0785V23.7176C213.34 23.2265 213.54 22.8122 213.939 22.4746C214.092 22.3211 214.292 22.2213 214.537 22.1753C214.783 22.1293 215.013 22.1216 215.228 22.1523C217.929 22.582 220.123 23.5028 221.811 24.9146C224.113 26.8176 225.341 29.2423 225.495 32.1888C225.525 32.6185 225.38 33.0099 225.057 33.3628C224.735 33.7158 224.344 33.8923 223.883 33.8923H220.292C219.893 33.8923 219.54 33.7542 219.233 33.4779C218.926 33.2017 218.758 32.8641 218.727 32.4651C218.604 31.667 218.343 31.0072 217.944 30.4854C217.3 29.7181 216.302 29.1349 214.952 28.7359C214.86 28.7359 214.798 28.7205 214.767 28.6898H214.583ZM209.197 49.8218C209.565 49.8832 209.872 50.0674 210.118 50.3743C210.363 50.6812 210.486 51.0188 210.486 51.3872V54.7941C210.486 55.2851 210.302 55.6995 209.933 56.0371C209.626 56.2827 209.273 56.4054 208.874 56.4054H208.644C205.79 55.9757 203.442 55.0396 201.6 53.597C199.206 51.6941 197.856 49.0392 197.549 45.6323C197.487 45.1412 197.626 44.7192 197.963 44.3662C198.301 44.0132 198.7 43.8367 199.16 43.8367H202.797C203.227 43.8367 203.595 43.9825 203.902 44.2741C204.209 44.5657 204.378 44.9263 204.409 45.356C204.501 46.8907 205.253 48.0723 206.665 48.901C207.309 49.2694 208.153 49.5763 209.197 49.8218ZM256.019 49.5456C256.479 49.5456 256.863 49.7067 257.17 50.029C257.476 50.3513 257.63 50.7426 257.63 51.203V54.5639C257.63 54.9936 257.476 55.3695 257.17 55.6918C256.863 56.0141 256.479 56.1752 256.019 56.1752H233.275C232.846 56.1752 232.47 56.0141 232.147 55.6918C231.825 55.3695 231.664 54.9936 231.664 54.5639V51.203C231.664 50.7426 231.825 50.3513 232.147 50.029C232.47 49.7067 232.846 49.5456 233.275 49.5456H256.019ZM233.275 42.4095C232.846 42.4095 232.47 42.2484 232.147 41.9261C231.825 41.6038 231.664 41.2278 231.664 40.7981V37.3452C231.664 36.9155 231.825 36.5395 232.147 36.2173C232.47 35.895 232.846 35.7338 233.275 35.7338H253.947C254.407 35.7338 254.799 35.895 255.121 36.2173C255.443 36.5395 255.604 36.9155 255.604 37.3452V40.7981C255.604 41.2278 255.443 41.6038 255.121 41.9261C254.799 42.2484 254.407 42.4095 253.947 42.4095H233.275ZM256.019 22.0142C256.479 22.0142 256.863 22.1753 257.17 22.4976C257.476 22.8199 257.63 23.1958 257.63 23.6255V26.9864C257.63 27.4468 257.476 27.8381 257.17 28.1604C256.863 28.4827 256.479 28.6438 256.019 28.6438H233.275C232.846 28.6438 232.47 28.4827 232.147 28.1604C231.825 27.8381 231.664 27.4468 231.664 26.9864V23.6255C231.664 23.1958 231.825 22.8199 232.147 22.4976C232.47 22.1753 232.846 22.0142 233.275 22.0142H256.019ZM291.423 22.0142C291.852 22.0142 292.228 22.1753 292.551 22.4976C292.873 22.8199 293.034 23.1958 293.034 23.6255V54.4718C293.034 54.9015 292.873 55.2775 292.551 55.5997C292.228 55.922 291.852 56.0832 291.423 56.0832H287.371C286.819 56.0832 286.374 55.8683 286.036 55.4386L263.523 24.5924C263.339 24.3468 263.231 24.0706 263.201 23.7637C263.17 23.4567 263.224 23.1651 263.362 22.8889C263.5 22.6127 263.699 22.3978 263.96 22.2444C264.221 22.0909 264.505 22.0142 264.812 22.0142H268.864C269.109 22.0142 269.355 22.0679 269.6 22.1753C269.846 22.2827 270.03 22.4439 270.153 22.6587L286.312 44.6194V23.6255C286.312 23.1958 286.466 22.8199 286.773 22.4976C287.08 22.1753 287.463 22.0142 287.924 22.0142H291.423ZM268.311 44.3432C268.741 44.3432 269.117 44.4966 269.439 44.8036C269.761 45.1105 269.922 45.4941 269.922 45.9545V54.4718C269.922 54.9015 269.761 55.2775 269.439 55.5997C269.117 55.922 268.741 56.0832 268.311 56.0832H264.812C264.382 56.0832 264.006 55.922 263.684 55.5997C263.362 55.2775 263.201 54.9015 263.201 54.4718V45.9545C263.201 45.4941 263.362 45.1105 263.684 44.8036C264.006 44.4966 264.382 44.3432 264.812 44.3432H268.311ZM323.006 39.0947C324.325 39.9234 325.331 40.9363 326.021 42.1333C326.712 43.3303 327.057 44.6654 327.057 46.1387C327.057 49.607 325.737 52.2619 323.098 54.1035C321.317 55.3926 318.908 56.2059 315.87 56.5435H315.685C315.256 56.5435 314.903 56.4054 314.626 56.1292C314.258 55.7916 314.074 55.3926 314.074 54.9322V51.6174C314.074 51.2183 314.212 50.8654 314.488 50.5585C314.765 50.2515 315.102 50.0674 315.501 50.006C316.944 49.8525 318.064 49.5149 318.862 48.9931C319.476 48.6248 319.89 48.1491 320.105 47.5659C320.228 47.2283 320.289 46.7986 320.289 46.2768C320.289 45.9392 320.228 45.6476 320.105 45.4021C319.982 45.1565 319.767 44.9263 319.461 44.7115C318.57 44.0976 317.42 43.5758 316.008 43.1461L315.271 42.9159C313.736 42.4863 312.324 42.1333 311.035 41.857C310.759 41.7957 310.314 41.6882 309.7 41.5348L309.194 41.3967C308.089 41.1204 306.923 40.7368 305.695 40.2457C303.884 39.4784 302.395 38.5115 301.229 37.3452C299.879 35.9947 299.203 34.2145 299.203 32.0047C299.203 28.9661 300.37 26.4953 302.702 24.5924C304.298 23.2419 306.539 22.3825 309.424 22.0142C309.915 21.9528 310.337 22.0909 310.69 22.4285C311.043 22.7661 311.22 23.1651 311.22 23.6255V26.9404C311.22 27.3394 311.097 27.6923 310.851 27.9993C310.606 28.3062 310.291 28.4827 309.907 28.5287C309.524 28.5747 309.132 28.6592 308.733 28.7819C307.843 29.1195 307.214 29.4495 306.846 29.7718C306.478 30.094 306.217 30.424 306.063 30.7616C305.91 31.2834 305.833 31.7745 305.833 32.2349C305.833 32.4804 305.971 32.7413 306.247 33.0175C306.677 33.4472 307.306 33.8309 308.135 34.1685C308.503 34.322 309.148 34.5522 310.069 34.8591L315.823 36.2863L316.1 36.3784C317.542 36.7774 318.586 37.0843 319.23 37.2992C320.673 37.7903 321.931 38.3888 323.006 39.0947ZM315.317 28.6898C314.949 28.5978 314.649 28.4059 314.419 28.1144C314.189 27.8228 314.074 27.4775 314.074 27.0785V23.7176C314.074 23.2265 314.273 22.8122 314.672 22.4746C314.826 22.3211 315.025 22.2213 315.271 22.1753C315.517 22.1293 315.747 22.1216 315.962 22.1523C318.663 22.582 320.857 23.5028 322.545 24.9146C324.847 26.8176 326.075 29.2423 326.228 32.1888C326.259 32.6185 326.113 33.0099 325.791 33.3628C325.469 33.7158 325.077 33.8923 324.617 33.8923H321.026C320.627 33.8923 320.274 33.7542 319.967 33.4779C319.66 33.2017 319.491 32.8641 319.461 32.4651C319.338 31.667 319.077 31.0072 318.678 30.4854C318.033 29.7181 317.036 29.1349 315.685 28.7359C315.593 28.7359 315.532 28.7205 315.501 28.6898H315.317ZM309.93 49.8218C310.299 49.8832 310.606 50.0674 310.851 50.3743C311.097 50.6812 311.22 51.0188 311.22 51.3872V54.7941C311.22 55.2851 311.035 55.6995 310.667 56.0371C310.36 56.2827 310.007 56.4054 309.608 56.4054H309.378C306.524 55.9757 304.176 55.0396 302.334 53.597C299.94 51.6941 298.589 49.0392 298.283 45.6323C298.221 45.1412 298.359 44.7192 298.697 44.3662C299.035 44.0132 299.434 43.8367 299.894 43.8367H303.531C303.961 43.8367 304.329 43.9825 304.636 44.2741C304.943 44.5657 305.112 44.9263 305.142 45.356C305.234 46.8907 305.986 48.0723 307.398 48.901C308.043 49.2694 308.887 49.5763 309.93 49.8218ZM356.752 49.5456C357.213 49.5456 357.596 49.7067 357.903 50.029C358.21 50.3513 358.364 50.7426 358.364 51.203V54.5639C358.364 54.9936 358.21 55.3695 357.903 55.6918C357.596 56.0141 357.213 56.1752 356.752 56.1752H334.009C333.579 56.1752 333.203 56.0141 332.881 55.6918C332.559 55.3695 332.398 54.9936 332.398 54.5639V51.203C332.398 50.7426 332.559 50.3513 332.881 50.029C333.203 49.7067 333.579 49.5456 334.009 49.5456H356.752ZM334.009 42.4095C333.579 42.4095 333.203 42.2484 332.881 41.9261C332.559 41.6038 332.398 41.2278 332.398 40.7981V37.3452C332.398 36.9155 332.559 36.5395 332.881 36.2173C333.203 35.895 333.579 35.7338 334.009 35.7338H354.681C355.141 35.7338 355.532 35.895 355.855 36.2173C356.177 36.5395 356.338 36.9155 356.338 37.3452V40.7981C356.338 41.2278 356.177 41.6038 355.855 41.9261C355.532 42.2484 355.141 42.4095 354.681 42.4095H334.009ZM356.752 22.0142C357.213 22.0142 357.596 22.1753 357.903 22.4976C358.21 22.8199 358.364 23.1958 358.364 23.6255V26.9864C358.364 27.4468 358.21 27.8381 357.903 28.1604C357.596 28.4827 357.213 28.6438 356.752 28.6438H334.009C333.579 28.6438 333.203 28.4827 332.881 28.1604C332.559 27.8381 332.398 27.4468 332.398 26.9864V23.6255C332.398 23.1958 332.559 22.8199 332.881 22.4976C333.203 22.1753 333.579 22.0142 334.009 22.0142H356.752Z" fill="#E30B5C"/>
</svg>
