<svg width="36" height="42" viewBox="0 0 36 42" fill="none" xmlns="http://www.w3.org/2000/svg">
<path d="M4.25759 29.8438C5.67296 30.3381 7.25947 30.3729 8.71822 30.0731C11.6791 29.4638 14.0126 28.489 15.9214 27.3482C16.4257 27.0464 16.7642 26.5344 16.8453 25.9524C17.1365 23.8558 17.6604 18.672 16.1097 16.5263C15.0771 15.0971 13.6184 14.2943 11.9079 13.9549C10.5121 13.6784 9.23355 13.4095 8.02746 12.7412C7.77527 12.6015 7.8649 12.2187 8.15283 12.2125C9.64209 12.1801 11.1342 12.1586 12.6039 12.3836C14.3768 12.6554 16.1445 13.3199 17.4121 14.5884C17.566 14.065 17.5951 13.5053 17.5003 12.9681C17.4698 12.796 17.6671 12.6768 17.8063 12.7826C18.6182 13.4005 19.2036 14.3034 19.5563 15.2673C19.9673 16.3909 20.0874 17.5998 20.1246 18.7954C20.4278 18.5414 20.6876 18.2353 20.8911 17.8959C20.996 17.7204 21.2587 17.7548 21.3016 17.9545C21.3712 18.2792 21.4599 18.6086 21.4765 18.8207C21.5256 19.4566 21.5323 20.0959 21.4961 20.7328C21.4303 21.8869 21.2263 23.0401 20.9164 24.1532C20.9164 24.1532 25.624 18.1943 23.2604 11.9574C20.8969 5.72058 15.3946 2.38357 15.3946 2.38357C15.3946 2.38357 13.5473 0 12.7331 0C11.9189 0 12.296 4.68706 12.296 4.68802C12.3255 5.05795 11.4608 5.80782 11.2338 6.08622C10.7228 6.71358 10.1598 7.29898 9.5539 7.83529C8.14425 9.08237 6.54869 9.86276 4.89258 10.7132C4.71238 10.8057 4.51407 10.9201 4.46449 11.116C4.42492 11.2714 4.49261 11.4331 4.56794 11.5746C5.85316 13.9835 9.52863 14.7314 11.9785 14.8182C12.1391 14.8239 11.9313 15.7345 11.9141 15.7859C11.5475 16.9057 10.616 17.7009 9.75793 18.4379C7.69137 20.2132 5.24964 21.5694 3.47578 23.6722C2.89705 24.3582 2.39364 25.1305 2.16482 25.9981C1.93599 26.8657 2.00893 27.8416 2.50805 28.5872C2.91421 29.1945 3.56731 29.603 4.25759 29.8438ZM11.5013 9.01849C12.0281 9.01849 12.4547 9.2497 12.4547 9.53478C12.4547 9.81985 12.0281 10.0511 11.5013 10.0511C10.9745 10.0511 10.5479 9.81985 10.5479 9.53478C10.5479 9.2497 10.975 9.01849 11.5013 9.01849Z" fill="#E30B5C"/>
<path d="M35.0596 33.2118C35.0596 28.8799 31.7745 25.6397 27.497 25.4681C26.8167 25.4409 26.1345 25.4824 25.4614 25.5854C22.6593 26.0139 20.1541 27.4579 17.7238 28.8337C15.213 30.2548 12.735 31.5495 9.89189 32.1855C7.30905 32.7633 4.49166 32.953 2.36551 31.1009C2.04421 30.8211 1.7515 30.5084 1.49408 30.1685C1.36918 30.0035 1.12081 29.4415 0.840502 29.5006C0.646956 29.5426 0.704161 30.0879 0.721323 30.343C0.973505 34.0413 2.38268 37.9428 5.74113 39.8897C7.55074 40.9384 9.69119 41.3761 11.7768 41.2202C15.8761 40.9141 19.6893 38.6659 23.5641 37.4484C25.643 36.7948 27.8059 36.2213 29.974 36.8268C32.2107 37.4517 32.2937 39.1455 32.0472 40.3158C31.9795 40.6372 32.3795 40.8479 32.5973 40.6019C35.2865 37.5652 35.0596 33.2118 35.0596 33.2118ZM28.0786 30.6905C26.8968 30.6352 25.7098 30.7706 24.558 31.0547C23.4001 31.3279 22.2722 31.755 21.1438 32.2146C20.0178 32.6827 18.8956 33.2014 17.7238 33.638C18.6997 32.8591 19.7251 32.1569 20.8211 31.5472C21.9146 30.9355 23.0917 30.4417 24.334 30.128C25.5801 29.8377 26.8863 29.7323 28.1615 29.9506C29.432 30.1594 30.6509 30.6957 31.5843 31.5329C30.4383 31.0356 29.2608 30.7529 28.0786 30.6905Z" fill="#E30B5C"/>
</svg>
