<svg width="100" height="100" viewBox="0 0 100 100" fill="none" xmlns="http://www.w3.org/2000/svg">
<path d="M82.79 12.1472V7.1572L85.1886 4.77113C86.5077 3.45879 87.6778 2.47578 87.7887 2.58666C87.8996 2.69754 87.9903 4.91169 87.9903 7.507V12.2258H92.823H97.6558L95.2129 14.6814L92.7699 17.1371H87.78H82.79V12.1472Z" fill="white" fill-opacity="0.501961"/>
<path d="M4.78667 14.681L2.34375 12.2253H7.16967H11.9956L12.0746 7.28455L12.1537 2.34375L14.6816 4.84386L17.2095 7.34397V12.2403V17.1367H12.2195H7.22958L4.78667 14.681Z" fill="white" fill-opacity="0.501961"/>
<path d="M45.032 15.0424L46.2446 11.5033L58.3064 11.4279L70.3682 11.3525L68.5678 14.967L66.7674 18.5815H55.2934H43.8193L45.032 15.0424Z" fill="white" fill-opacity="0.501961"/>
<path d="M40.044 29.4874C40.0503 29.4477 40.5535 27.9851 41.1621 26.2373L42.2687 23.0593L53.3824 22.9838L64.4962 22.9082L62.7968 26.2339L61.0974 29.5597H50.5649C44.772 29.5597 40.0376 29.5272 40.044 29.4874Z" fill="white" fill-opacity="0.501961"/>
<path d="M36.5762 39.7434C36.5816 39.6242 37.0204 38.2916 37.5512 36.7821L38.5163 34.0375L48.6516 33.9616L58.787 33.8857L58.4261 34.6839C58.2276 35.1229 57.5547 36.4896 56.9306 37.7211L55.796 39.9601H46.1811C40.8929 39.9601 36.5707 39.8625 36.5762 39.7434Z" fill="white" fill-opacity="0.501961"/>
<path d="M33.6219 47.8325C34.21 46.1244 34.7956 44.5643 34.9233 44.3657C35.1916 43.9484 46.2572 43.877 61.455 44.1945L70.5487 44.3845L68.7263 47.4447C67.7239 49.1278 66.9031 50.6024 66.9023 50.7215C66.9014 50.8407 59.1724 50.9382 49.7267 50.9382H32.5527L33.6219 47.8325Z" fill="white"/>
<path d="M48.4902 61.2597C48.568 61.0571 48.9284 59.562 49.2911 57.9373L49.9507 54.9834H57.1419H64.3331L63.5868 56.2112C63.1764 56.8865 62.2981 58.3816 61.6351 59.5336L60.4296 61.6282H54.3892C49.6116 61.6282 48.3784 61.5512 48.4902 61.2597Z" fill="white"/>
<path d="M46.0996 71.902C46.0996 71.485 46.751 68.4912 47.2821 66.4672L47.5664 65.3838H52.7555C55.6095 65.3838 57.9446 65.4675 57.9446 65.5698C57.9446 65.6721 57.0803 67.2322 56.0239 69.0366L54.1031 72.3175H50.1014C46.8136 72.3175 46.0996 72.2433 46.0996 71.902Z" fill="white"/>
<path d="M43.5 82.741C43.5 82.4724 44.5615 77.8042 44.8355 76.8679C44.9653 76.4245 45.3897 76.3623 48.2864 76.3623C50.103 76.3623 51.5893 76.4165 51.5893 76.4827C51.5893 76.5488 50.7392 78.0439 49.7001 79.8051L47.8109 83.0071H45.6555C44.47 83.0071 43.5 82.8873 43.5 82.741Z" fill="white"/>
<path d="M30.5686 82.4708C17.0425 74.3414 9.94836 59.0032 12.584 43.5864C13.9153 35.7989 17.12 29.4386 22.5427 23.8209C25.8571 20.3874 28.9471 18.0858 32.8997 16.1065C35.9523 14.5778 39.9049 13.1571 40.2223 13.4745C40.3098 13.562 39.9373 14.9661 39.3945 16.5946L38.4075 19.5555L35.5042 21.0184C32.4307 22.567 29.1751 24.9013 27.0438 27.0845C25.7873 28.3715 25.7118 28.4038 23.959 28.4038H22.1622L20.7025 30.5862C18.2915 34.191 16.4185 38.6979 15.4262 43.2824C14.9293 45.5782 14.9293 54.276 15.4262 56.5719C16.3784 60.9711 18.8111 66.6976 20.9817 69.6491C21.8513 70.8316 21.935 70.8726 23.4773 70.8726C25.0654 70.8726 25.0844 70.8835 27.3677 73.031C28.6296 74.2182 30.8578 75.9871 32.3193 76.962C33.7808 77.9369 35.0078 78.7628 35.046 78.7973C35.2144 78.9494 33.4618 83.7041 33.2059 83.7894C33.049 83.8417 31.8622 83.2483 30.5686 82.4708Z" fill="white"/>
<path d="M54.4776 87.2258C54.4776 87.0509 54.8718 85.7248 55.3535 84.2787L56.2294 81.6496L57.8814 81.2843C60.141 80.7848 64.0136 79.1978 66.3277 77.823C68.5935 76.4769 72.4482 73.4179 73.7571 71.927C74.6293 70.9337 74.7839 70.8723 76.4147 70.8723H78.1461L79.2733 69.2111C85.1316 60.5773 86.6906 48.9759 83.339 38.9565C82.3731 36.0692 80.2492 31.8413 78.7245 29.7708C77.7426 28.4374 77.72 28.426 76.027 28.4148C74.369 28.4039 74.2731 28.3596 72.7046 26.8801C71.8163 26.0422 70.5982 24.9584 69.9976 24.4717L68.9058 23.5867L70.0657 21.0641C70.8786 19.2961 71.3349 18.6051 71.5909 18.754C72.7665 19.4377 75.7432 22.0229 77.6363 24.0044C82.4594 29.0527 85.7626 35.4845 87.3141 42.8487C88.0306 46.2495 88.0312 53.5991 87.3152 57.005C84.3856 70.9422 74.6703 81.8339 61.4399 86.0134C58.4184 86.9679 54.4776 87.6541 54.4776 87.2258Z" fill="white"/>
<path d="M40.7878 94.0363C40.8775 93.5877 41.2967 91.8001 41.7195 90.0639L42.488 86.9071L43.8604 86.8191C44.719 86.764 45.2326 86.85 45.2326 87.0488C45.2326 87.3786 40.9226 94.852 40.7324 94.852C40.6731 94.852 40.698 94.4849 40.7878 94.0363Z" fill="white"/>
<path d="M85.1513 94.8488L82.79 92.5346V87.6262V82.7178H87.78H92.7699L95.2129 85.1735L97.6558 87.6291H92.823H87.9903V92.396C87.9903 95.0178 87.8828 97.1629 87.7514 97.1629C87.6201 97.1629 86.45 96.1216 85.1513 94.8488Z" fill="white" fill-opacity="0.501961"/>
<path d="M12.0092 92.6067V87.6291H7.17649H2.34375L4.78667 85.1735L7.22959 82.7178H12.2195H17.2095V87.5629V92.4081L14.6094 94.9962L12.0092 97.5843V92.6067Z" fill="white" fill-opacity="0.501961"/>
</svg>
