<svg width="100" height="100" viewBox="0 0 100 100" fill="none" xmlns="http://www.w3.org/2000/svg">
<path d="M48.6495 76.4497L50.2434 73.3489L96.1952 97.6563L48.6495 76.4497ZM56.1691 63.6687C56.6777 62.9691 57.8516 59.9702 58.7033 60.2739L96.1952 81.7839L56.1691 63.6687ZM3.80469 50.2403L40.934 68.3282L40.2105 71.8387L3.80469 50.2403ZM64.033 50.9058L65.6687 47.8944L96.1952 65.5836L64.033 50.9058ZM37.1263 54.0899L43.077 54.1515L42.5516 56.8328L37.1263 54.0899ZM3.80469 34.1664L30.4318 46.4325L29.4942 49.9892L3.80469 34.1664ZM59.645 32.3201L61.7111 28.6838L96.1952 49.6319L59.645 32.3201ZM3.80469 18.2488L35.7848 32.4571L34.1263 36.1625L3.80469 18.2488ZM3.80469 2.34375L40.6589 18.34L39.204 22.0123L3.80469 2.34375Z" fill="white" fill-opacity="0.501961"/>
<path d="M47.6052 51.1875H32.4365L44.3344 16.791H63.6522L52.0753 40.8432H64.9875L39.8757 85.1109L47.6052 51.1875Z" fill="white"/>
</svg>
