<svg width="100" height="100" viewBox="0 0 100 100" fill="none" xmlns="http://www.w3.org/2000/svg">
<path d="M49.8821 2.34571C49.1605 2.34571 48.4329 2.59916 47.8526 3.09744L47.8516 3.09815L47.8507 3.09911C39.5797 10.2336 16.2363 23.0896 11.7432 25.1414C10.7614 25.5863 10.1374 26.5822 10.1567 27.6556V27.6575C10.4398 41.9101 17.2123 56.7526 24.6887 68.6554L26.8535 67.2953C19.5207 55.6211 12.982 41.1237 12.7129 27.6091C12.7118 27.5422 12.7427 27.4952 12.7989 27.4698L12.8003 27.469L12.8018 27.4684C17.6751 25.2432 40.5713 12.754 49.521 5.03462L49.5199 5.03584C49.6274 4.94349 49.7524 4.90158 49.8835 4.90158C50.0146 4.90158 50.1396 4.9436 50.2471 5.03584C59.201 12.758 82.3407 25.2761 87.2042 27.4963L87.2053 27.4967C87.2649 27.5239 87.2889 27.5644 87.2875 27.624V27.6262C87.0198 41.209 81.5408 56.2501 74.1594 67.9611L76.322 69.3241C83.8466 57.386 89.5606 42.003 89.8438 27.68C89.8677 26.6046 89.2377 25.6123 88.2646 25.1691C83.7849 23.124 60.1897 10.2345 51.9151 3.09714L51.9142 3.09619L51.9132 3.09548C51.333 2.59719 50.6053 2.34375 49.8837 2.34375L49.8821 2.34571ZM33.4591 76.8886L31.4142 78.4228C35.6839 84.1133 39.8503 88.8305 43.0952 92.1432C44.7176 93.7995 46.1069 95.1027 47.1831 96.0145C47.7212 96.4704 48.1777 96.8274 48.5746 97.0955C48.7731 97.2295 48.9545 97.3417 49.1526 97.439C49.3508 97.5363 49.5302 97.6562 49.9863 97.6562C50.4383 97.6562 50.6177 97.5377 50.8145 97.4415C51.0113 97.3454 51.1914 97.2345 51.3877 97.1024C51.7803 96.8382 52.2305 96.4872 52.7613 96.0387C53.8228 95.1415 55.1925 93.8592 56.7929 92.2295C59.9936 88.9701 64.1068 84.3271 68.3355 78.7199L66.2943 77.1806C62.1372 82.6929 58.0859 87.2637 54.9686 90.4381C53.4099 92.0254 52.0817 93.265 51.1108 94.0856C50.6362 94.4867 50.2516 94.7809 49.9859 94.9613C49.7153 94.7774 49.3205 94.4746 48.8358 94.064C47.8499 93.2286 46.5023 91.9676 44.9217 90.354C41.7605 87.1268 37.6564 82.4827 33.4591 76.8886Z" fill="white" fill-opacity="0.447447"/>
<path d="M19.6768 29.6201L22.3335 42.6432L31.3454 41.2367L33.2728 46.9668L32.8561 39.0488H23.9483L19.6768 29.6201Z" fill="white"/>
<path d="M80.7562 29.6201L78.0995 42.6432L69.0876 41.2367L67.1602 46.9668L67.5769 39.0488H76.4847L80.7562 29.6201Z" fill="white"/>
<path d="M43.8467 33.2666H56.0363V46.1855L43.8467 46.1856V33.2666Z" fill="white"/>
<path d="M32.9117 64.5117C32.3597 64.5132 31.8623 64.71 31.559 65.1709L29.6806 67.6762L29.8276 69.7387L23.3819 78.542L22.019 78.8001L19.7348 81.0467L21.1142 83.0215L20.8482 83.483H19.9884L19.2055 82.2033C18.9736 81.8626 18.2648 82.3023 18.478 82.6238L19.2192 83.957H25.2786L25.739 83.4967L25.4632 83.2203L25.0763 83.6254C24.7067 83.9066 24.3916 83.1554 24.6712 82.7782L26.0341 81.3048L25.776 79.6103L32.3328 70.7329L33.8062 70.4754L35.5741 67.9337C36.714 66.2635 34.5677 64.5076 32.9117 64.5117ZM33.1196 65.5305C33.323 65.5304 33.5244 65.5705 33.7123 65.6483C33.9002 65.7261 34.0709 65.8402 34.2147 65.984C34.3585 66.1278 34.4726 66.2985 34.5504 66.4864C34.6282 66.6743 34.6682 66.8757 34.6682 67.0791C34.6681 67.4897 34.5049 67.8835 34.2145 68.1738C33.9241 68.4641 33.5303 68.6271 33.1196 68.6271C32.7091 68.627 32.3154 68.4639 32.0251 68.1736C31.7348 67.8833 31.5717 67.4896 31.5716 67.0791C31.5715 66.6684 31.7346 66.2746 32.0249 65.9842C32.3152 65.6938 32.709 65.5306 33.1196 65.5305ZM23.0873 79.9351C23.6811 79.9351 24.1625 80.4164 24.1624 81.0102C24.1625 81.604 23.6811 82.0854 23.0873 82.0854C22.4935 82.0854 22.0121 81.604 22.0122 81.0102C22.0121 80.4164 22.4935 79.9351 23.0873 79.9351Z" fill="white"/>
<path d="M66.4609 64.5117C67.0129 64.5128 67.5103 64.71 67.8135 65.1709L69.692 67.6762L69.545 69.7387L75.9907 78.542L77.3536 78.8001L79.6377 81.0467L78.2584 83.0215L78.5244 83.483H79.3842L80.1671 82.2033C80.399 81.8626 81.1078 82.3023 80.8946 82.6238L80.1534 83.957H74.094L73.6336 83.4967L73.9094 83.2203L74.2963 83.6254C74.6659 83.9066 74.981 83.1554 74.7014 82.7782L73.3385 81.3048L73.5966 79.6103L67.0398 70.7329L65.5664 70.4754L63.7984 67.9337C62.6586 66.2635 64.8049 64.5075 66.4609 64.5117ZM66.253 65.5304C66.0496 65.5304 65.8482 65.5705 65.6603 65.6483C65.4724 65.7261 65.3017 65.8402 65.1579 65.984C65.0141 66.1278 64.9 66.2985 64.8222 66.4864C64.7444 66.6743 64.7043 66.8757 64.7044 67.0791C64.7045 67.4897 64.8677 67.8835 65.1581 68.1738C65.4485 68.4641 65.8423 68.6271 66.253 68.6271C66.6635 68.627 67.0572 68.4639 67.3475 68.1736C67.6378 67.8833 67.8009 67.4896 67.801 67.0791C67.8011 66.6684 67.638 66.2746 67.3477 65.9842C67.0574 65.6938 66.6636 65.5305 66.253 65.5304ZM76.2853 79.9351C75.6915 79.9351 75.2101 80.4164 75.2102 81.0102C75.2101 81.604 75.6915 82.0854 76.2853 82.0854C76.8791 82.0854 77.3604 81.604 77.3604 81.0102C77.3604 80.4164 76.8791 79.9351 76.2853 79.9351Z" fill="white"/>
<path d="M36.945 67.5693C37.0686 68.443 36.9373 69.2288 36.0596 69.7572L36.9974 73.5598L38.5078 74.836C40.0546 76.213 43.3857 73.3666 41.6854 71.7628L36.945 67.5693ZM39.9015 72.0813C40.1865 72.0812 40.4599 72.1944 40.6615 72.3959C40.8631 72.5974 40.9764 72.8708 40.9766 73.1558C40.9766 73.297 40.9488 73.4368 40.8948 73.5673C40.8407 73.6977 40.7615 73.8162 40.6617 73.9161C40.5619 74.0159 40.4433 74.0951 40.3129 74.1491C40.1825 74.2032 40.0426 74.231 39.9015 74.231C39.7603 74.231 39.6205 74.2032 39.49 74.1491C39.3596 74.0951 39.241 74.0159 39.1412 73.9161C39.0414 73.8162 38.9622 73.6977 38.9082 73.5673C38.8541 73.4368 38.8263 73.297 38.8263 73.1558C38.8265 72.8708 38.9398 72.5974 39.1414 72.3959C39.343 72.1944 39.6164 72.0812 39.9015 72.0813Z" fill="white"/>
<path d="M62.4861 67.5693C62.3625 68.443 62.4938 69.2288 63.3715 69.7572L62.4337 73.5598L60.9232 74.836C59.3765 76.213 56.0454 73.3666 57.7457 71.7628L62.4861 67.5693ZM59.5296 72.0813C59.2446 72.0812 58.9712 72.1944 58.7696 72.3959C58.5679 72.5974 58.4546 72.8708 58.4545 73.1558C58.4545 73.297 58.4823 73.4368 58.5363 73.5673C58.5903 73.6977 58.6695 73.8162 58.7694 73.9161C58.8692 74.0159 58.9877 74.0951 59.1182 74.1491C59.2486 74.2032 59.3884 74.231 59.5296 74.231C59.6708 74.231 59.8106 74.2032 59.941 74.1491C60.0715 74.0951 60.19 74.0159 60.2898 73.9161C60.3897 73.8162 60.4689 73.6977 60.5229 73.5673C60.5769 73.4368 60.6047 73.297 60.6047 73.1558C60.6046 72.8708 60.4913 72.5974 60.2896 72.3959C60.088 72.1944 59.8146 72.0812 59.5296 72.0813Z" fill="white"/>
<path d="M44.3034 67.5169C43.7868 67.3565 43.2659 67.615 42.8969 67.9597L40.748 69.8741C41.8393 70.5072 42.7896 71.2595 42.988 72.648L46.2047 69.6918C46.9614 68.8332 46.3406 67.4669 45.3843 67.4648C46.4645 68.7502 45.8523 69.7141 44.7198 69.74C43.647 69.7444 43.0187 68.2867 44.3034 67.5169Z" fill="white"/>
<path d="M55.1091 67.5169C55.6257 67.3565 56.1466 67.615 56.5156 67.9597L58.6644 69.8741C57.5732 70.5072 56.6229 71.2595 56.4245 72.648L53.2078 69.6918C52.4511 68.8332 53.0719 67.4669 54.0282 67.4648C52.948 68.7502 53.5602 69.7141 54.6927 69.74C55.7655 69.7444 56.3938 68.2867 55.1091 67.5169Z" fill="white"/>
<path d="M44.0652 66.6078H55.576V64.2871L57.4177 62.4639H42.1865L44.0652 64.2871V66.6078Z" fill="white"/>
<path d="M46.7647 47.8256L42.128 50.8732C40.8236 51.7541 40.7555 52.9127 42.128 53.6599L47.077 56.0825L42.1286 59.0778C41.4965 59.5327 42.1672 60.897 42.1286 61.6041H44.733V61.0833L49.4734 57.7753C49.7055 57.5678 50.1175 57.5951 50.3588 57.7753L54.865 61.0309V61.6041H57.4175C57.3886 60.831 58.2065 59.8782 57.4175 59.3513L52.4948 55.9259L57.5736 53.4258C58.5507 52.97 58.6179 51.6754 57.5736 51.0294L52.8332 47.878C52.2529 47.5416 51.6379 47.3773 50.9838 47.4091C51.1925 49.5308 48.1204 49.5449 48.5093 47.4091C47.9003 47.3243 47.2066 47.5611 46.7647 47.8256ZM49.7377 49.2397L53.9921 52.0025L49.7377 54.3784L45.5751 52.0025L49.7377 49.2397ZM42.8471 51.3513C43.3352 51.3512 43.7309 51.7469 43.7308 52.235C43.7305 52.7228 43.3349 53.1182 42.8471 53.1181C42.3592 53.1182 41.9636 52.7228 41.9634 52.235C41.9633 51.7469 42.359 51.3512 42.8471 51.3513ZM56.7401 51.3513C57.2282 51.3512 57.6239 51.7469 57.6238 52.235C57.6235 52.7228 57.2279 53.1182 56.7401 53.1181C56.2522 53.1182 55.8566 52.7228 55.8564 52.235C55.8563 51.7469 56.252 51.3512 56.7401 51.3513ZM49.76 55.0427C50.2476 55.043 50.6429 55.4382 50.6431 55.9259C50.6432 56.4137 50.2478 56.8093 49.76 56.8096C49.2719 56.8097 48.8762 56.414 48.8763 55.9259C48.8765 55.438 49.2721 55.0426 49.76 55.0427Z" fill="white"/>
<path d="M42.7574 46.1855V35.8511H38.7792C38.095 35.8119 37.4321 36.2461 37.6742 36.9009C38.07 38.3431 37.2784 38.0643 37.0664 37.4902L37.5821 40.8054L41.8733 45.4465C42.1806 45.7952 42.4139 46.1082 42.7574 46.1855Z" fill="white"/>
<path d="M57.1514 46.1855V35.8511H61.1295C61.8137 35.8119 62.4767 36.2461 62.2346 36.9009C61.8387 38.3431 62.6303 38.0643 62.8423 37.4902L62.3267 40.8054L58.0354 45.4465C57.7281 45.7952 57.4949 46.1082 57.1514 46.1855Z" fill="white"/>
<path d="M35.0693 34.5945L42.9613 32.1982C43.2089 33.0656 41.2219 33.6487 39.1846 34.2819C37.5577 34.7746 35.585 35.357 35.0693 34.5945Z" fill="white"/>
<path d="M34.418 30.5052L41.2941 28.4736L41.6067 29.6978L34.8347 31.7294L34.418 30.5052Z" fill="white"/>
<path d="M33.2383 26.2738L40.1145 24.2422L40.427 25.4664L33.655 27.4979L33.2383 26.2738Z" fill="white"/>
<path d="M32.0566 23.4194L39.3499 21.2646C38.7569 20.7907 37.8384 20.1428 36.882 20.2884L33.4748 21.3014C32.7722 21.6257 32.1927 22.8584 32.0566 23.4194Z" fill="white"/>
<path d="M32.9863 19.929L36.6422 18.7871L36.8632 19.3857L33.1797 20.546L32.9863 19.929Z" fill="white"/>
<path d="M64.9219 34.5945L57.0299 32.1982C56.7823 33.0656 58.7693 33.6487 60.8066 34.2819C62.4335 34.7746 64.4062 35.357 64.9219 34.5945Z" fill="white"/>
<path d="M65.5732 30.5052L58.6971 28.4736L58.3845 29.6978L65.1565 31.7294L65.5732 30.5052Z" fill="white"/>
<path d="M66.7539 26.2738L59.8777 24.2422L59.5652 25.4664L66.3372 27.4979L66.7539 26.2738Z" fill="white"/>
<path d="M67.9346 23.4194L60.6413 21.2646C61.2343 20.7907 62.1528 20.1428 63.1092 20.2884L66.5164 21.3014C67.219 21.6257 67.7985 22.8584 67.9346 23.4194Z" fill="white"/>
<path d="M67.0049 19.929L63.349 18.7871L63.128 19.3857L66.8115 20.546L67.0049 19.929Z" fill="white"/>
</svg>
