<svg width="100" height="100" viewBox="0 0 100 100" fill="none" xmlns="http://www.w3.org/2000/svg">
<path d="M52.9085 34.1332L61.1338 25.7578H50.8047L51.2246 26.5701C51.7163 27.5209 52.3026 32.4819 51.9622 32.8115L52.0131 33.4515C52.1115 33.4757 52.124 33.5909 52.1245 33.7186C52.3523 33.882 52.5791 34.0379 52.9085 34.1332Z" fill="white" fill-opacity="0.5"/>
<path d="M54.7038 72.2254C55.1505 71.7685 55.5772 71.2017 55.6521 70.9659C55.7269 70.7301 56.1821 70.3493 56.6637 70.1197L57.5393 69.7021L60.8634 72.9525H53.8916L54.7038 72.2254Z" fill="white" fill-opacity="0.5"/>
<path d="M47.3782 89.0009C46.4205 88.767 45.4504 88.4207 45.2224 88.2315C44.1885 87.3734 45.253 86.0401 47.3271 85.5953C48.1597 85.4167 48.866 85.0706 49.2137 84.6708C49.5193 84.3192 49.8877 84.0317 50.0324 84.0317C50.5162 84.0317 50.3042 83.532 49.0542 81.7263C46.9299 78.6576 46.1927 77.9404 45.3382 78.1113C44.6958 78.2398 44.5747 78.1654 44.4276 77.5525C44.3342 77.1636 43.9064 76.3491 43.4768 75.7425L42.6958 74.6396L43.4251 74.474C43.8263 74.3829 45.0364 74.0395 46.1144 73.7109C50.1119 72.4924 52.0748 72.3025 51.3242 73.2069C51.0881 73.4914 51.1654 73.8483 51.6742 74.8214C52.0335 75.5084 52.5644 76.8329 52.8541 77.7646C53.1437 78.6963 54.0254 80.8109 54.8134 82.4638C56.4695 85.9377 56.7688 87.3749 56.0067 88.193C55.6569 88.5685 55.1777 88.7354 54.4492 88.7354C53.8704 88.7354 53.1938 88.844 52.9456 88.9769C52.1037 89.4275 49.1761 89.4401 47.3782 89.0009Z" fill="white"/>
<path d="M37.4512 60.513C37.5012 60.1537 37.6824 59.4481 37.8535 58.9451C38.1014 58.2161 38.0939 57.8979 37.8167 57.3772C37.2 56.2187 37.5422 54.439 38.6252 53.1738C39.522 52.1261 39.5536 52.0302 39.1481 51.5822C38.6485 51.0302 36.4184 50.9517 34.2243 51.4088C31.4521 51.9863 28.69 51.755 25.262 50.6585C22.984 49.9298 22.1634 49.5406 21.6688 48.9528C20.9907 48.1469 20.8333 46.9039 21.2726 45.8262C21.4072 45.496 21.5922 44.7672 21.6837 44.2066C21.7835 43.5956 22.1484 42.8891 22.5948 42.4427C23.6075 41.4299 24.9524 41.4456 27.2005 42.4967C28.3083 43.0146 29.0163 43.2113 29.2147 43.0556C29.7564 42.6305 30.9033 42.4742 31.5838 42.7329C32.6014 43.1198 32.6296 42.6704 31.7017 40.8591C30.7915 39.0826 30.6145 37.2964 31.0689 34.4746L31.2852 33.1307L30.4477 32.9465C29.9527 32.8378 29.2177 32.3274 28.6509 31.699C28.1233 31.1141 27.2519 30.1818 26.7147 29.627C26.1775 29.0722 25.6675 28.2982 25.5813 27.9068C25.4951 27.5153 25.3977 27.084 25.365 26.9482L2.34375 49.514L25.8741 72.9523H34.6775L34.506 72.4679C34.1038 71.0874 34.0491 70.163 34.323 69.3772C34.5383 68.7595 34.5382 68.283 34.3226 67.5636C34.0851 66.7709 34.1135 66.3367 34.4738 65.2519C34.3526 64.1298 34.9898 63.799 35.6074 63.4477C37.2481 62.9056 37.0036 61.5622 37.4512 60.513Z" fill="white" fill-opacity="0.5"/>
<path d="M51.9868 21.526L60.0061 19.2998L57.7425 20.7955H97.6558V22.099H57.8042L60.0061 23.9009L51.9868 21.526Z" fill="white"/>
<path d="M81.6957 47.835L79.0401 49.2762H97.6561V50.8442H79.0401L81.6957 52.6482L72.7754 49.9363L81.6957 47.835Z" fill="white"/>
<path d="M29.6514 10.6768L29.2172 11.0218L34.7729 16.6035C34.6147 16.5989 34.2575 16.4224 33.9785 16.2114C32.9059 15.4001 29.1918 16.1024 27.587 17.42C26.7217 18.1304 26.488 20.3018 27.193 21.0809C27.4808 21.3989 27.7095 22.1075 27.7565 22.8281C27.8 23.495 27.9854 24.2802 28.1688 24.5727C28.3735 24.8994 28.4334 25.4067 28.3238 25.8882C28.0036 27.2943 28.0531 27.5869 28.6124 27.5869C28.9482 27.5869 29.2408 27.8477 29.4129 28.3004C29.562 28.6927 29.7645 29.075 29.8633 29.1498C29.9621 29.2246 30.176 29.5205 30.3386 29.8079C30.5287 30.1441 30.855 30.3053 31.2532 30.2591C32.4518 30.1202 33.6091 30.1514 33.785 30.3275C34.0663 30.6091 33.9076 34.7971 33.5933 35.3844C33.1025 36.3015 33.2424 38.6681 33.8319 39.4175C34.1194 39.7829 34.3549 40.1764 34.3549 40.2921C34.3549 40.4077 34.8357 40.9923 35.4234 41.5911L36.4923 42.6802L34.2285 44.0469C32.426 45.1357 31.8118 45.3834 31.2105 45.2631C30.7952 45.1801 30.3848 45.226 30.2989 45.365C30.0227 45.812 29.7577 45.638 29.3224 44.7252C28.8004 43.6305 28.0227 43.3355 27.156 43.9033C26.549 44.3011 26.5154 44.2956 26.5155 43.7945C26.5155 43.4017 26.3434 43.2658 25.847 43.2658C25.3831 43.2658 24.7808 43.682 23.8749 44.6267C22.7433 45.807 22.5805 46.1096 22.648 46.913C22.7213 47.7847 22.8474 47.9004 24.7858 48.8843L26.8449 49.9295L30.5344 49.9215C33.1062 49.916 35.4313 49.7244 38.2082 49.289C40.3994 48.9453 42.2788 48.7512 42.3848 48.8572C42.4908 48.9632 42.5748 49.7181 42.5719 50.535C42.5666 51.8789 42.4487 52.1864 41.3347 53.7691C40.0346 55.616 39.8562 56.181 40.4956 56.4264C41.0376 56.6344 40.9863 57.5887 40.3242 59.6055L39.7611 61.3211V61.2943H23.1966L26.1841 59.4746L18.0645 61.8192L26.1841 64.4094L23.1966 62.4495H39.6084L39.5065 63.2053C39.4347 63.3926 39.1703 64.2781 38.919 65.1736C38.4985 66.6723 38.4386 66.7545 38.1658 66.2074C37.7689 65.4113 37.0585 65.3034 36.8358 66.005C36.6485 66.5952 36.947 67.586 37.8039 69.2189C38.3623 70.2829 38.281 70.7293 37.6276 70.187C37.3196 69.9314 37.1447 69.926 36.8565 70.1653C36.1771 70.7291 36.8677 71.9405 38.3697 72.8199C39.5557 73.5143 39.8792 73.589 41.1491 73.4604C44.1383 73.1579 49.4794 71.9441 50.4125 71.3552C50.7072 71.1692 51.3601 70.9328 51.8631 70.8303C53.0305 70.5922 53.4801 70.2256 53.3 69.6579C53.1023 69.035 56.0944 67.4994 58.597 66.9395C60.4771 66.519 60.5044 66.5204 61.286 67.0983C61.8101 67.4859 62.1711 68.0614 62.3595 68.8097C62.6831 70.095 63.3826 70.7043 64.5354 70.7043C65.1764 70.7043 65.4279 70.5276 65.8192 69.8011C66.2692 68.9654 66.2809 68.7087 65.973 66.383C65.7173 64.451 65.5275 63.7987 65.1538 63.5653L64.8148 62.4384L97.6561 61.8192L64.4728 61.3005L64.2376 60.5187C63.9949 59.3053 63.5574 59.0835 62.1728 59.4712C61.5212 59.6536 60.565 60.1391 60.048 60.55C59.2061 61.219 58.9074 61.2966 57.1842 61.2966C56.126 61.2966 55.2602 61.2517 55.2602 61.1966C55.2602 61.1415 56.2302 60.3906 57.4159 59.528C60.796 57.0693 60.6546 57.5516 59.1597 53.5881C58.455 51.7197 57.7549 49.8128 57.7534 49.5863C58.4959 46.4831 64.7315 47.0343 64.2292 46.222L59.698 38.8934L53.8577 38.0062L53.5588 39.1663C53.4864 39.4472 54.6015 39.6297 54.2948 40.5081C54.1929 40.7998 53.8344 40.3098 53.7943 40.3371C53.6374 40.4389 53.4567 40.6862 53.3924 40.8864C53.292 41.1987 51.3405 38.3065 51.3405 37.8455L50.9863 36.4912L53.0099 37.4435L50.8312 35.7852L97.6561 35.0549L50.6828 34.1056L53.0099 32.7382L50.3239 33.7334L49.3562 29.8194L49.1783 27.7408L47.2784 25.8347C46.2334 24.7864 45.262 23.9283 45.1196 23.9283L37.1851 16.0889L36.7325 16.425L44.2481 24.5456L29.6514 10.6768ZM37.7875 19.5169C37.9239 19.5568 38.4071 20.0244 39.4397 21.0477C40.5237 22.122 41.4106 23.0329 41.4106 23.0725C41.4106 23.1119 40.9339 23.1446 40.3517 23.1446C39.3698 23.1446 39.266 23.0736 38.9156 22.1647C38.7078 21.6257 38.2968 20.714 38.0028 20.1392C37.785 19.7133 37.6815 19.4859 37.7875 19.5169ZM51.1931 62.6167C51.4897 62.6242 50.968 62.9166 50.0338 63.266C49.0996 63.6155 48.2763 63.8969 48.2045 63.8917C47.7992 63.8625 50.7458 62.6054 51.1931 62.6167Z" fill="white"/>
<path d="M66.5737 25.7575L57.7637 34.2969C59.1778 34.8036 60.2938 35.496 59.7187 37.2418L60.0157 37.5883C61.3049 37.0461 63.0917 38.0182 62.9853 39.9393L66.054 44.2453C67.623 46.1414 67.3308 47.711 65.1383 48.9472L60.5849 50.3578L62.9111 56.6931C66.4115 56.9146 66.6422 59.4106 67.2171 61.6673L67.6625 62.6572C68.5899 65.4391 70.58 70.1871 66.0787 72.9521H89.1431L65.6085 49.5412L89.3905 25.6602L66.5737 25.7575Z" fill="white" fill-opacity="0.5"/>
</svg>
