<svg width="100" height="100" viewBox="0 0 100 100" fill="none" xmlns="http://www.w3.org/2000/svg">
<path d="M35.1152 42.1464V39.1352C35.308 36.8545 36.3567 34.5503 37.5698 33.4201C38.962 31.9825 38.1923 29.1639 38.2416 25.1702L40.8353 24.1797C43.5933 27.3107 42.958 27.6945 45.1201 27.731H58.4267C60.529 24.0322 60.5245 23.8364 63.6973 24.8316C63.6187 26.9064 63.0617 32.3419 64.2529 33.4083C66.8155 36.1115 66.3057 38.874 66.3797 42.1465L35.1152 42.1464Z" fill="white"/>
<path d="M19.4705 34.1992C20.8466 -1.67619 74.4445 2.08771 76.5884 25.2735C89.6787 23.6901 96.3342 38.9101 92.2994 48.0619C94.5673 50.2411 96.4379 53.1144 97.6563 55.5054H68.938C68.9733 52.1564 69.3211 45.7908 67.6086 44.3635C68.8298 43.0861 68.5067 41.1824 68.5059 39.63C68.4668 36.8206 68.1615 33.7109 66.1346 31.7996C64.1972 28.7032 66.9961 23.7799 63.0641 22.076C60.3426 20.8724 59.2413 21.2443 57.2848 24.0275L56.3358 25.3777H45.4164C44.2658 24.1841 43.2425 22.459 41.7056 21.7693C40.0275 21.3308 37.7083 22.0797 36.3402 23.4444C34.3962 25.7701 37.343 29.2352 34.6849 32.3369C32.2987 35.0329 31.471 41.7948 33.7272 44.4422C32.6975 46.93 32.6806 50.7915 32.5573 55.5054H2.34375C2.47986 43.5178 11.4599 34.9614 19.4705 34.1992Z" fill="white" fill-opacity="0.501961"/>
<path d="M35.1152 46.126V56.7844H41.637L36.2117 68.8014H35.1152V92.4547H66.3797V68.8014H59.6221L64.9502 56.7844H66.3797V46.126H35.1152ZM51.2877 56.7844L45.702 68.8014H38.5496L44.1711 56.7844H51.2877ZM61.5427 56.7844L56.0861 68.8014H49.0419L54.5843 56.7844H61.5427Z" fill="white"/>
</svg>
