<svg width="100" height="100" viewBox="0 0 100 100" fill="none" xmlns="http://www.w3.org/2000/svg">
<path d="M18.6335 66.6589L17.1883 54.6549L23.0627 59.5504C25.0312 73.6058 29.6899 76.7216 34.7542 70.3613L44.5788 80.4525C44.5342 96.06 57.2599 95.6356 57.2044 80.4525L69.185 68.8176C73.8804 71.747 75.9198 65.0067 75.8768 60.7363L83.3572 54.6549L81.8249 66.6589L50.9291 97.6566L18.6335 66.6589ZM34.7542 66.0771L34.7541 55.5305L36.7979 52.0434L39.8006 55.0088C39.6915 60.2284 39.6638 60.1883 41.0392 63.2836L44.6602 70.0625L44.5788 75.8784L34.7542 66.0771ZM57.1178 70.0625L60.6452 63.2836L61.7835 61.3023L61.8754 57.5903L61.9674 53.8782L63.1691 52.6989L64.3707 51.5196L65.5536 53.9068C66.7205 56.2616 66.7366 56.3356 66.7432 59.3642C66.7472 61.0528 66.9458 62.9302 67.0121 63.5651L67.2742 66.0771L57.1178 75.8784V70.0625ZM76.6425 54.7736C75.5573 57.6569 77.0565 53.8426 77.5624 52.8741L78.4822 51.1132L78.4658 46.8678C78.4481 42.2632 78.0905 40.7278 76.9513 40.3663C76.6258 40.263 76.3595 40.0902 76.3595 39.9824C76.3595 39.8745 78.7182 37.4314 81.6011 34.5531C86.0417 30.1198 86.8203 28.8672 86.6953 29.5865L84.3214 46.7484L76.6425 54.7736ZM15.9633 46.7484L13.8735 29.5865L20.1781 35.6593L20.4611 48.294L23.0627 53.802L15.9633 46.7484Z" fill="white" fill-opacity="0.501961"/>
<path d="M15.5126 94.0996L25.9766 89.7679L13.293 71.2112L39.0147 94.0996H15.5126ZM61.093 94.0996L86.498 71.2112L73.8208 89.7679L84.2721 94.0996H61.093ZM47.1721 69.6617L42.2542 60.4529V45.8769H45.93C47.8882 45.8769 47.9985 46.6356 49.6495 48.9902H50.6035C50.6035 48.9077 50.5987 46.1584 50.6035 46.0183H51.1696C51.1728 46.1553 51.1696 48.8954 51.1696 48.9902H52.2264C53.7535 46.6304 53.8704 45.8823 55.9847 45.8769H59.6605V60.4529L54.5278 69.6617C54.4909 78.0821 54.7266 87.7132 50.9289 90.6726C46.7298 88.0548 47.0812 78.3965 47.1721 69.6617ZM46.8566 57.9475L46.8274 65.2148C48.5029 65.2013 48.5366 65.2228 48.5714 61.7028C48.5966 57.8641 48.5641 57.9026 46.8566 57.9475ZM55.0003 57.9321C53.6942 57.9416 53.4395 57.9771 53.4461 61.7028C53.4019 65.2418 53.5759 65.2423 55.0003 65.2505L55.0003 57.9321ZM48.5714 53.8388V52.6695H53.4461V53.9432H55.0003V51.5638C54.9869 50.1173 54.9922 50.1195 53.6902 50.1223H48.5714C46.8706 50.1532 46.8654 50.1279 46.8566 51.5638V53.8682L48.5714 53.8388ZM50.1498 2.34375H51.5946V43.4711H50.1498V2.34375ZM70.6986 7.1995H71.8864L72.0074 39.0841H70.6987L70.6986 7.1995ZM29.9934 9.64905L29.9871 34.0122L28.8103 33.9896L28.8103 9.64906L29.9934 9.64905Z" fill="white"/>
<path d="M69.2272 55.6142L66.4536 50.4207V42.2002H68.5267C69.631 42.2002 69.6932 42.6281 70.6244 43.956H71.1624C71.1624 43.9095 71.1594 42.3589 71.1624 42.28H71.4816C71.4831 42.3572 71.4816 43.9026 71.4816 43.956H72.0776C72.9389 42.6252 73.0048 42.2033 74.1972 42.2002H76.2703V50.4207L73.3756 55.6142C73.3548 60.3631 73.4877 65.7947 71.3459 67.4637C68.9778 65.9874 69.1759 60.5404 69.2272 55.6142ZM69.0492 49.0077L69.0328 53.1062C69.9777 53.0983 69.9967 53.1107 70.0163 51.1256C70.0306 48.9606 70.0119 48.9823 69.0492 49.0077ZM73.642 48.9989C72.9054 49.0041 72.7618 49.0244 72.7655 51.1255C72.7406 53.1214 72.8387 53.1217 73.642 53.1263L73.642 48.9989ZM70.0163 46.6904V46.0309H72.7655V46.7493H73.642V45.4074C73.6341 44.5917 73.6376 44.5929 72.9032 44.5945H70.0163C69.0571 44.6119 69.0542 44.5982 69.0492 45.4074V46.7071L70.0163 46.6904Z" fill="white"/>
<path d="M26.4646 55.0143L22.5864 47.7524V36.2578H25.4851C27.0294 36.2578 27.1163 36.8561 28.4183 38.7129H29.1706C29.1706 38.6479 29.1665 36.4798 29.1706 36.3694H29.617C29.6191 36.4773 29.617 38.6382 29.617 38.7129H30.4504C31.6547 36.852 31.7469 36.2621 33.4142 36.2578H36.3129V47.7524L32.2653 55.0143C32.2362 61.6547 32.4221 69.2497 29.4272 71.5834C26.1159 69.5191 26.393 61.9026 26.4646 55.0143ZM26.2159 45.7766L26.1928 51.5075C27.5141 51.4965 27.5407 51.5134 27.5681 48.738C27.588 45.7108 27.5619 45.7412 26.2159 45.7766ZM32.6379 45.7644C31.6079 45.7718 31.4071 45.8 31.4122 48.7379C31.3775 51.5287 31.5146 51.5292 32.6379 51.5356L32.6379 45.7644ZM27.5681 42.5364V41.6143H31.4122V42.6187H32.6379V40.7425C32.6268 39.6018 32.6317 39.6035 31.6048 39.6057H27.5681C26.2269 39.6301 26.2228 39.6109 26.2159 40.7425V42.5597L27.5681 42.5364Z" fill="white"/>
</svg>
