<svg width="100" height="100" viewBox="0 0 100 100" fill="none" xmlns="http://www.w3.org/2000/svg">
<path d="M5.85204 78.1761C6.75272 77.6013 6.92882 77.3283 6.92882 76.5063C7.46925 70.7344 14.0867 70.173 16.9642 74.2622L25.9519 72.4494C27.1145 72.2029 26.9636 72.8196 25.4187 74.6296C22.4744 78.0788 22.578 77.8425 22.578 81.1129C22.6675 84.7031 21.5721 86.4336 18.1619 86.8777C14.7934 86.5974 18.4874 88.4954 13.195 91.0786C3.8141 94.3884 -0.255401 81.9803 5.85204 78.1761ZM88.4203 91.7342C86.4422 91.2081 84.8472 90.0286 83.9565 88.4332C83.2228 87.1191 83.0936 87.0264 81.779 86.8707C77.5175 85.9991 77.4259 83.8949 77.4218 81.1129C78.2331 77.3513 74.088 74.3322 73.3325 72.495L83.0357 74.2622C86.0545 69.6792 92.955 71.5245 93.071 76.5063C93.071 77.3283 93.2471 77.6013 94.1478 78.1761C101.746 83.6416 94.4203 93.1042 88.4203 91.7342Z" fill="white" fill-opacity="0.501961"/>
<path d="M53.8762 92.6051C46.3815 92.7067 43.4341 89.321 44.8107 83.3619C46.2832 76.9499 57.0877 78.0465 57.0298 84.1862C56.5811 87.2991 56.2676 87.1555 59.0447 87.5936C63.2089 88.3227 67.3607 90.624 68.9484 94.4737L65.4006 97.3007C62.072 93.1056 58.8063 92.4987 53.8762 92.6051ZM33.3457 77.1356C33.1597 75.7936 33.4529 68.9981 34.4969 65.8364C34.7372 64.609 39.8692 64.5243 39.7971 65.1339L37.9162 81.2286L33.3457 77.1356ZM62.1147 65.9197C62.0194 64.5763 67.1228 64.4783 67.341 65.3116C67.7706 69.3006 69.2643 76.2031 68.0003 77.46C68.0003 77.46 65.1387 80.7595 63.9407 81.1705L62.1147 65.9197ZM41.674 77.3804C41.6755 76.3894 42.7362 67.0623 42.9522 66.1411C45.7546 61.2355 56.5621 60.8765 59.0208 66.1411L60.1687 77.3804C60.2199 79.6114 55.9755 78.732 54.9499 78.3574C52.8666 77.5656 49.1374 77.5656 47.1284 78.3575C45.6416 78.7465 41.6969 79.7185 41.674 77.3804ZM43.1364 62.451C42.3156 61.5773 42.5821 60.983 44.4253 59.5756C46.4887 58.0001 48.0723 57.6058 51.8545 57.7259C55.0675 57.8279 55.1176 57.8402 56.6654 58.9061C59.542 60.8874 60.0453 61.8915 58.6106 62.7874C57.9073 63.2266 57.2756 62.954 55.67 61.5184L54.5924 60.5548H47.4027L46.1888 61.6659C44.554 63.1622 43.9504 63.3174 43.1364 62.451ZM27.525 59.4793C24.8274 52.5486 25.414 46.4133 25.2324 39.0126C27.8031 31.7585 72.1388 30.6128 76.7039 38.9435C76.5305 45.6842 77.5945 58.0233 72.4838 60.6884C65.8797 62.6946 60.1583 60.5359 55.4721 56.822H46.4906C42.4517 60.4553 33.597 64.2723 27.525 59.4793ZM45.262 55.5299H56.7476L58.1833 56.3801C58.973 56.8478 60.2328 57.7108 60.983 58.298C62.5081 59.4917 64.8598 60.1427 66.7371 59.8909C68.1823 59.6971 69.3782 58.563 69.9463 56.8474C70.6887 54.6054 71.8985 44.073 71.721 41.3965C71.4546 37.3786 71.1806 37.1821 65.196 36.7161C57.2365 36.0963 43.5473 36.1736 34.5594 36.8892C32.4974 37.0533 32.0711 37.1837 31.3291 37.8768L30.4742 38.6754C30.6024 45.6002 30.5121 58.5175 34.4942 59.7768C38.8081 60.825 42.0625 58.0056 45.262 55.5299ZM53.7984 50.5998C53.4239 50.4491 52.5841 49.0244 52.5841 48.5397C52.5841 48.3718 53.0237 48.3676 53.7406 48.5287C55.1047 48.8352 55.7227 48.569 57.9565 46.7128C60.8173 44.4078 68.0885 40.9473 70.2167 42.7752C70.5448 43.077 69.8943 43.9007 69.3278 43.9007C68.8695 43.9007 64.644 45.7968 64.644 46.0025C64.644 46.0735 65.4839 46.0643 66.5104 45.9819C69.2058 45.7655 69.0831 46.1038 65.3567 49.1626L63.6689 50.5481C62.2466 50.3321 60.7069 50.3226 59.3663 49.782C58.5964 49.4583 58.2578 49.4972 56.579 50.1028C55.687 50.3695 54.4288 50.8619 53.7984 50.5998ZM36.7561 49.2098C32.8851 45.843 32.8566 45.7697 35.4992 45.9818C36.5257 46.0642 37.3656 46.0838 37.3656 46.0253C37.3656 45.7995 33.9884 44.2284 32.8359 43.918C31.7425 43.6236 31.2464 43 31.8382 42.6636C32.2376 42.4365 38.363 43.2454 39.232 43.6401C40.5639 44.2448 43.1156 45.8887 44.5441 47.0623C46.3832 48.5731 46.987 48.8346 48.1374 48.6188C49.275 48.4054 49.4457 48.7898 48.6914 49.8667C48.1387 50.6558 47.1729 50.6851 45.0916 49.976C43.7891 49.5322 43.4004 49.5038 42.6777 49.7996C41.1785 50.2727 39.8627 50.3748 38.3002 50.5528L36.7561 49.2098ZM31.4794 58.5966C30.1718 56.908 28.5902 48.3881 28.88 41.8907L29.0584 40.3114C28.5146 40.8268 27.9204 41.4187 27.848 41.8907C27.5564 47.2398 28.4311 54.4219 30.3405 58.5966C30.7607 59.4814 31.1004 59.6838 31.6987 59.689C32.1438 59.6931 32.1173 59.5605 31.4794 58.5966ZM71.178 59.3345C71.4892 58.9456 72.7223 55.4319 73.2518 53.4251C74.3718 49.1804 74.549 42.4827 73.5731 41.2809C73.146 40.755 73.1123 40.9184 73.0803 43.6724C73.016 49.2187 71.6622 56.5511 70.1622 59.478C69.9753 59.8426 70.8728 59.7158 71.178 59.3345ZM18.6904 39.1494C18.0275 37.7907 15.8574 37.0118 15.8301 35.5588C15.9101 33.8617 20.0383 33.1424 20.1299 31.7185C19.0835 30.3434 16.3229 27.3564 17.7683 26.2224L25.2621 21.4363C34.3872 15.7966 36.2424 4.78045 51.2919 4.45801C66.6024 5.06304 69.4154 16.9367 79.7189 22.7983C85.823 26.1296 86.1186 26.4309 82.7966 30.8658C80.9366 32.9323 85.4285 34.4597 86.8799 35.4876C86.4931 37.1673 84.9396 38.4826 83.771 39.937C83.674 43.2998 84.6528 46.9151 84.9824 50.0687L78.9226 49.7867L78.8574 38.0145L72.2825 33.0473C69.3551 21.3369 59.7065 16.0704 53.1704 23.346C51.4673 25.063 50.9033 24.8562 49.4135 23.346C41.281 16.4009 30.1359 23.2404 29.8165 33.3138L23.0086 38.93L22.6497 49.7717L17.2603 50.1898C18.1864 47.9443 19.1561 41.188 18.6904 39.1494Z" fill="white"/>
</svg>
