<svg width="100" height="100" viewBox="0 0 100 100" fill="none" xmlns="http://www.w3.org/2000/svg">
<path d="M18.4625 73.55C14.0155 72.1284 10.7739 68.8045 9.2565 64.1104C8.6121 62.1169 8.52208 58.5216 9.07476 56.8518C9.42804 55.7845 9.38409 55.6165 8.33513 54.0254C6.97141 51.9569 6.09846 49.6867 5.46043 46.5495C5.19411 45.24 4.8322 43.4621 4.65617 42.5985C3.90769 38.9263 5.08227 33.6793 7.40907 30.3009C9.56296 27.1735 13.7128 24.0543 16.5015 23.4666C17.3188 23.2944 17.5245 23.3945 17.9973 24.1948C18.7655 25.4954 20.625 26.8872 22.3952 27.4866C24.2697 28.1213 25.1041 28.1239 27.3208 27.5019L29.0796 27.0084L32.0293 28.444C33.6516 29.2336 35.181 29.8797 35.4279 29.8797C35.7332 29.8797 35.8037 30.0555 35.6482 30.4292C35.5224 30.7315 35.348 31.6501 35.2606 32.4705C35.1392 33.6095 34.9741 33.9622 34.5622 33.9622C33.7192 33.9622 30.4086 36.2376 29.2041 37.6449C27.8308 39.2493 25.8835 42.5255 25.327 44.1676C23.5049 49.5448 23.4332 49.8805 23.8266 51.1936C24.0357 51.8915 24.5338 52.8575 24.9335 53.3403C25.4853 54.0067 25.6766 54.6632 25.7281 56.0665C25.7867 57.6622 25.6885 58.0272 25.0098 58.7358C22.5949 61.2577 21.8728 67.9975 23.4331 73.4532C23.6251 74.1246 23.5513 74.159 21.9498 74.1429C21.0229 74.1337 19.4536 73.8668 18.4625 73.55ZM79.2833 67.1722C79.2566 63.9395 78.4363 61.0064 77.0516 59.1924C76.1864 58.0589 76.0072 57.5516 76.0072 56.2355C76.0072 54.8268 76.1317 54.5296 77.1064 53.6103C78.1004 52.6729 78.205 52.412 78.1994 50.8835C78.1873 47.5279 75.3305 40.8974 72.4646 37.5732C71.8686 36.882 70.4385 35.7652 69.2865 35.0915C68.1345 34.4178 67.1404 33.7821 67.0773 33.6789L65.5746 29.8797C65.823 29.8797 68.744 29.2336 70.3663 28.444L73.3159 27.0084L75.0747 27.5019C77.2943 28.1247 78.059 28.1209 80.0525 27.4771C82.2519 26.7668 83.9698 25.2029 85.0709 22.9087L85.99 20.9938L87.4875 22.5318C90.5691 25.6967 91.9666 30.5012 91.1201 35.0202C90.7786 36.8431 90.7871 36.8831 91.9011 38.6879C93.1853 40.7686 94.5342 44.2605 94.5392 45.5177C94.541 45.9848 94.768 47.0736 95.0435 47.9372C95.7455 50.1376 95.7429 54.6667 95.0382 57.0445C93.2227 63.1718 88.5337 67.7341 82.4574 69.2854C79.2353 70.108 79.3079 70.1562 79.2833 67.1722ZM38.2626 21.1669C38.2046 20.8657 38.4207 19.8411 38.7429 18.8901C39.885 15.5181 38.753 12.0225 35.8412 9.93061C35.0207 9.34113 34.1761 8.47849 33.9643 8.01363C33.5151 7.02781 33.4301 7.11088 36.5059 5.5293C46.0627 0.615227 57.1004 1.424 66.0762 7.69601L67.9218 8.98568L67.0225 9.61881C63.5444 12.0675 62.2313 16.2324 63.8894 19.5562C64.2624 20.3039 64.2622 21.7145 63.8891 21.7145C63.8279 21.7145 63.1262 21.2552 62.3296 20.6939L60.8814 19.6732H51.0805H41.2796L39.9912 20.6939C38.5001 21.875 38.404 21.9013 38.2626 21.1669Z" fill="white" fill-opacity="0.501961"/>
<path d="M44.76 97.3578C41.5228 97.0054 40.9477 96.7434 40.7711 95.5398C40.6892 94.9824 40.7719 94.5569 40.9673 94.5348L60.6346 94.5732C61.0051 94.5731 61.0908 94.8335 60.9938 95.6643C60.8529 96.8705 61.0223 96.7617 56.6936 97.3578L44.76 97.3578ZM43.9749 92.0413C40.0747 91.6791 36.2166 90.8109 35.2987 90.0889C32.8453 88.1591 31.2593 84.8909 32.538 84.4002H69.7187C69.7087 85.2291 67.8667 88.9466 66.5266 89.9578C64.05 91.8266 52.8276 92.8634 43.9749 92.0413ZM31.4054 82.3254V79.8131H70.3545V82.3254H31.4054ZM30.3086 76.9857C24.5889 73.7623 24.5835 64.2263 28.6598 59.7142H73.0634C77.0596 62.7388 77.0418 76.6863 71.5329 76.9961L30.3086 76.9857ZM28.9007 54.6894H72.903V57.4394H28.9007V54.6894ZM26.9659 50.7528L27.6237 48.1762C28.5284 44.6329 28.7198 44.1854 30.482 41.4915C31.6598 39.6909 32.435 38.8814 33.7369 38.0923C36.8778 36.1887 37.1322 36.1609 51.4138 36.1609H64.4056L66.3594 37.1372C68.856 38.3846 70.8908 40.5369 72.4847 43.6159C73.8046 46.1657 75.2144 50.3933 74.963 51.0483C74.5662 52.0825 72.5129 52.1772 50.4724 52.1772H28.6218L26.9659 50.7528ZM38.4638 33.9627L38.7325 31.9295C38.9026 30.7935 39.1671 30.5432 39.9631 30.384C47.9663 30.392 53.4435 30.384 61.9077 30.384C62.4474 30.3858 62.7799 30.7515 62.9692 31.2321L63.8277 33.9627H38.4638ZM28.7437 23.0405L27.46 23.7909C25.2122 25.1048 22.4095 24.5649 20.965 22.5398C20.4284 21.7876 20.2622 21.11 20.2546 19.6434C20.2462 18.0422 20.1092 17.568 19.4179 16.7464C18.263 15.3738 17.8162 13.7925 17.9726 11.6306C18.2793 7.38965 22.4434 4.55018 26.6349 5.72373C28.6801 6.29635 30.859 8.49604 31.3628 10.4966C31.6153 11.4994 31.9007 11.9796 32.2442 11.9796C33.1564 11.9796 34.7897 13.2224 35.3052 14.3088C35.969 15.7076 35.9277 17.1871 35.1816 18.7315C34.3696 20.4126 34.3881 20.6024 35.6141 23.1605C37.1186 26.2999 37.2335 26.7432 36.5375 26.7234L28.7437 23.0405ZM65.5747 26.5658C65.4791 26.4702 65.9479 25.1629 66.6166 23.6609C68.0237 20.5003 68.056 20.2248 67.2141 18.5745C66.8687 17.8974 66.586 16.9067 66.586 16.3731C66.586 14.5631 68.1731 12.4867 69.9122 12.0216C70.5659 11.8468 70.86 11.5328 70.9999 10.8602C71.2627 9.59622 72.0345 8.18899 72.9156 7.36691C74.019 6.33738 76.3176 5.39844 77.7346 5.39844C79.1512 5.39844 81.4494 6.33707 82.5543 7.36691C85.1643 9.79966 85.2788 14.2438 82.8014 16.9507C82.2495 17.5536 82.1496 17.9955 82.2332 19.4631C82.353 21.5645 81.5738 22.9964 79.7759 23.9792C78.3978 24.7324 76.0264 24.5917 74.7984 23.6838L73.9438 23.0519L65.5747 26.5658ZM42.1362 22.7203H59.316C60.0288 22.8992 61.6287 25.0556 61.3643 25.4834H40.8606C40.902 23.8733 41.2809 23.3821 42.1362 22.7203Z" fill="white"/>
<path d="M41.0679 27.0635H43.3785C43.6828 27.0635 43.9278 27.3085 43.9278 27.6128V28.3191C43.9278 28.6234 43.6828 28.8684 43.3785 28.8684H41.0679C40.7635 28.8684 40.5186 28.6234 40.5186 28.3191V27.6128C40.5186 27.3085 40.7635 27.0635 41.0679 27.0635Z" fill="white"/>
<path d="M46.5044 27.0635H48.815C49.1193 27.0635 49.3643 27.3085 49.3643 27.6128V28.3191C49.3643 28.6234 49.1193 28.8684 48.815 28.8684H46.5044C46.2001 28.8684 45.9551 28.6234 45.9551 28.3191V27.6128C45.9551 27.3085 46.2001 27.0635 46.5044 27.0635Z" fill="white"/>
<path d="M52.6948 27.0635H55.0054C55.3098 27.0635 55.5548 27.3085 55.5548 27.6128V28.3191C55.5548 28.6234 55.3098 28.8684 55.0054 28.8684H52.6948C52.3905 28.8684 52.1455 28.6234 52.1455 28.3191V27.6128C52.1455 27.3085 52.3905 27.0635 52.6948 27.0635Z" fill="white"/>
<path d="M58.48 27.0635H60.7906C61.0949 27.0635 61.3399 27.3085 61.3399 27.6128V28.3191C61.3399 28.6234 61.0949 28.8684 60.7906 28.8684H58.48C58.1757 28.8684 57.9307 28.6234 57.9307 28.3191V27.6128C57.9307 27.3085 58.1757 27.0635 58.48 27.0635Z" fill="white"/>
</svg>
