<svg width="100" height="100" viewBox="0 0 100 100" fill="none" xmlns="http://www.w3.org/2000/svg">
<path fill-rule="evenodd" clip-rule="evenodd" d="M97.6562 53.7656L85.5781 64.5309L81.377 72.9332L87.1535 73.9834C87.4245 80.5886 65.7318 83.961 50 83.961C34.2682 83.961 12.5755 80.5886 12.8465 73.9834L18.623 72.9332L14.4219 64.5309L2.34375 53.7656L12.5839 68.9946L2.86889 70.57L9.69568 72.9332C5.59068 76.9809 16.6149 86.0282 50 86.0282C83.3851 86.0282 94.4093 76.9809 90.3043 72.9332L97.1311 70.57L87.4161 68.9946L97.6562 53.7656Z" fill="white" fill-opacity="0.51"/>
<path fill-rule="evenodd" clip-rule="evenodd" d="M55.12 17.5316C55.12 17.5316 59.1077 12.9022 65.3931 15.8813C71.6787 18.8605 71.1367 23.0455 71.1367 23.0455C71.1367 23.0455 81.8897 27.5927 81.8897 36.4964C81.8897 44.3496 75.3378 47.4644 75.3378 47.4644C75.3378 47.4644 79.4323 57.1611 69.7144 66.879C59.2085 77.3849 45.6676 68.4699 45.6676 68.4699C45.6676 68.4699 41.4292 72.5125 35.582 70.4227C29.7349 68.3326 29.3883 62.6934 29.3883 62.6934C29.3883 62.6934 18.3391 58.6522 18.7971 49.0399C19.2061 40.4573 25.4498 38.5371 25.4498 38.5371C25.4498 38.5371 21.0538 24.7575 32.9766 17.2383C44.899 9.71885 55.12 17.5316 55.12 17.5316ZM51.3503 28.8969C57.9752 29.6323 62.6295 35.6165 62.6295 38.7997C62.6295 39.6173 63.1547 39.6202 63.1547 41.4254C63.1547 44.0182 62.3669 43.7567 62.3669 45.1013C62.3669 45.6582 61.747 45.889 61.5792 45.889C61.4112 45.889 61.5963 46.1786 61.5792 46.6767C61.5732 46.8534 61.7402 47.0572 61.8418 47.2019C62.034 47.4755 62.1044 47.2455 62.1044 48.7773C62.1044 49.784 62.8921 49.8711 62.6295 50.6153C62.3882 51.299 59.8003 55.6899 59.2161 55.6041C58.6316 55.5182 58.7259 55.0789 58.1658 55.0789C57.6055 55.0789 56.0653 55.9115 56.0653 57.4421C56.0653 58.4474 56.1585 58.3989 55.8027 58.7549L52.4944 60.8555C51.944 60.8555 52.3287 60.3303 51.9692 60.3303C51.6098 60.3303 51.9697 60.8555 51.1815 60.8555C51.0907 60.8555 51.015 60.8226 50.9473 60.7735L50.5708 60.4125C50.5028 60.3631 50.4274 60.3303 50.3366 60.3303C49.9732 60.3303 50.2969 61.118 49.3435 61.118C48.3901 61.118 48.7215 60.0677 48.2933 60.0677C47.4948 60.0677 48.5726 60.8555 46.9804 60.8555C46.701 60.8555 46.7107 60.5774 46.4553 60.5929C46.1998 60.6084 44.1856 59.1109 43.8296 58.7549C43.4735 58.3989 43.567 58.4474 43.567 57.4421C43.567 55.9115 42.0265 55.0789 41.4665 55.0789C40.9064 55.0789 41.263 55.5962 40.4162 55.6041C40.0832 55.6072 36.851 51.4993 36.7402 50.8778C36.657 50.4118 37.5279 49.784 37.5279 48.7773C37.5279 47.2455 37.5983 47.4755 37.7905 47.2019C37.8921 47.0572 38.0591 46.8534 38.0531 46.6767C38.036 46.1786 38.2211 45.889 38.0531 45.889C37.885 45.889 37.2654 45.6582 37.2654 45.1013C37.2654 43.7567 36.4777 44.0182 36.4777 41.4254C36.4777 39.6202 37.0028 39.6173 37.0028 38.7997C37.0028 35.4041 42.6659 28.8221 49.9999 28.8221L51.3503 28.8969Z" fill="white"/>
<path fill-rule="evenodd" clip-rule="evenodd" d="M49.6066 49.8271C50.6324 49.8271 51.182 52.0409 51.182 53.5031C51.182 54.4754 51.5393 54.8535 51.7071 55.0785C52.3013 55.8757 51.6622 56.6539 51.182 56.6539C50.5285 56.6539 50.5227 55.3411 49.6066 55.3411C48.953 55.3411 49.0355 56.3914 48.5563 56.3914C48.0771 56.3914 47.3876 56.0469 47.7686 54.816C47.9871 54.1102 48.2937 53.4543 48.2937 52.7154C48.2937 52.4184 48.304 49.8271 49.6066 49.8271Z" fill="white"/>
<path fill-rule="evenodd" clip-rule="evenodd" d="M44.6177 45.2324C42.974 45.2324 41.3395 46.0057 40.2709 47.2492C39.1623 48.5387 39.0358 50.0007 40.4972 51.0714C40.854 51.3329 41.2529 51.5475 41.6725 51.6887C42.1117 51.8366 42.5799 51.8962 43.0423 51.9279C44.8005 52.0487 47.2749 50.8409 47.9156 49.1087C48.5883 47.2904 46.3262 45.2324 44.6177 45.2324Z" fill="white"/>
<path fill-rule="evenodd" clip-rule="evenodd" d="M55.3833 45.2324C57.0269 45.2324 58.6614 46.0057 59.7301 47.2492C60.8386 48.5387 60.9652 50.0007 59.5037 51.0714C59.1469 51.3329 58.7481 51.5475 58.3285 51.6887C57.8892 51.8366 57.4211 51.8962 56.9587 51.9279C55.2005 52.0487 52.7261 50.8409 52.0854 49.1087C51.4127 47.2904 53.6747 45.2324 55.3833 45.2324Z" fill="white"/>
</svg>
