<svg width="100" height="100" viewBox="0 0 100 100" fill="none" xmlns="http://www.w3.org/2000/svg">
<path d="M49.8999 2.34375L45.5457 29.6937C40.8813 30.8674 36.5512 32.8769 33.2612 37.4864L8.11133 25.2015L30.9997 41.0006C28.4839 47.0897 28.7327 52.5716 30.9387 57.6242L8.11133 74.615L32.9859 61.6275C35.7468 65.2 40.3674 67.8748 45.5457 69.145L49.8999 97.6561L53.7351 69.5422C58.1143 69.0932 61.9365 66.4919 65.4389 62.0857L89.0302 74.615L67.4256 58.9688C70.0146 53.1196 70.5969 47.3153 68.0062 41.5812L89.0302 25.2015L65.8288 37.7382C63.0018 33.8841 59.0825 30.9838 53.7351 29.7703L49.8999 2.34375ZM49.3825 36.3731C56.9437 36.3731 63.0733 42.5027 63.0733 50.064C63.0733 57.6252 56.9437 63.7548 49.3825 63.7548C41.8213 63.7548 35.6917 57.6252 35.6917 50.064C35.6917 42.5027 41.8213 36.3731 49.3825 36.3731Z" fill="white"/>
<path d="M69.6563 31.4969L67.1811 32.6581C65.2038 30.6118 62.5442 29.2479 60.1221 27.6465C63.3793 28.8034 66.7785 29.733 69.6563 31.4969Z" fill="white"/>
<path d="M29.625 31.3133L32.1002 32.4745C34.0775 30.4282 36.7372 29.0643 39.1593 27.4629C35.9021 28.6198 32.5028 29.5494 29.625 31.3133Z" fill="white"/>
<path d="M29.2557 67.8857L25.5391 69.3983C30.3973 71.9817 35.1126 74.7557 40.9673 76.0104L40.7944 72.726C36.5756 71.7086 32.9112 69.8043 29.2557 67.8857Z" fill="white"/>
<path d="M69.1373 68.8281L72.8539 70.3407C67.9957 73.1127 61.0764 75.9241 55.2217 76.9096L55.8267 73.4523C57.4887 73.4877 64.2168 71.2676 69.1373 68.8281Z" fill="white"/>
<path d="M80.3808 38.542L77.6582 40.3571C82.0384 43.9823 86.3851 47.6362 89.9748 51.939C86.7185 55.9117 82.8954 59.2231 78.9547 62.3974L81.5477 64.2557C86.3284 60.332 90.3757 56.1638 94.1236 51.8958C90.1747 46.9404 85.3548 42.5863 80.3808 38.542Z" fill="white"/>
<path d="M19.6196 38.2598L22.3423 40.0748C17.962 43.7001 13.6153 47.354 10.0256 51.6568C13.4201 55.2842 14.9231 56.7638 18.6775 60.4039L16.0845 62.2622C11.7316 58.0329 8.95252 55.6371 5.87695 51.6136C9.82586 46.6581 14.6456 42.304 19.6196 38.2598Z" fill="white"/>
<path d="M26.0146 42.6045L22.3413 45.4568C21.176 49.8789 21.8256 53.9381 22.9463 57.9031L25.8418 56.0015C24.4402 51.6818 25.1529 47.1506 26.0146 42.6045Z" fill="white" fill-opacity="0.5"/>
<path d="M73.7845 42.6475L76.2911 44.6786C77.4563 49.1008 76.5474 55.8394 75.4267 59.8043L72.5312 57.9028C73.1711 55.1676 74.4696 47.208 72.8721 43.342L73.7845 42.6475Z" fill="white" fill-opacity="0.5"/>
</svg>
