<svg width="100" height="100" viewBox="0 0 100 100" fill="none" xmlns="http://www.w3.org/2000/svg">
<path d="M41.2563 14.9326L36.6611 16.7076V77.3523L41.2958 79.1075L41.2563 14.9326Z" fill="white"/>
<path d="M58.3847 14.9326L62.9799 16.7076V77.3523L58.3452 79.1075L58.3847 14.9326Z" fill="white"/>
<path d="M2.34375 62.1719C14.2627 71.4762 23.2252 81.3719 41.2795 89.4492H5.5791L20.8075 84.6519L2.34375 62.1719Z" fill="white"/>
<path d="M97.6564 62.1895C85.7375 71.4938 76.775 81.3895 58.7207 89.4668H94.4211L79.1926 84.6695L97.6564 62.1895Z" fill="white"/>
<path d="M27.111 22.8457V70.8739C24.5665 68.498 25.3243 66.5607 23.5967 64.5705C22.4079 62.2376 19.2451 63.5704 19.5804 57.4862L19.5939 34.5754C19.6126 32.9546 19.8704 32.8348 20.7391 32.0266L23.6525 29.3164C26.0217 27.5639 25.7217 24.5842 27.111 22.8457Z" fill="white"/>
<path d="M72.9561 23.25V71.2782C74.3012 68.5397 74.7148 66.0446 76.4703 64.9748C77.2965 64.4827 80.5151 63.138 80.4866 57.8905L80.4731 34.9797C80.4544 33.3589 80.1967 33.2391 79.328 32.4309L76.4146 29.7207C74.0454 27.9682 74.3453 24.9885 72.9561 23.25Z" fill="white"/>
<path d="M50.0524 52.5785C53.1548 52.5785 55.6698 50.0635 55.6698 46.9611C55.6698 43.8587 53.1548 41.3438 50.0524 41.3438C46.95 41.3438 44.4351 43.8587 44.4351 46.9611C44.4351 50.0635 46.95 52.5785 50.0524 52.5785Z" fill="white"/>
<path d="M31.7849 63.7641C33.1325 63.7641 34.225 62.6716 34.225 61.3239C34.225 59.9763 33.1325 58.8838 31.7849 58.8838C30.4372 58.8838 29.3447 59.9763 29.3447 61.3239C29.3447 62.6716 30.4372 63.7641 31.7849 63.7641Z" fill="white"/>
<path d="M31.8523 34.434C33.1999 34.434 34.2924 33.3415 34.2924 31.9939C34.2924 30.6462 33.1999 29.5537 31.8523 29.5537C30.5046 29.5537 29.4121 30.6462 29.4121 31.9939C29.4121 33.3415 30.5046 34.434 31.8523 34.434Z" fill="white"/>
<path d="M67.9987 34.3783C69.3464 34.3783 70.4389 33.2858 70.4389 31.9382C70.4389 30.5905 69.3464 29.498 67.9987 29.498C66.6511 29.498 65.5586 30.5905 65.5586 31.9382C65.5586 33.2858 66.6511 34.3783 67.9987 34.3783Z" fill="white"/>
<path d="M67.9987 63.8315C69.3464 63.8315 70.4389 62.739 70.4389 61.3913C70.4389 60.0437 69.3464 58.9512 67.9987 58.9512C66.6511 58.9512 65.5586 60.0437 65.5586 61.3913C65.5586 62.739 66.6511 63.8315 67.9987 63.8315Z" fill="white"/>
<path d="M47.8895 83.258C49.7072 85.0323 50.2646 85.1154 52.2683 83.23C55.6948 78.966 52.8015 77.2594 50.2323 77.1777C48.1618 77.0514 44.1336 78.9715 47.8895 83.258Z" fill="white"/>
<path d="M48.0589 11.8917C49.8766 10.1174 50.434 10.0343 52.4378 11.9196C55.8643 16.1837 52.9709 17.8903 50.4017 17.972C48.3313 18.0983 44.3031 16.1782 48.0589 11.8917Z" fill="white"/>
</svg>
