<svg width="100" height="100" viewBox="0 0 100 100" fill="none" xmlns="http://www.w3.org/2000/svg">
<path d="M35.5439 5.27366C35.314 5.2729 35.0542 5.2742 34.7582 5.2762C32.698 5.29018 32.0062 5.43468 30.0281 6.26219C28.4709 6.91361 26.9984 7.29584 25.5386 7.42763C24.3438 7.53549 23.0408 7.80295 22.6425 8.02202C22.2443 8.2411 21.0146 8.50678 19.9099 8.6126C18.0497 8.79079 17.8357 8.88374 17.0134 9.87096C16.5252 10.4572 15.1807 11.9498 14.0258 13.1878C12.8709 14.4258 11.9227 15.6247 11.9185 15.8522C11.9143 16.0797 11.3745 17.2434 10.7187 18.4381C8.37373 22.71 8.10745 23.338 7.87739 25.1482C7.74921 26.1569 7.35755 28.1931 7.00681 29.6734C6.47529 31.9166 6.20565 32.5235 5.38783 33.3178C3.83066 34.8301 3.43433 36.1072 3.66448 38.8701C3.83332 40.897 3.75507 41.6103 3.10191 44.0079L2.34375 46.7919L3.78157 51.2238C5.64457 56.9655 6.31139 59.5552 6.53885 61.9304C6.64052 62.9921 6.98874 64.8816 7.31228 66.1298C7.63582 67.3779 8.15058 69.7676 8.45651 71.4402C9.49443 77.1148 10.8548 80.019 13.6643 82.5572C14.3021 83.1334 14.9679 83.6047 15.1437 83.6047C15.3195 83.6047 16.3944 84.4947 17.5323 85.5826C18.6702 86.6705 20.0247 87.8524 20.542 88.2088C21.0594 88.5651 21.559 89.1607 21.6523 89.5325C21.7723 90.0104 22.0904 90.2555 22.7389 90.3687C23.2433 90.4567 24.6986 90.7426 25.973 91.0042C27.2474 91.2659 29.2678 91.5311 30.4625 91.5935C31.6573 91.656 33.0908 91.8121 33.6483 91.9402C35.2222 92.3016 37.8458 92.1969 38.3827 91.7514C38.7083 91.481 38.8616 90.9017 38.8616 89.941C38.8616 88.5989 38.5528 88.1463 38.1175 88.8507C37.8889 89.2205 31.1003 88.9592 29.883 88.5338C29.4848 88.3946 28.5727 88.2015 27.8559 88.1044C27.139 88.0073 26.2341 87.6852 25.8453 87.3887L25.1385 86.8499L26.2797 85.0951C27.0504 83.9103 27.6141 83.3361 28.015 83.3276C28.7379 83.3124 29.3039 82.7889 29.3039 82.1355C29.3039 81.534 26.7959 79.1801 26.3205 79.3353C26.1293 79.3977 25.84 79.8504 25.6773 80.3417C25.5146 80.8329 24.9114 81.9312 24.3366 82.782C23.7618 83.6328 23.208 84.6868 23.1063 85.1244L22.9213 85.9203L21.9438 85.2792L20.9663 84.6386L21.8827 83.5678C23.1052 82.1395 23.8042 80.0836 23.8025 77.92C23.8007 75.638 24.2417 75.1732 25.6764 75.9459C26.6409 76.4653 26.6845 76.4651 27.2619 75.9425C28.0291 75.2483 28.0159 75.1484 27.0154 74.0775C26.2547 73.2631 26.0094 73.178 24.4249 73.178C22.9943 73.178 22.5267 73.3053 21.8653 73.8742C21.1168 74.5181 21.0496 74.7515 20.9693 76.9875C20.8576 80.093 20.7642 80.4867 19.8895 81.5262L19.1636 82.3888L17.5832 81.5326C15.5778 80.4464 13.0847 77.4975 13.9129 77.1911C14.233 77.0727 14.75 76.1343 15.2489 74.7665C15.9669 72.7978 16.1824 72.485 17.0775 72.111C17.7625 71.8248 18.5339 71.7481 19.4517 71.8743C20.687 72.0442 20.8545 71.9942 21.29 71.3295C21.6554 70.7718 21.702 70.4208 21.4852 69.8505C21.2769 69.3028 21.2966 69.0733 21.5594 68.9931C24.298 68.1568 25.6917 67.4487 25.7783 66.8497C25.9367 65.7536 25.2984 65.2764 23.9599 65.49C23.315 65.5929 22.4985 65.8658 22.1457 66.0967C21.7929 66.3276 21.0863 66.5167 20.5755 66.5167C19.4026 66.5167 18.5875 67.2403 18.5875 68.282C18.5875 69.2903 18.5263 69.3253 16.3329 69.5735C14.6257 69.7666 14.5328 69.7455 14.5328 69.1607C14.5328 68.8215 14.8076 68.269 15.1437 67.9329C15.6316 67.445 15.72 67.1022 15.5811 66.2341C15.438 65.3393 15.5327 65.0116 16.1149 64.3835C16.5039 63.9637 17.0079 63.6203 17.2349 63.6203C17.462 63.6203 17.81 63.4248 18.0083 63.1858C18.5304 62.5568 19.3768 62.6498 20.8178 63.4943C22.3233 64.3765 23.3262 64.339 23.4601 63.3954C23.576 62.5788 21.8218 60.7238 20.9336 60.7238C20.2363 60.7238 20.0767 59.6401 20.6846 59.0323C20.9462 58.7706 21.0184 57.5545 20.9502 54.5576C20.8573 50.4809 20.847 50.4252 19.8547 48.6358C18.2583 45.7568 17.0542 45.4883 16.7631 47.9463C16.5131 50.0574 16.154 50.5869 14.9736 50.5869C13.7028 50.5869 10.1883 48.4459 10.1883 47.6718C10.1883 47.3785 10.3394 46.8071 10.5239 46.402C10.8035 45.7884 10.772 45.5687 10.3343 45.0851C9.62653 44.303 9.07355 44.3543 8.09377 45.293C7.4376 45.9216 7.17051 46.0184 6.77474 45.7703C5.85963 45.1967 5.99678 44.2189 7.12263 43.2909C7.80114 42.7316 8.1608 42.188 8.1608 41.722C8.1608 41.3297 8.3665 40.6952 8.61773 40.3117C8.86896 39.9283 9.03177 39.3137 8.97963 38.946C8.89787 38.3696 8.73544 38.2865 7.79891 38.3415C6.78326 38.4011 6.7128 38.3517 6.7128 37.5803C6.7128 37.1267 6.91396 36.5885 7.15997 36.3844C7.53541 36.0728 7.68552 36.1253 8.09504 36.711C8.36338 37.0948 9.2162 37.9927 9.99022 38.7063C11.9382 40.5023 12.0903 40.8597 11.4806 42.2116C11.0569 43.1513 11.0347 43.462 11.3385 44.1954C11.9003 45.5516 12.373 45.8169 13.2282 45.2565C13.7743 44.8987 13.9537 44.5298 13.9537 43.7648C13.9537 43.2058 14.1492 42.2807 14.3881 41.7088C15.1296 39.9342 14.9722 39.4617 13.0979 37.8315C12.1495 37.0066 10.8982 35.6415 10.3173 34.798L9.26134 33.2643L9.9007 32.3993C10.4696 31.6297 11.4077 30.8149 12.4102 30.219C12.6269 30.0902 13.0134 30.5682 13.4789 31.541C14.3026 33.2623 14.9864 34.1253 15.9248 34.6275C16.6225 35.0009 16.6338 34.9877 16.9757 33.4272C17.0962 32.877 16.9149 32.1674 16.3872 31.1261C15.7667 29.9016 15.6544 29.3641 15.7865 28.2487C16.1834 24.8971 19.4556 21.1937 23.3006 19.7444C24.0608 19.4578 24.7415 19.282 24.8131 19.3536C25.1384 19.6789 22.7916 22.555 21.1071 23.8954C19.7447 24.9795 19.0807 25.7549 18.6413 26.7761C17.8461 28.6247 17.4273 32.166 17.436 36.9669L17.4432 40.8845L18.6672 42.9031C19.3403 44.0135 20.2168 45.097 20.615 45.3108C21.7661 45.929 27.9969 45.5879 29.6967 44.8136C31.1961 44.1306 32.2434 44.0565 33.0739 44.5752C33.7961 45.0262 34.5495 44.6158 34.9232 43.5675C35.3908 42.2562 35.0436 41.9935 32.5537 41.7763C30.6116 41.6069 29.9856 41.6706 28.547 42.1832C27.6093 42.5173 25.7809 42.869 24.4838 42.9647L22.1254 43.1382L21.4016 42.0113C20.7483 40.9942 20.6602 40.4892 20.4954 36.8294C20.2054 30.3913 20.9623 27.8589 23.9463 25.2827C24.7896 24.5547 26.1043 23.1075 26.8682 22.0672C28.074 20.4249 28.3786 20.1759 29.1796 20.1759C29.6869 20.1759 30.5798 20.3756 31.1638 20.6196C32.3913 21.1325 32.7794 20.9931 32.7794 20.0397C32.7794 19.327 31.3136 17.859 30.6021 17.859C29.9305 17.859 29.8744 17.4009 30.3955 16.167C30.8442 15.1045 31.0257 14.9609 32.1316 14.7932C33.599 14.5707 34.8745 15.0234 35.6856 16.0546C36.1668 16.6663 36.2549 17.2329 36.2537 19.7083C36.2526 22.2569 36.1583 22.823 35.5295 24.0625C34.5862 25.9218 34.6158 26.468 35.6911 27.068C36.4408 27.4863 36.5512 27.6883 36.4154 28.3942C36.3272 28.8522 36.255 29.3918 36.255 29.5936C36.255 29.7954 35.6412 30.6433 34.891 31.4778C33.8201 32.6689 32.935 33.2699 30.7722 34.2737C28.2907 35.4254 27.8726 35.534 26.5559 35.3695C25.3041 35.2131 25.0159 35.2736 24.5466 35.7921C24.087 36.3 24.0527 36.5164 24.3345 37.1349C24.6645 37.8591 24.715 37.8698 27.2042 37.7407C30.7732 37.5557 33.1272 36.7902 35.7917 34.9482C37.0214 34.0981 38.2152 33.1345 38.4446 32.807C38.7843 32.322 38.8617 30.6607 38.8617 23.8576C38.8617 18.8272 38.7459 15.288 38.571 14.9613C38.3769 14.5985 38.3769 14.3591 38.571 14.2392C38.7389 14.1354 38.8617 12.6022 38.8617 10.6058C38.8617 7.19889 38.8502 7.13876 38.0165 6.20577C37.2909 5.39368 37.1533 5.27893 35.5439 5.27366ZM34.6228 7.6351C34.996 7.60934 35.136 7.75086 35.4022 7.96645C36.003 8.45295 36.5056 10.1795 36.532 11.8489C36.5457 12.7126 36.3897 12.7906 35.5846 12.3223C34.8679 11.9054 28.8533 11.6563 27.4214 11.9842C26.7842 12.1301 25.9638 12.1758 25.5984 12.0856C24.3992 11.7896 25.478 11.0315 29.1516 9.5901C32.7314 8.18548 34.0009 7.67803 34.6228 7.6351ZM21.8318 10.924C22.0813 10.9364 22.0228 11.0621 21.7631 11.3062C21.2959 11.7452 18.1839 12.1957 18.436 11.7878C18.5222 11.6483 19.2495 11.3931 20.0524 11.221C21.0247 11.0124 21.5823 10.9115 21.8318 10.924ZM21.5068 14.411C22.3059 14.4192 23.1676 14.4849 24.0906 14.6083L25.973 14.8599L22.6425 16.5009C18.5375 18.5237 15.0238 21.5439 13.8234 24.0812C13.2925 25.2035 12.6926 25.9209 11.7327 26.5814L10.3865 27.5075L10.5676 25.9772C10.7024 24.8397 11.1709 23.7321 12.3932 21.6599C13.2975 20.1269 14.341 18.2608 14.7122 17.5132C15.753 15.4172 18.0439 14.3752 21.5068 14.411ZM6.48582 48.637C6.49718 48.6348 6.51102 48.6351 6.52782 48.6383C6.75179 48.6806 7.48185 49.2136 9.32455 50.5768C10.522 51.4626 12.0637 52.3733 12.7509 52.6001L14.0003 53.012L13.0402 53.4656C11.9919 53.9606 11.713 54.7281 11.4403 57.8681C11.338 59.0465 11.432 59.7594 11.7781 60.4286C12.1157 61.0815 12.2012 61.6908 12.0666 62.4879C11.8714 63.6433 11.7453 63.7129 10.4781 63.3623C9.80306 63.1756 9.74238 63.0061 9.58632 60.8571C9.44569 58.9205 7.60082 51.7504 6.54012 49.0189C6.45363 48.7961 6.4063 48.6525 6.48582 48.637ZM18.083 52.0349C18.3388 52.0349 18.1551 57.7773 17.8908 58.0416C17.7962 58.1363 17.7186 58.706 17.7186 59.3076C17.7186 60.4233 16.9661 61.3034 16.0118 61.3034C15.781 61.3034 15.3536 61.5191 15.0623 61.7828C14.5607 62.2367 14.5328 62.2172 14.5298 61.4205C14.5281 60.9577 14.3326 59.9394 14.0954 59.1574C13.5194 57.2589 13.5247 56.2643 14.1098 56.4888C15.5105 57.0263 16.3293 54.5424 15.0474 53.6446C14.4259 53.2092 14.4508 53.1936 15.7691 53.1936C16.8207 53.1936 17.2176 53.0607 17.4963 52.6145C17.6952 52.2959 17.9592 52.0349 18.083 52.0349ZM11.6936 65.5235C11.9169 65.5171 11.9261 65.8009 11.9261 66.6677C11.9261 67.9684 11.6633 68.2788 11.1345 67.6028C10.4911 66.7805 10.5326 66.0053 11.2371 65.6843C11.4464 65.5889 11.5921 65.5264 11.6936 65.5235ZM11.4382 71.0168C11.6147 71.0235 12.0274 71.0553 12.5052 71.1008C13.8302 71.2272 13.8971 71.429 13.061 72.7818C12.7294 73.3183 12.4156 73.7571 12.364 73.7571C12.2949 73.7571 11.347 71.2049 11.347 71.019C11.347 71.015 11.3794 71.0147 11.4382 71.0168Z" fill="white"/>
<path d="M52.1846 25.2489V14.8145C59.449 14.8094 59.6573 25.215 52.1846 25.2489Z" fill="white"/>
<path d="M25.433 31.4507C24.5095 30.7242 24.4727 30.2208 25.2838 29.4097C25.7856 28.9078 26.1213 28.8265 27.1232 28.9638C28.9075 29.2084 29.769 28.2399 30.1481 25.5633C30.5687 22.5932 32.0587 21.364 33.552 22.7552L34.1442 23.3069L33.485 25.3287C33.1225 26.4407 32.7063 27.5936 32.5603 27.8906C32.4142 28.1876 32.0453 28.9437 31.7406 29.5707C30.6858 31.7413 27.1443 32.7968 25.433 31.4507Z" fill="white"/>
<path d="M54.7923 34.3282C54.7929 34.111 55.5058 33.3832 56.3764 32.7108C59.5203 30.2828 61.2127 26.7883 60.2432 24.7268C59.8536 23.8983 59.8533 23.6852 60.2408 22.7826C62.5307 17.0322 57.5585 11.7845 52.1846 11.696V7.14258C54.076 7.21102 57.7968 7.30688 59.0868 8.38109C60.8776 10.6963 62.5037 13.1103 63.9657 15.6229C64.7119 17.0383 64.8657 23.0043 64.2145 25.2723C63.2679 28.5695 60.6646 32.4022 58.4487 33.7612C57.2463 34.4986 54.7908 34.8794 54.7923 34.3282Z" fill="white"/>
<path d="M34.8066 52.0495C34.8066 50.77 34.9086 50.5383 35.7566 49.8915C36.2791 49.493 37.0285 49.0384 37.422 48.8814C37.916 48.6842 37.9826 48.5902 37.6372 48.5775C36.6111 48.5398 36.2738 47.4247 36.3603 44.3562C36.4052 42.7651 36.5999 41.17 36.793 40.8116C37.1764 40.0999 37.9667 39.9603 38.5139 40.5075C38.9609 40.9545 39.0006 47.8597 38.5577 48.1334C38.3481 48.263 38.3536 48.4411 38.5755 48.7084C38.7522 48.9214 38.8563 49.6592 38.8068 50.3479C38.7341 51.3575 38.609 51.6005 38.1611 51.6015C37.8556 51.6021 37.5503 51.7686 37.4827 51.9713C37.3757 52.2924 35.3913 53.4829 34.963 53.4829C34.877 53.4829 34.8066 52.8378 34.8066 52.0495Z" fill="white"/>
<path d="M67.9771 34.4861C67.9304 34.4816 67.9028 34.4827 67.8956 34.4899C67.815 34.5705 67.5506 36.5345 67.308 38.8543C66.9689 42.0963 66.94 43.4223 67.1833 44.5852C67.3573 45.4173 67.6241 47.0339 67.7764 48.1774C68.1091 50.6764 69.0088 52.0408 70.7954 52.7556C71.7807 53.1498 75.6222 53.7994 82.4507 54.7268C87.4408 55.4045 93.4633 54.1694 94.5201 52.2516C95.1621 51.0866 97.6563 45.2692 97.6563 44.9369C97.6563 44.1138 95.1053 42.3945 92.3606 41.3676C89.3028 40.2235 69.4248 34.6264 67.9771 34.4861ZM75.4653 38.7126L87.6916 41.4851C89.7963 41.9624 90.0779 42.7529 89.4137 45.1435C88.7522 47.5243 87.1883 50.8812 86.4278 51.5533C85.7948 52.1126 84.2935 52.3418 82.5958 52.1383C77.8627 51.5711 74.7534 51.1398 74.3893 51C73.6529 50.7174 72.4586 48.6279 71.4475 45.8529C70.9162 44.3948 70.3978 42.9912 70.2956 42.7341C70.1622 42.3984 70.6901 41.7663 72.1696 40.4898C73.9974 38.9128 74.3958 38.47 75.4653 38.7126Z" fill="white"/>
<path d="M26.5714 59.8736C24.7313 59.3468 24.7066 59.32 23.986 57.0644C23.4049 55.2454 23.3898 53.8189 23.9303 51.7884C24.5318 49.5283 25.9181 48.2695 27.8055 48.2695C29.7193 48.2695 29.7748 50.2192 27.8826 50.9763C26.4761 51.5391 26.4394 51.5997 26.2462 53.6754C26.0581 55.6969 26.414 56.4935 27.8826 57.3377C28.8725 57.9067 28.9728 57.9128 29.9242 57.4613C30.4746 57.2001 31.8308 56.9078 32.9381 56.8115C34.0453 56.7153 35.4999 56.4981 36.1704 56.3287C36.841 56.1594 38.4566 55.9731 38.8614 56.0747V58.5074C38.7083 58.602 36.8332 58.9597 35.0349 59.2571C33.2366 59.5544 31.3984 59.9409 30.95 60.1158C29.8698 60.5373 28.6553 60.4701 26.5714 59.8736Z" fill="white"/>
<path d="M60.72 69.0504L57.6002 50.8131L52.1846 51.5212V45.8405C52.1846 41.0069 52.2488 40.1599 52.6151 40.1599C52.8519 40.1599 53.2229 39.7363 53.4395 39.2186C53.7968 38.3645 54.005 38.2445 55.688 37.9233L57.5427 37.5693L60.235 40.5943L61.7134 39.2172L60.0046 35.5023C62.4316 33.6959 63.9801 30.9523 65.0142 27.6602L66.3801 29.0261L62.7178 69.0504C62.5143 70.8874 61.0326 70.8904 60.72 69.0504Z" fill="white"/>
<path d="M37.5146 70.3711C36.7115 70.2141 36.1665 68.8877 36.3921 67.6396C36.5498 66.7672 36.4661 66.5937 35.6156 66.0315C34.8653 65.5356 34.169 65.3881 32.3453 65.3391C31.0709 65.3049 29.7999 65.3744 29.5208 65.4937C29.2416 65.6129 28.6877 65.6288 28.2898 65.5289C27.668 65.3728 27.5664 65.1834 27.5664 64.1795C27.5664 63.1084 27.6544 62.975 28.6292 62.5677C29.2464 62.3098 30.0053 62.202 30.4394 62.3105C30.8504 62.4132 32.2294 62.6047 33.5038 62.736C34.7782 62.8673 36.4725 63.1609 37.269 63.3885L38.862 63.8023V70.3711H37.5146Z" fill="white"/>
<path d="M36.7288 82.3644C36.4511 81.6371 36.255 80.2724 36.255 79.0662C36.255 77.2046 36.1623 76.8737 35.2817 75.5935C33.7212 73.3249 33.6844 72.7587 35.0511 72.0386C36.1135 71.4787 36.98 71.8896 37.9611 73.4185L38.8618 74.822V83.605H38.0322C37.3221 83.605 37.1344 83.4264 36.7288 82.3644Z" fill="white"/>
<path d="M56.5926 94.6134C56.0554 94.5307 56.8186 83.9593 56.8186 83.0955C56.8186 82.519 56.3542 80.2798 55.7865 78.1195C55.2189 75.9593 54.6273 73.703 54.472 73.1056C54.2142 72.1141 54.1023 72.0195 53.1871 72.0195H52.1846V65.9711C52.1846 59.9435 52.187 59.922 52.8362 59.748C53.1946 59.652 53.9663 59.5716 54.551 59.5694C55.4815 59.5661 55.6334 59.6648 55.7687 60.3619L58.0634 72.7436L58.4152 74.4814L62.4664 74.771L62.4504 76.8178C62.4317 79.2027 61.7077 80.7021 60.2916 81.2887C59.7161 81.5271 59.424 81.8545 59.4214 82.2641C59.4105 83.9472 58.7334 94.9427 57.3058 94.7231L56.5926 94.6134Z" fill="white"/>
<path d="M44.4004 6.85254H46.6625V92.9508H44.4004V6.85254Z" fill="white"/>
<path d="M33.0695 88.2492C31.9001 88.1101 31.7661 88.017 31.7661 87.3439C31.7661 86.9313 31.6004 86.3932 31.3979 86.1482C31.1209 85.8132 31.1064 85.5007 31.3394 84.888C31.8202 83.6232 31.3703 81.0828 30.2799 78.9056C29.2716 76.8926 29.1009 75.9538 29.6071 75.2056C29.8478 74.8499 30.2606 75.1499 31.8858 76.8619C34.1729 79.2713 34.3736 79.8746 34.0759 83.4478C33.912 85.4161 33.9559 85.8655 34.3435 86.1872C34.8118 86.5759 34.9916 88.1201 34.59 88.3045C34.4705 88.3593 33.7863 88.3345 33.0695 88.2492Z" fill="white"/>
</svg>
