<svg width="100" height="100" viewBox="0 0 100 100" fill="none" xmlns="http://www.w3.org/2000/svg">
<path d="M54.6358 81.6139L53.7983 76.9604L53.153 74.7116C52.7982 73.4748 52.4088 72.1351 52.2878 71.7345C52.0791 71.0433 51.9584 71.0062 49.9177 71.0062H47.7675L46.9139 73.9924L46.0603 76.9787L45.2535 81.6139L45.6568 96.8488H44.0519L42.4206 81.6139C40.8892 80.5179 39.4432 79.3507 39.4431 76.9787V75.3891V73.7995L41.532 73.7139C43.4758 73.6342 43.6358 73.5776 43.8354 72.8999C43.9534 72.4993 44.6041 69.0093 45.2815 65.1443L46.513 58.117H49.9314H53.3497L54.5813 65.1443C55.2586 69.0093 55.9093 72.4993 56.0273 72.8999C56.2265 73.5762 56.3889 73.6343 58.2995 73.7132C60.2906 73.7955 60.3606 73.8237 60.4648 74.5873C60.524 75.0212 60.5053 75.7696 60.4232 76.2503C60.3722 78.0589 60.6959 79.8762 57.5977 81.6139L55.0612 96.8488H53.7586L54.6358 81.6139ZM39.0579 67.5829C38.9621 66.7417 38.2814 59.5637 37.5451 51.6319C36.8089 43.7001 35.9655 34.654 35.6709 31.5293C35.1871 26.3971 35.179 25.7989 35.5863 25.3383C36.2078 24.6357 36.4341 24.6969 36.6636 25.6296C36.9982 26.9891 38.3023 28.9717 40.0908 30.8402L41.8015 32.6274L40.8499 34.5572L39.8983 36.4871L40.7029 37.2858L41.5076 38.0845L42.9959 36.5303L44.4842 34.9761L46.3445 35.3271C48.0613 35.6511 48.2371 35.7555 48.6241 36.6818C48.9954 37.5703 49.1518 37.6749 49.9881 37.5936C50.7613 37.5185 50.9793 37.3382 51.1896 36.5999C51.4277 35.7644 51.5873 35.6721 53.3586 35.3458L55.2705 34.9935L56.8271 36.5307L58.3836 38.0679L59.1699 37.2817L59.9561 36.4955L58.9768 34.4712L57.9975 32.4469L59.7656 30.5172C60.8632 29.3195 61.8443 27.8747 62.3526 26.708C62.803 25.6743 63.3315 24.8284 63.5271 24.8284C64.8279 24.8284 64.7315 26.371 60.9941 65.3979L60.6384 69.1125H59.8318C58.8986 69.1125 59.2221 70.4858 57.028 57.2089L55.6146 48.6558L53.2828 48.8925C50.3259 49.1926 49.454 49.194 46.5582 48.9031L44.2046 48.6667L42.5065 58.8896L40.8083 69.1125H40.0201C39.2856 69.1125 39.2201 69.0083 39.0579 67.5829ZM12.0045 52.7615C9.8496 52.4864 7.15396 51.5744 6.2495 50.8143C5.9266 50.5429 4.99149 48.8132 4.17148 46.9705C1.94076 41.9575 2.03704 42.3874 2.95385 41.5346C4.12502 40.4453 6.55907 39.2947 10.1749 38.1213C14.3203 36.7759 31.7646 31.8467 32.7235 31.7497L33.4618 31.675L33.9756 36.3365C34.3583 39.8091 34.4089 41.1825 34.1737 41.7215C34.0002 42.1194 33.7375 43.6271 33.59 45.0719C33.3728 47.2007 33.1703 47.9149 32.5222 48.8383C31.272 50.6196 30.2133 50.9919 23.8077 51.9034C16.6627 52.9202 14.4867 53.0783 12.0045 52.7615ZM22.3878 49.7164C24.4773 49.464 26.4759 49.0716 26.829 48.8445C27.182 48.6173 27.8013 47.8677 28.2051 47.1787C28.9197 45.9594 30.9869 40.8212 31.0889 40.0109C31.1169 39.7886 30.1903 38.7725 29.0299 37.753C27.0063 35.9753 26.8573 35.8996 25.3881 35.9042C24.5062 35.9064 21.1988 36.584 17.5924 37.5001C9.55817 39.541 9.66906 39.433 11.1398 43.7839C12.1429 46.7516 13.0395 48.5623 13.9632 49.486C14.5519 50.0747 14.9395 50.1752 16.6205 50.1752C17.703 50.1752 20.2982 49.9687 22.3878 49.7164ZM83.4357 52.8967C80.1155 52.5271 71.4563 51.266 70.471 51.0086C69.0103 50.627 67.5494 49.5381 66.9544 48.3874C66.703 47.9014 66.3756 46.3268 66.2268 44.8882C66.078 43.4496 65.8207 42.0193 65.655 41.7097C65.442 41.3118 65.4972 39.7599 65.8433 36.411C66.1125 33.8062 66.3693 31.63 66.414 31.575C66.5178 31.4471 85.4585 36.7893 89.6996 38.1427C93.3225 39.2988 95.8462 40.5335 96.9236 41.677L97.6562 42.4547L95.8435 46.5334C94.1846 50.266 93.9318 50.6672 92.8655 51.2601C90.8008 52.4081 86.2075 53.2052 83.4357 52.8967ZM85.9018 49.4837C86.8568 48.5287 87.8871 46.4019 88.8042 43.4923C89.4666 41.3909 89.5284 40.9112 89.2297 40.1902C89.0375 39.7262 88.5668 39.2273 88.1836 39.0817C86.328 38.3762 75.565 35.8995 74.3548 35.8995C73.1339 35.8995 72.7859 36.06 71.2873 37.3146C68.4647 39.6776 68.4675 39.6726 69.1078 41.1748C69.4078 41.8787 69.8836 43.1757 70.1651 44.057C70.8822 46.3022 72.3289 48.6362 73.2195 48.9849C73.86 49.2357 75.7899 49.5426 79.5026 49.984C79.9833 50.0411 81.4642 50.1076 82.7935 50.1316C84.9796 50.1711 85.2763 50.1092 85.9018 49.4837ZM44.4672 31.203C41.7116 30.4075 37.6955 24.2665 37.1104 19.9539C36.7827 17.5384 37.1448 13.0248 37.7659 11.7817C37.9835 11.3461 39.3709 9.32345 40.849 7.28691C43.2491 3.9802 43.6526 3.55948 44.6217 3.35379C46.1251 3.03469 54.5897 3.1096 55.4046 3.44922C55.771 3.6019 57.3133 5.42652 58.8319 7.50393C62.2728 12.2108 62.5612 13.0535 62.4022 17.9382C62.2977 21.1466 62.1987 21.6826 61.3441 23.6631C59.3676 28.2437 56.5738 31.0998 53.7414 31.4353C51.9916 31.6425 51.8115 31.2727 53.2342 30.3934C54.495 29.6142 57.0034 26.9565 57.64 25.7256C58.369 24.3159 58.5672 21.8066 58.016 20.9655C57.6164 20.3556 57.6196 20.2022 58.0481 19.4263C58.3816 18.8224 58.5195 17.8672 58.5092 16.2339C58.4969 14.301 58.3627 13.6483 57.7228 12.4105C56.7396 10.5087 54.6682 8.68191 52.7857 8.05665C50.8241 7.4051 47.3394 7.59369 45.6938 8.44047C44.3566 9.12852 42.3609 11.175 41.6089 12.6293C40.8529 14.0912 40.7202 17.1452 41.3325 18.9888C41.7029 20.1041 41.7516 20.5971 41.5145 20.8341C41.0106 21.338 41.1461 23.9749 41.7421 25.2655C42.5058 26.919 43.8977 28.5589 45.6514 29.8714C46.4831 30.4939 47.2073 31.1216 47.2607 31.2663C47.3839 31.5999 45.7108 31.562 44.4672 31.203ZM48.0829 21.4901C46.6403 20.9757 45.6202 20.0242 44.9465 18.5646C44.2636 17.085 44.2636 15.6741 44.9465 14.1945C46.9766 9.79595 52.8862 9.79595 54.9162 14.1945C55.2121 14.8354 55.4541 15.8187 55.4541 16.3795C55.4541 18.6386 53.6464 21.0014 51.4519 21.6109C50.0528 21.9994 49.451 21.9779 48.0829 21.4901Z" fill="white"/>
</svg>
