<svg width="100" height="100" viewBox="0 0 100 100" fill="none" xmlns="http://www.w3.org/2000/svg">
<path d="M50.2064 27.1076C33.2203 27.0566 19.5504 40.7374 19.5566 57.7821C19.5585 62.9125 20.562 67.1301 22.8459 71.6066C27.212 80.1643 35.6377 86.4058 44.9363 87.9707C50.9693 88.9859 57.6758 88.0492 63.2502 85.4121C70.0209 82.209 76.0134 75.6776 78.6757 68.5996C86.1859 48.6333 71.4603 27.1714 50.2064 27.1076ZM71.7893 42.1384H59.2344L56.8366 47.2023H74.6393C75.1475 48.2909 75.4972 49.4286 75.7816 50.5878H55.6904L55.318 51.3778H60.7797L58.8414 55.3838H76.7267C76.9729 56.5946 76.94 57.6541 76.7267 58.7993H56.9148L54.0342 63.5654H76.0841C75.9221 64.8065 75.5568 65.9718 75.0261 67.0923H52.394L49.2708 72.038H72.6675C60.8552 88.5194 38.0619 88.4535 27.5188 72.038H43.5464L45.2099 67.0923H25.1127C24.5361 66.2603 23.9711 64.6807 23.8717 63.5654H45.932L46.7038 61.0971H38.8423L39.537 58.7993H23.4042C23.2382 57.6393 23.2735 56.5085 23.5559 55.3838H40.3947L41.6919 50.5878H24.3808C24.6326 49.3909 25.0658 48.3137 25.5276 47.2023H42.3002L43.6896 42.1384H28.3412C39.1514 27.1753 59.8219 27.0617 71.7893 42.1384Z" fill="white"/>
<path d="M45.4121 24.632L50.0728 2.34375L54.727 24.632C51.6433 24.3562 48.5423 24.3048 45.4121 24.632Z" fill="white"/>
<path d="M44.9869 74.6652L48.8635 58.2223H41.4131L47.1537 41.1367H57.1185L51.1491 53.1272H57.6827L44.9869 74.6652Z" fill="white"/>
<path d="M74.3877 80.3642C76.7168 78.0235 78.5593 75.4665 79.7067 72.6006L95.7584 89.214L74.3877 80.3642Z" fill="white"/>
<path d="M20.4289 72.5947C21.6734 75.4716 23.4814 78.0411 25.7478 80.3607L4.24219 89.2401L20.4289 72.5947Z" fill="white"/>
<path d="M85.4002 75.7556C88.1512 70.3354 89.7032 64.1965 89.7032 57.6927C89.679 37.9293 75.2352 21.1825 55.7933 18.376M44.4215 18.3855C25.0414 21.2578 10.6765 37.9814 10.6582 57.6927C10.6582 64.0195 12.129 69.9999 14.7414 75.3104M21.4968 85.0499C28.6993 92.6935 38.8864 97.4614 50.1807 97.4614C61.5143 97.4614 71.7322 92.6597 78.9389 84.9695" stroke="white" stroke-opacity="0.501961" stroke-width="1.99809"/>
<path d="M43.571 23.3193C35.6236 24.8327 28.4525 29.07 23.2929 35.3014C18.1333 41.5329 15.308 49.3684 15.3037 57.4587C15.3103 62.2574 16.3101 67.0027 18.2401 71.3961L19.0088 70.5364C17.2437 66.3813 16.3282 61.9149 16.3163 57.4004C16.3246 49.6053 19.0251 42.0524 23.9609 36.019C28.8967 29.9857 35.7648 25.8423 43.4037 24.2896L43.571 23.3193ZM56.6875 23.3506L56.8487 24.2481C64.5001 25.7961 71.3805 29.943 76.323 35.9855C81.2655 42.028 83.9658 49.594 83.9659 57.4004C83.9609 62.0345 83.0037 66.618 81.1537 70.8668L81.7928 71.6027C83.7915 67.1544 84.8321 62.3354 84.847 57.4587C84.8403 49.3891 82.027 41.5731 76.8895 35.3502C71.7519 29.1273 64.6099 24.8851 56.6875 23.3506ZM72.5762 82.6582C66.3974 88.1618 58.4155 91.2097 50.1409 91.225C41.9471 91.2154 34.0354 88.2318 27.8756 82.8285L26.7719 83.2127C33.1541 89.0022 41.4585 92.2158 50.0754 92.2304C58.7875 92.2145 67.1763 88.9287 73.5815 83.0233L72.5762 82.6582Z" fill="white"/>
</svg>
