<svg width="100" height="100" viewBox="0 0 100 100" fill="none" xmlns="http://www.w3.org/2000/svg">
<path d="M41.1203 89.6205L43.112 87.02C61.9878 87.4517 87.0763 72.9112 85.8264 43.3578L87.8272 40.8173L95.8389 43.0042V57.1452L88.1401 59.3204C87.8076 63.3828 85.7594 68.7754 83.4582 71.5094L87.0477 78.5664L77.4686 88.378L70.0892 84.9888C66.755 87.0885 63.1879 88.8387 59.1121 89.8259L57.1442 97.6563H43.5418L41.1203 89.6205ZM4.16211 56.8641V42.7433L12.3162 40.475C13.2079 36.4282 14.5413 32.4992 16.8237 28.8233L12.8427 21.4412L22.6134 11.3504L29.0664 15.2873C32.6279 12.802 36.4779 10.8938 40.9663 10.2624L43.0368 2.34375H56.6826L59.0094 10.4505L57.3758 13.0748C23.5464 12.442 15.8003 32.1453 14.6149 56.9639L12.1978 59.1221L4.16211 56.8641Z" fill="white" fill-opacity="0.501961"/>
<path d="M20.17 52.2324C19.5672 51.4447 20.4013 50.8438 21.0553 51.451C21.7632 52.2195 22.142 51.4037 21.8176 51.0361L40.4805 31.092C42.3042 29.418 42.1934 30.6667 43.9833 29.3952C48.7738 25.8241 54.3481 19.0969 57.2735 18.5771C56.8724 21.3297 50.9136 26.5284 46.2323 31.3856C45.4078 32.2651 46.7078 33.3067 45.2893 34.8472L25.3163 55.0152C24.822 54.4286 24.3493 54.9198 24.822 55.3705C25.8336 56.4223 24.8493 57.2013 24.0044 56.4467L20.17 52.2324Z" fill="white"/>
<path d="M26.1212 58.6738C25.5184 57.8861 26.3525 57.2852 27.0065 57.8925C27.7144 58.6609 28.0931 57.8451 27.7687 57.4776L46.4317 37.5334C47.366 36.6093 48.6329 36.7942 49.9345 35.8366C54.725 32.2655 60.2993 25.5383 63.2247 25.0186C62.8236 27.7711 56.8648 32.9698 52.1835 37.827C51.3589 38.7065 52.0835 40.2364 51.2405 41.2886L31.2675 61.4566C30.7732 60.87 30.3005 61.3612 30.7732 61.8119C31.7848 62.8637 30.8005 63.6427 29.9556 62.8881L26.1212 58.6738Z" fill="white"/>
<path d="M31.9884 64.8349C31.3856 64.0472 32.2197 63.4464 32.8736 64.0536C33.5816 64.822 33.9603 64.0063 33.6359 63.6387L52.2989 43.6945C53.2332 42.7704 54.5001 42.9554 55.8017 41.9978C60.5922 38.4266 66.1665 31.6994 69.0919 31.1797C68.6908 33.9323 62.732 39.1309 58.0506 43.9881C57.2261 44.8676 57.9507 46.3975 57.1077 47.4497L37.1347 67.6177C36.6404 67.0311 36.1677 67.5223 36.6404 67.973C37.652 69.0249 36.6676 69.8038 35.8228 69.0492L31.9884 64.8349Z" fill="white"/>
<path d="M37.9493 70.9384C37.3465 70.1507 38.1806 69.5499 38.8346 70.1571C39.5425 70.9255 39.9213 70.1098 39.5969 69.7422L58.2598 49.798C59.1941 48.8739 60.1122 49.0589 61.4139 48.1013C66.2043 44.5301 71.7786 37.8029 74.704 37.2832C74.3029 40.0358 68.693 45.2344 64.0116 50.0917C63.1871 50.9711 63.9116 52.501 63.0687 53.5532L43.0956 73.7212C42.6013 73.1346 42.1286 73.6258 42.6013 74.0765C43.6129 75.1284 42.6286 75.9073 41.7837 75.1527L37.9493 70.9384Z" fill="white"/>
<path d="M43.8439 77.2509C43.241 76.4632 44.0751 75.8624 44.7291 76.4696C45.437 77.238 45.8158 76.4223 45.4914 76.0547L64.1544 56.1105C65.0886 55.1864 66.3555 55.3714 67.6572 54.4138C72.4476 50.8426 77.1849 44.1154 80.1103 43.5957C79.7092 46.3483 74.5875 51.5469 69.9061 56.4042C69.0816 57.2836 69.8061 58.8135 68.9632 59.8657L48.9902 80.0337C48.4958 79.4471 48.0232 79.9383 48.4958 80.3891C49.5075 81.4409 48.5231 82.2198 47.6782 81.4652L43.8439 77.2509Z" fill="white"/>
</svg>
