<svg width="100" height="100" viewBox="0 0 100 100" fill="none" xmlns="http://www.w3.org/2000/svg">
<path fill-rule="evenodd" clip-rule="evenodd" d="M2.34375 59.6123V67.6288L25.3976 67.7394V70.7801L2.34375 70.946V78.0777H26.2823L34.575 69.7297H65.2587L73.9384 78.0777H97.6562V70.7247H74.8783V67.4904H97.6562V59.6123H73.8279L65.2587 68.1265H34.575L26.2823 59.6123H2.34375Z" fill="white"/>
<path fill-rule="evenodd" clip-rule="evenodd" d="M2.34375 20.6357V56.6821H27.1115L35.5702 65.1812H64.59L73.2197 56.6821H97.6562V20.6357H89.1973V24.7824L95.0574 29.4816V54.0283H62.3285L57.6845 58.9487L52.9299 54.0283H46.7932L42.0386 58.9487L37.1735 54.0283H4.49972V29.4263L10.526 25.2799L10.4156 20.6357H2.34375Z" fill="white"/>
<path fill-rule="evenodd" clip-rule="evenodd" d="M4.24023 81.1172H27.1095L35.5536 72.5947H64.5214L73.1609 81.1173L95.092 81.1172L93.02 83.15H85.5534V84.5573H13.9351V83.15H6.42943L4.24023 81.1172Z" fill="white"/>
<path fill-rule="evenodd" clip-rule="evenodd" d="M44.9746 49.2531L47.3984 44.9961H54.5133L57.2498 49.2531H44.9746Z" fill="white" fill-opacity="0.5"/>
<path fill-rule="evenodd" clip-rule="evenodd" d="M47.1641 41.9456L43.4111 35.6913L47.2814 29.123H54.6699L58.501 35.6522L54.8263 41.9456H47.1641Z" fill="white" fill-opacity="0.5"/>
<path fill-rule="evenodd" clip-rule="evenodd" d="M46.1868 15.4414L43.4111 20.0543L47.2423 26.2703H54.709L58.501 20.0543L55.7645 15.4414H46.1868Z" fill="white" fill-opacity="0.5"/>
<path fill-rule="evenodd" clip-rule="evenodd" d="M31.6445 15.4414L32.9359 18.5298L40.4808 18.4907L41.9651 15.4414H31.6445Z" fill="white" fill-opacity="0.5"/>
<path fill-rule="evenodd" clip-rule="evenodd" d="M15.3816 15.4414L13.3098 18.5689V17.279H9.24414V15.4414H15.3816Z" fill="white" fill-opacity="0.5"/>
<path fill-rule="evenodd" clip-rule="evenodd" d="M13.3098 21.3447V26.6223L9.24414 29.8279V34.1279H13.5052L17.2581 27.5991L13.3098 21.3447Z" fill="white" fill-opacity="0.5"/>
<path fill-rule="evenodd" clip-rule="evenodd" d="M9.24414 37.255V49.2524H13.7397L17.3362 43.4312L13.3488 37.1377L9.24414 37.255Z" fill="white" fill-opacity="0.5"/>
<path fill-rule="evenodd" clip-rule="evenodd" d="M19.799 44.9961L17.1406 49.2531H29.6503L26.9529 44.9961H19.799Z" fill="white" fill-opacity="0.5"/>
<path fill-rule="evenodd" clip-rule="evenodd" d="M33.3222 49.2528L29.4951 43.4315L33.0525 37.2158H40.5974L44.1157 43.3924L40.4801 49.2528H33.3222Z" fill="white" fill-opacity="0.5"/>
<path fill-rule="evenodd" clip-rule="evenodd" d="M32.9352 34.2051L29.4951 27.5985L32.9352 21.2656H40.4801L44.1157 27.5985L40.4801 34.2051H32.9352Z" fill="white" fill-opacity="0.5"/>
<path fill-rule="evenodd" clip-rule="evenodd" d="M19.7989 41.9456L15.7344 35.4953L19.7989 29.123H27.0322L30.8242 35.4562L27.1886 41.9456H19.7989Z" fill="white" fill-opacity="0.5"/>
<path fill-rule="evenodd" clip-rule="evenodd" d="M18.6653 15.4414L15.8506 20.0543L19.799 26.2703H27.1093L30.8231 20.0543L28.4385 15.4414H18.6653Z" fill="white" fill-opacity="0.5"/>
<path fill-rule="evenodd" clip-rule="evenodd" d="M58.8525 15.4414L60.8071 18.4907H68.1956L70.0722 15.4414H58.8525Z" fill="white" fill-opacity="0.5"/>
<path fill-rule="evenodd" clip-rule="evenodd" d="M73.2393 15.4414L70.6982 20.0543L74.4121 26.2703H81.8397L85.6317 20.0543L83.0907 15.4414H73.2393Z" fill="white" fill-opacity="0.5"/>
<path fill-rule="evenodd" clip-rule="evenodd" d="M86.335 15.4414L87.7814 17.3961H90.8305L90.987 16.3797L90.0097 15.4414H86.335Z" fill="white" fill-opacity="0.5"/>
<path fill-rule="evenodd" clip-rule="evenodd" d="M85.9438 24.4717L84.1455 27.9119L87.9766 34.1666H90.8302V30.4166L85.8494 26.7809L85.9438 24.4717Z" fill="white" fill-opacity="0.5"/>
<path fill-rule="evenodd" clip-rule="evenodd" d="M88.0156 37.1377L84.2627 43.4312L87.7029 49.2524H90.8301V37.1378L88.0156 37.1377Z" fill="white" fill-opacity="0.5"/>
<path fill-rule="evenodd" clip-rule="evenodd" d="M74.373 44.9961C74.0993 45.1525 71.9102 49.2531 71.9102 49.2531H84.3808L81.6443 44.9961H74.373Z" fill="white" fill-opacity="0.5"/>
<path fill-rule="evenodd" clip-rule="evenodd" d="M68.196 49.2525L71.9881 43.4312L68.196 37.0986H60.8075L57.0547 43.4312L60.8075 49.2525H68.196Z" fill="white" fill-opacity="0.5"/>
<path fill-rule="evenodd" clip-rule="evenodd" d="M74.2959 41.9456L70.5039 35.6908L74.4132 29.123H81.8017L85.5937 35.6517L81.9581 41.9456H74.2959Z" fill="white" fill-opacity="0.5"/>
<path fill-rule="evenodd" clip-rule="evenodd" d="M60.8072 34.3615L57.0947 27.9112L60.8072 21.5391L68.1957 21.5L72.1845 27.8721L68.1957 34.4788L60.8072 34.3615Z" fill="white" fill-opacity="0.5"/>
</svg>
