<svg width="100" height="100" viewBox="0 0 100 100" fill="none" xmlns="http://www.w3.org/2000/svg">
<path d="M43.7177 81.5726L44.5114 52.8575H48.1279V79.3464H50.9449V52.8575H54.382V81.5726M30.04 44.2749L35.7233 43.6411L31.9001 37.4504L37.5323 38.4777L36.4599 32.6209L38.8318 34.322V47.7756L30.04 44.2749ZM59.7172 34.9789L63.3397 32.8381L62.3059 38.687L67.7301 37.7261L64.3132 43.7929L69.9596 44.3055L59.6776 47.7961L59.7172 34.9789ZM59.7172 32.1856C59.7172 30.4135 59.6996 30.3607 60.8044 29.4857C61.4241 28.9949 61.9312 28.6665 61.9312 28.7559C61.9312 29.0399 59.8333 33.9929 59.7172 33.9929C59.6559 33.9929 59.7172 33.1796 59.7172 32.1856ZM38.3194 30.3738C37.9166 29.0464 37.9912 28.6713 38.5293 29.3197C38.7169 29.5457 38.83 30.1509 38.7807 30.6646L38.8318 31.5985L38.3194 30.3738Z" fill="white" fill-opacity="0.5"/>
<path d="M43.0571 94.4514C43.0571 91.9462 42.9648 91.1698 42.6346 90.8957C42.3087 90.6252 42.2121 89.8765 42.2121 87.6217V84.6983H56.0152V91.3183L59.2111 91.2299C61.5469 91.1661 62.6826 91.0333 62.8989 90.7523C63.4529 90.0329 64.573 89.9728 65.3939 90.6185C66.2528 91.2941 66.3665 92.1606 65.7179 93.0866C65.1464 93.9026 63.6293 93.9365 62.9169 93.1493C62.4641 92.649 62.0493 92.5859 59.2111 92.5859H56.0152C56.0152 94.2761 56.0152 95.9665 56.0152 97.6567H43.0572L43.0571 94.4514ZM36.5781 83.8299C36.5781 81.4908 36.6615 83.7358 38.6908 78.2934C40.7485 72.7749 40.8036 72.5607 40.8036 70.071V67.5148L45.8741 67.5147V70.3247C45.8741 73.134 45.8738 73.1354 44.1839 77.0696C43.2543 79.2339 42.4938 81.1359 42.4938 81.2964C42.4938 81.4568 43.074 81.1787 43.7832 80.6783C45.0471 79.7866 45.1426 79.7668 48.6247 79.6741C53.0364 79.5567 54.3727 79.749 55.4505 80.6558C56.0867 81.1911 56.297 81.6068 56.297 82.329V83.2899H49.369C42.5843 83.2899 42.4378 83.2777 42.2875 82.7027C41.9506 81.4145 41.6572 82.9563 41.653 86.0364L41.6487 89.2055H36.5781V83.8299ZM57.6221 89.1457L57.6221 85.952C57.6221 82.8508 57.1944 82.1127 54.2067 75.5982C53.2539 73.5207 53.1983 73.2365 53.1983 70.4462V67.5147H58.2689V70.6136C58.4259 73.4226 58.5607 73.8389 60.487 78.8834C62.5037 84.1647 62.2984 83.5314 62.3535 85.952V89.1458L57.6221 89.1457ZM46.3624 67.6558L49.0587 67.6557V73.2897H46.3624V67.6558ZM50.2199 73.2897L50.2405 67.6557H52.6349V73.2897H50.2199ZM40.5219 53.0075C40.3669 52.9118 40.2402 51.969 40.2402 50.9126C40.2402 48.2888 40.3327 48.2321 44.2641 48.4471C46.0018 48.5422 47.8355 48.7039 48.339 48.8066L49.2545 48.9932V52.7961C48.1373 53.0756 47.0136 53.1483 45.8741 53.1483V66.3881H40.8036C40.7097 61.9279 41.1511 55.0138 40.5219 53.0075ZM53.1983 53.1484H52.1938C51.2479 53.1483 50.5682 53.1892 50.2775 52.7961V48.9932C50.8096 48.7367 52.225 48.5965 54.3783 48.4633C56.5431 48.3293 57.6317 48.3772 58.2516 48.634C59.0935 48.9828 59.1139 49.0364 59.1139 50.8988C59.1139 52.3346 59.0094 52.8465 58.6914 52.9685C58.0798 53.6004 58.2689 66.3881 58.2689 66.3881H53.1983V53.1484ZM41.0738 35.084H43.0572V46.951H41.0738V35.084ZM45.5924 13.992H47.569V46.951H45.5924V13.992ZM50.3813 15.0835H52.2123V46.951H50.3813V15.0835ZM55.1701 25.0944H57.4238V46.951H55.1701V25.0944ZM41.0738 29.3995C41.0738 27.2264 41.0479 27.2209 41.9403 24.7237C42.9599 27.1987 42.9863 27.2106 43.0572 29.3995V31.4576H41.0738V29.3995ZM56.0905 13.6174C57.3016 17.3099 57.2923 17.3141 57.4238 21.0347H55.1701C55.1052 17.3457 55.105 17.3441 56.0905 13.6174ZM50.3813 11.1752C50.329 7.70213 50.3229 7.71556 51.2276 5.1356C52.107 7.64689 52.1065 7.6373 52.2123 11.1752H50.3813ZM45.2301 10.1557C45.201 6.10611 45.2042 6.11276 46.4518 2.62891C47.6456 6.01074 47.6393 6.02239 47.7052 10.1557H45.2301Z" fill="white"/>
</svg>
