<svg width="128" height="128" viewBox="0 0 128 128" fill="none" xmlns="http://www.w3.org/2000/svg">
<g clip-path="url(#clip0_539_10)">
<path d="M61.3378 13.051C62.9736 12.4852 64.758 12.9563 66.253 13.6936C67.3026 14.3668 68.3471 15.0478 69.5196 15.4881L69.8831 16.1537L69.7039 16.6043C70.5359 18.5038 71.0709 20.7515 70.2594 22.7457C69.709 23.419 68.749 23.5214 67.9708 23.7825C67.9682 24.7451 68.1218 25.7 68.2037 26.6548C69.8677 26.9236 71.2757 25.7665 72.9192 25.8817C73.1394 24.9601 73.316 24.0257 73.6104 23.1246C73.9509 23.7211 73.9637 24.4097 73.9688 25.083C74.3989 25.2059 74.8367 25.3134 75.2744 25.4235C75.2796 25.5873 75.2821 25.9176 75.2821 26.0814C82.4911 26.1249 89.6949 26.0481 96.9039 26.1224L96.8373 27.1105L97.5925 27.1131C97.5848 25.8024 97.5925 24.4891 97.5874 23.1784L98.3093 23.1579C98.3119 24.187 98.317 25.2187 98.3272 26.2504L98.957 27.0235L99.4306 26.468C99.9784 26.98 99.6661 27.6814 99.6431 28.3112C101.658 28.2907 103.696 28.4264 105.708 28.26L106.309 27.8222L107.141 28.1473C108.048 28.1243 108.959 28.1217 109.868 28.1192C109.847 28.5876 109.834 29.0561 109.817 29.5272C108.644 29.5067 107.469 29.4836 106.317 29.6808C105.569 29.0408 104.571 29.2456 103.673 29.22C102.29 29.2865 100.862 29.0408 99.5253 29.4836C98.7266 29.7038 97.8536 29.65 97.1522 29.1995C96.9832 29.6193 97.2418 30.5563 96.5352 30.5204C93.7551 30.5563 90.98 30.4948 88.2024 30.5384C87.821 30.738 87.437 30.93 87.0581 31.1144C86.6588 32.3099 85.5068 33.1086 84.5288 33.8382C84.406 35.6763 85.1356 37.3915 85.4172 39.1732C84.8693 39.3294 84.3164 39.4932 83.7788 39.6699C82.998 41.5054 83.4767 44.0065 81.6796 45.2865C80.2972 46.0878 79.3858 47.8312 77.5247 47.5547C78.4719 48.3432 77.2687 48.0948 77.3916 47.4651C74.0277 47.1681 71.1964 45.1969 68.2703 43.6916C68.1222 44.5144 67.9308 45.3287 67.6968 46.1313C68.8079 46.3412 69.7244 47.1579 69.924 48.2971C70.2773 50.7803 69.5656 53.243 69.5784 55.7287C69.6552 57.1905 69.0306 58.5294 68.2472 59.7224C67.5663 60.4955 66.486 59.6993 65.6668 59.5841C65.4799 59.9476 65.2981 60.3086 65.1189 60.6747C65.3493 61.6475 65.4517 62.6612 65.7768 63.6136C67.6072 65.636 69.2738 67.8273 70.5538 70.2439C71.8696 72.9806 73.0421 75.7838 74.0687 78.6408C74.1685 79.1988 74.6908 79.3985 75.1516 79.5982L75.3308 81.3236C75.51 81.5848 75.6892 81.8459 75.8786 82.1121C75.9887 85.6424 75.556 89.1572 75.0082 92.6414C74.6677 94.2132 75.5868 95.7492 75.213 97.3313C75.2565 98.1403 74.701 98.7521 74.4373 99.4689C74.3861 101.141 74.3042 102.835 74.4885 104.504C74.6165 105.728 75.6508 106.514 76.3548 107.428C77.1228 108.242 77.7628 109.333 78.9224 109.622C80.0167 109.946 81.0595 110.424 82.02 111.04C82.3144 111.767 82.2607 112.538 82.1224 113.293C80.0232 113.679 77.8805 113.487 75.7583 113.518C74.125 113.605 72.6658 112.727 71.0786 112.545C69.5426 112.507 67.6687 113.267 66.486 111.893C66.9877 109.985 67.0287 107.937 67.9452 106.158C68.237 104.141 67.6789 102.098 67.7967 100.065L67.0952 99.4766C67.2232 98.1454 66.5653 96.9678 66.3452 95.6955C66.2065 93.8405 66.0315 91.9884 65.8204 90.1403C65.6514 89.2391 66.1173 88.4174 66.7522 87.8184C66.8085 86.7816 66.9493 85.7524 67.0492 84.7208C66.8956 84.0526 66.3605 83.5534 66.0175 82.98C64.8655 83.4664 63.3167 83.236 62.6306 82.1096C61.0076 79.698 59.3896 77.2865 57.7487 74.8852C57.1036 74.8443 56.4226 74.9108 55.821 74.6548C55.1272 73.9406 54.7637 72.9908 54.3208 72.1256C53.686 72.8398 53.732 73.9304 52.9794 74.578C51.3896 76.1038 50.9672 78.3464 50.1378 80.2996C49.4978 81.5668 49.8562 83.0952 49.1471 84.3316C48.7682 84.9972 47.8159 85.1303 47.5624 85.8881C47.2348 86.7073 46.8456 87.5572 46.0776 88.0564C45.2405 88.6017 45.0204 89.6436 44.6466 90.5012C44.3061 91.2923 44.813 92.1217 44.6952 92.9332C44.1628 95.5188 42.5192 97.6744 41.828 100.204C41.5132 101.343 41.06 102.623 39.7365 102.866C38.2261 105.559 37.3967 108.854 38.2492 111.885C38.7714 112.837 38.7432 113.907 38.582 114.957C36.1858 115.144 33.7282 115.466 31.3756 114.796C30.8226 113.703 30.902 112.417 31.0172 111.237C31.7442 108.132 32.7068 105.083 33.2956 101.944C32.5608 101.292 32.7324 100.291 32.7452 99.41C32.7196 97.7768 33.8357 96.466 34.6088 95.122C34.9007 93.7448 34.7624 92.2625 35.4767 91.0004C36.3138 89.4158 37.0229 87.7057 38.3183 86.4257C38.564 85.2993 39.396 84.4468 39.7314 83.3614C40.0898 82.4014 39.4626 81.4286 39.5906 80.4481C39.8978 77.4708 40.438 74.5243 40.909 71.57C40.0207 70.8276 40.3074 69.65 40.0232 68.6516C40.164 68.2599 40.3381 67.8836 40.5506 67.5176L39.885 66.9032C40.1026 65.8536 40.0412 63.9719 41.6514 64.315C41.7538 60.8385 40.5455 57.4721 40.95 53.9931C41.165 54.2414 41.3775 54.4974 41.5925 54.7508L41.4773 53.5732C42.1506 53.2148 42.8674 52.9384 43.62 52.8001C42.3938 52.6388 41.2008 52.3265 40.0002 52.0475C39.7109 51.2846 39.8722 50.4731 39.9797 49.6923C40.4456 47.0555 40.6172 44.3854 40.7144 41.7153C42.0712 41.2443 43.5688 41.6436 44.8949 41.0139C44.4853 37.6731 44.3804 34.1864 45.5682 30.9812C46.5256 28.2523 48.3535 25.6206 51.2028 24.6632C52.5519 24.3406 54.2466 23.9796 55.1964 25.2852L55.9823 24.5582C53.8063 20.242 56.4047 13.9368 61.3404 13.051H61.3378ZM78.7407 31.7672C78.1672 32.1179 77.604 32.5198 78.2082 33.1572C77.9138 33.3313 77.6194 33.5003 77.3224 33.6616C76.8565 34.02 75.8095 34.2248 75.9324 34.9467C76.4546 35.7864 76.9052 36.6696 77.2789 37.5835C78.42 36.6191 79.3313 35.4122 79.9464 34.0507L80.4661 33.5259C80.4145 32.9149 80.2685 32.3156 80.0335 31.7492C79.6034 31.7569 79.1708 31.7646 78.7407 31.7672Z" />
</g>
<defs>
<clipPath id="clip0_539_10">
<rect width="128" height="128" />
</clipPath>
</defs>
</svg>
