<svg width="100" height="100" viewBox="0 0 100 100" fill="none" xmlns="http://www.w3.org/2000/svg">
<path d="M44.6575 13.5049L37.859 20.8039L38.5265 33.2334L49.9409 42.5343L61.3556 33.2334L62.0232 20.8039L55.2246 13.5049L58.6029 20.929L58.186 30.9812L49.9409 35.819L41.6962 30.9812L41.2792 20.929L44.6575 13.5049ZM34.6893 17.6343L25.972 28.0965L26.7647 37.7793L35.3565 45.6204L48.7865 52.6692L39.9445 41.2827L30.727 35.3185L29.7676 28.645L34.6893 17.6343ZM65.1928 17.6343L70.1145 28.645L69.1551 35.3185L59.9377 41.2827L51.0952 52.6692L64.5256 45.6204L73.1175 37.7793L73.9101 28.0965L65.1928 17.6343ZM23.7408 58.9257L23.6572 71.5009L32.6454 79.1753L27.4109 70.1451L28.3287 61.6574C26.2947 61.7982 25.1622 60.0611 23.7408 58.9257ZM76.1413 58.9257C74.7199 60.0611 73.5874 61.7982 71.5534 61.6574L72.4709 70.1451L67.2367 79.1753L76.2249 71.5009L76.1413 58.9257ZM46.3467 60.3436C42.764 61.8859 38.762 62.2953 34.6268 62.3456L32.9372 64.9735L35.4607 77.4442L45.7836 86.4949L38.9435 74.0659V66.5166L46.3467 60.3436ZM53.5355 60.3436L60.9386 66.5166V74.0659L54.0985 86.4949L64.4211 77.4442L66.9445 64.9735L65.2554 62.3456C61.1201 62.2953 57.1181 61.8859 53.5355 60.3436Z" fill="white" fill-opacity="0.497175"/>
<path d="M18.0405 41.8672L22.6285 51.7522C29.4552 58.3771 36.5327 58.0545 43.6909 55.5059L18.0405 41.8672ZM81.9596 41.8672L56.3088 55.5059C63.4671 58.0545 70.545 58.3771 77.3717 51.7522L81.9596 41.8672Z" fill="white"/>
</svg>
