<svg width="100" height="100" viewBox="0 0 100 100" fill="none" xmlns="http://www.w3.org/2000/svg">
<path d="M48.0936 14.5332L3.96591 20.3308L2.79785 48.3074L18.5419 36.568C23.6406 37.5161 28.2793 39.936 32.8279 42.6445L36.2062 39.5996C40.8848 41.4224 44.7358 43.8664 47.635 47.0237L44.8816 50.8503C60.4669 63.3637 66.5349 73.2118 75.3294 86.8976C67.9903 72.1877 60.8854 58.5166 53.9747 53.2802L56.0182 48.3074C50.4134 41.882 44.7495 38.4326 39.0844 35.0536C47.064 37.1135 54.7546 40.4363 61.5652 47.6078C59.2463 51.4551 59.5752 51.9197 59.1047 53.4053C67.2582 62.9455 74.6748 72.6632 79.6251 82.9765C75.7294 73.5226 71.3604 64.0685 65.6942 54.6146L76.3303 64.0411L79.8338 61.0798C86.2233 65.5765 91.3725 73.6015 95.9333 83.7692C93.1259 73.3488 88.2797 63.1452 80.2507 53.2802L76.1217 57.2845L67.655 48.5294L70.6163 45.7729C59.9797 37.4005 48.7438 29.5925 34.2584 24.8489L48.0936 14.5332ZM80.4647 67.1596L77.9283 68.7523C83.0493 75.4953 86.3061 80.2561 89.932 85.5041C86.835 79.3502 83.7863 73.1638 80.4647 67.1596Z" fill="white"/>
<path d="M55.2671 20.8311L48.9694 25.7104C54.2049 28.2982 58.9389 30.9518 63.215 33.6004L69.7744 29.7601C65.2379 26.5335 60.3705 23.5835 55.2671 20.8311ZM72.8223 32.01L66.6051 35.7599C68.6877 37.1253 70.6488 38.4845 72.495 39.8275L79.8738 37.98C77.6467 35.887 75.2904 33.9015 72.8223 32.01ZM83.1101 41.1966L76.3608 42.7446C78.9174 44.7451 81.2144 46.6916 83.27 48.5506L88.6399 47.7354C86.9277 45.4461 85.08 43.2703 83.1101 41.1966ZM21.4833 44.396L15.894 48.5292C20.6492 50.5017 25.1006 52.6464 29.2707 54.9566L34.9404 51.6801C30.9539 49.1306 26.484 46.6988 21.4833 44.396ZM91.1485 51.3227L86.7871 51.8678C94.0713 59.039 97.4279 64.3564 98.1019 65.4172C96.2934 60.2931 93.9486 55.6175 91.1485 51.3227ZM38.2642 53.9113L32.9377 57.0737C35.4106 58.5618 37.7785 60.1129 40.0464 61.7254L46.1179 60.2376C43.7705 58.0631 41.1604 55.9524 38.2642 53.9113ZM49.4607 63.5644L44.0625 64.7268C46.3871 66.5517 48.5974 68.4483 50.7016 70.4141C51.971 70.2238 53.346 70.0137 54.5587 69.8278C53.0565 67.692 51.3634 65.6028 49.4607 63.5644ZM57.0104 73.6379C56.1902 73.7388 55.275 73.8524 54.3195 73.9713C56.5727 76.3012 58.6939 78.7188 60.6893 81.2246C59.6788 78.6432 58.4604 76.1124 57.0104 73.6379Z" fill="white" fill-opacity="0.497175"/>
</svg>
