<svg width="100" height="100" viewBox="0 0 100 100" fill="none" xmlns="http://www.w3.org/2000/svg">
<path d="M54.2014 16.0531C55.0829 16.2999 55.8939 16.6878 55.9997 16.9346C56.2818 17.7103 55.0124 22.5057 54.413 22.9641C54.0251 23.2814 52.5442 23.4225 49.8997 23.4225C47.1846 23.4225 45.8447 23.2814 45.5979 22.9641C45.1043 22.3647 44.0465 18.204 44.1875 17.3224C44.258 16.7935 44.7164 16.4409 45.7037 16.1588C47.5372 15.5947 52.1916 15.5594 54.2014 16.0531ZM43.0239 20.7427C44.0112 24.8329 44.2228 24.9739 49.6881 25.115C55.8587 25.256 56.3171 24.9387 57.3396 20.0375C57.5864 18.7681 57.9038 17.6398 58.0096 17.534C58.3269 17.1814 61.8882 19.3675 63.5807 20.9543L65.2732 22.541L64.0038 27.83C62.7697 32.837 62.6992 33.5422 62.4876 40.8764L62.2761 48.6336L59.5258 50.0088L56.7754 51.4192L50.1112 51.384H43.4823L40.6262 50.0441C38.969 49.2683 37.7348 48.4573 37.6996 48.14C37.6643 47.8227 37.6291 44.5434 37.6291 40.8764C37.5938 34.3885 37.5585 34.0006 36.2187 28.2179L34.8435 22.2236L36.1834 21.1658C38.299 19.4028 41.7545 17.393 42.0719 17.7103C42.2482 17.8866 42.6713 19.2618 43.0239 20.7427ZM27.192 21.2011C27.1567 21.3774 26.8041 22.1884 26.381 23.0699L25.6053 24.6566L21.9029 24.8329L18.2359 25.0092L16.7549 27.4774C15.9087 28.8173 15.2387 30.2277 15.2387 30.5803C15.2035 30.9329 15.8382 32.1318 16.6139 33.2954C17.6717 34.8468 17.8833 35.411 17.5659 35.6931C16.9665 36.1867 14.5688 36.8919 14.2162 36.7156C13.7225 36.3983 10.6196 31.2855 10.6196 30.7919C10.6196 30.3688 13.7578 24.4803 15.4503 21.73C15.9087 20.9895 16.085 20.9543 21.5503 20.9543C24.6533 20.9543 27.192 21.06 27.192 21.2011ZM85.2658 22.7173C85.7242 23.5988 86.9231 25.7144 87.9103 27.4069C89.9554 30.9682 89.9554 30.6156 87.2757 34.7763C85.7595 37.1388 85.6537 37.2093 84.5606 36.9625C83.9612 36.8567 83.0797 36.6099 82.6213 36.4336C81.7045 36.081 81.7398 36.0104 83.8907 32.6254C85.2658 30.5098 85.3011 30.8624 82.9739 26.7722L81.9866 25.0092L78.3548 24.9034L74.7582 24.7976L74.0883 23.3167C72.9599 20.8485 72.7836 20.919 78.8837 21.0248L84.3843 21.1306L85.2658 22.7173ZM34.2088 30.4393L36.3597 34.2827V40.8411C36.3597 45.1076 36.2187 47.3995 36.0071 47.3995C35.7955 47.3995 34.7025 46.9411 33.5741 46.3417C32.4458 45.7776 31.4232 45.3897 31.3175 45.4955C31.1059 45.707 33.3273 51.1371 33.9267 51.8776C34.1736 52.1597 35.1608 52.7944 36.1481 53.288C37.6643 54.0637 38.2285 54.1695 40.0973 53.9932C42.2129 53.7817 42.354 53.8169 44.258 55.1568C45.3511 55.9325 46.2326 56.4262 46.2326 56.2499C46.2326 56.1088 45.8447 55.3684 45.3511 54.6632C44.8574 53.958 44.4696 53.2175 44.4696 53.0412C44.4696 52.8296 46.7615 52.6886 50.1112 52.6886C53.2141 52.6886 55.7529 52.7944 55.7529 52.9001C55.7529 53.0059 55.2593 53.8169 54.6598 54.6632C54.0604 55.5447 53.6373 56.3204 53.7078 56.3909C53.7783 56.4614 54.7303 55.8973 55.8234 55.1568C57.7275 53.8874 57.9743 53.8169 59.9136 53.9932C61.5356 54.1343 62.3113 54.0285 63.757 53.3938C64.7443 52.9707 65.8374 52.336 66.1547 52.0186C66.7189 51.3487 69.2224 45.566 68.9755 45.3544C68.905 45.2839 67.9177 45.707 66.7894 46.3065C65.6611 46.9059 64.5327 47.3995 64.3212 47.3995C63.9686 47.3995 63.8628 45.8128 63.8628 40.6648C63.8628 33.8948 63.8628 33.8948 64.8501 32.2728C65.379 31.3913 66.1194 30.0867 66.5073 29.3462C66.8599 28.641 67.4241 27.689 67.7767 27.2659L68.3761 26.4549L69.2576 28.2179C70.0686 29.8751 70.1391 30.3335 70.3154 37.8792C70.4565 44.1908 70.6328 46.5885 71.2675 49.5504L72.0432 53.2528L70.668 55.5094L69.2929 57.7661L65.9784 58.8592L62.6287 59.9875L60.6541 63.4783C58.7148 66.9338 58.6795 66.969 56.1055 68.2737C53.6725 69.543 53.3904 69.6136 50.1112 69.6136C46.832 69.6136 46.5499 69.543 44.0817 68.2737C41.4724 66.969 41.4724 66.969 39.5331 63.4783L37.5938 59.9875L34.4204 58.8944C32.6574 58.295 31.0354 57.6956 30.8238 57.5193C30.6123 57.3782 29.907 56.3557 29.2724 55.2273L28.144 53.2175L28.7787 50.2204C29.2724 47.999 29.4839 45.0018 29.6602 38.5844C29.8365 31.1798 29.9423 29.7694 30.5065 28.7115C31.1412 27.4774 31.7758 26.5959 31.9522 26.5959C32.0227 26.5959 33.0452 28.3237 34.2088 30.4393ZM63.9333 70.1072C64.3564 71.0592 64.6738 70.4598 59.3142 78.9576C57.7275 81.4963 56.1408 83.6472 55.8234 83.7882C55.5061 83.9293 52.7205 84.0351 49.6881 84.0351L44.117 84.0703L42.6008 81.6726C38.0522 74.7263 35.9718 71.2355 36.0776 70.7419C36.1481 70.4598 36.4302 70.0719 36.7476 69.8604C37.2059 69.5783 37.8054 69.8604 39.6389 71.3061C40.9083 72.3286 42.2834 73.739 42.7066 74.4795C43.1297 75.1847 44.0817 76.7009 44.7869 77.8292L46.0563 79.8391L50.1112 79.7685L54.1309 79.6628L56.2818 76.2778C58.2916 73.0338 61.9235 69.2962 63.087 69.261C63.3339 69.261 63.6865 69.6488 63.9333 70.1072Z" fill="white"/>
<path d="M46.585 28.7463C46.585 29.4867 49.7937 38.9365 50.0757 38.9365C50.2873 38.9365 53.637 29.2752 53.637 28.6052C53.637 28.4642 52.0503 28.3584 50.111 28.3584C47.8543 28.3584 46.585 28.4995 46.585 28.7463Z" fill="white"/>
<path d="M49.3708 59.4586C48.1015 59.8817 47.5726 61.2921 47.7136 64.0072L47.8194 66.2638L48.6304 64.9239C49.6529 63.1609 50.6755 63.2667 51.698 65.1707L52.4032 66.5459L52.509 63.9719C52.65 60.4459 51.4512 58.7181 49.3708 59.4586Z" fill="white"/>
</svg>
