<svg width="100" height="100" viewBox="0 0 100 100" fill="none" xmlns="http://www.w3.org/2000/svg">
<path d="M75.003 14.7334C75.003 15.2052 74.91 15.6724 74.7295 16.1083C74.5489 16.5442 74.2843 16.9403 73.9507 17.2739C73.617 17.6075 73.221 17.8722 72.7851 18.0527C72.3492 18.2333 71.882 18.3262 71.4102 18.3262C70.4573 18.3262 69.5435 17.9477 68.8697 17.2739C68.1959 16.6001 67.8174 15.6863 67.8174 14.7334C67.8174 14.2616 67.9103 13.7944 68.0909 13.3585C68.2714 12.9226 68.5361 12.5266 68.8697 12.1929C69.2033 11.8593 69.5994 11.5947 70.0353 11.4141C70.4712 11.2336 70.9384 11.1406 71.4102 11.1406C71.882 11.1406 72.3492 11.2336 72.7851 11.4141C73.221 11.5947 73.617 11.8593 73.9507 12.1929C74.2843 12.5266 74.5489 12.9226 74.7295 13.3585C74.91 13.7944 75.003 14.2616 75.003 14.7334Z" fill="white"/>
<path d="M94.9248 50.1192C94.9248 51.072 94.5463 51.9859 93.8725 52.6597C93.1988 53.3334 92.2849 53.712 91.3321 53.712C90.3792 53.712 89.4653 53.3334 88.7916 52.6597C88.1178 51.9859 87.7393 51.072 87.7393 50.1192C87.7393 49.1663 88.1178 48.2525 88.7916 47.5787C89.4653 46.9049 90.3792 46.5264 91.3321 46.5264C92.2849 46.5264 93.1988 46.9049 93.8725 47.5787C94.5463 48.2525 94.9248 49.1663 94.9248 50.1192Z" fill="white"/>
<path d="M12.7618 50.1192C12.7618 50.591 12.6688 51.0582 12.4883 51.4941C12.3077 51.93 12.0431 52.326 11.7095 52.6597C11.3758 52.9933 10.9798 53.2579 10.5439 53.4385C10.108 53.619 9.64078 53.712 9.16897 53.712C8.2161 53.712 7.30226 53.3334 6.62848 52.6597C5.9547 51.9859 5.57617 51.072 5.57617 50.1192C5.57617 49.1663 5.9547 48.2525 6.62848 47.5787C7.30226 46.9049 8.2161 46.5264 9.16897 46.5264C10.1218 46.5264 11.0357 46.9049 11.7095 47.5787C12.3832 48.2525 12.7618 49.1663 12.7618 50.1192Z" fill="white"/>
<path d="M30.4822 5.75781L21.7216 11.0142L22.0372 15.2191L5.75187 43.6533L2.34375 45.2317V55.4112L5.28729 56.6729L22.4224 86.3178V89.0511L31.4152 94.2428L34.3015 92.0295H67.2054L68.8523 93.431L77.9981 88.3503L77.8227 85.4068L94.6426 56.6029L97.6563 55.3411L97.5862 45.1094L94.3271 43.4973L78.5234 16.1653L78.7337 11.7498L69.7981 6.45856L67.4857 8.45628H34.0564L30.4822 5.75781ZM34.3433 16.3825L65.9467 16.2861C64.7078 10.5054 70.2525 7.44894 74.1438 9.95278C78.9151 12.5461 76.2726 20.0078 71.6708 19.8309L87.0753 46.3533C89.7277 43.2204 96.5557 43.9953 96.6266 50.1906C96.1655 55.8146 89.8952 56.8456 87.2488 53.7379L71.6604 80.6251C75.1205 81.318 78.3649 86.5985 73.5446 90.405C68.8523 93.431 63.4386 88.6559 65.4643 84.0653H34.9154C36.75 88.9597 32.0982 93.5328 27.2234 91.0276C22.1037 87.8459 25.2998 80.9675 28.6157 81.2248L12.8887 53.9849C9.41484 57.1606 3.73577 55.1154 3.47308 50.2187C3.2834 45.8824 9.08112 42.5027 12.8887 46.5411L28.4283 19.4375C21.9863 17.3051 23.9368 11.4672 26.2695 9.71061C30.0961 6.52349 37.5437 10.9707 34.3433 16.3825Z" fill="white"/>
<path d="M33.6993 86.5674C33.6993 87.5203 33.3207 88.4341 32.647 89.1079C31.9732 89.7817 31.0593 90.1602 30.1065 90.1602C29.1536 90.1602 28.2398 89.7817 27.566 89.1079C26.8922 88.4341 26.5137 87.5203 26.5137 86.5674C26.5137 86.0956 26.6066 85.6284 26.7872 85.1925C26.9677 84.7566 27.2324 84.3605 27.566 84.0269C27.8996 83.6933 28.2957 83.4287 28.7316 83.2481C29.1675 83.0675 29.6347 82.9746 30.1065 82.9746C30.5783 82.9746 31.0455 83.0675 31.4814 83.2481C31.9173 83.4287 32.3133 83.6933 32.647 84.0269C32.9806 84.3605 33.2452 84.7566 33.4258 85.1925C33.6063 85.6284 33.6993 86.0956 33.6993 86.5674Z" fill="white"/>
<path d="M74.2608 85.9981C74.2608 86.9509 73.8823 87.8648 73.2085 88.5386C72.5347 89.2123 71.6209 89.5909 70.668 89.5909C69.7151 89.5909 68.8013 89.2123 68.1275 88.5386C67.4537 87.8648 67.0752 86.9509 67.0752 85.9981C67.0752 85.0452 67.4537 84.1314 68.1275 83.4576C68.8013 82.7838 69.7151 82.4053 70.668 82.4053C71.6209 82.4053 72.5347 82.7838 73.2085 83.4576C73.8823 84.1314 74.2608 85.0452 74.2608 85.9981Z" fill="white"/>
<path d="M33.4268 14.1914C33.4268 14.6632 33.3339 15.1304 33.1533 15.5663C32.9728 16.0022 32.7081 16.3983 32.3745 16.7319C32.0409 17.0655 31.6448 17.3302 31.2089 17.5107C30.773 17.6913 30.3058 17.7842 29.834 17.7842C29.3622 17.7842 28.895 17.6913 28.4591 17.5107C28.0232 17.3302 27.6271 17.0655 27.2935 16.7319C26.9599 16.3983 26.6953 16.0022 26.5147 15.5663C26.3341 15.1304 26.2412 14.6632 26.2412 14.1914C26.2412 13.7196 26.3341 13.2524 26.5147 12.8165C26.6953 12.3806 26.9599 11.9846 27.2935 11.6509C27.6271 11.3173 28.0232 11.0527 28.4591 10.8721C28.895 10.6916 29.3622 10.5986 29.834 10.5986C30.3058 10.5986 30.773 10.6916 31.2089 10.8721C31.6448 11.0527 32.0409 11.3173 32.3745 11.6509C32.7081 11.9846 32.9728 12.3806 33.1533 12.8165C33.3339 13.2524 33.4268 13.7196 33.4268 14.1914Z" fill="white"/>
<path d="M15.9678 47.525H27.9261L36.6231 35.6984L40.6867 52.4483L50.2014 24.1023L58.8737 53.3898L62.1401 34.6577L70.1579 47.525L84.2608 47.5251L67.992 19.3945H32.4109L15.9678 47.525Z" fill="white"/>
<path d="M15.9678 53.2743H30.4823L34.6522 47.3523L40.399 68.7275L50.2105 40.1338L59.2161 75.4203L64.6826 47.4925L68.3619 53.2743L84.1304 53.2743L68.0465 81.062H32.1993L15.9678 53.2743Z" fill="white"/>
</svg>
