<svg width="100" height="100" viewBox="0 0 100 100" fill="none" xmlns="http://www.w3.org/2000/svg">
<path d="M8.26855 72.6823V62.9243L10.1848 62.9243L10.1847 71.4656L40.5088 90.9237L40.5088 87.3929H58.9045L58.9046 90.9237L89.1578 71.5075V62.9243H90.8849V72.6864L56.7366 94.5903V89.0606L42.4882 89.0607V94.5903L8.26855 72.6823ZM14.4783 68.857L14.4782 62.3486H16.5119L16.5119 67.343L24.3199 72.387L33.4422 69.5458H66.2815L75.2522 72.387L82.8924 67.4195V62.3486H85.1277V68.9372L61.5863 83.589H37.7744L14.4783 68.857Z" fill="white" fill-opacity="0.5"/>
<path d="M30.8726 59.8811L30.6888 58.0766L41.3683 60.6343L45.5607 59.055H54.2698L58.3582 60.6343L69.0667 58.0766L68.6879 59.8811L58.5183 62.6183L54.2698 61.4277H45.5607L41.2346 62.6183L30.8726 59.8811ZM41.6662 56.7532L45.3641 54.5764H54.0891L57.7809 56.7532V58.3113L53.7404 56.561H45.6301L41.6607 58.3101L41.6662 56.7532ZM13.4221 55.2765L15.7008 46.758L28.3058 45.6518L28.3146 47.2139L21.1543 47.9505L19.8992 50.2585H27.5554L26.7741 54.2446L27.8433 56.4639L13.4221 55.2765ZM30.6746 54.1727L29.6941 51.9639L30.8928 43.332C30.8485 43.2169 36.7777 40.4972 40.1411 40.1743C41.0121 40.1351 42.3405 40.3676 43.3002 41.2337L42.956 46.705L39.9332 46.6073L31.1623 50.1351L39.882 48.2911L43.8892 48.3882L44.3212 41.3059C47.2288 42.6159 52.5154 42.6565 55.3878 41.3059L55.7658 48.3882L59.7721 48.2926L68.5575 50.221L60.6871 46.8994H57.1079L56.4855 41.2337C57.5632 40.6321 58.5593 40.2755 59.457 40.2137C61.0875 40.1726 65.8415 41.8782 68.8636 43.2489L70.2021 51.9639L68.9115 54.1727L59.7616 55.4064L54.4705 52.7281H45.2589L40.2384 55.4064L30.6746 54.1727ZM33.2603 52.9931C33.0058 52.4346 32.7171 52.2734 31.9711 52.2734C31.2308 52.2734 31.0098 52.3948 31.0098 52.8012C31.0098 53.5605 31.2572 53.7127 32.4909 53.7127C33.5569 53.7127 33.5788 53.6922 33.2603 52.9931ZM68.7575 52.9039C68.9873 52.2784 68.9399 52.2443 67.958 52.3282C67.2497 52.3887 66.7727 52.6316 66.4739 53.0839C66.0346 53.749 66.0365 53.7503 67.2734 53.6597C68.2621 53.5872 68.5626 53.4341 68.7575 52.9039ZM40.0046 44.8597V41.4166L33.4759 43.3803H37.8747L37.6607 46.0261L40.0046 44.8597ZM61.6449 46.0261V43.3803H65.9886L59.4422 41.4166V44.8597L61.6449 46.0261ZM8.48793 54.8907C5.19841 54.5674 4.65133 50.8975 3.82159 48.5648C2.233 44.0682 2.17191 43.7934 2.50942 42.6636C2.95778 41.1627 4.25226 39.0713 4.4098 39.3387L8.9883 47.1105L14.3138 46.941L11.5821 55.023L8.48793 54.8907Z" fill="white"/>
<path d="M86.578 55.3577L84.1466 46.6483L71.6943 45.733L71.6855 47.295L78.8458 48.0317L80.101 50.3397H72.4447L73.2261 54.3258L72.1569 56.5451L86.578 55.3577ZM91.5122 54.9719C94.8017 54.6486 95.3488 50.9787 96.1786 48.646C97.7671 44.1494 97.8282 43.8746 97.4907 42.7448C97.0424 41.2439 95.9007 39.4199 95.5903 39.4199C94.2971 39.61 93.168 44.6202 91.0882 47.1153L85.6482 46.9076L88.418 55.1042L91.5122 54.9719Z" fill="white"/>
<path d="M90.8849 27.3179V36.4721H89.1578V28.5346L58.9046 9.07678V12.6072L40.5088 12.6071V9.07678L10.1848 28.4649V36.4721H8.26855V27.286L42.4882 5.41016V10.9399H56.7366V5.41016L90.8849 27.3179ZM84.9778 30.4151V37.0478H82.8924V31.9329L75.1362 27.2728L66.014 29.969H33.1746L24.2039 27.2728L16.5119 31.9329V37.0478L14.4782 37.0478V30.4151L37.8698 15.8637H61.6817L84.9778 30.4151Z" fill="white" fill-opacity="0.5"/>
<path d="M31.127 62.3818V61.4082L34.4485 62.1718L35.3267 63.5844L31.127 62.3818Z" fill="white"/>
<path d="M68.3404 62.3818V61.4082L65.0188 62.1718L64.1406 63.5844L68.3404 62.3818Z" fill="white"/>
</svg>
