<svg width="100" height="100" viewBox="0 0 100 100" fill="none" xmlns="http://www.w3.org/2000/svg">
<path d="M49.7168 13.6055L40.363 19.3591V33.0061L33.1424 36.6536V45.0363L30.0642 46.767V25.7028L19.2764 31.9777V67.424L49.7168 87.0984L80.0596 67.424V31.9777L68.8898 25.7028V46.767L66.1051 45.0363V36.6536L58.722 33.0061V19.3591L49.7168 13.6055ZM49.7168 31.6827L61.8761 46.6389H56.2523V58.6225H70.4824V67.2606L49.7168 80.6368L30.0642 68.0092V58.7548H43.5077L43.5025 45.9111H38.5512L49.7168 31.6827Z" fill="white"/>
<path d="M33.0537 62.0083L33.0563 66.4938L49.7169 76.9218L66.9004 66.3285V62.0084L53.058 62.0083V44.1232L55.9636 44.1275L49.7169 35.4316L43.7164 44.1232H47.326L47.1592 62.0083H33.0537Z" fill="white" fill-opacity="0.5"/>
<path d="M11.7047 45.4544V27.9544L27.8814 17.9639V11.3477L5.7832 24.9109V45.4544H11.7047Z" fill="white" fill-opacity="0.5"/>
<path d="M88.2958 45.5677V28.0677L72.1191 18.0772V11.4609L94.2174 25.0242V45.5677H88.2958Z" fill="white" fill-opacity="0.5"/>
<path d="M11.7995 55.0674V72.5674L27.9761 82.5579V89.1742L5.87793 75.6109V55.0674H11.7995Z" fill="white" fill-opacity="0.5"/>
<path d="M88.1855 55.2344V72.7344L72.0088 82.7249V89.3412L94.107 75.7779V55.2344H88.1855Z" fill="white" fill-opacity="0.5"/>
<path d="M31.9229 84.3467V86.721L49.7173 97.6565L67.248 86.8389V84.3578L49.7173 95.3408L31.9229 84.3467Z" fill="white"/>
<path d="M31.792 15.6535V13.2793L49.5865 2.34375L67.1171 13.1613V15.6424L49.5865 4.65943L31.792 15.6535Z" fill="white"/>
</svg>
