<svg width="75" height="75" viewBox="0 0 75 75"  xmlns="http://www.w3.org/2000/svg">
<path d="M28.1026 6.75861V38.0013L23.6907 30.4704V13.6693L18.5457 8.52432V6.75947L28.1026 6.75861Z" />
<path d="M20.7664 13.7444V14.431H16.7862L16.2952 13.7444H20.7664Z" />
<path d="M8.54214 13.1599C6.98754 13.1599 5.49661 13.7774 4.39733 14.8767C3.29806 15.976 2.68049 17.4669 2.68048 19.0215C2.68049 20.5761 3.29806 22.0671 4.39733 23.1663C5.49661 24.2656 6.98754 24.8832 8.54214 24.8832C9.03668 24.8796 9.52877 24.8135 10.0067 24.6863L33.1461 64.5178C32.2242 65.5819 31.7161 66.9422 31.7147 68.3501C31.7147 69.9047 32.3323 71.3957 33.4316 72.4949C34.5308 73.5942 36.0218 74.2118 37.5764 74.2118C39.131 74.2118 40.6219 73.5942 41.7212 72.4949C42.8205 71.3957 43.438 69.9047 43.438 68.3501C43.4374 66.8892 42.8912 65.4811 41.9065 64.4019L64.9787 24.6863C65.4566 24.8135 65.9487 24.8796 66.4432 24.8832C67.9978 24.8832 69.4888 24.2656 70.5881 23.1663C71.6873 22.0671 72.3049 20.5761 72.3049 19.0215C72.3049 17.4669 71.6873 15.976 70.5881 14.8767C69.4888 13.7774 67.9978 13.1599 66.4432 13.1599C65.1288 13.163 63.8536 13.6078 62.8224 14.4228C61.7912 15.2379 61.0639 16.3758 60.7572 17.6539H54.1981V21.357H61.074C61.2804 21.8266 61.5476 22.2672 61.8687 22.6673L38.6733 62.596C38.3118 62.5258 37.9446 62.4898 37.5764 62.4885C37.1568 62.4891 36.7385 62.5347 36.3287 62.6246L13.1166 22.6673C13.4378 22.2672 13.705 21.8266 13.9114 21.357H20.7873V17.6539H14.2281C13.9215 16.3758 13.1941 15.2378 12.1629 14.4228C11.1317 13.6078 9.85654 13.163 8.54214 13.1599ZM8.54214 14.5975C9.71545 14.5976 10.8407 15.0637 11.6703 15.8933C12.5 16.723 12.9661 17.8482 12.9661 19.0215C12.9661 20.1948 12.5 21.3201 11.6703 22.1497C10.8407 22.9794 9.71545 23.4455 8.54214 23.4455C7.36884 23.4455 6.2436 22.9794 5.41394 22.1497C4.58429 21.3201 4.11818 20.1948 4.11814 19.0215C4.11818 17.8482 4.58429 16.723 5.41394 15.8933C6.2436 15.0637 7.36884 14.5976 8.54214 14.5975ZM66.4432 14.5975C67.6165 14.5976 68.7418 15.0637 69.5714 15.8933C70.4011 16.723 70.8672 17.8482 70.8672 19.0215C70.8672 20.1948 70.4011 21.3201 69.5714 22.1497C68.7418 22.9794 67.6165 23.4455 66.4432 23.4455C65.2699 23.4455 64.1447 22.9794 63.315 22.1497C62.4854 21.3201 62.0193 20.1948 62.0192 19.0215C62.0193 17.8482 62.4854 16.723 63.315 15.8933C64.1447 15.0637 65.2699 14.5976 66.4432 14.5975ZM37.5764 63.9261C38.7497 63.9262 39.8749 64.3923 40.7046 65.2219C41.5342 66.0516 42.0003 67.1768 42.0004 68.3501C42.0003 69.5234 41.5342 70.6487 40.7046 71.4783C39.8749 72.308 38.7497 72.7741 37.5764 72.7741C36.4031 72.7741 35.2778 72.308 34.4482 71.4783C33.6185 70.6487 33.1524 69.5234 33.1524 68.3501C33.1524 67.1768 33.6185 66.0516 34.4482 65.2219C35.2778 64.3923 36.4031 63.9262 37.5764 63.9261Z" />
<path d="M11.3938 32.3235L10.2156 32.4724L26.6052 60.4614L27.2644 59.6283L11.3938 32.3235Z" />
<path d="M46.8829 6.75861V38.0013L51.2948 30.4704V13.6693L56.4398 8.52432V6.75947L46.8829 6.75861Z" />
<path d="M54.2191 13.7444V14.431H58.1993L58.6903 13.7444H54.2191Z" />
<path d="M63.5917 32.3235L64.7699 32.4724L48.3803 60.4614L47.7211 59.6283L63.5917 32.3235Z" />
<path d="M31.0684 0.941864V47.0295L37.4928 58.3357L43.917 47.0295V0.941864H37.4928H31.0684Z" />
</svg>
