<svg width="75" height="75" viewBox="0 0 75 75"  xmlns="http://www.w3.org/2000/svg">
<path d="M28.1133 10.7628C27.8581 10.8328 25.717 12.0725 24.661 13.1645C24.1332 13.999 23.7196 13.5398 24.0632 13.1213C24.4204 12.5073 25.9914 11.6478 26.6283 11.2282C25.8482 11.5011 24.9879 11.8445 24.0751 12.267C24.0352 13.0847 23.0747 13.5867 23.435 12.5723C20.8523 13.8408 17.9178 15.7274 15.2139 18.4138C15.0998 18.5483 13.9374 22.1563 13.4866 21.0938C13.609 20.6862 14.6285 19.009 14.5224 19.1205C14.0568 19.6099 13.5988 20.1195 13.1509 20.6495C13.0707 20.8138 13.2686 21.1755 13.0027 21.3371C13.056 21.9269 12.5337 22.2938 12.4389 21.5203C9.87069 24.7692 7.71061 28.7154 6.53172 33.3135C7.82151 31.7888 7.45129 33.3353 6.22177 34.6467C6.04502 35.4928 5.90159 36.3597 5.79464 37.2471C5.7707 37.4458 6.66562 36.8358 6.82748 36.7154C7.27598 36.3817 7.36351 36.8706 6.10459 37.6848C5.71742 37.9352 6.00125 38.5808 6.40398 38.7077C7.48814 39.2166 5.58657 39.9544 5.58108 40.1585C5.53946 41.6976 5.60822 43.292 5.80058 44.9407C5.84382 44.7267 6.04917 44.0969 6.05178 44.1726C5.95792 44.4512 6.63982 44.6941 6.7169 44.7645C6.82103 44.9411 6.6807 45.136 6.39573 45.4372C6.39573 45.4372 7.06959 46.7548 6.93872 46.9064C6.89913 46.9522 7.44011 46.6799 7.44011 46.6799C7.89277 47.1757 7.8337 47.6683 6.92584 47.5646C6.61443 47.5486 6.1074 46.0912 5.94747 46.0521C6.14977 47.4131 6.43645 48.8098 6.81592 50.2415L10.3584 46.4004C10.2491 45.8848 10.1558 45.3734 10.0781 44.8665C9.25703 45.7214 8.91986 43.8704 10.0105 44.3967C9.65594 40.6697 9.96619 37.4538 10.4597 34.4543C9.35691 34.3645 10.4139 33.8668 10.8284 33.4845C11.1158 32.5454 11.5608 31.6459 11.9428 30.7662C11.9862 30.6663 11.4055 31.0996 11.1427 31.2663C11.4672 31.8634 10.8587 32.2999 10.6258 32.2008C10.4175 32.1122 10.3263 31.606 10.8393 31.2604C10.9409 31.123 10.8851 30.833 10.8403 30.5563C10.4583 29.7414 12.3159 28.188 11.2585 30.1807C11.7173 30.0206 12.3826 29.6013 12.4373 29.4664C13.6156 27.1058 15.1063 24.9865 16.7604 23.1406C16.4283 22.769 16.7965 22.4128 17.1469 22.7171C19.8067 19.8596 22.8483 17.6954 25.6806 16.3538L26.583 14.2802C25.8303 14.6851 25.0773 15.0942 24.3246 15.6662C23.6252 16.4413 23.4236 15.849 24.2312 15.2678L26.8969 13.5583L28.1133 10.7628ZM5.80058 44.9407C5.78868 44.9996 5.78668 45.0332 5.80752 45.0044C5.80499 44.9831 5.80307 44.962 5.80058 44.9407ZM22.5081 15.3642C22.6223 15.3698 22.717 15.5326 22.554 15.9379L21.6578 17.0367L21.2631 17.7091L20.8042 18.0824L20.2068 18.2105C19.6618 18.6104 19.5465 18.0702 19.844 17.7731L20.7722 16.9407L21.4978 16.0551C21.6661 15.8842 22.2558 15.836 22.3193 15.5962C22.319 15.4505 22.4194 15.3599 22.5081 15.3642ZM19.2304 16.4812C19.3824 16.4993 19.4788 16.6541 19.0865 16.802C18.8956 17.0501 18.4142 17.0878 19.0759 16.5139C19.123 16.4842 19.1797 16.4752 19.2304 16.4812ZM17.5622 19.485C17.5984 19.4806 17.628 19.5365 17.6566 19.7041C17.6946 19.8868 17.5844 19.9953 17.4644 20.0989L16.6109 20.9845C16.3472 21.1794 16.1133 21.0069 16.2695 20.7819C16.6107 20.434 16.5549 19.9337 17.1657 19.8431C17.3701 19.796 17.4823 19.4945 17.5622 19.485ZM19.1759 20.1098C19.1778 20.1098 19.1797 20.1098 19.1815 20.1098C19.2175 20.1099 19.252 20.1266 19.2775 20.1563C19.3029 20.186 19.3172 20.2263 19.3172 20.2683C19.3172 20.3102 19.3029 20.3505 19.2775 20.3802C19.252 20.4099 19.2175 20.4266 19.1815 20.4267C19.1456 20.4266 19.111 20.4099 19.0856 20.3802C19.0602 20.3505 19.0459 20.3102 19.0459 20.2683C19.0459 20.2274 19.0594 20.1881 19.0836 20.1585C19.1078 20.129 19.1409 20.1115 19.1759 20.1098ZM14.0652 22.6528C14.1598 22.6433 14.2208 22.7194 14.1342 22.9769L13.8398 23.5879C13.5267 23.935 13.2918 23.5694 13.4777 23.2938L13.7946 22.8409C13.8426 22.757 13.9707 22.6622 14.0652 22.6528ZM11.6817 25.2628C11.7482 25.2438 11.8338 25.3783 11.9002 25.4288C12.0146 25.5325 11.5784 26.0051 11.3826 25.8183C11.2613 25.6328 11.2329 25.4879 11.5909 25.5139C11.6088 25.3406 11.6418 25.2742 11.6817 25.2628ZM9.25624 33.6225C9.33752 33.6224 9.40344 33.749 9.40346 33.9053C9.40344 34.0617 9.33752 34.1883 9.25624 34.1882C9.17509 34.1881 9.10937 34.0614 9.10935 33.9053C9.10937 33.7493 9.17509 33.6227 9.25624 33.6225ZM6.53634 40.1489L7.77383 40.1637L6.89878 41.8841C6.35117 42.5198 6.45542 41.6054 6.56671 41.3256C6.02107 41.5922 6.13797 41.9664 6.32509 42.3519L6.05376 42.6384C5.7193 42.07 5.81289 41.5019 5.75173 40.9335L6.53634 40.1489ZM8.99745 43.3276C8.99767 43.3276 8.99789 43.3276 8.99811 43.3276C9.03638 43.3277 9.0674 43.4231 9.06743 43.5408C9.06746 43.6587 9.03642 43.7543 8.99811 43.7544C8.9598 43.7543 8.92876 43.6587 8.92879 43.5408C8.92882 43.4239 8.95944 43.3288 8.99745 43.3276ZM6.65484 43.7864C6.65704 43.7864 6.65924 43.7864 6.66144 43.7864C6.79391 43.7865 6.9013 43.9153 6.90142 44.0742C6.90145 44.2333 6.79402 44.3623 6.66144 44.3624C6.52874 44.3626 6.42111 44.2335 6.42114 44.0742C6.42121 43.9182 6.52483 43.7906 6.65484 43.7864ZM9.05291 45.4824C9.28088 45.4801 9.47919 45.6327 9.43382 46.0336C9.0992 46.7416 8.35783 46.7486 7.99268 47.007V46.2901C8.18494 46.0771 8.36709 45.8663 8.65648 45.6339C8.7685 45.541 8.91613 45.4838 9.05291 45.4824Z" />
<path d="M19.8153 62.4058L15.1978 64.1262C17.4749 66.4713 20.1186 68.3905 22.9934 69.8565C22.9933 69.2819 23.1529 68.9105 23.1066 68.7078C22.4794 68.4145 22.6151 67.8386 22.6672 67.8908C23.1289 67.833 23.3178 68.8653 23.7479 69.3574C23.6583 69.6211 23.3844 69.7661 23.6218 70.0849C29.5679 72.9443 36.4418 73.9249 43.081 72.7662C43.0188 72.6774 43.1496 72.4413 43.079 72.409C42.4622 72.1274 43.6404 71.9584 43.821 72.6279C45.8894 72.216 47.9308 71.5944 49.9094 70.755C49.93 70.1177 50.3721 69.9601 49.7117 69.3241C48.8024 68.7559 49.551 68.3144 49.9289 68.7378C50.4638 68.769 51.7046 68.3712 52.5072 68.2599C53.1451 68.1714 53.4433 68.664 53.6929 68.8316C54.131 68.5692 54.5644 68.2947 54.9927 68.008C54.9802 67.69 55.12 67.5427 55.4978 67.6631C56.9837 66.6254 58.4049 65.4376 59.7423 64.0959L57.4674 63.2086L58.6755 63.9585C58.6228 64.6292 58.134 65.4106 57.5733 64.8144L57.0178 64.56C57.8441 64.4142 58.5513 64.2264 58.4071 64.1391C58.3852 63.9805 57.5409 64.1319 57.1472 64.1645C56.421 64.4976 56.5361 63.7767 57.1046 63.7734L56.5309 62.897C56.5138 63.937 55.4772 63.4355 55.6315 62.5613C55.5186 63.019 55.7327 63.5245 55.1459 63.8836C54.8347 63.8634 55.0088 62.8888 55.2155 62.4058C49.5709 67.5839 41.4068 69.6397 33.56 68.7256C33.2997 68.6953 32.647 70.0223 31.7974 69.2772C31.4062 68.9341 31.9187 69.9246 31.0867 69.2957L30.3783 69.8159C31.0868 69.2954 31.479 71.3653 29.3445 70.4661C29.1634 70.3899 30.8527 68.2028 30.8527 68.2028C28.8638 67.3321 26.6685 67.0731 25.8367 66.3153C25.734 66.2218 25.0762 67.0367 24.5477 66.5213C24.5812 66.812 24.3528 67.1491 24.3583 67.4162C24.2216 67.1155 23.8742 67.4187 23.9011 66.5919C23.9011 66.5919 23.642 66.0602 23.5908 66.1896C23.136 67.3393 23.4927 65.2819 23.2795 65.1204L21.3231 63.638C20.4359 63.7553 19.9088 63.7622 19.5242 63.4885C19.3504 63.3648 18.6571 63.6053 18.6174 63.3515C19.0324 63.1087 19.193 62.7419 20.3415 62.8564C20.5703 62.8792 19.9895 62.5588 19.8153 62.4058ZM53.8424 64.2467L53.9328 64.4127C54.295 64.4378 55.1232 64.4159 55.0419 64.5487C54.8347 64.763 54.8984 64.9906 53.9404 65.1673C53.3168 64.896 53.3923 64.6515 53.812 64.4203L53.8424 64.2467ZM18.8868 64.6273C19.0982 64.6324 19.2672 64.7119 19.1439 64.9108C18.9322 65.5873 18.3627 64.9942 18.3742 64.79C18.4213 64.6914 18.6753 64.6222 18.8868 64.6273ZM55.8793 65.0841L55.9397 65.2954C55.8311 65.4628 55.8312 65.3312 55.7965 65.2954L55.8793 65.0841ZM56.4857 65.3809C56.5349 65.3793 56.5868 65.3836 56.6415 65.3937C56.7377 65.7378 56.6203 66.1411 56.3547 66.5857L55.7133 65.9595C55.9239 65.6683 56.1413 65.3911 56.4857 65.3809ZM24.6616 65.7558V65.9958L24.7897 66.1239L25.0775 66.0011L24.6616 65.7558ZM18.6006 65.982C18.9488 66.1422 18.9277 66.4081 18.7138 66.7289C18.2746 66.3641 18.0049 66.0482 18.6006 65.982ZM53.9035 66.1031C54.2206 66.1206 54.3791 66.2377 53.8704 66.6094C53.4816 66.7129 52.5567 66.532 53.0703 67.1108C52.6712 67.4099 51.5026 66.7084 52.9848 66.1932C53.1105 66.1674 53.5863 66.0856 53.9035 66.1031ZM20.8666 66.4801H20.867C20.8685 66.48 20.87 66.48 20.8716 66.4801C21.0217 66.48 21.1433 66.546 21.1432 66.6273C21.1431 66.7084 21.0214 66.7742 20.8716 66.7742C20.7217 66.7742 20.6002 66.7084 20.5999 66.6273C20.5998 66.547 20.7185 66.4815 20.8666 66.4801ZM55.302 66.8128C55.35 66.8114 55.4142 66.8261 55.5136 66.8762C55.3686 66.932 55.2254 66.977 55.1083 66.8652C55.1873 66.862 55.2221 66.8151 55.302 66.8128ZM21.7466 67.3703C21.777 67.6752 21.7697 67.9881 22.1691 68.2153C22.0701 68.6126 21.8228 68.5274 21.5657 68.4114C21.255 68.3828 20.8783 67.8369 21.5958 67.5063C21.5403 67.4023 21.6222 67.3744 21.7466 67.3703ZM23.5842 67.5974C23.5955 67.5982 23.6068 67.6006 23.6179 67.6043L23.7687 67.808C24.0094 67.9584 24.0737 68.1604 23.9724 68.4114C23.2512 67.8894 23.4144 67.5847 23.5842 67.5974ZM48.1834 68.5619C48.2987 68.6399 48.4159 68.7088 48.5036 68.9247C48.4622 69.0426 48.4576 69.1764 48.226 69.2128C47.9755 69.1869 47.9312 69.0138 47.8738 68.8501C48.0681 68.845 48.1284 68.7061 48.1834 68.5619ZM42.6535 69.0303C42.5128 69.5583 41.5564 69.8609 41.5368 70.207C40.8116 70.161 39.9081 70.1694 40.5182 69.7169L41.0087 69.6716C41.5719 69.3081 42.1089 69.2074 42.6535 69.0303ZM35.1464 69.0831L35.184 69.4L34.1278 69.0979L35.1464 69.0831ZM36.0951 69.1135C36.5739 69.0961 36.3034 69.25 36.2027 69.43C36.1089 69.6961 35.9438 69.6779 35.7498 69.5432C35.1839 69.3999 35.495 69.1657 35.8412 69.1319C35.9429 69.122 36.0267 69.1159 36.0951 69.1135ZM46.7938 69.1544C46.8964 69.1504 47.0001 69.2234 47.0842 69.3729C47.3801 69.3704 47.7473 69.383 47.682 69.5967C46.5475 69.7626 46.5161 69.5274 46.6149 69.2448C46.6711 69.1871 46.7322 69.1568 46.7938 69.1544ZM50.6924 69.3528C50.6081 69.3489 50.5238 69.3538 50.4395 69.3696L50.6508 69.6564L50.8997 69.664L51.1337 70.0034L51.4506 69.5733C51.1978 69.456 50.9451 69.3645 50.6924 69.3528ZM51.7975 69.5356L51.6919 69.8373L51.8279 69.9657L51.9183 69.8301L51.7975 69.5356ZM52.19 69.5432L52.3108 69.6261L52.4993 69.5584L52.19 69.5432ZM33.9617 69.664C34.4423 69.6492 34.7177 69.8911 35.0484 70.0638C34.6798 70.1263 34.3484 70.2635 33.8865 70.1394C33.5316 69.8824 33.7984 69.7866 33.9617 69.664ZM45.0305 70.141C45.0602 70.1411 45.0886 70.167 45.1096 70.2131C45.1306 70.2591 45.1424 70.3215 45.1424 70.3866C45.1423 70.4516 45.1305 70.5139 45.1096 70.5599C45.0886 70.6059 45.0601 70.6318 45.0305 70.6318C45.0157 70.6319 45.0012 70.6256 44.9875 70.6133C44.9739 70.601 44.9616 70.583 44.9511 70.5602C44.9407 70.5374 44.9324 70.5103 44.9268 70.4806C44.9211 70.4508 44.9182 70.4188 44.9182 70.3866C44.9182 70.3543 44.9211 70.3223 44.9268 70.2925C44.9324 70.2627 44.9407 70.2356 44.9511 70.2128C44.9615 70.19 44.9739 70.1719 44.9875 70.1596C45.0011 70.1473 45.0157 70.141 45.0305 70.141ZM50.432 70.2146L50.3867 70.4259C50.3867 70.4259 50.1226 70.5315 50.1603 70.5239C50.198 70.5164 50.4924 70.5391 50.4924 70.5391L50.432 70.2146ZM27.3683 70.822C27.6902 70.8339 28.2863 71.0191 28.7533 71.1227C29.2727 71.3042 29.6289 71.1589 30.0126 71.0692C30.1472 71.5491 29.0991 71.9207 28.4011 71.7096C27.5919 71.2773 27.028 70.9415 27.1528 70.8771C27.1842 70.8332 27.261 70.818 27.3683 70.822ZM41.4454 71.6667C41.4921 71.6667 41.5368 71.6836 41.5698 71.7136C41.6028 71.7436 41.6214 71.7843 41.6213 71.8267C41.6214 71.8692 41.6028 71.9099 41.5698 71.9399C41.5368 71.9699 41.4921 71.9868 41.4454 71.9868C41.4223 71.9869 41.3993 71.9827 41.378 71.9747C41.3566 71.9667 41.3371 71.9549 41.3208 71.94C41.3044 71.9251 41.2914 71.9075 41.2826 71.8881C41.2737 71.8686 41.2691 71.8478 41.2691 71.8267C41.2691 71.8057 41.2737 71.7849 41.2826 71.7654C41.2914 71.746 41.3044 71.7284 41.3208 71.7135C41.3371 71.6986 41.3566 71.6868 41.378 71.6788C41.3993 71.6708 41.4223 71.6666 41.4454 71.6667Z" />
<path d="M22.622 23.2631L17.2502 28.9373L19.7694 33.3403L20.5801 32.4226C20.6037 32.863 20.5108 33.3367 20.7937 33.703L20.8363 35.4743C21.1595 34.496 22.1462 35.6647 21.199 36.2427L21.4337 36.3279C21.5028 36.6006 21.5892 36.8454 21.882 36.7546L22.3302 37.459L22.5009 38.3126L27.473 46.9978L28.3906 46.8697L27.7931 45.2055C28.3878 44.7705 28.5177 46.2875 28.86 46.9127C30.209 47.2259 28.7515 47.7799 27.8146 47.7663L31.1861 53.6134C33.2607 54.4327 32.0174 54.3447 31.6984 54.5095L37.4395 64.6996L37.9099 63.8678C37.5193 63.7143 37.7202 63.6594 38.0466 63.6255L47.2539 47.3338C45.823 48.1902 40.9366 50.2009 47.5781 46.7602L52.8 37.5204C51.0044 39.3253 50.4849 39.9621 50.3934 39.7624C50 38.9037 51.9671 37.7418 53.2714 36.6863L54.7214 34.1206L54.4468 34.0453C54.8012 33.5442 55.476 33.022 55.2852 32.5573C55.034 32.3171 54.7554 32.7357 54.4857 32.9376C54.2773 32.9452 54.5123 32.5567 54.4283 32.5444C53.9549 32.475 52.8469 33.161 52.5076 32.9366L55.4103 31.3254C56.1253 30.6876 56.8916 29.582 56.4448 31.0713L57.5998 28.9373L55.7807 27.0208C55.4831 27.3238 55.3251 28.0316 54.8492 27.8173C54.9134 27.5766 54.8871 27.3906 54.8525 27.2093C54.2067 26.8264 54.9063 26.5262 54.8587 26.0035L52.3485 23.2631L44.947 28.3807C45.146 29.2064 44.2772 29.2635 44.2099 28.893L40.4578 31.5624H46.2627C47.475 30.1661 47.468 30.8546 47.1912 31.5624H47.8207L44.2733 37.6488C45.3402 36.591 45.6269 36.8364 45.6111 36.9336C45.5993 37.0059 45.6038 37.3537 44.0785 38.2608C43.8683 38.3859 44.0337 38.7139 43.8811 38.9276C43.9816 39.5143 43.8509 39.8539 43.3685 39.8175L42.2776 41.8931C43.4914 42.1591 41.9386 42.803 42.0927 43.5032C42.4616 44.0837 41.7763 44.5608 41.1497 45.0437C41.1229 44.4008 41.4539 43.51 41.6663 42.7014C40.7332 43.7478 40.0827 44.855 39.4237 45.96L37.4395 49.3084L27.1188 31.5624H34.5427L30.6497 28.7864L30.2272 29.4202C29.3929 28.6477 29.7652 28.5307 30.046 28.3639L22.622 23.2631ZM22.0757 25.5011C22.276 25.4943 22.4983 25.6114 22.7462 25.8714C22.6994 26.2449 22.5825 26.6183 22.693 26.9918C22.891 27.1565 23.0846 27.322 23.0878 27.5146C22.1831 27.3985 21.6558 27.1491 21.2311 26.8637C21.1749 26.6894 21.2345 26.5151 21.3486 26.3408C21.6498 26.3721 21.9481 26.3918 22.2768 26.5329C22.4577 25.7157 21.51 26.3044 21.6473 25.7328C21.7779 25.5867 21.92 25.5064 22.0757 25.5011ZM25.1363 25.9569C25.1787 25.9569 25.2194 25.9794 25.2494 26.0194C25.2795 26.0594 25.2963 26.1136 25.2964 26.1702C25.2964 26.1982 25.2923 26.226 25.2842 26.2519C25.2762 26.2778 25.2644 26.3014 25.2495 26.3212C25.2347 26.341 25.217 26.3568 25.1976 26.3675C25.1782 26.3782 25.1573 26.3837 25.1363 26.3837C25.1153 26.3837 25.0944 26.3782 25.075 26.3675C25.0556 26.3568 25.0379 26.341 25.023 26.3212C25.0082 26.3014 24.9964 26.2778 24.9884 26.2519C24.9803 26.226 24.9762 26.1982 24.9762 26.1702C24.9762 26.1136 24.9931 26.0593 25.0231 26.0194C25.0532 25.9794 25.0939 25.9569 25.1363 25.9569ZM26.2546 27.0878C26.2547 27.0878 26.2548 27.0878 26.255 27.0878C26.2591 27.0878 26.2633 27.0878 26.2675 27.0878C26.3438 27.0878 26.417 27.1025 26.471 27.1285C26.525 27.1544 26.5553 27.1897 26.5553 27.2264C26.5554 27.2447 26.548 27.2627 26.5336 27.2796C26.5191 27.2964 26.498 27.3117 26.4712 27.3246C26.4445 27.3376 26.4127 27.3478 26.3778 27.3548C26.3428 27.3618 26.3054 27.3654 26.2675 27.3654C26.2296 27.3654 26.1921 27.3618 26.1571 27.3548C26.1221 27.3478 26.0903 27.3376 26.0635 27.3247C26.0368 27.3118 26.0156 27.2965 26.0011 27.2796C25.9867 27.2628 25.9793 27.2447 25.9793 27.2264C25.9793 27.1907 26.0079 27.1564 26.0592 27.1305C26.1105 27.1047 26.1805 27.0894 26.2546 27.0878ZM27.4089 27.5466C27.7146 27.7054 27.9172 27.947 28.0813 28.219C27.6231 28.5804 27.0036 27.9355 27.4089 27.5466ZM50.7809 27.5572C50.782 27.5572 50.7831 27.5572 50.7842 27.5572C50.8386 27.5572 50.8909 27.5772 50.9294 27.6127C50.9679 27.6482 50.9895 27.6964 50.9895 27.7467C50.9895 27.7969 50.9679 27.8451 50.9294 27.8806C50.8909 27.9161 50.8386 27.9361 50.7842 27.9361C50.7297 27.9361 50.6775 27.9161 50.639 27.8806C50.6005 27.8451 50.5788 27.7969 50.5789 27.7467C50.5788 27.6969 50.6 27.6492 50.6378 27.6138C50.6756 27.5783 50.727 27.558 50.7809 27.5572ZM18.6917 27.7708C18.8292 28.0328 19.0714 28.0855 19.2892 28.187C19.9254 28.138 20.3292 28.1777 20.0041 28.4963C19.7833 28.9646 19.0154 28.5701 18.7663 29.0086C18.0395 29.4233 17.7031 29.1288 17.9982 28.4643L18.6917 27.7708ZM49.7853 27.8453C49.7858 27.8453 49.7862 27.8453 49.7867 27.8453C49.8015 27.8454 49.8157 27.8522 49.8262 27.8642C49.8366 27.8762 49.8425 27.8925 49.8425 27.9094C49.8425 27.9263 49.8366 27.9426 49.8262 27.9546C49.8157 27.9666 49.8015 27.9734 49.7867 27.9734C49.7793 27.9734 49.772 27.9718 49.7652 27.9686C49.7584 27.9654 49.7522 27.9607 49.747 27.9547C49.7418 27.9488 49.7377 27.9417 49.7349 27.9339C49.732 27.9261 49.7306 27.9178 49.7306 27.9094C49.7306 27.8926 49.7363 27.8766 49.7466 27.8646C49.7568 27.8526 49.7707 27.8457 49.7853 27.8453ZM54.2214 27.986C54.3163 27.9866 54.4313 28.0228 54.5742 28.1074C54.596 28.1536 54.6051 28.2026 54.4686 28.2883C54.2473 28.426 54.0258 28.6524 53.8045 28.3487C53.9009 28.1536 54.0125 27.9845 54.2214 27.986ZM21.2707 28.4946C21.2911 28.4933 21.3129 28.4933 21.3364 28.495C21.3632 28.4969 21.3921 28.5007 21.4232 28.5068C21.5453 28.6375 21.5344 28.7461 21.4872 28.8485L21.4017 29.2644C21.5605 29.7906 21.3095 29.7019 21.0819 29.6486C21.0384 29.3468 20.9797 29.0551 21.0178 28.699C21.0565 28.5851 21.1278 28.5041 21.2707 28.4946ZM51.9411 28.628C52.1626 28.6462 52.2592 28.831 52.3636 29.0053C52.0274 29.2014 51.6984 29.3798 51.4807 29.2994C51.5275 28.8625 51.6932 28.6628 51.9411 28.628ZM50.6677 28.8858C50.6682 28.8858 50.6688 28.8858 50.6694 28.8858C50.7033 28.8858 50.7359 28.9152 50.7599 28.9677C50.7839 29.0202 50.7974 29.0914 50.7974 29.1657C50.7974 29.2025 50.7941 29.2389 50.7877 29.2729C50.7813 29.3069 50.7718 29.3378 50.7599 29.3639C50.748 29.3899 50.7339 29.4105 50.7184 29.4246C50.7028 29.4387 50.6862 29.4459 50.6694 29.4459C50.6354 29.4458 50.6029 29.4161 50.579 29.3636C50.555 29.3111 50.5416 29.2399 50.5416 29.1657C50.5416 29.0922 50.5549 29.0216 50.5784 28.9692C50.602 28.9169 50.6341 28.8869 50.6677 28.8858ZM26.0843 28.9765C26.4491 28.9777 26.822 29.052 27.2393 29.5258C27.1815 29.7577 27.0472 29.8516 26.8471 29.8275C26.1702 29.5867 25.8372 29.277 25.4287 28.9825C25.6496 29.0013 25.8654 28.9758 26.0843 28.9765ZM53.3635 29.3278C53.4025 29.3234 53.4505 29.3281 53.5103 29.3446C53.6549 29.842 52.8189 30.5975 52.6277 30.5517C52.3821 30.0262 52.852 29.8111 53.1783 29.5334C53.2098 29.4348 53.2463 29.3408 53.3635 29.3278ZM28.6253 29.3819C28.6129 29.5685 28.6911 29.6647 28.8494 29.6806C29.613 29.4087 29.2832 30.1927 29.2607 30.286C29.1789 30.6248 28.3138 30.6374 27.9744 30.3421C27.8645 30.2875 27.7419 30.2403 27.8252 30.0754L28.6253 29.3819ZM19.8546 30.0223C20.0977 30.1762 20.0708 30.6026 20.1873 31.0458C20.2694 31.3579 20.5034 31.6675 20.6016 31.9427C20.5166 32.0329 20.4782 32.1881 20.2603 32.0922L19.844 31.5694C19.5632 30.7693 19.7215 30.4084 19.8546 30.0223ZM45.1094 30.2916C45.1831 30.2959 45.263 30.3254 45.347 30.3708C44.858 30.7295 44.5037 31.105 43.4002 30.8537C43.5447 30.721 43.6803 30.2479 44.8037 30.5217C44.8811 30.3471 44.9865 30.2844 45.1094 30.2916ZM48.4224 30.4649C48.4236 30.4649 48.4248 30.4649 48.4261 30.4649C48.4411 30.4648 48.4561 30.4716 48.47 30.4847C48.4839 30.4978 48.4966 30.5171 48.5073 30.5413C48.5179 30.5656 48.5264 30.5944 48.5322 30.6262C48.538 30.6579 48.5409 30.692 48.5409 30.7263C48.5409 30.7607 48.538 30.7947 48.5322 30.8265C48.5264 30.8582 48.5179 30.887 48.5073 30.9113C48.4966 30.9356 48.4839 30.9548 48.47 30.968C48.4561 30.9811 48.4411 30.9878 48.4261 30.9878C48.3957 30.9877 48.3665 30.9601 48.3451 30.911C48.3236 30.862 48.3115 30.7956 48.3115 30.7263C48.3115 30.6585 48.3231 30.5932 48.3438 30.5445C48.3645 30.4957 48.3927 30.4671 48.4224 30.4649ZM25.7017 33.1696C25.7186 33.1696 25.7352 33.1735 25.7508 33.181C25.7663 33.1885 25.7804 33.1995 25.7923 33.2134C25.8042 33.2273 25.8137 33.2438 25.8201 33.2619C25.8265 33.2801 25.8298 33.2995 25.8298 33.3191C25.8298 33.3587 25.8162 33.3967 25.7922 33.4247C25.7682 33.4526 25.7357 33.4683 25.7017 33.4683C25.6678 33.4683 25.6352 33.4526 25.6112 33.4247C25.5872 33.3967 25.5737 33.3587 25.5737 33.3191C25.5736 33.2995 25.5769 33.2801 25.5834 33.2619C25.5898 33.2438 25.5992 33.2273 25.6111 33.2134C25.623 33.1995 25.6371 33.1885 25.6527 33.181C25.6682 33.1735 25.6849 33.1696 25.7017 33.1696ZM24.1008 33.6301C24.1181 34.1004 24.3333 34.5424 24.1008 35.0484C23.5275 34.9157 23.9121 34.4086 24.1008 33.6301ZM49.5705 33.81C49.7462 33.9389 49.659 34.1117 49.6025 34.2793C49.9898 34.3826 50.2577 33.8496 50.6056 34.1407C50.1191 34.6648 49.9515 35.1282 48.9621 34.9837C49.0012 34.6907 48.9521 34.4506 49.5705 33.81ZM52.2656 33.9017C52.3106 34.1801 52.6303 34.3337 51.9335 34.5959C51.6109 34.2616 52.071 34.1398 52.2656 33.9017ZM28.2203 36.9497C28.2689 37.6815 27.8667 38.8449 27.4053 38.7758C27.692 38.2559 27.9637 37.119 28.2203 36.9497ZM45.7346 37.4376C45.7577 37.4376 45.7806 37.4444 45.802 37.4578C45.8234 37.4712 45.8428 37.4908 45.8592 37.5156C45.8755 37.5404 45.8885 37.5698 45.8974 37.6022C45.9062 37.6345 45.9108 37.6692 45.9108 37.7043C45.9108 37.7394 45.9063 37.7741 45.8974 37.8065C45.8886 37.839 45.8756 37.8684 45.8592 37.8932C45.8429 37.918 45.8234 37.9377 45.802 37.9511C45.7806 37.9645 45.7577 37.9714 45.7346 37.9713C45.7114 37.9713 45.6885 37.9644 45.6672 37.951C45.6458 37.9375 45.6264 37.9178 45.6101 37.893C45.5937 37.8682 45.5808 37.8388 45.572 37.8064C45.5631 37.774 45.5586 37.7393 45.5586 37.7043C45.5586 37.6336 45.5772 37.5658 45.6101 37.5158C45.6431 37.4658 45.6879 37.4376 45.7346 37.4376ZM26.0925 38.5493L26.183 38.7454L25.9569 39.017L25.8361 38.7302L26.0925 38.5493ZM26.5646 41.9191C26.5651 41.9191 26.5657 41.9191 26.5663 41.9191C26.5974 41.9194 26.6272 41.9938 26.6491 42.1258C26.6711 42.2578 26.6834 42.4367 26.6834 42.6232C26.6834 42.8098 26.6711 42.9888 26.6491 43.1209C26.6272 43.253 26.5974 43.3273 26.5663 43.3276C26.5508 43.3277 26.5356 43.3096 26.5213 43.2742C26.507 43.2389 26.4941 43.187 26.4832 43.1216C26.4722 43.0562 26.4636 42.9785 26.4577 42.893C26.4518 42.8074 26.4487 42.7158 26.4487 42.6232C26.4488 42.438 26.4609 42.2603 26.4826 42.1285C26.5043 41.9967 26.5337 41.9215 26.5646 41.9191ZM47.8405 42.4001C48.015 42.8319 47.6619 43.2143 47.1991 43.5864C47.0398 43.0514 47.3199 42.9607 47.8405 42.4001ZM49.5035 42.4436C49.5573 42.4455 49.6104 42.4557 49.6626 42.4727C49.2645 43.0679 48.7575 43.5265 48.199 43.9211C48.7044 42.8113 49.1263 42.4305 49.5035 42.4436ZM41.2124 46.5166L41.3332 46.9391L40.9708 46.8938L41.122 46.8034L41.2124 46.5166ZM42.6308 50.7264C42.7943 51.1372 42.7484 51.6874 42.7516 52.2052C42.366 52.2295 42.535 52.8513 42.4799 53.2315C42.3905 53.2968 42.0851 53.3733 42.4948 53.4123L42.3139 54.1065C42.2696 54.6733 42.1642 55.0743 41.9214 55.1024C41.4467 54.775 41.6954 53.5478 41.318 53.7144L41.2877 53.2466L41.4989 53.1711L42.2083 52.0243L42.2234 51.0285L42.6308 50.7264ZM38.6169 53.3823C39.0285 53.9701 38.0956 53.8198 37.8525 54.5921C37.7458 55.8012 37.5814 55.9689 37.3946 55.7361C37.1868 54.5296 37.4209 53.6262 38.6169 53.3823ZM35.2521 58.1355C35.5881 58.1415 35.7401 58.3314 35.795 58.6184C35.0641 58.8047 35.2624 58.4043 35.2521 58.1355ZM38.0964 60.6329C38.1257 61.0521 38.3725 61.6482 37.9003 61.6588C37.6453 61.3855 37.7905 61.0265 38.0964 60.6329ZM36.8817 61.7268C36.9154 61.7268 36.9487 61.7341 36.9799 61.7481C37.011 61.7621 37.0393 61.7827 37.0631 61.8086C37.0869 61.8346 37.1058 61.8654 37.1187 61.8992C37.1315 61.9331 37.1382 61.9694 37.1382 62.0061C37.1381 62.0801 37.1111 62.151 37.063 62.2033C37.0149 62.2556 36.9497 62.285 36.8817 62.285C36.8137 62.285 36.7485 62.2556 36.7004 62.2033C36.6523 62.151 36.6253 62.0801 36.6252 62.0061C36.6252 61.9694 36.6318 61.9331 36.6447 61.8992C36.6576 61.8654 36.6765 61.8346 36.7003 61.8086C36.7241 61.7827 36.7524 61.7621 36.7835 61.7481C36.8146 61.7341 36.848 61.7268 36.8817 61.7268Z" />
<path d="M19.3628 39.6808L17.2512 41.8337C17.2044 42.411 17.1709 43.0931 16.9311 42.1538L16.6538 42.3459C16.7151 43.4661 16.3355 43.9143 16.2055 42.7727L12.77 47.254C12.8057 47.7208 12.777 48.1523 12.0016 48.1716C11.6417 48.5062 11.1725 49.128 11.0199 48.9186L11.6174 47.7663L6.83741 52.7809L8.39507 52.1834L6.79483 53.9761L7.24275 53.72L7.4134 53.9335L7.52035 53.6985L8.50202 52.9519L7.43486 54.4455L7.05064 54.467L6.06897 56.0887C7.59634 55.2202 8.24844 53.8461 9.78242 52.9304C9.51711 52.6491 10.1781 51.5377 10.3158 52.5036L13.0473 50.0283C14.7547 48.8113 16.8742 47.6083 19.0439 45.7174C18.9891 45.6271 18.9343 45.5369 18.7129 45.5577C17.881 45.6684 18.4852 44.9453 18.8089 44.7572C19.9039 44.1863 19.8408 44.6519 19.3212 45.5256L21.199 43.9676C21.2166 43.6207 21.5161 43.4852 21.8714 43.3917L20.495 40.8309C20.2805 42.0595 19.8483 41.0436 19.8975 40.1265L19.3628 39.6808ZM20.4626 41.9343C20.5305 41.9307 20.6 42.0606 20.6389 42.4951C20.3137 42.5195 19.9342 42.5779 20.2976 42.1753C20.3288 42.0754 20.3948 41.938 20.4626 41.9343ZM17.3153 43.9518C17.4217 44.014 17.4348 44.0761 17.4592 44.1383C17.3914 44.1838 17.4165 44.2463 17.2087 44.2664C17.1404 44.2963 17.0604 44.4226 17.0324 44.1172C17.0733 44.0146 17.1471 43.9412 17.3153 43.9518ZM16.163 47.1259C16.363 47.2238 16.2963 47.3717 16.2801 47.5101L15.9068 47.6593C15.8674 47.5855 15.7813 47.5305 15.8748 47.4035L15.9814 47.35L16.163 47.1259ZM12.0339 48.9371C12.2168 48.9307 12.2873 49.0146 12.331 49.1196C12.1376 49.3174 12.0491 49.4977 12.097 49.6553C11.5395 50.267 11.01 50.8964 10.671 51.6471C10.4172 51.7485 10.2685 51.7216 10.1957 51.6018C10.1786 51.4863 10.1656 51.3715 10.3845 51.315L10.573 50.7944C10.665 49.3078 11.1358 49.6949 11.8105 48.976C11.8996 48.9513 11.973 48.9392 12.0339 48.9371ZM9.93063 50.3568C9.93097 50.3568 9.93129 50.3568 9.93162 50.3568C9.97761 50.3567 10.0149 50.394 10.0148 50.4399C10.0147 50.4858 9.97748 50.5229 9.93162 50.5228C9.8859 50.5227 9.84885 50.4857 9.84877 50.4399C9.84867 50.3945 9.88516 50.3574 9.93063 50.3568ZM9.70749 50.6578L9.87814 50.9565L9.65435 50.9671C9.71075 51.9034 9.16999 51.8299 9.09947 51.7246C8.82661 51.1699 9.42729 50.981 9.70749 50.6578Z" />
<path d="M22.9541 45.1734L22.0183 45.6867L22.0335 46.0336L21.2941 46.6221C21.8266 46.7466 21.9504 47.0754 21.2489 47.3615L20.6451 47.9801C21.1424 47.878 21.4183 48.2901 20.8415 48.6895C21.0499 49.4275 20.3925 49.3244 20.2982 49.0215C19.5638 49.3885 18.8088 49.6728 17.9896 49.7005C17.8076 50.1109 17.605 50.4078 17.3103 50.1983C16.3438 51.552 14.9326 52.8788 13.4625 54.0916L14.2927 53.7896C13.015 54.8403 11.7374 55.9894 10.4597 56.7471L10.6258 56.9888L7.39655 59.9612L10.837 57.1092C10.9946 57.0261 11.1266 57.0112 11.1991 57.1548L11.2295 57.743C10.7737 58.0362 10.324 58.3666 9.84115 58.4976C9.82695 58.6183 9.87951 58.739 9.73552 58.8597L7.63817 60.6705L8.30197 60.2028L10.0372 58.8749L10.9727 58.0751C10.9047 58.5988 10.3812 59.2549 10.5201 59.2521C10.8973 59.3731 11.4104 59.0866 11.8632 58.9805C12.3461 58.7537 12.8459 57.9559 13.4173 57.6677L13.1308 58.2563L14.9413 56.8528L14.4584 56.7019L16.6313 55.4648C17.827 55.5214 18.0446 54.961 18.5178 54.9667C18.6401 54.5033 19.5015 53.991 19.106 54.7402C20.8546 53.7606 22.7587 52.3455 24.6441 50.9829C25.2493 50.8086 25.8258 50.603 26.1229 50.0926C25.9161 49.7321 25.3841 49.4179 25.5344 49.0063L25.2323 48.5234L24.991 48.5386C24.7722 50.135 24.3239 48.7442 24.6742 48.0253L25.1118 48.2065L24.0404 46.5466C23.8217 46.5412 23.5644 46.6133 23.4519 46.3957C23.6995 46.2449 23.6957 46.094 23.6631 45.9432L22.9541 45.1734ZM23.1921 47.0512C23.1928 47.0512 23.1936 47.0512 23.1944 47.0512C23.2425 47.0513 23.2886 47.089 23.3225 47.1561C23.3565 47.2231 23.3756 47.314 23.3756 47.4087C23.3756 47.5035 23.3565 47.5944 23.3225 47.6614C23.2886 47.7284 23.2425 47.7661 23.1944 47.7662C23.1706 47.7663 23.1469 47.757 23.1249 47.7391C23.1029 47.7211 23.0829 47.6948 23.066 47.6616C23.0492 47.6284 23.0358 47.589 23.0267 47.5456C23.0175 47.5022 23.0128 47.4557 23.0128 47.4087C23.0128 47.3147 23.0316 47.2244 23.0652 47.1574C23.0988 47.0905 23.1443 47.0524 23.1921 47.0512ZM19.8229 48.7347L19.4984 48.8631L19.8681 48.8855L19.8229 48.7347ZM20.9356 51.4331C21.1071 51.4146 21.0165 51.5833 20.9643 51.7246L20.6442 51.8847C20.6245 51.7745 20.5532 51.685 20.6656 51.5219C20.7922 51.4662 20.8784 51.4393 20.9356 51.4331ZM21.1611 52.5349C21.2666 52.5371 21.285 52.6903 21.167 52.8343L19.9932 53.9335C19.7163 54.0686 19.6384 53.8772 19.7585 53.6985L21.0284 52.5891C21.0811 52.5503 21.1259 52.5342 21.1611 52.5349ZM15.7041 54.1042L15.3519 54.6376C15.3062 54.8689 15.1322 55.0746 14.9466 55.2779C14.4593 55.9542 13.9719 56.1311 13.4846 56.2167L14.8399 54.7231C15.2019 54.6399 15.4185 54.3146 15.7041 54.1042ZM12.3858 56.1101C12.6268 56.1089 12.5801 56.2384 12.5138 56.3768L12.1402 56.7716C11.8861 57.0828 11.5804 56.8888 11.8415 56.4303L12.3858 56.1101Z" />
<path d="M27.0201 52.1659C26.763 52.1446 26.4848 52.5313 26.0754 52.6957C27.1705 53.0017 25.7593 53.7458 24.656 54.2749L25.1257 54.2963C25.7675 54.0963 25.572 54.3804 25.2538 54.4881C25.5953 54.9425 25.1921 54.846 25.0666 54.6046L24.5385 54.665C23.7245 54.9715 24.1032 54.6457 24.3121 54.4686L23.7839 54.529C23.2249 55.2409 22.6964 55.9809 21.1129 55.7513L17.7328 58.0903L18.0045 58.3016L19.3928 57.879C19.5983 57.7619 19.8768 57.9453 19.5589 58.0751C16.3136 58.9031 14.1283 61.0765 11.6131 62.831C14.011 61.2698 16.4277 59.7773 18.8944 58.4682C19.1229 58.3482 19.3382 58.4693 19.2037 58.7029C18.5951 59.2793 17.399 59.694 17.2512 60.0794L16.5043 60.1005L15.9814 60.9541L15.1278 61.0076L14.9997 61.3489L11.8629 63.099C13.761 62.6193 16.0148 61.3091 18.2435 60.0579C18.4175 59.9128 18.8666 59.9528 18.5316 60.2926L16.3551 61.5945C20.0374 60.076 23.7654 57.8683 27.473 55.9715L27.9427 55.9395L28.8814 55.3846L28.1344 53.9761C27.4525 54.1538 26.7757 54.3355 26.2886 54.6802C25.8401 55.0199 25.7794 54.5454 25.9473 54.3815C27.2905 53.5642 27.6824 52.965 27.4839 52.7809C27.3211 52.3382 27.1743 52.1787 27.0201 52.1659ZM11.6131 62.831C11.2534 63.0651 10.8943 63.3008 10.5353 63.5377C10.9037 63.3136 11.2615 63.0762 11.6131 62.831ZM27.0547 54.5274C27.2227 54.5265 27.3892 54.6533 27.2703 54.8297C27.2752 54.9465 27.259 55.0572 27.0676 55.1179L26.5768 55.107C25.7778 55.5153 25.9104 55.2095 26.1285 55.0859L26.822 54.7763L26.897 54.5736C26.9428 54.5421 26.9988 54.5276 27.0547 54.5274ZM22.2662 57.0809L22.4154 57.209C22.0462 57.4636 21.6494 57.7044 21.167 57.9025C20.9984 58.2088 20.731 58.4534 20.3349 58.6174C19.7547 58.8531 19.78 58.6299 19.9401 58.4682L20.9538 57.6572C21.2931 57.4371 21.7277 57.2441 22.2662 57.0809ZM16.8578 58.4676C15.8743 58.8899 14.9591 59.4487 14.0963 60.1124C15.1195 59.6875 16.0357 59.1339 16.8578 58.4676ZM12.195 61.6512L11.516 62.1794L11.7877 62.1645L12.195 61.6512Z" />
<path d="M37.5029 1.75781L35.7416 7.57653L37.2055 6.63943C37.5227 6.48064 37.5786 6.67399 37.3359 6.88897C37.1086 7.09037 36.0326 7.66812 35.6096 8.01291L35.0798 9.76367L35.9083 9.26426C36.241 9.11564 36.3024 9.4427 35.9951 9.66696C35.6913 9.98241 35.4383 10.3286 34.8626 10.4809L33.1494 16.1406L32.5229 14.3C32.1768 17.024 31.7338 14.8173 32.3213 13.7078C31.5324 14.9399 31.4366 13.937 32.1262 13.1345L31.368 10.9074L30.5576 11.458L26.6623 19.8537V22.158L36.3645 28.7283C36.5155 28.3139 36.5978 28.4164 36.6282 28.9069L37.5029 29.4994L42.9001 25.8153C42.0865 25.6135 42.4586 24.692 42.5096 24.5264C43.0635 23.2634 43.2317 24.3578 43.0658 24.5092C42.8749 24.8183 42.8166 25.265 43.3758 25.4905L48.2584 22.158L48.3436 19.8537L46.7004 16.2861L46.164 16.7856L45.7573 16.1482C46.0415 16.0469 46.2282 15.8342 46.372 15.5725L45.9577 14.673C45.7257 14.7237 45.632 14.6738 45.5864 15.2068C45.5524 15.6035 44.9786 14.8236 45.7065 14.128L44.679 11.8967C44.5833 11.6192 44.1063 12.0186 44.2868 12.6242C44.4333 13.1326 43.7999 13.3956 43.862 12.6522L44.098 10.6354L43.862 10.1228L42.3977 14.4241C42.8505 14.2302 43.3055 14.0097 43.7389 14.0485C43.4377 14.4352 42.7937 14.5648 42.274 14.7876L41.8132 16.1406L39.2969 7.74389C38.7187 7.97009 38.0921 8.89033 38.0581 8.57999L38.0083 8.12315C37.9774 7.84092 38.7716 7.59225 39.1913 7.39136L38.8289 6.18193C38.543 6.26235 37.9859 6.64901 37.939 6.42586L37.9129 6.33905C37.7785 6.10312 38.447 5.98957 38.7143 5.80035L37.5029 1.75781ZM44.3132 11.1015L44.3509 11.7049L44.4492 11.3728L44.3132 11.1015ZM35.7383 13.7498C35.7517 13.7506 35.7657 13.753 35.7802 13.757C36.0481 13.7305 36.1397 13.9788 35.9839 14.1267L35.3953 14.3908C35.0418 14.4416 35.0764 13.9672 35.2669 13.9911C35.4525 14.0611 35.5369 13.7371 35.7383 13.7498ZM43.8227 14.2627L44.3964 14.8209L44.2908 16.7525L43.8079 16.7598L43.8227 14.2627ZM44.8727 15.9481C45.002 15.9532 45.1233 16.0593 45.113 16.2696C45.0418 16.4819 45.0196 16.6762 45.3847 16.7298C45.8597 16.7068 46.1542 16.824 45.7316 17.4992C45.6841 18.0676 46.0909 18.636 46.3353 19.2044L45.8976 19.5289C45.5005 18.6159 45.7603 17.4156 44.7057 16.7902C44.3684 16.7978 44.469 16.5196 44.5849 16.2317C44.6061 16.0386 44.7434 15.943 44.8727 15.9481ZM29.3106 16.0676C29.4438 16.0916 29.5014 16.4808 29.2313 16.609L28.9293 16.775V17.454C29.6283 17.6018 29.4653 18.2603 28.9897 17.9673L28.9749 18.9631C29.227 19.1407 29.4081 19.3412 29.1406 19.6873L28.2807 19.7174L28.2956 19.4308L28.1751 19.446C28.0883 19.2174 28.075 18.9618 28.1447 18.6763C27.8114 18.2769 28.0107 17.9503 28.2956 17.6352L29.1709 16.1716C29.2093 16.1061 29.2478 16.0747 29.2828 16.0679C29.2923 16.0661 29.3017 16.0661 29.3106 16.0676ZM36.5315 17.2279C36.535 17.2278 36.5385 17.2278 36.542 17.2279C36.6378 17.2278 36.7155 17.302 36.7157 17.3936C36.7157 17.4853 36.6379 17.5596 36.542 17.5596C36.4463 17.5595 36.3687 17.4852 36.3688 17.3936C36.3687 17.3059 36.44 17.2333 36.5315 17.2279ZM43.8155 18.3013C43.8902 18.3087 43.9792 18.3591 44.0868 18.465C44.5879 18.4202 44.5905 18.7079 44.4944 19.0612L43.9135 19.0763L43.6795 19.4005C43.2888 19.6438 43.3138 19.2936 43.4834 18.7367C43.5555 18.4759 43.6509 18.2849 43.8155 18.3013ZM33.4472 18.5749C33.7578 18.5561 33.7486 19.0431 33.5769 19.114C32.9278 19.3968 32.4117 19.8244 31.9172 20.2759C32.2737 20.6669 32.153 21.0126 31.9172 21.3473C30.9303 22.4387 30.2447 23.4392 29.3974 23.339C28.9825 23.2255 28.9851 22.9166 29.2313 22.7657C30.0774 22.5147 30.1863 21.8952 30.4385 21.3473L30.1064 21.0605C29.9684 21.2363 29.8266 21.3438 29.6687 21.1509C30.8105 20.1122 32.0541 19.269 33.3808 18.5858C33.4044 18.5798 33.4265 18.5762 33.4472 18.5749ZM46.5974 19.9118C46.6838 19.9204 46.7832 20.0566 46.775 20.1683L46.6096 20.7766L46.4763 20.195C46.471 19.9756 46.5302 19.9051 46.5974 19.9118ZM45.889 20.4934C45.9905 20.4917 46.1176 20.6222 46.1828 20.9152C46.2084 21.0826 46.6413 20.9785 46.9404 20.9634L46.9242 22.6706L45.8092 21.0915C45.6701 20.7165 45.7586 20.4956 45.889 20.4934ZM27.8149 20.7782C27.8795 20.7772 27.9467 20.7875 28.0166 20.8116C28.1321 20.8644 28.1014 20.9172 28.0166 20.97L27.6618 21.0529C27.6099 21.2498 27.1865 21.5003 27.2848 21.0228C27.4497 20.8855 27.6213 20.7812 27.8149 20.7782ZM36.9527 21.3209C37.261 21.3063 37.6138 21.5474 37.3042 21.9959L36.4744 22.6901C37.4891 23.1081 37.8783 23.7047 36.3083 23.4143C35.4691 24.5316 35.1706 24.072 35.901 23.4143L35.4029 23.0826C35.08 22.7908 35.1537 22.4989 35.433 22.2072L36.6856 21.4226C36.7524 21.3591 36.8499 21.3258 36.9527 21.3209ZM40.8642 22.6096C40.964 22.6234 40.9811 22.8126 40.918 22.9542L40.6615 23.0598L40.6691 23.2258C40.4866 23.4153 40.2191 23.3852 40.3974 23.075L40.6767 22.7205C40.7564 22.6332 40.8188 22.6033 40.8642 22.6096ZM39.7488 23.9797C39.7887 23.967 39.8058 24.0458 39.8181 24.1431L39.7115 24.3029C39.5883 24.4019 39.5158 24.4336 39.5729 24.2923L39.701 24.0256C39.72 23.9985 39.7355 23.984 39.7488 23.9797ZM34.6031 25.7232L35.0709 25.8289C34.7729 26.0447 34.3861 26.5982 34.1806 26.4626C33.92 26.3634 34.278 26.0373 34.6031 25.7232ZM38.7487 25.9193C38.75 25.9193 38.7513 25.9193 38.7526 25.9193C38.8277 25.9191 38.8886 26.0458 38.8886 26.2022C38.8886 26.3586 38.8277 26.4853 38.7526 26.4851C38.6777 26.4849 38.617 26.3583 38.617 26.2022C38.6169 26.0492 38.6753 25.9239 38.7487 25.9193Z" />
<path d="M31.1024 10.0451L30.7968 10.7656L31.2344 10.5619L31.1024 10.0451Z" />
<path d="M46.9777 10.9444L47.2232 11.4884L47.4685 11.0405L46.9777 10.9444ZM47.7887 11.1576L47.3939 11.8511L48.13 13.4412L49.4209 11.6805L47.7887 11.1576ZM50.1455 12.0066L48.4554 14.1343L49.5718 16.4278C53.5152 18.3448 56.7943 21.0776 59.4859 24.531C60.0735 23.8249 60.3191 24.2951 59.6367 24.7875C61.2421 26.7929 62.3798 29.1009 63.3033 31.5476C63.4776 31.6617 63.5463 31.806 63.4393 32.0005L63.711 32.8603C64.1514 32.2613 64.7446 32.208 63.9222 33.3281C65.0478 36.7205 65.2538 40.3683 64.9333 44.1624C65.0791 44.0447 65.2706 44.1279 65.265 43.3478L65.6271 43.3326L65.7179 44.917C65.2884 44.9727 64.9416 44.9404 64.8125 44.6757L64.7973 45.7468L65.1973 45.762C65.1629 46.036 65.618 46.6149 64.7672 46.3809L65.567 47.1655C65.7826 47.1799 65.9776 47.041 66.246 47.452L66.3213 46.1997C66.5921 46.5455 67.8078 48.0564 66.4421 48.1462C66.3553 48.3426 67.3905 48.5243 67.3023 47.7237C67.3161 47.4892 67.6481 47.5084 67.74 47.7389L67.9661 48.4331L68.5394 48.4631L69.1432 46.1545C69.0135 45.9527 69.0335 45.7358 69.1884 45.5055L69.43 41.6426C69.4452 41.2545 69.1718 41.361 69.0075 41.2805C69.118 40.6155 69.1524 39.8923 68.8557 39.5488C68.7116 39.3821 68.2454 39.631 68.0569 39.2887C67.8027 39.0961 67.9171 38.9527 68.0717 38.7754C68.3479 38.3791 68.4882 38.1458 68.5546 37.6891C68.6177 37.4464 68.9198 37.1156 69.0375 37.7043L69.4148 39.0623C69.0136 36.3965 68.5944 33.7305 67.8304 31.0647L67.7096 32.6039C67.4267 32.5926 67.1399 32.6202 67.1363 32.8455C67.1046 33.1015 67.4751 33.2024 67.74 33.2376L67.7248 33.5997C67.3625 33.747 67.1074 33.9351 67.0458 34.3243C66.6606 34.8832 66.652 34.2507 66.3969 34.2939C66.5858 33.6176 67.0108 33.4262 66.3668 33.1924L66.3969 32.6491C66.7999 32.7615 66.8372 32.3393 66.8798 31.9249L67.6492 30.763L65.9895 26.7795C65.4822 26.5464 65.4295 26.9932 64.9633 26.8851L64.7672 26.9C64.0016 26.9768 64.1575 26.467 64.4655 26.2814L65.371 25.6929L63.575 22.9166C63.2397 22.9351 62.6431 23.3516 62.6847 22.7957L62.6699 22.162L62.9112 22.0715C62.9854 21.9609 62.9878 21.8501 62.8811 21.7395L62.6999 21.9055C62.3613 22.1796 62.0396 21.9953 62.4131 21.6338L62.4283 21.3321L59.033 17.7408L57.7054 17.4844L57.1169 16.8654L57.0112 16.5637L56.8753 16.5033C56.7964 16.3639 56.7723 16.2392 56.9056 16.1564L57.5542 16.4281L55.4569 14.8133C54.9622 15.0138 54.3907 15.0351 53.8121 15.0398C53.5707 15.2475 53.3489 15.3107 53.1783 14.9945L52.8314 15.0094C52.6689 15.4683 52.4951 14.9873 52.5597 14.7529L52.5898 13.1233L50.1455 12.0066ZM54.0557 13.8039C54.018 13.8072 53.988 13.916 53.988 14.0492C53.988 14.1847 54.019 14.2947 54.0573 14.2948C54.0956 14.2947 54.1267 14.1847 54.1266 14.0492C54.1266 13.9137 54.0956 13.804 54.0573 13.8039C54.0568 13.8039 54.0562 13.8039 54.0557 13.8039ZM60.5979 19.8217C60.7481 19.8217 60.8699 19.9423 60.8699 20.091C60.8699 20.2398 60.7481 20.3603 60.5979 20.3604C60.4477 20.3603 60.326 20.2398 60.3259 20.091C60.326 19.9423 60.4477 19.8217 60.5979 19.8217ZM66.0117 27.9292C66.109 27.9272 66.2277 28.0104 66.3592 28.1451L66.0196 28.5148C65.7193 28.3291 65.7642 28.1778 65.8611 28.0319C65.9024 27.9622 65.9532 27.9304 66.0117 27.9292ZM64.6778 30.4131C64.8091 30.3978 64.9791 30.5022 64.8729 30.7102L64.7973 30.9894L64.5936 31.027C64.1432 31.2262 64.309 30.8401 64.4728 30.7253L64.5712 30.4689C64.5947 30.4365 64.634 30.4182 64.6778 30.4131ZM64.9501 31.065C64.952 31.065 64.9538 31.065 64.9557 31.065C64.9897 31.065 65.0223 31.0824 65.0464 31.1135C65.0705 31.1445 65.0841 31.1867 65.0841 31.2307C65.0841 31.2525 65.0808 31.2741 65.0743 31.2943C65.0679 31.3144 65.0584 31.3328 65.0465 31.3482C65.0346 31.3636 65.0204 31.3758 65.0048 31.3842C64.9893 31.3925 64.9726 31.3968 64.9557 31.3967C64.9217 31.3967 64.8891 31.3792 64.8651 31.348C64.8411 31.3169 64.8276 31.2747 64.8276 31.2307C64.8277 31.188 64.8404 31.147 64.8632 31.1161C64.886 31.0852 64.9171 31.0669 64.9501 31.065ZM67.1653 34.9409L67.3894 36.0612C67.4663 36.6352 68.0266 36.8139 68.3817 37.1603C67.8442 37.2648 67.3522 37.5472 66.5144 36.4774L66.5678 35.2716C66.8122 35.2246 67.0595 35.1819 67.1653 34.9409ZM68.3529 39.6858C68.485 39.686 68.6193 39.7746 68.6269 40.0413L68.6378 41.0976C68.6247 41.412 68.2875 41.3486 68.3071 41.0976L68.2962 40.1691L68.0935 39.8598C68.0911 39.7735 68.2209 39.6856 68.3529 39.6858ZM66.4361 40.8655C66.437 40.8655 66.4377 40.8655 66.4385 40.8655C66.4738 40.8657 66.5025 40.9653 66.5025 41.088C66.5025 41.2109 66.4739 41.3106 66.4385 41.3108C66.4029 41.3113 66.3741 41.2113 66.3741 41.088C66.3741 40.9679 66.4015 40.8694 66.4361 40.8655ZM65.3178 42.646L65.4614 42.7744L65.3706 43.0761L65.2274 42.7744L65.3178 42.646ZM68.1737 43.325C68.305 43.325 68.4115 43.445 68.4114 43.593C68.4113 43.7409 68.3049 43.8607 68.1737 43.8607C68.0425 43.8607 67.9361 43.7409 67.936 43.593C67.936 43.445 68.0424 43.325 68.1737 43.325ZM67.8456 44.6229C67.9914 44.6587 68.0102 44.7738 67.9965 44.9094L67.9737 45.9657C67.9466 46.1404 67.4326 46.1505 67.4231 45.9809L67.4531 44.9246C67.5177 44.8107 67.5845 44.6974 67.8456 44.6229ZM68.517 45.7924L68.5322 46.2525L68.419 45.9657H68.1773L68.517 45.7924ZM67.6211 46.6902C67.623 46.6902 67.6249 46.6902 67.6268 46.6902C67.7101 46.6902 67.7776 46.7696 67.7776 46.8675C67.7776 46.9653 67.7101 47.0447 67.6268 47.0447C67.5435 47.0447 67.4759 46.9653 67.4759 46.8675C67.4759 46.7721 67.54 46.6938 67.6211 46.6902ZM65.9819 47.5728L65.9367 47.7389L65.9971 47.8293L66.08 47.7465L65.9819 47.5728ZM66.2232 47.8293L66.148 47.9878L66.246 48.0406L66.3289 47.9878L66.2232 47.8293ZM67.3927 49.112L68.2981 50.1379L68.3133 49.3233L67.3927 49.112Z" />
<path d="M54.9591 38.8962L53.948 41.0844L53.7368 41.19L54.227 41.3333L53.5179 42.2614L53.9328 42.5404L52.9066 43.1065C55.0274 45.1249 57.4686 46.9976 59.8932 48.878L58.8745 47.4596C58.664 47.2403 59.0113 46.9023 59.335 47.1579C60.3553 48.6508 61.7667 48.9388 63.2356 51.315C65.3826 52.8408 66.1803 53.9049 68.8187 56.0834L67.4683 54.0689C67.3948 53.9061 67.284 53.7261 67.7172 53.7972L67.9585 53.8576L66.4044 52.4016C66.2534 52.262 66.3798 52.0776 66.6309 52.2052L68.0492 52.877L64.1787 48.7347L64.3295 49.3385C64.5419 50.1829 63.7927 50.0325 63.7713 49.278L63.8242 48.4707L62.9111 47.5804C62.2503 48.1268 61.8871 47.7303 62.6471 47.286L61.9905 46.5618L62.3074 47.1275L62.1793 47.2332C61.2703 46.419 60.7795 45.1704 59.4707 44.0644C59.3305 44.3819 59.2141 44.7948 58.8521 44.4945C58.7857 44.3288 58.6952 43.6564 59.0858 43.4686L57.8711 42.0122L57.4714 42.3519C56.7001 42.7785 57.0321 42.1154 56.7696 41.869C56.1544 41.6936 56.2851 41.0753 55.9474 40.609C56.3317 40.3867 55.9593 40.1948 55.8945 39.9905L55.6833 40.2166L55.4796 40.1638C55.5179 40.3492 55.3243 40.6937 55.2304 40.1865C55.2795 40.0006 55.4007 39.8797 55.6605 39.8845L54.9591 38.8962ZM54.4894 41.2148C54.562 41.4728 54.617 41.7323 54.5214 42.0043C54.3637 41.733 54.3923 41.472 54.4894 41.2148ZM57.2046 41.3108L57.2208 41.5029L57.3063 41.4389L57.2046 41.3108ZM55.5031 41.4283C55.5032 41.4283 55.5033 41.4283 55.5034 41.4283C55.5051 41.4283 55.5067 41.4283 55.5084 41.4283C55.5918 41.4284 55.6718 41.4655 55.7308 41.5316C55.7898 41.5976 55.8229 41.6872 55.8229 41.7805C55.8229 41.8738 55.7897 41.9633 55.7307 42.0293C55.6717 42.0952 55.5918 42.1323 55.5084 42.1324C55.4249 42.1324 55.3448 42.0954 55.2858 42.0294C55.2267 41.9634 55.1935 41.8739 55.1934 41.7805C55.1934 41.6881 55.2259 41.5994 55.2838 41.5335C55.3417 41.4676 55.4205 41.4298 55.5031 41.4283ZM57.4288 41.5349L57.3703 41.7591L57.5783 41.6788L57.4288 41.5349ZM56.1669 42.4097C56.3805 42.4126 56.6019 42.6174 56.3831 42.8846L56.0259 43.1514C55.6715 43.3301 55.4261 42.9102 55.7057 42.6767L55.9724 42.4793C56.0252 42.4302 56.0957 42.4087 56.1669 42.4097ZM54.1372 43.2527C54.3188 43.2744 54.5864 43.1865 54.4732 43.5834C54.4382 43.852 54.1867 43.9107 54.1586 43.5409C53.6775 43.4875 53.8992 43.2527 54.1372 43.2527ZM58.1223 44.0423L58.2877 44.3357C58.1863 44.5273 58.085 44.5669 57.9836 44.3466L58.1223 44.0423ZM57.5258 45.5124C57.747 45.4992 57.9033 45.7521 57.7915 45.9524L57.5357 46.0858C57.3043 46.1307 57.2728 46.0197 57.2954 45.867L57.3647 45.5682C57.4202 45.5329 57.4748 45.5155 57.5258 45.5124ZM64.8841 49.8148C64.8842 49.8148 64.8843 49.8148 64.8844 49.8148C64.8853 49.8147 64.8862 49.8147 64.887 49.8148C64.9053 49.8147 64.9234 49.8218 64.9402 49.8357C64.9571 49.8497 64.9724 49.8701 64.9853 49.8959C64.9982 49.9217 65.0085 49.9523 65.0154 49.986C65.0224 50.0197 65.026 50.0559 65.026 50.0924C65.026 50.1288 65.0224 50.1649 65.0154 50.1986C65.0084 50.2323 64.9982 50.2629 64.9853 50.2886C64.9723 50.3144 64.957 50.3348 64.9402 50.3487C64.9233 50.3626 64.9053 50.3697 64.887 50.3696C64.8503 50.3696 64.815 50.3404 64.789 50.2884C64.763 50.2364 64.7484 50.1659 64.7484 50.0924C64.7484 50.0198 64.7626 49.9501 64.7879 49.8982C64.8133 49.8463 64.8478 49.8164 64.8841 49.8148ZM64.889 50.5244C64.8902 50.5244 64.8914 50.5244 64.8926 50.5244C64.9237 50.5246 64.9536 50.5519 64.9755 50.6004C64.9975 50.6489 65.0098 50.7147 65.0098 50.7832C65.0098 50.8518 64.9975 50.9176 64.9755 50.9661C64.9536 51.0146 64.9237 51.0419 64.8926 51.042C64.8772 51.0421 64.8619 51.0354 64.8477 51.0224C64.8334 51.0094 64.8205 50.9904 64.8096 50.9663C64.7986 50.9423 64.79 50.9138 64.7841 50.8823C64.7782 50.8509 64.7751 50.8172 64.7751 50.7832C64.7751 50.7159 64.787 50.6512 64.8083 50.6029C64.8295 50.5546 64.8585 50.5264 64.889 50.5244ZM64.4338 51.0206C64.4649 51.0206 64.4947 51.0339 64.5167 51.0574C64.5387 51.0809 64.551 51.1128 64.551 51.146C64.5509 51.1792 64.5386 51.211 64.5166 51.2344C64.4946 51.2578 64.4649 51.271 64.4338 51.2711C64.4027 51.2711 64.3729 51.258 64.3508 51.2345C64.3288 51.2111 64.3164 51.1792 64.3163 51.146C64.3163 51.1295 64.3193 51.1132 64.3252 51.098C64.3312 51.0827 64.3398 51.0689 64.3507 51.0572C64.3616 51.0456 64.3746 51.0364 64.3889 51.0301C64.4031 51.0238 64.4184 51.0205 64.4338 51.0206Z" />
<path d="M52.0114 45.1791C51.9267 45.1829 51.8615 45.2302 51.7902 45.2642L51.3526 45.8072C51.2045 45.8939 50.8549 45.8059 51.0961 46.2297C49.9391 47.2692 49.9 48.6726 48.9532 49.6702C48.6467 49.9057 48.6574 50.0883 48.8327 50.2436L49.7681 51.0133L49.6926 50.4852C49.7139 50.3019 49.7809 50.4077 49.8434 50.4852C50.5012 50.4671 51.1256 50.5129 51.3222 51.3754L52.2128 51.8431C52.4029 51.901 52.486 52.2523 52.0616 52.1148L50.2359 51.0886L52.8161 52.9298L52.9974 52.809C52.9846 52.6073 53.1076 52.5243 53.2538 52.4617C53.2885 52.346 53.1829 52.1097 53.3747 52.1148C53.5619 52.1009 53.7374 52.7611 53.5103 52.839L53.0726 53.0202C54.5355 53.8238 54.5117 54.3223 57.4789 55.4345C57.2784 55.2481 57.1701 55.0249 56.8752 54.8763C56.729 54.8382 56.5234 54.8966 56.3018 54.8459C55.0208 53.5725 54.7526 53.4677 53.978 52.7786C53.7256 52.4888 53.9764 52.1521 54.3553 52.4165L54.9439 52.9598C55.3518 53.1877 55.8809 53.2596 56.0302 53.82L55.5928 53.7596C55.9583 54.0985 56.374 54.4031 57.1168 54.4838C57.9243 55.278 58.7224 56.081 60.0592 56.3851C60.3456 56.5999 60.4386 56.8089 60.044 57.0037L62.5187 58.6336L61.3419 57.2753C61.082 56.8784 61.4195 56.6493 61.7492 57.0037L63.9674 59.3275L64.7368 59.4635C64.6389 59.3165 63.8273 58.9466 64.888 59.1618C64.7619 58.9637 64.6504 58.7624 64.3295 58.6033C63.9357 58.3588 64.6793 58.0547 64.918 58.4224L65.2801 58.8449L65.597 58.8597L67.3174 60.3085C67.6486 60.7748 67.8137 60.625 68.0113 60.595C67.6264 60.3536 67.4715 60.1122 67.4683 59.8708C66.7058 59.1244 66.015 58.3659 65.1445 57.6374C63.8879 56.9072 62.7815 56.0269 61.704 55.1176L59.1386 53.3975L58.8821 52.9899L58.49 52.7033C58.2536 52.8676 57.666 52.8833 58.1279 52.4165C58.1788 52.1811 58.2029 51.9291 58.5652 51.8884L58.7161 51.6019C57.8058 50.5173 56.7944 49.5028 55.6229 48.5991C55.4579 48.7855 55.2296 48.9506 54.9439 49.0968C55.0195 49.4753 54.3719 49.6826 54.4006 49.2177C54.5444 49.0366 54.6648 48.8177 54.5366 48.6743C54.3751 48.6484 54.1584 49.0834 54.0233 49.3685C53.3401 49.8181 53.4158 49.1969 53.646 49.0364L54.3402 48.3878C54.3581 48.2042 54.3823 48.019 54.2045 47.8745C52.8766 46.597 53.0947 45.9388 52.3484 45.3547C52.2 45.2149 52.0961 45.1753 52.0114 45.1791ZM54.9693 47.8729L54.7135 47.9369L54.9053 48.1931C55.011 48.3501 55.0438 48.2634 55.0653 48.1396L54.9693 47.8729ZM52.6369 50.1808C52.7845 50.1807 52.8744 50.3496 52.7257 50.5152L52.4088 50.8172C52.1445 50.9656 51.9355 50.7755 52.1071 50.568L52.4768 50.2436C52.5321 50.1996 52.5877 50.1809 52.6369 50.1808ZM55.7285 51.4735L55.6833 51.9187L55.5625 51.6623L55.2984 51.5187L55.7285 51.4735ZM59.033 51.8431L58.7765 52.2657C59.935 53.3041 60.6684 53.5228 61.5756 54.0765C60.7105 53.3555 59.7362 52.7799 59.033 51.8431ZM56.0199 52.8819C56.0482 52.8842 56.09 52.8984 56.151 52.9298L56.4378 53.0427L56.4527 53.4051L56.6639 53.488C56.683 53.6112 56.7319 53.7344 56.6715 53.8576C56.5759 53.9411 56.5051 53.8991 56.4375 53.8425L56.1662 53.6692L56.0906 53.3371L55.9473 53.2691L55.9698 53.0427C55.9717 52.9758 55.9353 52.8752 56.0199 52.8819ZM65.7462 59.3697C65.9097 59.7975 66.2123 60.1208 66.717 60.2926L65.7462 59.3697Z" />
<path d="M47.7612 52.1299C48.3401 52.7187 48.1626 54.0942 47.4744 52.5825L45.8751 55.3592L47.1879 56.1286L47.2331 55.8873L49.3608 57.0492C48.3676 55.8566 49.5908 55.7579 50.0094 57.3057L55.4416 60.2328C57.4833 61.1963 59.8483 61.9983 62.0961 62.8587L59.6215 61.1383C59.4756 61.0142 59.2618 60.5733 60.0291 60.7461C61.1987 61.237 62.3154 61.8255 63.5749 62.1493C62.4117 61.2561 60.8805 61.0199 59.531 60.4593C58.6485 60.2651 59.2106 59.9819 59.6819 60.0216L60.6629 60.1576C59.2841 58.9361 57.5208 58.5439 56.1058 57.3057C54.8216 57.0208 53.8999 56.6721 54.4309 56.0682L52.8614 55.374C52.1297 55.3009 51.1926 55.4913 51.2017 54.4686C50.76 53.944 50.2147 53.4595 49.5117 53.0354C49.6569 53.3321 49.8809 53.6288 50.3263 53.9256C50.3675 54.1954 49.8365 54.3658 49.6473 54.0765C49.3317 53.4834 48.7749 53.3882 48.7419 52.6881L47.7612 52.1299ZM47.7351 54.5178C47.7874 54.5138 47.854 54.6168 47.9167 54.6911C48.0143 54.7852 48.1665 54.8628 48.5462 54.8723C48.9212 55.0377 48.9763 55.3099 49.1116 55.5552C48.4857 55.125 48.0535 55.0173 47.682 55.0109L47.6605 54.6696C47.6777 54.5611 47.7038 54.5202 47.7351 54.5178ZM52.9195 56.1217C53.0034 56.1275 53.1215 56.1844 53.2301 56.2273L53.5928 56.6009C53.6243 56.6906 53.8249 56.7934 53.5182 56.8571L53.1234 56.8462L53.0809 56.5369L52.8142 56.3233C52.786 56.1611 52.8355 56.1158 52.9195 56.1217ZM51.9447 56.4303C51.9975 56.4318 52.068 56.508 52.1527 56.6435L52.2167 56.8142L52.4514 56.8676L52.7607 57.1664C52.76 57.34 52.8417 57.596 52.462 57.3905L52.1312 57.1343L51.8751 57.1238L51.843 56.665C51.8567 56.5021 51.8919 56.4288 51.9447 56.4303ZM54.9396 58.9082C54.9616 58.9003 55.0004 58.9401 55.0653 59.0548L55.2895 59.0762L55.4281 59.2258C55.4397 59.4129 55.4472 59.596 55.0973 59.4496L54.9267 59.2258C54.9129 59.0682 54.9029 58.9215 54.9396 58.9082ZM61.9605 62.1569C62.1723 62.3553 63.1688 62.7483 64.103 62.9791C63.4291 62.5705 62.6929 62.3705 61.9605 62.1569Z" />
</svg>
