<svg width="75" height="75" viewBox="0 0 75 75"  xmlns="http://www.w3.org/2000/svg">
<path d="M22.3478 11.752L9.94638 16.2996C9.7894 16.6732 9.73635 17.1773 9.38793 17.3104C8.14739 17.1163 7.61766 18.1858 6.79853 18.6977C6.10166 18.355 5.08299 19.5547 3.96595 21.2708C6.4631 22.254 6.21102 23.7437 7.68325 25.2565C5.68772 24.2912 5.88048 22.1197 3.3574 23.0923C2.5912 23.7866 2.10371 24.9012 1.75781 26.2292C3.78312 27.7656 6.06458 29.1733 6.57674 31.4701C9.12165 33.2743 11.0052 34.5853 13.1932 35.877C14.0272 36.3343 14.5053 36.736 14.6547 37.0874C16.4191 36.8867 18.1834 36.9636 19.9478 36.4721L22.1205 33.0379C25.4217 33.2457 25.6608 32.5217 27.295 32.5018L28.9557 36.8381L31.9758 37.1274L33.477 35.9759L36.5778 36.0557C37.7163 37.0179 37.4203 38.1041 38.8294 38.1597L38.2563 40.1445C40.357 40.3373 40.0689 39.2722 41.6534 38.8543C42.6277 39.481 41.2642 41.5693 41.9106 41.8518C42.4917 42.1057 43.5102 40.82 43.5102 40.82C44.9113 41.32 44.9373 40.4094 45.3945 39.4401L45.6713 42.0643C45.7796 43.092 49.2649 40.5576 50.002 39.0649C52.3985 40.7033 50.3924 42.092 51.0352 42.6661C52.5727 43.0173 53.7532 41.179 55.1429 39.9462C55.4286 40.7938 55.3321 41.5511 54.9853 42.2491C56.4022 41.7222 57.201 40.1012 57.8717 40.2649C60.2435 40.8437 63.8245 35.2562 65.6472 31.3559C66.0013 30.5982 66.4082 29.9617 66.2032 29.2065C66.2069 28.3361 66.8685 28.3451 67.6806 28.6243C68.582 25.5205 71.8123 22.4556 71.7865 19.9493C72.5175 19.0438 74.324 17.4189 72.3449 16.8615L67.094 16.805C65.5913 17.8646 64.0747 19.2267 64.5706 17.0856C60.1512 16.2977 60.1283 18.6815 55.977 19.8369L46.4943 17.0297C45.0311 17.3888 41.9009 20.0219 43.8273 17.2545C44.4522 16.3568 41.7327 18.9085 33.5271 13.1227C32.5811 13.0599 31.9832 12.8661 28.9367 13.7301L24.471 13.6048L22.3478 11.752ZM34.0893 20.4326L40.0935 25.3953C40.3182 25.5829 40.7198 28.9778 39.3426 30.0005C38.757 30.2524 38.1951 30.3038 37.6837 29.9213C37.0771 29.3449 35.973 30.0194 35.0235 30.3045C31.581 28.0825 29.2045 25.7283 24.7038 23.653C27.2298 24.0812 29.5312 23.9123 29.6253 21.2665L34.0893 20.4326ZM55.5859 23.4866C56.9223 24.7613 58.2912 25.951 59.8873 26.5467C60.1424 28.118 58.9905 29.8133 57.6529 31.5156L58.1558 28.9891C58.5518 27.5567 57.7093 26.9864 56.759 26.4908L55.5859 23.4866ZM44.0711 28.9995C44.3917 29.0402 45.7457 30.6925 45.7813 31.4898C45.7967 31.8355 45.1072 32.1366 44.7151 32.0455C44.3317 31.9564 44.0374 29.7822 44.0039 29.0879C44.0006 29.0208 44.0253 28.9937 44.0711 28.9995Z" />
<path d="M25.5286 35.1929C24.7089 35.1944 23.2581 35.7549 21.7337 38.1413C21.2156 38.9524 18.6303 38.3228 18.2339 38.3758C17.1439 38.5217 16.5222 39.302 16.594 40.3588L17.9235 46.5731C18.1532 46.9649 19.0627 47.9791 21.1355 48.3135C21.8112 48.4225 22.0464 48.0662 23.4653 48.8091C24.398 49.2974 24.6618 47.9283 25.1693 49.0904C25.3762 49.5641 28.7162 49.1852 34.7216 57.1476C36.8412 59.9577 37.4629 58.4976 39.0786 59.7864C40.1591 60.6483 47.1511 62.0882 47.1511 62.0882C47.1511 62.0882 52.908 63.7435 55.5584 63.099C60.1029 61.9939 58.906 62.5166 60.3346 62.2847C61.3576 62.1186 62.9881 60.6566 62.9881 60.6566L49.4136 56.0802C49.4136 56.0802 51.3108 58.4496 51.9597 59.6759C52.2099 60.1489 47.832 55.7374 47.7096 55.1542C47.5869 54.5696 47.5977 53.9152 46.5084 53.8344L46.6764 52.9925C43.2648 51.6601 39.6886 50.3924 37.1235 48.725L43.0452 50.7184C45.0803 51.189 47.5012 51.5381 48.436 54.0592C48.6298 54.5818 50.0977 54.9481 51.1452 54.1151L54.2735 51.4203C54.1376 50.3312 55.4385 50.012 56.0332 49.3145L55.977 48.276L53.5751 48.3743C52.2223 48.438 52.6882 47.4477 52.5157 46.6198L50.2794 48.2195H48.8827L48.9383 45.9737L46.201 47.3217C44.697 48.2192 45.3251 46.6413 45.4189 45.4407H44.4976L44.0503 45.0194C44.6344 45.5697 39.3052 49.3581 41.2575 45.16C41.6051 44.3325 39.8383 45.2366 38.241 46.002C37.627 46.1283 37.9844 44.6464 37.9336 43.8403H36.9842L37.0116 42.5488L35.1964 44.0927C32.8054 43.241 32.49 44.8147 32.5709 42.0157C30.6118 40.7419 28.46 41.7655 28.1021 40.8366L26.2025 35.4183C26.1432 35.307 25.9012 35.1921 25.5286 35.1929ZM41.0063 58.0454L43.8548 59.4775L41.7603 59.0563C41.2938 58.6885 41.2418 58.38 41.0063 58.0454Z" />
</svg>
