<svg width="77" height="82" viewBox="0 0 77 82"  xmlns="http://www.w3.org/2000/svg">
<g filter="url(#filter0_d_208_146)">
<path d="M37.8473 1.06391C29.8656 1.37035 22.1254 10.0833 26.1011 18.7199C26.8228 17.4712 27.5486 16.3287 28.2783 15.2944L27.8497 17.1039L27.7582 16.9941L26.3116 20.1252L26.2201 20.9675L26.1652 21.6267L26.0187 22.0661L25.4877 22.7619L25.2863 23.1647L25.1764 23.531C25.4755 24.184 25.7745 24.8373 26.1285 25.3958C26.4826 25.9542 26.8917 26.4181 27.1602 26.7324C27.4288 27.0468 27.5568 27.2115 27.658 27.3001C27.7593 27.3886 27.8315 27.4006 27.9321 27.5258C28.0328 27.651 28.1612 27.8891 28.2909 28.0371C28.4206 28.185 28.5517 28.2429 28.8691 28.2734C29.1865 28.3039 29.6901 28.3069 29.9846 28.3069C30.2791 28.3069 30.3646 28.3038 30.5294 28.3878C30.6942 28.4718 30.9382 28.6426 31.1717 28.8364C31.4051 29.0302 31.628 29.2469 31.8543 29.6221C32.0807 29.9972 32.3086 30.5258 32.4382 30.9118C32.5679 31.2979 32.5984 31.5389 32.6136 31.696C32.6289 31.8532 32.6287 31.9264 32.6975 32.0439C32.7662 32.1614 32.9036 32.3232 32.983 32.4024C33.0623 32.4817 33.0835 32.4787 33.1918 32.4756C33.3002 32.4726 33.4957 32.4697 33.617 32.4934C33.7382 32.5171 33.7824 32.5642 33.8098 32.6253C33.8372 32.6863 33.8466 32.7597 33.9718 32.9443C34.0969 33.1289 34.3379 33.425 34.6324 33.5989C34.9269 33.7728 35.2748 33.8246 35.6028 33.875C35.9309 33.9253 36.2391 33.9742 36.4236 33.962C36.6082 33.9497 36.6694 33.8765 36.9976 33.9345C37.3257 33.9925 37.9207 34.1817 38.2235 34.2709C38.5263 34.3602 38.5339 34.3525 38.5628 34.3159C38.5918 34.2792 38.6408 34.2153 38.6057 34.0612C38.5707 33.9072 38.4516 33.663 38.3357 33.3883C38.2197 33.1137 38.1069 32.8086 38.0092 32.5766C37.9116 32.3447 37.8291 32.1858 37.7437 32.1049C37.6583 32.0239 37.5697 32.0208 37.4994 32.0514C37.4291 32.0819 37.3773 32.1459 37.33 32.2253C37.2827 32.3047 37.2399 32.3994 37.1483 32.5901C37.0568 32.7808 36.9166 33.0678 36.8373 33.2006C36.7581 33.3334 36.7397 33.3121 36.6863 33.2267C36.6329 33.1412 36.5442 32.9917 36.4969 32.8696C36.4495 32.7475 36.4434 32.6528 36.4008 32.546C36.3581 32.4392 36.2787 32.3201 36.2071 32.2513C36.1354 32.1826 36.0713 32.1645 35.8683 32.1401C35.6654 32.1156 35.3235 32.085 35.1556 32.0682C34.9877 32.0514 34.9938 32.0483 35.0106 32.033C35.0273 32.0178 35.0548 31.9905 35.125 31.9066C35.1952 31.8227 35.3082 31.6823 35.4563 31.6136C35.6044 31.5449 35.7936 31.548 35.9393 31.6122C36.085 31.6764 36.1904 31.8014 36.2969 31.896C36.4034 31.9906 36.5109 32.0545 36.6139 32.0823C36.7169 32.11 36.8152 32.1017 36.9029 32.0868C36.9905 32.072 37.0675 32.0506 37.1266 32.0136C37.1857 31.9766 37.2269 31.924 37.2662 31.8763C37.3055 31.8286 37.3431 31.786 37.3832 31.7604C37.4233 31.7348 37.4658 31.7263 37.528 31.7241C37.5902 31.7218 37.6721 31.7256 37.7457 31.7275C37.8193 31.7294 37.8848 31.7294 37.9626 31.773C38.0404 31.8165 38.1305 31.9035 38.2106 31.9778C38.2907 32.0522 38.3609 32.1141 38.4189 32.1607C38.4769 32.2072 38.5226 32.2386 38.5989 32.2519C38.6752 32.2652 38.782 32.2604 38.8815 32.2596C38.9811 32.2589 39.0735 32.2621 39.186 32.2408C39.2985 32.2194 39.4313 32.1736 39.5648 32.124C39.6983 32.0744 39.8326 32.0208 39.9501 31.9758C40.0676 31.9308 40.1682 31.8943 40.2491 31.8737C40.33 31.8531 40.3911 31.8486 40.472 31.8914C40.5529 31.9342 40.6537 32.0241 40.7246 32.0897C40.7956 32.1553 40.8367 32.1965 40.9412 32.2124C41.0457 32.2284 41.2134 32.2193 41.4041 32.1392C41.5948 32.0591 41.8085 31.908 41.9305 31.8096C42.0526 31.7112 42.0831 31.6655 42.1237 31.6411C42.1642 31.6166 42.2144 31.6135 42.261 31.6265C42.3076 31.6395 42.3505 31.6685 42.3909 31.7075C42.4313 31.7464 42.4694 31.7954 42.4999 31.8511C42.5304 31.9068 42.5531 31.9692 42.5623 32.0142C42.5714 32.0591 42.5667 32.0867 42.5448 32.1057C42.5227 32.1247 42.483 32.1355 42.4052 32.1355C42.3274 32.1355 42.2114 32.1248 42.126 32.1217C42.0405 32.1187 41.9855 32.1232 41.9054 32.1598C41.8252 32.1964 41.72 32.265 41.6399 32.3429C41.5597 32.4207 41.5048 32.5079 41.4453 32.6215C41.3858 32.7352 41.3216 32.8754 41.2682 32.9975C41.2148 33.1196 41.1722 33.2234 41.1463 33.2753C41.1205 33.3271 41.1111 33.3271 41.0173 33.241C40.9235 33.1548 40.7452 32.9824 40.6391 32.855C40.533 32.7276 40.4993 32.6453 40.4345 32.5675C40.3697 32.4896 40.2735 32.4162 40.1727 32.3887C40.072 32.3611 39.9669 32.3794 39.8692 32.4153C39.7715 32.4511 39.6813 32.5045 39.5997 32.5755C39.518 32.6465 39.445 32.735 39.3748 32.835C39.3046 32.9349 39.2373 33.0464 39.1946 33.1975C39.1518 33.3486 39.1337 33.5394 39.1253 33.695C39.117 33.8507 39.1184 33.9711 39.1256 34.028C39.1328 34.085 39.1444 34.0792 39.4398 34.0357C39.735 33.9923 40.3132 33.9114 40.6122 33.8512C40.9112 33.791 40.931 33.7513 40.9693 33.7299C41.0075 33.7085 41.0641 33.7056 41.0991 33.7156C41.1342 33.7256 41.1478 33.7483 41.1798 33.7926C41.2119 33.8368 41.2624 33.9025 41.3349 33.9367C41.4074 33.971 41.5019 33.974 41.5927 33.9679C41.6834 33.9618 41.7704 33.9465 42.2576 33.6392C42.7448 33.3319 43.6323 32.7324 44.0803 32.4155C44.5284 32.0987 44.5369 32.0643 44.6491 31.6219C44.7613 31.1795 44.9771 30.3292 45.1023 29.889C45.2275 29.4487 45.262 29.4186 45.4087 29.2524C45.5554 29.0862 45.8144 28.784 46.0044 28.5984C46.1943 28.4128 46.315 28.3438 46.4704 28.3071C46.6259 28.2704 46.8158 28.2662 46.9625 28.2857C47.1093 28.3051 47.213 28.3481 47.4137 28.3675C47.6144 28.3869 47.9121 28.3826 48.1516 28.32C48.391 28.2574 48.5722 28.1367 48.9498 27.718C49.3274 27.2994 49.9016 26.5829 50.3857 25.9625C50.8699 25.3421 51.261 24.8221 51.4984 24.4834C51.7358 24.1446 51.8176 23.9892 51.85 23.7627C51.8824 23.5361 51.8654 23.2383 51.8125 23.0451C51.7597 22.852 51.6755 22.7679 51.6042 22.6924C51.533 22.6168 51.4771 22.5522 51.3562 22.3127C51.2353 22.0732 51.0498 21.6589 50.9591 21.3654C50.8684 21.0719 50.8728 20.8991 50.6764 20.3898C50.4801 19.8805 50.0829 19.0349 49.6513 18.1393C49.2197 17.2438 48.7536 16.2986 48.1407 15.0406C48.1113 14.9802 48.0747 14.9112 48.0446 14.8494C49.0203 16.1557 50.0034 17.661 50.9943 19.3744C53.9734 17.0392 53.5663 1.17431 37.8473 1.06391ZM44.8783 17.79C46.7437 17.7819 48.3693 19 49.4954 20.2167C50.7149 22.8258 48.9785 24.3537 48.177 24.7211C44.515 26.0894 41.8521 23.4557 41.219 22.5605C40.1716 20.2252 41.5442 19.1381 42.6839 18.3857C43.3751 18.0055 44.0498 17.8251 44.6969 17.7946C44.7575 17.7917 44.8181 17.7903 44.8783 17.79ZM32.7733 17.7903C33.4934 17.7833 34.2498 17.958 35.0275 18.3857C36.1672 19.1381 37.5397 20.2253 36.4923 22.5605C35.8593 23.4557 33.1963 26.0894 29.5343 24.7211C28.7328 24.3537 26.9964 22.8259 28.2159 20.2167C29.3299 19.0131 30.933 17.8082 32.7733 17.7903ZM38.2862 22.6807C38.5331 22.6855 38.8581 22.788 39.3018 23.044L39.6643 23.795L39.755 23.6136C40.1812 25.3656 40.5798 26.8977 41.0368 28.8962C40.8695 29.3205 40.917 29.6644 40.2729 30.1522C40.0447 30.3345 39.4523 29.9268 38.499 28.8316C38.0146 29.1632 37.6367 29.5251 37.1266 29.958C36.9301 29.6952 36.6563 29.1719 36.3238 28.7798C36.6502 26.7808 37.0168 25.0391 37.5151 23.2122C37.6801 22.9361 37.8746 22.6727 38.2862 22.6807Z" />
<path d="M17.0516 28.2264L16.7653 28.4399L17.492 31.1516L17.282 31.3615L11.5347 32.6842L7.2432 30.3636L4.44626 31.1129L4.23941 31.4717L5.90081 32.4004L9.55176 32.4708L35.2512 47.3083L36.191 48.7214L9.32545 33.2106C9.29503 33.1152 7.9842 33.689 7.9842 33.689L8.01797 34.0023L34.1591 49.4466V57.7339L35.769 58.6631L42.8847 56.7566C43.4166 56.595 43.9761 56.6024 44.6082 57.055L46.6956 58.9455L47.4383 59.3429L50.1182 59.3413L51.4554 57.025C51.6878 56.8023 52.2105 56.6618 52.6305 56.6951L61.8126 61.9565C63.7388 64.1009 65.1635 66.5838 62.4541 71.8594L64.4047 73.9694H64.9998L71.0872 63.4259L70.9879 63.0552L69.7434 62.3368L69.4009 61.0582L58.2612 54.6269L57.2141 50.7184L54.8681 49.364L55.6045 53.2047L55.3662 53.2176L34.6981 41.605H33.4722L20.8577 34.3219L20.7784 31.1983L19.0352 30.2862L18.7837 29.3475L18.0089 28.9003L17.9706 28.757L17.0516 28.2264ZM45.8312 53.8772L49.3337 55.8296C49.1025 56.693 48.6706 57.2391 48.1684 57.6741C49.0971 57.7348 49.8187 57.4271 50.194 56.5034L50.4664 56.4676L50.584 56.744L49.6301 58.6237L47.5275 58.7L45.1975 56.5016L43.7338 55.6176L43.7701 54.1816L45.8312 53.8772Z" />
<path d="M14.8912 31.1284L5.38785 25.7668C4.72206 25.9364 3.79409 27.1422 4.45029 27.726L11.8113 31.8945L14.8912 31.1284Z" />
<path d="M13.759 28.3259L16.4411 29.7949L16.7078 30.7018L15.7711 30.9096L13.1429 29.3448C13.1959 28.9333 13.496 28.619 13.759 28.3259Z" />
<path d="M21.5374 32.0148V33.8638L33.6891 40.9002L34.7585 40.837L54.6415 52.1401L54.1528 49.8781L34.3454 38.6661L33.4301 38.9164L21.5374 32.0148Z" />
<path d="M53.7435 58.0933L53.1981 59.1731C54.212 63.2015 54.3533 64.6668 54.279 65.4986C54.1431 65.8301 53.9759 66.0499 53.8032 66.2499C52.5941 66.5751 51.3247 66.7634 50.0693 66.9834L49.5669 66.5322L49.9124 66.0123L50.1373 66.0234C49.7468 64.0301 49.9046 62.0285 49.8147 60.0306L50.5325 59.8571C50.9205 59.0275 51.5676 58.2599 52.1101 57.4673L52.5615 57.3748L53.7435 58.0933Z" />
<path d="M41.5223 57.7369L41.8169 58.1965L41.3087 67.9007C41.2055 68.3387 40.8293 68.7252 40.2858 68.6257L35.615 65.9844L35.6086 64.1006L36.2915 63.7704V59.1676L41.5223 57.7369Z" />
<path d="M59.9484 28.1752L59.0294 28.7057L58.9911 28.849L58.2164 29.2962L57.9649 30.2349L56.2217 31.147L56.1424 34.2706L43.5279 41.5537H42.6484L47.113 44.1601L67.4483 32.4196L71.0993 32.3492L72.7607 31.4205L72.5538 31.0617L69.7569 30.3124L65.4654 32.633L59.7181 31.3103L59.5081 31.1003L60.2348 28.3887L59.9484 28.1752ZM67.6946 33.1491C67.6833 33.1502 67.6765 33.1534 67.6746 33.1594L47.8629 44.5978L49.4213 45.5076L68.9821 33.9511L69.0159 33.6378C69.0159 33.6378 67.8637 33.1335 67.6946 33.1491ZM29.7486 48.6069L21.6339 53.1663L21.3956 53.1534L22.132 49.3127L19.7859 50.6671L18.7388 54.5756L7.59913 61.0069L7.25666 62.2855L6.01212 63.0039L5.91284 63.3747L12.0002 73.9181H12.5953L14.546 71.8081C11.8366 66.5325 13.2612 64.0496 15.1874 61.9052L24.3696 56.6438C24.7895 56.6105 25.3122 56.751 25.5446 56.9737L26.8819 59.29L29.5618 59.2916L30.3045 58.8942L32.3919 57.0037C32.4872 56.9354 32.5807 56.8784 32.6728 56.8294V55.9248L31.8025 56.4504L29.4725 58.6488L27.3699 58.5724L26.4161 56.6927L26.5337 56.4163L26.806 56.4521C27.1814 57.3758 27.903 57.6835 28.8316 57.6228C28.3295 57.1879 27.8976 56.6418 27.6663 55.7783L31.1688 53.8259L32.6728 54.048V50.2597L29.7486 48.6069Z" />
<path d="M62.1088 31.0772L71.6121 25.7155C72.2779 25.8851 73.2059 27.0909 72.5497 27.6748L65.1887 31.8432L62.1088 31.0772Z" />
<path d="M63.241 28.2746L60.5589 29.7437L60.2922 30.6505L61.2289 30.8583L63.8571 29.2936C63.8041 28.8821 63.504 28.5678 63.241 28.2746Z" />
<path d="M55.4626 31.9635L43.5699 38.8651L42.6546 38.6148L40.0955 40.0633L41.7812 41.0475L42.2415 40.7858L43.311 40.849L55.4626 33.8126V31.9635ZM27.3736 47.2645L22.8472 49.8269L22.3586 52.0888L29.1143 48.2484L27.3736 47.2645Z" />
<path d="M23.2565 58.042L23.8018 59.1219C22.788 63.1502 22.6467 64.6155 22.7209 65.4474C22.8569 65.7788 23.0241 65.9986 23.1967 66.1986C24.4059 66.5238 25.6753 66.7121 26.9307 66.9322L27.4331 66.481L27.0876 65.9611L26.8627 65.9722C27.2532 63.9788 27.0954 61.9772 27.1852 59.9794L26.4675 59.8058C26.0794 58.9762 25.4324 58.2086 24.8899 57.416L24.4385 57.3235L23.2565 58.042Z" />
</g>
<defs>
<filter id="filter0_d_208_146" x="-3" y="0" width="83" height="83" filterUnits="userSpaceOnUse" color-interpolation-filters="sRGB">
<feFlood flood-opacity="0" result="BackgroundImageFix"/>
<feColorMatrix in="SourceAlpha" type="matrix" values="0 0 0 0 0 0 0 0 0 0 0 0 0 0 0 0 0 0 127 0" result="hardAlpha"/>
<feOffset dy="4"/>
<feGaussianBlur stdDeviation="2"/>
<feComposite in2="hardAlpha" operator="out"/>
<feColorMatrix type="matrix" values="0 0 0 0 0 0 0 0 0 0 0 0 0 0 0 0 0 0 0.25 0"/>
<feBlend mode="normal" in2="BackgroundImageFix" result="effect1_dropShadow_208_146"/>
<feBlend mode="normal" in="SourceGraphic" in2="effect1_dropShadow_208_146" result="shape"/>
</filter>
</defs>
</svg>
