<svg width="100" height="100" viewBox="0 0 100 100" fill="none" xmlns="http://www.w3.org/2000/svg">
<path d="M56.3828 49.5957L60.2073 59.5745L63.5043 57.1128L57.3939 49.5957H56.3828Z" fill="white"/>
<path d="M43.5907 49.5957L39.7662 59.5745L36.4692 57.1128L42.5796 49.5957H43.5907Z" fill="white"/>
<path d="M46.7117 50.4307L42.9751 59.9699H56.9982L53.1737 50.2988C51.0197 50.6853 48.8657 50.7475 46.7117 50.4307Z" fill="white"/>
<path d="M41.7881 63.1787H57.7454V72.8498H41.7881V63.1787Z" fill="white"/>
<path d="M43.6343 45.0532C47.986 46.1476 52.3378 45.8796 56.6896 44.9911L51.3431 2.34375H48.2969L43.6343 45.0532Z" fill="white"/>
<path d="M61.0415 63.1751V71.8476L68.999 66.1281V64.4495L74.8117 54.254L76.3659 59.6626L82.0232 59.3518L84.9762 53.912L80.6866 40.4837C80.3305 39.4925 79.9019 38.9996 78.5729 39.3025C76.7362 39.9217 74.9414 40.6593 73.3508 41.9758C72.0714 43.0513 72.655 44.0792 72.9156 45.1153C73.1977 46.273 73.2905 46.7034 72.7913 47.5087L65.9528 59.7248L61.0415 63.1751Z" fill="white"/>
<path d="M38.8844 63.0306V71.703L30.9269 65.9836V64.305L25.1142 54.1094L23.56 59.5181L17.9027 59.2072L14.9497 53.7675L19.2393 40.3392C19.5954 39.3479 20.0241 38.855 21.353 39.158C23.1897 39.7772 24.9846 40.5148 26.5751 41.8312C27.8545 42.9068 27.2709 43.9346 27.0103 44.9707C26.7282 46.1285 26.6354 46.5589 27.1347 47.3642L33.9731 59.5802L38.8844 63.0306Z" fill="white"/>
<path d="M48.3976 84.4492C49.8106 86.3498 50.7491 86.0795 51.8479 84.4492C53.7223 81.1326 52.3939 78.8338 50.2548 78.7297C47.9487 78.7034 46.0046 81.1868 48.3976 84.4492Z" fill="white"/>
<path d="M40.2935 75.8389L43.7223 88.148H56.4266L59.5476 75.8389H40.2935ZM49.9203 77.0701C53.8154 77.1208 56.4257 81.5892 52.5578 85.6863C50.2762 88.0462 49.9007 87.9947 47.6784 85.6863C43.8489 81.6045 45.6146 77.5426 49.9203 77.0701Z" fill="white" fill-opacity="0.5"/>
<path d="M86.1575 57.7354L84.0437 62.8955C83.6497 63.4344 83.5981 63.6118 82.7346 63.6415L77.3296 63.828L84.9763 95.6579C86.7944 95.3549 84.8008 96.4147 88.3278 96.1631C90.1344 95.9827 90.9445 94.5845 90.8822 92.5495C90.321 80.6632 89.6423 68.8095 86.1575 57.7354Z" fill="white"/>
<path d="M13.8428 57.8223L15.9566 62.9824C16.3506 63.5214 16.4022 63.6987 17.2657 63.7285L22.6707 63.915L15.024 95.7448C13.2059 95.4418 15.1995 96.5016 11.6725 96.25C9.86593 96.0696 9.0558 94.6714 9.11807 92.6364C9.67929 80.7501 10.358 68.8965 13.8428 57.8223Z" fill="white"/>
<path d="M47.1514 90.3896C47.3712 90.3896 52.954 90.3896 52.954 90.3896L50.8879 96.2363H49.2175L47.1514 90.3896Z" fill="white"/>
<path d="M41.1726 84.5439L42.0957 87.8849C40.8178 86.9531 40.5754 85.8273 41.1726 84.5439Z" fill="white" fill-opacity="0.5"/>
<path d="M58.7127 84.3232C59.3294 86.1773 59.9386 86.3507 57.9214 87.7521L58.7127 84.3232Z" fill="white" fill-opacity="0.5"/>
<path d="M61.0643 75.7737L59.9434 79.9279C61.3589 78.5833 62.7786 77.2075 63.9657 77.576C64.6103 77.7187 64.6542 77.3741 65.0646 76.8287L68.7353 70.3887L61.0643 75.7737Z" fill="white" fill-opacity="0.5"/>
<path d="M38.9385 75.7493L40.0595 79.9035C38.644 78.5588 37.2243 77.1831 36.0372 77.5516C35.3925 77.6943 35.3486 77.3497 34.9382 76.8043L31.2676 70.3643L38.9385 75.7493Z" fill="white" fill-opacity="0.5"/>
<path d="M56.4707 97.4671H74.0545L66.1963 95.3615L76.5602 84.4111L56.4707 97.4671Z" fill="white" fill-opacity="0.5"/>
<path d="M43.3302 97.6566H25.7464L33.6046 95.551L23.2407 84.6006L43.3302 97.6566Z" fill="white" fill-opacity="0.5"/>
<path d="M63.901 79.0596C61.7873 79.9403 60.2022 81.3496 60.6372 84.779L63.9321 84.8101C65.7137 84.6136 65.8872 83.0665 65.5174 82.4788C64.6101 81.4004 64.3466 80.2148 63.901 79.0596Z" fill="white"/>
<path d="M36.3284 79.0615C38.4421 79.9423 40.0272 81.3516 39.5922 84.781L36.2973 84.812C34.5157 84.6155 34.3422 83.0685 34.712 82.4807C35.6193 81.4024 35.8828 80.2168 36.3284 79.0615Z" fill="white"/>
<path d="M29.6115 10.0762L26.1387 24.1872L35.2822 46.5186L29.6115 10.0762Z" fill="white" fill-opacity="0.5"/>
<path d="M70.5555 10.0762L74.0283 24.1872L64.8848 46.5186L70.5555 10.0762Z" fill="white" fill-opacity="0.5"/>
</svg>
